M48
;DRILL file {KiCad (5.0.1)-3} date 2/10/2019 11:50:51 AM
;FORMAT={-:-/ absolute / inch / decimal}
FMAT,2
INCH,TZ
T1C0.0118
T2C0.0374
T3C0.0394
%
G90
G05
M72
T1
X3.202Y-2.765
X3.614Y-2.789
X3.714Y-4.384
X3.9678Y-4.1932
X3.989Y-4.276
X4.014Y-4.324
X4.263Y-4.162
X4.487Y-4.2053
X4.4875Y-4.3015
X4.59Y-4.2367
X4.59Y-4.297
X4.7Y-3.702
X4.832Y-4.476
X5.133Y-2.965
X5.137Y-2.907
X5.173Y-3.059
X5.201Y-2.783
X5.2172Y-2.8602
X5.2352Y-3.1672
X5.237Y-2.733
X5.272Y-2.686
T2
X4.5031Y-3.2025
X4.6016Y-3.2025
X4.7Y-3.2025
X3.2872Y-3.83
X3.3856Y-3.83
X3.4841Y-3.83
X3.5825Y-3.83
X3.8947Y-3.205
X3.9931Y-3.205
X4.0916Y-3.205
X4.19Y-3.205
X3.2897Y-4.1275
X3.3881Y-4.1275
X3.4866Y-4.1275
X3.585Y-4.1275
X3.2748Y-2.8914
X3.3733Y-2.8914
X3.4717Y-2.8914
X3.5701Y-2.8914
X4.5031Y-3.525
X4.6016Y-3.525
X4.7Y-3.525
X3.2872Y-3.5225
X3.3856Y-3.5225
X3.4841Y-3.5225
X3.5825Y-3.5225
X4.5031Y-2.8925
X4.6016Y-2.8925
X4.7Y-2.8925
X3.8972Y-3.53
X3.9956Y-3.53
X4.0941Y-3.53
X4.1925Y-3.53
X3.8922Y-2.8925
X3.9906Y-2.8925
X4.0891Y-2.8925
X4.1875Y-2.8925
X3.2742Y-3.2064
X3.3726Y-3.2064
X3.471Y-3.2064
X3.5695Y-3.2064
T3
X5.0225Y-3.8875
X5.0225Y-3.9875
X5.0225Y-4.0875
X5.0225Y-4.1875
X5.0225Y-4.2875
X5.1225Y-3.8875
X5.1225Y-3.9875
X5.1225Y-4.0875
X5.1225Y-4.1875
X5.1225Y-4.2875
X5.55Y-2.74
X5.55Y-2.84
X5.55Y-2.94
X5.55Y-3.04
X5.55Y-3.14
X5.55Y-3.24
X5.55Y-3.34
X5.55Y-3.44
X5.55Y-3.54
X5.55Y-3.64
X5.025Y-4.4425
X5.125Y-4.4425
X3.422Y-2.4823
X3.422Y-2.5823
X3.522Y-2.4823
X3.522Y-2.5823
X3.622Y-2.4823
X3.622Y-2.5823
X3.722Y-2.4823
X3.722Y-2.5823
X3.822Y-2.4823
X3.822Y-2.5823
X3.922Y-2.4823
X3.922Y-2.5823
X4.022Y-2.4823
X4.022Y-2.5823
X4.122Y-2.4823
X4.122Y-2.5823
X4.222Y-2.4823
X4.222Y-2.5823
X4.322Y-2.4823
X4.322Y-2.5823
X4.422Y-2.4823
X4.422Y-2.5823
X4.522Y-2.4823
X4.522Y-2.5823
X4.622Y-2.4823
X4.622Y-2.5823
X4.722Y-2.4823
X4.722Y-2.5823
X4.822Y-2.4823
X4.822Y-2.5823
X4.922Y-2.4823
X4.922Y-2.5823
X5.022Y-2.4823
X5.022Y-2.5823
X5.122Y-2.4823
X5.122Y-2.5823
X5.222Y-2.4823
X5.222Y-2.5823
X5.322Y-2.4823
X5.322Y-2.5823
X3.4925Y-4.4525
X3.5925Y-4.4525
T0
M30
