%TF.GenerationSoftware,KiCad,Pcbnew,(5.1.7)-1*%
%TF.CreationDate,2022-01-16T10:28:54-05:00*%
%TF.ProjectId,reef-piHat,72656566-2d70-4694-9861-742e6b696361,rev?*%
%TF.SameCoordinates,Original*%
%TF.FileFunction,Paste,Top*%
%TF.FilePolarity,Positive*%
%FSLAX46Y46*%
G04 Gerber Fmt 4.6, Leading zero omitted, Abs format (unit mm)*
G04 Created by KiCad (PCBNEW (5.1.7)-1) date 2022-01-16 10:28:54*
%MOMM*%
%LPD*%
G01*
G04 APERTURE LIST*
%TA.AperFunction,Profile*%
%ADD10C,0.100000*%
%TD*%
%ADD11R,0.650000X1.060000*%
%ADD12R,1.100000X0.400000*%
%ADD13R,0.800000X0.500000*%
%ADD14R,0.800000X0.400000*%
%ADD15R,0.900000X0.800000*%
%ADD16R,1.725000X0.600000*%
%ADD17R,1.300000X1.700000*%
%ADD18R,1.700000X1.300000*%
G04 APERTURE END LIST*
D10*
X78546356Y-63817611D02*
X78546356Y-113817611D01*
X78546356Y-63817611D02*
G75*
G02*
X81546356Y-60817611I3000000J0D01*
G01*
X140546356Y-60817611D02*
X81546356Y-60817611D01*
X140546356Y-60817611D02*
G75*
G02*
X143546356Y-63817611I0J-3000000D01*
G01*
X143546356Y-113817611D02*
X143546356Y-63817611D01*
X81546356Y-116817611D02*
G75*
G02*
X78546356Y-113817611I0J3000000D01*
G01*
X81546356Y-116817611D02*
X140546356Y-116817611D01*
X143546351Y-113822847D02*
G75*
G02*
X140546356Y-116817611I-2999995J5236D01*
G01*
D11*
X102880000Y-112190000D03*
X101930000Y-112190000D03*
X103830000Y-112190000D03*
X103830000Y-114390000D03*
X102880000Y-114390000D03*
X101930000Y-114390000D03*
D12*
X110241200Y-108212600D03*
X110241200Y-107562600D03*
X110241200Y-106912600D03*
X110241200Y-106262600D03*
X110241200Y-105612600D03*
X110241200Y-104962600D03*
X110241200Y-104312600D03*
X110241200Y-103662600D03*
X110241200Y-103012600D03*
X110241200Y-102362600D03*
X110241200Y-101712600D03*
X110241200Y-101062600D03*
X110241200Y-100412600D03*
X110241200Y-99762600D03*
X104541200Y-99762600D03*
X104541200Y-100412600D03*
X104541200Y-101062600D03*
X104541200Y-101712600D03*
X104541200Y-102362600D03*
X104541200Y-103012600D03*
X104541200Y-103662600D03*
X104541200Y-104312600D03*
X104541200Y-104962600D03*
X104541200Y-105612600D03*
X104541200Y-106262600D03*
X104541200Y-106912600D03*
X104541200Y-107562600D03*
X104541200Y-108212600D03*
D13*
X135020000Y-84240000D03*
D14*
X135020000Y-85840000D03*
X135020000Y-85040000D03*
D13*
X135020000Y-86640000D03*
D14*
X136820000Y-85040000D03*
D13*
X136820000Y-84240000D03*
D14*
X136820000Y-85840000D03*
D13*
X136820000Y-86640000D03*
D15*
X96300000Y-113640000D03*
X98300000Y-112690000D03*
X98300000Y-114590000D03*
G36*
G01*
X106917000Y-110473500D02*
X106917000Y-109998500D01*
G75*
G02*
X107154500Y-109761000I237500J0D01*
G01*
X107729500Y-109761000D01*
G75*
G02*
X107967000Y-109998500I0J-237500D01*
G01*
X107967000Y-110473500D01*
G75*
G02*
X107729500Y-110711000I-237500J0D01*
G01*
X107154500Y-110711000D01*
G75*
G02*
X106917000Y-110473500I0J237500D01*
G01*
G37*
G36*
G01*
X105167000Y-110473500D02*
X105167000Y-109998500D01*
G75*
G02*
X105404500Y-109761000I237500J0D01*
G01*
X105979500Y-109761000D01*
G75*
G02*
X106217000Y-109998500I0J-237500D01*
G01*
X106217000Y-110473500D01*
G75*
G02*
X105979500Y-110711000I-237500J0D01*
G01*
X105404500Y-110711000D01*
G75*
G02*
X105167000Y-110473500I0J237500D01*
G01*
G37*
D16*
X125057500Y-95980000D03*
X125057500Y-97250000D03*
X125057500Y-98520000D03*
X125057500Y-99790000D03*
X125057500Y-101060000D03*
X125057500Y-102330000D03*
X125057500Y-103600000D03*
X125057500Y-104870000D03*
X125057500Y-106140000D03*
X133782500Y-95980000D03*
X133782500Y-97250000D03*
X133782500Y-98520000D03*
X133782500Y-99790000D03*
X133782500Y-101060000D03*
X133782500Y-102330000D03*
X133782500Y-103600000D03*
X133782500Y-104870000D03*
X133782500Y-106140000D03*
G36*
G01*
X94987500Y-76945000D02*
X94512500Y-76945000D01*
G75*
G02*
X94275000Y-76707500I0J237500D01*
G01*
X94275000Y-76132500D01*
G75*
G02*
X94512500Y-75895000I237500J0D01*
G01*
X94987500Y-75895000D01*
G75*
G02*
X95225000Y-76132500I0J-237500D01*
G01*
X95225000Y-76707500D01*
G75*
G02*
X94987500Y-76945000I-237500J0D01*
G01*
G37*
G36*
G01*
X94987500Y-75195000D02*
X94512500Y-75195000D01*
G75*
G02*
X94275000Y-74957500I0J237500D01*
G01*
X94275000Y-74382500D01*
G75*
G02*
X94512500Y-74145000I237500J0D01*
G01*
X94987500Y-74145000D01*
G75*
G02*
X95225000Y-74382500I0J-237500D01*
G01*
X95225000Y-74957500D01*
G75*
G02*
X94987500Y-75195000I-237500J0D01*
G01*
G37*
G36*
G01*
X94987500Y-84425000D02*
X94512500Y-84425000D01*
G75*
G02*
X94275000Y-84187500I0J237500D01*
G01*
X94275000Y-83612500D01*
G75*
G02*
X94512500Y-83375000I237500J0D01*
G01*
X94987500Y-83375000D01*
G75*
G02*
X95225000Y-83612500I0J-237500D01*
G01*
X95225000Y-84187500D01*
G75*
G02*
X94987500Y-84425000I-237500J0D01*
G01*
G37*
G36*
G01*
X94987500Y-86175000D02*
X94512500Y-86175000D01*
G75*
G02*
X94275000Y-85937500I0J237500D01*
G01*
X94275000Y-85362500D01*
G75*
G02*
X94512500Y-85125000I237500J0D01*
G01*
X94987500Y-85125000D01*
G75*
G02*
X95225000Y-85362500I0J-237500D01*
G01*
X95225000Y-85937500D01*
G75*
G02*
X94987500Y-86175000I-237500J0D01*
G01*
G37*
G36*
G01*
X106965000Y-114937500D02*
X106965000Y-114462500D01*
G75*
G02*
X107202500Y-114225000I237500J0D01*
G01*
X107777500Y-114225000D01*
G75*
G02*
X108015000Y-114462500I0J-237500D01*
G01*
X108015000Y-114937500D01*
G75*
G02*
X107777500Y-115175000I-237500J0D01*
G01*
X107202500Y-115175000D01*
G75*
G02*
X106965000Y-114937500I0J237500D01*
G01*
G37*
G36*
G01*
X105215000Y-114937500D02*
X105215000Y-114462500D01*
G75*
G02*
X105452500Y-114225000I237500J0D01*
G01*
X106027500Y-114225000D01*
G75*
G02*
X106265000Y-114462500I0J-237500D01*
G01*
X106265000Y-114937500D01*
G75*
G02*
X106027500Y-115175000I-237500J0D01*
G01*
X105452500Y-115175000D01*
G75*
G02*
X105215000Y-114937500I0J237500D01*
G01*
G37*
G36*
G01*
X105210000Y-112127500D02*
X105210000Y-111652500D01*
G75*
G02*
X105447500Y-111415000I237500J0D01*
G01*
X106022500Y-111415000D01*
G75*
G02*
X106260000Y-111652500I0J-237500D01*
G01*
X106260000Y-112127500D01*
G75*
G02*
X106022500Y-112365000I-237500J0D01*
G01*
X105447500Y-112365000D01*
G75*
G02*
X105210000Y-112127500I0J237500D01*
G01*
G37*
G36*
G01*
X106960000Y-112127500D02*
X106960000Y-111652500D01*
G75*
G02*
X107197500Y-111415000I237500J0D01*
G01*
X107772500Y-111415000D01*
G75*
G02*
X108010000Y-111652500I0J-237500D01*
G01*
X108010000Y-112127500D01*
G75*
G02*
X107772500Y-112365000I-237500J0D01*
G01*
X107197500Y-112365000D01*
G75*
G02*
X106960000Y-112127500I0J237500D01*
G01*
G37*
D17*
X125866939Y-90768777D03*
X129366939Y-90768777D03*
D18*
X94742000Y-72580000D03*
X94742000Y-69080000D03*
D17*
X125866939Y-88323234D03*
X129366939Y-88323234D03*
X129366939Y-85877695D03*
X125866939Y-85877695D03*
X129366939Y-83432156D03*
X125866939Y-83432156D03*
D18*
X94750000Y-78470000D03*
X94750000Y-81970000D03*
D17*
X125866939Y-80986617D03*
X129366939Y-80986617D03*
X129366939Y-78541078D03*
X125866939Y-78541078D03*
X125866939Y-76095539D03*
X129366939Y-76095539D03*
X129366939Y-73650000D03*
X125866939Y-73650000D03*
D13*
X120650000Y-108407200D03*
D14*
X120650000Y-106807200D03*
X120650000Y-107607200D03*
D13*
X120650000Y-106007200D03*
D14*
X118850000Y-107607200D03*
D13*
X118850000Y-108407200D03*
D14*
X118850000Y-106807200D03*
D13*
X118850000Y-106007200D03*
X106160000Y-94130000D03*
D14*
X106160000Y-95730000D03*
X106160000Y-94930000D03*
D13*
X106160000Y-96530000D03*
D14*
X107960000Y-94930000D03*
D13*
X107960000Y-94130000D03*
D14*
X107960000Y-95730000D03*
D13*
X107960000Y-96530000D03*
X96901000Y-100089000D03*
D14*
X96901000Y-101689000D03*
X96901000Y-100889000D03*
D13*
X96901000Y-102489000D03*
D14*
X98701000Y-100889000D03*
D13*
X98701000Y-100089000D03*
D14*
X98701000Y-101689000D03*
D13*
X98701000Y-102489000D03*
X98753500Y-98418500D03*
D14*
X98753500Y-97618500D03*
D13*
X98753500Y-96018500D03*
D14*
X98753500Y-96818500D03*
D13*
X96953500Y-98418500D03*
D14*
X96953500Y-96818500D03*
X96953500Y-97618500D03*
D13*
X96953500Y-96018500D03*
X136820000Y-77420000D03*
D14*
X136820000Y-76620000D03*
D13*
X136820000Y-75020000D03*
D14*
X136820000Y-75820000D03*
D13*
X135020000Y-77420000D03*
D14*
X135020000Y-75820000D03*
X135020000Y-76620000D03*
D13*
X135020000Y-75020000D03*
G36*
G01*
X116895000Y-68055500D02*
X116895000Y-67580500D01*
G75*
G02*
X117132500Y-67343000I237500J0D01*
G01*
X117707500Y-67343000D01*
G75*
G02*
X117945000Y-67580500I0J-237500D01*
G01*
X117945000Y-68055500D01*
G75*
G02*
X117707500Y-68293000I-237500J0D01*
G01*
X117132500Y-68293000D01*
G75*
G02*
X116895000Y-68055500I0J237500D01*
G01*
G37*
G36*
G01*
X118645000Y-68055500D02*
X118645000Y-67580500D01*
G75*
G02*
X118882500Y-67343000I237500J0D01*
G01*
X119457500Y-67343000D01*
G75*
G02*
X119695000Y-67580500I0J-237500D01*
G01*
X119695000Y-68055500D01*
G75*
G02*
X119457500Y-68293000I-237500J0D01*
G01*
X118882500Y-68293000D01*
G75*
G02*
X118645000Y-68055500I0J237500D01*
G01*
G37*
X96901000Y-105740200D03*
D14*
X96901000Y-107340200D03*
X96901000Y-106540200D03*
D13*
X96901000Y-108140200D03*
D14*
X98701000Y-106540200D03*
D13*
X98701000Y-105740200D03*
D14*
X98701000Y-107340200D03*
D13*
X98701000Y-108140200D03*
G36*
G01*
X99254800Y-103902500D02*
X99254800Y-104377500D01*
G75*
G02*
X99017300Y-104615000I-237500J0D01*
G01*
X98442300Y-104615000D01*
G75*
G02*
X98204800Y-104377500I0J237500D01*
G01*
X98204800Y-103902500D01*
G75*
G02*
X98442300Y-103665000I237500J0D01*
G01*
X99017300Y-103665000D01*
G75*
G02*
X99254800Y-103902500I0J-237500D01*
G01*
G37*
G36*
G01*
X97504800Y-103902500D02*
X97504800Y-104377500D01*
G75*
G02*
X97267300Y-104615000I-237500J0D01*
G01*
X96692300Y-104615000D01*
G75*
G02*
X96454800Y-104377500I0J237500D01*
G01*
X96454800Y-103902500D01*
G75*
G02*
X96692300Y-103665000I237500J0D01*
G01*
X97267300Y-103665000D01*
G75*
G02*
X97504800Y-103902500I0J-237500D01*
G01*
G37*
M02*
