%TF.GenerationSoftware,KiCad,Pcbnew,(5.0.1)-3*%
%TF.CreationDate,2019-02-10T12:01:05-05:00*%
%TF.ProjectId,reef-piHat,726565662D70694861742E6B69636164,rev?*%
%TF.SameCoordinates,Original*%
%TF.FileFunction,Soldermask,Bot*%
%TF.FilePolarity,Negative*%
%FSLAX46Y46*%
G04 Gerber Fmt 4.6, Leading zero omitted, Abs format (unit mm)*
G04 Created by KiCad (PCBNEW (5.0.1)-3) date 2/10/2019 12:01:05 PM*
%MOMM*%
%LPD*%
G01*
G04 APERTURE LIST*
%ADD10C,0.100000*%
G04 APERTURE END LIST*
D10*
X78546356Y-63817611D02*
X78546356Y-113817611D01*
X78546356Y-63817611D02*
G75*
G02X81546356Y-60817611I3000000J0D01*
G01*
X140546356Y-60817611D02*
X81546356Y-60817611D01*
X140546356Y-60817611D02*
G75*
G02X143546356Y-63817611I0J-3000000D01*
G01*
X143546356Y-113817611D02*
X143546356Y-63817611D01*
X81546356Y-116817611D02*
G75*
G02X78546356Y-113817611I0J3000000D01*
G01*
X81546356Y-116817611D02*
X140546356Y-116817611D01*
X143546351Y-113822847D02*
G75*
G02X140546356Y-116817611I-2999995J5236D01*
G01*
G36*
X106301200Y-115148200D02*
X105301200Y-115148200D01*
X105301200Y-113048200D01*
X106301200Y-113048200D01*
X106301200Y-115148200D01*
X106301200Y-115148200D01*
G37*
G36*
X104401200Y-115148200D02*
X103401200Y-115148200D01*
X103401200Y-113048200D01*
X104401200Y-113048200D01*
X104401200Y-115148200D01*
X104401200Y-115148200D01*
G37*
G36*
X110325800Y-115060600D02*
X107575800Y-115060600D01*
X107575800Y-113300600D01*
X110325800Y-113300600D01*
X110325800Y-115060600D01*
X110325800Y-115060600D01*
G37*
G36*
X82506703Y-111781486D02*
X82797883Y-111902097D01*
X83059944Y-112077201D01*
X83282799Y-112300056D01*
X83457903Y-112562117D01*
X83578514Y-112853297D01*
X83640000Y-113162412D01*
X83640000Y-113477588D01*
X83578514Y-113786703D01*
X83457903Y-114077883D01*
X83282799Y-114339944D01*
X83059944Y-114562799D01*
X82797883Y-114737903D01*
X82506703Y-114858514D01*
X82197588Y-114920000D01*
X81882412Y-114920000D01*
X81573297Y-114858514D01*
X81282117Y-114737903D01*
X81020056Y-114562799D01*
X80797201Y-114339944D01*
X80622097Y-114077883D01*
X80501486Y-113786703D01*
X80440000Y-113477588D01*
X80440000Y-113162412D01*
X80501486Y-112853297D01*
X80622097Y-112562117D01*
X80797201Y-112300056D01*
X81020056Y-112077201D01*
X81282117Y-111902097D01*
X81573297Y-111781486D01*
X81882412Y-111720000D01*
X82197588Y-111720000D01*
X82506703Y-111781486D01*
X82506703Y-111781486D01*
G37*
G36*
X140496703Y-111771486D02*
X140787883Y-111892097D01*
X141049944Y-112067201D01*
X141272799Y-112290056D01*
X141447903Y-112552117D01*
X141568514Y-112843297D01*
X141630000Y-113152412D01*
X141630000Y-113467588D01*
X141568514Y-113776703D01*
X141447903Y-114067883D01*
X141272799Y-114329944D01*
X141049944Y-114552799D01*
X140787883Y-114727903D01*
X140496703Y-114848514D01*
X140187588Y-114910000D01*
X139872412Y-114910000D01*
X139563297Y-114848514D01*
X139272117Y-114727903D01*
X139010056Y-114552799D01*
X138787201Y-114329944D01*
X138612097Y-114067883D01*
X138491486Y-113776703D01*
X138430000Y-113467588D01*
X138430000Y-113152412D01*
X138491486Y-112843297D01*
X138612097Y-112552117D01*
X138787201Y-112290056D01*
X139010056Y-112067201D01*
X139272117Y-111892097D01*
X139563297Y-111771486D01*
X139872412Y-111710000D01*
X140187588Y-111710000D01*
X140496703Y-111771486D01*
X140496703Y-111771486D01*
G37*
G36*
X114069379Y-113602916D02*
X114111470Y-113615685D01*
X114150266Y-113636422D01*
X114184271Y-113664329D01*
X114212178Y-113698334D01*
X114232915Y-113737130D01*
X114245684Y-113779221D01*
X114250600Y-113829140D01*
X114250600Y-114516860D01*
X114245684Y-114566779D01*
X114232915Y-114608870D01*
X114212178Y-114647666D01*
X114184271Y-114681671D01*
X114150266Y-114709578D01*
X114111470Y-114730315D01*
X114069379Y-114743084D01*
X114019460Y-114748000D01*
X113231740Y-114748000D01*
X113181821Y-114743084D01*
X113139730Y-114730315D01*
X113100934Y-114709578D01*
X113066929Y-114681671D01*
X113039022Y-114647666D01*
X113018285Y-114608870D01*
X113005516Y-114566779D01*
X113000600Y-114516860D01*
X113000600Y-113829140D01*
X113005516Y-113779221D01*
X113018285Y-113737130D01*
X113039022Y-113698334D01*
X113066929Y-113664329D01*
X113100934Y-113636422D01*
X113139730Y-113615685D01*
X113181821Y-113602916D01*
X113231740Y-113598000D01*
X114019460Y-113598000D01*
X114069379Y-113602916D01*
X114069379Y-113602916D01*
G37*
G36*
X112319379Y-113602916D02*
X112361470Y-113615685D01*
X112400266Y-113636422D01*
X112434271Y-113664329D01*
X112462178Y-113698334D01*
X112482915Y-113737130D01*
X112495684Y-113779221D01*
X112500600Y-113829140D01*
X112500600Y-114516860D01*
X112495684Y-114566779D01*
X112482915Y-114608870D01*
X112462178Y-114647666D01*
X112434271Y-114681671D01*
X112400266Y-114709578D01*
X112361470Y-114730315D01*
X112319379Y-114743084D01*
X112269460Y-114748000D01*
X111481740Y-114748000D01*
X111431821Y-114743084D01*
X111389730Y-114730315D01*
X111350934Y-114709578D01*
X111316929Y-114681671D01*
X111289022Y-114647666D01*
X111268285Y-114608870D01*
X111255516Y-114566779D01*
X111250600Y-114516860D01*
X111250600Y-113829140D01*
X111255516Y-113779221D01*
X111268285Y-113737130D01*
X111289022Y-113698334D01*
X111316929Y-113664329D01*
X111350934Y-113636422D01*
X111389730Y-113615685D01*
X111431821Y-113602916D01*
X111481740Y-113598000D01*
X112269460Y-113598000D01*
X112319379Y-113602916D01*
X112319379Y-113602916D01*
G37*
G36*
X91365948Y-112150373D02*
X91435732Y-112157246D01*
X91525270Y-112184407D01*
X91614809Y-112211568D01*
X91779847Y-112299783D01*
X91924501Y-112418499D01*
X92043217Y-112563153D01*
X92131432Y-112728191D01*
X92131432Y-112728192D01*
X92185754Y-112907268D01*
X92199634Y-113048200D01*
X92204096Y-113093500D01*
X92185754Y-113279731D01*
X92131432Y-113458809D01*
X92043217Y-113623847D01*
X91924501Y-113768501D01*
X91779847Y-113887217D01*
X91614809Y-113975432D01*
X91525270Y-114002593D01*
X91435732Y-114029754D01*
X91365948Y-114036627D01*
X91296166Y-114043500D01*
X91202834Y-114043500D01*
X91133052Y-114036627D01*
X91063268Y-114029754D01*
X90973730Y-114002593D01*
X90884191Y-113975432D01*
X90719153Y-113887217D01*
X90574499Y-113768501D01*
X90455783Y-113623847D01*
X90367568Y-113458809D01*
X90313246Y-113279731D01*
X90294904Y-113093500D01*
X90299366Y-113048200D01*
X90313246Y-112907268D01*
X90367568Y-112728192D01*
X90367568Y-112728191D01*
X90455783Y-112563153D01*
X90574499Y-112418499D01*
X90719153Y-112299783D01*
X90884191Y-112211568D01*
X90973730Y-112184407D01*
X91063268Y-112157246D01*
X91133052Y-112150373D01*
X91202834Y-112143500D01*
X91296166Y-112143500D01*
X91365948Y-112150373D01*
X91365948Y-112150373D01*
G37*
G36*
X89659500Y-114043500D02*
X87759500Y-114043500D01*
X87759500Y-112143500D01*
X89659500Y-112143500D01*
X89659500Y-114043500D01*
X89659500Y-114043500D01*
G37*
G36*
X128585000Y-113789500D02*
X126685000Y-113789500D01*
X126685000Y-111889500D01*
X128585000Y-111889500D01*
X128585000Y-113789500D01*
X128585000Y-113789500D01*
G37*
G36*
X130361232Y-111903246D02*
X130450770Y-111930407D01*
X130540309Y-111957568D01*
X130705347Y-112045783D01*
X130850001Y-112164499D01*
X130968717Y-112309153D01*
X131056932Y-112474191D01*
X131056932Y-112474192D01*
X131111254Y-112653268D01*
X131129596Y-112839500D01*
X131122922Y-112907268D01*
X131111254Y-113025731D01*
X131056932Y-113204809D01*
X130968717Y-113369847D01*
X130850001Y-113514501D01*
X130705347Y-113633217D01*
X130540309Y-113721432D01*
X130488559Y-113737130D01*
X130361232Y-113775754D01*
X130221666Y-113789500D01*
X130128334Y-113789500D01*
X129988768Y-113775754D01*
X129861441Y-113737130D01*
X129809691Y-113721432D01*
X129644653Y-113633217D01*
X129499999Y-113514501D01*
X129381283Y-113369847D01*
X129293068Y-113204809D01*
X129238746Y-113025731D01*
X129227079Y-112907268D01*
X129220404Y-112839500D01*
X129238746Y-112653268D01*
X129293068Y-112474192D01*
X129293068Y-112474191D01*
X129381283Y-112309153D01*
X129499999Y-112164499D01*
X129644653Y-112045783D01*
X129809691Y-111957568D01*
X129899230Y-111930407D01*
X129988768Y-111903246D01*
X130128334Y-111889500D01*
X130221666Y-111889500D01*
X130361232Y-111903246D01*
X130361232Y-111903246D01*
G37*
G36*
X110325800Y-112360600D02*
X107575800Y-112360600D01*
X107575800Y-110600600D01*
X110325800Y-110600600D01*
X110325800Y-112360600D01*
X110325800Y-112360600D01*
G37*
G36*
X105351200Y-112148200D02*
X104351200Y-112148200D01*
X104351200Y-110048200D01*
X105351200Y-110048200D01*
X105351200Y-112148200D01*
X105351200Y-112148200D01*
G37*
G36*
X112330779Y-110910516D02*
X112372870Y-110923285D01*
X112411666Y-110944022D01*
X112445671Y-110971929D01*
X112473578Y-111005934D01*
X112494315Y-111044730D01*
X112507084Y-111086821D01*
X112512000Y-111136740D01*
X112512000Y-111824460D01*
X112507084Y-111874379D01*
X112494315Y-111916470D01*
X112473578Y-111955266D01*
X112445671Y-111989271D01*
X112411666Y-112017178D01*
X112372870Y-112037915D01*
X112330779Y-112050684D01*
X112280860Y-112055600D01*
X111493140Y-112055600D01*
X111443221Y-112050684D01*
X111401130Y-112037915D01*
X111362334Y-112017178D01*
X111328329Y-111989271D01*
X111300422Y-111955266D01*
X111279685Y-111916470D01*
X111266916Y-111874379D01*
X111262000Y-111824460D01*
X111262000Y-111136740D01*
X111266916Y-111086821D01*
X111279685Y-111044730D01*
X111300422Y-111005934D01*
X111328329Y-110971929D01*
X111362334Y-110944022D01*
X111401130Y-110923285D01*
X111443221Y-110910516D01*
X111493140Y-110905600D01*
X112280860Y-110905600D01*
X112330779Y-110910516D01*
X112330779Y-110910516D01*
G37*
G36*
X114080779Y-110910516D02*
X114122870Y-110923285D01*
X114161666Y-110944022D01*
X114195671Y-110971929D01*
X114223578Y-111005934D01*
X114244315Y-111044730D01*
X114257084Y-111086821D01*
X114262000Y-111136740D01*
X114262000Y-111824460D01*
X114257084Y-111874379D01*
X114244315Y-111916470D01*
X114223578Y-111955266D01*
X114195671Y-111989271D01*
X114161666Y-112017178D01*
X114122870Y-112037915D01*
X114080779Y-112050684D01*
X114030860Y-112055600D01*
X113243140Y-112055600D01*
X113193221Y-112050684D01*
X113151130Y-112037915D01*
X113112334Y-112017178D01*
X113078329Y-111989271D01*
X113050422Y-111955266D01*
X113029685Y-111916470D01*
X113016916Y-111874379D01*
X113012000Y-111824460D01*
X113012000Y-111136740D01*
X113016916Y-111086821D01*
X113029685Y-111044730D01*
X113050422Y-111005934D01*
X113078329Y-110971929D01*
X113112334Y-110944022D01*
X113151130Y-110923285D01*
X113193221Y-110910516D01*
X113243140Y-110905600D01*
X114030860Y-110905600D01*
X114080779Y-110910516D01*
X114080779Y-110910516D01*
G37*
G36*
X127757732Y-107966246D02*
X127847270Y-107993407D01*
X127936809Y-108020568D01*
X128101847Y-108108783D01*
X128246501Y-108227499D01*
X128365217Y-108372153D01*
X128453432Y-108537191D01*
X128507754Y-108716269D01*
X128526096Y-108902500D01*
X128507754Y-109088731D01*
X128453432Y-109267809D01*
X128365217Y-109432847D01*
X128246501Y-109577501D01*
X128101847Y-109696217D01*
X127936809Y-109784432D01*
X127847270Y-109811593D01*
X127757732Y-109838754D01*
X127618166Y-109852500D01*
X127524834Y-109852500D01*
X127385268Y-109838754D01*
X127295730Y-109811593D01*
X127206191Y-109784432D01*
X127041153Y-109696217D01*
X126896499Y-109577501D01*
X126777783Y-109432847D01*
X126689568Y-109267809D01*
X126635246Y-109088731D01*
X126616904Y-108902500D01*
X126635246Y-108716269D01*
X126689568Y-108537191D01*
X126777783Y-108372153D01*
X126896499Y-108227499D01*
X127041153Y-108108783D01*
X127206191Y-108020568D01*
X127295730Y-107993407D01*
X127385268Y-107966246D01*
X127524834Y-107952500D01*
X127618166Y-107952500D01*
X127757732Y-107966246D01*
X127757732Y-107966246D01*
G37*
G36*
X130297732Y-107966246D02*
X130387270Y-107993407D01*
X130476809Y-108020568D01*
X130641847Y-108108783D01*
X130786501Y-108227499D01*
X130905217Y-108372153D01*
X130993432Y-108537191D01*
X131047754Y-108716269D01*
X131066096Y-108902500D01*
X131047754Y-109088731D01*
X130993432Y-109267809D01*
X130905217Y-109432847D01*
X130786501Y-109577501D01*
X130641847Y-109696217D01*
X130476809Y-109784432D01*
X130387270Y-109811593D01*
X130297732Y-109838754D01*
X130158166Y-109852500D01*
X130064834Y-109852500D01*
X129925268Y-109838754D01*
X129835730Y-109811593D01*
X129746191Y-109784432D01*
X129581153Y-109696217D01*
X129436499Y-109577501D01*
X129317783Y-109432847D01*
X129229568Y-109267809D01*
X129175246Y-109088731D01*
X129156904Y-108902500D01*
X129175246Y-108716269D01*
X129229568Y-108537191D01*
X129317783Y-108372153D01*
X129436499Y-108227499D01*
X129581153Y-108108783D01*
X129746191Y-108020568D01*
X129835730Y-107993407D01*
X129925268Y-107966246D01*
X130064834Y-107952500D01*
X130158166Y-107952500D01*
X130297732Y-107966246D01*
X130297732Y-107966246D01*
G37*
G36*
X127757732Y-105426246D02*
X127847270Y-105453407D01*
X127936809Y-105480568D01*
X128101847Y-105568783D01*
X128246501Y-105687499D01*
X128365217Y-105832153D01*
X128453432Y-105997191D01*
X128507754Y-106176269D01*
X128526096Y-106362500D01*
X128507754Y-106548731D01*
X128453432Y-106727809D01*
X128365217Y-106892847D01*
X128246501Y-107037501D01*
X128101847Y-107156217D01*
X127936809Y-107244432D01*
X127847270Y-107271593D01*
X127757732Y-107298754D01*
X127687948Y-107305627D01*
X127618166Y-107312500D01*
X127524834Y-107312500D01*
X127455052Y-107305627D01*
X127385268Y-107298754D01*
X127295730Y-107271593D01*
X127206191Y-107244432D01*
X127041153Y-107156217D01*
X126896499Y-107037501D01*
X126777783Y-106892847D01*
X126689568Y-106727809D01*
X126635246Y-106548731D01*
X126616904Y-106362500D01*
X126635246Y-106176269D01*
X126689568Y-105997191D01*
X126777783Y-105832153D01*
X126896499Y-105687499D01*
X127041153Y-105568783D01*
X127206191Y-105480568D01*
X127295730Y-105453407D01*
X127385268Y-105426246D01*
X127524834Y-105412500D01*
X127618166Y-105412500D01*
X127757732Y-105426246D01*
X127757732Y-105426246D01*
G37*
G36*
X130297732Y-105426246D02*
X130387270Y-105453407D01*
X130476809Y-105480568D01*
X130641847Y-105568783D01*
X130786501Y-105687499D01*
X130905217Y-105832153D01*
X130993432Y-105997191D01*
X131047754Y-106176269D01*
X131066096Y-106362500D01*
X131047754Y-106548731D01*
X130993432Y-106727809D01*
X130905217Y-106892847D01*
X130786501Y-107037501D01*
X130641847Y-107156217D01*
X130476809Y-107244432D01*
X130387270Y-107271593D01*
X130297732Y-107298754D01*
X130227948Y-107305627D01*
X130158166Y-107312500D01*
X130064834Y-107312500D01*
X129995052Y-107305627D01*
X129925268Y-107298754D01*
X129835730Y-107271593D01*
X129746191Y-107244432D01*
X129581153Y-107156217D01*
X129436499Y-107037501D01*
X129317783Y-106892847D01*
X129229568Y-106727809D01*
X129175246Y-106548731D01*
X129156904Y-106362500D01*
X129175246Y-106176269D01*
X129229568Y-105997191D01*
X129317783Y-105832153D01*
X129436499Y-105687499D01*
X129581153Y-105568783D01*
X129746191Y-105480568D01*
X129835730Y-105453407D01*
X129925268Y-105426246D01*
X130064834Y-105412500D01*
X130158166Y-105412500D01*
X130297732Y-105426246D01*
X130297732Y-105426246D01*
G37*
G36*
X88745232Y-103777246D02*
X88807784Y-103796221D01*
X88924309Y-103831568D01*
X89089347Y-103919783D01*
X89234001Y-104038499D01*
X89352717Y-104183153D01*
X89352718Y-104183155D01*
X89440932Y-104348192D01*
X89495254Y-104527268D01*
X89495254Y-104527270D01*
X89509000Y-104666835D01*
X89509000Y-105010166D01*
X89495254Y-105149731D01*
X89440932Y-105328809D01*
X89352717Y-105493847D01*
X89234001Y-105638501D01*
X89089347Y-105757217D01*
X88924308Y-105845432D01*
X88834769Y-105872593D01*
X88745231Y-105899754D01*
X88559000Y-105918096D01*
X88372768Y-105899754D01*
X88283230Y-105872593D01*
X88193691Y-105845432D01*
X88028653Y-105757217D01*
X87883999Y-105638501D01*
X87765283Y-105493847D01*
X87677068Y-105328808D01*
X87649907Y-105239269D01*
X87622746Y-105149731D01*
X87609000Y-105010164D01*
X87609000Y-104666835D01*
X87622746Y-104527268D01*
X87675656Y-104352847D01*
X87677068Y-104348191D01*
X87765282Y-104183155D01*
X87883999Y-104038499D01*
X88008911Y-103935986D01*
X88028654Y-103919783D01*
X88193692Y-103831568D01*
X88310217Y-103796221D01*
X88372769Y-103777246D01*
X88559000Y-103758904D01*
X88745232Y-103777246D01*
X88745232Y-103777246D01*
G37*
G36*
X86245232Y-103777246D02*
X86307784Y-103796221D01*
X86424309Y-103831568D01*
X86589347Y-103919783D01*
X86734001Y-104038499D01*
X86852717Y-104183153D01*
X86852718Y-104183155D01*
X86940932Y-104348192D01*
X86995254Y-104527268D01*
X86995254Y-104527270D01*
X87009000Y-104666835D01*
X87009000Y-105010166D01*
X86995254Y-105149731D01*
X86940932Y-105328809D01*
X86852717Y-105493847D01*
X86734001Y-105638501D01*
X86589347Y-105757217D01*
X86424308Y-105845432D01*
X86334769Y-105872593D01*
X86245231Y-105899754D01*
X86059000Y-105918096D01*
X85872768Y-105899754D01*
X85783230Y-105872593D01*
X85693691Y-105845432D01*
X85528653Y-105757217D01*
X85383999Y-105638501D01*
X85265283Y-105493847D01*
X85177068Y-105328808D01*
X85149907Y-105239269D01*
X85122746Y-105149731D01*
X85109000Y-105010164D01*
X85109000Y-104666835D01*
X85122746Y-104527268D01*
X85175656Y-104352847D01*
X85177068Y-104348191D01*
X85265282Y-104183155D01*
X85383999Y-104038499D01*
X85508911Y-103935986D01*
X85528654Y-103919783D01*
X85693692Y-103831568D01*
X85810217Y-103796221D01*
X85872769Y-103777246D01*
X86059000Y-103758904D01*
X86245232Y-103777246D01*
X86245232Y-103777246D01*
G37*
G36*
X83745232Y-103777246D02*
X83807784Y-103796221D01*
X83924309Y-103831568D01*
X84089347Y-103919783D01*
X84234001Y-104038499D01*
X84352717Y-104183153D01*
X84352718Y-104183155D01*
X84440932Y-104348192D01*
X84495254Y-104527268D01*
X84495254Y-104527270D01*
X84509000Y-104666835D01*
X84509000Y-105010166D01*
X84495254Y-105149731D01*
X84440932Y-105328809D01*
X84352717Y-105493847D01*
X84234001Y-105638501D01*
X84089347Y-105757217D01*
X83924308Y-105845432D01*
X83834769Y-105872593D01*
X83745231Y-105899754D01*
X83559000Y-105918096D01*
X83372768Y-105899754D01*
X83283230Y-105872593D01*
X83193691Y-105845432D01*
X83028653Y-105757217D01*
X82883999Y-105638501D01*
X82765283Y-105493847D01*
X82677068Y-105328808D01*
X82649907Y-105239269D01*
X82622746Y-105149731D01*
X82609000Y-105010164D01*
X82609000Y-104666835D01*
X82622746Y-104527268D01*
X82675656Y-104352847D01*
X82677068Y-104348191D01*
X82765282Y-104183155D01*
X82883999Y-104038499D01*
X83008911Y-103935986D01*
X83028654Y-103919783D01*
X83193692Y-103831568D01*
X83310217Y-103796221D01*
X83372769Y-103777246D01*
X83559000Y-103758904D01*
X83745232Y-103777246D01*
X83745232Y-103777246D01*
G37*
G36*
X91855001Y-103767766D02*
X91890753Y-103778611D01*
X91923698Y-103796221D01*
X91952578Y-103819922D01*
X91976279Y-103848802D01*
X91993889Y-103881747D01*
X92004734Y-103917499D01*
X92009000Y-103960816D01*
X92009000Y-105716184D01*
X92004734Y-105759501D01*
X91993889Y-105795253D01*
X91976279Y-105828198D01*
X91952578Y-105857078D01*
X91923698Y-105880779D01*
X91890753Y-105898389D01*
X91855001Y-105909234D01*
X91811684Y-105913500D01*
X90306316Y-105913500D01*
X90262999Y-105909234D01*
X90227247Y-105898389D01*
X90194302Y-105880779D01*
X90165422Y-105857078D01*
X90141721Y-105828198D01*
X90124111Y-105795253D01*
X90113266Y-105759501D01*
X90109000Y-105716184D01*
X90109000Y-103960816D01*
X90113266Y-103917499D01*
X90124111Y-103881747D01*
X90141721Y-103848802D01*
X90165422Y-103819922D01*
X90194302Y-103796221D01*
X90227247Y-103778611D01*
X90262999Y-103767766D01*
X90306316Y-103763500D01*
X91811684Y-103763500D01*
X91855001Y-103767766D01*
X91855001Y-103767766D01*
G37*
G36*
X130297732Y-102886246D02*
X130387270Y-102913407D01*
X130476809Y-102940568D01*
X130641847Y-103028783D01*
X130786501Y-103147499D01*
X130905217Y-103292153D01*
X130993432Y-103457191D01*
X130993432Y-103457192D01*
X131047754Y-103636268D01*
X131066096Y-103822500D01*
X131047754Y-104008732D01*
X131020593Y-104098270D01*
X130993432Y-104187809D01*
X130905217Y-104352847D01*
X130786501Y-104497501D01*
X130641847Y-104616217D01*
X130476809Y-104704432D01*
X130387270Y-104731593D01*
X130297732Y-104758754D01*
X130158166Y-104772500D01*
X130064834Y-104772500D01*
X129925268Y-104758754D01*
X129835730Y-104731593D01*
X129746191Y-104704432D01*
X129581153Y-104616217D01*
X129436499Y-104497501D01*
X129317783Y-104352847D01*
X129229568Y-104187809D01*
X129202407Y-104098270D01*
X129175246Y-104008732D01*
X129156904Y-103822500D01*
X129175246Y-103636268D01*
X129229568Y-103457192D01*
X129229568Y-103457191D01*
X129317783Y-103292153D01*
X129436499Y-103147499D01*
X129581153Y-103028783D01*
X129746191Y-102940568D01*
X129835730Y-102913407D01*
X129925268Y-102886246D01*
X130064834Y-102872500D01*
X130158166Y-102872500D01*
X130297732Y-102886246D01*
X130297732Y-102886246D01*
G37*
G36*
X127757732Y-102886246D02*
X127847270Y-102913407D01*
X127936809Y-102940568D01*
X128101847Y-103028783D01*
X128246501Y-103147499D01*
X128365217Y-103292153D01*
X128453432Y-103457191D01*
X128453432Y-103457192D01*
X128507754Y-103636268D01*
X128526096Y-103822500D01*
X128507754Y-104008732D01*
X128480593Y-104098270D01*
X128453432Y-104187809D01*
X128365217Y-104352847D01*
X128246501Y-104497501D01*
X128101847Y-104616217D01*
X127936809Y-104704432D01*
X127847270Y-104731593D01*
X127757732Y-104758754D01*
X127618166Y-104772500D01*
X127524834Y-104772500D01*
X127385268Y-104758754D01*
X127295730Y-104731593D01*
X127206191Y-104704432D01*
X127041153Y-104616217D01*
X126896499Y-104497501D01*
X126777783Y-104352847D01*
X126689568Y-104187809D01*
X126662407Y-104098270D01*
X126635246Y-104008732D01*
X126616904Y-103822500D01*
X126635246Y-103636268D01*
X126689568Y-103457192D01*
X126689568Y-103457191D01*
X126777783Y-103292153D01*
X126896499Y-103147499D01*
X127041153Y-103028783D01*
X127206191Y-102940568D01*
X127295730Y-102913407D01*
X127385268Y-102886246D01*
X127524834Y-102872500D01*
X127618166Y-102872500D01*
X127757732Y-102886246D01*
X127757732Y-102886246D01*
G37*
G36*
X130297732Y-100346246D02*
X130387270Y-100373407D01*
X130476809Y-100400568D01*
X130641847Y-100488783D01*
X130786501Y-100607499D01*
X130905217Y-100752153D01*
X130993432Y-100917191D01*
X131047754Y-101096269D01*
X131066096Y-101282500D01*
X131047754Y-101468731D01*
X130993432Y-101647809D01*
X130905217Y-101812847D01*
X130786501Y-101957501D01*
X130641847Y-102076217D01*
X130476809Y-102164432D01*
X130387270Y-102191593D01*
X130297732Y-102218754D01*
X130227948Y-102225627D01*
X130158166Y-102232500D01*
X130064834Y-102232500D01*
X129925268Y-102218754D01*
X129835730Y-102191593D01*
X129746191Y-102164432D01*
X129581153Y-102076217D01*
X129436499Y-101957501D01*
X129317783Y-101812847D01*
X129229568Y-101647809D01*
X129175246Y-101468731D01*
X129156904Y-101282500D01*
X129175246Y-101096269D01*
X129229568Y-100917191D01*
X129317783Y-100752153D01*
X129436499Y-100607499D01*
X129581153Y-100488783D01*
X129746191Y-100400568D01*
X129835730Y-100373407D01*
X129925268Y-100346246D01*
X129995052Y-100339373D01*
X130064834Y-100332500D01*
X130158166Y-100332500D01*
X130297732Y-100346246D01*
X130297732Y-100346246D01*
G37*
G36*
X127757732Y-100346246D02*
X127847270Y-100373407D01*
X127936809Y-100400568D01*
X128101847Y-100488783D01*
X128246501Y-100607499D01*
X128365217Y-100752153D01*
X128453432Y-100917191D01*
X128507754Y-101096269D01*
X128526096Y-101282500D01*
X128507754Y-101468731D01*
X128453432Y-101647809D01*
X128365217Y-101812847D01*
X128246501Y-101957501D01*
X128101847Y-102076217D01*
X127936809Y-102164432D01*
X127847270Y-102191593D01*
X127757732Y-102218754D01*
X127687948Y-102225627D01*
X127618166Y-102232500D01*
X127524834Y-102232500D01*
X127385268Y-102218754D01*
X127295730Y-102191593D01*
X127206191Y-102164432D01*
X127041153Y-102076217D01*
X126896499Y-101957501D01*
X126777783Y-101812847D01*
X126689568Y-101647809D01*
X126635246Y-101468731D01*
X126616904Y-101282500D01*
X126635246Y-101096269D01*
X126689568Y-100917191D01*
X126777783Y-100752153D01*
X126896499Y-100607499D01*
X127041153Y-100488783D01*
X127206191Y-100400568D01*
X127295730Y-100373407D01*
X127385268Y-100346246D01*
X127455052Y-100339373D01*
X127524834Y-100332500D01*
X127618166Y-100332500D01*
X127757732Y-100346246D01*
X127757732Y-100346246D01*
G37*
G36*
X128521500Y-99692500D02*
X126621500Y-99692500D01*
X126621500Y-97792500D01*
X128521500Y-97792500D01*
X128521500Y-99692500D01*
X128521500Y-99692500D01*
G37*
G36*
X130297732Y-97806246D02*
X130387270Y-97833407D01*
X130476809Y-97860568D01*
X130641847Y-97948783D01*
X130786501Y-98067499D01*
X130905217Y-98212153D01*
X130993432Y-98377191D01*
X131047754Y-98556269D01*
X131066096Y-98742500D01*
X131047754Y-98928731D01*
X130993432Y-99107809D01*
X130905217Y-99272847D01*
X130786501Y-99417501D01*
X130641847Y-99536217D01*
X130476809Y-99624432D01*
X130387270Y-99651593D01*
X130297732Y-99678754D01*
X130227948Y-99685627D01*
X130158166Y-99692500D01*
X130064834Y-99692500D01*
X129995052Y-99685627D01*
X129925268Y-99678754D01*
X129835730Y-99651593D01*
X129746191Y-99624432D01*
X129581153Y-99536217D01*
X129436499Y-99417501D01*
X129317783Y-99272847D01*
X129229568Y-99107809D01*
X129175246Y-98928731D01*
X129156904Y-98742500D01*
X129175246Y-98556269D01*
X129229568Y-98377191D01*
X129317783Y-98212153D01*
X129436499Y-98067499D01*
X129581153Y-97948783D01*
X129746191Y-97860568D01*
X129835730Y-97833407D01*
X129925268Y-97806246D01*
X130064834Y-97792500D01*
X130158166Y-97792500D01*
X130297732Y-97806246D01*
X130297732Y-97806246D01*
G37*
G36*
X86181732Y-96220746D02*
X86244284Y-96239721D01*
X86360809Y-96275068D01*
X86525847Y-96363283D01*
X86670501Y-96481999D01*
X86789217Y-96626653D01*
X86789218Y-96626655D01*
X86877432Y-96791692D01*
X86931754Y-96970768D01*
X86931754Y-96970770D01*
X86945500Y-97110335D01*
X86945500Y-97453666D01*
X86931754Y-97593231D01*
X86877432Y-97772309D01*
X86789217Y-97937347D01*
X86670501Y-98082001D01*
X86525847Y-98200717D01*
X86360808Y-98288932D01*
X86271269Y-98316093D01*
X86181731Y-98343254D01*
X85995500Y-98361596D01*
X85809268Y-98343254D01*
X85719730Y-98316093D01*
X85630191Y-98288932D01*
X85465153Y-98200717D01*
X85320499Y-98082001D01*
X85201783Y-97937347D01*
X85113568Y-97772308D01*
X85086407Y-97682769D01*
X85059246Y-97593231D01*
X85045500Y-97453664D01*
X85045500Y-97110335D01*
X85059246Y-96970768D01*
X85113568Y-96791692D01*
X85113568Y-96791691D01*
X85157675Y-96709174D01*
X85201782Y-96626655D01*
X85320499Y-96481999D01*
X85445411Y-96379486D01*
X85465154Y-96363283D01*
X85630192Y-96275068D01*
X85746717Y-96239721D01*
X85809269Y-96220746D01*
X85995500Y-96202404D01*
X86181732Y-96220746D01*
X86181732Y-96220746D01*
G37*
G36*
X83681732Y-96220746D02*
X83744284Y-96239721D01*
X83860809Y-96275068D01*
X84025847Y-96363283D01*
X84170501Y-96481999D01*
X84289217Y-96626653D01*
X84289218Y-96626655D01*
X84377432Y-96791692D01*
X84431754Y-96970768D01*
X84431754Y-96970770D01*
X84445500Y-97110335D01*
X84445500Y-97453666D01*
X84431754Y-97593231D01*
X84377432Y-97772309D01*
X84289217Y-97937347D01*
X84170501Y-98082001D01*
X84025847Y-98200717D01*
X83860808Y-98288932D01*
X83771269Y-98316093D01*
X83681731Y-98343254D01*
X83495500Y-98361596D01*
X83309268Y-98343254D01*
X83219730Y-98316093D01*
X83130191Y-98288932D01*
X82965153Y-98200717D01*
X82820499Y-98082001D01*
X82701783Y-97937347D01*
X82613568Y-97772308D01*
X82586407Y-97682769D01*
X82559246Y-97593231D01*
X82545500Y-97453664D01*
X82545500Y-97110335D01*
X82559246Y-96970768D01*
X82613568Y-96791692D01*
X82613568Y-96791691D01*
X82657675Y-96709174D01*
X82701782Y-96626655D01*
X82820499Y-96481999D01*
X82945411Y-96379486D01*
X82965154Y-96363283D01*
X83130192Y-96275068D01*
X83246717Y-96239721D01*
X83309269Y-96220746D01*
X83495500Y-96202404D01*
X83681732Y-96220746D01*
X83681732Y-96220746D01*
G37*
G36*
X88681732Y-96220746D02*
X88744284Y-96239721D01*
X88860809Y-96275068D01*
X89025847Y-96363283D01*
X89170501Y-96481999D01*
X89289217Y-96626653D01*
X89289218Y-96626655D01*
X89377432Y-96791692D01*
X89431754Y-96970768D01*
X89431754Y-96970770D01*
X89445500Y-97110335D01*
X89445500Y-97453666D01*
X89431754Y-97593231D01*
X89377432Y-97772309D01*
X89289217Y-97937347D01*
X89170501Y-98082001D01*
X89025847Y-98200717D01*
X88860808Y-98288932D01*
X88771269Y-98316093D01*
X88681731Y-98343254D01*
X88495500Y-98361596D01*
X88309268Y-98343254D01*
X88219730Y-98316093D01*
X88130191Y-98288932D01*
X87965153Y-98200717D01*
X87820499Y-98082001D01*
X87701783Y-97937347D01*
X87613568Y-97772308D01*
X87586407Y-97682769D01*
X87559246Y-97593231D01*
X87545500Y-97453664D01*
X87545500Y-97110335D01*
X87559246Y-96970768D01*
X87613568Y-96791692D01*
X87613568Y-96791691D01*
X87657675Y-96709174D01*
X87701782Y-96626655D01*
X87820499Y-96481999D01*
X87945411Y-96379486D01*
X87965154Y-96363283D01*
X88130192Y-96275068D01*
X88246717Y-96239721D01*
X88309269Y-96220746D01*
X88495500Y-96202404D01*
X88681732Y-96220746D01*
X88681732Y-96220746D01*
G37*
G36*
X91791501Y-96211266D02*
X91827253Y-96222111D01*
X91860198Y-96239721D01*
X91889078Y-96263422D01*
X91912779Y-96292302D01*
X91930389Y-96325247D01*
X91941234Y-96360999D01*
X91945500Y-96404316D01*
X91945500Y-98159684D01*
X91941234Y-98203001D01*
X91930389Y-98238753D01*
X91912779Y-98271698D01*
X91889078Y-98300578D01*
X91860198Y-98324279D01*
X91827253Y-98341889D01*
X91791501Y-98352734D01*
X91748184Y-98357000D01*
X90242816Y-98357000D01*
X90199499Y-98352734D01*
X90163747Y-98341889D01*
X90130802Y-98324279D01*
X90101922Y-98300578D01*
X90078221Y-98271698D01*
X90060611Y-98238753D01*
X90049766Y-98203001D01*
X90045500Y-98159684D01*
X90045500Y-96404316D01*
X90049766Y-96360999D01*
X90060611Y-96325247D01*
X90078221Y-96292302D01*
X90101922Y-96263422D01*
X90130802Y-96239721D01*
X90163747Y-96222111D01*
X90199499Y-96211266D01*
X90242816Y-96207000D01*
X91748184Y-96207000D01*
X91791501Y-96211266D01*
X91791501Y-96211266D01*
G37*
G36*
X141920000Y-93406000D02*
X140020000Y-93406000D01*
X140020000Y-91506000D01*
X141920000Y-91506000D01*
X141920000Y-93406000D01*
X141920000Y-93406000D01*
G37*
G36*
X141086448Y-88972873D02*
X141156232Y-88979746D01*
X141244933Y-89006653D01*
X141335309Y-89034068D01*
X141500347Y-89122283D01*
X141645001Y-89240999D01*
X141763717Y-89385653D01*
X141851932Y-89550691D01*
X141906254Y-89729769D01*
X141924596Y-89916000D01*
X141906254Y-90102231D01*
X141851932Y-90281309D01*
X141763717Y-90446347D01*
X141645001Y-90591001D01*
X141500347Y-90709717D01*
X141335309Y-90797932D01*
X141245770Y-90825093D01*
X141156232Y-90852254D01*
X141086448Y-90859127D01*
X141016666Y-90866000D01*
X140923334Y-90866000D01*
X140853552Y-90859127D01*
X140783768Y-90852254D01*
X140694230Y-90825093D01*
X140604691Y-90797932D01*
X140439653Y-90709717D01*
X140294999Y-90591001D01*
X140176283Y-90446347D01*
X140088068Y-90281309D01*
X140033746Y-90102231D01*
X140015404Y-89916000D01*
X140033746Y-89729769D01*
X140088068Y-89550691D01*
X140176283Y-89385653D01*
X140294999Y-89240999D01*
X140439653Y-89122283D01*
X140604691Y-89034068D01*
X140695067Y-89006653D01*
X140783768Y-88979746D01*
X140853552Y-88972873D01*
X140923334Y-88966000D01*
X141016666Y-88966000D01*
X141086448Y-88972873D01*
X141086448Y-88972873D01*
G37*
G36*
X99175732Y-88600746D02*
X99265270Y-88627907D01*
X99354809Y-88655068D01*
X99519847Y-88743283D01*
X99664501Y-88861999D01*
X99783217Y-89006653D01*
X99783218Y-89006655D01*
X99871432Y-89171692D01*
X99925754Y-89350769D01*
X99926992Y-89363335D01*
X99939500Y-89490335D01*
X99939500Y-89833666D01*
X99925754Y-89973231D01*
X99871432Y-90152309D01*
X99783217Y-90317347D01*
X99664501Y-90462001D01*
X99519847Y-90580717D01*
X99354808Y-90668932D01*
X99265269Y-90696093D01*
X99175731Y-90723254D01*
X98989500Y-90741596D01*
X98803268Y-90723254D01*
X98713730Y-90696093D01*
X98624191Y-90668932D01*
X98459153Y-90580717D01*
X98314499Y-90462001D01*
X98195783Y-90317347D01*
X98107568Y-90152308D01*
X98069043Y-90025307D01*
X98053246Y-89973231D01*
X98039500Y-89833664D01*
X98039500Y-89490335D01*
X98053246Y-89350768D01*
X98107568Y-89171692D01*
X98107568Y-89171691D01*
X98175451Y-89044692D01*
X98195782Y-89006655D01*
X98314499Y-88861999D01*
X98439411Y-88759486D01*
X98459154Y-88743283D01*
X98624192Y-88655068D01*
X98713731Y-88627907D01*
X98803269Y-88600746D01*
X98989500Y-88582404D01*
X99175732Y-88600746D01*
X99175732Y-88600746D01*
G37*
G36*
X104175732Y-88600746D02*
X104265270Y-88627907D01*
X104354809Y-88655068D01*
X104519847Y-88743283D01*
X104664501Y-88861999D01*
X104783217Y-89006653D01*
X104783218Y-89006655D01*
X104871432Y-89171692D01*
X104925754Y-89350769D01*
X104926992Y-89363335D01*
X104939500Y-89490335D01*
X104939500Y-89833666D01*
X104925754Y-89973231D01*
X104871432Y-90152309D01*
X104783217Y-90317347D01*
X104664501Y-90462001D01*
X104519847Y-90580717D01*
X104354808Y-90668932D01*
X104265269Y-90696093D01*
X104175731Y-90723254D01*
X103989500Y-90741596D01*
X103803268Y-90723254D01*
X103713730Y-90696093D01*
X103624191Y-90668932D01*
X103459153Y-90580717D01*
X103314499Y-90462001D01*
X103195783Y-90317347D01*
X103107568Y-90152308D01*
X103069043Y-90025307D01*
X103053246Y-89973231D01*
X103039500Y-89833664D01*
X103039500Y-89490335D01*
X103053246Y-89350768D01*
X103107568Y-89171692D01*
X103107568Y-89171691D01*
X103175451Y-89044692D01*
X103195782Y-89006655D01*
X103314499Y-88861999D01*
X103439411Y-88759486D01*
X103459154Y-88743283D01*
X103624192Y-88655068D01*
X103713731Y-88627907D01*
X103803269Y-88600746D01*
X103989500Y-88582404D01*
X104175732Y-88600746D01*
X104175732Y-88600746D01*
G37*
G36*
X101675732Y-88600746D02*
X101765270Y-88627907D01*
X101854809Y-88655068D01*
X102019847Y-88743283D01*
X102164501Y-88861999D01*
X102283217Y-89006653D01*
X102283218Y-89006655D01*
X102371432Y-89171692D01*
X102425754Y-89350769D01*
X102426992Y-89363335D01*
X102439500Y-89490335D01*
X102439500Y-89833666D01*
X102425754Y-89973231D01*
X102371432Y-90152309D01*
X102283217Y-90317347D01*
X102164501Y-90462001D01*
X102019847Y-90580717D01*
X101854808Y-90668932D01*
X101765269Y-90696093D01*
X101675731Y-90723254D01*
X101489500Y-90741596D01*
X101303268Y-90723254D01*
X101213730Y-90696093D01*
X101124191Y-90668932D01*
X100959153Y-90580717D01*
X100814499Y-90462001D01*
X100695783Y-90317347D01*
X100607568Y-90152308D01*
X100569043Y-90025307D01*
X100553246Y-89973231D01*
X100539500Y-89833664D01*
X100539500Y-89490335D01*
X100553246Y-89350768D01*
X100607568Y-89171692D01*
X100607568Y-89171691D01*
X100675451Y-89044692D01*
X100695782Y-89006655D01*
X100814499Y-88861999D01*
X100939411Y-88759486D01*
X100959154Y-88743283D01*
X101124192Y-88655068D01*
X101213731Y-88627907D01*
X101303269Y-88600746D01*
X101489500Y-88582404D01*
X101675732Y-88600746D01*
X101675732Y-88600746D01*
G37*
G36*
X107285501Y-88591266D02*
X107321253Y-88602111D01*
X107354198Y-88619721D01*
X107383078Y-88643422D01*
X107406779Y-88672302D01*
X107424389Y-88705247D01*
X107435234Y-88740999D01*
X107439500Y-88784316D01*
X107439500Y-90539684D01*
X107435234Y-90583001D01*
X107424389Y-90618753D01*
X107406779Y-90651698D01*
X107383078Y-90680578D01*
X107354198Y-90704279D01*
X107321253Y-90721889D01*
X107285501Y-90732734D01*
X107242184Y-90737000D01*
X105736816Y-90737000D01*
X105693499Y-90732734D01*
X105657747Y-90721889D01*
X105624802Y-90704279D01*
X105595922Y-90680578D01*
X105572221Y-90651698D01*
X105554611Y-90618753D01*
X105543766Y-90583001D01*
X105539500Y-90539684D01*
X105539500Y-88784316D01*
X105543766Y-88740999D01*
X105554611Y-88705247D01*
X105572221Y-88672302D01*
X105595922Y-88643422D01*
X105624802Y-88619721D01*
X105657747Y-88602111D01*
X105693499Y-88591266D01*
X105736816Y-88587000D01*
X107242184Y-88587000D01*
X107285501Y-88591266D01*
X107285501Y-88591266D01*
G37*
G36*
X114566232Y-88473746D02*
X114628784Y-88492721D01*
X114745309Y-88528068D01*
X114910347Y-88616283D01*
X115055001Y-88734999D01*
X115173717Y-88879653D01*
X115173718Y-88879655D01*
X115261932Y-89044692D01*
X115316254Y-89223768D01*
X115316254Y-89223770D01*
X115330000Y-89363335D01*
X115330000Y-89706666D01*
X115316254Y-89846231D01*
X115261932Y-90025309D01*
X115173717Y-90190347D01*
X115055001Y-90335001D01*
X114910347Y-90453717D01*
X114745308Y-90541932D01*
X114670864Y-90564514D01*
X114566231Y-90596254D01*
X114380000Y-90614596D01*
X114193768Y-90596254D01*
X114089135Y-90564514D01*
X114014691Y-90541932D01*
X113849653Y-90453717D01*
X113704999Y-90335001D01*
X113586283Y-90190347D01*
X113498068Y-90025308D01*
X113464910Y-89916000D01*
X113443746Y-89846231D01*
X113432276Y-89729769D01*
X113430000Y-89706665D01*
X113430000Y-89363334D01*
X113443746Y-89223769D01*
X113463009Y-89160268D01*
X113498068Y-89044692D01*
X113498068Y-89044691D01*
X113586282Y-88879655D01*
X113704999Y-88734999D01*
X113802395Y-88655068D01*
X113849654Y-88616283D01*
X114014692Y-88528068D01*
X114131217Y-88492721D01*
X114193769Y-88473746D01*
X114380000Y-88455404D01*
X114566232Y-88473746D01*
X114566232Y-88473746D01*
G37*
G36*
X117066232Y-88473746D02*
X117128784Y-88492721D01*
X117245309Y-88528068D01*
X117410347Y-88616283D01*
X117555001Y-88734999D01*
X117673717Y-88879653D01*
X117673718Y-88879655D01*
X117761932Y-89044692D01*
X117816254Y-89223768D01*
X117816254Y-89223770D01*
X117830000Y-89363335D01*
X117830000Y-89706666D01*
X117816254Y-89846231D01*
X117761932Y-90025309D01*
X117673717Y-90190347D01*
X117555001Y-90335001D01*
X117410347Y-90453717D01*
X117245308Y-90541932D01*
X117170864Y-90564514D01*
X117066231Y-90596254D01*
X116880000Y-90614596D01*
X116693768Y-90596254D01*
X116589135Y-90564514D01*
X116514691Y-90541932D01*
X116349653Y-90453717D01*
X116204999Y-90335001D01*
X116086283Y-90190347D01*
X115998068Y-90025308D01*
X115964910Y-89916000D01*
X115943746Y-89846231D01*
X115932276Y-89729769D01*
X115930000Y-89706665D01*
X115930000Y-89363334D01*
X115943746Y-89223769D01*
X115963009Y-89160268D01*
X115998068Y-89044692D01*
X115998068Y-89044691D01*
X116086282Y-88879655D01*
X116204999Y-88734999D01*
X116302395Y-88655068D01*
X116349654Y-88616283D01*
X116514692Y-88528068D01*
X116631217Y-88492721D01*
X116693769Y-88473746D01*
X116880000Y-88455404D01*
X117066232Y-88473746D01*
X117066232Y-88473746D01*
G37*
G36*
X120176001Y-88464266D02*
X120211753Y-88475111D01*
X120244698Y-88492721D01*
X120273578Y-88516422D01*
X120297279Y-88545302D01*
X120314889Y-88578247D01*
X120325734Y-88613999D01*
X120330000Y-88657316D01*
X120330000Y-90412684D01*
X120325734Y-90456001D01*
X120314889Y-90491753D01*
X120297279Y-90524698D01*
X120273578Y-90553578D01*
X120244698Y-90577279D01*
X120211753Y-90594889D01*
X120176001Y-90605734D01*
X120132684Y-90610000D01*
X118627316Y-90610000D01*
X118583999Y-90605734D01*
X118548247Y-90594889D01*
X118515302Y-90577279D01*
X118486422Y-90553578D01*
X118462721Y-90524698D01*
X118445111Y-90491753D01*
X118434266Y-90456001D01*
X118430000Y-90412684D01*
X118430000Y-88657316D01*
X118434266Y-88613999D01*
X118445111Y-88578247D01*
X118462721Y-88545302D01*
X118486422Y-88516422D01*
X118515302Y-88492721D01*
X118548247Y-88475111D01*
X118583999Y-88464266D01*
X118627316Y-88460000D01*
X120132684Y-88460000D01*
X120176001Y-88464266D01*
X120176001Y-88464266D01*
G37*
G36*
X88681732Y-88410246D02*
X88744284Y-88429221D01*
X88860809Y-88464568D01*
X89025847Y-88552783D01*
X89170501Y-88671499D01*
X89289217Y-88816153D01*
X89289218Y-88816155D01*
X89377432Y-88981192D01*
X89431754Y-89160269D01*
X89445500Y-89299836D01*
X89445500Y-89643165D01*
X89431754Y-89782732D01*
X89404593Y-89872270D01*
X89377432Y-89961809D01*
X89289217Y-90126847D01*
X89170501Y-90271501D01*
X89025847Y-90390217D01*
X88860808Y-90478432D01*
X88771269Y-90505593D01*
X88681731Y-90532754D01*
X88495500Y-90551096D01*
X88309268Y-90532754D01*
X88219730Y-90505593D01*
X88130191Y-90478432D01*
X87965153Y-90390217D01*
X87820499Y-90271501D01*
X87701783Y-90126847D01*
X87613568Y-89961808D01*
X87578509Y-89846232D01*
X87559246Y-89782731D01*
X87545500Y-89643164D01*
X87545500Y-89299835D01*
X87559246Y-89160268D01*
X87586407Y-89070730D01*
X87613568Y-88981191D01*
X87677279Y-88861997D01*
X87701782Y-88816155D01*
X87820499Y-88671499D01*
X87905048Y-88602111D01*
X87965154Y-88552783D01*
X88130192Y-88464568D01*
X88246717Y-88429221D01*
X88309269Y-88410246D01*
X88495500Y-88391904D01*
X88681732Y-88410246D01*
X88681732Y-88410246D01*
G37*
G36*
X83681732Y-88410246D02*
X83744284Y-88429221D01*
X83860809Y-88464568D01*
X84025847Y-88552783D01*
X84170501Y-88671499D01*
X84289217Y-88816153D01*
X84289218Y-88816155D01*
X84377432Y-88981192D01*
X84431754Y-89160269D01*
X84445500Y-89299836D01*
X84445500Y-89643165D01*
X84431754Y-89782732D01*
X84404593Y-89872270D01*
X84377432Y-89961809D01*
X84289217Y-90126847D01*
X84170501Y-90271501D01*
X84025847Y-90390217D01*
X83860808Y-90478432D01*
X83771269Y-90505593D01*
X83681731Y-90532754D01*
X83495500Y-90551096D01*
X83309268Y-90532754D01*
X83219730Y-90505593D01*
X83130191Y-90478432D01*
X82965153Y-90390217D01*
X82820499Y-90271501D01*
X82701783Y-90126847D01*
X82613568Y-89961808D01*
X82578509Y-89846232D01*
X82559246Y-89782731D01*
X82545500Y-89643164D01*
X82545500Y-89299835D01*
X82559246Y-89160268D01*
X82586407Y-89070730D01*
X82613568Y-88981191D01*
X82677279Y-88861997D01*
X82701782Y-88816155D01*
X82820499Y-88671499D01*
X82905048Y-88602111D01*
X82965154Y-88552783D01*
X83130192Y-88464568D01*
X83246717Y-88429221D01*
X83309269Y-88410246D01*
X83495500Y-88391904D01*
X83681732Y-88410246D01*
X83681732Y-88410246D01*
G37*
G36*
X86181732Y-88410246D02*
X86244284Y-88429221D01*
X86360809Y-88464568D01*
X86525847Y-88552783D01*
X86670501Y-88671499D01*
X86789217Y-88816153D01*
X86789218Y-88816155D01*
X86877432Y-88981192D01*
X86931754Y-89160269D01*
X86945500Y-89299836D01*
X86945500Y-89643165D01*
X86931754Y-89782732D01*
X86904593Y-89872270D01*
X86877432Y-89961809D01*
X86789217Y-90126847D01*
X86670501Y-90271501D01*
X86525847Y-90390217D01*
X86360808Y-90478432D01*
X86271269Y-90505593D01*
X86181731Y-90532754D01*
X85995500Y-90551096D01*
X85809268Y-90532754D01*
X85719730Y-90505593D01*
X85630191Y-90478432D01*
X85465153Y-90390217D01*
X85320499Y-90271501D01*
X85201783Y-90126847D01*
X85113568Y-89961808D01*
X85078509Y-89846232D01*
X85059246Y-89782731D01*
X85045500Y-89643164D01*
X85045500Y-89299835D01*
X85059246Y-89160268D01*
X85086407Y-89070730D01*
X85113568Y-88981191D01*
X85177279Y-88861997D01*
X85201782Y-88816155D01*
X85320499Y-88671499D01*
X85405048Y-88602111D01*
X85465154Y-88552783D01*
X85630192Y-88464568D01*
X85746717Y-88429221D01*
X85809269Y-88410246D01*
X85995500Y-88391904D01*
X86181732Y-88410246D01*
X86181732Y-88410246D01*
G37*
G36*
X91791501Y-88400766D02*
X91827253Y-88411611D01*
X91860198Y-88429221D01*
X91889078Y-88452922D01*
X91912779Y-88481802D01*
X91930389Y-88514747D01*
X91941234Y-88550499D01*
X91945500Y-88593816D01*
X91945500Y-90349184D01*
X91941234Y-90392501D01*
X91930389Y-90428253D01*
X91912779Y-90461198D01*
X91889078Y-90490078D01*
X91860198Y-90513779D01*
X91827253Y-90531389D01*
X91791501Y-90542234D01*
X91748184Y-90546500D01*
X90242816Y-90546500D01*
X90199499Y-90542234D01*
X90163747Y-90531389D01*
X90130802Y-90513779D01*
X90101922Y-90490078D01*
X90078221Y-90461198D01*
X90060611Y-90428253D01*
X90049766Y-90392501D01*
X90045500Y-90349184D01*
X90045500Y-88593816D01*
X90049766Y-88550499D01*
X90060611Y-88514747D01*
X90078221Y-88481802D01*
X90101922Y-88452922D01*
X90130802Y-88429221D01*
X90163747Y-88411611D01*
X90199499Y-88400766D01*
X90242816Y-88396500D01*
X91748184Y-88396500D01*
X91791501Y-88400766D01*
X91791501Y-88400766D01*
G37*
G36*
X127115000Y-89570600D02*
X125615000Y-89570600D01*
X125615000Y-87670600D01*
X127115000Y-87670600D01*
X127115000Y-89570600D01*
X127115000Y-89570600D01*
G37*
G36*
X123615000Y-89570600D02*
X122115000Y-89570600D01*
X122115000Y-87670600D01*
X123615000Y-87670600D01*
X123615000Y-89570600D01*
X123615000Y-89570600D01*
G37*
G36*
X141156232Y-86439746D02*
X141245770Y-86466907D01*
X141335309Y-86494068D01*
X141500347Y-86582283D01*
X141645001Y-86700999D01*
X141763717Y-86845653D01*
X141851932Y-87010691D01*
X141906254Y-87189769D01*
X141924596Y-87376000D01*
X141906254Y-87562231D01*
X141851932Y-87741309D01*
X141763717Y-87906347D01*
X141645001Y-88051001D01*
X141500347Y-88169717D01*
X141335309Y-88257932D01*
X141245770Y-88285093D01*
X141156232Y-88312254D01*
X141086448Y-88319127D01*
X141016666Y-88326000D01*
X140923334Y-88326000D01*
X140853552Y-88319127D01*
X140783768Y-88312254D01*
X140694230Y-88285093D01*
X140604691Y-88257932D01*
X140439653Y-88169717D01*
X140294999Y-88051001D01*
X140176283Y-87906347D01*
X140088068Y-87741309D01*
X140033746Y-87562231D01*
X140015404Y-87376000D01*
X140033746Y-87189769D01*
X140088068Y-87010691D01*
X140176283Y-86845653D01*
X140294999Y-86700999D01*
X140439653Y-86582283D01*
X140604691Y-86494068D01*
X140694230Y-86466907D01*
X140783768Y-86439746D01*
X140923334Y-86426000D01*
X141016666Y-86426000D01*
X141156232Y-86439746D01*
X141156232Y-86439746D01*
G37*
G36*
X123609800Y-87208400D02*
X122109800Y-87208400D01*
X122109800Y-85308400D01*
X123609800Y-85308400D01*
X123609800Y-87208400D01*
X123609800Y-87208400D01*
G37*
G36*
X127109800Y-87208400D02*
X125609800Y-87208400D01*
X125609800Y-85308400D01*
X127109800Y-85308400D01*
X127109800Y-87208400D01*
X127109800Y-87208400D01*
G37*
G36*
X141086448Y-83892873D02*
X141156232Y-83899746D01*
X141245770Y-83926907D01*
X141335309Y-83954068D01*
X141500347Y-84042283D01*
X141645001Y-84160999D01*
X141763717Y-84305653D01*
X141851932Y-84470691D01*
X141906254Y-84649769D01*
X141924596Y-84836000D01*
X141906254Y-85022231D01*
X141851932Y-85201309D01*
X141763717Y-85366347D01*
X141645001Y-85511001D01*
X141500347Y-85629717D01*
X141335309Y-85717932D01*
X141245770Y-85745093D01*
X141156232Y-85772254D01*
X141016666Y-85786000D01*
X140923334Y-85786000D01*
X140783768Y-85772254D01*
X140694230Y-85745093D01*
X140604691Y-85717932D01*
X140439653Y-85629717D01*
X140294999Y-85511001D01*
X140176283Y-85366347D01*
X140088068Y-85201309D01*
X140033746Y-85022231D01*
X140015404Y-84836000D01*
X140033746Y-84649769D01*
X140088068Y-84470691D01*
X140176283Y-84305653D01*
X140294999Y-84160999D01*
X140439653Y-84042283D01*
X140604691Y-83954068D01*
X140694230Y-83926907D01*
X140783768Y-83899746D01*
X140853552Y-83892873D01*
X140923334Y-83886000D01*
X141016666Y-83886000D01*
X141086448Y-83892873D01*
X141086448Y-83892873D01*
G37*
G36*
X127109800Y-84795400D02*
X125609800Y-84795400D01*
X125609800Y-82895400D01*
X127109800Y-82895400D01*
X127109800Y-84795400D01*
X127109800Y-84795400D01*
G37*
G36*
X123609800Y-84795400D02*
X122109800Y-84795400D01*
X122109800Y-82895400D01*
X123609800Y-82895400D01*
X123609800Y-84795400D01*
X123609800Y-84795400D01*
G37*
G36*
X141086448Y-81352873D02*
X141156232Y-81359746D01*
X141245770Y-81386907D01*
X141335309Y-81414068D01*
X141500347Y-81502283D01*
X141645001Y-81620999D01*
X141763717Y-81765653D01*
X141851932Y-81930691D01*
X141852586Y-81932847D01*
X141906254Y-82109768D01*
X141924596Y-82296000D01*
X141907415Y-82470449D01*
X141906254Y-82482231D01*
X141851932Y-82661309D01*
X141763717Y-82826347D01*
X141645001Y-82971001D01*
X141500347Y-83089717D01*
X141335309Y-83177932D01*
X141245770Y-83205093D01*
X141156232Y-83232254D01*
X141016666Y-83246000D01*
X140923334Y-83246000D01*
X140783768Y-83232254D01*
X140694230Y-83205093D01*
X140604691Y-83177932D01*
X140439653Y-83089717D01*
X140294999Y-82971001D01*
X140176283Y-82826347D01*
X140088068Y-82661309D01*
X140033746Y-82482231D01*
X140032586Y-82470449D01*
X140015404Y-82296000D01*
X140033746Y-82109768D01*
X140087414Y-81932847D01*
X140088068Y-81930691D01*
X140176283Y-81765653D01*
X140294999Y-81620999D01*
X140439653Y-81502283D01*
X140604691Y-81414068D01*
X140694230Y-81386907D01*
X140783768Y-81359746D01*
X140853552Y-81352873D01*
X140923334Y-81346000D01*
X141016666Y-81346000D01*
X141086448Y-81352873D01*
X141086448Y-81352873D01*
G37*
G36*
X83350415Y-80381284D02*
X83412967Y-80400259D01*
X83529492Y-80435606D01*
X83694530Y-80523821D01*
X83839184Y-80642537D01*
X83957900Y-80787191D01*
X83957901Y-80787193D01*
X84046115Y-80952230D01*
X84100437Y-81131307D01*
X84104429Y-81171835D01*
X84114183Y-81270873D01*
X84114183Y-81614204D01*
X84110191Y-81654731D01*
X84100437Y-81753770D01*
X84076158Y-81833807D01*
X84046115Y-81932847D01*
X83957900Y-82097885D01*
X83839184Y-82242539D01*
X83694530Y-82361255D01*
X83529491Y-82449470D01*
X83439952Y-82476631D01*
X83350414Y-82503792D01*
X83164183Y-82522134D01*
X82977951Y-82503792D01*
X82888413Y-82476631D01*
X82798874Y-82449470D01*
X82633836Y-82361255D01*
X82489182Y-82242539D01*
X82370466Y-82097885D01*
X82282251Y-81932846D01*
X82231534Y-81765653D01*
X82227929Y-81753769D01*
X82214183Y-81614202D01*
X82214183Y-81270873D01*
X82227929Y-81131306D01*
X82282251Y-80952230D01*
X82282251Y-80952229D01*
X82335188Y-80853191D01*
X82370465Y-80787193D01*
X82489182Y-80642537D01*
X82583839Y-80564854D01*
X82633837Y-80523821D01*
X82798875Y-80435606D01*
X82915400Y-80400259D01*
X82977952Y-80381284D01*
X83164183Y-80362942D01*
X83350415Y-80381284D01*
X83350415Y-80381284D01*
G37*
G36*
X88350415Y-80381284D02*
X88412967Y-80400259D01*
X88529492Y-80435606D01*
X88694530Y-80523821D01*
X88839184Y-80642537D01*
X88957900Y-80787191D01*
X88957901Y-80787193D01*
X89046115Y-80952230D01*
X89100437Y-81131307D01*
X89104429Y-81171835D01*
X89114183Y-81270873D01*
X89114183Y-81614204D01*
X89110191Y-81654731D01*
X89100437Y-81753770D01*
X89076158Y-81833807D01*
X89046115Y-81932847D01*
X88957900Y-82097885D01*
X88839184Y-82242539D01*
X88694530Y-82361255D01*
X88529491Y-82449470D01*
X88439952Y-82476631D01*
X88350414Y-82503792D01*
X88164183Y-82522134D01*
X87977951Y-82503792D01*
X87888413Y-82476631D01*
X87798874Y-82449470D01*
X87633836Y-82361255D01*
X87489182Y-82242539D01*
X87370466Y-82097885D01*
X87282251Y-81932846D01*
X87231534Y-81765653D01*
X87227929Y-81753769D01*
X87214183Y-81614202D01*
X87214183Y-81270873D01*
X87227929Y-81131306D01*
X87282251Y-80952230D01*
X87282251Y-80952229D01*
X87335188Y-80853191D01*
X87370465Y-80787193D01*
X87489182Y-80642537D01*
X87583839Y-80564854D01*
X87633837Y-80523821D01*
X87798875Y-80435606D01*
X87915400Y-80400259D01*
X87977952Y-80381284D01*
X88164183Y-80362942D01*
X88350415Y-80381284D01*
X88350415Y-80381284D01*
G37*
G36*
X85850415Y-80381284D02*
X85912967Y-80400259D01*
X86029492Y-80435606D01*
X86194530Y-80523821D01*
X86339184Y-80642537D01*
X86457900Y-80787191D01*
X86457901Y-80787193D01*
X86546115Y-80952230D01*
X86600437Y-81131307D01*
X86604429Y-81171835D01*
X86614183Y-81270873D01*
X86614183Y-81614204D01*
X86610191Y-81654731D01*
X86600437Y-81753770D01*
X86576158Y-81833807D01*
X86546115Y-81932847D01*
X86457900Y-82097885D01*
X86339184Y-82242539D01*
X86194530Y-82361255D01*
X86029491Y-82449470D01*
X85939952Y-82476631D01*
X85850414Y-82503792D01*
X85664183Y-82522134D01*
X85477951Y-82503792D01*
X85388413Y-82476631D01*
X85298874Y-82449470D01*
X85133836Y-82361255D01*
X84989182Y-82242539D01*
X84870466Y-82097885D01*
X84782251Y-81932846D01*
X84731534Y-81765653D01*
X84727929Y-81753769D01*
X84714183Y-81614202D01*
X84714183Y-81270873D01*
X84727929Y-81131306D01*
X84782251Y-80952230D01*
X84782251Y-80952229D01*
X84835188Y-80853191D01*
X84870465Y-80787193D01*
X84989182Y-80642537D01*
X85083839Y-80564854D01*
X85133837Y-80523821D01*
X85298875Y-80435606D01*
X85415400Y-80400259D01*
X85477952Y-80381284D01*
X85664183Y-80362942D01*
X85850415Y-80381284D01*
X85850415Y-80381284D01*
G37*
G36*
X91460184Y-80371804D02*
X91495936Y-80382649D01*
X91528881Y-80400259D01*
X91557761Y-80423960D01*
X91581462Y-80452840D01*
X91599072Y-80485785D01*
X91609917Y-80521537D01*
X91614183Y-80564854D01*
X91614183Y-82320222D01*
X91609917Y-82363539D01*
X91599072Y-82399291D01*
X91581462Y-82432236D01*
X91557761Y-82461116D01*
X91528881Y-82484817D01*
X91495936Y-82502427D01*
X91460184Y-82513272D01*
X91416867Y-82517538D01*
X89911499Y-82517538D01*
X89868182Y-82513272D01*
X89832430Y-82502427D01*
X89799485Y-82484817D01*
X89770605Y-82461116D01*
X89746904Y-82432236D01*
X89729294Y-82399291D01*
X89718449Y-82363539D01*
X89714183Y-82320222D01*
X89714183Y-80564854D01*
X89718449Y-80521537D01*
X89729294Y-80485785D01*
X89746904Y-80452840D01*
X89770605Y-80423960D01*
X89799485Y-80400259D01*
X89832430Y-80382649D01*
X89868182Y-80371804D01*
X89911499Y-80367538D01*
X91416867Y-80367538D01*
X91460184Y-80371804D01*
X91460184Y-80371804D01*
G37*
G36*
X101612232Y-80345746D02*
X101674784Y-80364721D01*
X101791309Y-80400068D01*
X101956347Y-80488283D01*
X102101001Y-80606999D01*
X102219717Y-80751653D01*
X102219718Y-80751655D01*
X102307932Y-80916692D01*
X102362254Y-81095768D01*
X102362254Y-81095770D01*
X102376000Y-81235335D01*
X102376000Y-81578666D01*
X102362254Y-81718231D01*
X102307932Y-81897309D01*
X102219717Y-82062347D01*
X102101001Y-82207001D01*
X101956347Y-82325717D01*
X101791308Y-82413932D01*
X101701769Y-82441093D01*
X101612231Y-82468254D01*
X101426000Y-82486596D01*
X101239768Y-82468254D01*
X101150230Y-82441093D01*
X101060691Y-82413932D01*
X100895653Y-82325717D01*
X100750999Y-82207001D01*
X100632283Y-82062347D01*
X100544068Y-81897308D01*
X100500526Y-81753768D01*
X100489746Y-81718231D01*
X100476000Y-81578664D01*
X100476000Y-81235335D01*
X100489746Y-81095768D01*
X100544068Y-80916692D01*
X100544068Y-80916691D01*
X100613288Y-80787191D01*
X100632282Y-80751655D01*
X100750999Y-80606999D01*
X100845656Y-80529316D01*
X100895654Y-80488283D01*
X101060692Y-80400068D01*
X101177217Y-80364721D01*
X101239769Y-80345746D01*
X101426000Y-80327404D01*
X101612232Y-80345746D01*
X101612232Y-80345746D01*
G37*
G36*
X104112232Y-80345746D02*
X104174784Y-80364721D01*
X104291309Y-80400068D01*
X104456347Y-80488283D01*
X104601001Y-80606999D01*
X104719717Y-80751653D01*
X104719718Y-80751655D01*
X104807932Y-80916692D01*
X104862254Y-81095768D01*
X104862254Y-81095770D01*
X104876000Y-81235335D01*
X104876000Y-81578666D01*
X104862254Y-81718231D01*
X104807932Y-81897309D01*
X104719717Y-82062347D01*
X104601001Y-82207001D01*
X104456347Y-82325717D01*
X104291308Y-82413932D01*
X104201769Y-82441093D01*
X104112231Y-82468254D01*
X103926000Y-82486596D01*
X103739768Y-82468254D01*
X103650230Y-82441093D01*
X103560691Y-82413932D01*
X103395653Y-82325717D01*
X103250999Y-82207001D01*
X103132283Y-82062347D01*
X103044068Y-81897308D01*
X103000526Y-81753768D01*
X102989746Y-81718231D01*
X102976000Y-81578664D01*
X102976000Y-81235335D01*
X102989746Y-81095768D01*
X103044068Y-80916692D01*
X103044068Y-80916691D01*
X103113288Y-80787191D01*
X103132282Y-80751655D01*
X103250999Y-80606999D01*
X103345656Y-80529316D01*
X103395654Y-80488283D01*
X103560692Y-80400068D01*
X103677217Y-80364721D01*
X103739769Y-80345746D01*
X103926000Y-80327404D01*
X104112232Y-80345746D01*
X104112232Y-80345746D01*
G37*
G36*
X99112232Y-80345746D02*
X99174784Y-80364721D01*
X99291309Y-80400068D01*
X99456347Y-80488283D01*
X99601001Y-80606999D01*
X99719717Y-80751653D01*
X99719718Y-80751655D01*
X99807932Y-80916692D01*
X99862254Y-81095768D01*
X99862254Y-81095770D01*
X99876000Y-81235335D01*
X99876000Y-81578666D01*
X99862254Y-81718231D01*
X99807932Y-81897309D01*
X99719717Y-82062347D01*
X99601001Y-82207001D01*
X99456347Y-82325717D01*
X99291308Y-82413932D01*
X99201769Y-82441093D01*
X99112231Y-82468254D01*
X98926000Y-82486596D01*
X98739768Y-82468254D01*
X98650230Y-82441093D01*
X98560691Y-82413932D01*
X98395653Y-82325717D01*
X98250999Y-82207001D01*
X98132283Y-82062347D01*
X98044068Y-81897308D01*
X98000526Y-81753768D01*
X97989746Y-81718231D01*
X97976000Y-81578664D01*
X97976000Y-81235335D01*
X97989746Y-81095768D01*
X98044068Y-80916692D01*
X98044068Y-80916691D01*
X98113288Y-80787191D01*
X98132282Y-80751655D01*
X98250999Y-80606999D01*
X98345656Y-80529316D01*
X98395654Y-80488283D01*
X98560692Y-80400068D01*
X98677217Y-80364721D01*
X98739769Y-80345746D01*
X98926000Y-80327404D01*
X99112232Y-80345746D01*
X99112232Y-80345746D01*
G37*
G36*
X107222001Y-80336266D02*
X107257753Y-80347111D01*
X107290698Y-80364721D01*
X107319578Y-80388422D01*
X107343279Y-80417302D01*
X107360889Y-80450247D01*
X107371734Y-80485999D01*
X107376000Y-80529316D01*
X107376000Y-82284684D01*
X107371734Y-82328001D01*
X107360889Y-82363753D01*
X107343279Y-82396698D01*
X107319578Y-82425578D01*
X107290698Y-82449279D01*
X107257753Y-82466889D01*
X107222001Y-82477734D01*
X107178684Y-82482000D01*
X105673316Y-82482000D01*
X105629999Y-82477734D01*
X105594247Y-82466889D01*
X105561302Y-82449279D01*
X105532422Y-82425578D01*
X105508721Y-82396698D01*
X105491111Y-82363753D01*
X105480266Y-82328001D01*
X105476000Y-82284684D01*
X105476000Y-80529316D01*
X105480266Y-80485999D01*
X105491111Y-80450247D01*
X105508721Y-80417302D01*
X105532422Y-80388422D01*
X105561302Y-80364721D01*
X105594247Y-80347111D01*
X105629999Y-80336266D01*
X105673316Y-80332000D01*
X107178684Y-80332000D01*
X107222001Y-80336266D01*
X107222001Y-80336266D01*
G37*
G36*
X114566232Y-80282246D02*
X114628784Y-80301221D01*
X114745309Y-80336568D01*
X114910347Y-80424783D01*
X115055001Y-80543499D01*
X115173717Y-80688153D01*
X115173718Y-80688155D01*
X115261932Y-80853192D01*
X115316254Y-81032269D01*
X115330000Y-81171836D01*
X115330000Y-81515165D01*
X115316254Y-81654732D01*
X115289093Y-81744270D01*
X115261932Y-81833809D01*
X115173717Y-81998847D01*
X115055001Y-82143501D01*
X114910347Y-82262217D01*
X114745308Y-82350432D01*
X114655769Y-82377593D01*
X114566231Y-82404754D01*
X114380000Y-82423096D01*
X114193768Y-82404754D01*
X114104230Y-82377593D01*
X114014691Y-82350432D01*
X113849653Y-82262217D01*
X113704999Y-82143501D01*
X113586283Y-81998847D01*
X113498068Y-81833808D01*
X113463009Y-81718232D01*
X113443746Y-81654731D01*
X113430000Y-81515164D01*
X113430000Y-81171835D01*
X113433992Y-81131308D01*
X113443746Y-81032269D01*
X113498068Y-80853191D01*
X113576744Y-80706000D01*
X113586282Y-80688155D01*
X113704999Y-80543499D01*
X113766044Y-80493401D01*
X113849654Y-80424783D01*
X114014692Y-80336568D01*
X114131217Y-80301221D01*
X114193769Y-80282246D01*
X114380000Y-80263904D01*
X114566232Y-80282246D01*
X114566232Y-80282246D01*
G37*
G36*
X117066232Y-80282246D02*
X117128784Y-80301221D01*
X117245309Y-80336568D01*
X117410347Y-80424783D01*
X117555001Y-80543499D01*
X117673717Y-80688153D01*
X117673718Y-80688155D01*
X117761932Y-80853192D01*
X117816254Y-81032269D01*
X117830000Y-81171836D01*
X117830000Y-81515165D01*
X117816254Y-81654732D01*
X117789093Y-81744270D01*
X117761932Y-81833809D01*
X117673717Y-81998847D01*
X117555001Y-82143501D01*
X117410347Y-82262217D01*
X117245308Y-82350432D01*
X117155769Y-82377593D01*
X117066231Y-82404754D01*
X116880000Y-82423096D01*
X116693768Y-82404754D01*
X116604230Y-82377593D01*
X116514691Y-82350432D01*
X116349653Y-82262217D01*
X116204999Y-82143501D01*
X116086283Y-81998847D01*
X115998068Y-81833808D01*
X115963009Y-81718232D01*
X115943746Y-81654731D01*
X115930000Y-81515164D01*
X115930000Y-81171835D01*
X115933992Y-81131308D01*
X115943746Y-81032269D01*
X115998068Y-80853191D01*
X116076744Y-80706000D01*
X116086282Y-80688155D01*
X116204999Y-80543499D01*
X116266044Y-80493401D01*
X116349654Y-80424783D01*
X116514692Y-80336568D01*
X116631217Y-80301221D01*
X116693769Y-80282246D01*
X116880000Y-80263904D01*
X117066232Y-80282246D01*
X117066232Y-80282246D01*
G37*
G36*
X120176001Y-80272766D02*
X120211753Y-80283611D01*
X120244698Y-80301221D01*
X120273578Y-80324922D01*
X120297279Y-80353802D01*
X120314889Y-80386747D01*
X120325734Y-80422499D01*
X120330000Y-80465816D01*
X120330000Y-82221184D01*
X120325734Y-82264501D01*
X120314889Y-82300253D01*
X120297279Y-82333198D01*
X120273578Y-82362078D01*
X120244698Y-82385779D01*
X120211753Y-82403389D01*
X120176001Y-82414234D01*
X120132684Y-82418500D01*
X118627316Y-82418500D01*
X118583999Y-82414234D01*
X118548247Y-82403389D01*
X118515302Y-82385779D01*
X118486422Y-82362078D01*
X118462721Y-82333198D01*
X118445111Y-82300253D01*
X118434266Y-82264501D01*
X118430000Y-82221184D01*
X118430000Y-80465816D01*
X118434266Y-80422499D01*
X118445111Y-80386747D01*
X118462721Y-80353802D01*
X118486422Y-80324922D01*
X118515302Y-80301221D01*
X118548247Y-80283611D01*
X118583999Y-80272766D01*
X118627316Y-80268500D01*
X120132684Y-80268500D01*
X120176001Y-80272766D01*
X120176001Y-80272766D01*
G37*
G36*
X123612400Y-82306200D02*
X122112400Y-82306200D01*
X122112400Y-80406200D01*
X123612400Y-80406200D01*
X123612400Y-82306200D01*
X123612400Y-82306200D01*
G37*
G36*
X127112400Y-82306200D02*
X125612400Y-82306200D01*
X125612400Y-80406200D01*
X127112400Y-80406200D01*
X127112400Y-82306200D01*
X127112400Y-82306200D01*
G37*
G36*
X141086448Y-78812873D02*
X141156232Y-78819746D01*
X141245770Y-78846907D01*
X141335309Y-78874068D01*
X141500347Y-78962283D01*
X141645001Y-79080999D01*
X141763717Y-79225653D01*
X141851932Y-79390691D01*
X141906254Y-79569769D01*
X141924596Y-79756000D01*
X141906254Y-79942231D01*
X141851932Y-80121309D01*
X141763717Y-80286347D01*
X141645001Y-80431001D01*
X141500347Y-80549717D01*
X141335309Y-80637932D01*
X141305580Y-80646950D01*
X141156232Y-80692254D01*
X141086448Y-80699127D01*
X141016666Y-80706000D01*
X140923334Y-80706000D01*
X140853552Y-80699127D01*
X140783768Y-80692254D01*
X140634420Y-80646950D01*
X140604691Y-80637932D01*
X140439653Y-80549717D01*
X140294999Y-80431001D01*
X140176283Y-80286347D01*
X140088068Y-80121309D01*
X140033746Y-79942231D01*
X140015404Y-79756000D01*
X140033746Y-79569769D01*
X140088068Y-79390691D01*
X140176283Y-79225653D01*
X140294999Y-79080999D01*
X140439653Y-78962283D01*
X140604691Y-78874068D01*
X140694230Y-78846907D01*
X140783768Y-78819746D01*
X140853552Y-78812873D01*
X140923334Y-78806000D01*
X141016666Y-78806000D01*
X141086448Y-78812873D01*
X141086448Y-78812873D01*
G37*
G36*
X123609800Y-79740800D02*
X122109800Y-79740800D01*
X122109800Y-77840800D01*
X123609800Y-77840800D01*
X123609800Y-79740800D01*
X123609800Y-79740800D01*
G37*
G36*
X127109800Y-79740800D02*
X125609800Y-79740800D01*
X125609800Y-77840800D01*
X127109800Y-77840800D01*
X127109800Y-79740800D01*
X127109800Y-79740800D01*
G37*
G36*
X96762000Y-78470800D02*
X95262000Y-78470800D01*
X95262000Y-76570800D01*
X96762000Y-76570800D01*
X96762000Y-78470800D01*
X96762000Y-78470800D01*
G37*
G36*
X100262000Y-78470800D02*
X98762000Y-78470800D01*
X98762000Y-76570800D01*
X100262000Y-76570800D01*
X100262000Y-78470800D01*
X100262000Y-78470800D01*
G37*
G36*
X141086448Y-76272873D02*
X141156232Y-76279746D01*
X141245770Y-76306907D01*
X141335309Y-76334068D01*
X141500347Y-76422283D01*
X141645001Y-76540999D01*
X141763717Y-76685653D01*
X141851932Y-76850691D01*
X141851932Y-76850692D01*
X141895809Y-76995334D01*
X141906254Y-77029769D01*
X141924596Y-77216000D01*
X141906254Y-77402231D01*
X141851932Y-77581309D01*
X141763717Y-77746347D01*
X141645001Y-77891001D01*
X141500347Y-78009717D01*
X141335309Y-78097932D01*
X141245770Y-78125093D01*
X141156232Y-78152254D01*
X141086448Y-78159127D01*
X141016666Y-78166000D01*
X140923334Y-78166000D01*
X140853552Y-78159127D01*
X140783768Y-78152254D01*
X140694230Y-78125093D01*
X140604691Y-78097932D01*
X140439653Y-78009717D01*
X140294999Y-77891001D01*
X140176283Y-77746347D01*
X140088068Y-77581309D01*
X140033746Y-77402231D01*
X140015404Y-77216000D01*
X140033746Y-77029769D01*
X140044192Y-76995334D01*
X140088068Y-76850692D01*
X140088068Y-76850691D01*
X140176283Y-76685653D01*
X140294999Y-76540999D01*
X140439653Y-76422283D01*
X140604691Y-76334068D01*
X140694230Y-76306907D01*
X140783768Y-76279746D01*
X140853552Y-76272873D01*
X140923334Y-76266000D01*
X141016666Y-76266000D01*
X141086448Y-76272873D01*
X141086448Y-76272873D01*
G37*
G36*
X102629279Y-76899916D02*
X102671370Y-76912685D01*
X102710166Y-76933422D01*
X102744171Y-76961329D01*
X102772078Y-76995334D01*
X102792815Y-77034130D01*
X102805584Y-77076221D01*
X102810500Y-77126140D01*
X102810500Y-77813860D01*
X102805584Y-77863779D01*
X102792815Y-77905870D01*
X102772078Y-77944666D01*
X102744171Y-77978671D01*
X102710166Y-78006578D01*
X102671370Y-78027315D01*
X102629279Y-78040084D01*
X102579360Y-78045000D01*
X101791640Y-78045000D01*
X101741721Y-78040084D01*
X101699630Y-78027315D01*
X101660834Y-78006578D01*
X101626829Y-77978671D01*
X101598922Y-77944666D01*
X101578185Y-77905870D01*
X101565416Y-77863779D01*
X101560500Y-77813860D01*
X101560500Y-77126140D01*
X101565416Y-77076221D01*
X101578185Y-77034130D01*
X101598922Y-76995334D01*
X101626829Y-76961329D01*
X101660834Y-76933422D01*
X101699630Y-76912685D01*
X101741721Y-76899916D01*
X101791640Y-76895000D01*
X102579360Y-76895000D01*
X102629279Y-76899916D01*
X102629279Y-76899916D01*
G37*
G36*
X104379279Y-76899916D02*
X104421370Y-76912685D01*
X104460166Y-76933422D01*
X104494171Y-76961329D01*
X104522078Y-76995334D01*
X104542815Y-77034130D01*
X104555584Y-77076221D01*
X104560500Y-77126140D01*
X104560500Y-77813860D01*
X104555584Y-77863779D01*
X104542815Y-77905870D01*
X104522078Y-77944666D01*
X104494171Y-77978671D01*
X104460166Y-78006578D01*
X104421370Y-78027315D01*
X104379279Y-78040084D01*
X104329360Y-78045000D01*
X103541640Y-78045000D01*
X103491721Y-78040084D01*
X103449630Y-78027315D01*
X103410834Y-78006578D01*
X103376829Y-77978671D01*
X103348922Y-77944666D01*
X103328185Y-77905870D01*
X103315416Y-77863779D01*
X103310500Y-77813860D01*
X103310500Y-77126140D01*
X103315416Y-77076221D01*
X103328185Y-77034130D01*
X103348922Y-76995334D01*
X103376829Y-76961329D01*
X103410834Y-76933422D01*
X103449630Y-76912685D01*
X103491721Y-76899916D01*
X103541640Y-76895000D01*
X104329360Y-76895000D01*
X104379279Y-76899916D01*
X104379279Y-76899916D01*
G37*
G36*
X127109800Y-77302400D02*
X125609800Y-77302400D01*
X125609800Y-75402400D01*
X127109800Y-75402400D01*
X127109800Y-77302400D01*
X127109800Y-77302400D01*
G37*
G36*
X123609800Y-77302400D02*
X122109800Y-77302400D01*
X122109800Y-75402400D01*
X123609800Y-75402400D01*
X123609800Y-77302400D01*
X123609800Y-77302400D01*
G37*
G36*
X141086448Y-73732873D02*
X141156232Y-73739746D01*
X141199163Y-73752769D01*
X141335309Y-73794068D01*
X141500347Y-73882283D01*
X141645001Y-74000999D01*
X141763717Y-74145653D01*
X141851932Y-74310691D01*
X141851932Y-74310692D01*
X141906254Y-74489768D01*
X141912097Y-74549096D01*
X141924596Y-74676000D01*
X141906254Y-74862231D01*
X141851932Y-75041309D01*
X141763717Y-75206347D01*
X141645001Y-75351001D01*
X141500347Y-75469717D01*
X141335309Y-75557932D01*
X141245770Y-75585093D01*
X141156232Y-75612254D01*
X141086448Y-75619127D01*
X141016666Y-75626000D01*
X140923334Y-75626000D01*
X140853552Y-75619127D01*
X140783768Y-75612254D01*
X140694230Y-75585093D01*
X140604691Y-75557932D01*
X140439653Y-75469717D01*
X140294999Y-75351001D01*
X140176283Y-75206347D01*
X140088068Y-75041309D01*
X140033746Y-74862231D01*
X140015404Y-74676000D01*
X140027903Y-74549096D01*
X140033746Y-74489768D01*
X140088068Y-74310692D01*
X140088068Y-74310691D01*
X140176283Y-74145653D01*
X140294999Y-74000999D01*
X140439653Y-73882283D01*
X140604691Y-73794068D01*
X140740837Y-73752769D01*
X140783768Y-73739746D01*
X140853552Y-73732873D01*
X140923334Y-73726000D01*
X141016666Y-73726000D01*
X141086448Y-73732873D01*
X141086448Y-73732873D01*
G37*
G36*
X123612400Y-74660800D02*
X122112400Y-74660800D01*
X122112400Y-72760800D01*
X123612400Y-72760800D01*
X123612400Y-74660800D01*
X123612400Y-74660800D01*
G37*
G36*
X127112400Y-74660800D02*
X125612400Y-74660800D01*
X125612400Y-72760800D01*
X127112400Y-72760800D01*
X127112400Y-74660800D01*
X127112400Y-74660800D01*
G37*
G36*
X101548732Y-72408246D02*
X101611284Y-72427221D01*
X101727809Y-72462568D01*
X101892847Y-72550783D01*
X102037501Y-72669499D01*
X102156217Y-72814153D01*
X102156218Y-72814155D01*
X102244432Y-72979192D01*
X102298754Y-73158269D01*
X102312500Y-73297836D01*
X102312500Y-73641165D01*
X102298754Y-73780732D01*
X102271593Y-73870270D01*
X102244432Y-73959809D01*
X102156217Y-74124847D01*
X102037501Y-74269501D01*
X101892847Y-74388217D01*
X101727808Y-74476432D01*
X101645409Y-74501427D01*
X101548731Y-74530754D01*
X101362500Y-74549096D01*
X101176268Y-74530754D01*
X101079590Y-74501427D01*
X100997191Y-74476432D01*
X100832153Y-74388217D01*
X100687499Y-74269501D01*
X100568783Y-74124847D01*
X100480568Y-73959808D01*
X100430292Y-73794068D01*
X100426246Y-73780731D01*
X100412500Y-73641164D01*
X100412500Y-73297835D01*
X100426246Y-73158268D01*
X100480568Y-72979192D01*
X100480568Y-72979191D01*
X100524675Y-72896674D01*
X100568782Y-72814155D01*
X100687499Y-72669499D01*
X100812411Y-72566986D01*
X100832154Y-72550783D01*
X100997192Y-72462568D01*
X101113717Y-72427221D01*
X101176269Y-72408246D01*
X101362500Y-72389904D01*
X101548732Y-72408246D01*
X101548732Y-72408246D01*
G37*
G36*
X114566232Y-72408246D02*
X114628784Y-72427221D01*
X114745309Y-72462568D01*
X114910347Y-72550783D01*
X115055001Y-72669499D01*
X115173717Y-72814153D01*
X115173718Y-72814155D01*
X115261932Y-72979192D01*
X115316254Y-73158269D01*
X115330000Y-73297836D01*
X115330000Y-73641165D01*
X115316254Y-73780732D01*
X115289093Y-73870270D01*
X115261932Y-73959809D01*
X115173717Y-74124847D01*
X115055001Y-74269501D01*
X114910347Y-74388217D01*
X114745308Y-74476432D01*
X114662909Y-74501427D01*
X114566231Y-74530754D01*
X114380000Y-74549096D01*
X114193768Y-74530754D01*
X114097090Y-74501427D01*
X114014691Y-74476432D01*
X113849653Y-74388217D01*
X113704999Y-74269501D01*
X113586283Y-74124847D01*
X113498068Y-73959808D01*
X113447792Y-73794068D01*
X113443746Y-73780731D01*
X113430000Y-73641164D01*
X113430000Y-73297835D01*
X113443746Y-73158268D01*
X113498068Y-72979192D01*
X113498068Y-72979191D01*
X113542175Y-72896674D01*
X113586282Y-72814155D01*
X113704999Y-72669499D01*
X113829911Y-72566986D01*
X113849654Y-72550783D01*
X114014692Y-72462568D01*
X114131217Y-72427221D01*
X114193769Y-72408246D01*
X114380000Y-72389904D01*
X114566232Y-72408246D01*
X114566232Y-72408246D01*
G37*
G36*
X104048732Y-72408246D02*
X104111284Y-72427221D01*
X104227809Y-72462568D01*
X104392847Y-72550783D01*
X104537501Y-72669499D01*
X104656217Y-72814153D01*
X104656218Y-72814155D01*
X104744432Y-72979192D01*
X104798754Y-73158269D01*
X104812500Y-73297836D01*
X104812500Y-73641165D01*
X104798754Y-73780732D01*
X104771593Y-73870270D01*
X104744432Y-73959809D01*
X104656217Y-74124847D01*
X104537501Y-74269501D01*
X104392847Y-74388217D01*
X104227808Y-74476432D01*
X104145409Y-74501427D01*
X104048731Y-74530754D01*
X103862500Y-74549096D01*
X103676268Y-74530754D01*
X103579590Y-74501427D01*
X103497191Y-74476432D01*
X103332153Y-74388217D01*
X103187499Y-74269501D01*
X103068783Y-74124847D01*
X102980568Y-73959808D01*
X102930292Y-73794068D01*
X102926246Y-73780731D01*
X102912500Y-73641164D01*
X102912500Y-73297835D01*
X102926246Y-73158268D01*
X102980568Y-72979192D01*
X102980568Y-72979191D01*
X103024675Y-72896674D01*
X103068782Y-72814155D01*
X103187499Y-72669499D01*
X103312411Y-72566986D01*
X103332154Y-72550783D01*
X103497192Y-72462568D01*
X103613717Y-72427221D01*
X103676269Y-72408246D01*
X103862500Y-72389904D01*
X104048732Y-72408246D01*
X104048732Y-72408246D01*
G37*
G36*
X99048732Y-72408246D02*
X99111284Y-72427221D01*
X99227809Y-72462568D01*
X99392847Y-72550783D01*
X99537501Y-72669499D01*
X99656217Y-72814153D01*
X99656218Y-72814155D01*
X99744432Y-72979192D01*
X99798754Y-73158269D01*
X99812500Y-73297836D01*
X99812500Y-73641165D01*
X99798754Y-73780732D01*
X99771593Y-73870270D01*
X99744432Y-73959809D01*
X99656217Y-74124847D01*
X99537501Y-74269501D01*
X99392847Y-74388217D01*
X99227808Y-74476432D01*
X99145409Y-74501427D01*
X99048731Y-74530754D01*
X98862500Y-74549096D01*
X98676268Y-74530754D01*
X98579590Y-74501427D01*
X98497191Y-74476432D01*
X98332153Y-74388217D01*
X98187499Y-74269501D01*
X98068783Y-74124847D01*
X97980568Y-73959808D01*
X97930292Y-73794068D01*
X97926246Y-73780731D01*
X97912500Y-73641164D01*
X97912500Y-73297835D01*
X97926246Y-73158268D01*
X97980568Y-72979192D01*
X97980568Y-72979191D01*
X98024675Y-72896674D01*
X98068782Y-72814155D01*
X98187499Y-72669499D01*
X98312411Y-72566986D01*
X98332154Y-72550783D01*
X98497192Y-72462568D01*
X98613717Y-72427221D01*
X98676269Y-72408246D01*
X98862500Y-72389904D01*
X99048732Y-72408246D01*
X99048732Y-72408246D01*
G37*
G36*
X117066232Y-72408246D02*
X117128784Y-72427221D01*
X117245309Y-72462568D01*
X117410347Y-72550783D01*
X117555001Y-72669499D01*
X117673717Y-72814153D01*
X117673718Y-72814155D01*
X117761932Y-72979192D01*
X117816254Y-73158269D01*
X117830000Y-73297836D01*
X117830000Y-73641165D01*
X117816254Y-73780732D01*
X117789093Y-73870270D01*
X117761932Y-73959809D01*
X117673717Y-74124847D01*
X117555001Y-74269501D01*
X117410347Y-74388217D01*
X117245308Y-74476432D01*
X117162909Y-74501427D01*
X117066231Y-74530754D01*
X116880000Y-74549096D01*
X116693768Y-74530754D01*
X116597090Y-74501427D01*
X116514691Y-74476432D01*
X116349653Y-74388217D01*
X116204999Y-74269501D01*
X116086283Y-74124847D01*
X115998068Y-73959808D01*
X115947792Y-73794068D01*
X115943746Y-73780731D01*
X115930000Y-73641164D01*
X115930000Y-73297835D01*
X115943746Y-73158268D01*
X115998068Y-72979192D01*
X115998068Y-72979191D01*
X116042175Y-72896674D01*
X116086282Y-72814155D01*
X116204999Y-72669499D01*
X116329911Y-72566986D01*
X116349654Y-72550783D01*
X116514692Y-72462568D01*
X116631217Y-72427221D01*
X116693769Y-72408246D01*
X116880000Y-72389904D01*
X117066232Y-72408246D01*
X117066232Y-72408246D01*
G37*
G36*
X120176001Y-72398766D02*
X120211753Y-72409611D01*
X120244698Y-72427221D01*
X120273578Y-72450922D01*
X120297279Y-72479802D01*
X120314889Y-72512747D01*
X120325734Y-72548499D01*
X120330000Y-72591816D01*
X120330000Y-74347184D01*
X120325734Y-74390501D01*
X120314889Y-74426253D01*
X120297279Y-74459198D01*
X120273578Y-74488078D01*
X120244698Y-74511779D01*
X120211753Y-74529389D01*
X120176001Y-74540234D01*
X120132684Y-74544500D01*
X118627316Y-74544500D01*
X118583999Y-74540234D01*
X118548247Y-74529389D01*
X118515302Y-74511779D01*
X118486422Y-74488078D01*
X118462721Y-74459198D01*
X118445111Y-74426253D01*
X118434266Y-74390501D01*
X118430000Y-74347184D01*
X118430000Y-72591816D01*
X118434266Y-72548499D01*
X118445111Y-72512747D01*
X118462721Y-72479802D01*
X118486422Y-72450922D01*
X118515302Y-72427221D01*
X118548247Y-72409611D01*
X118583999Y-72398766D01*
X118627316Y-72394500D01*
X120132684Y-72394500D01*
X120176001Y-72398766D01*
X120176001Y-72398766D01*
G37*
G36*
X107158501Y-72398766D02*
X107194253Y-72409611D01*
X107227198Y-72427221D01*
X107256078Y-72450922D01*
X107279779Y-72479802D01*
X107297389Y-72512747D01*
X107308234Y-72548499D01*
X107312500Y-72591816D01*
X107312500Y-74347184D01*
X107308234Y-74390501D01*
X107297389Y-74426253D01*
X107279779Y-74459198D01*
X107256078Y-74488078D01*
X107227198Y-74511779D01*
X107194253Y-74529389D01*
X107158501Y-74540234D01*
X107115184Y-74544500D01*
X105609816Y-74544500D01*
X105566499Y-74540234D01*
X105530747Y-74529389D01*
X105497802Y-74511779D01*
X105468922Y-74488078D01*
X105445221Y-74459198D01*
X105427611Y-74426253D01*
X105416766Y-74390501D01*
X105412500Y-74347184D01*
X105412500Y-72591816D01*
X105416766Y-72548499D01*
X105427611Y-72512747D01*
X105445221Y-72479802D01*
X105468922Y-72450922D01*
X105497802Y-72427221D01*
X105530747Y-72409611D01*
X105566499Y-72398766D01*
X105609816Y-72394500D01*
X107115184Y-72394500D01*
X107158501Y-72398766D01*
X107158501Y-72398766D01*
G37*
G36*
X88366915Y-72380284D02*
X88427842Y-72398766D01*
X88545992Y-72434606D01*
X88711030Y-72522821D01*
X88855684Y-72641537D01*
X88974400Y-72786191D01*
X88974401Y-72786193D01*
X89062615Y-72951230D01*
X89116937Y-73130306D01*
X89116937Y-73130308D01*
X89130683Y-73269873D01*
X89130683Y-73613204D01*
X89116937Y-73752769D01*
X89062615Y-73931847D01*
X88974400Y-74096885D01*
X88855684Y-74241539D01*
X88711030Y-74360255D01*
X88545991Y-74448470D01*
X88456452Y-74475631D01*
X88366914Y-74502792D01*
X88180683Y-74521134D01*
X87994451Y-74502792D01*
X87904913Y-74475631D01*
X87815374Y-74448470D01*
X87650336Y-74360255D01*
X87505682Y-74241539D01*
X87386966Y-74096885D01*
X87298751Y-73931846D01*
X87256957Y-73794068D01*
X87244429Y-73752769D01*
X87230683Y-73613202D01*
X87230683Y-73269873D01*
X87244429Y-73130306D01*
X87298751Y-72951230D01*
X87298751Y-72951229D01*
X87342858Y-72868712D01*
X87386965Y-72786193D01*
X87505682Y-72641537D01*
X87566727Y-72591439D01*
X87650337Y-72522821D01*
X87815375Y-72434606D01*
X87933525Y-72398766D01*
X87994452Y-72380284D01*
X88180683Y-72361942D01*
X88366915Y-72380284D01*
X88366915Y-72380284D01*
G37*
G36*
X85866915Y-72380284D02*
X85927842Y-72398766D01*
X86045992Y-72434606D01*
X86211030Y-72522821D01*
X86355684Y-72641537D01*
X86474400Y-72786191D01*
X86474401Y-72786193D01*
X86562615Y-72951230D01*
X86616937Y-73130306D01*
X86616937Y-73130308D01*
X86630683Y-73269873D01*
X86630683Y-73613204D01*
X86616937Y-73752769D01*
X86562615Y-73931847D01*
X86474400Y-74096885D01*
X86355684Y-74241539D01*
X86211030Y-74360255D01*
X86045991Y-74448470D01*
X85956452Y-74475631D01*
X85866914Y-74502792D01*
X85680683Y-74521134D01*
X85494451Y-74502792D01*
X85404913Y-74475631D01*
X85315374Y-74448470D01*
X85150336Y-74360255D01*
X85005682Y-74241539D01*
X84886966Y-74096885D01*
X84798751Y-73931846D01*
X84756957Y-73794068D01*
X84744429Y-73752769D01*
X84730683Y-73613202D01*
X84730683Y-73269873D01*
X84744429Y-73130306D01*
X84798751Y-72951230D01*
X84798751Y-72951229D01*
X84842858Y-72868712D01*
X84886965Y-72786193D01*
X85005682Y-72641537D01*
X85066727Y-72591439D01*
X85150337Y-72522821D01*
X85315375Y-72434606D01*
X85433525Y-72398766D01*
X85494452Y-72380284D01*
X85680683Y-72361942D01*
X85866915Y-72380284D01*
X85866915Y-72380284D01*
G37*
G36*
X83366915Y-72380284D02*
X83427842Y-72398766D01*
X83545992Y-72434606D01*
X83711030Y-72522821D01*
X83855684Y-72641537D01*
X83974400Y-72786191D01*
X83974401Y-72786193D01*
X84062615Y-72951230D01*
X84116937Y-73130306D01*
X84116937Y-73130308D01*
X84130683Y-73269873D01*
X84130683Y-73613204D01*
X84116937Y-73752769D01*
X84062615Y-73931847D01*
X83974400Y-74096885D01*
X83855684Y-74241539D01*
X83711030Y-74360255D01*
X83545991Y-74448470D01*
X83456452Y-74475631D01*
X83366914Y-74502792D01*
X83180683Y-74521134D01*
X82994451Y-74502792D01*
X82904913Y-74475631D01*
X82815374Y-74448470D01*
X82650336Y-74360255D01*
X82505682Y-74241539D01*
X82386966Y-74096885D01*
X82298751Y-73931846D01*
X82256957Y-73794068D01*
X82244429Y-73752769D01*
X82230683Y-73613202D01*
X82230683Y-73269873D01*
X82244429Y-73130306D01*
X82298751Y-72951230D01*
X82298751Y-72951229D01*
X82342858Y-72868712D01*
X82386965Y-72786193D01*
X82505682Y-72641537D01*
X82566727Y-72591439D01*
X82650337Y-72522821D01*
X82815375Y-72434606D01*
X82933525Y-72398766D01*
X82994452Y-72380284D01*
X83180683Y-72361942D01*
X83366915Y-72380284D01*
X83366915Y-72380284D01*
G37*
G36*
X91476684Y-72370804D02*
X91512436Y-72381649D01*
X91545381Y-72399259D01*
X91574261Y-72422960D01*
X91597962Y-72451840D01*
X91615572Y-72484785D01*
X91626417Y-72520537D01*
X91630683Y-72563854D01*
X91630683Y-74319222D01*
X91626417Y-74362539D01*
X91615572Y-74398291D01*
X91597962Y-74431236D01*
X91574261Y-74460116D01*
X91545381Y-74483817D01*
X91512436Y-74501427D01*
X91476684Y-74512272D01*
X91433367Y-74516538D01*
X89927999Y-74516538D01*
X89884682Y-74512272D01*
X89848930Y-74501427D01*
X89815985Y-74483817D01*
X89787105Y-74460116D01*
X89763404Y-74431236D01*
X89745794Y-74398291D01*
X89734949Y-74362539D01*
X89730683Y-74319222D01*
X89730683Y-72563854D01*
X89734949Y-72520537D01*
X89745794Y-72484785D01*
X89763404Y-72451840D01*
X89787105Y-72422960D01*
X89815985Y-72399259D01*
X89848930Y-72381649D01*
X89884682Y-72370804D01*
X89927999Y-72366538D01*
X91433367Y-72366538D01*
X91476684Y-72370804D01*
X91476684Y-72370804D01*
G37*
G36*
X141156232Y-71199746D02*
X141245770Y-71226907D01*
X141335309Y-71254068D01*
X141500347Y-71342283D01*
X141645001Y-71460999D01*
X141763717Y-71605653D01*
X141851932Y-71770691D01*
X141906254Y-71949769D01*
X141924596Y-72136000D01*
X141906254Y-72322231D01*
X141851932Y-72501309D01*
X141763717Y-72666347D01*
X141645001Y-72811001D01*
X141500347Y-72929717D01*
X141335309Y-73017932D01*
X141245770Y-73045093D01*
X141156232Y-73072254D01*
X141086448Y-73079127D01*
X141016666Y-73086000D01*
X140923334Y-73086000D01*
X140853552Y-73079127D01*
X140783768Y-73072254D01*
X140694230Y-73045093D01*
X140604691Y-73017932D01*
X140439653Y-72929717D01*
X140294999Y-72811001D01*
X140176283Y-72666347D01*
X140088068Y-72501309D01*
X140033746Y-72322231D01*
X140015404Y-72136000D01*
X140033746Y-71949769D01*
X140088068Y-71770691D01*
X140176283Y-71605653D01*
X140294999Y-71460999D01*
X140439653Y-71342283D01*
X140604691Y-71254068D01*
X140694230Y-71226907D01*
X140783768Y-71199746D01*
X140923334Y-71186000D01*
X141016666Y-71186000D01*
X141156232Y-71199746D01*
X141156232Y-71199746D01*
G37*
G36*
X127084400Y-71993800D02*
X125584400Y-71993800D01*
X125584400Y-70093800D01*
X127084400Y-70093800D01*
X127084400Y-71993800D01*
X127084400Y-71993800D01*
G37*
G36*
X123584400Y-71993800D02*
X122084400Y-71993800D01*
X122084400Y-70093800D01*
X123584400Y-70093800D01*
X123584400Y-71993800D01*
X123584400Y-71993800D01*
G37*
G36*
X96665600Y-70698400D02*
X95165600Y-70698400D01*
X95165600Y-68798400D01*
X96665600Y-68798400D01*
X96665600Y-70698400D01*
X96665600Y-70698400D01*
G37*
G36*
X100165600Y-70698400D02*
X98665600Y-70698400D01*
X98665600Y-68798400D01*
X100165600Y-68798400D01*
X100165600Y-70698400D01*
X100165600Y-70698400D01*
G37*
G36*
X141156232Y-68659746D02*
X141245770Y-68686907D01*
X141335309Y-68714068D01*
X141500347Y-68802283D01*
X141645001Y-68920999D01*
X141763717Y-69065653D01*
X141851932Y-69230691D01*
X141875507Y-69308407D01*
X141904751Y-69404812D01*
X141906254Y-69409769D01*
X141924596Y-69596000D01*
X141906254Y-69782231D01*
X141851932Y-69961309D01*
X141763717Y-70126347D01*
X141645001Y-70271001D01*
X141500347Y-70389717D01*
X141335309Y-70477932D01*
X141245770Y-70505093D01*
X141156232Y-70532254D01*
X141086448Y-70539127D01*
X141016666Y-70546000D01*
X140923334Y-70546000D01*
X140853552Y-70539127D01*
X140783768Y-70532254D01*
X140694230Y-70505093D01*
X140604691Y-70477932D01*
X140439653Y-70389717D01*
X140294999Y-70271001D01*
X140176283Y-70126347D01*
X140088068Y-69961309D01*
X140033746Y-69782231D01*
X140015404Y-69596000D01*
X140033746Y-69409769D01*
X140035250Y-69404812D01*
X140064493Y-69308407D01*
X140088068Y-69230691D01*
X140176283Y-69065653D01*
X140294999Y-68920999D01*
X140439653Y-68802283D01*
X140604691Y-68714068D01*
X140694230Y-68686907D01*
X140783768Y-68659746D01*
X140923334Y-68646000D01*
X141016666Y-68646000D01*
X141156232Y-68659746D01*
X141156232Y-68659746D01*
G37*
G36*
X117424779Y-69229116D02*
X117466870Y-69241885D01*
X117505666Y-69262622D01*
X117539671Y-69290529D01*
X117567578Y-69324534D01*
X117588315Y-69363330D01*
X117601084Y-69405421D01*
X117606000Y-69455340D01*
X117606000Y-70143060D01*
X117601084Y-70192979D01*
X117588315Y-70235070D01*
X117567578Y-70273866D01*
X117539671Y-70307871D01*
X117505666Y-70335778D01*
X117466870Y-70356515D01*
X117424779Y-70369284D01*
X117374860Y-70374200D01*
X116587140Y-70374200D01*
X116537221Y-70369284D01*
X116495130Y-70356515D01*
X116456334Y-70335778D01*
X116422329Y-70307871D01*
X116394422Y-70273866D01*
X116373685Y-70235070D01*
X116360916Y-70192979D01*
X116356000Y-70143060D01*
X116356000Y-69455340D01*
X116360916Y-69405421D01*
X116373685Y-69363330D01*
X116394422Y-69324534D01*
X116422329Y-69290529D01*
X116456334Y-69262622D01*
X116495130Y-69241885D01*
X116537221Y-69229116D01*
X116587140Y-69224200D01*
X117374860Y-69224200D01*
X117424779Y-69229116D01*
X117424779Y-69229116D01*
G37*
G36*
X119174779Y-69229116D02*
X119216870Y-69241885D01*
X119255666Y-69262622D01*
X119289671Y-69290529D01*
X119317578Y-69324534D01*
X119338315Y-69363330D01*
X119351084Y-69405421D01*
X119356000Y-69455340D01*
X119356000Y-70143060D01*
X119351084Y-70192979D01*
X119338315Y-70235070D01*
X119317578Y-70273866D01*
X119289671Y-70307871D01*
X119255666Y-70335778D01*
X119216870Y-70356515D01*
X119174779Y-70369284D01*
X119124860Y-70374200D01*
X118337140Y-70374200D01*
X118287221Y-70369284D01*
X118245130Y-70356515D01*
X118206334Y-70335778D01*
X118172329Y-70307871D01*
X118144422Y-70273866D01*
X118123685Y-70235070D01*
X118110916Y-70192979D01*
X118106000Y-70143060D01*
X118106000Y-69455340D01*
X118110916Y-69405421D01*
X118123685Y-69363330D01*
X118144422Y-69324534D01*
X118172329Y-69290529D01*
X118206334Y-69262622D01*
X118245130Y-69241885D01*
X118287221Y-69229116D01*
X118337140Y-69224200D01*
X119124860Y-69224200D01*
X119174779Y-69229116D01*
X119174779Y-69229116D01*
G37*
G36*
X102528979Y-69178316D02*
X102571070Y-69191085D01*
X102609866Y-69211822D01*
X102643871Y-69239729D01*
X102671778Y-69273734D01*
X102692515Y-69312530D01*
X102705284Y-69354621D01*
X102710200Y-69404540D01*
X102710200Y-70092260D01*
X102705284Y-70142179D01*
X102692515Y-70184270D01*
X102671778Y-70223066D01*
X102643871Y-70257071D01*
X102609866Y-70284978D01*
X102571070Y-70305715D01*
X102528979Y-70318484D01*
X102479060Y-70323400D01*
X101691340Y-70323400D01*
X101641421Y-70318484D01*
X101599330Y-70305715D01*
X101560534Y-70284978D01*
X101526529Y-70257071D01*
X101498622Y-70223066D01*
X101477885Y-70184270D01*
X101465116Y-70142179D01*
X101460200Y-70092260D01*
X101460200Y-69404540D01*
X101465116Y-69354621D01*
X101477885Y-69312530D01*
X101498622Y-69273734D01*
X101526529Y-69239729D01*
X101560534Y-69211822D01*
X101599330Y-69191085D01*
X101641421Y-69178316D01*
X101691340Y-69173400D01*
X102479060Y-69173400D01*
X102528979Y-69178316D01*
X102528979Y-69178316D01*
G37*
G36*
X104278979Y-69178316D02*
X104321070Y-69191085D01*
X104359866Y-69211822D01*
X104393871Y-69239729D01*
X104421778Y-69273734D01*
X104442515Y-69312530D01*
X104455284Y-69354621D01*
X104460200Y-69404540D01*
X104460200Y-70092260D01*
X104455284Y-70142179D01*
X104442515Y-70184270D01*
X104421778Y-70223066D01*
X104393871Y-70257071D01*
X104359866Y-70284978D01*
X104321070Y-70305715D01*
X104278979Y-70318484D01*
X104229060Y-70323400D01*
X103441340Y-70323400D01*
X103391421Y-70318484D01*
X103349330Y-70305715D01*
X103310534Y-70284978D01*
X103276529Y-70257071D01*
X103248622Y-70223066D01*
X103227885Y-70184270D01*
X103215116Y-70142179D01*
X103210200Y-70092260D01*
X103210200Y-69404540D01*
X103215116Y-69354621D01*
X103227885Y-69312530D01*
X103248622Y-69273734D01*
X103276529Y-69239729D01*
X103310534Y-69211822D01*
X103349330Y-69191085D01*
X103391421Y-69178316D01*
X103441340Y-69173400D01*
X104229060Y-69173400D01*
X104278979Y-69178316D01*
X104278979Y-69178316D01*
G37*
G36*
X107426232Y-64653746D02*
X107515770Y-64680907D01*
X107605309Y-64708068D01*
X107770347Y-64796283D01*
X107915001Y-64914999D01*
X108033717Y-65059653D01*
X108121932Y-65224691D01*
X108121932Y-65224692D01*
X108176254Y-65403768D01*
X108194596Y-65590000D01*
X108176254Y-65776232D01*
X108149093Y-65865770D01*
X108121932Y-65955309D01*
X108033717Y-66120347D01*
X107915001Y-66265001D01*
X107770347Y-66383717D01*
X107605309Y-66471932D01*
X107515770Y-66499093D01*
X107426232Y-66526254D01*
X107286666Y-66540000D01*
X107193334Y-66540000D01*
X107053768Y-66526254D01*
X106964230Y-66499093D01*
X106874691Y-66471932D01*
X106709653Y-66383717D01*
X106564999Y-66265001D01*
X106446283Y-66120347D01*
X106358068Y-65955309D01*
X106330907Y-65865770D01*
X106303746Y-65776232D01*
X106285404Y-65590000D01*
X106303746Y-65403768D01*
X106358068Y-65224692D01*
X106358068Y-65224691D01*
X106446283Y-65059653D01*
X106564999Y-64914999D01*
X106709653Y-64796283D01*
X106874691Y-64708068D01*
X106964230Y-64680907D01*
X107053768Y-64653746D01*
X107193334Y-64640000D01*
X107286666Y-64640000D01*
X107426232Y-64653746D01*
X107426232Y-64653746D01*
G37*
G36*
X87870000Y-66540000D02*
X85970000Y-66540000D01*
X85970000Y-64640000D01*
X87870000Y-64640000D01*
X87870000Y-66540000D01*
X87870000Y-66540000D01*
G37*
G36*
X104886232Y-64653746D02*
X104975770Y-64680907D01*
X105065309Y-64708068D01*
X105230347Y-64796283D01*
X105375001Y-64914999D01*
X105493717Y-65059653D01*
X105581932Y-65224691D01*
X105581932Y-65224692D01*
X105636254Y-65403768D01*
X105654596Y-65590000D01*
X105636254Y-65776232D01*
X105609093Y-65865770D01*
X105581932Y-65955309D01*
X105493717Y-66120347D01*
X105375001Y-66265001D01*
X105230347Y-66383717D01*
X105065309Y-66471932D01*
X104975770Y-66499093D01*
X104886232Y-66526254D01*
X104746666Y-66540000D01*
X104653334Y-66540000D01*
X104513768Y-66526254D01*
X104424230Y-66499093D01*
X104334691Y-66471932D01*
X104169653Y-66383717D01*
X104024999Y-66265001D01*
X103906283Y-66120347D01*
X103818068Y-65955309D01*
X103790907Y-65865770D01*
X103763746Y-65776232D01*
X103745404Y-65590000D01*
X103763746Y-65403768D01*
X103818068Y-65224692D01*
X103818068Y-65224691D01*
X103906283Y-65059653D01*
X104024999Y-64914999D01*
X104169653Y-64796283D01*
X104334691Y-64708068D01*
X104424230Y-64680907D01*
X104513768Y-64653746D01*
X104653334Y-64640000D01*
X104746666Y-64640000D01*
X104886232Y-64653746D01*
X104886232Y-64653746D01*
G37*
G36*
X120126232Y-64653746D02*
X120215770Y-64680907D01*
X120305309Y-64708068D01*
X120470347Y-64796283D01*
X120615001Y-64914999D01*
X120733717Y-65059653D01*
X120821932Y-65224691D01*
X120821932Y-65224692D01*
X120876254Y-65403768D01*
X120894596Y-65590000D01*
X120876254Y-65776232D01*
X120849093Y-65865770D01*
X120821932Y-65955309D01*
X120733717Y-66120347D01*
X120615001Y-66265001D01*
X120470347Y-66383717D01*
X120305309Y-66471932D01*
X120215770Y-66499093D01*
X120126232Y-66526254D01*
X119986666Y-66540000D01*
X119893334Y-66540000D01*
X119753768Y-66526254D01*
X119664230Y-66499093D01*
X119574691Y-66471932D01*
X119409653Y-66383717D01*
X119264999Y-66265001D01*
X119146283Y-66120347D01*
X119058068Y-65955309D01*
X119030907Y-65865770D01*
X119003746Y-65776232D01*
X118985404Y-65590000D01*
X119003746Y-65403768D01*
X119058068Y-65224692D01*
X119058068Y-65224691D01*
X119146283Y-65059653D01*
X119264999Y-64914999D01*
X119409653Y-64796283D01*
X119574691Y-64708068D01*
X119664230Y-64680907D01*
X119753768Y-64653746D01*
X119893334Y-64640000D01*
X119986666Y-64640000D01*
X120126232Y-64653746D01*
X120126232Y-64653746D01*
G37*
G36*
X102346232Y-64653746D02*
X102435770Y-64680907D01*
X102525309Y-64708068D01*
X102690347Y-64796283D01*
X102835001Y-64914999D01*
X102953717Y-65059653D01*
X103041932Y-65224691D01*
X103041932Y-65224692D01*
X103096254Y-65403768D01*
X103114596Y-65590000D01*
X103096254Y-65776232D01*
X103069093Y-65865770D01*
X103041932Y-65955309D01*
X102953717Y-66120347D01*
X102835001Y-66265001D01*
X102690347Y-66383717D01*
X102525309Y-66471932D01*
X102435770Y-66499093D01*
X102346232Y-66526254D01*
X102206666Y-66540000D01*
X102113334Y-66540000D01*
X101973768Y-66526254D01*
X101884230Y-66499093D01*
X101794691Y-66471932D01*
X101629653Y-66383717D01*
X101484999Y-66265001D01*
X101366283Y-66120347D01*
X101278068Y-65955309D01*
X101250907Y-65865770D01*
X101223746Y-65776232D01*
X101205404Y-65590000D01*
X101223746Y-65403768D01*
X101278068Y-65224692D01*
X101278068Y-65224691D01*
X101366283Y-65059653D01*
X101484999Y-64914999D01*
X101629653Y-64796283D01*
X101794691Y-64708068D01*
X101884230Y-64680907D01*
X101973768Y-64653746D01*
X102113334Y-64640000D01*
X102206666Y-64640000D01*
X102346232Y-64653746D01*
X102346232Y-64653746D01*
G37*
G36*
X89646232Y-64653746D02*
X89735770Y-64680907D01*
X89825309Y-64708068D01*
X89990347Y-64796283D01*
X90135001Y-64914999D01*
X90253717Y-65059653D01*
X90341932Y-65224691D01*
X90341932Y-65224692D01*
X90396254Y-65403768D01*
X90414596Y-65590000D01*
X90396254Y-65776232D01*
X90369093Y-65865770D01*
X90341932Y-65955309D01*
X90253717Y-66120347D01*
X90135001Y-66265001D01*
X89990347Y-66383717D01*
X89825309Y-66471932D01*
X89735770Y-66499093D01*
X89646232Y-66526254D01*
X89506666Y-66540000D01*
X89413334Y-66540000D01*
X89273768Y-66526254D01*
X89184230Y-66499093D01*
X89094691Y-66471932D01*
X88929653Y-66383717D01*
X88784999Y-66265001D01*
X88666283Y-66120347D01*
X88578068Y-65955309D01*
X88550907Y-65865770D01*
X88523746Y-65776232D01*
X88505404Y-65590000D01*
X88523746Y-65403768D01*
X88578068Y-65224692D01*
X88578068Y-65224691D01*
X88666283Y-65059653D01*
X88784999Y-64914999D01*
X88929653Y-64796283D01*
X89094691Y-64708068D01*
X89184230Y-64680907D01*
X89273768Y-64653746D01*
X89413334Y-64640000D01*
X89506666Y-64640000D01*
X89646232Y-64653746D01*
X89646232Y-64653746D01*
G37*
G36*
X99806232Y-64653746D02*
X99895770Y-64680907D01*
X99985309Y-64708068D01*
X100150347Y-64796283D01*
X100295001Y-64914999D01*
X100413717Y-65059653D01*
X100501932Y-65224691D01*
X100501932Y-65224692D01*
X100556254Y-65403768D01*
X100574596Y-65590000D01*
X100556254Y-65776232D01*
X100529093Y-65865770D01*
X100501932Y-65955309D01*
X100413717Y-66120347D01*
X100295001Y-66265001D01*
X100150347Y-66383717D01*
X99985309Y-66471932D01*
X99895770Y-66499093D01*
X99806232Y-66526254D01*
X99666666Y-66540000D01*
X99573334Y-66540000D01*
X99433768Y-66526254D01*
X99344230Y-66499093D01*
X99254691Y-66471932D01*
X99089653Y-66383717D01*
X98944999Y-66265001D01*
X98826283Y-66120347D01*
X98738068Y-65955309D01*
X98710907Y-65865770D01*
X98683746Y-65776232D01*
X98665404Y-65590000D01*
X98683746Y-65403768D01*
X98738068Y-65224692D01*
X98738068Y-65224691D01*
X98826283Y-65059653D01*
X98944999Y-64914999D01*
X99089653Y-64796283D01*
X99254691Y-64708068D01*
X99344230Y-64680907D01*
X99433768Y-64653746D01*
X99573334Y-64640000D01*
X99666666Y-64640000D01*
X99806232Y-64653746D01*
X99806232Y-64653746D01*
G37*
G36*
X97266232Y-64653746D02*
X97355770Y-64680907D01*
X97445309Y-64708068D01*
X97610347Y-64796283D01*
X97755001Y-64914999D01*
X97873717Y-65059653D01*
X97961932Y-65224691D01*
X97961932Y-65224692D01*
X98016254Y-65403768D01*
X98034596Y-65590000D01*
X98016254Y-65776232D01*
X97989093Y-65865770D01*
X97961932Y-65955309D01*
X97873717Y-66120347D01*
X97755001Y-66265001D01*
X97610347Y-66383717D01*
X97445309Y-66471932D01*
X97355770Y-66499093D01*
X97266232Y-66526254D01*
X97126666Y-66540000D01*
X97033334Y-66540000D01*
X96893768Y-66526254D01*
X96804230Y-66499093D01*
X96714691Y-66471932D01*
X96549653Y-66383717D01*
X96404999Y-66265001D01*
X96286283Y-66120347D01*
X96198068Y-65955309D01*
X96170907Y-65865770D01*
X96143746Y-65776232D01*
X96125404Y-65590000D01*
X96143746Y-65403768D01*
X96198068Y-65224692D01*
X96198068Y-65224691D01*
X96286283Y-65059653D01*
X96404999Y-64914999D01*
X96549653Y-64796283D01*
X96714691Y-64708068D01*
X96804230Y-64680907D01*
X96893768Y-64653746D01*
X97033334Y-64640000D01*
X97126666Y-64640000D01*
X97266232Y-64653746D01*
X97266232Y-64653746D01*
G37*
G36*
X92186232Y-64653746D02*
X92275770Y-64680907D01*
X92365309Y-64708068D01*
X92530347Y-64796283D01*
X92675001Y-64914999D01*
X92793717Y-65059653D01*
X92881932Y-65224691D01*
X92881932Y-65224692D01*
X92936254Y-65403768D01*
X92954596Y-65590000D01*
X92936254Y-65776232D01*
X92909093Y-65865770D01*
X92881932Y-65955309D01*
X92793717Y-66120347D01*
X92675001Y-66265001D01*
X92530347Y-66383717D01*
X92365309Y-66471932D01*
X92275770Y-66499093D01*
X92186232Y-66526254D01*
X92046666Y-66540000D01*
X91953334Y-66540000D01*
X91813768Y-66526254D01*
X91724230Y-66499093D01*
X91634691Y-66471932D01*
X91469653Y-66383717D01*
X91324999Y-66265001D01*
X91206283Y-66120347D01*
X91118068Y-65955309D01*
X91090907Y-65865770D01*
X91063746Y-65776232D01*
X91045404Y-65590000D01*
X91063746Y-65403768D01*
X91118068Y-65224692D01*
X91118068Y-65224691D01*
X91206283Y-65059653D01*
X91324999Y-64914999D01*
X91469653Y-64796283D01*
X91634691Y-64708068D01*
X91724230Y-64680907D01*
X91813768Y-64653746D01*
X91953334Y-64640000D01*
X92046666Y-64640000D01*
X92186232Y-64653746D01*
X92186232Y-64653746D01*
G37*
G36*
X94726232Y-64653746D02*
X94815770Y-64680907D01*
X94905309Y-64708068D01*
X95070347Y-64796283D01*
X95215001Y-64914999D01*
X95333717Y-65059653D01*
X95421932Y-65224691D01*
X95421932Y-65224692D01*
X95476254Y-65403768D01*
X95494596Y-65590000D01*
X95476254Y-65776232D01*
X95449093Y-65865770D01*
X95421932Y-65955309D01*
X95333717Y-66120347D01*
X95215001Y-66265001D01*
X95070347Y-66383717D01*
X94905309Y-66471932D01*
X94815770Y-66499093D01*
X94726232Y-66526254D01*
X94586666Y-66540000D01*
X94493334Y-66540000D01*
X94353768Y-66526254D01*
X94264230Y-66499093D01*
X94174691Y-66471932D01*
X94009653Y-66383717D01*
X93864999Y-66265001D01*
X93746283Y-66120347D01*
X93658068Y-65955309D01*
X93630907Y-65865770D01*
X93603746Y-65776232D01*
X93585404Y-65590000D01*
X93603746Y-65403768D01*
X93658068Y-65224692D01*
X93658068Y-65224691D01*
X93746283Y-65059653D01*
X93864999Y-64914999D01*
X94009653Y-64796283D01*
X94174691Y-64708068D01*
X94264230Y-64680907D01*
X94353768Y-64653746D01*
X94493334Y-64640000D01*
X94586666Y-64640000D01*
X94726232Y-64653746D01*
X94726232Y-64653746D01*
G37*
G36*
X112506232Y-64653746D02*
X112595770Y-64680907D01*
X112685309Y-64708068D01*
X112850347Y-64796283D01*
X112995001Y-64914999D01*
X113113717Y-65059653D01*
X113201932Y-65224691D01*
X113201932Y-65224692D01*
X113256254Y-65403768D01*
X113274596Y-65590000D01*
X113256254Y-65776232D01*
X113229093Y-65865770D01*
X113201932Y-65955309D01*
X113113717Y-66120347D01*
X112995001Y-66265001D01*
X112850347Y-66383717D01*
X112685309Y-66471932D01*
X112595770Y-66499093D01*
X112506232Y-66526254D01*
X112366666Y-66540000D01*
X112273334Y-66540000D01*
X112133768Y-66526254D01*
X112044230Y-66499093D01*
X111954691Y-66471932D01*
X111789653Y-66383717D01*
X111644999Y-66265001D01*
X111526283Y-66120347D01*
X111438068Y-65955309D01*
X111410907Y-65865770D01*
X111383746Y-65776232D01*
X111365404Y-65590000D01*
X111383746Y-65403768D01*
X111438068Y-65224692D01*
X111438068Y-65224691D01*
X111526283Y-65059653D01*
X111644999Y-64914999D01*
X111789653Y-64796283D01*
X111954691Y-64708068D01*
X112044230Y-64680907D01*
X112133768Y-64653746D01*
X112273334Y-64640000D01*
X112366666Y-64640000D01*
X112506232Y-64653746D01*
X112506232Y-64653746D01*
G37*
G36*
X115046232Y-64653746D02*
X115135770Y-64680907D01*
X115225309Y-64708068D01*
X115390347Y-64796283D01*
X115535001Y-64914999D01*
X115653717Y-65059653D01*
X115741932Y-65224691D01*
X115741932Y-65224692D01*
X115796254Y-65403768D01*
X115814596Y-65590000D01*
X115796254Y-65776232D01*
X115769093Y-65865770D01*
X115741932Y-65955309D01*
X115653717Y-66120347D01*
X115535001Y-66265001D01*
X115390347Y-66383717D01*
X115225309Y-66471932D01*
X115135770Y-66499093D01*
X115046232Y-66526254D01*
X114906666Y-66540000D01*
X114813334Y-66540000D01*
X114673768Y-66526254D01*
X114584230Y-66499093D01*
X114494691Y-66471932D01*
X114329653Y-66383717D01*
X114184999Y-66265001D01*
X114066283Y-66120347D01*
X113978068Y-65955309D01*
X113950907Y-65865770D01*
X113923746Y-65776232D01*
X113905404Y-65590000D01*
X113923746Y-65403768D01*
X113978068Y-65224692D01*
X113978068Y-65224691D01*
X114066283Y-65059653D01*
X114184999Y-64914999D01*
X114329653Y-64796283D01*
X114494691Y-64708068D01*
X114584230Y-64680907D01*
X114673768Y-64653746D01*
X114813334Y-64640000D01*
X114906666Y-64640000D01*
X115046232Y-64653746D01*
X115046232Y-64653746D01*
G37*
G36*
X117586232Y-64653746D02*
X117675770Y-64680907D01*
X117765309Y-64708068D01*
X117930347Y-64796283D01*
X118075001Y-64914999D01*
X118193717Y-65059653D01*
X118281932Y-65224691D01*
X118281932Y-65224692D01*
X118336254Y-65403768D01*
X118354596Y-65590000D01*
X118336254Y-65776232D01*
X118309093Y-65865770D01*
X118281932Y-65955309D01*
X118193717Y-66120347D01*
X118075001Y-66265001D01*
X117930347Y-66383717D01*
X117765309Y-66471932D01*
X117675770Y-66499093D01*
X117586232Y-66526254D01*
X117446666Y-66540000D01*
X117353334Y-66540000D01*
X117213768Y-66526254D01*
X117124230Y-66499093D01*
X117034691Y-66471932D01*
X116869653Y-66383717D01*
X116724999Y-66265001D01*
X116606283Y-66120347D01*
X116518068Y-65955309D01*
X116490907Y-65865770D01*
X116463746Y-65776232D01*
X116445404Y-65590000D01*
X116463746Y-65403768D01*
X116518068Y-65224692D01*
X116518068Y-65224691D01*
X116606283Y-65059653D01*
X116724999Y-64914999D01*
X116869653Y-64796283D01*
X117034691Y-64708068D01*
X117124230Y-64680907D01*
X117213768Y-64653746D01*
X117353334Y-64640000D01*
X117446666Y-64640000D01*
X117586232Y-64653746D01*
X117586232Y-64653746D01*
G37*
G36*
X122666232Y-64653746D02*
X122755770Y-64680907D01*
X122845309Y-64708068D01*
X123010347Y-64796283D01*
X123155001Y-64914999D01*
X123273717Y-65059653D01*
X123361932Y-65224691D01*
X123361932Y-65224692D01*
X123416254Y-65403768D01*
X123434596Y-65590000D01*
X123416254Y-65776232D01*
X123389093Y-65865770D01*
X123361932Y-65955309D01*
X123273717Y-66120347D01*
X123155001Y-66265001D01*
X123010347Y-66383717D01*
X122845309Y-66471932D01*
X122755770Y-66499093D01*
X122666232Y-66526254D01*
X122526666Y-66540000D01*
X122433334Y-66540000D01*
X122293768Y-66526254D01*
X122204230Y-66499093D01*
X122114691Y-66471932D01*
X121949653Y-66383717D01*
X121804999Y-66265001D01*
X121686283Y-66120347D01*
X121598068Y-65955309D01*
X121570907Y-65865770D01*
X121543746Y-65776232D01*
X121525404Y-65590000D01*
X121543746Y-65403768D01*
X121598068Y-65224692D01*
X121598068Y-65224691D01*
X121686283Y-65059653D01*
X121804999Y-64914999D01*
X121949653Y-64796283D01*
X122114691Y-64708068D01*
X122204230Y-64680907D01*
X122293768Y-64653746D01*
X122433334Y-64640000D01*
X122526666Y-64640000D01*
X122666232Y-64653746D01*
X122666232Y-64653746D01*
G37*
G36*
X125206232Y-64653746D02*
X125295770Y-64680907D01*
X125385309Y-64708068D01*
X125550347Y-64796283D01*
X125695001Y-64914999D01*
X125813717Y-65059653D01*
X125901932Y-65224691D01*
X125901932Y-65224692D01*
X125956254Y-65403768D01*
X125974596Y-65590000D01*
X125956254Y-65776232D01*
X125929093Y-65865770D01*
X125901932Y-65955309D01*
X125813717Y-66120347D01*
X125695001Y-66265001D01*
X125550347Y-66383717D01*
X125385309Y-66471932D01*
X125295770Y-66499093D01*
X125206232Y-66526254D01*
X125066666Y-66540000D01*
X124973334Y-66540000D01*
X124833768Y-66526254D01*
X124744230Y-66499093D01*
X124654691Y-66471932D01*
X124489653Y-66383717D01*
X124344999Y-66265001D01*
X124226283Y-66120347D01*
X124138068Y-65955309D01*
X124110907Y-65865770D01*
X124083746Y-65776232D01*
X124065404Y-65590000D01*
X124083746Y-65403768D01*
X124138068Y-65224692D01*
X124138068Y-65224691D01*
X124226283Y-65059653D01*
X124344999Y-64914999D01*
X124489653Y-64796283D01*
X124654691Y-64708068D01*
X124744230Y-64680907D01*
X124833768Y-64653746D01*
X124973334Y-64640000D01*
X125066666Y-64640000D01*
X125206232Y-64653746D01*
X125206232Y-64653746D01*
G37*
G36*
X127746232Y-64653746D02*
X127835770Y-64680907D01*
X127925309Y-64708068D01*
X128090347Y-64796283D01*
X128235001Y-64914999D01*
X128353717Y-65059653D01*
X128441932Y-65224691D01*
X128441932Y-65224692D01*
X128496254Y-65403768D01*
X128514596Y-65590000D01*
X128496254Y-65776232D01*
X128469093Y-65865770D01*
X128441932Y-65955309D01*
X128353717Y-66120347D01*
X128235001Y-66265001D01*
X128090347Y-66383717D01*
X127925309Y-66471932D01*
X127835770Y-66499093D01*
X127746232Y-66526254D01*
X127606666Y-66540000D01*
X127513334Y-66540000D01*
X127373768Y-66526254D01*
X127284230Y-66499093D01*
X127194691Y-66471932D01*
X127029653Y-66383717D01*
X126884999Y-66265001D01*
X126766283Y-66120347D01*
X126678068Y-65955309D01*
X126650907Y-65865770D01*
X126623746Y-65776232D01*
X126605404Y-65590000D01*
X126623746Y-65403768D01*
X126678068Y-65224692D01*
X126678068Y-65224691D01*
X126766283Y-65059653D01*
X126884999Y-64914999D01*
X127029653Y-64796283D01*
X127194691Y-64708068D01*
X127284230Y-64680907D01*
X127373768Y-64653746D01*
X127513334Y-64640000D01*
X127606666Y-64640000D01*
X127746232Y-64653746D01*
X127746232Y-64653746D01*
G37*
G36*
X130286232Y-64653746D02*
X130375770Y-64680907D01*
X130465309Y-64708068D01*
X130630347Y-64796283D01*
X130775001Y-64914999D01*
X130893717Y-65059653D01*
X130981932Y-65224691D01*
X130981932Y-65224692D01*
X131036254Y-65403768D01*
X131054596Y-65590000D01*
X131036254Y-65776232D01*
X131009093Y-65865770D01*
X130981932Y-65955309D01*
X130893717Y-66120347D01*
X130775001Y-66265001D01*
X130630347Y-66383717D01*
X130465309Y-66471932D01*
X130375770Y-66499093D01*
X130286232Y-66526254D01*
X130146666Y-66540000D01*
X130053334Y-66540000D01*
X129913768Y-66526254D01*
X129824230Y-66499093D01*
X129734691Y-66471932D01*
X129569653Y-66383717D01*
X129424999Y-66265001D01*
X129306283Y-66120347D01*
X129218068Y-65955309D01*
X129190907Y-65865770D01*
X129163746Y-65776232D01*
X129145404Y-65590000D01*
X129163746Y-65403768D01*
X129218068Y-65224692D01*
X129218068Y-65224691D01*
X129306283Y-65059653D01*
X129424999Y-64914999D01*
X129569653Y-64796283D01*
X129734691Y-64708068D01*
X129824230Y-64680907D01*
X129913768Y-64653746D01*
X130053334Y-64640000D01*
X130146666Y-64640000D01*
X130286232Y-64653746D01*
X130286232Y-64653746D01*
G37*
G36*
X135366232Y-64653746D02*
X135455770Y-64680907D01*
X135545309Y-64708068D01*
X135710347Y-64796283D01*
X135855001Y-64914999D01*
X135973717Y-65059653D01*
X136061932Y-65224691D01*
X136061932Y-65224692D01*
X136116254Y-65403768D01*
X136134596Y-65590000D01*
X136116254Y-65776232D01*
X136089093Y-65865770D01*
X136061932Y-65955309D01*
X135973717Y-66120347D01*
X135855001Y-66265001D01*
X135710347Y-66383717D01*
X135545309Y-66471932D01*
X135455770Y-66499093D01*
X135366232Y-66526254D01*
X135226666Y-66540000D01*
X135133334Y-66540000D01*
X134993768Y-66526254D01*
X134904230Y-66499093D01*
X134814691Y-66471932D01*
X134649653Y-66383717D01*
X134504999Y-66265001D01*
X134386283Y-66120347D01*
X134298068Y-65955309D01*
X134270907Y-65865770D01*
X134243746Y-65776232D01*
X134225404Y-65590000D01*
X134243746Y-65403768D01*
X134298068Y-65224692D01*
X134298068Y-65224691D01*
X134386283Y-65059653D01*
X134504999Y-64914999D01*
X134649653Y-64796283D01*
X134814691Y-64708068D01*
X134904230Y-64680907D01*
X134993768Y-64653746D01*
X135133334Y-64640000D01*
X135226666Y-64640000D01*
X135366232Y-64653746D01*
X135366232Y-64653746D01*
G37*
G36*
X109966232Y-64653746D02*
X110055770Y-64680907D01*
X110145309Y-64708068D01*
X110310347Y-64796283D01*
X110455001Y-64914999D01*
X110573717Y-65059653D01*
X110661932Y-65224691D01*
X110661932Y-65224692D01*
X110716254Y-65403768D01*
X110734596Y-65590000D01*
X110716254Y-65776232D01*
X110689093Y-65865770D01*
X110661932Y-65955309D01*
X110573717Y-66120347D01*
X110455001Y-66265001D01*
X110310347Y-66383717D01*
X110145309Y-66471932D01*
X110055770Y-66499093D01*
X109966232Y-66526254D01*
X109826666Y-66540000D01*
X109733334Y-66540000D01*
X109593768Y-66526254D01*
X109504230Y-66499093D01*
X109414691Y-66471932D01*
X109249653Y-66383717D01*
X109104999Y-66265001D01*
X108986283Y-66120347D01*
X108898068Y-65955309D01*
X108870907Y-65865770D01*
X108843746Y-65776232D01*
X108825404Y-65590000D01*
X108843746Y-65403768D01*
X108898068Y-65224692D01*
X108898068Y-65224691D01*
X108986283Y-65059653D01*
X109104999Y-64914999D01*
X109249653Y-64796283D01*
X109414691Y-64708068D01*
X109504230Y-64680907D01*
X109593768Y-64653746D01*
X109733334Y-64640000D01*
X109826666Y-64640000D01*
X109966232Y-64653746D01*
X109966232Y-64653746D01*
G37*
G36*
X132826232Y-64653746D02*
X132915770Y-64680907D01*
X133005309Y-64708068D01*
X133170347Y-64796283D01*
X133315001Y-64914999D01*
X133433717Y-65059653D01*
X133521932Y-65224691D01*
X133521932Y-65224692D01*
X133576254Y-65403768D01*
X133594596Y-65590000D01*
X133576254Y-65776232D01*
X133549093Y-65865770D01*
X133521932Y-65955309D01*
X133433717Y-66120347D01*
X133315001Y-66265001D01*
X133170347Y-66383717D01*
X133005309Y-66471932D01*
X132915770Y-66499093D01*
X132826232Y-66526254D01*
X132686666Y-66540000D01*
X132593334Y-66540000D01*
X132453768Y-66526254D01*
X132364230Y-66499093D01*
X132274691Y-66471932D01*
X132109653Y-66383717D01*
X131964999Y-66265001D01*
X131846283Y-66120347D01*
X131758068Y-65955309D01*
X131730907Y-65865770D01*
X131703746Y-65776232D01*
X131685404Y-65590000D01*
X131703746Y-65403768D01*
X131758068Y-65224692D01*
X131758068Y-65224691D01*
X131846283Y-65059653D01*
X131964999Y-64914999D01*
X132109653Y-64796283D01*
X132274691Y-64708068D01*
X132364230Y-64680907D01*
X132453768Y-64653746D01*
X132593334Y-64640000D01*
X132686666Y-64640000D01*
X132826232Y-64653746D01*
X132826232Y-64653746D01*
G37*
G36*
X140506703Y-62791486D02*
X140797883Y-62912097D01*
X141059944Y-63087201D01*
X141282799Y-63310056D01*
X141457903Y-63572117D01*
X141578514Y-63863297D01*
X141640000Y-64172412D01*
X141640000Y-64487588D01*
X141578514Y-64796703D01*
X141457903Y-65087883D01*
X141282799Y-65349944D01*
X141059944Y-65572799D01*
X140797883Y-65747903D01*
X140506703Y-65868514D01*
X140197588Y-65930000D01*
X139882412Y-65930000D01*
X139573297Y-65868514D01*
X139282117Y-65747903D01*
X139020056Y-65572799D01*
X138797201Y-65349944D01*
X138622097Y-65087883D01*
X138501486Y-64796703D01*
X138440000Y-64487588D01*
X138440000Y-64172412D01*
X138501486Y-63863297D01*
X138622097Y-63572117D01*
X138797201Y-63310056D01*
X139020056Y-63087201D01*
X139282117Y-62912097D01*
X139573297Y-62791486D01*
X139882412Y-62730000D01*
X140197588Y-62730000D01*
X140506703Y-62791486D01*
X140506703Y-62791486D01*
G37*
G36*
X82506703Y-62771486D02*
X82797883Y-62892097D01*
X83059944Y-63067201D01*
X83282799Y-63290056D01*
X83457903Y-63552117D01*
X83578514Y-63843297D01*
X83640000Y-64152412D01*
X83640000Y-64467588D01*
X83578514Y-64776703D01*
X83457903Y-65067883D01*
X83282799Y-65329944D01*
X83059944Y-65552799D01*
X82797883Y-65727903D01*
X82506703Y-65848514D01*
X82197588Y-65910000D01*
X81882412Y-65910000D01*
X81573297Y-65848514D01*
X81282117Y-65727903D01*
X81020056Y-65552799D01*
X80797201Y-65329944D01*
X80622097Y-65067883D01*
X80501486Y-64776703D01*
X80440000Y-64467588D01*
X80440000Y-64152412D01*
X80501486Y-63843297D01*
X80622097Y-63552117D01*
X80797201Y-63290056D01*
X81020056Y-63067201D01*
X81282117Y-62892097D01*
X81573297Y-62771486D01*
X81882412Y-62710000D01*
X82197588Y-62710000D01*
X82506703Y-62771486D01*
X82506703Y-62771486D01*
G37*
G36*
X127746232Y-62113746D02*
X127835770Y-62140907D01*
X127925309Y-62168068D01*
X128090347Y-62256283D01*
X128235001Y-62374999D01*
X128353717Y-62519653D01*
X128441932Y-62684691D01*
X128441932Y-62684692D01*
X128474328Y-62791486D01*
X128496254Y-62863769D01*
X128514596Y-63050000D01*
X128496254Y-63236231D01*
X128441932Y-63415309D01*
X128353717Y-63580347D01*
X128235001Y-63725001D01*
X128090347Y-63843717D01*
X127925309Y-63931932D01*
X127835770Y-63959093D01*
X127746232Y-63986254D01*
X127606666Y-64000000D01*
X127513334Y-64000000D01*
X127373768Y-63986254D01*
X127284230Y-63959093D01*
X127194691Y-63931932D01*
X127029653Y-63843717D01*
X126884999Y-63725001D01*
X126766283Y-63580347D01*
X126678068Y-63415309D01*
X126623746Y-63236231D01*
X126605404Y-63050000D01*
X126623746Y-62863769D01*
X126645673Y-62791486D01*
X126678068Y-62684692D01*
X126678068Y-62684691D01*
X126766283Y-62519653D01*
X126884999Y-62374999D01*
X127029653Y-62256283D01*
X127194691Y-62168068D01*
X127284230Y-62140907D01*
X127373768Y-62113746D01*
X127513334Y-62100000D01*
X127606666Y-62100000D01*
X127746232Y-62113746D01*
X127746232Y-62113746D01*
G37*
G36*
X130286232Y-62113746D02*
X130375770Y-62140907D01*
X130465309Y-62168068D01*
X130630347Y-62256283D01*
X130775001Y-62374999D01*
X130893717Y-62519653D01*
X130981932Y-62684691D01*
X130981932Y-62684692D01*
X131014328Y-62791486D01*
X131036254Y-62863769D01*
X131054596Y-63050000D01*
X131036254Y-63236231D01*
X130981932Y-63415309D01*
X130893717Y-63580347D01*
X130775001Y-63725001D01*
X130630347Y-63843717D01*
X130465309Y-63931932D01*
X130375770Y-63959093D01*
X130286232Y-63986254D01*
X130146666Y-64000000D01*
X130053334Y-64000000D01*
X129913768Y-63986254D01*
X129824230Y-63959093D01*
X129734691Y-63931932D01*
X129569653Y-63843717D01*
X129424999Y-63725001D01*
X129306283Y-63580347D01*
X129218068Y-63415309D01*
X129163746Y-63236231D01*
X129145404Y-63050000D01*
X129163746Y-62863769D01*
X129185673Y-62791486D01*
X129218068Y-62684692D01*
X129218068Y-62684691D01*
X129306283Y-62519653D01*
X129424999Y-62374999D01*
X129569653Y-62256283D01*
X129734691Y-62168068D01*
X129824230Y-62140907D01*
X129913768Y-62113746D01*
X130053334Y-62100000D01*
X130146666Y-62100000D01*
X130286232Y-62113746D01*
X130286232Y-62113746D01*
G37*
G36*
X132826232Y-62113746D02*
X132915770Y-62140907D01*
X133005309Y-62168068D01*
X133170347Y-62256283D01*
X133315001Y-62374999D01*
X133433717Y-62519653D01*
X133521932Y-62684691D01*
X133521932Y-62684692D01*
X133554328Y-62791486D01*
X133576254Y-62863769D01*
X133594596Y-63050000D01*
X133576254Y-63236231D01*
X133521932Y-63415309D01*
X133433717Y-63580347D01*
X133315001Y-63725001D01*
X133170347Y-63843717D01*
X133005309Y-63931932D01*
X132915770Y-63959093D01*
X132826232Y-63986254D01*
X132686666Y-64000000D01*
X132593334Y-64000000D01*
X132453768Y-63986254D01*
X132364230Y-63959093D01*
X132274691Y-63931932D01*
X132109653Y-63843717D01*
X131964999Y-63725001D01*
X131846283Y-63580347D01*
X131758068Y-63415309D01*
X131703746Y-63236231D01*
X131685404Y-63050000D01*
X131703746Y-62863769D01*
X131725673Y-62791486D01*
X131758068Y-62684692D01*
X131758068Y-62684691D01*
X131846283Y-62519653D01*
X131964999Y-62374999D01*
X132109653Y-62256283D01*
X132274691Y-62168068D01*
X132364230Y-62140907D01*
X132453768Y-62113746D01*
X132593334Y-62100000D01*
X132686666Y-62100000D01*
X132826232Y-62113746D01*
X132826232Y-62113746D01*
G37*
G36*
X135366232Y-62113746D02*
X135455770Y-62140907D01*
X135545309Y-62168068D01*
X135710347Y-62256283D01*
X135855001Y-62374999D01*
X135973717Y-62519653D01*
X136061932Y-62684691D01*
X136061932Y-62684692D01*
X136094328Y-62791486D01*
X136116254Y-62863769D01*
X136134596Y-63050000D01*
X136116254Y-63236231D01*
X136061932Y-63415309D01*
X135973717Y-63580347D01*
X135855001Y-63725001D01*
X135710347Y-63843717D01*
X135545309Y-63931932D01*
X135455770Y-63959093D01*
X135366232Y-63986254D01*
X135226666Y-64000000D01*
X135133334Y-64000000D01*
X134993768Y-63986254D01*
X134904230Y-63959093D01*
X134814691Y-63931932D01*
X134649653Y-63843717D01*
X134504999Y-63725001D01*
X134386283Y-63580347D01*
X134298068Y-63415309D01*
X134243746Y-63236231D01*
X134225404Y-63050000D01*
X134243746Y-62863769D01*
X134265673Y-62791486D01*
X134298068Y-62684692D01*
X134298068Y-62684691D01*
X134386283Y-62519653D01*
X134504999Y-62374999D01*
X134649653Y-62256283D01*
X134814691Y-62168068D01*
X134904230Y-62140907D01*
X134993768Y-62113746D01*
X135133334Y-62100000D01*
X135226666Y-62100000D01*
X135366232Y-62113746D01*
X135366232Y-62113746D01*
G37*
G36*
X104886232Y-62113746D02*
X104975770Y-62140907D01*
X105065309Y-62168068D01*
X105230347Y-62256283D01*
X105375001Y-62374999D01*
X105493717Y-62519653D01*
X105581932Y-62684691D01*
X105581932Y-62684692D01*
X105614328Y-62791486D01*
X105636254Y-62863769D01*
X105654596Y-63050000D01*
X105636254Y-63236231D01*
X105581932Y-63415309D01*
X105493717Y-63580347D01*
X105375001Y-63725001D01*
X105230347Y-63843717D01*
X105065309Y-63931932D01*
X104975770Y-63959093D01*
X104886232Y-63986254D01*
X104746666Y-64000000D01*
X104653334Y-64000000D01*
X104513768Y-63986254D01*
X104424230Y-63959093D01*
X104334691Y-63931932D01*
X104169653Y-63843717D01*
X104024999Y-63725001D01*
X103906283Y-63580347D01*
X103818068Y-63415309D01*
X103763746Y-63236231D01*
X103745404Y-63050000D01*
X103763746Y-62863769D01*
X103785673Y-62791486D01*
X103818068Y-62684692D01*
X103818068Y-62684691D01*
X103906283Y-62519653D01*
X104024999Y-62374999D01*
X104169653Y-62256283D01*
X104334691Y-62168068D01*
X104424230Y-62140907D01*
X104513768Y-62113746D01*
X104653334Y-62100000D01*
X104746666Y-62100000D01*
X104886232Y-62113746D01*
X104886232Y-62113746D01*
G37*
G36*
X112506232Y-62113746D02*
X112595770Y-62140907D01*
X112685309Y-62168068D01*
X112850347Y-62256283D01*
X112995001Y-62374999D01*
X113113717Y-62519653D01*
X113201932Y-62684691D01*
X113201932Y-62684692D01*
X113234328Y-62791486D01*
X113256254Y-62863769D01*
X113274596Y-63050000D01*
X113256254Y-63236231D01*
X113201932Y-63415309D01*
X113113717Y-63580347D01*
X112995001Y-63725001D01*
X112850347Y-63843717D01*
X112685309Y-63931932D01*
X112595770Y-63959093D01*
X112506232Y-63986254D01*
X112366666Y-64000000D01*
X112273334Y-64000000D01*
X112133768Y-63986254D01*
X112044230Y-63959093D01*
X111954691Y-63931932D01*
X111789653Y-63843717D01*
X111644999Y-63725001D01*
X111526283Y-63580347D01*
X111438068Y-63415309D01*
X111383746Y-63236231D01*
X111365404Y-63050000D01*
X111383746Y-62863769D01*
X111405673Y-62791486D01*
X111438068Y-62684692D01*
X111438068Y-62684691D01*
X111526283Y-62519653D01*
X111644999Y-62374999D01*
X111789653Y-62256283D01*
X111954691Y-62168068D01*
X112044230Y-62140907D01*
X112133768Y-62113746D01*
X112273334Y-62100000D01*
X112366666Y-62100000D01*
X112506232Y-62113746D01*
X112506232Y-62113746D01*
G37*
G36*
X102346232Y-62113746D02*
X102435770Y-62140907D01*
X102525309Y-62168068D01*
X102690347Y-62256283D01*
X102835001Y-62374999D01*
X102953717Y-62519653D01*
X103041932Y-62684691D01*
X103041932Y-62684692D01*
X103074328Y-62791486D01*
X103096254Y-62863769D01*
X103114596Y-63050000D01*
X103096254Y-63236231D01*
X103041932Y-63415309D01*
X102953717Y-63580347D01*
X102835001Y-63725001D01*
X102690347Y-63843717D01*
X102525309Y-63931932D01*
X102435770Y-63959093D01*
X102346232Y-63986254D01*
X102206666Y-64000000D01*
X102113334Y-64000000D01*
X101973768Y-63986254D01*
X101884230Y-63959093D01*
X101794691Y-63931932D01*
X101629653Y-63843717D01*
X101484999Y-63725001D01*
X101366283Y-63580347D01*
X101278068Y-63415309D01*
X101223746Y-63236231D01*
X101205404Y-63050000D01*
X101223746Y-62863769D01*
X101245673Y-62791486D01*
X101278068Y-62684692D01*
X101278068Y-62684691D01*
X101366283Y-62519653D01*
X101484999Y-62374999D01*
X101629653Y-62256283D01*
X101794691Y-62168068D01*
X101884230Y-62140907D01*
X101973768Y-62113746D01*
X102113334Y-62100000D01*
X102206666Y-62100000D01*
X102346232Y-62113746D01*
X102346232Y-62113746D01*
G37*
G36*
X115046232Y-62113746D02*
X115135770Y-62140907D01*
X115225309Y-62168068D01*
X115390347Y-62256283D01*
X115535001Y-62374999D01*
X115653717Y-62519653D01*
X115741932Y-62684691D01*
X115741932Y-62684692D01*
X115774328Y-62791486D01*
X115796254Y-62863769D01*
X115814596Y-63050000D01*
X115796254Y-63236231D01*
X115741932Y-63415309D01*
X115653717Y-63580347D01*
X115535001Y-63725001D01*
X115390347Y-63843717D01*
X115225309Y-63931932D01*
X115135770Y-63959093D01*
X115046232Y-63986254D01*
X114906666Y-64000000D01*
X114813334Y-64000000D01*
X114673768Y-63986254D01*
X114584230Y-63959093D01*
X114494691Y-63931932D01*
X114329653Y-63843717D01*
X114184999Y-63725001D01*
X114066283Y-63580347D01*
X113978068Y-63415309D01*
X113923746Y-63236231D01*
X113905404Y-63050000D01*
X113923746Y-62863769D01*
X113945673Y-62791486D01*
X113978068Y-62684692D01*
X113978068Y-62684691D01*
X114066283Y-62519653D01*
X114184999Y-62374999D01*
X114329653Y-62256283D01*
X114494691Y-62168068D01*
X114584230Y-62140907D01*
X114673768Y-62113746D01*
X114813334Y-62100000D01*
X114906666Y-62100000D01*
X115046232Y-62113746D01*
X115046232Y-62113746D01*
G37*
G36*
X117586232Y-62113746D02*
X117675770Y-62140907D01*
X117765309Y-62168068D01*
X117930347Y-62256283D01*
X118075001Y-62374999D01*
X118193717Y-62519653D01*
X118281932Y-62684691D01*
X118281932Y-62684692D01*
X118314328Y-62791486D01*
X118336254Y-62863769D01*
X118354596Y-63050000D01*
X118336254Y-63236231D01*
X118281932Y-63415309D01*
X118193717Y-63580347D01*
X118075001Y-63725001D01*
X117930347Y-63843717D01*
X117765309Y-63931932D01*
X117675770Y-63959093D01*
X117586232Y-63986254D01*
X117446666Y-64000000D01*
X117353334Y-64000000D01*
X117213768Y-63986254D01*
X117124230Y-63959093D01*
X117034691Y-63931932D01*
X116869653Y-63843717D01*
X116724999Y-63725001D01*
X116606283Y-63580347D01*
X116518068Y-63415309D01*
X116463746Y-63236231D01*
X116445404Y-63050000D01*
X116463746Y-62863769D01*
X116485673Y-62791486D01*
X116518068Y-62684692D01*
X116518068Y-62684691D01*
X116606283Y-62519653D01*
X116724999Y-62374999D01*
X116869653Y-62256283D01*
X117034691Y-62168068D01*
X117124230Y-62140907D01*
X117213768Y-62113746D01*
X117353334Y-62100000D01*
X117446666Y-62100000D01*
X117586232Y-62113746D01*
X117586232Y-62113746D01*
G37*
G36*
X99806232Y-62113746D02*
X99895770Y-62140907D01*
X99985309Y-62168068D01*
X100150347Y-62256283D01*
X100295001Y-62374999D01*
X100413717Y-62519653D01*
X100501932Y-62684691D01*
X100501932Y-62684692D01*
X100534328Y-62791486D01*
X100556254Y-62863769D01*
X100574596Y-63050000D01*
X100556254Y-63236231D01*
X100501932Y-63415309D01*
X100413717Y-63580347D01*
X100295001Y-63725001D01*
X100150347Y-63843717D01*
X99985309Y-63931932D01*
X99895770Y-63959093D01*
X99806232Y-63986254D01*
X99666666Y-64000000D01*
X99573334Y-64000000D01*
X99433768Y-63986254D01*
X99344230Y-63959093D01*
X99254691Y-63931932D01*
X99089653Y-63843717D01*
X98944999Y-63725001D01*
X98826283Y-63580347D01*
X98738068Y-63415309D01*
X98683746Y-63236231D01*
X98665404Y-63050000D01*
X98683746Y-62863769D01*
X98705673Y-62791486D01*
X98738068Y-62684692D01*
X98738068Y-62684691D01*
X98826283Y-62519653D01*
X98944999Y-62374999D01*
X99089653Y-62256283D01*
X99254691Y-62168068D01*
X99344230Y-62140907D01*
X99433768Y-62113746D01*
X99573334Y-62100000D01*
X99666666Y-62100000D01*
X99806232Y-62113746D01*
X99806232Y-62113746D01*
G37*
G36*
X120126232Y-62113746D02*
X120215770Y-62140907D01*
X120305309Y-62168068D01*
X120470347Y-62256283D01*
X120615001Y-62374999D01*
X120733717Y-62519653D01*
X120821932Y-62684691D01*
X120821932Y-62684692D01*
X120854328Y-62791486D01*
X120876254Y-62863769D01*
X120894596Y-63050000D01*
X120876254Y-63236231D01*
X120821932Y-63415309D01*
X120733717Y-63580347D01*
X120615001Y-63725001D01*
X120470347Y-63843717D01*
X120305309Y-63931932D01*
X120215770Y-63959093D01*
X120126232Y-63986254D01*
X119986666Y-64000000D01*
X119893334Y-64000000D01*
X119753768Y-63986254D01*
X119664230Y-63959093D01*
X119574691Y-63931932D01*
X119409653Y-63843717D01*
X119264999Y-63725001D01*
X119146283Y-63580347D01*
X119058068Y-63415309D01*
X119003746Y-63236231D01*
X118985404Y-63050000D01*
X119003746Y-62863769D01*
X119025673Y-62791486D01*
X119058068Y-62684692D01*
X119058068Y-62684691D01*
X119146283Y-62519653D01*
X119264999Y-62374999D01*
X119409653Y-62256283D01*
X119574691Y-62168068D01*
X119664230Y-62140907D01*
X119753768Y-62113746D01*
X119893334Y-62100000D01*
X119986666Y-62100000D01*
X120126232Y-62113746D01*
X120126232Y-62113746D01*
G37*
G36*
X122666232Y-62113746D02*
X122755770Y-62140907D01*
X122845309Y-62168068D01*
X123010347Y-62256283D01*
X123155001Y-62374999D01*
X123273717Y-62519653D01*
X123361932Y-62684691D01*
X123361932Y-62684692D01*
X123394328Y-62791486D01*
X123416254Y-62863769D01*
X123434596Y-63050000D01*
X123416254Y-63236231D01*
X123361932Y-63415309D01*
X123273717Y-63580347D01*
X123155001Y-63725001D01*
X123010347Y-63843717D01*
X122845309Y-63931932D01*
X122755770Y-63959093D01*
X122666232Y-63986254D01*
X122526666Y-64000000D01*
X122433334Y-64000000D01*
X122293768Y-63986254D01*
X122204230Y-63959093D01*
X122114691Y-63931932D01*
X121949653Y-63843717D01*
X121804999Y-63725001D01*
X121686283Y-63580347D01*
X121598068Y-63415309D01*
X121543746Y-63236231D01*
X121525404Y-63050000D01*
X121543746Y-62863769D01*
X121565673Y-62791486D01*
X121598068Y-62684692D01*
X121598068Y-62684691D01*
X121686283Y-62519653D01*
X121804999Y-62374999D01*
X121949653Y-62256283D01*
X122114691Y-62168068D01*
X122204230Y-62140907D01*
X122293768Y-62113746D01*
X122433334Y-62100000D01*
X122526666Y-62100000D01*
X122666232Y-62113746D01*
X122666232Y-62113746D01*
G37*
G36*
X125206232Y-62113746D02*
X125295770Y-62140907D01*
X125385309Y-62168068D01*
X125550347Y-62256283D01*
X125695001Y-62374999D01*
X125813717Y-62519653D01*
X125901932Y-62684691D01*
X125901932Y-62684692D01*
X125934328Y-62791486D01*
X125956254Y-62863769D01*
X125974596Y-63050000D01*
X125956254Y-63236231D01*
X125901932Y-63415309D01*
X125813717Y-63580347D01*
X125695001Y-63725001D01*
X125550347Y-63843717D01*
X125385309Y-63931932D01*
X125295770Y-63959093D01*
X125206232Y-63986254D01*
X125066666Y-64000000D01*
X124973334Y-64000000D01*
X124833768Y-63986254D01*
X124744230Y-63959093D01*
X124654691Y-63931932D01*
X124489653Y-63843717D01*
X124344999Y-63725001D01*
X124226283Y-63580347D01*
X124138068Y-63415309D01*
X124083746Y-63236231D01*
X124065404Y-63050000D01*
X124083746Y-62863769D01*
X124105673Y-62791486D01*
X124138068Y-62684692D01*
X124138068Y-62684691D01*
X124226283Y-62519653D01*
X124344999Y-62374999D01*
X124489653Y-62256283D01*
X124654691Y-62168068D01*
X124744230Y-62140907D01*
X124833768Y-62113746D01*
X124973334Y-62100000D01*
X125066666Y-62100000D01*
X125206232Y-62113746D01*
X125206232Y-62113746D01*
G37*
G36*
X109966232Y-62113746D02*
X110055770Y-62140907D01*
X110145309Y-62168068D01*
X110310347Y-62256283D01*
X110455001Y-62374999D01*
X110573717Y-62519653D01*
X110661932Y-62684691D01*
X110661932Y-62684692D01*
X110694328Y-62791486D01*
X110716254Y-62863769D01*
X110734596Y-63050000D01*
X110716254Y-63236231D01*
X110661932Y-63415309D01*
X110573717Y-63580347D01*
X110455001Y-63725001D01*
X110310347Y-63843717D01*
X110145309Y-63931932D01*
X110055770Y-63959093D01*
X109966232Y-63986254D01*
X109826666Y-64000000D01*
X109733334Y-64000000D01*
X109593768Y-63986254D01*
X109504230Y-63959093D01*
X109414691Y-63931932D01*
X109249653Y-63843717D01*
X109104999Y-63725001D01*
X108986283Y-63580347D01*
X108898068Y-63415309D01*
X108843746Y-63236231D01*
X108825404Y-63050000D01*
X108843746Y-62863769D01*
X108865673Y-62791486D01*
X108898068Y-62684692D01*
X108898068Y-62684691D01*
X108986283Y-62519653D01*
X109104999Y-62374999D01*
X109249653Y-62256283D01*
X109414691Y-62168068D01*
X109504230Y-62140907D01*
X109593768Y-62113746D01*
X109733334Y-62100000D01*
X109826666Y-62100000D01*
X109966232Y-62113746D01*
X109966232Y-62113746D01*
G37*
G36*
X107426232Y-62113746D02*
X107515770Y-62140907D01*
X107605309Y-62168068D01*
X107770347Y-62256283D01*
X107915001Y-62374999D01*
X108033717Y-62519653D01*
X108121932Y-62684691D01*
X108121932Y-62684692D01*
X108154328Y-62791486D01*
X108176254Y-62863769D01*
X108194596Y-63050000D01*
X108176254Y-63236231D01*
X108121932Y-63415309D01*
X108033717Y-63580347D01*
X107915001Y-63725001D01*
X107770347Y-63843717D01*
X107605309Y-63931932D01*
X107515770Y-63959093D01*
X107426232Y-63986254D01*
X107286666Y-64000000D01*
X107193334Y-64000000D01*
X107053768Y-63986254D01*
X106964230Y-63959093D01*
X106874691Y-63931932D01*
X106709653Y-63843717D01*
X106564999Y-63725001D01*
X106446283Y-63580347D01*
X106358068Y-63415309D01*
X106303746Y-63236231D01*
X106285404Y-63050000D01*
X106303746Y-62863769D01*
X106325673Y-62791486D01*
X106358068Y-62684692D01*
X106358068Y-62684691D01*
X106446283Y-62519653D01*
X106564999Y-62374999D01*
X106709653Y-62256283D01*
X106874691Y-62168068D01*
X106964230Y-62140907D01*
X107053768Y-62113746D01*
X107193334Y-62100000D01*
X107286666Y-62100000D01*
X107426232Y-62113746D01*
X107426232Y-62113746D01*
G37*
G36*
X94726232Y-62113746D02*
X94815770Y-62140907D01*
X94905309Y-62168068D01*
X95070347Y-62256283D01*
X95215001Y-62374999D01*
X95333717Y-62519653D01*
X95421932Y-62684691D01*
X95421932Y-62684692D01*
X95454328Y-62791486D01*
X95476254Y-62863769D01*
X95494596Y-63050000D01*
X95476254Y-63236231D01*
X95421932Y-63415309D01*
X95333717Y-63580347D01*
X95215001Y-63725001D01*
X95070347Y-63843717D01*
X94905309Y-63931932D01*
X94815770Y-63959093D01*
X94726232Y-63986254D01*
X94586666Y-64000000D01*
X94493334Y-64000000D01*
X94353768Y-63986254D01*
X94264230Y-63959093D01*
X94174691Y-63931932D01*
X94009653Y-63843717D01*
X93864999Y-63725001D01*
X93746283Y-63580347D01*
X93658068Y-63415309D01*
X93603746Y-63236231D01*
X93585404Y-63050000D01*
X93603746Y-62863769D01*
X93625673Y-62791486D01*
X93658068Y-62684692D01*
X93658068Y-62684691D01*
X93746283Y-62519653D01*
X93864999Y-62374999D01*
X94009653Y-62256283D01*
X94174691Y-62168068D01*
X94264230Y-62140907D01*
X94353768Y-62113746D01*
X94493334Y-62100000D01*
X94586666Y-62100000D01*
X94726232Y-62113746D01*
X94726232Y-62113746D01*
G37*
G36*
X87106232Y-62113746D02*
X87195770Y-62140907D01*
X87285309Y-62168068D01*
X87450347Y-62256283D01*
X87595001Y-62374999D01*
X87713717Y-62519653D01*
X87801932Y-62684691D01*
X87801932Y-62684692D01*
X87834328Y-62791486D01*
X87856254Y-62863769D01*
X87874596Y-63050000D01*
X87856254Y-63236231D01*
X87801932Y-63415309D01*
X87713717Y-63580347D01*
X87595001Y-63725001D01*
X87450347Y-63843717D01*
X87285309Y-63931932D01*
X87195770Y-63959093D01*
X87106232Y-63986254D01*
X86966666Y-64000000D01*
X86873334Y-64000000D01*
X86733768Y-63986254D01*
X86644230Y-63959093D01*
X86554691Y-63931932D01*
X86389653Y-63843717D01*
X86244999Y-63725001D01*
X86126283Y-63580347D01*
X86038068Y-63415309D01*
X85983746Y-63236231D01*
X85965404Y-63050000D01*
X85983746Y-62863769D01*
X86005673Y-62791486D01*
X86038068Y-62684692D01*
X86038068Y-62684691D01*
X86126283Y-62519653D01*
X86244999Y-62374999D01*
X86389653Y-62256283D01*
X86554691Y-62168068D01*
X86644230Y-62140907D01*
X86733768Y-62113746D01*
X86873334Y-62100000D01*
X86966666Y-62100000D01*
X87106232Y-62113746D01*
X87106232Y-62113746D01*
G37*
G36*
X97266232Y-62113746D02*
X97355770Y-62140907D01*
X97445309Y-62168068D01*
X97610347Y-62256283D01*
X97755001Y-62374999D01*
X97873717Y-62519653D01*
X97961932Y-62684691D01*
X97961932Y-62684692D01*
X97994328Y-62791486D01*
X98016254Y-62863769D01*
X98034596Y-63050000D01*
X98016254Y-63236231D01*
X97961932Y-63415309D01*
X97873717Y-63580347D01*
X97755001Y-63725001D01*
X97610347Y-63843717D01*
X97445309Y-63931932D01*
X97355770Y-63959093D01*
X97266232Y-63986254D01*
X97126666Y-64000000D01*
X97033334Y-64000000D01*
X96893768Y-63986254D01*
X96804230Y-63959093D01*
X96714691Y-63931932D01*
X96549653Y-63843717D01*
X96404999Y-63725001D01*
X96286283Y-63580347D01*
X96198068Y-63415309D01*
X96143746Y-63236231D01*
X96125404Y-63050000D01*
X96143746Y-62863769D01*
X96165673Y-62791486D01*
X96198068Y-62684692D01*
X96198068Y-62684691D01*
X96286283Y-62519653D01*
X96404999Y-62374999D01*
X96549653Y-62256283D01*
X96714691Y-62168068D01*
X96804230Y-62140907D01*
X96893768Y-62113746D01*
X97033334Y-62100000D01*
X97126666Y-62100000D01*
X97266232Y-62113746D01*
X97266232Y-62113746D01*
G37*
G36*
X89646232Y-62113746D02*
X89735770Y-62140907D01*
X89825309Y-62168068D01*
X89990347Y-62256283D01*
X90135001Y-62374999D01*
X90253717Y-62519653D01*
X90341932Y-62684691D01*
X90341932Y-62684692D01*
X90374328Y-62791486D01*
X90396254Y-62863769D01*
X90414596Y-63050000D01*
X90396254Y-63236231D01*
X90341932Y-63415309D01*
X90253717Y-63580347D01*
X90135001Y-63725001D01*
X89990347Y-63843717D01*
X89825309Y-63931932D01*
X89735770Y-63959093D01*
X89646232Y-63986254D01*
X89506666Y-64000000D01*
X89413334Y-64000000D01*
X89273768Y-63986254D01*
X89184230Y-63959093D01*
X89094691Y-63931932D01*
X88929653Y-63843717D01*
X88784999Y-63725001D01*
X88666283Y-63580347D01*
X88578068Y-63415309D01*
X88523746Y-63236231D01*
X88505404Y-63050000D01*
X88523746Y-62863769D01*
X88545673Y-62791486D01*
X88578068Y-62684692D01*
X88578068Y-62684691D01*
X88666283Y-62519653D01*
X88784999Y-62374999D01*
X88929653Y-62256283D01*
X89094691Y-62168068D01*
X89184230Y-62140907D01*
X89273768Y-62113746D01*
X89413334Y-62100000D01*
X89506666Y-62100000D01*
X89646232Y-62113746D01*
X89646232Y-62113746D01*
G37*
G36*
X92186232Y-62113746D02*
X92275770Y-62140907D01*
X92365309Y-62168068D01*
X92530347Y-62256283D01*
X92675001Y-62374999D01*
X92793717Y-62519653D01*
X92881932Y-62684691D01*
X92881932Y-62684692D01*
X92914328Y-62791486D01*
X92936254Y-62863769D01*
X92954596Y-63050000D01*
X92936254Y-63236231D01*
X92881932Y-63415309D01*
X92793717Y-63580347D01*
X92675001Y-63725001D01*
X92530347Y-63843717D01*
X92365309Y-63931932D01*
X92275770Y-63959093D01*
X92186232Y-63986254D01*
X92046666Y-64000000D01*
X91953334Y-64000000D01*
X91813768Y-63986254D01*
X91724230Y-63959093D01*
X91634691Y-63931932D01*
X91469653Y-63843717D01*
X91324999Y-63725001D01*
X91206283Y-63580347D01*
X91118068Y-63415309D01*
X91063746Y-63236231D01*
X91045404Y-63050000D01*
X91063746Y-62863769D01*
X91085673Y-62791486D01*
X91118068Y-62684692D01*
X91118068Y-62684691D01*
X91206283Y-62519653D01*
X91324999Y-62374999D01*
X91469653Y-62256283D01*
X91634691Y-62168068D01*
X91724230Y-62140907D01*
X91813768Y-62113746D01*
X91953334Y-62100000D01*
X92046666Y-62100000D01*
X92186232Y-62113746D01*
X92186232Y-62113746D01*
G37*
M02*
