M48
; DRILL file {KiCad (5.1.7)-1} date 01/16/22 10:29:00
; FORMAT={-:-/ absolute / inch / decimal}
; #@! TF.CreationDate,2022-01-16T10:29:00-05:00
; #@! TF.GenerationSoftware,Kicad,Pcbnew,(5.1.7)-1
; #@! TF.FileFunction,Plated,1,2,PTH
FMAT,2
INCH
T1C0.0118
T2C0.0374
T3C0.0394
%
G90
G05
T1
X3.202Y-2.765
X3.9678Y-4.1932
X4.0Y-4.25
X4.0Y-4.3
X4.02Y-4.19
X4.05Y-4.31
X4.263Y-4.162
X4.33Y-4.46
X4.48Y-4.1738
X4.48Y-4.3
X4.54Y-4.2053
X4.54Y-4.3
X4.59Y-4.2367
X4.59Y-4.297
X4.7Y-3.702
X5.172Y-3.0922
X5.1724Y-3.1559
X5.1949Y-3.5157
X5.2157Y-3.426
X5.222Y-2.9846
X5.2272Y-3.3579
X5.239Y-3.3165
T2
X3.8887Y-2.86
X3.9871Y-2.86
X4.0855Y-2.86
X4.1839Y-2.86
X3.2742Y-4.1275
X3.3726Y-4.1275
X3.471Y-4.1275
X3.5695Y-4.1275
X4.5031Y-2.86
X4.6016Y-2.86
X4.7Y-2.86
X3.8887Y-3.4937
X3.9871Y-3.4937
X4.0855Y-3.4937
X4.1839Y-3.4937
X3.2742Y-3.4937
X3.3726Y-3.4937
X3.471Y-3.4937
X3.5695Y-3.4937
X3.2742Y-3.1769
X3.3726Y-3.1769
X3.471Y-3.1769
X3.5695Y-3.1769
X4.5031Y-3.4937
X4.6016Y-3.4937
X4.7Y-3.4937
X3.2742Y-3.8106
X3.3726Y-3.8106
X3.471Y-3.8106
X3.5695Y-3.8106
X3.2742Y-2.86
X3.3726Y-2.86
X3.471Y-2.86
X3.5695Y-2.86
X4.5031Y-3.1769
X4.6016Y-3.1769
X4.7Y-3.1769
X3.8887Y-3.1769
X3.9871Y-3.1769
X4.0855Y-3.1769
X4.1839Y-3.1769
T3
X5.1453Y-4.4594
X5.2437Y-4.4594
X3.4949Y-4.4543
X3.5933Y-4.4543
X3.422Y-2.4823
X3.422Y-2.5823
X3.522Y-2.4823
X3.522Y-2.5823
X3.622Y-2.4823
X3.622Y-2.5823
X3.722Y-2.4823
X3.722Y-2.5823
X3.822Y-2.4823
X3.822Y-2.5823
X3.922Y-2.4823
X3.922Y-2.5823
X4.022Y-2.4823
X4.022Y-2.5823
X4.122Y-2.4823
X4.122Y-2.5823
X4.222Y-2.4823
X4.222Y-2.5823
X4.322Y-2.4823
X4.322Y-2.5823
X4.422Y-2.4823
X4.422Y-2.5823
X4.522Y-2.4823
X4.522Y-2.5823
X4.622Y-2.4823
X4.622Y-2.5823
X4.722Y-2.4823
X4.722Y-2.5823
X4.822Y-2.4823
X4.822Y-2.5823
X4.922Y-2.4823
X4.922Y-2.5823
X5.022Y-2.4823
X5.022Y-2.5823
X5.122Y-2.4823
X5.122Y-2.5823
X5.222Y-2.4823
X5.222Y-2.5823
X5.322Y-2.4823
X5.322Y-2.5823
X5.45Y-3.87
X5.45Y-3.97
X5.45Y-4.07
X5.45Y-4.17
X5.45Y-4.27
X5.55Y-3.87
X5.55Y-3.97
X5.55Y-4.07
X5.55Y-4.17
X5.55Y-4.27
X5.55Y-2.74
X5.55Y-2.84
X5.55Y-2.94
X5.55Y-3.04
X5.55Y-3.14
X5.55Y-3.24
X5.55Y-3.34
X5.55Y-3.44
X5.55Y-3.54
X5.55Y-3.64
T0
M30
