%TF.GenerationSoftware,KiCad,Pcbnew,(5.0.1)-3*%
%TF.CreationDate,2019-02-10T12:01:05-05:00*%
%TF.ProjectId,reef-piHat,726565662D70694861742E6B69636164,rev?*%
%TF.SameCoordinates,Original*%
%TF.FileFunction,Legend,Bot*%
%TF.FilePolarity,Positive*%
%FSLAX46Y46*%
G04 Gerber Fmt 4.6, Leading zero omitted, Abs format (unit mm)*
G04 Created by KiCad (PCBNEW (5.0.1)-3) date 2/10/2019 12:01:05 PM*
%MOMM*%
%LPD*%
G01*
G04 APERTURE LIST*
%ADD10C,0.200000*%
%ADD11C,0.100000*%
%ADD12C,0.120000*%
%ADD13C,0.010000*%
%ADD14C,0.150000*%
%ADD15C,0.080000*%
G04 APERTURE END LIST*
D10*
X134221495Y-107096123D02*
X134754828Y-107096123D01*
X134602447Y-107096123D02*
X134678638Y-107058028D01*
X134716733Y-107019933D01*
X134754828Y-106943742D01*
X134754828Y-106867552D01*
X134259590Y-106296123D02*
X134221495Y-106372314D01*
X134221495Y-106524695D01*
X134259590Y-106600885D01*
X134335780Y-106638980D01*
X134640542Y-106638980D01*
X134716733Y-106600885D01*
X134754828Y-106524695D01*
X134754828Y-106372314D01*
X134716733Y-106296123D01*
X134640542Y-106258028D01*
X134564352Y-106258028D01*
X134488161Y-106638980D01*
X134259590Y-105610409D02*
X134221495Y-105686600D01*
X134221495Y-105838980D01*
X134259590Y-105915171D01*
X134335780Y-105953266D01*
X134640542Y-105953266D01*
X134716733Y-105915171D01*
X134754828Y-105838980D01*
X134754828Y-105686600D01*
X134716733Y-105610409D01*
X134640542Y-105572314D01*
X134564352Y-105572314D01*
X134488161Y-105953266D01*
X134754828Y-105343742D02*
X134754828Y-105038980D01*
X134221495Y-105229457D02*
X134907209Y-105229457D01*
X134983400Y-105191361D01*
X135021495Y-105115171D01*
X135021495Y-105038980D01*
X134526257Y-104772314D02*
X134526257Y-104162790D01*
X134754828Y-103781838D02*
X133954828Y-103781838D01*
X134716733Y-103781838D02*
X134754828Y-103705647D01*
X134754828Y-103553266D01*
X134716733Y-103477076D01*
X134678638Y-103438980D01*
X134602447Y-103400885D01*
X134373876Y-103400885D01*
X134297685Y-103438980D01*
X134259590Y-103477076D01*
X134221495Y-103553266D01*
X134221495Y-103705647D01*
X134259590Y-103781838D01*
X134221495Y-103058028D02*
X134754828Y-103058028D01*
X135021495Y-103058028D02*
X134983400Y-103096123D01*
X134945304Y-103058028D01*
X134983400Y-103019933D01*
X135021495Y-103058028D01*
X134945304Y-103058028D01*
X134221495Y-102067552D02*
X135021495Y-102067552D01*
X134221495Y-101724695D02*
X134640542Y-101724695D01*
X134716733Y-101762790D01*
X134754828Y-101838980D01*
X134754828Y-101953266D01*
X134716733Y-102029457D01*
X134678638Y-102067552D01*
X134221495Y-101000885D02*
X134640542Y-101000885D01*
X134716733Y-101038980D01*
X134754828Y-101115171D01*
X134754828Y-101267552D01*
X134716733Y-101343742D01*
X134259590Y-101000885D02*
X134221495Y-101077076D01*
X134221495Y-101267552D01*
X134259590Y-101343742D01*
X134335780Y-101381838D01*
X134411971Y-101381838D01*
X134488161Y-101343742D01*
X134526257Y-101267552D01*
X134526257Y-101077076D01*
X134564352Y-101000885D01*
X134754828Y-100734219D02*
X134754828Y-100429457D01*
X135021495Y-100619933D02*
X134335780Y-100619933D01*
X134259590Y-100581838D01*
X134221495Y-100505647D01*
X134221495Y-100429457D01*
X134754828Y-99629457D02*
X134221495Y-99438980D01*
X134754828Y-99248504D01*
X134945304Y-98981838D02*
X134983400Y-98943742D01*
X135021495Y-98867552D01*
X135021495Y-98677076D01*
X134983400Y-98600885D01*
X134945304Y-98562790D01*
X134869114Y-98524695D01*
X134792923Y-98524695D01*
X134678638Y-98562790D01*
X134221495Y-99019933D01*
X134221495Y-98524695D01*
X133354828Y-106753266D02*
X132707209Y-106753266D01*
X132631019Y-106791361D01*
X132592923Y-106829457D01*
X132554828Y-106905647D01*
X132554828Y-107019933D01*
X132592923Y-107096123D01*
X132859590Y-106753266D02*
X132821495Y-106829457D01*
X132821495Y-106981838D01*
X132859590Y-107058028D01*
X132897685Y-107096123D01*
X132973876Y-107134219D01*
X133202447Y-107134219D01*
X133278638Y-107096123D01*
X133316733Y-107058028D01*
X133354828Y-106981838D01*
X133354828Y-106829457D01*
X133316733Y-106753266D01*
X132821495Y-106372314D02*
X133354828Y-106372314D01*
X133621495Y-106372314D02*
X133583400Y-106410409D01*
X133545304Y-106372314D01*
X133583400Y-106334219D01*
X133621495Y-106372314D01*
X133545304Y-106372314D01*
X133354828Y-106105647D02*
X133354828Y-105800885D01*
X133621495Y-105991361D02*
X132935780Y-105991361D01*
X132859590Y-105953266D01*
X132821495Y-105877076D01*
X132821495Y-105800885D01*
X132821495Y-105534219D02*
X133621495Y-105534219D01*
X132821495Y-105191361D02*
X133240542Y-105191361D01*
X133316733Y-105229457D01*
X133354828Y-105305647D01*
X133354828Y-105419933D01*
X133316733Y-105496123D01*
X133278638Y-105534219D01*
X133354828Y-104467552D02*
X132821495Y-104467552D01*
X133354828Y-104810409D02*
X132935780Y-104810409D01*
X132859590Y-104772314D01*
X132821495Y-104696123D01*
X132821495Y-104581838D01*
X132859590Y-104505647D01*
X132897685Y-104467552D01*
X132821495Y-104086600D02*
X133621495Y-104086600D01*
X133316733Y-104086600D02*
X133354828Y-104010409D01*
X133354828Y-103858028D01*
X133316733Y-103781838D01*
X133278638Y-103743742D01*
X133202447Y-103705647D01*
X132973876Y-103705647D01*
X132897685Y-103743742D01*
X132859590Y-103781838D01*
X132821495Y-103858028D01*
X132821495Y-104010409D01*
X132859590Y-104086600D01*
X132897685Y-103362790D02*
X132859590Y-103324695D01*
X132821495Y-103362790D01*
X132859590Y-103400885D01*
X132897685Y-103362790D01*
X132821495Y-103362790D01*
X132859590Y-102638980D02*
X132821495Y-102715171D01*
X132821495Y-102867552D01*
X132859590Y-102943742D01*
X132897685Y-102981838D01*
X132973876Y-103019933D01*
X133202447Y-103019933D01*
X133278638Y-102981838D01*
X133316733Y-102943742D01*
X133354828Y-102867552D01*
X133354828Y-102715171D01*
X133316733Y-102638980D01*
X132821495Y-102181838D02*
X132859590Y-102258028D01*
X132897685Y-102296123D01*
X132973876Y-102334219D01*
X133202447Y-102334219D01*
X133278638Y-102296123D01*
X133316733Y-102258028D01*
X133354828Y-102181838D01*
X133354828Y-102067552D01*
X133316733Y-101991361D01*
X133278638Y-101953266D01*
X133202447Y-101915171D01*
X132973876Y-101915171D01*
X132897685Y-101953266D01*
X132859590Y-101991361D01*
X132821495Y-102067552D01*
X132821495Y-102181838D01*
X132821495Y-101572314D02*
X133354828Y-101572314D01*
X133278638Y-101572314D02*
X133316733Y-101534219D01*
X133354828Y-101458028D01*
X133354828Y-101343742D01*
X133316733Y-101267552D01*
X133240542Y-101229457D01*
X132821495Y-101229457D01*
X133240542Y-101229457D02*
X133316733Y-101191361D01*
X133354828Y-101115171D01*
X133354828Y-101000885D01*
X133316733Y-100924695D01*
X133240542Y-100886600D01*
X132821495Y-100886600D01*
X133659590Y-99934219D02*
X132631019Y-100619933D01*
X132821495Y-99667552D02*
X133354828Y-99667552D01*
X133202447Y-99667552D02*
X133278638Y-99629457D01*
X133316733Y-99591361D01*
X133354828Y-99515171D01*
X133354828Y-99438980D01*
X132821495Y-98829457D02*
X133240542Y-98829457D01*
X133316733Y-98867552D01*
X133354828Y-98943742D01*
X133354828Y-99096123D01*
X133316733Y-99172314D01*
X132859590Y-98829457D02*
X132821495Y-98905647D01*
X132821495Y-99096123D01*
X132859590Y-99172314D01*
X132935780Y-99210409D01*
X133011971Y-99210409D01*
X133088161Y-99172314D01*
X133126257Y-99096123D01*
X133126257Y-98905647D01*
X133164352Y-98829457D01*
X133354828Y-98448504D02*
X132821495Y-98448504D01*
X133278638Y-98448504D02*
X133316733Y-98410409D01*
X133354828Y-98334219D01*
X133354828Y-98219933D01*
X133316733Y-98143742D01*
X133240542Y-98105647D01*
X132821495Y-98105647D01*
X133354828Y-97838980D02*
X133354828Y-97534219D01*
X133621495Y-97724695D02*
X132935780Y-97724695D01*
X132859590Y-97686600D01*
X132821495Y-97610409D01*
X132821495Y-97534219D01*
X132821495Y-97267552D02*
X133621495Y-97267552D01*
X132821495Y-96924695D02*
X133240542Y-96924695D01*
X133316733Y-96962790D01*
X133354828Y-97038980D01*
X133354828Y-97153266D01*
X133316733Y-97229457D01*
X133278638Y-97267552D01*
X132821495Y-96200885D02*
X133240542Y-96200885D01*
X133316733Y-96238980D01*
X133354828Y-96315171D01*
X133354828Y-96467552D01*
X133316733Y-96543742D01*
X132859590Y-96200885D02*
X132821495Y-96277076D01*
X132821495Y-96467552D01*
X132859590Y-96543742D01*
X132935780Y-96581838D01*
X133011971Y-96581838D01*
X133088161Y-96543742D01*
X133126257Y-96467552D01*
X133126257Y-96277076D01*
X133164352Y-96200885D01*
X132821495Y-95705647D02*
X132859590Y-95781838D01*
X132935780Y-95819933D01*
X133621495Y-95819933D01*
X132821495Y-95400885D02*
X133354828Y-95400885D01*
X133621495Y-95400885D02*
X133583400Y-95438980D01*
X133545304Y-95400885D01*
X133583400Y-95362790D01*
X133621495Y-95400885D01*
X133545304Y-95400885D01*
X132821495Y-94905647D02*
X132859590Y-94981838D01*
X132897685Y-95019933D01*
X132973876Y-95058028D01*
X133202447Y-95058028D01*
X133278638Y-95019933D01*
X133316733Y-94981838D01*
X133354828Y-94905647D01*
X133354828Y-94791361D01*
X133316733Y-94715171D01*
X133278638Y-94677076D01*
X133202447Y-94638980D01*
X132973876Y-94638980D01*
X132897685Y-94677076D01*
X132859590Y-94715171D01*
X132821495Y-94791361D01*
X132821495Y-94905647D01*
X133354828Y-94296123D02*
X132821495Y-94296123D01*
X133278638Y-94296123D02*
X133316733Y-94258028D01*
X133354828Y-94181838D01*
X133354828Y-94067552D01*
X133316733Y-93991361D01*
X133240542Y-93953266D01*
X132821495Y-93953266D01*
X133659590Y-93000885D02*
X132631019Y-93686600D01*
X132821495Y-92734219D02*
X133354828Y-92734219D01*
X133202447Y-92734219D02*
X133278638Y-92696123D01*
X133316733Y-92658028D01*
X133354828Y-92581838D01*
X133354828Y-92505647D01*
X132859590Y-91934219D02*
X132821495Y-92010409D01*
X132821495Y-92162790D01*
X132859590Y-92238980D01*
X132935780Y-92277076D01*
X133240542Y-92277076D01*
X133316733Y-92238980D01*
X133354828Y-92162790D01*
X133354828Y-92010409D01*
X133316733Y-91934219D01*
X133240542Y-91896123D01*
X133164352Y-91896123D01*
X133088161Y-92277076D01*
X132859590Y-91248504D02*
X132821495Y-91324695D01*
X132821495Y-91477076D01*
X132859590Y-91553266D01*
X132935780Y-91591361D01*
X133240542Y-91591361D01*
X133316733Y-91553266D01*
X133354828Y-91477076D01*
X133354828Y-91324695D01*
X133316733Y-91248504D01*
X133240542Y-91210409D01*
X133164352Y-91210409D01*
X133088161Y-91591361D01*
X133354828Y-90981838D02*
X133354828Y-90677076D01*
X132821495Y-90867552D02*
X133507209Y-90867552D01*
X133583400Y-90829457D01*
X133621495Y-90753266D01*
X133621495Y-90677076D01*
X133126257Y-90410409D02*
X133126257Y-89800885D01*
X133354828Y-89419933D02*
X132554828Y-89419933D01*
X133316733Y-89419933D02*
X133354828Y-89343742D01*
X133354828Y-89191361D01*
X133316733Y-89115171D01*
X133278638Y-89077076D01*
X133202447Y-89038980D01*
X132973876Y-89038980D01*
X132897685Y-89077076D01*
X132859590Y-89115171D01*
X132821495Y-89191361D01*
X132821495Y-89343742D01*
X132859590Y-89419933D01*
X132821495Y-88696123D02*
X133354828Y-88696123D01*
X133621495Y-88696123D02*
X133583400Y-88734219D01*
X133545304Y-88696123D01*
X133583400Y-88658028D01*
X133621495Y-88696123D01*
X133545304Y-88696123D01*
X132821495Y-88315171D02*
X133621495Y-88315171D01*
X133240542Y-88315171D02*
X133240542Y-87858028D01*
X132821495Y-87858028D02*
X133621495Y-87858028D01*
X132821495Y-87134219D02*
X133240542Y-87134219D01*
X133316733Y-87172314D01*
X133354828Y-87248504D01*
X133354828Y-87400885D01*
X133316733Y-87477076D01*
X132859590Y-87134219D02*
X132821495Y-87210409D01*
X132821495Y-87400885D01*
X132859590Y-87477076D01*
X132935780Y-87515171D01*
X133011971Y-87515171D01*
X133088161Y-87477076D01*
X133126257Y-87400885D01*
X133126257Y-87210409D01*
X133164352Y-87134219D01*
X133354828Y-86867552D02*
X133354828Y-86562790D01*
X133621495Y-86753266D02*
X132935780Y-86753266D01*
X132859590Y-86715171D01*
X132821495Y-86638980D01*
X132821495Y-86562790D01*
D11*
X78546356Y-63817611D02*
X78546356Y-113817611D01*
X78546356Y-63817611D02*
G75*
G02X81546356Y-60817611I3000000J0D01*
G01*
X140546356Y-60817611D02*
X81546356Y-60817611D01*
X140546356Y-60817611D02*
G75*
G02X143546356Y-63817611I0J-3000000D01*
G01*
X143546356Y-113817611D02*
X143546356Y-63817611D01*
X81546356Y-116817611D02*
G75*
G02X78546356Y-113817611I0J3000000D01*
G01*
X81546356Y-116817611D02*
X140546356Y-116817611D01*
X143546351Y-113822847D02*
G75*
G02X140546356Y-116817611I-2999995J5236D01*
G01*
D12*
X85590000Y-61720000D02*
X85590000Y-64320000D01*
X85590000Y-61720000D02*
X136510000Y-61720000D01*
X136510000Y-61720000D02*
X136510000Y-66920000D01*
X88190000Y-66920000D02*
X136510000Y-66920000D01*
X88190000Y-64320000D02*
X88190000Y-66920000D01*
X85590000Y-64320000D02*
X88190000Y-64320000D01*
X85590000Y-66920000D02*
X86920000Y-66920000D01*
X85590000Y-65590000D02*
X85590000Y-66920000D01*
X110560800Y-111930600D02*
X110560800Y-113730600D01*
X107340800Y-113730600D02*
X107340800Y-110780600D01*
X103271200Y-111838200D02*
X104201200Y-111838200D01*
X106431200Y-111838200D02*
X105501200Y-111838200D01*
X106431200Y-111838200D02*
X106431200Y-114998200D01*
X103271200Y-111838200D02*
X103271200Y-113298200D01*
X103131467Y-69238400D02*
X102788933Y-69238400D01*
X103131467Y-70258400D02*
X102788933Y-70258400D01*
X103231767Y-77980000D02*
X102889233Y-77980000D01*
X103231767Y-76960000D02*
X102889233Y-76960000D01*
X112590733Y-110970600D02*
X112933267Y-110970600D01*
X112590733Y-111990600D02*
X112933267Y-111990600D01*
X112579333Y-114683000D02*
X112921867Y-114683000D01*
X112579333Y-113663000D02*
X112921867Y-113663000D01*
X127165000Y-89620600D02*
X122865000Y-89620600D01*
X127165000Y-87620600D02*
X127165000Y-89620600D01*
X122865000Y-87620600D02*
X127165000Y-87620600D01*
X95915600Y-68748400D02*
X100215600Y-68748400D01*
X100215600Y-68748400D02*
X100215600Y-70748400D01*
X100215600Y-70748400D02*
X95915600Y-70748400D01*
X127159800Y-87258400D02*
X122859800Y-87258400D01*
X127159800Y-85258400D02*
X127159800Y-87258400D01*
X122859800Y-85258400D02*
X127159800Y-85258400D01*
X122859800Y-82845400D02*
X127159800Y-82845400D01*
X127159800Y-82845400D02*
X127159800Y-84845400D01*
X127159800Y-84845400D02*
X122859800Y-84845400D01*
X122862400Y-80356200D02*
X127162400Y-80356200D01*
X127162400Y-80356200D02*
X127162400Y-82356200D01*
X127162400Y-82356200D02*
X122862400Y-82356200D01*
X100312000Y-78520800D02*
X96012000Y-78520800D01*
X100312000Y-76520800D02*
X100312000Y-78520800D01*
X96012000Y-76520800D02*
X100312000Y-76520800D01*
X127159800Y-79790800D02*
X122859800Y-79790800D01*
X127159800Y-77790800D02*
X127159800Y-79790800D01*
X122859800Y-77790800D02*
X127159800Y-77790800D01*
X122859800Y-75352400D02*
X127159800Y-75352400D01*
X127159800Y-75352400D02*
X127159800Y-77352400D01*
X127159800Y-77352400D02*
X122859800Y-77352400D01*
X127162400Y-74710800D02*
X122862400Y-74710800D01*
X127162400Y-72710800D02*
X127162400Y-74710800D01*
X122862400Y-72710800D02*
X127162400Y-72710800D01*
X122834400Y-70043800D02*
X127134400Y-70043800D01*
X127134400Y-70043800D02*
X127134400Y-72043800D01*
X127134400Y-72043800D02*
X122834400Y-72043800D01*
X117684733Y-70309200D02*
X118027267Y-70309200D01*
X117684733Y-69289200D02*
X118027267Y-69289200D01*
D13*
G36*
X141903854Y-101747185D02*
X141441981Y-101713721D01*
X140688002Y-101788328D01*
X139654852Y-101970105D01*
X139041698Y-102099999D01*
X137914268Y-102272589D01*
X137046650Y-102233623D01*
X136439502Y-101983340D01*
X136093481Y-101521984D01*
X136005057Y-100985335D01*
X136073761Y-100615330D01*
X136255462Y-100054364D01*
X136513544Y-99412803D01*
X136564687Y-99298591D01*
X136928538Y-98439440D01*
X137168003Y-97744064D01*
X137272880Y-97251400D01*
X137232969Y-97000386D01*
X137173056Y-96976358D01*
X136983344Y-97113418D01*
X136903246Y-97270729D01*
X136795516Y-97547434D01*
X136588820Y-98048585D01*
X136318137Y-98690022D01*
X136151572Y-99079301D01*
X135740172Y-100160703D01*
X135539358Y-101015454D01*
X135544260Y-101675283D01*
X135690927Y-102080530D01*
X136045227Y-102416527D01*
X136620545Y-102686540D01*
X137302049Y-102844255D01*
X137639720Y-102866508D01*
X138065088Y-102835453D01*
X138722107Y-102749289D01*
X139513193Y-102622087D01*
X140168302Y-102501924D01*
X141057318Y-102315674D01*
X141646255Y-102157344D01*
X141969195Y-102015908D01*
X142060686Y-101889621D01*
X141903854Y-101747185D01*
X141903854Y-101747185D01*
G37*
X141903854Y-101747185D02*
X141441981Y-101713721D01*
X140688002Y-101788328D01*
X139654852Y-101970105D01*
X139041698Y-102099999D01*
X137914268Y-102272589D01*
X137046650Y-102233623D01*
X136439502Y-101983340D01*
X136093481Y-101521984D01*
X136005057Y-100985335D01*
X136073761Y-100615330D01*
X136255462Y-100054364D01*
X136513544Y-99412803D01*
X136564687Y-99298591D01*
X136928538Y-98439440D01*
X137168003Y-97744064D01*
X137272880Y-97251400D01*
X137232969Y-97000386D01*
X137173056Y-96976358D01*
X136983344Y-97113418D01*
X136903246Y-97270729D01*
X136795516Y-97547434D01*
X136588820Y-98048585D01*
X136318137Y-98690022D01*
X136151572Y-99079301D01*
X135740172Y-100160703D01*
X135539358Y-101015454D01*
X135544260Y-101675283D01*
X135690927Y-102080530D01*
X136045227Y-102416527D01*
X136620545Y-102686540D01*
X137302049Y-102844255D01*
X137639720Y-102866508D01*
X138065088Y-102835453D01*
X138722107Y-102749289D01*
X139513193Y-102622087D01*
X140168302Y-102501924D01*
X141057318Y-102315674D01*
X141646255Y-102157344D01*
X141969195Y-102015908D01*
X142060686Y-101889621D01*
X141903854Y-101747185D01*
G36*
X142700759Y-103647999D02*
X142575097Y-103550736D01*
X142315544Y-103477238D01*
X141881095Y-103422190D01*
X141230746Y-103380279D01*
X140323492Y-103346191D01*
X139201083Y-103316564D01*
X138249768Y-103286955D01*
X137402018Y-103247348D01*
X136721378Y-103201742D01*
X136271395Y-103154134D01*
X136131216Y-103123383D01*
X135891061Y-103086500D01*
X135836845Y-103155202D01*
X136001625Y-103384118D01*
X136486374Y-103572425D01*
X137276707Y-103716760D01*
X138358236Y-103813763D01*
X138738500Y-103833183D01*
X139508830Y-103875731D01*
X140138782Y-103927683D01*
X140562705Y-103982418D01*
X140714991Y-104032549D01*
X140566951Y-104133914D01*
X140186836Y-104272460D01*
X139856560Y-104365879D01*
X139195642Y-104575701D01*
X138479741Y-104867309D01*
X137785253Y-105201367D01*
X137188575Y-105538537D01*
X136766103Y-105839482D01*
X136599069Y-106043196D01*
X136566953Y-106444905D01*
X136605006Y-106617095D01*
X136867979Y-106935904D01*
X137358940Y-107256608D01*
X137974763Y-107521567D01*
X138448836Y-107647600D01*
X138800358Y-107733879D01*
X138916802Y-107823336D01*
X138779538Y-107922396D01*
X138369936Y-108037484D01*
X137669366Y-108175027D01*
X136659198Y-108341447D01*
X136257375Y-108403395D01*
X135374927Y-108539466D01*
X134586260Y-108664159D01*
X133963931Y-108765781D01*
X133580499Y-108832637D01*
X133523931Y-108843944D01*
X133257305Y-108992540D01*
X133143942Y-109214864D01*
X133218588Y-109390963D01*
X133355719Y-109424676D01*
X133615625Y-109393856D01*
X134172510Y-109304716D01*
X134993117Y-109163140D01*
X136044184Y-108975015D01*
X137292452Y-108746227D01*
X138704661Y-108482661D01*
X139101135Y-108407927D01*
X139823353Y-108258032D01*
X140425658Y-108107951D01*
X140827813Y-107979045D01*
X140943055Y-107917565D01*
X141032593Y-107689936D01*
X140802700Y-107500516D01*
X140248146Y-107346980D01*
X139395816Y-107230213D01*
X138534200Y-107121472D01*
X137933881Y-106983706D01*
X137519757Y-106791940D01*
X137216728Y-106521196D01*
X137198392Y-106499432D01*
X137168116Y-106251355D01*
X137455440Y-105958681D01*
X138063878Y-105619518D01*
X138996946Y-105231974D01*
X140258159Y-104794155D01*
X140523636Y-104708800D01*
X141512080Y-104377443D01*
X142219969Y-104102825D01*
X142630499Y-103892052D01*
X142733534Y-103774340D01*
X142700759Y-103647999D01*
X142700759Y-103647999D01*
G37*
X142700759Y-103647999D02*
X142575097Y-103550736D01*
X142315544Y-103477238D01*
X141881095Y-103422190D01*
X141230746Y-103380279D01*
X140323492Y-103346191D01*
X139201083Y-103316564D01*
X138249768Y-103286955D01*
X137402018Y-103247348D01*
X136721378Y-103201742D01*
X136271395Y-103154134D01*
X136131216Y-103123383D01*
X135891061Y-103086500D01*
X135836845Y-103155202D01*
X136001625Y-103384118D01*
X136486374Y-103572425D01*
X137276707Y-103716760D01*
X138358236Y-103813763D01*
X138738500Y-103833183D01*
X139508830Y-103875731D01*
X140138782Y-103927683D01*
X140562705Y-103982418D01*
X140714991Y-104032549D01*
X140566951Y-104133914D01*
X140186836Y-104272460D01*
X139856560Y-104365879D01*
X139195642Y-104575701D01*
X138479741Y-104867309D01*
X137785253Y-105201367D01*
X137188575Y-105538537D01*
X136766103Y-105839482D01*
X136599069Y-106043196D01*
X136566953Y-106444905D01*
X136605006Y-106617095D01*
X136867979Y-106935904D01*
X137358940Y-107256608D01*
X137974763Y-107521567D01*
X138448836Y-107647600D01*
X138800358Y-107733879D01*
X138916802Y-107823336D01*
X138779538Y-107922396D01*
X138369936Y-108037484D01*
X137669366Y-108175027D01*
X136659198Y-108341447D01*
X136257375Y-108403395D01*
X135374927Y-108539466D01*
X134586260Y-108664159D01*
X133963931Y-108765781D01*
X133580499Y-108832637D01*
X133523931Y-108843944D01*
X133257305Y-108992540D01*
X133143942Y-109214864D01*
X133218588Y-109390963D01*
X133355719Y-109424676D01*
X133615625Y-109393856D01*
X134172510Y-109304716D01*
X134993117Y-109163140D01*
X136044184Y-108975015D01*
X137292452Y-108746227D01*
X138704661Y-108482661D01*
X139101135Y-108407927D01*
X139823353Y-108258032D01*
X140425658Y-108107951D01*
X140827813Y-107979045D01*
X140943055Y-107917565D01*
X141032593Y-107689936D01*
X140802700Y-107500516D01*
X140248146Y-107346980D01*
X139395816Y-107230213D01*
X138534200Y-107121472D01*
X137933881Y-106983706D01*
X137519757Y-106791940D01*
X137216728Y-106521196D01*
X137198392Y-106499432D01*
X137168116Y-106251355D01*
X137455440Y-105958681D01*
X138063878Y-105619518D01*
X138996946Y-105231974D01*
X140258159Y-104794155D01*
X140523636Y-104708800D01*
X141512080Y-104377443D01*
X142219969Y-104102825D01*
X142630499Y-103892052D01*
X142733534Y-103774340D01*
X142700759Y-103647999D01*
D14*
X83602380Y-63986666D02*
X84316666Y-63986666D01*
X84459523Y-63939047D01*
X84554761Y-63843809D01*
X84602380Y-63700952D01*
X84602380Y-63605714D01*
X83602380Y-64367619D02*
X83602380Y-64986666D01*
X83983333Y-64653333D01*
X83983333Y-64796190D01*
X84030952Y-64891428D01*
X84078571Y-64939047D01*
X84173809Y-64986666D01*
X84411904Y-64986666D01*
X84507142Y-64939047D01*
X84554761Y-64891428D01*
X84602380Y-64796190D01*
X84602380Y-64510476D01*
X84554761Y-64415238D01*
X84507142Y-64367619D01*
D15*
X109086642Y-116050971D02*
X109143785Y-116022400D01*
X109200928Y-115965257D01*
X109286642Y-115879542D01*
X109343785Y-115850971D01*
X109400928Y-115850971D01*
X109372357Y-115993828D02*
X109429500Y-115965257D01*
X109486642Y-115908114D01*
X109515214Y-115793828D01*
X109515214Y-115593828D01*
X109486642Y-115479542D01*
X109429500Y-115422400D01*
X109372357Y-115393828D01*
X109258071Y-115393828D01*
X109200928Y-115422400D01*
X109143785Y-115479542D01*
X109115214Y-115593828D01*
X109115214Y-115793828D01*
X109143785Y-115908114D01*
X109200928Y-115965257D01*
X109258071Y-115993828D01*
X109372357Y-115993828D01*
X108543785Y-115993828D02*
X108886642Y-115993828D01*
X108715214Y-115993828D02*
X108715214Y-115393828D01*
X108772357Y-115479542D01*
X108829500Y-115536685D01*
X108886642Y-115565257D01*
X111228585Y-110244528D02*
X111228585Y-109644528D01*
X111085728Y-109644528D01*
X111000014Y-109673100D01*
X110942871Y-109730242D01*
X110914300Y-109787385D01*
X110885728Y-109901671D01*
X110885728Y-109987385D01*
X110914300Y-110101671D01*
X110942871Y-110158814D01*
X111000014Y-110215957D01*
X111085728Y-110244528D01*
X111228585Y-110244528D01*
X110628585Y-110244528D02*
X110628585Y-109644528D01*
X110428585Y-110073100D01*
X110228585Y-109644528D01*
X110228585Y-110244528D01*
X109942871Y-110244528D02*
X109942871Y-109644528D01*
X109742871Y-110073100D01*
X109542871Y-109644528D01*
X109542871Y-110244528D01*
X109342871Y-109644528D02*
X109000014Y-109644528D01*
X109171442Y-110244528D02*
X109171442Y-109644528D01*
X108514300Y-109644528D02*
X108800014Y-109644528D01*
X108828585Y-109930242D01*
X108800014Y-109901671D01*
X108742871Y-109873100D01*
X108600014Y-109873100D01*
X108542871Y-109901671D01*
X108514300Y-109930242D01*
X108485728Y-109987385D01*
X108485728Y-110130242D01*
X108514300Y-110187385D01*
X108542871Y-110215957D01*
X108600014Y-110244528D01*
X108742871Y-110244528D01*
X108800014Y-110215957D01*
X108828585Y-110187385D01*
X107971442Y-109844528D02*
X107971442Y-110244528D01*
X108114300Y-109615957D02*
X108257157Y-110044528D01*
X107885728Y-110044528D01*
X107542871Y-109644528D02*
X107485728Y-109644528D01*
X107428585Y-109673100D01*
X107400014Y-109701671D01*
X107371442Y-109758814D01*
X107342871Y-109873100D01*
X107342871Y-110015957D01*
X107371442Y-110130242D01*
X107400014Y-110187385D01*
X107428585Y-110215957D01*
X107485728Y-110244528D01*
X107542871Y-110244528D01*
X107600014Y-110215957D01*
X107628585Y-110187385D01*
X107657157Y-110130242D01*
X107685728Y-110015957D01*
X107685728Y-109873100D01*
X107657157Y-109758814D01*
X107628585Y-109701671D01*
X107600014Y-109673100D01*
X107542871Y-109644528D01*
X106771442Y-110244528D02*
X107114300Y-110244528D01*
X106942871Y-110244528D02*
X106942871Y-109644528D01*
X107000014Y-109730242D01*
X107057157Y-109787385D01*
X107114300Y-109815957D01*
X104921042Y-116063671D02*
X104978185Y-116035100D01*
X105035328Y-115977957D01*
X105121042Y-115892242D01*
X105178185Y-115863671D01*
X105235328Y-115863671D01*
X105206757Y-116006528D02*
X105263900Y-115977957D01*
X105321042Y-115920814D01*
X105349614Y-115806528D01*
X105349614Y-115606528D01*
X105321042Y-115492242D01*
X105263900Y-115435100D01*
X105206757Y-115406528D01*
X105092471Y-115406528D01*
X105035328Y-115435100D01*
X104978185Y-115492242D01*
X104949614Y-115606528D01*
X104949614Y-115806528D01*
X104978185Y-115920814D01*
X105035328Y-115977957D01*
X105092471Y-116006528D01*
X105206757Y-116006528D01*
X104721042Y-115463671D02*
X104692471Y-115435100D01*
X104635328Y-115406528D01*
X104492471Y-115406528D01*
X104435328Y-115435100D01*
X104406757Y-115463671D01*
X104378185Y-115520814D01*
X104378185Y-115577957D01*
X104406757Y-115663671D01*
X104749614Y-116006528D01*
X104378185Y-116006528D01*
X103076057Y-112996628D02*
X103076057Y-112396628D01*
X102933200Y-112396628D01*
X102847485Y-112425200D01*
X102790342Y-112482342D01*
X102761771Y-112539485D01*
X102733200Y-112653771D01*
X102733200Y-112739485D01*
X102761771Y-112853771D01*
X102790342Y-112910914D01*
X102847485Y-112968057D01*
X102933200Y-112996628D01*
X103076057Y-112996628D01*
X102476057Y-112996628D02*
X102476057Y-112396628D01*
X102276057Y-112825200D01*
X102076057Y-112396628D01*
X102076057Y-112996628D01*
X101476057Y-112425200D02*
X101533200Y-112396628D01*
X101618914Y-112396628D01*
X101704628Y-112425200D01*
X101761771Y-112482342D01*
X101790342Y-112539485D01*
X101818914Y-112653771D01*
X101818914Y-112739485D01*
X101790342Y-112853771D01*
X101761771Y-112910914D01*
X101704628Y-112968057D01*
X101618914Y-112996628D01*
X101561771Y-112996628D01*
X101476057Y-112968057D01*
X101447485Y-112939485D01*
X101447485Y-112739485D01*
X101561771Y-112739485D01*
X101218914Y-112453771D02*
X101190342Y-112425200D01*
X101133200Y-112396628D01*
X100990342Y-112396628D01*
X100933200Y-112425200D01*
X100904628Y-112453771D01*
X100876057Y-112510914D01*
X100876057Y-112568057D01*
X100904628Y-112653771D01*
X101247485Y-112996628D01*
X100876057Y-112996628D01*
X100676057Y-112396628D02*
X100304628Y-112396628D01*
X100504628Y-112625200D01*
X100418914Y-112625200D01*
X100361771Y-112653771D01*
X100333200Y-112682342D01*
X100304628Y-112739485D01*
X100304628Y-112882342D01*
X100333200Y-112939485D01*
X100361771Y-112968057D01*
X100418914Y-112996628D01*
X100590342Y-112996628D01*
X100647485Y-112968057D01*
X100676057Y-112939485D01*
X99933200Y-112396628D02*
X99876057Y-112396628D01*
X99818914Y-112425200D01*
X99790342Y-112453771D01*
X99761771Y-112510914D01*
X99733200Y-112625200D01*
X99733200Y-112768057D01*
X99761771Y-112882342D01*
X99790342Y-112939485D01*
X99818914Y-112968057D01*
X99876057Y-112996628D01*
X99933200Y-112996628D01*
X99990342Y-112968057D01*
X100018914Y-112939485D01*
X100047485Y-112882342D01*
X100076057Y-112768057D01*
X100076057Y-112625200D01*
X100047485Y-112510914D01*
X100018914Y-112453771D01*
X99990342Y-112425200D01*
X99933200Y-112396628D01*
X99190342Y-112396628D02*
X99476057Y-112396628D01*
X99504628Y-112682342D01*
X99476057Y-112653771D01*
X99418914Y-112625200D01*
X99276057Y-112625200D01*
X99218914Y-112653771D01*
X99190342Y-112682342D01*
X99161771Y-112739485D01*
X99161771Y-112882342D01*
X99190342Y-112939485D01*
X99218914Y-112968057D01*
X99276057Y-112996628D01*
X99418914Y-112996628D01*
X99476057Y-112968057D01*
X99504628Y-112939485D01*
X98904628Y-112396628D02*
X98904628Y-112882342D01*
X98876057Y-112939485D01*
X98847485Y-112968057D01*
X98790342Y-112996628D01*
X98676057Y-112996628D01*
X98618914Y-112968057D01*
X98590342Y-112939485D01*
X98561771Y-112882342D01*
X98561771Y-112396628D01*
X98333200Y-112396628D02*
X97933200Y-112996628D01*
X97933200Y-112396628D02*
X98333200Y-112996628D01*
D14*
X103189066Y-68778380D02*
X103522400Y-68302190D01*
X103760495Y-68778380D02*
X103760495Y-67778380D01*
X103379542Y-67778380D01*
X103284304Y-67826000D01*
X103236685Y-67873619D01*
X103189066Y-67968857D01*
X103189066Y-68111714D01*
X103236685Y-68206952D01*
X103284304Y-68254571D01*
X103379542Y-68302190D01*
X103760495Y-68302190D01*
X102236685Y-68778380D02*
X102808114Y-68778380D01*
X102522400Y-68778380D02*
X102522400Y-67778380D01*
X102617638Y-67921238D01*
X102712876Y-68016476D01*
X102808114Y-68064095D01*
X104260495Y-70718419D02*
X104212876Y-70670800D01*
X104117638Y-70623180D01*
X103879542Y-70623180D01*
X103784304Y-70670800D01*
X103736685Y-70718419D01*
X103689066Y-70813657D01*
X103689066Y-70908895D01*
X103736685Y-71051752D01*
X104308114Y-71623180D01*
X103689066Y-71623180D01*
X103308114Y-70718419D02*
X103260495Y-70670800D01*
X103165257Y-70623180D01*
X102927161Y-70623180D01*
X102831923Y-70670800D01*
X102784304Y-70718419D01*
X102736685Y-70813657D01*
X102736685Y-70908895D01*
X102784304Y-71051752D01*
X103355733Y-71623180D01*
X102736685Y-71623180D01*
X102117638Y-70623180D02*
X102022400Y-70623180D01*
X101927161Y-70670800D01*
X101879542Y-70718419D01*
X101831923Y-70813657D01*
X101784304Y-71004133D01*
X101784304Y-71242228D01*
X101831923Y-71432704D01*
X101879542Y-71527942D01*
X101927161Y-71575561D01*
X102022400Y-71623180D01*
X102117638Y-71623180D01*
X102212876Y-71575561D01*
X102260495Y-71527942D01*
X102308114Y-71432704D01*
X102355733Y-71242228D01*
X102355733Y-71004133D01*
X102308114Y-70813657D01*
X102260495Y-70718419D01*
X102212876Y-70670800D01*
X102117638Y-70623180D01*
X103214466Y-76626980D02*
X103547800Y-76150790D01*
X103785895Y-76626980D02*
X103785895Y-75626980D01*
X103404942Y-75626980D01*
X103309704Y-75674600D01*
X103262085Y-75722219D01*
X103214466Y-75817457D01*
X103214466Y-75960314D01*
X103262085Y-76055552D01*
X103309704Y-76103171D01*
X103404942Y-76150790D01*
X103785895Y-76150790D01*
X102833514Y-75722219D02*
X102785895Y-75674600D01*
X102690657Y-75626980D01*
X102452561Y-75626980D01*
X102357323Y-75674600D01*
X102309704Y-75722219D01*
X102262085Y-75817457D01*
X102262085Y-75912695D01*
X102309704Y-76055552D01*
X102881133Y-76626980D01*
X102262085Y-76626980D01*
X104438295Y-78490819D02*
X104390676Y-78443200D01*
X104295438Y-78395580D01*
X104057342Y-78395580D01*
X103962104Y-78443200D01*
X103914485Y-78490819D01*
X103866866Y-78586057D01*
X103866866Y-78681295D01*
X103914485Y-78824152D01*
X104485914Y-79395580D01*
X103866866Y-79395580D01*
X103485914Y-78490819D02*
X103438295Y-78443200D01*
X103343057Y-78395580D01*
X103104961Y-78395580D01*
X103009723Y-78443200D01*
X102962104Y-78490819D01*
X102914485Y-78586057D01*
X102914485Y-78681295D01*
X102962104Y-78824152D01*
X103533533Y-79395580D01*
X102914485Y-79395580D01*
X102295438Y-78395580D02*
X102200200Y-78395580D01*
X102104961Y-78443200D01*
X102057342Y-78490819D01*
X102009723Y-78586057D01*
X101962104Y-78776533D01*
X101962104Y-79014628D01*
X102009723Y-79205104D01*
X102057342Y-79300342D01*
X102104961Y-79347961D01*
X102200200Y-79395580D01*
X102295438Y-79395580D01*
X102390676Y-79347961D01*
X102438295Y-79300342D01*
X102485914Y-79205104D01*
X102533533Y-79014628D01*
X102533533Y-78776533D01*
X102485914Y-78586057D01*
X102438295Y-78490819D01*
X102390676Y-78443200D01*
X102295438Y-78395580D01*
X115581666Y-112059980D02*
X115915000Y-111583790D01*
X116153095Y-112059980D02*
X116153095Y-111059980D01*
X115772142Y-111059980D01*
X115676904Y-111107600D01*
X115629285Y-111155219D01*
X115581666Y-111250457D01*
X115581666Y-111393314D01*
X115629285Y-111488552D01*
X115676904Y-111536171D01*
X115772142Y-111583790D01*
X116153095Y-111583790D01*
X114724523Y-111059980D02*
X114915000Y-111059980D01*
X115010238Y-111107600D01*
X115057857Y-111155219D01*
X115153095Y-111298076D01*
X115200714Y-111488552D01*
X115200714Y-111869504D01*
X115153095Y-111964742D01*
X115105476Y-112012361D01*
X115010238Y-112059980D01*
X114819761Y-112059980D01*
X114724523Y-112012361D01*
X114676904Y-111964742D01*
X114629285Y-111869504D01*
X114629285Y-111631409D01*
X114676904Y-111536171D01*
X114724523Y-111488552D01*
X114819761Y-111440933D01*
X115010238Y-111440933D01*
X115105476Y-111488552D01*
X115153095Y-111536171D01*
X115200714Y-111631409D01*
X113523904Y-109598219D02*
X113476285Y-109550600D01*
X113381047Y-109502980D01*
X113142952Y-109502980D01*
X113047714Y-109550600D01*
X113000095Y-109598219D01*
X112952476Y-109693457D01*
X112952476Y-109788695D01*
X113000095Y-109931552D01*
X113571523Y-110502980D01*
X112952476Y-110502980D01*
X112571523Y-109598219D02*
X112523904Y-109550600D01*
X112428666Y-109502980D01*
X112190571Y-109502980D01*
X112095333Y-109550600D01*
X112047714Y-109598219D01*
X112000095Y-109693457D01*
X112000095Y-109788695D01*
X112047714Y-109931552D01*
X112619142Y-110502980D01*
X112000095Y-110502980D01*
X115534766Y-114752380D02*
X115868100Y-114276190D01*
X116106195Y-114752380D02*
X116106195Y-113752380D01*
X115725242Y-113752380D01*
X115630004Y-113800000D01*
X115582385Y-113847619D01*
X115534766Y-113942857D01*
X115534766Y-114085714D01*
X115582385Y-114180952D01*
X115630004Y-114228571D01*
X115725242Y-114276190D01*
X116106195Y-114276190D01*
X115201433Y-113752380D02*
X114534766Y-113752380D01*
X114963338Y-114752380D01*
X113512504Y-112290619D02*
X113464885Y-112243000D01*
X113369647Y-112195380D01*
X113131552Y-112195380D01*
X113036314Y-112243000D01*
X112988695Y-112290619D01*
X112941076Y-112385857D01*
X112941076Y-112481095D01*
X112988695Y-112623952D01*
X113560123Y-113195380D01*
X112941076Y-113195380D01*
X112560123Y-112290619D02*
X112512504Y-112243000D01*
X112417266Y-112195380D01*
X112179171Y-112195380D01*
X112083933Y-112243000D01*
X112036314Y-112290619D01*
X111988695Y-112385857D01*
X111988695Y-112481095D01*
X112036314Y-112623952D01*
X112607742Y-113195380D01*
X111988695Y-113195380D01*
X121972295Y-89072980D02*
X121972295Y-88072980D01*
X121734200Y-88072980D01*
X121591342Y-88120600D01*
X121496104Y-88215838D01*
X121448485Y-88311076D01*
X121400866Y-88501552D01*
X121400866Y-88644409D01*
X121448485Y-88834885D01*
X121496104Y-88930123D01*
X121591342Y-89025361D01*
X121734200Y-89072980D01*
X121972295Y-89072980D01*
X120448485Y-89072980D02*
X121019914Y-89072980D01*
X120734200Y-89072980D02*
X120734200Y-88072980D01*
X120829438Y-88215838D01*
X120924676Y-88311076D01*
X121019914Y-88358695D01*
X130357380Y-88406314D02*
X129833571Y-88406314D01*
X130357380Y-89072980D01*
X129833571Y-89072980D01*
X129547857Y-88072980D02*
X128928809Y-88072980D01*
X129262142Y-88453933D01*
X129119285Y-88453933D01*
X129024047Y-88501552D01*
X128976428Y-88549171D01*
X128928809Y-88644409D01*
X128928809Y-88882504D01*
X128976428Y-88977742D01*
X129024047Y-89025361D01*
X129119285Y-89072980D01*
X129405000Y-89072980D01*
X129500238Y-89025361D01*
X129547857Y-88977742D01*
X128500238Y-88977742D02*
X128452619Y-89025361D01*
X128500238Y-89072980D01*
X128547857Y-89025361D01*
X128500238Y-88977742D01*
X128500238Y-89072980D01*
X128119285Y-88072980D02*
X127500238Y-88072980D01*
X127833571Y-88453933D01*
X127690714Y-88453933D01*
X127595476Y-88501552D01*
X127547857Y-88549171D01*
X127500238Y-88644409D01*
X127500238Y-88882504D01*
X127547857Y-88977742D01*
X127595476Y-89025361D01*
X127690714Y-89072980D01*
X127976428Y-89072980D01*
X128071666Y-89025361D01*
X128119285Y-88977742D01*
X98403695Y-68200780D02*
X98403695Y-67200780D01*
X98165600Y-67200780D01*
X98022742Y-67248400D01*
X97927504Y-67343638D01*
X97879885Y-67438876D01*
X97832266Y-67629352D01*
X97832266Y-67772209D01*
X97879885Y-67962685D01*
X97927504Y-68057923D01*
X98022742Y-68153161D01*
X98165600Y-68200780D01*
X98403695Y-68200780D01*
X97451314Y-67296019D02*
X97403695Y-67248400D01*
X97308457Y-67200780D01*
X97070361Y-67200780D01*
X96975123Y-67248400D01*
X96927504Y-67296019D01*
X96879885Y-67391257D01*
X96879885Y-67486495D01*
X96927504Y-67629352D01*
X97498933Y-68200780D01*
X96879885Y-68200780D01*
X99117980Y-71284114D02*
X98594171Y-71284114D01*
X99117980Y-71950780D01*
X98594171Y-71950780D01*
X98308457Y-70950780D02*
X97689409Y-70950780D01*
X98022742Y-71331733D01*
X97879885Y-71331733D01*
X97784647Y-71379352D01*
X97737028Y-71426971D01*
X97689409Y-71522209D01*
X97689409Y-71760304D01*
X97737028Y-71855542D01*
X97784647Y-71903161D01*
X97879885Y-71950780D01*
X98165600Y-71950780D01*
X98260838Y-71903161D01*
X98308457Y-71855542D01*
X97260838Y-71855542D02*
X97213219Y-71903161D01*
X97260838Y-71950780D01*
X97308457Y-71903161D01*
X97260838Y-71855542D01*
X97260838Y-71950780D01*
X96879885Y-70950780D02*
X96260838Y-70950780D01*
X96594171Y-71331733D01*
X96451314Y-71331733D01*
X96356076Y-71379352D01*
X96308457Y-71426971D01*
X96260838Y-71522209D01*
X96260838Y-71760304D01*
X96308457Y-71855542D01*
X96356076Y-71903161D01*
X96451314Y-71950780D01*
X96737028Y-71950780D01*
X96832266Y-71903161D01*
X96879885Y-71855542D01*
X121972295Y-86710780D02*
X121972295Y-85710780D01*
X121734200Y-85710780D01*
X121591342Y-85758400D01*
X121496104Y-85853638D01*
X121448485Y-85948876D01*
X121400866Y-86139352D01*
X121400866Y-86282209D01*
X121448485Y-86472685D01*
X121496104Y-86567923D01*
X121591342Y-86663161D01*
X121734200Y-86710780D01*
X121972295Y-86710780D01*
X121067533Y-85710780D02*
X120448485Y-85710780D01*
X120781819Y-86091733D01*
X120638961Y-86091733D01*
X120543723Y-86139352D01*
X120496104Y-86186971D01*
X120448485Y-86282209D01*
X120448485Y-86520304D01*
X120496104Y-86615542D01*
X120543723Y-86663161D01*
X120638961Y-86710780D01*
X120924676Y-86710780D01*
X121019914Y-86663161D01*
X121067533Y-86615542D01*
X130281180Y-86044114D02*
X129757371Y-86044114D01*
X130281180Y-86710780D01*
X129757371Y-86710780D01*
X129471657Y-85710780D02*
X128852609Y-85710780D01*
X129185942Y-86091733D01*
X129043085Y-86091733D01*
X128947847Y-86139352D01*
X128900228Y-86186971D01*
X128852609Y-86282209D01*
X128852609Y-86520304D01*
X128900228Y-86615542D01*
X128947847Y-86663161D01*
X129043085Y-86710780D01*
X129328800Y-86710780D01*
X129424038Y-86663161D01*
X129471657Y-86615542D01*
X128424038Y-86615542D02*
X128376419Y-86663161D01*
X128424038Y-86710780D01*
X128471657Y-86663161D01*
X128424038Y-86615542D01*
X128424038Y-86710780D01*
X128043085Y-85710780D02*
X127424038Y-85710780D01*
X127757371Y-86091733D01*
X127614514Y-86091733D01*
X127519276Y-86139352D01*
X127471657Y-86186971D01*
X127424038Y-86282209D01*
X127424038Y-86520304D01*
X127471657Y-86615542D01*
X127519276Y-86663161D01*
X127614514Y-86710780D01*
X127900228Y-86710780D01*
X127995466Y-86663161D01*
X128043085Y-86615542D01*
X121972295Y-84297780D02*
X121972295Y-83297780D01*
X121734200Y-83297780D01*
X121591342Y-83345400D01*
X121496104Y-83440638D01*
X121448485Y-83535876D01*
X121400866Y-83726352D01*
X121400866Y-83869209D01*
X121448485Y-84059685D01*
X121496104Y-84154923D01*
X121591342Y-84250161D01*
X121734200Y-84297780D01*
X121972295Y-84297780D01*
X120543723Y-83631114D02*
X120543723Y-84297780D01*
X120781819Y-83250161D02*
X121019914Y-83964447D01*
X120400866Y-83964447D01*
X130357380Y-83631114D02*
X129833571Y-83631114D01*
X130357380Y-84297780D01*
X129833571Y-84297780D01*
X129547857Y-83297780D02*
X128928809Y-83297780D01*
X129262142Y-83678733D01*
X129119285Y-83678733D01*
X129024047Y-83726352D01*
X128976428Y-83773971D01*
X128928809Y-83869209D01*
X128928809Y-84107304D01*
X128976428Y-84202542D01*
X129024047Y-84250161D01*
X129119285Y-84297780D01*
X129405000Y-84297780D01*
X129500238Y-84250161D01*
X129547857Y-84202542D01*
X128500238Y-84202542D02*
X128452619Y-84250161D01*
X128500238Y-84297780D01*
X128547857Y-84250161D01*
X128500238Y-84202542D01*
X128500238Y-84297780D01*
X128119285Y-83297780D02*
X127500238Y-83297780D01*
X127833571Y-83678733D01*
X127690714Y-83678733D01*
X127595476Y-83726352D01*
X127547857Y-83773971D01*
X127500238Y-83869209D01*
X127500238Y-84107304D01*
X127547857Y-84202542D01*
X127595476Y-84250161D01*
X127690714Y-84297780D01*
X127976428Y-84297780D01*
X128071666Y-84250161D01*
X128119285Y-84202542D01*
X121997695Y-81808580D02*
X121997695Y-80808580D01*
X121759600Y-80808580D01*
X121616742Y-80856200D01*
X121521504Y-80951438D01*
X121473885Y-81046676D01*
X121426266Y-81237152D01*
X121426266Y-81380009D01*
X121473885Y-81570485D01*
X121521504Y-81665723D01*
X121616742Y-81760961D01*
X121759600Y-81808580D01*
X121997695Y-81808580D01*
X120521504Y-80808580D02*
X120997695Y-80808580D01*
X121045314Y-81284771D01*
X120997695Y-81237152D01*
X120902457Y-81189533D01*
X120664361Y-81189533D01*
X120569123Y-81237152D01*
X120521504Y-81284771D01*
X120473885Y-81380009D01*
X120473885Y-81618104D01*
X120521504Y-81713342D01*
X120569123Y-81760961D01*
X120664361Y-81808580D01*
X120902457Y-81808580D01*
X120997695Y-81760961D01*
X121045314Y-81713342D01*
X130357380Y-81141914D02*
X129833571Y-81141914D01*
X130357380Y-81808580D01*
X129833571Y-81808580D01*
X129547857Y-80808580D02*
X128928809Y-80808580D01*
X129262142Y-81189533D01*
X129119285Y-81189533D01*
X129024047Y-81237152D01*
X128976428Y-81284771D01*
X128928809Y-81380009D01*
X128928809Y-81618104D01*
X128976428Y-81713342D01*
X129024047Y-81760961D01*
X129119285Y-81808580D01*
X129405000Y-81808580D01*
X129500238Y-81760961D01*
X129547857Y-81713342D01*
X128500238Y-81713342D02*
X128452619Y-81760961D01*
X128500238Y-81808580D01*
X128547857Y-81760961D01*
X128500238Y-81713342D01*
X128500238Y-81808580D01*
X128119285Y-80808580D02*
X127500238Y-80808580D01*
X127833571Y-81189533D01*
X127690714Y-81189533D01*
X127595476Y-81237152D01*
X127547857Y-81284771D01*
X127500238Y-81380009D01*
X127500238Y-81618104D01*
X127547857Y-81713342D01*
X127595476Y-81760961D01*
X127690714Y-81808580D01*
X127976428Y-81808580D01*
X128071666Y-81760961D01*
X128119285Y-81713342D01*
X98500095Y-75973180D02*
X98500095Y-74973180D01*
X98262000Y-74973180D01*
X98119142Y-75020800D01*
X98023904Y-75116038D01*
X97976285Y-75211276D01*
X97928666Y-75401752D01*
X97928666Y-75544609D01*
X97976285Y-75735085D01*
X98023904Y-75830323D01*
X98119142Y-75925561D01*
X98262000Y-75973180D01*
X98500095Y-75973180D01*
X97071523Y-74973180D02*
X97262000Y-74973180D01*
X97357238Y-75020800D01*
X97404857Y-75068419D01*
X97500095Y-75211276D01*
X97547714Y-75401752D01*
X97547714Y-75782704D01*
X97500095Y-75877942D01*
X97452476Y-75925561D01*
X97357238Y-75973180D01*
X97166761Y-75973180D01*
X97071523Y-75925561D01*
X97023904Y-75877942D01*
X96976285Y-75782704D01*
X96976285Y-75544609D01*
X97023904Y-75449371D01*
X97071523Y-75401752D01*
X97166761Y-75354133D01*
X97357238Y-75354133D01*
X97452476Y-75401752D01*
X97500095Y-75449371D01*
X97547714Y-75544609D01*
X99214380Y-79056514D02*
X98690571Y-79056514D01*
X99214380Y-79723180D01*
X98690571Y-79723180D01*
X98404857Y-78723180D02*
X97785809Y-78723180D01*
X98119142Y-79104133D01*
X97976285Y-79104133D01*
X97881047Y-79151752D01*
X97833428Y-79199371D01*
X97785809Y-79294609D01*
X97785809Y-79532704D01*
X97833428Y-79627942D01*
X97881047Y-79675561D01*
X97976285Y-79723180D01*
X98262000Y-79723180D01*
X98357238Y-79675561D01*
X98404857Y-79627942D01*
X97357238Y-79627942D02*
X97309619Y-79675561D01*
X97357238Y-79723180D01*
X97404857Y-79675561D01*
X97357238Y-79627942D01*
X97357238Y-79723180D01*
X96976285Y-78723180D02*
X96357238Y-78723180D01*
X96690571Y-79104133D01*
X96547714Y-79104133D01*
X96452476Y-79151752D01*
X96404857Y-79199371D01*
X96357238Y-79294609D01*
X96357238Y-79532704D01*
X96404857Y-79627942D01*
X96452476Y-79675561D01*
X96547714Y-79723180D01*
X96833428Y-79723180D01*
X96928666Y-79675561D01*
X96976285Y-79627942D01*
X121997695Y-79243180D02*
X121997695Y-78243180D01*
X121759600Y-78243180D01*
X121616742Y-78290800D01*
X121521504Y-78386038D01*
X121473885Y-78481276D01*
X121426266Y-78671752D01*
X121426266Y-78814609D01*
X121473885Y-79005085D01*
X121521504Y-79100323D01*
X121616742Y-79195561D01*
X121759600Y-79243180D01*
X121997695Y-79243180D01*
X121092933Y-78243180D02*
X120426266Y-78243180D01*
X120854838Y-79243180D01*
X130357380Y-78576514D02*
X129833571Y-78576514D01*
X130357380Y-79243180D01*
X129833571Y-79243180D01*
X129547857Y-78243180D02*
X128928809Y-78243180D01*
X129262142Y-78624133D01*
X129119285Y-78624133D01*
X129024047Y-78671752D01*
X128976428Y-78719371D01*
X128928809Y-78814609D01*
X128928809Y-79052704D01*
X128976428Y-79147942D01*
X129024047Y-79195561D01*
X129119285Y-79243180D01*
X129405000Y-79243180D01*
X129500238Y-79195561D01*
X129547857Y-79147942D01*
X128500238Y-79147942D02*
X128452619Y-79195561D01*
X128500238Y-79243180D01*
X128547857Y-79195561D01*
X128500238Y-79147942D01*
X128500238Y-79243180D01*
X128119285Y-78243180D02*
X127500238Y-78243180D01*
X127833571Y-78624133D01*
X127690714Y-78624133D01*
X127595476Y-78671752D01*
X127547857Y-78719371D01*
X127500238Y-78814609D01*
X127500238Y-79052704D01*
X127547857Y-79147942D01*
X127595476Y-79195561D01*
X127690714Y-79243180D01*
X127976428Y-79243180D01*
X128071666Y-79195561D01*
X128119285Y-79147942D01*
X121997695Y-76804780D02*
X121997695Y-75804780D01*
X121759600Y-75804780D01*
X121616742Y-75852400D01*
X121521504Y-75947638D01*
X121473885Y-76042876D01*
X121426266Y-76233352D01*
X121426266Y-76376209D01*
X121473885Y-76566685D01*
X121521504Y-76661923D01*
X121616742Y-76757161D01*
X121759600Y-76804780D01*
X121997695Y-76804780D01*
X120854838Y-76233352D02*
X120950076Y-76185733D01*
X120997695Y-76138114D01*
X121045314Y-76042876D01*
X121045314Y-75995257D01*
X120997695Y-75900019D01*
X120950076Y-75852400D01*
X120854838Y-75804780D01*
X120664361Y-75804780D01*
X120569123Y-75852400D01*
X120521504Y-75900019D01*
X120473885Y-75995257D01*
X120473885Y-76042876D01*
X120521504Y-76138114D01*
X120569123Y-76185733D01*
X120664361Y-76233352D01*
X120854838Y-76233352D01*
X120950076Y-76280971D01*
X120997695Y-76328590D01*
X121045314Y-76423828D01*
X121045314Y-76614304D01*
X120997695Y-76709542D01*
X120950076Y-76757161D01*
X120854838Y-76804780D01*
X120664361Y-76804780D01*
X120569123Y-76757161D01*
X120521504Y-76709542D01*
X120473885Y-76614304D01*
X120473885Y-76423828D01*
X120521504Y-76328590D01*
X120569123Y-76280971D01*
X120664361Y-76233352D01*
X130306580Y-76138114D02*
X129782771Y-76138114D01*
X130306580Y-76804780D01*
X129782771Y-76804780D01*
X129497057Y-75804780D02*
X128878009Y-75804780D01*
X129211342Y-76185733D01*
X129068485Y-76185733D01*
X128973247Y-76233352D01*
X128925628Y-76280971D01*
X128878009Y-76376209D01*
X128878009Y-76614304D01*
X128925628Y-76709542D01*
X128973247Y-76757161D01*
X129068485Y-76804780D01*
X129354200Y-76804780D01*
X129449438Y-76757161D01*
X129497057Y-76709542D01*
X128449438Y-76709542D02*
X128401819Y-76757161D01*
X128449438Y-76804780D01*
X128497057Y-76757161D01*
X128449438Y-76709542D01*
X128449438Y-76804780D01*
X128068485Y-75804780D02*
X127449438Y-75804780D01*
X127782771Y-76185733D01*
X127639914Y-76185733D01*
X127544676Y-76233352D01*
X127497057Y-76280971D01*
X127449438Y-76376209D01*
X127449438Y-76614304D01*
X127497057Y-76709542D01*
X127544676Y-76757161D01*
X127639914Y-76804780D01*
X127925628Y-76804780D01*
X128020866Y-76757161D01*
X128068485Y-76709542D01*
X121997695Y-74137780D02*
X121997695Y-73137780D01*
X121759600Y-73137780D01*
X121616742Y-73185400D01*
X121521504Y-73280638D01*
X121473885Y-73375876D01*
X121426266Y-73566352D01*
X121426266Y-73709209D01*
X121473885Y-73899685D01*
X121521504Y-73994923D01*
X121616742Y-74090161D01*
X121759600Y-74137780D01*
X121997695Y-74137780D01*
X120950076Y-74137780D02*
X120759600Y-74137780D01*
X120664361Y-74090161D01*
X120616742Y-74042542D01*
X120521504Y-73899685D01*
X120473885Y-73709209D01*
X120473885Y-73328257D01*
X120521504Y-73233019D01*
X120569123Y-73185400D01*
X120664361Y-73137780D01*
X120854838Y-73137780D01*
X120950076Y-73185400D01*
X120997695Y-73233019D01*
X121045314Y-73328257D01*
X121045314Y-73566352D01*
X120997695Y-73661590D01*
X120950076Y-73709209D01*
X120854838Y-73756828D01*
X120664361Y-73756828D01*
X120569123Y-73709209D01*
X120521504Y-73661590D01*
X120473885Y-73566352D01*
X130306580Y-73496514D02*
X129782771Y-73496514D01*
X130306580Y-74163180D01*
X129782771Y-74163180D01*
X129497057Y-73163180D02*
X128878009Y-73163180D01*
X129211342Y-73544133D01*
X129068485Y-73544133D01*
X128973247Y-73591752D01*
X128925628Y-73639371D01*
X128878009Y-73734609D01*
X128878009Y-73972704D01*
X128925628Y-74067942D01*
X128973247Y-74115561D01*
X129068485Y-74163180D01*
X129354200Y-74163180D01*
X129449438Y-74115561D01*
X129497057Y-74067942D01*
X128449438Y-74067942D02*
X128401819Y-74115561D01*
X128449438Y-74163180D01*
X128497057Y-74115561D01*
X128449438Y-74067942D01*
X128449438Y-74163180D01*
X128068485Y-73163180D02*
X127449438Y-73163180D01*
X127782771Y-73544133D01*
X127639914Y-73544133D01*
X127544676Y-73591752D01*
X127497057Y-73639371D01*
X127449438Y-73734609D01*
X127449438Y-73972704D01*
X127497057Y-74067942D01*
X127544676Y-74115561D01*
X127639914Y-74163180D01*
X127925628Y-74163180D01*
X128020866Y-74115561D01*
X128068485Y-74067942D01*
X121965885Y-71470780D02*
X121965885Y-70470780D01*
X121727790Y-70470780D01*
X121584933Y-70518400D01*
X121489695Y-70613638D01*
X121442076Y-70708876D01*
X121394457Y-70899352D01*
X121394457Y-71042209D01*
X121442076Y-71232685D01*
X121489695Y-71327923D01*
X121584933Y-71423161D01*
X121727790Y-71470780D01*
X121965885Y-71470780D01*
X120442076Y-71470780D02*
X121013504Y-71470780D01*
X120727790Y-71470780D02*
X120727790Y-70470780D01*
X120823028Y-70613638D01*
X120918266Y-70708876D01*
X121013504Y-70756495D01*
X119823028Y-70470780D02*
X119727790Y-70470780D01*
X119632552Y-70518400D01*
X119584933Y-70566019D01*
X119537314Y-70661257D01*
X119489695Y-70851733D01*
X119489695Y-71089828D01*
X119537314Y-71280304D01*
X119584933Y-71375542D01*
X119632552Y-71423161D01*
X119727790Y-71470780D01*
X119823028Y-71470780D01*
X119918266Y-71423161D01*
X119965885Y-71375542D01*
X120013504Y-71280304D01*
X120061123Y-71089828D01*
X120061123Y-70851733D01*
X120013504Y-70661257D01*
X119965885Y-70566019D01*
X119918266Y-70518400D01*
X119823028Y-70470780D01*
X130306580Y-70829514D02*
X129782771Y-70829514D01*
X130306580Y-71496180D01*
X129782771Y-71496180D01*
X129497057Y-70496180D02*
X128878009Y-70496180D01*
X129211342Y-70877133D01*
X129068485Y-70877133D01*
X128973247Y-70924752D01*
X128925628Y-70972371D01*
X128878009Y-71067609D01*
X128878009Y-71305704D01*
X128925628Y-71400942D01*
X128973247Y-71448561D01*
X129068485Y-71496180D01*
X129354200Y-71496180D01*
X129449438Y-71448561D01*
X129497057Y-71400942D01*
X128449438Y-71400942D02*
X128401819Y-71448561D01*
X128449438Y-71496180D01*
X128497057Y-71448561D01*
X128449438Y-71400942D01*
X128449438Y-71496180D01*
X128068485Y-70496180D02*
X127449438Y-70496180D01*
X127782771Y-70877133D01*
X127639914Y-70877133D01*
X127544676Y-70924752D01*
X127497057Y-70972371D01*
X127449438Y-71067609D01*
X127449438Y-71305704D01*
X127497057Y-71400942D01*
X127544676Y-71448561D01*
X127639914Y-71496180D01*
X127925628Y-71496180D01*
X128020866Y-71448561D01*
X128068485Y-71400942D01*
X118498857Y-68727580D02*
X118832190Y-68251390D01*
X119070285Y-68727580D02*
X119070285Y-67727580D01*
X118689333Y-67727580D01*
X118594095Y-67775200D01*
X118546476Y-67822819D01*
X118498857Y-67918057D01*
X118498857Y-68060914D01*
X118546476Y-68156152D01*
X118594095Y-68203771D01*
X118689333Y-68251390D01*
X119070285Y-68251390D01*
X117546476Y-68727580D02*
X118117904Y-68727580D01*
X117832190Y-68727580D02*
X117832190Y-67727580D01*
X117927428Y-67870438D01*
X118022666Y-67965676D01*
X118117904Y-68013295D01*
X117213142Y-67727580D02*
X116594095Y-67727580D01*
X116927428Y-68108533D01*
X116784571Y-68108533D01*
X116689333Y-68156152D01*
X116641714Y-68203771D01*
X116594095Y-68299009D01*
X116594095Y-68537104D01*
X116641714Y-68632342D01*
X116689333Y-68679961D01*
X116784571Y-68727580D01*
X117070285Y-68727580D01*
X117165523Y-68679961D01*
X117213142Y-68632342D01*
X118784571Y-71235914D02*
X118784571Y-71902580D01*
X119022666Y-70854961D02*
X119260761Y-71569247D01*
X118641714Y-71569247D01*
X118260761Y-71807342D02*
X118213142Y-71854961D01*
X118260761Y-71902580D01*
X118308380Y-71854961D01*
X118260761Y-71807342D01*
X118260761Y-71902580D01*
X117879809Y-70902580D02*
X117213142Y-70902580D01*
X117641714Y-71902580D01*
X116832190Y-71902580D02*
X116832190Y-70902580D01*
X116736952Y-71521628D02*
X116451238Y-71902580D01*
X116451238Y-71235914D02*
X116832190Y-71616866D01*
M02*
