%TF.GenerationSoftware,KiCad,Pcbnew,(5.1.7)-1*%
%TF.CreationDate,2022-01-16T10:28:54-05:00*%
%TF.ProjectId,reef-piHat,72656566-2d70-4694-9861-742e6b696361,rev?*%
%TF.SameCoordinates,Original*%
%TF.FileFunction,Soldermask,Top*%
%TF.FilePolarity,Negative*%
%FSLAX46Y46*%
G04 Gerber Fmt 4.6, Leading zero omitted, Abs format (unit mm)*
G04 Created by KiCad (PCBNEW (5.1.7)-1) date 2022-01-16 10:28:54*
%MOMM*%
%LPD*%
G01*
G04 APERTURE LIST*
%TA.AperFunction,Profile*%
%ADD10C,0.100000*%
%TD*%
%ADD11O,1.900000X1.900000*%
%ADD12O,1.900000X2.200000*%
%ADD13O,1.900000X2.150000*%
%ADD14C,3.200000*%
%ADD15C,0.100000*%
G04 APERTURE END LIST*
D10*
X78546356Y-63817611D02*
X78546356Y-113817611D01*
X78546356Y-63817611D02*
G75*
G02*
X81546356Y-60817611I3000000J0D01*
G01*
X140546356Y-60817611D02*
X81546356Y-60817611D01*
X140546356Y-60817611D02*
G75*
G02*
X143546356Y-63817611I0J-3000000D01*
G01*
X143546356Y-113817611D02*
X143546356Y-63817611D01*
X81546356Y-116817611D02*
G75*
G02*
X78546356Y-113817611I0J3000000D01*
G01*
X81546356Y-116817611D02*
X140546356Y-116817611D01*
X143546351Y-113822847D02*
G75*
G02*
X140546356Y-116817611I-2999995J5236D01*
G01*
X78546356Y-63817611D02*
X78546356Y-113817611D01*
X78546356Y-63817611D02*
G75*
G02*
X81546356Y-60817611I3000000J0D01*
G01*
X140546356Y-60817611D02*
X81546356Y-60817611D01*
X140546356Y-60817611D02*
G75*
G02*
X143546356Y-63817611I0J-3000000D01*
G01*
X143546356Y-113817611D02*
X143546356Y-63817611D01*
X81546356Y-116817611D02*
G75*
G02*
X78546356Y-113817611I0J3000000D01*
G01*
X81546356Y-116817611D02*
X140546356Y-116817611D01*
X143546351Y-113822847D02*
G75*
G02*
X140546356Y-116817611I-2999995J5236D01*
G01*
G36*
G01*
X103205000Y-112820000D02*
X102555000Y-112820000D01*
G75*
G02*
X102455000Y-112720000I0J100000D01*
G01*
X102455000Y-111660000D01*
G75*
G02*
X102555000Y-111560000I100000J0D01*
G01*
X103205000Y-111560000D01*
G75*
G02*
X103305000Y-111660000I0J-100000D01*
G01*
X103305000Y-112720000D01*
G75*
G02*
X103205000Y-112820000I-100000J0D01*
G01*
G37*
G36*
G01*
X102255000Y-112820000D02*
X101605000Y-112820000D01*
G75*
G02*
X101505000Y-112720000I0J100000D01*
G01*
X101505000Y-111660000D01*
G75*
G02*
X101605000Y-111560000I100000J0D01*
G01*
X102255000Y-111560000D01*
G75*
G02*
X102355000Y-111660000I0J-100000D01*
G01*
X102355000Y-112720000D01*
G75*
G02*
X102255000Y-112820000I-100000J0D01*
G01*
G37*
G36*
G01*
X104155000Y-112820000D02*
X103505000Y-112820000D01*
G75*
G02*
X103405000Y-112720000I0J100000D01*
G01*
X103405000Y-111660000D01*
G75*
G02*
X103505000Y-111560000I100000J0D01*
G01*
X104155000Y-111560000D01*
G75*
G02*
X104255000Y-111660000I0J-100000D01*
G01*
X104255000Y-112720000D01*
G75*
G02*
X104155000Y-112820000I-100000J0D01*
G01*
G37*
G36*
G01*
X104155000Y-115020000D02*
X103505000Y-115020000D01*
G75*
G02*
X103405000Y-114920000I0J100000D01*
G01*
X103405000Y-113860000D01*
G75*
G02*
X103505000Y-113760000I100000J0D01*
G01*
X104155000Y-113760000D01*
G75*
G02*
X104255000Y-113860000I0J-100000D01*
G01*
X104255000Y-114920000D01*
G75*
G02*
X104155000Y-115020000I-100000J0D01*
G01*
G37*
G36*
G01*
X103205000Y-115020000D02*
X102555000Y-115020000D01*
G75*
G02*
X102455000Y-114920000I0J100000D01*
G01*
X102455000Y-113860000D01*
G75*
G02*
X102555000Y-113760000I100000J0D01*
G01*
X103205000Y-113760000D01*
G75*
G02*
X103305000Y-113860000I0J-100000D01*
G01*
X103305000Y-114920000D01*
G75*
G02*
X103205000Y-115020000I-100000J0D01*
G01*
G37*
G36*
G01*
X102255000Y-115020000D02*
X101605000Y-115020000D01*
G75*
G02*
X101505000Y-114920000I0J100000D01*
G01*
X101505000Y-113860000D01*
G75*
G02*
X101605000Y-113760000I100000J0D01*
G01*
X102255000Y-113760000D01*
G75*
G02*
X102355000Y-113860000I0J-100000D01*
G01*
X102355000Y-114920000D01*
G75*
G02*
X102255000Y-115020000I-100000J0D01*
G01*
G37*
G36*
G01*
X110891200Y-108012600D02*
X110891200Y-108412600D01*
G75*
G02*
X110791200Y-108512600I-100000J0D01*
G01*
X109691200Y-108512600D01*
G75*
G02*
X109591200Y-108412600I0J100000D01*
G01*
X109591200Y-108012600D01*
G75*
G02*
X109691200Y-107912600I100000J0D01*
G01*
X110791200Y-107912600D01*
G75*
G02*
X110891200Y-108012600I0J-100000D01*
G01*
G37*
G36*
G01*
X110891200Y-107362600D02*
X110891200Y-107762600D01*
G75*
G02*
X110791200Y-107862600I-100000J0D01*
G01*
X109691200Y-107862600D01*
G75*
G02*
X109591200Y-107762600I0J100000D01*
G01*
X109591200Y-107362600D01*
G75*
G02*
X109691200Y-107262600I100000J0D01*
G01*
X110791200Y-107262600D01*
G75*
G02*
X110891200Y-107362600I0J-100000D01*
G01*
G37*
G36*
G01*
X110891200Y-106712600D02*
X110891200Y-107112600D01*
G75*
G02*
X110791200Y-107212600I-100000J0D01*
G01*
X109691200Y-107212600D01*
G75*
G02*
X109591200Y-107112600I0J100000D01*
G01*
X109591200Y-106712600D01*
G75*
G02*
X109691200Y-106612600I100000J0D01*
G01*
X110791200Y-106612600D01*
G75*
G02*
X110891200Y-106712600I0J-100000D01*
G01*
G37*
G36*
G01*
X110891200Y-106062600D02*
X110891200Y-106462600D01*
G75*
G02*
X110791200Y-106562600I-100000J0D01*
G01*
X109691200Y-106562600D01*
G75*
G02*
X109591200Y-106462600I0J100000D01*
G01*
X109591200Y-106062600D01*
G75*
G02*
X109691200Y-105962600I100000J0D01*
G01*
X110791200Y-105962600D01*
G75*
G02*
X110891200Y-106062600I0J-100000D01*
G01*
G37*
G36*
G01*
X110891200Y-105412600D02*
X110891200Y-105812600D01*
G75*
G02*
X110791200Y-105912600I-100000J0D01*
G01*
X109691200Y-105912600D01*
G75*
G02*
X109591200Y-105812600I0J100000D01*
G01*
X109591200Y-105412600D01*
G75*
G02*
X109691200Y-105312600I100000J0D01*
G01*
X110791200Y-105312600D01*
G75*
G02*
X110891200Y-105412600I0J-100000D01*
G01*
G37*
G36*
G01*
X110891200Y-104762600D02*
X110891200Y-105162600D01*
G75*
G02*
X110791200Y-105262600I-100000J0D01*
G01*
X109691200Y-105262600D01*
G75*
G02*
X109591200Y-105162600I0J100000D01*
G01*
X109591200Y-104762600D01*
G75*
G02*
X109691200Y-104662600I100000J0D01*
G01*
X110791200Y-104662600D01*
G75*
G02*
X110891200Y-104762600I0J-100000D01*
G01*
G37*
G36*
G01*
X110891200Y-104112600D02*
X110891200Y-104512600D01*
G75*
G02*
X110791200Y-104612600I-100000J0D01*
G01*
X109691200Y-104612600D01*
G75*
G02*
X109591200Y-104512600I0J100000D01*
G01*
X109591200Y-104112600D01*
G75*
G02*
X109691200Y-104012600I100000J0D01*
G01*
X110791200Y-104012600D01*
G75*
G02*
X110891200Y-104112600I0J-100000D01*
G01*
G37*
G36*
G01*
X110891200Y-103462600D02*
X110891200Y-103862600D01*
G75*
G02*
X110791200Y-103962600I-100000J0D01*
G01*
X109691200Y-103962600D01*
G75*
G02*
X109591200Y-103862600I0J100000D01*
G01*
X109591200Y-103462600D01*
G75*
G02*
X109691200Y-103362600I100000J0D01*
G01*
X110791200Y-103362600D01*
G75*
G02*
X110891200Y-103462600I0J-100000D01*
G01*
G37*
G36*
G01*
X110891200Y-102812600D02*
X110891200Y-103212600D01*
G75*
G02*
X110791200Y-103312600I-100000J0D01*
G01*
X109691200Y-103312600D01*
G75*
G02*
X109591200Y-103212600I0J100000D01*
G01*
X109591200Y-102812600D01*
G75*
G02*
X109691200Y-102712600I100000J0D01*
G01*
X110791200Y-102712600D01*
G75*
G02*
X110891200Y-102812600I0J-100000D01*
G01*
G37*
G36*
G01*
X110891200Y-102162600D02*
X110891200Y-102562600D01*
G75*
G02*
X110791200Y-102662600I-100000J0D01*
G01*
X109691200Y-102662600D01*
G75*
G02*
X109591200Y-102562600I0J100000D01*
G01*
X109591200Y-102162600D01*
G75*
G02*
X109691200Y-102062600I100000J0D01*
G01*
X110791200Y-102062600D01*
G75*
G02*
X110891200Y-102162600I0J-100000D01*
G01*
G37*
G36*
G01*
X110891200Y-101512600D02*
X110891200Y-101912600D01*
G75*
G02*
X110791200Y-102012600I-100000J0D01*
G01*
X109691200Y-102012600D01*
G75*
G02*
X109591200Y-101912600I0J100000D01*
G01*
X109591200Y-101512600D01*
G75*
G02*
X109691200Y-101412600I100000J0D01*
G01*
X110791200Y-101412600D01*
G75*
G02*
X110891200Y-101512600I0J-100000D01*
G01*
G37*
G36*
G01*
X110891200Y-100862600D02*
X110891200Y-101262600D01*
G75*
G02*
X110791200Y-101362600I-100000J0D01*
G01*
X109691200Y-101362600D01*
G75*
G02*
X109591200Y-101262600I0J100000D01*
G01*
X109591200Y-100862600D01*
G75*
G02*
X109691200Y-100762600I100000J0D01*
G01*
X110791200Y-100762600D01*
G75*
G02*
X110891200Y-100862600I0J-100000D01*
G01*
G37*
G36*
G01*
X110891200Y-100212600D02*
X110891200Y-100612600D01*
G75*
G02*
X110791200Y-100712600I-100000J0D01*
G01*
X109691200Y-100712600D01*
G75*
G02*
X109591200Y-100612600I0J100000D01*
G01*
X109591200Y-100212600D01*
G75*
G02*
X109691200Y-100112600I100000J0D01*
G01*
X110791200Y-100112600D01*
G75*
G02*
X110891200Y-100212600I0J-100000D01*
G01*
G37*
G36*
G01*
X110891200Y-99562600D02*
X110891200Y-99962600D01*
G75*
G02*
X110791200Y-100062600I-100000J0D01*
G01*
X109691200Y-100062600D01*
G75*
G02*
X109591200Y-99962600I0J100000D01*
G01*
X109591200Y-99562600D01*
G75*
G02*
X109691200Y-99462600I100000J0D01*
G01*
X110791200Y-99462600D01*
G75*
G02*
X110891200Y-99562600I0J-100000D01*
G01*
G37*
G36*
G01*
X105191200Y-99562600D02*
X105191200Y-99962600D01*
G75*
G02*
X105091200Y-100062600I-100000J0D01*
G01*
X103991200Y-100062600D01*
G75*
G02*
X103891200Y-99962600I0J100000D01*
G01*
X103891200Y-99562600D01*
G75*
G02*
X103991200Y-99462600I100000J0D01*
G01*
X105091200Y-99462600D01*
G75*
G02*
X105191200Y-99562600I0J-100000D01*
G01*
G37*
G36*
G01*
X105191200Y-100212600D02*
X105191200Y-100612600D01*
G75*
G02*
X105091200Y-100712600I-100000J0D01*
G01*
X103991200Y-100712600D01*
G75*
G02*
X103891200Y-100612600I0J100000D01*
G01*
X103891200Y-100212600D01*
G75*
G02*
X103991200Y-100112600I100000J0D01*
G01*
X105091200Y-100112600D01*
G75*
G02*
X105191200Y-100212600I0J-100000D01*
G01*
G37*
G36*
G01*
X105191200Y-100862600D02*
X105191200Y-101262600D01*
G75*
G02*
X105091200Y-101362600I-100000J0D01*
G01*
X103991200Y-101362600D01*
G75*
G02*
X103891200Y-101262600I0J100000D01*
G01*
X103891200Y-100862600D01*
G75*
G02*
X103991200Y-100762600I100000J0D01*
G01*
X105091200Y-100762600D01*
G75*
G02*
X105191200Y-100862600I0J-100000D01*
G01*
G37*
G36*
G01*
X105191200Y-101512600D02*
X105191200Y-101912600D01*
G75*
G02*
X105091200Y-102012600I-100000J0D01*
G01*
X103991200Y-102012600D01*
G75*
G02*
X103891200Y-101912600I0J100000D01*
G01*
X103891200Y-101512600D01*
G75*
G02*
X103991200Y-101412600I100000J0D01*
G01*
X105091200Y-101412600D01*
G75*
G02*
X105191200Y-101512600I0J-100000D01*
G01*
G37*
G36*
G01*
X105191200Y-102162600D02*
X105191200Y-102562600D01*
G75*
G02*
X105091200Y-102662600I-100000J0D01*
G01*
X103991200Y-102662600D01*
G75*
G02*
X103891200Y-102562600I0J100000D01*
G01*
X103891200Y-102162600D01*
G75*
G02*
X103991200Y-102062600I100000J0D01*
G01*
X105091200Y-102062600D01*
G75*
G02*
X105191200Y-102162600I0J-100000D01*
G01*
G37*
G36*
G01*
X105191200Y-102812600D02*
X105191200Y-103212600D01*
G75*
G02*
X105091200Y-103312600I-100000J0D01*
G01*
X103991200Y-103312600D01*
G75*
G02*
X103891200Y-103212600I0J100000D01*
G01*
X103891200Y-102812600D01*
G75*
G02*
X103991200Y-102712600I100000J0D01*
G01*
X105091200Y-102712600D01*
G75*
G02*
X105191200Y-102812600I0J-100000D01*
G01*
G37*
G36*
G01*
X105191200Y-103462600D02*
X105191200Y-103862600D01*
G75*
G02*
X105091200Y-103962600I-100000J0D01*
G01*
X103991200Y-103962600D01*
G75*
G02*
X103891200Y-103862600I0J100000D01*
G01*
X103891200Y-103462600D01*
G75*
G02*
X103991200Y-103362600I100000J0D01*
G01*
X105091200Y-103362600D01*
G75*
G02*
X105191200Y-103462600I0J-100000D01*
G01*
G37*
G36*
G01*
X105191200Y-104112600D02*
X105191200Y-104512600D01*
G75*
G02*
X105091200Y-104612600I-100000J0D01*
G01*
X103991200Y-104612600D01*
G75*
G02*
X103891200Y-104512600I0J100000D01*
G01*
X103891200Y-104112600D01*
G75*
G02*
X103991200Y-104012600I100000J0D01*
G01*
X105091200Y-104012600D01*
G75*
G02*
X105191200Y-104112600I0J-100000D01*
G01*
G37*
G36*
G01*
X105191200Y-104762600D02*
X105191200Y-105162600D01*
G75*
G02*
X105091200Y-105262600I-100000J0D01*
G01*
X103991200Y-105262600D01*
G75*
G02*
X103891200Y-105162600I0J100000D01*
G01*
X103891200Y-104762600D01*
G75*
G02*
X103991200Y-104662600I100000J0D01*
G01*
X105091200Y-104662600D01*
G75*
G02*
X105191200Y-104762600I0J-100000D01*
G01*
G37*
G36*
G01*
X105191200Y-105412600D02*
X105191200Y-105812600D01*
G75*
G02*
X105091200Y-105912600I-100000J0D01*
G01*
X103991200Y-105912600D01*
G75*
G02*
X103891200Y-105812600I0J100000D01*
G01*
X103891200Y-105412600D01*
G75*
G02*
X103991200Y-105312600I100000J0D01*
G01*
X105091200Y-105312600D01*
G75*
G02*
X105191200Y-105412600I0J-100000D01*
G01*
G37*
G36*
G01*
X105191200Y-106062600D02*
X105191200Y-106462600D01*
G75*
G02*
X105091200Y-106562600I-100000J0D01*
G01*
X103991200Y-106562600D01*
G75*
G02*
X103891200Y-106462600I0J100000D01*
G01*
X103891200Y-106062600D01*
G75*
G02*
X103991200Y-105962600I100000J0D01*
G01*
X105091200Y-105962600D01*
G75*
G02*
X105191200Y-106062600I0J-100000D01*
G01*
G37*
G36*
G01*
X105191200Y-106712600D02*
X105191200Y-107112600D01*
G75*
G02*
X105091200Y-107212600I-100000J0D01*
G01*
X103991200Y-107212600D01*
G75*
G02*
X103891200Y-107112600I0J100000D01*
G01*
X103891200Y-106712600D01*
G75*
G02*
X103991200Y-106612600I100000J0D01*
G01*
X105091200Y-106612600D01*
G75*
G02*
X105191200Y-106712600I0J-100000D01*
G01*
G37*
G36*
G01*
X105191200Y-107362600D02*
X105191200Y-107762600D01*
G75*
G02*
X105091200Y-107862600I-100000J0D01*
G01*
X103991200Y-107862600D01*
G75*
G02*
X103891200Y-107762600I0J100000D01*
G01*
X103891200Y-107362600D01*
G75*
G02*
X103991200Y-107262600I100000J0D01*
G01*
X105091200Y-107262600D01*
G75*
G02*
X105191200Y-107362600I0J-100000D01*
G01*
G37*
G36*
G01*
X105191200Y-108012600D02*
X105191200Y-108412600D01*
G75*
G02*
X105091200Y-108512600I-100000J0D01*
G01*
X103991200Y-108512600D01*
G75*
G02*
X103891200Y-108412600I0J100000D01*
G01*
X103891200Y-108012600D01*
G75*
G02*
X103991200Y-107912600I100000J0D01*
G01*
X105091200Y-107912600D01*
G75*
G02*
X105191200Y-108012600I0J-100000D01*
G01*
G37*
G36*
G01*
X134520000Y-84490000D02*
X134520000Y-83990000D01*
G75*
G02*
X134620000Y-83890000I100000J0D01*
G01*
X135420000Y-83890000D01*
G75*
G02*
X135520000Y-83990000I0J-100000D01*
G01*
X135520000Y-84490000D01*
G75*
G02*
X135420000Y-84590000I-100000J0D01*
G01*
X134620000Y-84590000D01*
G75*
G02*
X134520000Y-84490000I0J100000D01*
G01*
G37*
G36*
G01*
X134520000Y-86040000D02*
X134520000Y-85640000D01*
G75*
G02*
X134620000Y-85540000I100000J0D01*
G01*
X135420000Y-85540000D01*
G75*
G02*
X135520000Y-85640000I0J-100000D01*
G01*
X135520000Y-86040000D01*
G75*
G02*
X135420000Y-86140000I-100000J0D01*
G01*
X134620000Y-86140000D01*
G75*
G02*
X134520000Y-86040000I0J100000D01*
G01*
G37*
G36*
G01*
X134520000Y-85240000D02*
X134520000Y-84840000D01*
G75*
G02*
X134620000Y-84740000I100000J0D01*
G01*
X135420000Y-84740000D01*
G75*
G02*
X135520000Y-84840000I0J-100000D01*
G01*
X135520000Y-85240000D01*
G75*
G02*
X135420000Y-85340000I-100000J0D01*
G01*
X134620000Y-85340000D01*
G75*
G02*
X134520000Y-85240000I0J100000D01*
G01*
G37*
G36*
G01*
X134520000Y-86890000D02*
X134520000Y-86390000D01*
G75*
G02*
X134620000Y-86290000I100000J0D01*
G01*
X135420000Y-86290000D01*
G75*
G02*
X135520000Y-86390000I0J-100000D01*
G01*
X135520000Y-86890000D01*
G75*
G02*
X135420000Y-86990000I-100000J0D01*
G01*
X134620000Y-86990000D01*
G75*
G02*
X134520000Y-86890000I0J100000D01*
G01*
G37*
G36*
G01*
X136320000Y-85240000D02*
X136320000Y-84840000D01*
G75*
G02*
X136420000Y-84740000I100000J0D01*
G01*
X137220000Y-84740000D01*
G75*
G02*
X137320000Y-84840000I0J-100000D01*
G01*
X137320000Y-85240000D01*
G75*
G02*
X137220000Y-85340000I-100000J0D01*
G01*
X136420000Y-85340000D01*
G75*
G02*
X136320000Y-85240000I0J100000D01*
G01*
G37*
G36*
G01*
X136320000Y-84490000D02*
X136320000Y-83990000D01*
G75*
G02*
X136420000Y-83890000I100000J0D01*
G01*
X137220000Y-83890000D01*
G75*
G02*
X137320000Y-83990000I0J-100000D01*
G01*
X137320000Y-84490000D01*
G75*
G02*
X137220000Y-84590000I-100000J0D01*
G01*
X136420000Y-84590000D01*
G75*
G02*
X136320000Y-84490000I0J100000D01*
G01*
G37*
G36*
G01*
X136320000Y-86040000D02*
X136320000Y-85640000D01*
G75*
G02*
X136420000Y-85540000I100000J0D01*
G01*
X137220000Y-85540000D01*
G75*
G02*
X137320000Y-85640000I0J-100000D01*
G01*
X137320000Y-86040000D01*
G75*
G02*
X137220000Y-86140000I-100000J0D01*
G01*
X136420000Y-86140000D01*
G75*
G02*
X136320000Y-86040000I0J100000D01*
G01*
G37*
G36*
G01*
X136320000Y-86890000D02*
X136320000Y-86390000D01*
G75*
G02*
X136420000Y-86290000I100000J0D01*
G01*
X137220000Y-86290000D01*
G75*
G02*
X137320000Y-86390000I0J-100000D01*
G01*
X137320000Y-86890000D01*
G75*
G02*
X137220000Y-86990000I-100000J0D01*
G01*
X136420000Y-86990000D01*
G75*
G02*
X136320000Y-86890000I0J100000D01*
G01*
G37*
G36*
G01*
X137480000Y-99148000D02*
X137480000Y-97448000D01*
G75*
G02*
X137580000Y-97348000I100000J0D01*
G01*
X139280000Y-97348000D01*
G75*
G02*
X139380000Y-97448000I0J-100000D01*
G01*
X139380000Y-99148000D01*
G75*
G02*
X139280000Y-99248000I-100000J0D01*
G01*
X137580000Y-99248000D01*
G75*
G02*
X137480000Y-99148000I0J100000D01*
G01*
G37*
D11*
X140970000Y-98298000D03*
X138430000Y-100838000D03*
X140970000Y-100838000D03*
X138430000Y-103378000D03*
X140970000Y-103378000D03*
X138430000Y-105918000D03*
X140970000Y-105918000D03*
X138430000Y-108458000D03*
X140970000Y-108458000D03*
G36*
G01*
X96850000Y-113240000D02*
X96850000Y-114040000D01*
G75*
G02*
X96750000Y-114140000I-100000J0D01*
G01*
X95850000Y-114140000D01*
G75*
G02*
X95750000Y-114040000I0J100000D01*
G01*
X95750000Y-113240000D01*
G75*
G02*
X95850000Y-113140000I100000J0D01*
G01*
X96750000Y-113140000D01*
G75*
G02*
X96850000Y-113240000I0J-100000D01*
G01*
G37*
G36*
G01*
X98850000Y-112290000D02*
X98850000Y-113090000D01*
G75*
G02*
X98750000Y-113190000I-100000J0D01*
G01*
X97850000Y-113190000D01*
G75*
G02*
X97750000Y-113090000I0J100000D01*
G01*
X97750000Y-112290000D01*
G75*
G02*
X97850000Y-112190000I100000J0D01*
G01*
X98750000Y-112190000D01*
G75*
G02*
X98850000Y-112290000I0J-100000D01*
G01*
G37*
G36*
G01*
X98850000Y-114190000D02*
X98850000Y-114990000D01*
G75*
G02*
X98750000Y-115090000I-100000J0D01*
G01*
X97850000Y-115090000D01*
G75*
G02*
X97750000Y-114990000I0J100000D01*
G01*
X97750000Y-114190000D01*
G75*
G02*
X97850000Y-114090000I100000J0D01*
G01*
X98750000Y-114090000D01*
G75*
G02*
X98850000Y-114190000I0J-100000D01*
G01*
G37*
D12*
X130690000Y-113270000D03*
G36*
G01*
X134140000Y-112449300D02*
X134140000Y-114090700D01*
G75*
G02*
X133860700Y-114370000I-279300J0D01*
G01*
X132519300Y-114370000D01*
G75*
G02*
X132240000Y-114090700I0J279300D01*
G01*
X132240000Y-112449300D01*
G75*
G02*
X132519300Y-112170000I279300J0D01*
G01*
X133860700Y-112170000D01*
G75*
G02*
X134140000Y-112449300I0J-279300D01*
G01*
G37*
G36*
G01*
X106817000Y-110523500D02*
X106817000Y-109948500D01*
G75*
G02*
X107104500Y-109661000I287500J0D01*
G01*
X107779500Y-109661000D01*
G75*
G02*
X108067000Y-109948500I0J-287500D01*
G01*
X108067000Y-110523500D01*
G75*
G02*
X107779500Y-110811000I-287500J0D01*
G01*
X107104500Y-110811000D01*
G75*
G02*
X106817000Y-110523500I0J287500D01*
G01*
G37*
G36*
G01*
X105067000Y-110523500D02*
X105067000Y-109948500D01*
G75*
G02*
X105354500Y-109661000I287500J0D01*
G01*
X106029500Y-109661000D01*
G75*
G02*
X106317000Y-109948500I0J-287500D01*
G01*
X106317000Y-110523500D01*
G75*
G02*
X106029500Y-110811000I-287500J0D01*
G01*
X105354500Y-110811000D01*
G75*
G02*
X105067000Y-110523500I0J287500D01*
G01*
G37*
X88770000Y-113140000D03*
G36*
G01*
X92220000Y-112319300D02*
X92220000Y-113960700D01*
G75*
G02*
X91940700Y-114240000I-279300J0D01*
G01*
X90599300Y-114240000D01*
G75*
G02*
X90320000Y-113960700I0J279300D01*
G01*
X90320000Y-112319300D01*
G75*
G02*
X90599300Y-112040000I279300J0D01*
G01*
X91940700Y-112040000D01*
G75*
G02*
X92220000Y-112319300I0J-279300D01*
G01*
G37*
D13*
X114380000Y-80692625D03*
X116880000Y-80692625D03*
G36*
G01*
X120330000Y-79897036D02*
X120330000Y-81488214D01*
G75*
G02*
X120050589Y-81767625I-279411J0D01*
G01*
X118709411Y-81767625D01*
G75*
G02*
X118430000Y-81488214I0J279411D01*
G01*
X118430000Y-79897036D01*
G75*
G02*
X118709411Y-79617625I279411J0D01*
G01*
X120050589Y-79617625D01*
G75*
G02*
X120330000Y-79897036I0J-279411D01*
G01*
G37*
G36*
G01*
X91614183Y-104042911D02*
X91614183Y-105634089D01*
G75*
G02*
X91334772Y-105913500I-279411J0D01*
G01*
X89993594Y-105913500D01*
G75*
G02*
X89714183Y-105634089I0J279411D01*
G01*
X89714183Y-104042911D01*
G75*
G02*
X89993594Y-103763500I279411J0D01*
G01*
X91334772Y-103763500D01*
G75*
G02*
X91614183Y-104042911I0J-279411D01*
G01*
G37*
X88164183Y-104838500D03*
X85664183Y-104838500D03*
X83164183Y-104838500D03*
G36*
G01*
X86070000Y-64640000D02*
X87770000Y-64640000D01*
G75*
G02*
X87870000Y-64740000I0J-100000D01*
G01*
X87870000Y-66440000D01*
G75*
G02*
X87770000Y-66540000I-100000J0D01*
G01*
X86070000Y-66540000D01*
G75*
G02*
X85970000Y-66440000I0J100000D01*
G01*
X85970000Y-64740000D01*
G75*
G02*
X86070000Y-64640000I100000J0D01*
G01*
G37*
D11*
X86920000Y-63050000D03*
X89460000Y-65590000D03*
X89460000Y-63050000D03*
X92000000Y-65590000D03*
X92000000Y-63050000D03*
X94540000Y-65590000D03*
X94540000Y-63050000D03*
X97080000Y-65590000D03*
X97080000Y-63050000D03*
X99620000Y-65590000D03*
X99620000Y-63050000D03*
X102160000Y-65590000D03*
X102160000Y-63050000D03*
X104700000Y-65590000D03*
X104700000Y-63050000D03*
X107240000Y-65590000D03*
X107240000Y-63050000D03*
X109780000Y-65590000D03*
X109780000Y-63050000D03*
X112320000Y-65590000D03*
X112320000Y-63050000D03*
X114860000Y-65590000D03*
X114860000Y-63050000D03*
X117400000Y-65590000D03*
X117400000Y-63050000D03*
X119940000Y-65590000D03*
X119940000Y-63050000D03*
X122480000Y-65590000D03*
X122480000Y-63050000D03*
X125020000Y-65590000D03*
X125020000Y-63050000D03*
X127560000Y-65590000D03*
X127560000Y-63050000D03*
X130100000Y-65590000D03*
X130100000Y-63050000D03*
X132640000Y-65590000D03*
X132640000Y-63050000D03*
X135180000Y-65590000D03*
X135180000Y-63050000D03*
D14*
X82040000Y-64310000D03*
X140040000Y-64330000D03*
X82040000Y-113320000D03*
X140030000Y-113310000D03*
D13*
X98772091Y-88741250D03*
X101272091Y-88741250D03*
X103772091Y-88741250D03*
G36*
G01*
X107222091Y-87945661D02*
X107222091Y-89536839D01*
G75*
G02*
X106942680Y-89816250I-279411J0D01*
G01*
X105601502Y-89816250D01*
G75*
G02*
X105322091Y-89536839I0J279411D01*
G01*
X105322091Y-87945661D01*
G75*
G02*
X105601502Y-87666250I279411J0D01*
G01*
X106942680Y-87666250D01*
G75*
G02*
X107222091Y-87945661I0J-279411D01*
G01*
G37*
G36*
G01*
X91614183Y-95994286D02*
X91614183Y-97585464D01*
G75*
G02*
X91334772Y-97864875I-279411J0D01*
G01*
X89993594Y-97864875D01*
G75*
G02*
X89714183Y-97585464I0J279411D01*
G01*
X89714183Y-95994286D01*
G75*
G02*
X89993594Y-95714875I279411J0D01*
G01*
X91334772Y-95714875D01*
G75*
G02*
X91614183Y-95994286I0J-279411D01*
G01*
G37*
X88164183Y-96789875D03*
X85664183Y-96789875D03*
X83164183Y-96789875D03*
G36*
G01*
X107222091Y-71848411D02*
X107222091Y-73439589D01*
G75*
G02*
X106942680Y-73719000I-279411J0D01*
G01*
X105601502Y-73719000D01*
G75*
G02*
X105322091Y-73439589I0J279411D01*
G01*
X105322091Y-71848411D01*
G75*
G02*
X105601502Y-71569000I279411J0D01*
G01*
X106942680Y-71569000D01*
G75*
G02*
X107222091Y-71848411I0J-279411D01*
G01*
G37*
X103772091Y-72644000D03*
X101272091Y-72644000D03*
X98772091Y-72644000D03*
X98772091Y-80692625D03*
X101272091Y-80692625D03*
X103772091Y-80692625D03*
G36*
G01*
X107222091Y-79897036D02*
X107222091Y-81488214D01*
G75*
G02*
X106942680Y-81767625I-279411J0D01*
G01*
X105601502Y-81767625D01*
G75*
G02*
X105322091Y-81488214I0J279411D01*
G01*
X105322091Y-79897036D01*
G75*
G02*
X105601502Y-79617625I279411J0D01*
G01*
X106942680Y-79617625D01*
G75*
G02*
X107222091Y-79897036I0J-279411D01*
G01*
G37*
G36*
G01*
X91614183Y-71848411D02*
X91614183Y-73439589D01*
G75*
G02*
X91334772Y-73719000I-279411J0D01*
G01*
X89993594Y-73719000D01*
G75*
G02*
X89714183Y-73439589I0J279411D01*
G01*
X89714183Y-71848411D01*
G75*
G02*
X89993594Y-71569000I279411J0D01*
G01*
X91334772Y-71569000D01*
G75*
G02*
X91614183Y-71848411I0J-279411D01*
G01*
G37*
X88164183Y-72644000D03*
X85664183Y-72644000D03*
X83164183Y-72644000D03*
X83164183Y-80692625D03*
X85664183Y-80692625D03*
X88164183Y-80692625D03*
G36*
G01*
X91614183Y-79897036D02*
X91614183Y-81488214D01*
G75*
G02*
X91334772Y-81767625I-279411J0D01*
G01*
X89993594Y-81767625D01*
G75*
G02*
X89714183Y-81488214I0J279411D01*
G01*
X89714183Y-79897036D01*
G75*
G02*
X89993594Y-79617625I279411J0D01*
G01*
X91334772Y-79617625D01*
G75*
G02*
X91614183Y-79897036I0J-279411D01*
G01*
G37*
G36*
G01*
X120330000Y-71848411D02*
X120330000Y-73439589D01*
G75*
G02*
X120050589Y-73719000I-279411J0D01*
G01*
X118709411Y-73719000D01*
G75*
G02*
X118430000Y-73439589I0J279411D01*
G01*
X118430000Y-71848411D01*
G75*
G02*
X118709411Y-71569000I279411J0D01*
G01*
X120050589Y-71569000D01*
G75*
G02*
X120330000Y-71848411I0J-279411D01*
G01*
G37*
X116880000Y-72644000D03*
X114380000Y-72644000D03*
G36*
G01*
X120330000Y-87945661D02*
X120330000Y-89536839D01*
G75*
G02*
X120050589Y-89816250I-279411J0D01*
G01*
X118709411Y-89816250D01*
G75*
G02*
X118430000Y-89536839I0J279411D01*
G01*
X118430000Y-87945661D01*
G75*
G02*
X118709411Y-87666250I279411J0D01*
G01*
X120050589Y-87666250D01*
G75*
G02*
X120330000Y-87945661I0J-279411D01*
G01*
G37*
X116880000Y-88741250D03*
X114380000Y-88741250D03*
G36*
G01*
X124095000Y-96280000D02*
X124095000Y-95680000D01*
G75*
G02*
X124195000Y-95580000I100000J0D01*
G01*
X125920000Y-95580000D01*
G75*
G02*
X126020000Y-95680000I0J-100000D01*
G01*
X126020000Y-96280000D01*
G75*
G02*
X125920000Y-96380000I-100000J0D01*
G01*
X124195000Y-96380000D01*
G75*
G02*
X124095000Y-96280000I0J100000D01*
G01*
G37*
G36*
G01*
X124095000Y-97550000D02*
X124095000Y-96950000D01*
G75*
G02*
X124195000Y-96850000I100000J0D01*
G01*
X125920000Y-96850000D01*
G75*
G02*
X126020000Y-96950000I0J-100000D01*
G01*
X126020000Y-97550000D01*
G75*
G02*
X125920000Y-97650000I-100000J0D01*
G01*
X124195000Y-97650000D01*
G75*
G02*
X124095000Y-97550000I0J100000D01*
G01*
G37*
G36*
G01*
X124095000Y-98820000D02*
X124095000Y-98220000D01*
G75*
G02*
X124195000Y-98120000I100000J0D01*
G01*
X125920000Y-98120000D01*
G75*
G02*
X126020000Y-98220000I0J-100000D01*
G01*
X126020000Y-98820000D01*
G75*
G02*
X125920000Y-98920000I-100000J0D01*
G01*
X124195000Y-98920000D01*
G75*
G02*
X124095000Y-98820000I0J100000D01*
G01*
G37*
G36*
G01*
X124095000Y-100090000D02*
X124095000Y-99490000D01*
G75*
G02*
X124195000Y-99390000I100000J0D01*
G01*
X125920000Y-99390000D01*
G75*
G02*
X126020000Y-99490000I0J-100000D01*
G01*
X126020000Y-100090000D01*
G75*
G02*
X125920000Y-100190000I-100000J0D01*
G01*
X124195000Y-100190000D01*
G75*
G02*
X124095000Y-100090000I0J100000D01*
G01*
G37*
G36*
G01*
X124095000Y-101360000D02*
X124095000Y-100760000D01*
G75*
G02*
X124195000Y-100660000I100000J0D01*
G01*
X125920000Y-100660000D01*
G75*
G02*
X126020000Y-100760000I0J-100000D01*
G01*
X126020000Y-101360000D01*
G75*
G02*
X125920000Y-101460000I-100000J0D01*
G01*
X124195000Y-101460000D01*
G75*
G02*
X124095000Y-101360000I0J100000D01*
G01*
G37*
G36*
G01*
X124095000Y-102630000D02*
X124095000Y-102030000D01*
G75*
G02*
X124195000Y-101930000I100000J0D01*
G01*
X125920000Y-101930000D01*
G75*
G02*
X126020000Y-102030000I0J-100000D01*
G01*
X126020000Y-102630000D01*
G75*
G02*
X125920000Y-102730000I-100000J0D01*
G01*
X124195000Y-102730000D01*
G75*
G02*
X124095000Y-102630000I0J100000D01*
G01*
G37*
G36*
G01*
X124095000Y-103900000D02*
X124095000Y-103300000D01*
G75*
G02*
X124195000Y-103200000I100000J0D01*
G01*
X125920000Y-103200000D01*
G75*
G02*
X126020000Y-103300000I0J-100000D01*
G01*
X126020000Y-103900000D01*
G75*
G02*
X125920000Y-104000000I-100000J0D01*
G01*
X124195000Y-104000000D01*
G75*
G02*
X124095000Y-103900000I0J100000D01*
G01*
G37*
G36*
G01*
X124095000Y-105170000D02*
X124095000Y-104570000D01*
G75*
G02*
X124195000Y-104470000I100000J0D01*
G01*
X125920000Y-104470000D01*
G75*
G02*
X126020000Y-104570000I0J-100000D01*
G01*
X126020000Y-105170000D01*
G75*
G02*
X125920000Y-105270000I-100000J0D01*
G01*
X124195000Y-105270000D01*
G75*
G02*
X124095000Y-105170000I0J100000D01*
G01*
G37*
G36*
G01*
X124095000Y-106440000D02*
X124095000Y-105840000D01*
G75*
G02*
X124195000Y-105740000I100000J0D01*
G01*
X125920000Y-105740000D01*
G75*
G02*
X126020000Y-105840000I0J-100000D01*
G01*
X126020000Y-106440000D01*
G75*
G02*
X125920000Y-106540000I-100000J0D01*
G01*
X124195000Y-106540000D01*
G75*
G02*
X124095000Y-106440000I0J100000D01*
G01*
G37*
G36*
G01*
X132820000Y-96280000D02*
X132820000Y-95680000D01*
G75*
G02*
X132920000Y-95580000I100000J0D01*
G01*
X134645000Y-95580000D01*
G75*
G02*
X134745000Y-95680000I0J-100000D01*
G01*
X134745000Y-96280000D01*
G75*
G02*
X134645000Y-96380000I-100000J0D01*
G01*
X132920000Y-96380000D01*
G75*
G02*
X132820000Y-96280000I0J100000D01*
G01*
G37*
G36*
G01*
X132820000Y-97550000D02*
X132820000Y-96950000D01*
G75*
G02*
X132920000Y-96850000I100000J0D01*
G01*
X134645000Y-96850000D01*
G75*
G02*
X134745000Y-96950000I0J-100000D01*
G01*
X134745000Y-97550000D01*
G75*
G02*
X134645000Y-97650000I-100000J0D01*
G01*
X132920000Y-97650000D01*
G75*
G02*
X132820000Y-97550000I0J100000D01*
G01*
G37*
G36*
G01*
X132820000Y-98820000D02*
X132820000Y-98220000D01*
G75*
G02*
X132920000Y-98120000I100000J0D01*
G01*
X134645000Y-98120000D01*
G75*
G02*
X134745000Y-98220000I0J-100000D01*
G01*
X134745000Y-98820000D01*
G75*
G02*
X134645000Y-98920000I-100000J0D01*
G01*
X132920000Y-98920000D01*
G75*
G02*
X132820000Y-98820000I0J100000D01*
G01*
G37*
G36*
G01*
X132820000Y-100090000D02*
X132820000Y-99490000D01*
G75*
G02*
X132920000Y-99390000I100000J0D01*
G01*
X134645000Y-99390000D01*
G75*
G02*
X134745000Y-99490000I0J-100000D01*
G01*
X134745000Y-100090000D01*
G75*
G02*
X134645000Y-100190000I-100000J0D01*
G01*
X132920000Y-100190000D01*
G75*
G02*
X132820000Y-100090000I0J100000D01*
G01*
G37*
G36*
G01*
X132820000Y-101360000D02*
X132820000Y-100760000D01*
G75*
G02*
X132920000Y-100660000I100000J0D01*
G01*
X134645000Y-100660000D01*
G75*
G02*
X134745000Y-100760000I0J-100000D01*
G01*
X134745000Y-101360000D01*
G75*
G02*
X134645000Y-101460000I-100000J0D01*
G01*
X132920000Y-101460000D01*
G75*
G02*
X132820000Y-101360000I0J100000D01*
G01*
G37*
G36*
G01*
X132820000Y-102630000D02*
X132820000Y-102030000D01*
G75*
G02*
X132920000Y-101930000I100000J0D01*
G01*
X134645000Y-101930000D01*
G75*
G02*
X134745000Y-102030000I0J-100000D01*
G01*
X134745000Y-102630000D01*
G75*
G02*
X134645000Y-102730000I-100000J0D01*
G01*
X132920000Y-102730000D01*
G75*
G02*
X132820000Y-102630000I0J100000D01*
G01*
G37*
G36*
G01*
X132820000Y-103900000D02*
X132820000Y-103300000D01*
G75*
G02*
X132920000Y-103200000I100000J0D01*
G01*
X134645000Y-103200000D01*
G75*
G02*
X134745000Y-103300000I0J-100000D01*
G01*
X134745000Y-103900000D01*
G75*
G02*
X134645000Y-104000000I-100000J0D01*
G01*
X132920000Y-104000000D01*
G75*
G02*
X132820000Y-103900000I0J100000D01*
G01*
G37*
G36*
G01*
X132820000Y-105170000D02*
X132820000Y-104570000D01*
G75*
G02*
X132920000Y-104470000I100000J0D01*
G01*
X134645000Y-104470000D01*
G75*
G02*
X134745000Y-104570000I0J-100000D01*
G01*
X134745000Y-105170000D01*
G75*
G02*
X134645000Y-105270000I-100000J0D01*
G01*
X132920000Y-105270000D01*
G75*
G02*
X132820000Y-105170000I0J100000D01*
G01*
G37*
G36*
G01*
X132820000Y-106440000D02*
X132820000Y-105840000D01*
G75*
G02*
X132920000Y-105740000I100000J0D01*
G01*
X134645000Y-105740000D01*
G75*
G02*
X134745000Y-105840000I0J-100000D01*
G01*
X134745000Y-106440000D01*
G75*
G02*
X134645000Y-106540000I-100000J0D01*
G01*
X132920000Y-106540000D01*
G75*
G02*
X132820000Y-106440000I0J100000D01*
G01*
G37*
G36*
G01*
X141920000Y-91606000D02*
X141920000Y-93306000D01*
G75*
G02*
X141820000Y-93406000I-100000J0D01*
G01*
X140120000Y-93406000D01*
G75*
G02*
X140020000Y-93306000I0J100000D01*
G01*
X140020000Y-91606000D01*
G75*
G02*
X140120000Y-91506000I100000J0D01*
G01*
X141820000Y-91506000D01*
G75*
G02*
X141920000Y-91606000I0J-100000D01*
G01*
G37*
D11*
X140970000Y-89916000D03*
X140970000Y-87376000D03*
X140970000Y-84836000D03*
X140970000Y-82296000D03*
X140970000Y-79756000D03*
X140970000Y-77216000D03*
X140970000Y-74676000D03*
X140970000Y-72136000D03*
X140970000Y-69596000D03*
G36*
G01*
X95037500Y-77045000D02*
X94462500Y-77045000D01*
G75*
G02*
X94175000Y-76757500I0J287500D01*
G01*
X94175000Y-76082500D01*
G75*
G02*
X94462500Y-75795000I287500J0D01*
G01*
X95037500Y-75795000D01*
G75*
G02*
X95325000Y-76082500I0J-287500D01*
G01*
X95325000Y-76757500D01*
G75*
G02*
X95037500Y-77045000I-287500J0D01*
G01*
G37*
G36*
G01*
X95037500Y-75295000D02*
X94462500Y-75295000D01*
G75*
G02*
X94175000Y-75007500I0J287500D01*
G01*
X94175000Y-74332500D01*
G75*
G02*
X94462500Y-74045000I287500J0D01*
G01*
X95037500Y-74045000D01*
G75*
G02*
X95325000Y-74332500I0J-287500D01*
G01*
X95325000Y-75007500D01*
G75*
G02*
X95037500Y-75295000I-287500J0D01*
G01*
G37*
G36*
G01*
X95037500Y-84525000D02*
X94462500Y-84525000D01*
G75*
G02*
X94175000Y-84237500I0J287500D01*
G01*
X94175000Y-83562500D01*
G75*
G02*
X94462500Y-83275000I287500J0D01*
G01*
X95037500Y-83275000D01*
G75*
G02*
X95325000Y-83562500I0J-287500D01*
G01*
X95325000Y-84237500D01*
G75*
G02*
X95037500Y-84525000I-287500J0D01*
G01*
G37*
G36*
G01*
X95037500Y-86275000D02*
X94462500Y-86275000D01*
G75*
G02*
X94175000Y-85987500I0J287500D01*
G01*
X94175000Y-85312500D01*
G75*
G02*
X94462500Y-85025000I287500J0D01*
G01*
X95037500Y-85025000D01*
G75*
G02*
X95325000Y-85312500I0J-287500D01*
G01*
X95325000Y-85987500D01*
G75*
G02*
X95037500Y-86275000I-287500J0D01*
G01*
G37*
G36*
G01*
X106865000Y-114987500D02*
X106865000Y-114412500D01*
G75*
G02*
X107152500Y-114125000I287500J0D01*
G01*
X107827500Y-114125000D01*
G75*
G02*
X108115000Y-114412500I0J-287500D01*
G01*
X108115000Y-114987500D01*
G75*
G02*
X107827500Y-115275000I-287500J0D01*
G01*
X107152500Y-115275000D01*
G75*
G02*
X106865000Y-114987500I0J287500D01*
G01*
G37*
G36*
G01*
X105115000Y-114987500D02*
X105115000Y-114412500D01*
G75*
G02*
X105402500Y-114125000I287500J0D01*
G01*
X106077500Y-114125000D01*
G75*
G02*
X106365000Y-114412500I0J-287500D01*
G01*
X106365000Y-114987500D01*
G75*
G02*
X106077500Y-115275000I-287500J0D01*
G01*
X105402500Y-115275000D01*
G75*
G02*
X105115000Y-114987500I0J287500D01*
G01*
G37*
G36*
G01*
X105110000Y-112177500D02*
X105110000Y-111602500D01*
G75*
G02*
X105397500Y-111315000I287500J0D01*
G01*
X106072500Y-111315000D01*
G75*
G02*
X106360000Y-111602500I0J-287500D01*
G01*
X106360000Y-112177500D01*
G75*
G02*
X106072500Y-112465000I-287500J0D01*
G01*
X105397500Y-112465000D01*
G75*
G02*
X105110000Y-112177500I0J287500D01*
G01*
G37*
G36*
G01*
X106860000Y-112177500D02*
X106860000Y-111602500D01*
G75*
G02*
X107147500Y-111315000I287500J0D01*
G01*
X107822500Y-111315000D01*
G75*
G02*
X108110000Y-111602500I0J-287500D01*
G01*
X108110000Y-112177500D01*
G75*
G02*
X107822500Y-112465000I-287500J0D01*
G01*
X107147500Y-112465000D01*
G75*
G02*
X106860000Y-112177500I0J287500D01*
G01*
G37*
G36*
G01*
X126616939Y-89918777D02*
X126616939Y-91618777D01*
G75*
G02*
X126516939Y-91718777I-100000J0D01*
G01*
X125216939Y-91718777D01*
G75*
G02*
X125116939Y-91618777I0J100000D01*
G01*
X125116939Y-89918777D01*
G75*
G02*
X125216939Y-89818777I100000J0D01*
G01*
X126516939Y-89818777D01*
G75*
G02*
X126616939Y-89918777I0J-100000D01*
G01*
G37*
G36*
G01*
X130116939Y-89918777D02*
X130116939Y-91618777D01*
G75*
G02*
X130016939Y-91718777I-100000J0D01*
G01*
X128716939Y-91718777D01*
G75*
G02*
X128616939Y-91618777I0J100000D01*
G01*
X128616939Y-89918777D01*
G75*
G02*
X128716939Y-89818777I100000J0D01*
G01*
X130016939Y-89818777D01*
G75*
G02*
X130116939Y-89918777I0J-100000D01*
G01*
G37*
G36*
G01*
X95592000Y-73330000D02*
X93892000Y-73330000D01*
G75*
G02*
X93792000Y-73230000I0J100000D01*
G01*
X93792000Y-71930000D01*
G75*
G02*
X93892000Y-71830000I100000J0D01*
G01*
X95592000Y-71830000D01*
G75*
G02*
X95692000Y-71930000I0J-100000D01*
G01*
X95692000Y-73230000D01*
G75*
G02*
X95592000Y-73330000I-100000J0D01*
G01*
G37*
G36*
G01*
X95592000Y-69830000D02*
X93892000Y-69830000D01*
G75*
G02*
X93792000Y-69730000I0J100000D01*
G01*
X93792000Y-68430000D01*
G75*
G02*
X93892000Y-68330000I100000J0D01*
G01*
X95592000Y-68330000D01*
G75*
G02*
X95692000Y-68430000I0J-100000D01*
G01*
X95692000Y-69730000D01*
G75*
G02*
X95592000Y-69830000I-100000J0D01*
G01*
G37*
G36*
G01*
X126616939Y-87473234D02*
X126616939Y-89173234D01*
G75*
G02*
X126516939Y-89273234I-100000J0D01*
G01*
X125216939Y-89273234D01*
G75*
G02*
X125116939Y-89173234I0J100000D01*
G01*
X125116939Y-87473234D01*
G75*
G02*
X125216939Y-87373234I100000J0D01*
G01*
X126516939Y-87373234D01*
G75*
G02*
X126616939Y-87473234I0J-100000D01*
G01*
G37*
G36*
G01*
X130116939Y-87473234D02*
X130116939Y-89173234D01*
G75*
G02*
X130016939Y-89273234I-100000J0D01*
G01*
X128716939Y-89273234D01*
G75*
G02*
X128616939Y-89173234I0J100000D01*
G01*
X128616939Y-87473234D01*
G75*
G02*
X128716939Y-87373234I100000J0D01*
G01*
X130016939Y-87373234D01*
G75*
G02*
X130116939Y-87473234I0J-100000D01*
G01*
G37*
G36*
G01*
X130116939Y-85027695D02*
X130116939Y-86727695D01*
G75*
G02*
X130016939Y-86827695I-100000J0D01*
G01*
X128716939Y-86827695D01*
G75*
G02*
X128616939Y-86727695I0J100000D01*
G01*
X128616939Y-85027695D01*
G75*
G02*
X128716939Y-84927695I100000J0D01*
G01*
X130016939Y-84927695D01*
G75*
G02*
X130116939Y-85027695I0J-100000D01*
G01*
G37*
G36*
G01*
X126616939Y-85027695D02*
X126616939Y-86727695D01*
G75*
G02*
X126516939Y-86827695I-100000J0D01*
G01*
X125216939Y-86827695D01*
G75*
G02*
X125116939Y-86727695I0J100000D01*
G01*
X125116939Y-85027695D01*
G75*
G02*
X125216939Y-84927695I100000J0D01*
G01*
X126516939Y-84927695D01*
G75*
G02*
X126616939Y-85027695I0J-100000D01*
G01*
G37*
G36*
G01*
X130116939Y-82582156D02*
X130116939Y-84282156D01*
G75*
G02*
X130016939Y-84382156I-100000J0D01*
G01*
X128716939Y-84382156D01*
G75*
G02*
X128616939Y-84282156I0J100000D01*
G01*
X128616939Y-82582156D01*
G75*
G02*
X128716939Y-82482156I100000J0D01*
G01*
X130016939Y-82482156D01*
G75*
G02*
X130116939Y-82582156I0J-100000D01*
G01*
G37*
G36*
G01*
X126616939Y-82582156D02*
X126616939Y-84282156D01*
G75*
G02*
X126516939Y-84382156I-100000J0D01*
G01*
X125216939Y-84382156D01*
G75*
G02*
X125116939Y-84282156I0J100000D01*
G01*
X125116939Y-82582156D01*
G75*
G02*
X125216939Y-82482156I100000J0D01*
G01*
X126516939Y-82482156D01*
G75*
G02*
X126616939Y-82582156I0J-100000D01*
G01*
G37*
G36*
G01*
X95600000Y-79220000D02*
X93900000Y-79220000D01*
G75*
G02*
X93800000Y-79120000I0J100000D01*
G01*
X93800000Y-77820000D01*
G75*
G02*
X93900000Y-77720000I100000J0D01*
G01*
X95600000Y-77720000D01*
G75*
G02*
X95700000Y-77820000I0J-100000D01*
G01*
X95700000Y-79120000D01*
G75*
G02*
X95600000Y-79220000I-100000J0D01*
G01*
G37*
G36*
G01*
X95600000Y-82720000D02*
X93900000Y-82720000D01*
G75*
G02*
X93800000Y-82620000I0J100000D01*
G01*
X93800000Y-81320000D01*
G75*
G02*
X93900000Y-81220000I100000J0D01*
G01*
X95600000Y-81220000D01*
G75*
G02*
X95700000Y-81320000I0J-100000D01*
G01*
X95700000Y-82620000D01*
G75*
G02*
X95600000Y-82720000I-100000J0D01*
G01*
G37*
G36*
G01*
X126616939Y-80136617D02*
X126616939Y-81836617D01*
G75*
G02*
X126516939Y-81936617I-100000J0D01*
G01*
X125216939Y-81936617D01*
G75*
G02*
X125116939Y-81836617I0J100000D01*
G01*
X125116939Y-80136617D01*
G75*
G02*
X125216939Y-80036617I100000J0D01*
G01*
X126516939Y-80036617D01*
G75*
G02*
X126616939Y-80136617I0J-100000D01*
G01*
G37*
G36*
G01*
X130116939Y-80136617D02*
X130116939Y-81836617D01*
G75*
G02*
X130016939Y-81936617I-100000J0D01*
G01*
X128716939Y-81936617D01*
G75*
G02*
X128616939Y-81836617I0J100000D01*
G01*
X128616939Y-80136617D01*
G75*
G02*
X128716939Y-80036617I100000J0D01*
G01*
X130016939Y-80036617D01*
G75*
G02*
X130116939Y-80136617I0J-100000D01*
G01*
G37*
G36*
G01*
X130116939Y-77691078D02*
X130116939Y-79391078D01*
G75*
G02*
X130016939Y-79491078I-100000J0D01*
G01*
X128716939Y-79491078D01*
G75*
G02*
X128616939Y-79391078I0J100000D01*
G01*
X128616939Y-77691078D01*
G75*
G02*
X128716939Y-77591078I100000J0D01*
G01*
X130016939Y-77591078D01*
G75*
G02*
X130116939Y-77691078I0J-100000D01*
G01*
G37*
G36*
G01*
X126616939Y-77691078D02*
X126616939Y-79391078D01*
G75*
G02*
X126516939Y-79491078I-100000J0D01*
G01*
X125216939Y-79491078D01*
G75*
G02*
X125116939Y-79391078I0J100000D01*
G01*
X125116939Y-77691078D01*
G75*
G02*
X125216939Y-77591078I100000J0D01*
G01*
X126516939Y-77591078D01*
G75*
G02*
X126616939Y-77691078I0J-100000D01*
G01*
G37*
G36*
G01*
X126616939Y-75245539D02*
X126616939Y-76945539D01*
G75*
G02*
X126516939Y-77045539I-100000J0D01*
G01*
X125216939Y-77045539D01*
G75*
G02*
X125116939Y-76945539I0J100000D01*
G01*
X125116939Y-75245539D01*
G75*
G02*
X125216939Y-75145539I100000J0D01*
G01*
X126516939Y-75145539D01*
G75*
G02*
X126616939Y-75245539I0J-100000D01*
G01*
G37*
G36*
G01*
X130116939Y-75245539D02*
X130116939Y-76945539D01*
G75*
G02*
X130016939Y-77045539I-100000J0D01*
G01*
X128716939Y-77045539D01*
G75*
G02*
X128616939Y-76945539I0J100000D01*
G01*
X128616939Y-75245539D01*
G75*
G02*
X128716939Y-75145539I100000J0D01*
G01*
X130016939Y-75145539D01*
G75*
G02*
X130116939Y-75245539I0J-100000D01*
G01*
G37*
G36*
G01*
X130116939Y-72800000D02*
X130116939Y-74500000D01*
G75*
G02*
X130016939Y-74600000I-100000J0D01*
G01*
X128716939Y-74600000D01*
G75*
G02*
X128616939Y-74500000I0J100000D01*
G01*
X128616939Y-72800000D01*
G75*
G02*
X128716939Y-72700000I100000J0D01*
G01*
X130016939Y-72700000D01*
G75*
G02*
X130116939Y-72800000I0J-100000D01*
G01*
G37*
G36*
G01*
X126616939Y-72800000D02*
X126616939Y-74500000D01*
G75*
G02*
X126516939Y-74600000I-100000J0D01*
G01*
X125216939Y-74600000D01*
G75*
G02*
X125116939Y-74500000I0J100000D01*
G01*
X125116939Y-72800000D01*
G75*
G02*
X125216939Y-72700000I100000J0D01*
G01*
X126516939Y-72700000D01*
G75*
G02*
X126616939Y-72800000I0J-100000D01*
G01*
G37*
G36*
G01*
X91614183Y-87945661D02*
X91614183Y-89536839D01*
G75*
G02*
X91334772Y-89816250I-279411J0D01*
G01*
X89993594Y-89816250D01*
G75*
G02*
X89714183Y-89536839I0J279411D01*
G01*
X89714183Y-87945661D01*
G75*
G02*
X89993594Y-87666250I279411J0D01*
G01*
X91334772Y-87666250D01*
G75*
G02*
X91614183Y-87945661I0J-279411D01*
G01*
G37*
D13*
X88164183Y-88741250D03*
X85664183Y-88741250D03*
X83164183Y-88741250D03*
D15*
G36*
X126399479Y-113079909D02*
G01*
X126393788Y-113098668D01*
X126384547Y-113115957D01*
X126372111Y-113131111D01*
X126356870Y-113143605D01*
X125606870Y-113643605D01*
X125589572Y-113652828D01*
X125570806Y-113658499D01*
X125551295Y-113660400D01*
X125531788Y-113658458D01*
X125513035Y-113652748D01*
X125495930Y-113643605D01*
X124745930Y-113143605D01*
X124730763Y-113131185D01*
X124718311Y-113116044D01*
X124709052Y-113098765D01*
X124703342Y-113080012D01*
X124701400Y-113060400D01*
X124701400Y-112060400D01*
X124703321Y-112040891D01*
X124709012Y-112022132D01*
X124718253Y-112004843D01*
X124730689Y-111989689D01*
X124745843Y-111977253D01*
X124763132Y-111968012D01*
X124781891Y-111962321D01*
X124801400Y-111960400D01*
X126301400Y-111960400D01*
X126320909Y-111962321D01*
X126339668Y-111968012D01*
X126356957Y-111977253D01*
X126372111Y-111989689D01*
X126384547Y-112004843D01*
X126393788Y-112022132D01*
X126399479Y-112040891D01*
X126401400Y-112060400D01*
X126401400Y-113060400D01*
X126399479Y-113079909D01*
G37*
G36*
X126399479Y-114529909D02*
G01*
X126393788Y-114548668D01*
X126384547Y-114565957D01*
X126372111Y-114581111D01*
X126356957Y-114593547D01*
X126339668Y-114602788D01*
X126320909Y-114608479D01*
X126301400Y-114610400D01*
X124801400Y-114610400D01*
X124781891Y-114608479D01*
X124763132Y-114602788D01*
X124745843Y-114593547D01*
X124730689Y-114581111D01*
X124718253Y-114565957D01*
X124709012Y-114548668D01*
X124703321Y-114529909D01*
X124701400Y-114510400D01*
X124701400Y-113360400D01*
X124703321Y-113340891D01*
X124709012Y-113322132D01*
X124718253Y-113304843D01*
X124730689Y-113289689D01*
X124745843Y-113277253D01*
X124763132Y-113268012D01*
X124781891Y-113262321D01*
X124801400Y-113260400D01*
X124820909Y-113262321D01*
X124839668Y-113268012D01*
X124856870Y-113277195D01*
X125551400Y-113740215D01*
X126245930Y-113277195D01*
X126263228Y-113267972D01*
X126281994Y-113262301D01*
X126301505Y-113260400D01*
X126321012Y-113262342D01*
X126339765Y-113268052D01*
X126357044Y-113277311D01*
X126372185Y-113289763D01*
X126384605Y-113304930D01*
X126393828Y-113322228D01*
X126399499Y-113340994D01*
X126401400Y-113360400D01*
X126401400Y-114510400D01*
X126399479Y-114529909D01*
G37*
G36*
X123834079Y-114529909D02*
G01*
X123828388Y-114548668D01*
X123819147Y-114565957D01*
X123806711Y-114581111D01*
X123791557Y-114593547D01*
X123774268Y-114602788D01*
X123755509Y-114608479D01*
X123736000Y-114610400D01*
X122236000Y-114610400D01*
X122216491Y-114608479D01*
X122197732Y-114602788D01*
X122180443Y-114593547D01*
X122165289Y-114581111D01*
X122152853Y-114565957D01*
X122143612Y-114548668D01*
X122137921Y-114529909D01*
X122136000Y-114510400D01*
X122136000Y-113360400D01*
X122137921Y-113340891D01*
X122143612Y-113322132D01*
X122152853Y-113304843D01*
X122165289Y-113289689D01*
X122180443Y-113277253D01*
X122197732Y-113268012D01*
X122216491Y-113262321D01*
X122236000Y-113260400D01*
X122255509Y-113262321D01*
X122274268Y-113268012D01*
X122291470Y-113277195D01*
X122986000Y-113740215D01*
X123680530Y-113277195D01*
X123697828Y-113267972D01*
X123716594Y-113262301D01*
X123736105Y-113260400D01*
X123755612Y-113262342D01*
X123774365Y-113268052D01*
X123791644Y-113277311D01*
X123806785Y-113289763D01*
X123819205Y-113304930D01*
X123828428Y-113322228D01*
X123834099Y-113340994D01*
X123836000Y-113360400D01*
X123836000Y-114510400D01*
X123834079Y-114529909D01*
G37*
G36*
X123834079Y-113079909D02*
G01*
X123828388Y-113098668D01*
X123819147Y-113115957D01*
X123806711Y-113131111D01*
X123791470Y-113143605D01*
X123041470Y-113643605D01*
X123024172Y-113652828D01*
X123005406Y-113658499D01*
X122985895Y-113660400D01*
X122966388Y-113658458D01*
X122947635Y-113652748D01*
X122930530Y-113643605D01*
X122180530Y-113143605D01*
X122165363Y-113131185D01*
X122152911Y-113116044D01*
X122143652Y-113098765D01*
X122137942Y-113080012D01*
X122136000Y-113060400D01*
X122136000Y-112060400D01*
X122137921Y-112040891D01*
X122143612Y-112022132D01*
X122152853Y-112004843D01*
X122165289Y-111989689D01*
X122180443Y-111977253D01*
X122197732Y-111968012D01*
X122216491Y-111962321D01*
X122236000Y-111960400D01*
X123736000Y-111960400D01*
X123755509Y-111962321D01*
X123774268Y-111968012D01*
X123791557Y-111977253D01*
X123806711Y-111989689D01*
X123819147Y-112004843D01*
X123828388Y-112022132D01*
X123834079Y-112040891D01*
X123836000Y-112060400D01*
X123836000Y-113060400D01*
X123834079Y-113079909D01*
G37*
G36*
X121243279Y-113079909D02*
G01*
X121237588Y-113098668D01*
X121228347Y-113115957D01*
X121215911Y-113131111D01*
X121200670Y-113143605D01*
X120450670Y-113643605D01*
X120433372Y-113652828D01*
X120414606Y-113658499D01*
X120395095Y-113660400D01*
X120375588Y-113658458D01*
X120356835Y-113652748D01*
X120339730Y-113643605D01*
X119589730Y-113143605D01*
X119574563Y-113131185D01*
X119562111Y-113116044D01*
X119552852Y-113098765D01*
X119547142Y-113080012D01*
X119545200Y-113060400D01*
X119545200Y-112060400D01*
X119547121Y-112040891D01*
X119552812Y-112022132D01*
X119562053Y-112004843D01*
X119574489Y-111989689D01*
X119589643Y-111977253D01*
X119606932Y-111968012D01*
X119625691Y-111962321D01*
X119645200Y-111960400D01*
X121145200Y-111960400D01*
X121164709Y-111962321D01*
X121183468Y-111968012D01*
X121200757Y-111977253D01*
X121215911Y-111989689D01*
X121228347Y-112004843D01*
X121237588Y-112022132D01*
X121243279Y-112040891D01*
X121245200Y-112060400D01*
X121245200Y-113060400D01*
X121243279Y-113079909D01*
G37*
G36*
X121243279Y-114529909D02*
G01*
X121237588Y-114548668D01*
X121228347Y-114565957D01*
X121215911Y-114581111D01*
X121200757Y-114593547D01*
X121183468Y-114602788D01*
X121164709Y-114608479D01*
X121145200Y-114610400D01*
X119645200Y-114610400D01*
X119625691Y-114608479D01*
X119606932Y-114602788D01*
X119589643Y-114593547D01*
X119574489Y-114581111D01*
X119562053Y-114565957D01*
X119552812Y-114548668D01*
X119547121Y-114529909D01*
X119545200Y-114510400D01*
X119545200Y-113360400D01*
X119547121Y-113340891D01*
X119552812Y-113322132D01*
X119562053Y-113304843D01*
X119574489Y-113289689D01*
X119589643Y-113277253D01*
X119606932Y-113268012D01*
X119625691Y-113262321D01*
X119645200Y-113260400D01*
X119664709Y-113262321D01*
X119683468Y-113268012D01*
X119700670Y-113277195D01*
X120395200Y-113740215D01*
X121089730Y-113277195D01*
X121107028Y-113267972D01*
X121125794Y-113262301D01*
X121145305Y-113260400D01*
X121164812Y-113262342D01*
X121183565Y-113268052D01*
X121200844Y-113277311D01*
X121215985Y-113289763D01*
X121228405Y-113304930D01*
X121237628Y-113322228D01*
X121243299Y-113340994D01*
X121245200Y-113360400D01*
X121245200Y-114510400D01*
X121243279Y-114529909D01*
G37*
G36*
X118652479Y-114529909D02*
G01*
X118646788Y-114548668D01*
X118637547Y-114565957D01*
X118625111Y-114581111D01*
X118609957Y-114593547D01*
X118592668Y-114602788D01*
X118573909Y-114608479D01*
X118554400Y-114610400D01*
X117054400Y-114610400D01*
X117034891Y-114608479D01*
X117016132Y-114602788D01*
X116998843Y-114593547D01*
X116983689Y-114581111D01*
X116971253Y-114565957D01*
X116962012Y-114548668D01*
X116956321Y-114529909D01*
X116954400Y-114510400D01*
X116954400Y-113360400D01*
X116956321Y-113340891D01*
X116962012Y-113322132D01*
X116971253Y-113304843D01*
X116983689Y-113289689D01*
X116998843Y-113277253D01*
X117016132Y-113268012D01*
X117034891Y-113262321D01*
X117054400Y-113260400D01*
X117073909Y-113262321D01*
X117092668Y-113268012D01*
X117109870Y-113277195D01*
X117804400Y-113740215D01*
X118498930Y-113277195D01*
X118516228Y-113267972D01*
X118534994Y-113262301D01*
X118554505Y-113260400D01*
X118574012Y-113262342D01*
X118592765Y-113268052D01*
X118610044Y-113277311D01*
X118625185Y-113289763D01*
X118637605Y-113304930D01*
X118646828Y-113322228D01*
X118652499Y-113340994D01*
X118654400Y-113360400D01*
X118654400Y-114510400D01*
X118652479Y-114529909D01*
G37*
G36*
X118652479Y-113079909D02*
G01*
X118646788Y-113098668D01*
X118637547Y-113115957D01*
X118625111Y-113131111D01*
X118609870Y-113143605D01*
X117859870Y-113643605D01*
X117842572Y-113652828D01*
X117823806Y-113658499D01*
X117804295Y-113660400D01*
X117784788Y-113658458D01*
X117766035Y-113652748D01*
X117748930Y-113643605D01*
X116998930Y-113143605D01*
X116983763Y-113131185D01*
X116971311Y-113116044D01*
X116962052Y-113098765D01*
X116956342Y-113080012D01*
X116954400Y-113060400D01*
X116954400Y-112060400D01*
X116956321Y-112040891D01*
X116962012Y-112022132D01*
X116971253Y-112004843D01*
X116983689Y-111989689D01*
X116998843Y-111977253D01*
X117016132Y-111968012D01*
X117034891Y-111962321D01*
X117054400Y-111960400D01*
X118554400Y-111960400D01*
X118573909Y-111962321D01*
X118592668Y-111968012D01*
X118609957Y-111977253D01*
X118625111Y-111989689D01*
X118637547Y-112004843D01*
X118646788Y-112022132D01*
X118652479Y-112040891D01*
X118654400Y-112060400D01*
X118654400Y-113060400D01*
X118652479Y-113079909D01*
G37*
G36*
G01*
X121150000Y-108157200D02*
X121150000Y-108657200D01*
G75*
G02*
X121050000Y-108757200I-100000J0D01*
G01*
X120250000Y-108757200D01*
G75*
G02*
X120150000Y-108657200I0J100000D01*
G01*
X120150000Y-108157200D01*
G75*
G02*
X120250000Y-108057200I100000J0D01*
G01*
X121050000Y-108057200D01*
G75*
G02*
X121150000Y-108157200I0J-100000D01*
G01*
G37*
G36*
G01*
X121150000Y-106607200D02*
X121150000Y-107007200D01*
G75*
G02*
X121050000Y-107107200I-100000J0D01*
G01*
X120250000Y-107107200D01*
G75*
G02*
X120150000Y-107007200I0J100000D01*
G01*
X120150000Y-106607200D01*
G75*
G02*
X120250000Y-106507200I100000J0D01*
G01*
X121050000Y-106507200D01*
G75*
G02*
X121150000Y-106607200I0J-100000D01*
G01*
G37*
G36*
G01*
X121150000Y-107407200D02*
X121150000Y-107807200D01*
G75*
G02*
X121050000Y-107907200I-100000J0D01*
G01*
X120250000Y-107907200D01*
G75*
G02*
X120150000Y-107807200I0J100000D01*
G01*
X120150000Y-107407200D01*
G75*
G02*
X120250000Y-107307200I100000J0D01*
G01*
X121050000Y-107307200D01*
G75*
G02*
X121150000Y-107407200I0J-100000D01*
G01*
G37*
G36*
G01*
X121150000Y-105757200D02*
X121150000Y-106257200D01*
G75*
G02*
X121050000Y-106357200I-100000J0D01*
G01*
X120250000Y-106357200D01*
G75*
G02*
X120150000Y-106257200I0J100000D01*
G01*
X120150000Y-105757200D01*
G75*
G02*
X120250000Y-105657200I100000J0D01*
G01*
X121050000Y-105657200D01*
G75*
G02*
X121150000Y-105757200I0J-100000D01*
G01*
G37*
G36*
G01*
X119350000Y-107407200D02*
X119350000Y-107807200D01*
G75*
G02*
X119250000Y-107907200I-100000J0D01*
G01*
X118450000Y-107907200D01*
G75*
G02*
X118350000Y-107807200I0J100000D01*
G01*
X118350000Y-107407200D01*
G75*
G02*
X118450000Y-107307200I100000J0D01*
G01*
X119250000Y-107307200D01*
G75*
G02*
X119350000Y-107407200I0J-100000D01*
G01*
G37*
G36*
G01*
X119350000Y-108157200D02*
X119350000Y-108657200D01*
G75*
G02*
X119250000Y-108757200I-100000J0D01*
G01*
X118450000Y-108757200D01*
G75*
G02*
X118350000Y-108657200I0J100000D01*
G01*
X118350000Y-108157200D01*
G75*
G02*
X118450000Y-108057200I100000J0D01*
G01*
X119250000Y-108057200D01*
G75*
G02*
X119350000Y-108157200I0J-100000D01*
G01*
G37*
G36*
G01*
X119350000Y-106607200D02*
X119350000Y-107007200D01*
G75*
G02*
X119250000Y-107107200I-100000J0D01*
G01*
X118450000Y-107107200D01*
G75*
G02*
X118350000Y-107007200I0J100000D01*
G01*
X118350000Y-106607200D01*
G75*
G02*
X118450000Y-106507200I100000J0D01*
G01*
X119250000Y-106507200D01*
G75*
G02*
X119350000Y-106607200I0J-100000D01*
G01*
G37*
G36*
G01*
X119350000Y-105757200D02*
X119350000Y-106257200D01*
G75*
G02*
X119250000Y-106357200I-100000J0D01*
G01*
X118450000Y-106357200D01*
G75*
G02*
X118350000Y-106257200I0J100000D01*
G01*
X118350000Y-105757200D01*
G75*
G02*
X118450000Y-105657200I100000J0D01*
G01*
X119250000Y-105657200D01*
G75*
G02*
X119350000Y-105757200I0J-100000D01*
G01*
G37*
G36*
G01*
X105660000Y-94380000D02*
X105660000Y-93880000D01*
G75*
G02*
X105760000Y-93780000I100000J0D01*
G01*
X106560000Y-93780000D01*
G75*
G02*
X106660000Y-93880000I0J-100000D01*
G01*
X106660000Y-94380000D01*
G75*
G02*
X106560000Y-94480000I-100000J0D01*
G01*
X105760000Y-94480000D01*
G75*
G02*
X105660000Y-94380000I0J100000D01*
G01*
G37*
G36*
G01*
X105660000Y-95930000D02*
X105660000Y-95530000D01*
G75*
G02*
X105760000Y-95430000I100000J0D01*
G01*
X106560000Y-95430000D01*
G75*
G02*
X106660000Y-95530000I0J-100000D01*
G01*
X106660000Y-95930000D01*
G75*
G02*
X106560000Y-96030000I-100000J0D01*
G01*
X105760000Y-96030000D01*
G75*
G02*
X105660000Y-95930000I0J100000D01*
G01*
G37*
G36*
G01*
X105660000Y-95130000D02*
X105660000Y-94730000D01*
G75*
G02*
X105760000Y-94630000I100000J0D01*
G01*
X106560000Y-94630000D01*
G75*
G02*
X106660000Y-94730000I0J-100000D01*
G01*
X106660000Y-95130000D01*
G75*
G02*
X106560000Y-95230000I-100000J0D01*
G01*
X105760000Y-95230000D01*
G75*
G02*
X105660000Y-95130000I0J100000D01*
G01*
G37*
G36*
G01*
X105660000Y-96780000D02*
X105660000Y-96280000D01*
G75*
G02*
X105760000Y-96180000I100000J0D01*
G01*
X106560000Y-96180000D01*
G75*
G02*
X106660000Y-96280000I0J-100000D01*
G01*
X106660000Y-96780000D01*
G75*
G02*
X106560000Y-96880000I-100000J0D01*
G01*
X105760000Y-96880000D01*
G75*
G02*
X105660000Y-96780000I0J100000D01*
G01*
G37*
G36*
G01*
X107460000Y-95130000D02*
X107460000Y-94730000D01*
G75*
G02*
X107560000Y-94630000I100000J0D01*
G01*
X108360000Y-94630000D01*
G75*
G02*
X108460000Y-94730000I0J-100000D01*
G01*
X108460000Y-95130000D01*
G75*
G02*
X108360000Y-95230000I-100000J0D01*
G01*
X107560000Y-95230000D01*
G75*
G02*
X107460000Y-95130000I0J100000D01*
G01*
G37*
G36*
G01*
X107460000Y-94380000D02*
X107460000Y-93880000D01*
G75*
G02*
X107560000Y-93780000I100000J0D01*
G01*
X108360000Y-93780000D01*
G75*
G02*
X108460000Y-93880000I0J-100000D01*
G01*
X108460000Y-94380000D01*
G75*
G02*
X108360000Y-94480000I-100000J0D01*
G01*
X107560000Y-94480000D01*
G75*
G02*
X107460000Y-94380000I0J100000D01*
G01*
G37*
G36*
G01*
X107460000Y-95930000D02*
X107460000Y-95530000D01*
G75*
G02*
X107560000Y-95430000I100000J0D01*
G01*
X108360000Y-95430000D01*
G75*
G02*
X108460000Y-95530000I0J-100000D01*
G01*
X108460000Y-95930000D01*
G75*
G02*
X108360000Y-96030000I-100000J0D01*
G01*
X107560000Y-96030000D01*
G75*
G02*
X107460000Y-95930000I0J100000D01*
G01*
G37*
G36*
G01*
X107460000Y-96780000D02*
X107460000Y-96280000D01*
G75*
G02*
X107560000Y-96180000I100000J0D01*
G01*
X108360000Y-96180000D01*
G75*
G02*
X108460000Y-96280000I0J-100000D01*
G01*
X108460000Y-96780000D01*
G75*
G02*
X108360000Y-96880000I-100000J0D01*
G01*
X107560000Y-96880000D01*
G75*
G02*
X107460000Y-96780000I0J100000D01*
G01*
G37*
G36*
G01*
X96401000Y-100339000D02*
X96401000Y-99839000D01*
G75*
G02*
X96501000Y-99739000I100000J0D01*
G01*
X97301000Y-99739000D01*
G75*
G02*
X97401000Y-99839000I0J-100000D01*
G01*
X97401000Y-100339000D01*
G75*
G02*
X97301000Y-100439000I-100000J0D01*
G01*
X96501000Y-100439000D01*
G75*
G02*
X96401000Y-100339000I0J100000D01*
G01*
G37*
G36*
G01*
X96401000Y-101889000D02*
X96401000Y-101489000D01*
G75*
G02*
X96501000Y-101389000I100000J0D01*
G01*
X97301000Y-101389000D01*
G75*
G02*
X97401000Y-101489000I0J-100000D01*
G01*
X97401000Y-101889000D01*
G75*
G02*
X97301000Y-101989000I-100000J0D01*
G01*
X96501000Y-101989000D01*
G75*
G02*
X96401000Y-101889000I0J100000D01*
G01*
G37*
G36*
G01*
X96401000Y-101089000D02*
X96401000Y-100689000D01*
G75*
G02*
X96501000Y-100589000I100000J0D01*
G01*
X97301000Y-100589000D01*
G75*
G02*
X97401000Y-100689000I0J-100000D01*
G01*
X97401000Y-101089000D01*
G75*
G02*
X97301000Y-101189000I-100000J0D01*
G01*
X96501000Y-101189000D01*
G75*
G02*
X96401000Y-101089000I0J100000D01*
G01*
G37*
G36*
G01*
X96401000Y-102739000D02*
X96401000Y-102239000D01*
G75*
G02*
X96501000Y-102139000I100000J0D01*
G01*
X97301000Y-102139000D01*
G75*
G02*
X97401000Y-102239000I0J-100000D01*
G01*
X97401000Y-102739000D01*
G75*
G02*
X97301000Y-102839000I-100000J0D01*
G01*
X96501000Y-102839000D01*
G75*
G02*
X96401000Y-102739000I0J100000D01*
G01*
G37*
G36*
G01*
X98201000Y-101089000D02*
X98201000Y-100689000D01*
G75*
G02*
X98301000Y-100589000I100000J0D01*
G01*
X99101000Y-100589000D01*
G75*
G02*
X99201000Y-100689000I0J-100000D01*
G01*
X99201000Y-101089000D01*
G75*
G02*
X99101000Y-101189000I-100000J0D01*
G01*
X98301000Y-101189000D01*
G75*
G02*
X98201000Y-101089000I0J100000D01*
G01*
G37*
G36*
G01*
X98201000Y-100339000D02*
X98201000Y-99839000D01*
G75*
G02*
X98301000Y-99739000I100000J0D01*
G01*
X99101000Y-99739000D01*
G75*
G02*
X99201000Y-99839000I0J-100000D01*
G01*
X99201000Y-100339000D01*
G75*
G02*
X99101000Y-100439000I-100000J0D01*
G01*
X98301000Y-100439000D01*
G75*
G02*
X98201000Y-100339000I0J100000D01*
G01*
G37*
G36*
G01*
X98201000Y-101889000D02*
X98201000Y-101489000D01*
G75*
G02*
X98301000Y-101389000I100000J0D01*
G01*
X99101000Y-101389000D01*
G75*
G02*
X99201000Y-101489000I0J-100000D01*
G01*
X99201000Y-101889000D01*
G75*
G02*
X99101000Y-101989000I-100000J0D01*
G01*
X98301000Y-101989000D01*
G75*
G02*
X98201000Y-101889000I0J100000D01*
G01*
G37*
G36*
G01*
X98201000Y-102739000D02*
X98201000Y-102239000D01*
G75*
G02*
X98301000Y-102139000I100000J0D01*
G01*
X99101000Y-102139000D01*
G75*
G02*
X99201000Y-102239000I0J-100000D01*
G01*
X99201000Y-102739000D01*
G75*
G02*
X99101000Y-102839000I-100000J0D01*
G01*
X98301000Y-102839000D01*
G75*
G02*
X98201000Y-102739000I0J100000D01*
G01*
G37*
G36*
G01*
X98253500Y-98668500D02*
X98253500Y-98168500D01*
G75*
G02*
X98353500Y-98068500I100000J0D01*
G01*
X99153500Y-98068500D01*
G75*
G02*
X99253500Y-98168500I0J-100000D01*
G01*
X99253500Y-98668500D01*
G75*
G02*
X99153500Y-98768500I-100000J0D01*
G01*
X98353500Y-98768500D01*
G75*
G02*
X98253500Y-98668500I0J100000D01*
G01*
G37*
G36*
G01*
X98253500Y-97818500D02*
X98253500Y-97418500D01*
G75*
G02*
X98353500Y-97318500I100000J0D01*
G01*
X99153500Y-97318500D01*
G75*
G02*
X99253500Y-97418500I0J-100000D01*
G01*
X99253500Y-97818500D01*
G75*
G02*
X99153500Y-97918500I-100000J0D01*
G01*
X98353500Y-97918500D01*
G75*
G02*
X98253500Y-97818500I0J100000D01*
G01*
G37*
G36*
G01*
X98253500Y-96268500D02*
X98253500Y-95768500D01*
G75*
G02*
X98353500Y-95668500I100000J0D01*
G01*
X99153500Y-95668500D01*
G75*
G02*
X99253500Y-95768500I0J-100000D01*
G01*
X99253500Y-96268500D01*
G75*
G02*
X99153500Y-96368500I-100000J0D01*
G01*
X98353500Y-96368500D01*
G75*
G02*
X98253500Y-96268500I0J100000D01*
G01*
G37*
G36*
G01*
X98253500Y-97018500D02*
X98253500Y-96618500D01*
G75*
G02*
X98353500Y-96518500I100000J0D01*
G01*
X99153500Y-96518500D01*
G75*
G02*
X99253500Y-96618500I0J-100000D01*
G01*
X99253500Y-97018500D01*
G75*
G02*
X99153500Y-97118500I-100000J0D01*
G01*
X98353500Y-97118500D01*
G75*
G02*
X98253500Y-97018500I0J100000D01*
G01*
G37*
G36*
G01*
X96453500Y-98668500D02*
X96453500Y-98168500D01*
G75*
G02*
X96553500Y-98068500I100000J0D01*
G01*
X97353500Y-98068500D01*
G75*
G02*
X97453500Y-98168500I0J-100000D01*
G01*
X97453500Y-98668500D01*
G75*
G02*
X97353500Y-98768500I-100000J0D01*
G01*
X96553500Y-98768500D01*
G75*
G02*
X96453500Y-98668500I0J100000D01*
G01*
G37*
G36*
G01*
X96453500Y-97018500D02*
X96453500Y-96618500D01*
G75*
G02*
X96553500Y-96518500I100000J0D01*
G01*
X97353500Y-96518500D01*
G75*
G02*
X97453500Y-96618500I0J-100000D01*
G01*
X97453500Y-97018500D01*
G75*
G02*
X97353500Y-97118500I-100000J0D01*
G01*
X96553500Y-97118500D01*
G75*
G02*
X96453500Y-97018500I0J100000D01*
G01*
G37*
G36*
G01*
X96453500Y-97818500D02*
X96453500Y-97418500D01*
G75*
G02*
X96553500Y-97318500I100000J0D01*
G01*
X97353500Y-97318500D01*
G75*
G02*
X97453500Y-97418500I0J-100000D01*
G01*
X97453500Y-97818500D01*
G75*
G02*
X97353500Y-97918500I-100000J0D01*
G01*
X96553500Y-97918500D01*
G75*
G02*
X96453500Y-97818500I0J100000D01*
G01*
G37*
G36*
G01*
X96453500Y-96268500D02*
X96453500Y-95768500D01*
G75*
G02*
X96553500Y-95668500I100000J0D01*
G01*
X97353500Y-95668500D01*
G75*
G02*
X97453500Y-95768500I0J-100000D01*
G01*
X97453500Y-96268500D01*
G75*
G02*
X97353500Y-96368500I-100000J0D01*
G01*
X96553500Y-96368500D01*
G75*
G02*
X96453500Y-96268500I0J100000D01*
G01*
G37*
G36*
G01*
X136320000Y-77670000D02*
X136320000Y-77170000D01*
G75*
G02*
X136420000Y-77070000I100000J0D01*
G01*
X137220000Y-77070000D01*
G75*
G02*
X137320000Y-77170000I0J-100000D01*
G01*
X137320000Y-77670000D01*
G75*
G02*
X137220000Y-77770000I-100000J0D01*
G01*
X136420000Y-77770000D01*
G75*
G02*
X136320000Y-77670000I0J100000D01*
G01*
G37*
G36*
G01*
X136320000Y-76820000D02*
X136320000Y-76420000D01*
G75*
G02*
X136420000Y-76320000I100000J0D01*
G01*
X137220000Y-76320000D01*
G75*
G02*
X137320000Y-76420000I0J-100000D01*
G01*
X137320000Y-76820000D01*
G75*
G02*
X137220000Y-76920000I-100000J0D01*
G01*
X136420000Y-76920000D01*
G75*
G02*
X136320000Y-76820000I0J100000D01*
G01*
G37*
G36*
G01*
X136320000Y-75270000D02*
X136320000Y-74770000D01*
G75*
G02*
X136420000Y-74670000I100000J0D01*
G01*
X137220000Y-74670000D01*
G75*
G02*
X137320000Y-74770000I0J-100000D01*
G01*
X137320000Y-75270000D01*
G75*
G02*
X137220000Y-75370000I-100000J0D01*
G01*
X136420000Y-75370000D01*
G75*
G02*
X136320000Y-75270000I0J100000D01*
G01*
G37*
G36*
G01*
X136320000Y-76020000D02*
X136320000Y-75620000D01*
G75*
G02*
X136420000Y-75520000I100000J0D01*
G01*
X137220000Y-75520000D01*
G75*
G02*
X137320000Y-75620000I0J-100000D01*
G01*
X137320000Y-76020000D01*
G75*
G02*
X137220000Y-76120000I-100000J0D01*
G01*
X136420000Y-76120000D01*
G75*
G02*
X136320000Y-76020000I0J100000D01*
G01*
G37*
G36*
G01*
X134520000Y-77670000D02*
X134520000Y-77170000D01*
G75*
G02*
X134620000Y-77070000I100000J0D01*
G01*
X135420000Y-77070000D01*
G75*
G02*
X135520000Y-77170000I0J-100000D01*
G01*
X135520000Y-77670000D01*
G75*
G02*
X135420000Y-77770000I-100000J0D01*
G01*
X134620000Y-77770000D01*
G75*
G02*
X134520000Y-77670000I0J100000D01*
G01*
G37*
G36*
G01*
X134520000Y-76020000D02*
X134520000Y-75620000D01*
G75*
G02*
X134620000Y-75520000I100000J0D01*
G01*
X135420000Y-75520000D01*
G75*
G02*
X135520000Y-75620000I0J-100000D01*
G01*
X135520000Y-76020000D01*
G75*
G02*
X135420000Y-76120000I-100000J0D01*
G01*
X134620000Y-76120000D01*
G75*
G02*
X134520000Y-76020000I0J100000D01*
G01*
G37*
G36*
G01*
X134520000Y-76820000D02*
X134520000Y-76420000D01*
G75*
G02*
X134620000Y-76320000I100000J0D01*
G01*
X135420000Y-76320000D01*
G75*
G02*
X135520000Y-76420000I0J-100000D01*
G01*
X135520000Y-76820000D01*
G75*
G02*
X135420000Y-76920000I-100000J0D01*
G01*
X134620000Y-76920000D01*
G75*
G02*
X134520000Y-76820000I0J100000D01*
G01*
G37*
G36*
G01*
X134520000Y-75270000D02*
X134520000Y-74770000D01*
G75*
G02*
X134620000Y-74670000I100000J0D01*
G01*
X135420000Y-74670000D01*
G75*
G02*
X135520000Y-74770000I0J-100000D01*
G01*
X135520000Y-75270000D01*
G75*
G02*
X135420000Y-75370000I-100000J0D01*
G01*
X134620000Y-75370000D01*
G75*
G02*
X134520000Y-75270000I0J100000D01*
G01*
G37*
G36*
G01*
X116795000Y-68105500D02*
X116795000Y-67530500D01*
G75*
G02*
X117082500Y-67243000I287500J0D01*
G01*
X117757500Y-67243000D01*
G75*
G02*
X118045000Y-67530500I0J-287500D01*
G01*
X118045000Y-68105500D01*
G75*
G02*
X117757500Y-68393000I-287500J0D01*
G01*
X117082500Y-68393000D01*
G75*
G02*
X116795000Y-68105500I0J287500D01*
G01*
G37*
G36*
G01*
X118545000Y-68105500D02*
X118545000Y-67530500D01*
G75*
G02*
X118832500Y-67243000I287500J0D01*
G01*
X119507500Y-67243000D01*
G75*
G02*
X119795000Y-67530500I0J-287500D01*
G01*
X119795000Y-68105500D01*
G75*
G02*
X119507500Y-68393000I-287500J0D01*
G01*
X118832500Y-68393000D01*
G75*
G02*
X118545000Y-68105500I0J287500D01*
G01*
G37*
G36*
X116061679Y-113079909D02*
G01*
X116055988Y-113098668D01*
X116046747Y-113115957D01*
X116034311Y-113131111D01*
X116019070Y-113143605D01*
X115269070Y-113643605D01*
X115251772Y-113652828D01*
X115233006Y-113658499D01*
X115213495Y-113660400D01*
X115193988Y-113658458D01*
X115175235Y-113652748D01*
X115158130Y-113643605D01*
X114408130Y-113143605D01*
X114392963Y-113131185D01*
X114380511Y-113116044D01*
X114371252Y-113098765D01*
X114365542Y-113080012D01*
X114363600Y-113060400D01*
X114363600Y-112060400D01*
X114365521Y-112040891D01*
X114371212Y-112022132D01*
X114380453Y-112004843D01*
X114392889Y-111989689D01*
X114408043Y-111977253D01*
X114425332Y-111968012D01*
X114444091Y-111962321D01*
X114463600Y-111960400D01*
X115963600Y-111960400D01*
X115983109Y-111962321D01*
X116001868Y-111968012D01*
X116019157Y-111977253D01*
X116034311Y-111989689D01*
X116046747Y-112004843D01*
X116055988Y-112022132D01*
X116061679Y-112040891D01*
X116063600Y-112060400D01*
X116063600Y-113060400D01*
X116061679Y-113079909D01*
G37*
G36*
X116061679Y-114529909D02*
G01*
X116055988Y-114548668D01*
X116046747Y-114565957D01*
X116034311Y-114581111D01*
X116019157Y-114593547D01*
X116001868Y-114602788D01*
X115983109Y-114608479D01*
X115963600Y-114610400D01*
X114463600Y-114610400D01*
X114444091Y-114608479D01*
X114425332Y-114602788D01*
X114408043Y-114593547D01*
X114392889Y-114581111D01*
X114380453Y-114565957D01*
X114371212Y-114548668D01*
X114365521Y-114529909D01*
X114363600Y-114510400D01*
X114363600Y-113360400D01*
X114365521Y-113340891D01*
X114371212Y-113322132D01*
X114380453Y-113304843D01*
X114392889Y-113289689D01*
X114408043Y-113277253D01*
X114425332Y-113268012D01*
X114444091Y-113262321D01*
X114463600Y-113260400D01*
X114483109Y-113262321D01*
X114501868Y-113268012D01*
X114519070Y-113277195D01*
X115213600Y-113740215D01*
X115908130Y-113277195D01*
X115925428Y-113267972D01*
X115944194Y-113262301D01*
X115963705Y-113260400D01*
X115983212Y-113262342D01*
X116001965Y-113268052D01*
X116019244Y-113277311D01*
X116034385Y-113289763D01*
X116046805Y-113304930D01*
X116056028Y-113322228D01*
X116061699Y-113340994D01*
X116063600Y-113360400D01*
X116063600Y-114510400D01*
X116061679Y-114529909D01*
G37*
G36*
X113470879Y-114529909D02*
G01*
X113465188Y-114548668D01*
X113455947Y-114565957D01*
X113443511Y-114581111D01*
X113428357Y-114593547D01*
X113411068Y-114602788D01*
X113392309Y-114608479D01*
X113372800Y-114610400D01*
X111872800Y-114610400D01*
X111853291Y-114608479D01*
X111834532Y-114602788D01*
X111817243Y-114593547D01*
X111802089Y-114581111D01*
X111789653Y-114565957D01*
X111780412Y-114548668D01*
X111774721Y-114529909D01*
X111772800Y-114510400D01*
X111772800Y-113360400D01*
X111774721Y-113340891D01*
X111780412Y-113322132D01*
X111789653Y-113304843D01*
X111802089Y-113289689D01*
X111817243Y-113277253D01*
X111834532Y-113268012D01*
X111853291Y-113262321D01*
X111872800Y-113260400D01*
X111892309Y-113262321D01*
X111911068Y-113268012D01*
X111928270Y-113277195D01*
X112622800Y-113740215D01*
X113317330Y-113277195D01*
X113334628Y-113267972D01*
X113353394Y-113262301D01*
X113372905Y-113260400D01*
X113392412Y-113262342D01*
X113411165Y-113268052D01*
X113428444Y-113277311D01*
X113443585Y-113289763D01*
X113456005Y-113304930D01*
X113465228Y-113322228D01*
X113470899Y-113340994D01*
X113472800Y-113360400D01*
X113472800Y-114510400D01*
X113470879Y-114529909D01*
G37*
G36*
X113470879Y-113079909D02*
G01*
X113465188Y-113098668D01*
X113455947Y-113115957D01*
X113443511Y-113131111D01*
X113428270Y-113143605D01*
X112678270Y-113643605D01*
X112660972Y-113652828D01*
X112642206Y-113658499D01*
X112622695Y-113660400D01*
X112603188Y-113658458D01*
X112584435Y-113652748D01*
X112567330Y-113643605D01*
X111817330Y-113143605D01*
X111802163Y-113131185D01*
X111789711Y-113116044D01*
X111780452Y-113098765D01*
X111774742Y-113080012D01*
X111772800Y-113060400D01*
X111772800Y-112060400D01*
X111774721Y-112040891D01*
X111780412Y-112022132D01*
X111789653Y-112004843D01*
X111802089Y-111989689D01*
X111817243Y-111977253D01*
X111834532Y-111968012D01*
X111853291Y-111962321D01*
X111872800Y-111960400D01*
X113372800Y-111960400D01*
X113392309Y-111962321D01*
X113411068Y-111968012D01*
X113428357Y-111977253D01*
X113443511Y-111989689D01*
X113455947Y-112004843D01*
X113465188Y-112022132D01*
X113470879Y-112040891D01*
X113472800Y-112060400D01*
X113472800Y-113060400D01*
X113470879Y-113079909D01*
G37*
G36*
G01*
X96401000Y-105990200D02*
X96401000Y-105490200D01*
G75*
G02*
X96501000Y-105390200I100000J0D01*
G01*
X97301000Y-105390200D01*
G75*
G02*
X97401000Y-105490200I0J-100000D01*
G01*
X97401000Y-105990200D01*
G75*
G02*
X97301000Y-106090200I-100000J0D01*
G01*
X96501000Y-106090200D01*
G75*
G02*
X96401000Y-105990200I0J100000D01*
G01*
G37*
G36*
G01*
X96401000Y-107540200D02*
X96401000Y-107140200D01*
G75*
G02*
X96501000Y-107040200I100000J0D01*
G01*
X97301000Y-107040200D01*
G75*
G02*
X97401000Y-107140200I0J-100000D01*
G01*
X97401000Y-107540200D01*
G75*
G02*
X97301000Y-107640200I-100000J0D01*
G01*
X96501000Y-107640200D01*
G75*
G02*
X96401000Y-107540200I0J100000D01*
G01*
G37*
G36*
G01*
X96401000Y-106740200D02*
X96401000Y-106340200D01*
G75*
G02*
X96501000Y-106240200I100000J0D01*
G01*
X97301000Y-106240200D01*
G75*
G02*
X97401000Y-106340200I0J-100000D01*
G01*
X97401000Y-106740200D01*
G75*
G02*
X97301000Y-106840200I-100000J0D01*
G01*
X96501000Y-106840200D01*
G75*
G02*
X96401000Y-106740200I0J100000D01*
G01*
G37*
G36*
G01*
X96401000Y-108390200D02*
X96401000Y-107890200D01*
G75*
G02*
X96501000Y-107790200I100000J0D01*
G01*
X97301000Y-107790200D01*
G75*
G02*
X97401000Y-107890200I0J-100000D01*
G01*
X97401000Y-108390200D01*
G75*
G02*
X97301000Y-108490200I-100000J0D01*
G01*
X96501000Y-108490200D01*
G75*
G02*
X96401000Y-108390200I0J100000D01*
G01*
G37*
G36*
G01*
X98201000Y-106740200D02*
X98201000Y-106340200D01*
G75*
G02*
X98301000Y-106240200I100000J0D01*
G01*
X99101000Y-106240200D01*
G75*
G02*
X99201000Y-106340200I0J-100000D01*
G01*
X99201000Y-106740200D01*
G75*
G02*
X99101000Y-106840200I-100000J0D01*
G01*
X98301000Y-106840200D01*
G75*
G02*
X98201000Y-106740200I0J100000D01*
G01*
G37*
G36*
G01*
X98201000Y-105990200D02*
X98201000Y-105490200D01*
G75*
G02*
X98301000Y-105390200I100000J0D01*
G01*
X99101000Y-105390200D01*
G75*
G02*
X99201000Y-105490200I0J-100000D01*
G01*
X99201000Y-105990200D01*
G75*
G02*
X99101000Y-106090200I-100000J0D01*
G01*
X98301000Y-106090200D01*
G75*
G02*
X98201000Y-105990200I0J100000D01*
G01*
G37*
G36*
G01*
X98201000Y-107540200D02*
X98201000Y-107140200D01*
G75*
G02*
X98301000Y-107040200I100000J0D01*
G01*
X99101000Y-107040200D01*
G75*
G02*
X99201000Y-107140200I0J-100000D01*
G01*
X99201000Y-107540200D01*
G75*
G02*
X99101000Y-107640200I-100000J0D01*
G01*
X98301000Y-107640200D01*
G75*
G02*
X98201000Y-107540200I0J100000D01*
G01*
G37*
G36*
G01*
X98201000Y-108390200D02*
X98201000Y-107890200D01*
G75*
G02*
X98301000Y-107790200I100000J0D01*
G01*
X99101000Y-107790200D01*
G75*
G02*
X99201000Y-107890200I0J-100000D01*
G01*
X99201000Y-108390200D01*
G75*
G02*
X99101000Y-108490200I-100000J0D01*
G01*
X98301000Y-108490200D01*
G75*
G02*
X98201000Y-108390200I0J100000D01*
G01*
G37*
G36*
G01*
X99354800Y-103852500D02*
X99354800Y-104427500D01*
G75*
G02*
X99067300Y-104715000I-287500J0D01*
G01*
X98392300Y-104715000D01*
G75*
G02*
X98104800Y-104427500I0J287500D01*
G01*
X98104800Y-103852500D01*
G75*
G02*
X98392300Y-103565000I287500J0D01*
G01*
X99067300Y-103565000D01*
G75*
G02*
X99354800Y-103852500I0J-287500D01*
G01*
G37*
G36*
G01*
X97604800Y-103852500D02*
X97604800Y-104427500D01*
G75*
G02*
X97317300Y-104715000I-287500J0D01*
G01*
X96642300Y-104715000D01*
G75*
G02*
X96354800Y-104427500I0J287500D01*
G01*
X96354800Y-103852500D01*
G75*
G02*
X96642300Y-103565000I287500J0D01*
G01*
X97317300Y-103565000D01*
G75*
G02*
X97604800Y-103852500I0J-287500D01*
G01*
G37*
G36*
X103406732Y-113759000D02*
G01*
X103407000Y-113760000D01*
X103407000Y-115020000D01*
X103406000Y-115021732D01*
X103405000Y-115022000D01*
X103305000Y-115022000D01*
X103303268Y-115021000D01*
X103303000Y-115020000D01*
X103303000Y-113762000D01*
X102457000Y-113762000D01*
X102457000Y-115020000D01*
X102456000Y-115021732D01*
X102455000Y-115022000D01*
X102355000Y-115022000D01*
X102353268Y-115021000D01*
X102353000Y-115020000D01*
X102353000Y-113760000D01*
X102354000Y-113758268D01*
X102355000Y-113758000D01*
X103405000Y-113758000D01*
X103406732Y-113759000D01*
G37*
G36*
X134141165Y-114089074D02*
G01*
X134142000Y-114090700D01*
X134142000Y-114172810D01*
X134141990Y-114173006D01*
X134137726Y-114216298D01*
X134137650Y-114216683D01*
X134126812Y-114252412D01*
X134126662Y-114252774D01*
X134109063Y-114285699D01*
X134108845Y-114286025D01*
X134085161Y-114314884D01*
X134084884Y-114315161D01*
X134056025Y-114338845D01*
X134055699Y-114339063D01*
X134022774Y-114356662D01*
X134022412Y-114356812D01*
X133986683Y-114367650D01*
X133986298Y-114367726D01*
X133943006Y-114371990D01*
X133942810Y-114372000D01*
X133860700Y-114372000D01*
X133858968Y-114371000D01*
X133858968Y-114369000D01*
X133860504Y-114368010D01*
X133914794Y-114362663D01*
X133966814Y-114346883D01*
X134014755Y-114321258D01*
X134056774Y-114286774D01*
X134091258Y-114244755D01*
X134116883Y-114196814D01*
X134132663Y-114144794D01*
X134138010Y-114090504D01*
X134139175Y-114088878D01*
X134141165Y-114089074D01*
G37*
G36*
X132241990Y-114090504D02*
G01*
X132247337Y-114144794D01*
X132263117Y-114196814D01*
X132288742Y-114244755D01*
X132323226Y-114286774D01*
X132365245Y-114321258D01*
X132413186Y-114346883D01*
X132465206Y-114362663D01*
X132519496Y-114368010D01*
X132521122Y-114369175D01*
X132520926Y-114371165D01*
X132519300Y-114372000D01*
X132437190Y-114372000D01*
X132436994Y-114371990D01*
X132393702Y-114367726D01*
X132393317Y-114367650D01*
X132357588Y-114356812D01*
X132357226Y-114356662D01*
X132324301Y-114339063D01*
X132323975Y-114338845D01*
X132295116Y-114315161D01*
X132294839Y-114314884D01*
X132271155Y-114286025D01*
X132270937Y-114285699D01*
X132253338Y-114252774D01*
X132253188Y-114252412D01*
X132242350Y-114216683D01*
X132242274Y-114216298D01*
X132238010Y-114173006D01*
X132238000Y-114172810D01*
X132238000Y-114090700D01*
X132239000Y-114088968D01*
X132241000Y-114088968D01*
X132241990Y-114090504D01*
G37*
G36*
X90321990Y-113960504D02*
G01*
X90327337Y-114014794D01*
X90343117Y-114066814D01*
X90368742Y-114114755D01*
X90403226Y-114156774D01*
X90445245Y-114191258D01*
X90493186Y-114216883D01*
X90545206Y-114232663D01*
X90599496Y-114238010D01*
X90601122Y-114239175D01*
X90600926Y-114241165D01*
X90599300Y-114242000D01*
X90517190Y-114242000D01*
X90516994Y-114241990D01*
X90473702Y-114237726D01*
X90473317Y-114237650D01*
X90437588Y-114226812D01*
X90437226Y-114226662D01*
X90404301Y-114209063D01*
X90403975Y-114208845D01*
X90375116Y-114185161D01*
X90374839Y-114184884D01*
X90351155Y-114156025D01*
X90350937Y-114155699D01*
X90333338Y-114122774D01*
X90333188Y-114122412D01*
X90322350Y-114086683D01*
X90322274Y-114086298D01*
X90318010Y-114043006D01*
X90318000Y-114042810D01*
X90318000Y-113960700D01*
X90319000Y-113958968D01*
X90321000Y-113958968D01*
X90321990Y-113960504D01*
G37*
G36*
X92221165Y-113959074D02*
G01*
X92222000Y-113960700D01*
X92222000Y-114042810D01*
X92221990Y-114043006D01*
X92217726Y-114086298D01*
X92217650Y-114086683D01*
X92206812Y-114122412D01*
X92206662Y-114122774D01*
X92189063Y-114155699D01*
X92188845Y-114156025D01*
X92165161Y-114184884D01*
X92164884Y-114185161D01*
X92136025Y-114208845D01*
X92135699Y-114209063D01*
X92102774Y-114226662D01*
X92102412Y-114226812D01*
X92066683Y-114237650D01*
X92066298Y-114237726D01*
X92023006Y-114241990D01*
X92022810Y-114242000D01*
X91940700Y-114242000D01*
X91938968Y-114241000D01*
X91938968Y-114239000D01*
X91940504Y-114238010D01*
X91994794Y-114232663D01*
X92046814Y-114216883D01*
X92094755Y-114191258D01*
X92136774Y-114156774D01*
X92171258Y-114114755D01*
X92196883Y-114066814D01*
X92212663Y-114014794D01*
X92218010Y-113960504D01*
X92219175Y-113958878D01*
X92221165Y-113959074D01*
G37*
G36*
X114395889Y-113130997D02*
G01*
X114409320Y-113141995D01*
X115159154Y-113641884D01*
X115176007Y-113650892D01*
X115194382Y-113656488D01*
X115213494Y-113658390D01*
X115232620Y-113656527D01*
X115251002Y-113650972D01*
X115268047Y-113641884D01*
X116017874Y-113141999D01*
X116031325Y-113130972D01*
X116033298Y-113130648D01*
X116034566Y-113132194D01*
X116034256Y-113133630D01*
X116021707Y-113152412D01*
X116012480Y-113174685D01*
X116007775Y-113198335D01*
X116007775Y-113222441D01*
X116012479Y-113246092D01*
X116021703Y-113268365D01*
X116034263Y-113287184D01*
X116034392Y-113289180D01*
X116032729Y-113290290D01*
X116031329Y-113289839D01*
X116018127Y-113278982D01*
X116001192Y-113269907D01*
X115982818Y-113264312D01*
X115963706Y-113262410D01*
X115944580Y-113264273D01*
X115926198Y-113269828D01*
X115909153Y-113278916D01*
X115214709Y-113741879D01*
X115212491Y-113741879D01*
X114518043Y-113278913D01*
X114501102Y-113269870D01*
X114482714Y-113264291D01*
X114463600Y-113262409D01*
X114444486Y-113264291D01*
X114426101Y-113269869D01*
X114409159Y-113278924D01*
X114395884Y-113289818D01*
X114393910Y-113290144D01*
X114392642Y-113288598D01*
X114392952Y-113287161D01*
X114405507Y-113268372D01*
X114414734Y-113246098D01*
X114419439Y-113222448D01*
X114419439Y-113198342D01*
X114414735Y-113174691D01*
X114405510Y-113152416D01*
X114392960Y-113133656D01*
X114392828Y-113131660D01*
X114394490Y-113130548D01*
X114395889Y-113130997D01*
G37*
G36*
X119577489Y-113130997D02*
G01*
X119590920Y-113141995D01*
X120340754Y-113641884D01*
X120357607Y-113650892D01*
X120375982Y-113656488D01*
X120395094Y-113658390D01*
X120414220Y-113656527D01*
X120432602Y-113650972D01*
X120449647Y-113641884D01*
X121199474Y-113141999D01*
X121212925Y-113130972D01*
X121214898Y-113130648D01*
X121216166Y-113132194D01*
X121215856Y-113133630D01*
X121203307Y-113152412D01*
X121194080Y-113174685D01*
X121189375Y-113198335D01*
X121189375Y-113222441D01*
X121194079Y-113246092D01*
X121203303Y-113268365D01*
X121215863Y-113287184D01*
X121215992Y-113289180D01*
X121214329Y-113290290D01*
X121212929Y-113289839D01*
X121199727Y-113278982D01*
X121182792Y-113269907D01*
X121164418Y-113264312D01*
X121145306Y-113262410D01*
X121126180Y-113264273D01*
X121107798Y-113269828D01*
X121090753Y-113278916D01*
X120396309Y-113741879D01*
X120394091Y-113741879D01*
X119699643Y-113278913D01*
X119682702Y-113269870D01*
X119664314Y-113264291D01*
X119645200Y-113262409D01*
X119626086Y-113264291D01*
X119607701Y-113269869D01*
X119590759Y-113278924D01*
X119577484Y-113289818D01*
X119575510Y-113290144D01*
X119574242Y-113288598D01*
X119574552Y-113287161D01*
X119587107Y-113268372D01*
X119596334Y-113246098D01*
X119601039Y-113222448D01*
X119601039Y-113198342D01*
X119596335Y-113174691D01*
X119587110Y-113152416D01*
X119574560Y-113133656D01*
X119574428Y-113131660D01*
X119576090Y-113130548D01*
X119577489Y-113130997D01*
G37*
G36*
X111805089Y-113130997D02*
G01*
X111818520Y-113141995D01*
X112568354Y-113641884D01*
X112585207Y-113650892D01*
X112603582Y-113656488D01*
X112622694Y-113658390D01*
X112641820Y-113656527D01*
X112660202Y-113650972D01*
X112677247Y-113641884D01*
X113427074Y-113141999D01*
X113440525Y-113130972D01*
X113442498Y-113130648D01*
X113443766Y-113132194D01*
X113443456Y-113133630D01*
X113430907Y-113152412D01*
X113421680Y-113174685D01*
X113416975Y-113198335D01*
X113416975Y-113222441D01*
X113421679Y-113246092D01*
X113430903Y-113268365D01*
X113443463Y-113287184D01*
X113443592Y-113289180D01*
X113441929Y-113290290D01*
X113440529Y-113289839D01*
X113427327Y-113278982D01*
X113410392Y-113269907D01*
X113392018Y-113264312D01*
X113372906Y-113262410D01*
X113353780Y-113264273D01*
X113335398Y-113269828D01*
X113318353Y-113278916D01*
X112623909Y-113741879D01*
X112621691Y-113741879D01*
X111927243Y-113278913D01*
X111910302Y-113269870D01*
X111891914Y-113264291D01*
X111872800Y-113262409D01*
X111853686Y-113264291D01*
X111835301Y-113269869D01*
X111818359Y-113278924D01*
X111805084Y-113289818D01*
X111803110Y-113290144D01*
X111801842Y-113288598D01*
X111802152Y-113287161D01*
X111814707Y-113268372D01*
X111823934Y-113246098D01*
X111828639Y-113222448D01*
X111828639Y-113198342D01*
X111823935Y-113174691D01*
X111814710Y-113152416D01*
X111802160Y-113133656D01*
X111802028Y-113131660D01*
X111803690Y-113130548D01*
X111805089Y-113130997D01*
G37*
G36*
X122168289Y-113130997D02*
G01*
X122181720Y-113141995D01*
X122931554Y-113641884D01*
X122948407Y-113650892D01*
X122966782Y-113656488D01*
X122985894Y-113658390D01*
X123005020Y-113656527D01*
X123023402Y-113650972D01*
X123040447Y-113641884D01*
X123790274Y-113141999D01*
X123803725Y-113130972D01*
X123805698Y-113130648D01*
X123806966Y-113132194D01*
X123806656Y-113133630D01*
X123794107Y-113152412D01*
X123784880Y-113174685D01*
X123780175Y-113198335D01*
X123780175Y-113222441D01*
X123784879Y-113246092D01*
X123794103Y-113268365D01*
X123806663Y-113287184D01*
X123806792Y-113289180D01*
X123805129Y-113290290D01*
X123803729Y-113289839D01*
X123790527Y-113278982D01*
X123773592Y-113269907D01*
X123755218Y-113264312D01*
X123736106Y-113262410D01*
X123716980Y-113264273D01*
X123698598Y-113269828D01*
X123681553Y-113278916D01*
X122987109Y-113741879D01*
X122984891Y-113741879D01*
X122290443Y-113278913D01*
X122273502Y-113269870D01*
X122255114Y-113264291D01*
X122236000Y-113262409D01*
X122216886Y-113264291D01*
X122198501Y-113269869D01*
X122181559Y-113278924D01*
X122168284Y-113289818D01*
X122166310Y-113290144D01*
X122165042Y-113288598D01*
X122165352Y-113287161D01*
X122177907Y-113268372D01*
X122187134Y-113246098D01*
X122191839Y-113222448D01*
X122191839Y-113198342D01*
X122187135Y-113174691D01*
X122177910Y-113152416D01*
X122165360Y-113133656D01*
X122165228Y-113131660D01*
X122166890Y-113130548D01*
X122168289Y-113130997D01*
G37*
G36*
X116986689Y-113130997D02*
G01*
X117000120Y-113141995D01*
X117749954Y-113641884D01*
X117766807Y-113650892D01*
X117785182Y-113656488D01*
X117804294Y-113658390D01*
X117823420Y-113656527D01*
X117841802Y-113650972D01*
X117858847Y-113641884D01*
X118608674Y-113141999D01*
X118622125Y-113130972D01*
X118624098Y-113130648D01*
X118625366Y-113132194D01*
X118625056Y-113133630D01*
X118612507Y-113152412D01*
X118603280Y-113174685D01*
X118598575Y-113198335D01*
X118598575Y-113222441D01*
X118603279Y-113246092D01*
X118612503Y-113268365D01*
X118625063Y-113287184D01*
X118625192Y-113289180D01*
X118623529Y-113290290D01*
X118622129Y-113289839D01*
X118608927Y-113278982D01*
X118591992Y-113269907D01*
X118573618Y-113264312D01*
X118554506Y-113262410D01*
X118535380Y-113264273D01*
X118516998Y-113269828D01*
X118499953Y-113278916D01*
X117805509Y-113741879D01*
X117803291Y-113741879D01*
X117108843Y-113278913D01*
X117091902Y-113269870D01*
X117073514Y-113264291D01*
X117054400Y-113262409D01*
X117035286Y-113264291D01*
X117016901Y-113269869D01*
X116999959Y-113278924D01*
X116986684Y-113289818D01*
X116984710Y-113290144D01*
X116983442Y-113288598D01*
X116983752Y-113287161D01*
X116996307Y-113268372D01*
X117005534Y-113246098D01*
X117010239Y-113222448D01*
X117010239Y-113198342D01*
X117005535Y-113174691D01*
X116996310Y-113152416D01*
X116983760Y-113133656D01*
X116983628Y-113131660D01*
X116985290Y-113130548D01*
X116986689Y-113130997D01*
G37*
G36*
X124733689Y-113130997D02*
G01*
X124747120Y-113141995D01*
X125496954Y-113641884D01*
X125513807Y-113650892D01*
X125532182Y-113656488D01*
X125551294Y-113658390D01*
X125570420Y-113656527D01*
X125588802Y-113650972D01*
X125605847Y-113641884D01*
X126355674Y-113141999D01*
X126369125Y-113130972D01*
X126371098Y-113130648D01*
X126372366Y-113132194D01*
X126372056Y-113133630D01*
X126359507Y-113152412D01*
X126350280Y-113174685D01*
X126345575Y-113198335D01*
X126345575Y-113222441D01*
X126350279Y-113246092D01*
X126359503Y-113268365D01*
X126372063Y-113287184D01*
X126372192Y-113289180D01*
X126370529Y-113290290D01*
X126369129Y-113289839D01*
X126355927Y-113278982D01*
X126338992Y-113269907D01*
X126320618Y-113264312D01*
X126301506Y-113262410D01*
X126282380Y-113264273D01*
X126263998Y-113269828D01*
X126246953Y-113278916D01*
X125552509Y-113741879D01*
X125550291Y-113741879D01*
X124855843Y-113278913D01*
X124838902Y-113269870D01*
X124820514Y-113264291D01*
X124801400Y-113262409D01*
X124782286Y-113264291D01*
X124763901Y-113269869D01*
X124746959Y-113278924D01*
X124733684Y-113289818D01*
X124731710Y-113290144D01*
X124730442Y-113288598D01*
X124730752Y-113287161D01*
X124743307Y-113268372D01*
X124752534Y-113246098D01*
X124757239Y-113222448D01*
X124757239Y-113198342D01*
X124752535Y-113174691D01*
X124743310Y-113152416D01*
X124730760Y-113133656D01*
X124730628Y-113131660D01*
X124732290Y-113130548D01*
X124733689Y-113130997D01*
G37*
G36*
X103406732Y-111559000D02*
G01*
X103407000Y-111560000D01*
X103407000Y-112820000D01*
X103406000Y-112821732D01*
X103405000Y-112822000D01*
X103305000Y-112822000D01*
X103303268Y-112821000D01*
X103303000Y-112820000D01*
X103303000Y-111562000D01*
X102457000Y-111562000D01*
X102457000Y-112820000D01*
X102456000Y-112821732D01*
X102455000Y-112822000D01*
X102355000Y-112822000D01*
X102353268Y-112821000D01*
X102353000Y-112820000D01*
X102353000Y-111560000D01*
X102354000Y-111558268D01*
X102355000Y-111558000D01*
X103405000Y-111558000D01*
X103406732Y-111559000D01*
G37*
G36*
X132521032Y-112169000D02*
G01*
X132521032Y-112171000D01*
X132519496Y-112171990D01*
X132465206Y-112177337D01*
X132413186Y-112193117D01*
X132365245Y-112218742D01*
X132323226Y-112253226D01*
X132288742Y-112295245D01*
X132263117Y-112343186D01*
X132247337Y-112395206D01*
X132241990Y-112449496D01*
X132240825Y-112451122D01*
X132238835Y-112450926D01*
X132238000Y-112449300D01*
X132238000Y-112367190D01*
X132238010Y-112366994D01*
X132242274Y-112323702D01*
X132242350Y-112323317D01*
X132253188Y-112287588D01*
X132253338Y-112287226D01*
X132270937Y-112254301D01*
X132271155Y-112253975D01*
X132294839Y-112225116D01*
X132295116Y-112224839D01*
X132323975Y-112201155D01*
X132324301Y-112200937D01*
X132357226Y-112183338D01*
X132357588Y-112183188D01*
X132393317Y-112172350D01*
X132393702Y-112172274D01*
X132436994Y-112168010D01*
X132437190Y-112168000D01*
X132519300Y-112168000D01*
X132521032Y-112169000D01*
G37*
G36*
X133943006Y-112168010D02*
G01*
X133986298Y-112172274D01*
X133986683Y-112172350D01*
X134022412Y-112183188D01*
X134022774Y-112183338D01*
X134055699Y-112200937D01*
X134056025Y-112201155D01*
X134084884Y-112224839D01*
X134085161Y-112225116D01*
X134108845Y-112253975D01*
X134109063Y-112254301D01*
X134126662Y-112287226D01*
X134126812Y-112287588D01*
X134137650Y-112323317D01*
X134137726Y-112323702D01*
X134141990Y-112366994D01*
X134142000Y-112367190D01*
X134142000Y-112449300D01*
X134141000Y-112451032D01*
X134139000Y-112451032D01*
X134138010Y-112449496D01*
X134132663Y-112395206D01*
X134116883Y-112343186D01*
X134091258Y-112295245D01*
X134056774Y-112253226D01*
X134014755Y-112218742D01*
X133966814Y-112193117D01*
X133914794Y-112177337D01*
X133860504Y-112171990D01*
X133858878Y-112170825D01*
X133859074Y-112168835D01*
X133860700Y-112168000D01*
X133942810Y-112168000D01*
X133943006Y-112168010D01*
G37*
G36*
X90601032Y-112039000D02*
G01*
X90601032Y-112041000D01*
X90599496Y-112041990D01*
X90545206Y-112047337D01*
X90493186Y-112063117D01*
X90445245Y-112088742D01*
X90403226Y-112123226D01*
X90368742Y-112165245D01*
X90343117Y-112213186D01*
X90327337Y-112265206D01*
X90321990Y-112319496D01*
X90320825Y-112321122D01*
X90318835Y-112320926D01*
X90318000Y-112319300D01*
X90318000Y-112237190D01*
X90318010Y-112236994D01*
X90322274Y-112193702D01*
X90322350Y-112193317D01*
X90333188Y-112157588D01*
X90333338Y-112157226D01*
X90350937Y-112124301D01*
X90351155Y-112123975D01*
X90374839Y-112095116D01*
X90375116Y-112094839D01*
X90403975Y-112071155D01*
X90404301Y-112070937D01*
X90437226Y-112053338D01*
X90437588Y-112053188D01*
X90473317Y-112042350D01*
X90473702Y-112042274D01*
X90516994Y-112038010D01*
X90517190Y-112038000D01*
X90599300Y-112038000D01*
X90601032Y-112039000D01*
G37*
G36*
X92023006Y-112038010D02*
G01*
X92066298Y-112042274D01*
X92066683Y-112042350D01*
X92102412Y-112053188D01*
X92102774Y-112053338D01*
X92135699Y-112070937D01*
X92136025Y-112071155D01*
X92164884Y-112094839D01*
X92165161Y-112095116D01*
X92188845Y-112123975D01*
X92189063Y-112124301D01*
X92206662Y-112157226D01*
X92206812Y-112157588D01*
X92217650Y-112193317D01*
X92217726Y-112193702D01*
X92221990Y-112236994D01*
X92222000Y-112237190D01*
X92222000Y-112319300D01*
X92221000Y-112321032D01*
X92219000Y-112321032D01*
X92218010Y-112319496D01*
X92212663Y-112265206D01*
X92196883Y-112213186D01*
X92171258Y-112165245D01*
X92136774Y-112123226D01*
X92094755Y-112088742D01*
X92046814Y-112063117D01*
X91994794Y-112047337D01*
X91940504Y-112041990D01*
X91938878Y-112040825D01*
X91939074Y-112038835D01*
X91940700Y-112038000D01*
X92022810Y-112038000D01*
X92023006Y-112038010D01*
G37*
G36*
X121151732Y-107906200D02*
G01*
X121152000Y-107907200D01*
X121152000Y-108057200D01*
X121151000Y-108058932D01*
X121150000Y-108059200D01*
X120150000Y-108059200D01*
X120148268Y-108058200D01*
X120148000Y-108057200D01*
X120148000Y-107907200D01*
X120149000Y-107905468D01*
X120150000Y-107905200D01*
X121150000Y-107905200D01*
X121151732Y-107906200D01*
G37*
G36*
X119351732Y-107906200D02*
G01*
X119352000Y-107907200D01*
X119352000Y-108057200D01*
X119351000Y-108058932D01*
X119350000Y-108059200D01*
X118350000Y-108059200D01*
X118348268Y-108058200D01*
X118348000Y-108057200D01*
X118348000Y-107907200D01*
X118349000Y-107905468D01*
X118350000Y-107905200D01*
X119350000Y-107905200D01*
X119351732Y-107906200D01*
G37*
G36*
X105192932Y-107861600D02*
G01*
X105193200Y-107862600D01*
X105193200Y-107912600D01*
X105192200Y-107914332D01*
X105191200Y-107914600D01*
X103891200Y-107914600D01*
X103889468Y-107913600D01*
X103889200Y-107912600D01*
X103889200Y-107862600D01*
X103890200Y-107860868D01*
X103891200Y-107860600D01*
X105191200Y-107860600D01*
X105192932Y-107861600D01*
G37*
G36*
X110892932Y-107861600D02*
G01*
X110893200Y-107862600D01*
X110893200Y-107912600D01*
X110892200Y-107914332D01*
X110891200Y-107914600D01*
X109591200Y-107914600D01*
X109589468Y-107913600D01*
X109589200Y-107912600D01*
X109589200Y-107862600D01*
X109590200Y-107860868D01*
X109591200Y-107860600D01*
X110891200Y-107860600D01*
X110892932Y-107861600D01*
G37*
G36*
X99202732Y-107639200D02*
G01*
X99203000Y-107640200D01*
X99203000Y-107790200D01*
X99202000Y-107791932D01*
X99201000Y-107792200D01*
X98201000Y-107792200D01*
X98199268Y-107791200D01*
X98199000Y-107790200D01*
X98199000Y-107640200D01*
X98200000Y-107638468D01*
X98201000Y-107638200D01*
X99201000Y-107638200D01*
X99202732Y-107639200D01*
G37*
G36*
X97402732Y-107639200D02*
G01*
X97403000Y-107640200D01*
X97403000Y-107790200D01*
X97402000Y-107791932D01*
X97401000Y-107792200D01*
X96401000Y-107792200D01*
X96399268Y-107791200D01*
X96399000Y-107790200D01*
X96399000Y-107640200D01*
X96400000Y-107638468D01*
X96401000Y-107638200D01*
X97401000Y-107638200D01*
X97402732Y-107639200D01*
G37*
G36*
X121151732Y-107106200D02*
G01*
X121152000Y-107107200D01*
X121152000Y-107307200D01*
X121151000Y-107308932D01*
X121150000Y-107309200D01*
X120150000Y-107309200D01*
X120148268Y-107308200D01*
X120148000Y-107307200D01*
X120148000Y-107107200D01*
X120149000Y-107105468D01*
X120150000Y-107105200D01*
X121150000Y-107105200D01*
X121151732Y-107106200D01*
G37*
G36*
X119351732Y-107106200D02*
G01*
X119352000Y-107107200D01*
X119352000Y-107307200D01*
X119351000Y-107308932D01*
X119350000Y-107309200D01*
X118350000Y-107309200D01*
X118348268Y-107308200D01*
X118348000Y-107307200D01*
X118348000Y-107107200D01*
X118349000Y-107105468D01*
X118350000Y-107105200D01*
X119350000Y-107105200D01*
X119351732Y-107106200D01*
G37*
G36*
X105192932Y-107211600D02*
G01*
X105193200Y-107212600D01*
X105193200Y-107262600D01*
X105192200Y-107264332D01*
X105191200Y-107264600D01*
X103891200Y-107264600D01*
X103889468Y-107263600D01*
X103889200Y-107262600D01*
X103889200Y-107212600D01*
X103890200Y-107210868D01*
X103891200Y-107210600D01*
X105191200Y-107210600D01*
X105192932Y-107211600D01*
G37*
G36*
X110892932Y-107211600D02*
G01*
X110893200Y-107212600D01*
X110893200Y-107262600D01*
X110892200Y-107264332D01*
X110891200Y-107264600D01*
X109591200Y-107264600D01*
X109589468Y-107263600D01*
X109589200Y-107262600D01*
X109589200Y-107212600D01*
X109590200Y-107210868D01*
X109591200Y-107210600D01*
X110891200Y-107210600D01*
X110892932Y-107211600D01*
G37*
G36*
X99202732Y-106839200D02*
G01*
X99203000Y-106840200D01*
X99203000Y-107040200D01*
X99202000Y-107041932D01*
X99201000Y-107042200D01*
X98201000Y-107042200D01*
X98199268Y-107041200D01*
X98199000Y-107040200D01*
X98199000Y-106840200D01*
X98200000Y-106838468D01*
X98201000Y-106838200D01*
X99201000Y-106838200D01*
X99202732Y-106839200D01*
G37*
G36*
X97402732Y-106839200D02*
G01*
X97403000Y-106840200D01*
X97403000Y-107040200D01*
X97402000Y-107041932D01*
X97401000Y-107042200D01*
X96401000Y-107042200D01*
X96399268Y-107041200D01*
X96399000Y-107040200D01*
X96399000Y-106840200D01*
X96400000Y-106838468D01*
X96401000Y-106838200D01*
X97401000Y-106838200D01*
X97402732Y-106839200D01*
G37*
G36*
X105192932Y-106561600D02*
G01*
X105193200Y-106562600D01*
X105193200Y-106612600D01*
X105192200Y-106614332D01*
X105191200Y-106614600D01*
X103891200Y-106614600D01*
X103889468Y-106613600D01*
X103889200Y-106612600D01*
X103889200Y-106562600D01*
X103890200Y-106560868D01*
X103891200Y-106560600D01*
X105191200Y-106560600D01*
X105192932Y-106561600D01*
G37*
G36*
X110892932Y-106561600D02*
G01*
X110893200Y-106562600D01*
X110893200Y-106612600D01*
X110892200Y-106614332D01*
X110891200Y-106614600D01*
X109591200Y-106614600D01*
X109589468Y-106613600D01*
X109589200Y-106612600D01*
X109589200Y-106562600D01*
X109590200Y-106560868D01*
X109591200Y-106560600D01*
X110891200Y-106560600D01*
X110892932Y-106561600D01*
G37*
G36*
X119351732Y-106356200D02*
G01*
X119352000Y-106357200D01*
X119352000Y-106507200D01*
X119351000Y-106508932D01*
X119350000Y-106509200D01*
X118350000Y-106509200D01*
X118348268Y-106508200D01*
X118348000Y-106507200D01*
X118348000Y-106357200D01*
X118349000Y-106355468D01*
X118350000Y-106355200D01*
X119350000Y-106355200D01*
X119351732Y-106356200D01*
G37*
G36*
X121151732Y-106356200D02*
G01*
X121152000Y-106357200D01*
X121152000Y-106507200D01*
X121151000Y-106508932D01*
X121150000Y-106509200D01*
X120150000Y-106509200D01*
X120148268Y-106508200D01*
X120148000Y-106507200D01*
X120148000Y-106357200D01*
X120149000Y-106355468D01*
X120150000Y-106355200D01*
X121150000Y-106355200D01*
X121151732Y-106356200D01*
G37*
G36*
X97402732Y-106089200D02*
G01*
X97403000Y-106090200D01*
X97403000Y-106240200D01*
X97402000Y-106241932D01*
X97401000Y-106242200D01*
X96401000Y-106242200D01*
X96399268Y-106241200D01*
X96399000Y-106240200D01*
X96399000Y-106090200D01*
X96400000Y-106088468D01*
X96401000Y-106088200D01*
X97401000Y-106088200D01*
X97402732Y-106089200D01*
G37*
G36*
X99202732Y-106089200D02*
G01*
X99203000Y-106090200D01*
X99203000Y-106240200D01*
X99202000Y-106241932D01*
X99201000Y-106242200D01*
X98201000Y-106242200D01*
X98199268Y-106241200D01*
X98199000Y-106240200D01*
X98199000Y-106090200D01*
X98200000Y-106088468D01*
X98201000Y-106088200D01*
X99201000Y-106088200D01*
X99202732Y-106089200D01*
G37*
G36*
X110892932Y-105911600D02*
G01*
X110893200Y-105912600D01*
X110893200Y-105962600D01*
X110892200Y-105964332D01*
X110891200Y-105964600D01*
X109591200Y-105964600D01*
X109589468Y-105963600D01*
X109589200Y-105962600D01*
X109589200Y-105912600D01*
X109590200Y-105910868D01*
X109591200Y-105910600D01*
X110891200Y-105910600D01*
X110892932Y-105911600D01*
G37*
G36*
X105192932Y-105911600D02*
G01*
X105193200Y-105912600D01*
X105193200Y-105962600D01*
X105192200Y-105964332D01*
X105191200Y-105964600D01*
X103891200Y-105964600D01*
X103889468Y-105963600D01*
X103889200Y-105962600D01*
X103889200Y-105912600D01*
X103890200Y-105910868D01*
X103891200Y-105910600D01*
X105191200Y-105910600D01*
X105192932Y-105911600D01*
G37*
G36*
X89716173Y-105633893D02*
G01*
X89721522Y-105688204D01*
X89737309Y-105740246D01*
X89762943Y-105788205D01*
X89797442Y-105830241D01*
X89839478Y-105864740D01*
X89887437Y-105890374D01*
X89939479Y-105906161D01*
X89993790Y-105911510D01*
X89995416Y-105912675D01*
X89995220Y-105914665D01*
X89993594Y-105915500D01*
X89911500Y-105915500D01*
X89911304Y-105915490D01*
X89867987Y-105911224D01*
X89867602Y-105911148D01*
X89831848Y-105900302D01*
X89831486Y-105900152D01*
X89798542Y-105882543D01*
X89798216Y-105882325D01*
X89769336Y-105858624D01*
X89769059Y-105858347D01*
X89745358Y-105829467D01*
X89745140Y-105829141D01*
X89727531Y-105796197D01*
X89727381Y-105795835D01*
X89716535Y-105760081D01*
X89716459Y-105759696D01*
X89712193Y-105716379D01*
X89712183Y-105716183D01*
X89712183Y-105634089D01*
X89713183Y-105632357D01*
X89715183Y-105632357D01*
X89716173Y-105633893D01*
G37*
G36*
X91615348Y-105632463D02*
G01*
X91616183Y-105634089D01*
X91616183Y-105716183D01*
X91616173Y-105716379D01*
X91611907Y-105759696D01*
X91611831Y-105760081D01*
X91600985Y-105795835D01*
X91600835Y-105796197D01*
X91583226Y-105829141D01*
X91583008Y-105829467D01*
X91559307Y-105858347D01*
X91559030Y-105858624D01*
X91530150Y-105882325D01*
X91529824Y-105882543D01*
X91496880Y-105900152D01*
X91496518Y-105900302D01*
X91460764Y-105911148D01*
X91460379Y-105911224D01*
X91417062Y-105915490D01*
X91416866Y-105915500D01*
X91334772Y-105915500D01*
X91333040Y-105914500D01*
X91333040Y-105912500D01*
X91334576Y-105911510D01*
X91388887Y-105906161D01*
X91440929Y-105890374D01*
X91488888Y-105864740D01*
X91530924Y-105830241D01*
X91565423Y-105788205D01*
X91591057Y-105740246D01*
X91606844Y-105688204D01*
X91612193Y-105633893D01*
X91613358Y-105632267D01*
X91615348Y-105632463D01*
G37*
G36*
X110892932Y-105261600D02*
G01*
X110893200Y-105262600D01*
X110893200Y-105312600D01*
X110892200Y-105314332D01*
X110891200Y-105314600D01*
X109591200Y-105314600D01*
X109589468Y-105313600D01*
X109589200Y-105312600D01*
X109589200Y-105262600D01*
X109590200Y-105260868D01*
X109591200Y-105260600D01*
X110891200Y-105260600D01*
X110892932Y-105261600D01*
G37*
G36*
X105192932Y-105261600D02*
G01*
X105193200Y-105262600D01*
X105193200Y-105312600D01*
X105192200Y-105314332D01*
X105191200Y-105314600D01*
X103891200Y-105314600D01*
X103889468Y-105313600D01*
X103889200Y-105312600D01*
X103889200Y-105262600D01*
X103890200Y-105260868D01*
X103891200Y-105260600D01*
X105191200Y-105260600D01*
X105192932Y-105261600D01*
G37*
G36*
X110892932Y-104611600D02*
G01*
X110893200Y-104612600D01*
X110893200Y-104662600D01*
X110892200Y-104664332D01*
X110891200Y-104664600D01*
X109591200Y-104664600D01*
X109589468Y-104663600D01*
X109589200Y-104662600D01*
X109589200Y-104612600D01*
X109590200Y-104610868D01*
X109591200Y-104610600D01*
X110891200Y-104610600D01*
X110892932Y-104611600D01*
G37*
G36*
X105192932Y-104611600D02*
G01*
X105193200Y-104612600D01*
X105193200Y-104662600D01*
X105192200Y-104664332D01*
X105191200Y-104664600D01*
X103891200Y-104664600D01*
X103889468Y-104663600D01*
X103889200Y-104662600D01*
X103889200Y-104612600D01*
X103890200Y-104610868D01*
X103891200Y-104610600D01*
X105191200Y-104610600D01*
X105192932Y-104611600D01*
G37*
G36*
X89995326Y-103762500D02*
G01*
X89995326Y-103764500D01*
X89993790Y-103765490D01*
X89939479Y-103770839D01*
X89887437Y-103786626D01*
X89839478Y-103812260D01*
X89797442Y-103846759D01*
X89762943Y-103888795D01*
X89737309Y-103936754D01*
X89721522Y-103988796D01*
X89716173Y-104043107D01*
X89715008Y-104044733D01*
X89713018Y-104044537D01*
X89712183Y-104042911D01*
X89712183Y-103960817D01*
X89712193Y-103960621D01*
X89716459Y-103917304D01*
X89716535Y-103916919D01*
X89727381Y-103881165D01*
X89727531Y-103880803D01*
X89745140Y-103847859D01*
X89745358Y-103847533D01*
X89769059Y-103818653D01*
X89769336Y-103818376D01*
X89798216Y-103794675D01*
X89798542Y-103794457D01*
X89831486Y-103776848D01*
X89831848Y-103776698D01*
X89867602Y-103765852D01*
X89867987Y-103765776D01*
X89911304Y-103761510D01*
X89911500Y-103761500D01*
X89993594Y-103761500D01*
X89995326Y-103762500D01*
G37*
G36*
X91417062Y-103761510D02*
G01*
X91460379Y-103765776D01*
X91460764Y-103765852D01*
X91496518Y-103776698D01*
X91496880Y-103776848D01*
X91529824Y-103794457D01*
X91530150Y-103794675D01*
X91559030Y-103818376D01*
X91559307Y-103818653D01*
X91583008Y-103847533D01*
X91583226Y-103847859D01*
X91600835Y-103880803D01*
X91600985Y-103881165D01*
X91611831Y-103916919D01*
X91611907Y-103917304D01*
X91616173Y-103960621D01*
X91616183Y-103960817D01*
X91616183Y-104042911D01*
X91615183Y-104044643D01*
X91613183Y-104044643D01*
X91612193Y-104043107D01*
X91606844Y-103988796D01*
X91591057Y-103936754D01*
X91565423Y-103888795D01*
X91530924Y-103846759D01*
X91488888Y-103812260D01*
X91440929Y-103786626D01*
X91388887Y-103770839D01*
X91334576Y-103765490D01*
X91332950Y-103764325D01*
X91333146Y-103762335D01*
X91334772Y-103761500D01*
X91416866Y-103761500D01*
X91417062Y-103761510D01*
G37*
G36*
X110892932Y-103961600D02*
G01*
X110893200Y-103962600D01*
X110893200Y-104012600D01*
X110892200Y-104014332D01*
X110891200Y-104014600D01*
X109591200Y-104014600D01*
X109589468Y-104013600D01*
X109589200Y-104012600D01*
X109589200Y-103962600D01*
X109590200Y-103960868D01*
X109591200Y-103960600D01*
X110891200Y-103960600D01*
X110892932Y-103961600D01*
G37*
G36*
X105192932Y-103961600D02*
G01*
X105193200Y-103962600D01*
X105193200Y-104012600D01*
X105192200Y-104014332D01*
X105191200Y-104014600D01*
X103891200Y-104014600D01*
X103889468Y-104013600D01*
X103889200Y-104012600D01*
X103889200Y-103962600D01*
X103890200Y-103960868D01*
X103891200Y-103960600D01*
X105191200Y-103960600D01*
X105192932Y-103961600D01*
G37*
G36*
X110892932Y-103311600D02*
G01*
X110893200Y-103312600D01*
X110893200Y-103362600D01*
X110892200Y-103364332D01*
X110891200Y-103364600D01*
X109591200Y-103364600D01*
X109589468Y-103363600D01*
X109589200Y-103362600D01*
X109589200Y-103312600D01*
X109590200Y-103310868D01*
X109591200Y-103310600D01*
X110891200Y-103310600D01*
X110892932Y-103311600D01*
G37*
G36*
X105192932Y-103311600D02*
G01*
X105193200Y-103312600D01*
X105193200Y-103362600D01*
X105192200Y-103364332D01*
X105191200Y-103364600D01*
X103891200Y-103364600D01*
X103889468Y-103363600D01*
X103889200Y-103362600D01*
X103889200Y-103312600D01*
X103890200Y-103310868D01*
X103891200Y-103310600D01*
X105191200Y-103310600D01*
X105192932Y-103311600D01*
G37*
G36*
X110892932Y-102661600D02*
G01*
X110893200Y-102662600D01*
X110893200Y-102712600D01*
X110892200Y-102714332D01*
X110891200Y-102714600D01*
X109591200Y-102714600D01*
X109589468Y-102713600D01*
X109589200Y-102712600D01*
X109589200Y-102662600D01*
X109590200Y-102660868D01*
X109591200Y-102660600D01*
X110891200Y-102660600D01*
X110892932Y-102661600D01*
G37*
G36*
X105192932Y-102661600D02*
G01*
X105193200Y-102662600D01*
X105193200Y-102712600D01*
X105192200Y-102714332D01*
X105191200Y-102714600D01*
X103891200Y-102714600D01*
X103889468Y-102713600D01*
X103889200Y-102712600D01*
X103889200Y-102662600D01*
X103890200Y-102660868D01*
X103891200Y-102660600D01*
X105191200Y-102660600D01*
X105192932Y-102661600D01*
G37*
G36*
X99202732Y-101988000D02*
G01*
X99203000Y-101989000D01*
X99203000Y-102139000D01*
X99202000Y-102140732D01*
X99201000Y-102141000D01*
X98201000Y-102141000D01*
X98199268Y-102140000D01*
X98199000Y-102139000D01*
X98199000Y-101989000D01*
X98200000Y-101987268D01*
X98201000Y-101987000D01*
X99201000Y-101987000D01*
X99202732Y-101988000D01*
G37*
G36*
X97402732Y-101988000D02*
G01*
X97403000Y-101989000D01*
X97403000Y-102139000D01*
X97402000Y-102140732D01*
X97401000Y-102141000D01*
X96401000Y-102141000D01*
X96399268Y-102140000D01*
X96399000Y-102139000D01*
X96399000Y-101989000D01*
X96400000Y-101987268D01*
X96401000Y-101987000D01*
X97401000Y-101987000D01*
X97402732Y-101988000D01*
G37*
G36*
X110892932Y-102011600D02*
G01*
X110893200Y-102012600D01*
X110893200Y-102062600D01*
X110892200Y-102064332D01*
X110891200Y-102064600D01*
X109591200Y-102064600D01*
X109589468Y-102063600D01*
X109589200Y-102062600D01*
X109589200Y-102012600D01*
X109590200Y-102010868D01*
X109591200Y-102010600D01*
X110891200Y-102010600D01*
X110892932Y-102011600D01*
G37*
G36*
X105192932Y-102011600D02*
G01*
X105193200Y-102012600D01*
X105193200Y-102062600D01*
X105192200Y-102064332D01*
X105191200Y-102064600D01*
X103891200Y-102064600D01*
X103889468Y-102063600D01*
X103889200Y-102062600D01*
X103889200Y-102012600D01*
X103890200Y-102010868D01*
X103891200Y-102010600D01*
X105191200Y-102010600D01*
X105192932Y-102011600D01*
G37*
G36*
X110892932Y-101361600D02*
G01*
X110893200Y-101362600D01*
X110893200Y-101412600D01*
X110892200Y-101414332D01*
X110891200Y-101414600D01*
X109591200Y-101414600D01*
X109589468Y-101413600D01*
X109589200Y-101412600D01*
X109589200Y-101362600D01*
X109590200Y-101360868D01*
X109591200Y-101360600D01*
X110891200Y-101360600D01*
X110892932Y-101361600D01*
G37*
G36*
X105192932Y-101361600D02*
G01*
X105193200Y-101362600D01*
X105193200Y-101412600D01*
X105192200Y-101414332D01*
X105191200Y-101414600D01*
X103891200Y-101414600D01*
X103889468Y-101413600D01*
X103889200Y-101412600D01*
X103889200Y-101362600D01*
X103890200Y-101360868D01*
X103891200Y-101360600D01*
X105191200Y-101360600D01*
X105192932Y-101361600D01*
G37*
G36*
X99202732Y-101188000D02*
G01*
X99203000Y-101189000D01*
X99203000Y-101389000D01*
X99202000Y-101390732D01*
X99201000Y-101391000D01*
X98201000Y-101391000D01*
X98199268Y-101390000D01*
X98199000Y-101389000D01*
X98199000Y-101189000D01*
X98200000Y-101187268D01*
X98201000Y-101187000D01*
X99201000Y-101187000D01*
X99202732Y-101188000D01*
G37*
G36*
X97402732Y-101188000D02*
G01*
X97403000Y-101189000D01*
X97403000Y-101389000D01*
X97402000Y-101390732D01*
X97401000Y-101391000D01*
X96401000Y-101391000D01*
X96399268Y-101390000D01*
X96399000Y-101389000D01*
X96399000Y-101189000D01*
X96400000Y-101187268D01*
X96401000Y-101187000D01*
X97401000Y-101187000D01*
X97402732Y-101188000D01*
G37*
G36*
X105192932Y-100711600D02*
G01*
X105193200Y-100712600D01*
X105193200Y-100762600D01*
X105192200Y-100764332D01*
X105191200Y-100764600D01*
X103891200Y-100764600D01*
X103889468Y-100763600D01*
X103889200Y-100762600D01*
X103889200Y-100712600D01*
X103890200Y-100710868D01*
X103891200Y-100710600D01*
X105191200Y-100710600D01*
X105192932Y-100711600D01*
G37*
G36*
X110892932Y-100711600D02*
G01*
X110893200Y-100712600D01*
X110893200Y-100762600D01*
X110892200Y-100764332D01*
X110891200Y-100764600D01*
X109591200Y-100764600D01*
X109589468Y-100763600D01*
X109589200Y-100762600D01*
X109589200Y-100712600D01*
X109590200Y-100710868D01*
X109591200Y-100710600D01*
X110891200Y-100710600D01*
X110892932Y-100711600D01*
G37*
G36*
X97402732Y-100438000D02*
G01*
X97403000Y-100439000D01*
X97403000Y-100589000D01*
X97402000Y-100590732D01*
X97401000Y-100591000D01*
X96401000Y-100591000D01*
X96399268Y-100590000D01*
X96399000Y-100589000D01*
X96399000Y-100439000D01*
X96400000Y-100437268D01*
X96401000Y-100437000D01*
X97401000Y-100437000D01*
X97402732Y-100438000D01*
G37*
G36*
X99202732Y-100438000D02*
G01*
X99203000Y-100439000D01*
X99203000Y-100589000D01*
X99202000Y-100590732D01*
X99201000Y-100591000D01*
X98201000Y-100591000D01*
X98199268Y-100590000D01*
X98199000Y-100589000D01*
X98199000Y-100439000D01*
X98200000Y-100437268D01*
X98201000Y-100437000D01*
X99201000Y-100437000D01*
X99202732Y-100438000D01*
G37*
G36*
X110892932Y-100061600D02*
G01*
X110893200Y-100062600D01*
X110893200Y-100112600D01*
X110892200Y-100114332D01*
X110891200Y-100114600D01*
X109591200Y-100114600D01*
X109589468Y-100113600D01*
X109589200Y-100112600D01*
X109589200Y-100062600D01*
X109590200Y-100060868D01*
X109591200Y-100060600D01*
X110891200Y-100060600D01*
X110892932Y-100061600D01*
G37*
G36*
X105192932Y-100061600D02*
G01*
X105193200Y-100062600D01*
X105193200Y-100112600D01*
X105192200Y-100114332D01*
X105191200Y-100114600D01*
X103891200Y-100114600D01*
X103889468Y-100113600D01*
X103889200Y-100112600D01*
X103889200Y-100062600D01*
X103890200Y-100060868D01*
X103891200Y-100060600D01*
X105191200Y-100060600D01*
X105192932Y-100061600D01*
G37*
G36*
X99255232Y-97917500D02*
G01*
X99255500Y-97918500D01*
X99255500Y-98068500D01*
X99254500Y-98070232D01*
X99253500Y-98070500D01*
X98253500Y-98070500D01*
X98251768Y-98069500D01*
X98251500Y-98068500D01*
X98251500Y-97918500D01*
X98252500Y-97916768D01*
X98253500Y-97916500D01*
X99253500Y-97916500D01*
X99255232Y-97917500D01*
G37*
G36*
X97455232Y-97917500D02*
G01*
X97455500Y-97918500D01*
X97455500Y-98068500D01*
X97454500Y-98070232D01*
X97453500Y-98070500D01*
X96453500Y-98070500D01*
X96451768Y-98069500D01*
X96451500Y-98068500D01*
X96451500Y-97918500D01*
X96452500Y-97916768D01*
X96453500Y-97916500D01*
X97453500Y-97916500D01*
X97455232Y-97917500D01*
G37*
G36*
X89716173Y-97585268D02*
G01*
X89721522Y-97639579D01*
X89737309Y-97691621D01*
X89762943Y-97739580D01*
X89797442Y-97781616D01*
X89839478Y-97816115D01*
X89887437Y-97841749D01*
X89939479Y-97857536D01*
X89993790Y-97862885D01*
X89995416Y-97864050D01*
X89995220Y-97866040D01*
X89993594Y-97866875D01*
X89911500Y-97866875D01*
X89911304Y-97866865D01*
X89867987Y-97862599D01*
X89867602Y-97862523D01*
X89831848Y-97851677D01*
X89831486Y-97851527D01*
X89798542Y-97833918D01*
X89798216Y-97833700D01*
X89769336Y-97809999D01*
X89769059Y-97809722D01*
X89745358Y-97780842D01*
X89745140Y-97780516D01*
X89727531Y-97747572D01*
X89727381Y-97747210D01*
X89716535Y-97711456D01*
X89716459Y-97711071D01*
X89712193Y-97667754D01*
X89712183Y-97667558D01*
X89712183Y-97585464D01*
X89713183Y-97583732D01*
X89715183Y-97583732D01*
X89716173Y-97585268D01*
G37*
G36*
X91615348Y-97583838D02*
G01*
X91616183Y-97585464D01*
X91616183Y-97667558D01*
X91616173Y-97667754D01*
X91611907Y-97711071D01*
X91611831Y-97711456D01*
X91600985Y-97747210D01*
X91600835Y-97747572D01*
X91583226Y-97780516D01*
X91583008Y-97780842D01*
X91559307Y-97809722D01*
X91559030Y-97809999D01*
X91530150Y-97833700D01*
X91529824Y-97833918D01*
X91496880Y-97851527D01*
X91496518Y-97851677D01*
X91460764Y-97862523D01*
X91460379Y-97862599D01*
X91417062Y-97866865D01*
X91416866Y-97866875D01*
X91334772Y-97866875D01*
X91333040Y-97865875D01*
X91333040Y-97863875D01*
X91334576Y-97862885D01*
X91388887Y-97857536D01*
X91440929Y-97841749D01*
X91488888Y-97816115D01*
X91530924Y-97781616D01*
X91565423Y-97739580D01*
X91591057Y-97691621D01*
X91606844Y-97639579D01*
X91612193Y-97585268D01*
X91613358Y-97583642D01*
X91615348Y-97583838D01*
G37*
G36*
X97455232Y-97117500D02*
G01*
X97455500Y-97118500D01*
X97455500Y-97318500D01*
X97454500Y-97320232D01*
X97453500Y-97320500D01*
X96453500Y-97320500D01*
X96451768Y-97319500D01*
X96451500Y-97318500D01*
X96451500Y-97118500D01*
X96452500Y-97116768D01*
X96453500Y-97116500D01*
X97453500Y-97116500D01*
X97455232Y-97117500D01*
G37*
G36*
X99255232Y-97117500D02*
G01*
X99255500Y-97118500D01*
X99255500Y-97318500D01*
X99254500Y-97320232D01*
X99253500Y-97320500D01*
X98253500Y-97320500D01*
X98251768Y-97319500D01*
X98251500Y-97318500D01*
X98251500Y-97118500D01*
X98252500Y-97116768D01*
X98253500Y-97116500D01*
X99253500Y-97116500D01*
X99255232Y-97117500D01*
G37*
G36*
X97455232Y-96367500D02*
G01*
X97455500Y-96368500D01*
X97455500Y-96518500D01*
X97454500Y-96520232D01*
X97453500Y-96520500D01*
X96453500Y-96520500D01*
X96451768Y-96519500D01*
X96451500Y-96518500D01*
X96451500Y-96368500D01*
X96452500Y-96366768D01*
X96453500Y-96366500D01*
X97453500Y-96366500D01*
X97455232Y-96367500D01*
G37*
G36*
X99255232Y-96367500D02*
G01*
X99255500Y-96368500D01*
X99255500Y-96518500D01*
X99254500Y-96520232D01*
X99253500Y-96520500D01*
X98253500Y-96520500D01*
X98251768Y-96519500D01*
X98251500Y-96518500D01*
X98251500Y-96368500D01*
X98252500Y-96366768D01*
X98253500Y-96366500D01*
X99253500Y-96366500D01*
X99255232Y-96367500D01*
G37*
G36*
X106661732Y-96029000D02*
G01*
X106662000Y-96030000D01*
X106662000Y-96180000D01*
X106661000Y-96181732D01*
X106660000Y-96182000D01*
X105660000Y-96182000D01*
X105658268Y-96181000D01*
X105658000Y-96180000D01*
X105658000Y-96030000D01*
X105659000Y-96028268D01*
X105660000Y-96028000D01*
X106660000Y-96028000D01*
X106661732Y-96029000D01*
G37*
G36*
X108461732Y-96029000D02*
G01*
X108462000Y-96030000D01*
X108462000Y-96180000D01*
X108461000Y-96181732D01*
X108460000Y-96182000D01*
X107460000Y-96182000D01*
X107458268Y-96181000D01*
X107458000Y-96180000D01*
X107458000Y-96030000D01*
X107459000Y-96028268D01*
X107460000Y-96028000D01*
X108460000Y-96028000D01*
X108461732Y-96029000D01*
G37*
G36*
X89995326Y-95713875D02*
G01*
X89995326Y-95715875D01*
X89993790Y-95716865D01*
X89939479Y-95722214D01*
X89887437Y-95738001D01*
X89839478Y-95763635D01*
X89797442Y-95798134D01*
X89762943Y-95840170D01*
X89737309Y-95888129D01*
X89721522Y-95940171D01*
X89716173Y-95994482D01*
X89715008Y-95996108D01*
X89713018Y-95995912D01*
X89712183Y-95994286D01*
X89712183Y-95912192D01*
X89712193Y-95911996D01*
X89716459Y-95868679D01*
X89716535Y-95868294D01*
X89727381Y-95832540D01*
X89727531Y-95832178D01*
X89745140Y-95799234D01*
X89745358Y-95798908D01*
X89769059Y-95770028D01*
X89769336Y-95769751D01*
X89798216Y-95746050D01*
X89798542Y-95745832D01*
X89831486Y-95728223D01*
X89831848Y-95728073D01*
X89867602Y-95717227D01*
X89867987Y-95717151D01*
X89911304Y-95712885D01*
X89911500Y-95712875D01*
X89993594Y-95712875D01*
X89995326Y-95713875D01*
G37*
G36*
X91417062Y-95712885D02*
G01*
X91460379Y-95717151D01*
X91460764Y-95717227D01*
X91496518Y-95728073D01*
X91496880Y-95728223D01*
X91529824Y-95745832D01*
X91530150Y-95746050D01*
X91559030Y-95769751D01*
X91559307Y-95770028D01*
X91583008Y-95798908D01*
X91583226Y-95799234D01*
X91600835Y-95832178D01*
X91600985Y-95832540D01*
X91611831Y-95868294D01*
X91611907Y-95868679D01*
X91616173Y-95911996D01*
X91616183Y-95912192D01*
X91616183Y-95994286D01*
X91615183Y-95996018D01*
X91613183Y-95996018D01*
X91612193Y-95994482D01*
X91606844Y-95940171D01*
X91591057Y-95888129D01*
X91565423Y-95840170D01*
X91530924Y-95798134D01*
X91488888Y-95763635D01*
X91440929Y-95738001D01*
X91388887Y-95722214D01*
X91334576Y-95716865D01*
X91332950Y-95715700D01*
X91333146Y-95713710D01*
X91334772Y-95712875D01*
X91416866Y-95712875D01*
X91417062Y-95712885D01*
G37*
G36*
X108461732Y-95229000D02*
G01*
X108462000Y-95230000D01*
X108462000Y-95430000D01*
X108461000Y-95431732D01*
X108460000Y-95432000D01*
X107460000Y-95432000D01*
X107458268Y-95431000D01*
X107458000Y-95430000D01*
X107458000Y-95230000D01*
X107459000Y-95228268D01*
X107460000Y-95228000D01*
X108460000Y-95228000D01*
X108461732Y-95229000D01*
G37*
G36*
X106661732Y-95229000D02*
G01*
X106662000Y-95230000D01*
X106662000Y-95430000D01*
X106661000Y-95431732D01*
X106660000Y-95432000D01*
X105660000Y-95432000D01*
X105658268Y-95431000D01*
X105658000Y-95430000D01*
X105658000Y-95230000D01*
X105659000Y-95228268D01*
X105660000Y-95228000D01*
X106660000Y-95228000D01*
X106661732Y-95229000D01*
G37*
G36*
X106661732Y-94479000D02*
G01*
X106662000Y-94480000D01*
X106662000Y-94630000D01*
X106661000Y-94631732D01*
X106660000Y-94632000D01*
X105660000Y-94632000D01*
X105658268Y-94631000D01*
X105658000Y-94630000D01*
X105658000Y-94480000D01*
X105659000Y-94478268D01*
X105660000Y-94478000D01*
X106660000Y-94478000D01*
X106661732Y-94479000D01*
G37*
G36*
X108461732Y-94479000D02*
G01*
X108462000Y-94480000D01*
X108462000Y-94630000D01*
X108461000Y-94631732D01*
X108460000Y-94632000D01*
X107460000Y-94632000D01*
X107458268Y-94631000D01*
X107458000Y-94630000D01*
X107458000Y-94480000D01*
X107459000Y-94478268D01*
X107460000Y-94478000D01*
X108460000Y-94478000D01*
X108461732Y-94479000D01*
G37*
G36*
X89716173Y-89536643D02*
G01*
X89721522Y-89590954D01*
X89737309Y-89642996D01*
X89762943Y-89690955D01*
X89797442Y-89732991D01*
X89839478Y-89767490D01*
X89887437Y-89793124D01*
X89939479Y-89808911D01*
X89993790Y-89814260D01*
X89995416Y-89815425D01*
X89995220Y-89817415D01*
X89993594Y-89818250D01*
X89911500Y-89818250D01*
X89911304Y-89818240D01*
X89867987Y-89813974D01*
X89867602Y-89813898D01*
X89831848Y-89803052D01*
X89831486Y-89802902D01*
X89798542Y-89785293D01*
X89798216Y-89785075D01*
X89769336Y-89761374D01*
X89769059Y-89761097D01*
X89745358Y-89732217D01*
X89745140Y-89731891D01*
X89727531Y-89698947D01*
X89727381Y-89698585D01*
X89716535Y-89662831D01*
X89716459Y-89662446D01*
X89712193Y-89619129D01*
X89712183Y-89618933D01*
X89712183Y-89536839D01*
X89713183Y-89535107D01*
X89715183Y-89535107D01*
X89716173Y-89536643D01*
G37*
G36*
X105324081Y-89536643D02*
G01*
X105329430Y-89590954D01*
X105345217Y-89642996D01*
X105370851Y-89690955D01*
X105405350Y-89732991D01*
X105447386Y-89767490D01*
X105495345Y-89793124D01*
X105547387Y-89808911D01*
X105601698Y-89814260D01*
X105603324Y-89815425D01*
X105603128Y-89817415D01*
X105601502Y-89818250D01*
X105519408Y-89818250D01*
X105519212Y-89818240D01*
X105475895Y-89813974D01*
X105475510Y-89813898D01*
X105439756Y-89803052D01*
X105439394Y-89802902D01*
X105406450Y-89785293D01*
X105406124Y-89785075D01*
X105377244Y-89761374D01*
X105376967Y-89761097D01*
X105353266Y-89732217D01*
X105353048Y-89731891D01*
X105335439Y-89698947D01*
X105335289Y-89698585D01*
X105324443Y-89662831D01*
X105324367Y-89662446D01*
X105320101Y-89619129D01*
X105320091Y-89618933D01*
X105320091Y-89536839D01*
X105321091Y-89535107D01*
X105323091Y-89535107D01*
X105324081Y-89536643D01*
G37*
G36*
X91615348Y-89535213D02*
G01*
X91616183Y-89536839D01*
X91616183Y-89618933D01*
X91616173Y-89619129D01*
X91611907Y-89662446D01*
X91611831Y-89662831D01*
X91600985Y-89698585D01*
X91600835Y-89698947D01*
X91583226Y-89731891D01*
X91583008Y-89732217D01*
X91559307Y-89761097D01*
X91559030Y-89761374D01*
X91530150Y-89785075D01*
X91529824Y-89785293D01*
X91496880Y-89802902D01*
X91496518Y-89803052D01*
X91460764Y-89813898D01*
X91460379Y-89813974D01*
X91417062Y-89818240D01*
X91416866Y-89818250D01*
X91334772Y-89818250D01*
X91333040Y-89817250D01*
X91333040Y-89815250D01*
X91334576Y-89814260D01*
X91388887Y-89808911D01*
X91440929Y-89793124D01*
X91488888Y-89767490D01*
X91530924Y-89732991D01*
X91565423Y-89690955D01*
X91591057Y-89642996D01*
X91606844Y-89590954D01*
X91612193Y-89536643D01*
X91613358Y-89535017D01*
X91615348Y-89535213D01*
G37*
G36*
X107223256Y-89535213D02*
G01*
X107224091Y-89536839D01*
X107224091Y-89618933D01*
X107224081Y-89619129D01*
X107219815Y-89662446D01*
X107219739Y-89662831D01*
X107208893Y-89698585D01*
X107208743Y-89698947D01*
X107191134Y-89731891D01*
X107190916Y-89732217D01*
X107167215Y-89761097D01*
X107166938Y-89761374D01*
X107138058Y-89785075D01*
X107137732Y-89785293D01*
X107104788Y-89802902D01*
X107104426Y-89803052D01*
X107068672Y-89813898D01*
X107068287Y-89813974D01*
X107024970Y-89818240D01*
X107024774Y-89818250D01*
X106942680Y-89818250D01*
X106940948Y-89817250D01*
X106940948Y-89815250D01*
X106942484Y-89814260D01*
X106996795Y-89808911D01*
X107048837Y-89793124D01*
X107096796Y-89767490D01*
X107138832Y-89732991D01*
X107173331Y-89690955D01*
X107198965Y-89642996D01*
X107214752Y-89590954D01*
X107220101Y-89536643D01*
X107221266Y-89535017D01*
X107223256Y-89535213D01*
G37*
G36*
X120331165Y-89535213D02*
G01*
X120332000Y-89536839D01*
X120332000Y-89618933D01*
X120331990Y-89619129D01*
X120327724Y-89662446D01*
X120327648Y-89662831D01*
X120316802Y-89698585D01*
X120316652Y-89698947D01*
X120299043Y-89731891D01*
X120298825Y-89732217D01*
X120275124Y-89761097D01*
X120274847Y-89761374D01*
X120245967Y-89785075D01*
X120245641Y-89785293D01*
X120212697Y-89802902D01*
X120212335Y-89803052D01*
X120176581Y-89813898D01*
X120176196Y-89813974D01*
X120132879Y-89818240D01*
X120132683Y-89818250D01*
X120050589Y-89818250D01*
X120048857Y-89817250D01*
X120048857Y-89815250D01*
X120050393Y-89814260D01*
X120104704Y-89808911D01*
X120156746Y-89793124D01*
X120204705Y-89767490D01*
X120246741Y-89732991D01*
X120281240Y-89690955D01*
X120306874Y-89642996D01*
X120322661Y-89590954D01*
X120328010Y-89536643D01*
X120329175Y-89535017D01*
X120331165Y-89535213D01*
G37*
G36*
X118431990Y-89536643D02*
G01*
X118437339Y-89590954D01*
X118453126Y-89642996D01*
X118478760Y-89690955D01*
X118513259Y-89732991D01*
X118555295Y-89767490D01*
X118603254Y-89793124D01*
X118655296Y-89808911D01*
X118709607Y-89814260D01*
X118711233Y-89815425D01*
X118711037Y-89817415D01*
X118709411Y-89818250D01*
X118627317Y-89818250D01*
X118627121Y-89818240D01*
X118583804Y-89813974D01*
X118583419Y-89813898D01*
X118547665Y-89803052D01*
X118547303Y-89802902D01*
X118514359Y-89785293D01*
X118514033Y-89785075D01*
X118485153Y-89761374D01*
X118484876Y-89761097D01*
X118461175Y-89732217D01*
X118460957Y-89731891D01*
X118443348Y-89698947D01*
X118443198Y-89698585D01*
X118432352Y-89662831D01*
X118432276Y-89662446D01*
X118428010Y-89619129D01*
X118428000Y-89618933D01*
X118428000Y-89536839D01*
X118429000Y-89535107D01*
X118431000Y-89535107D01*
X118431990Y-89536643D01*
G37*
G36*
X118711143Y-87665250D02*
G01*
X118711143Y-87667250D01*
X118709607Y-87668240D01*
X118655296Y-87673589D01*
X118603254Y-87689376D01*
X118555295Y-87715010D01*
X118513259Y-87749509D01*
X118478760Y-87791545D01*
X118453126Y-87839504D01*
X118437339Y-87891546D01*
X118431990Y-87945857D01*
X118430825Y-87947483D01*
X118428835Y-87947287D01*
X118428000Y-87945661D01*
X118428000Y-87863567D01*
X118428010Y-87863371D01*
X118432276Y-87820054D01*
X118432352Y-87819669D01*
X118443198Y-87783915D01*
X118443348Y-87783553D01*
X118460957Y-87750609D01*
X118461175Y-87750283D01*
X118484876Y-87721403D01*
X118485153Y-87721126D01*
X118514033Y-87697425D01*
X118514359Y-87697207D01*
X118547303Y-87679598D01*
X118547665Y-87679448D01*
X118583419Y-87668602D01*
X118583804Y-87668526D01*
X118627121Y-87664260D01*
X118627317Y-87664250D01*
X118709411Y-87664250D01*
X118711143Y-87665250D01*
G37*
G36*
X89995326Y-87665250D02*
G01*
X89995326Y-87667250D01*
X89993790Y-87668240D01*
X89939479Y-87673589D01*
X89887437Y-87689376D01*
X89839478Y-87715010D01*
X89797442Y-87749509D01*
X89762943Y-87791545D01*
X89737309Y-87839504D01*
X89721522Y-87891546D01*
X89716173Y-87945857D01*
X89715008Y-87947483D01*
X89713018Y-87947287D01*
X89712183Y-87945661D01*
X89712183Y-87863567D01*
X89712193Y-87863371D01*
X89716459Y-87820054D01*
X89716535Y-87819669D01*
X89727381Y-87783915D01*
X89727531Y-87783553D01*
X89745140Y-87750609D01*
X89745358Y-87750283D01*
X89769059Y-87721403D01*
X89769336Y-87721126D01*
X89798216Y-87697425D01*
X89798542Y-87697207D01*
X89831486Y-87679598D01*
X89831848Y-87679448D01*
X89867602Y-87668602D01*
X89867987Y-87668526D01*
X89911304Y-87664260D01*
X89911500Y-87664250D01*
X89993594Y-87664250D01*
X89995326Y-87665250D01*
G37*
G36*
X105603234Y-87665250D02*
G01*
X105603234Y-87667250D01*
X105601698Y-87668240D01*
X105547387Y-87673589D01*
X105495345Y-87689376D01*
X105447386Y-87715010D01*
X105405350Y-87749509D01*
X105370851Y-87791545D01*
X105345217Y-87839504D01*
X105329430Y-87891546D01*
X105324081Y-87945857D01*
X105322916Y-87947483D01*
X105320926Y-87947287D01*
X105320091Y-87945661D01*
X105320091Y-87863567D01*
X105320101Y-87863371D01*
X105324367Y-87820054D01*
X105324443Y-87819669D01*
X105335289Y-87783915D01*
X105335439Y-87783553D01*
X105353048Y-87750609D01*
X105353266Y-87750283D01*
X105376967Y-87721403D01*
X105377244Y-87721126D01*
X105406124Y-87697425D01*
X105406450Y-87697207D01*
X105439394Y-87679598D01*
X105439756Y-87679448D01*
X105475510Y-87668602D01*
X105475895Y-87668526D01*
X105519212Y-87664260D01*
X105519408Y-87664250D01*
X105601502Y-87664250D01*
X105603234Y-87665250D01*
G37*
G36*
X120132879Y-87664260D02*
G01*
X120176196Y-87668526D01*
X120176581Y-87668602D01*
X120212335Y-87679448D01*
X120212697Y-87679598D01*
X120245641Y-87697207D01*
X120245967Y-87697425D01*
X120274847Y-87721126D01*
X120275124Y-87721403D01*
X120298825Y-87750283D01*
X120299043Y-87750609D01*
X120316652Y-87783553D01*
X120316802Y-87783915D01*
X120327648Y-87819669D01*
X120327724Y-87820054D01*
X120331990Y-87863371D01*
X120332000Y-87863567D01*
X120332000Y-87945661D01*
X120331000Y-87947393D01*
X120329000Y-87947393D01*
X120328010Y-87945857D01*
X120322661Y-87891546D01*
X120306874Y-87839504D01*
X120281240Y-87791545D01*
X120246741Y-87749509D01*
X120204705Y-87715010D01*
X120156746Y-87689376D01*
X120104704Y-87673589D01*
X120050393Y-87668240D01*
X120048767Y-87667075D01*
X120048963Y-87665085D01*
X120050589Y-87664250D01*
X120132683Y-87664250D01*
X120132879Y-87664260D01*
G37*
G36*
X107024970Y-87664260D02*
G01*
X107068287Y-87668526D01*
X107068672Y-87668602D01*
X107104426Y-87679448D01*
X107104788Y-87679598D01*
X107137732Y-87697207D01*
X107138058Y-87697425D01*
X107166938Y-87721126D01*
X107167215Y-87721403D01*
X107190916Y-87750283D01*
X107191134Y-87750609D01*
X107208743Y-87783553D01*
X107208893Y-87783915D01*
X107219739Y-87819669D01*
X107219815Y-87820054D01*
X107224081Y-87863371D01*
X107224091Y-87863567D01*
X107224091Y-87945661D01*
X107223091Y-87947393D01*
X107221091Y-87947393D01*
X107220101Y-87945857D01*
X107214752Y-87891546D01*
X107198965Y-87839504D01*
X107173331Y-87791545D01*
X107138832Y-87749509D01*
X107096796Y-87715010D01*
X107048837Y-87689376D01*
X106996795Y-87673589D01*
X106942484Y-87668240D01*
X106940858Y-87667075D01*
X106941054Y-87665085D01*
X106942680Y-87664250D01*
X107024774Y-87664250D01*
X107024970Y-87664260D01*
G37*
G36*
X91417062Y-87664260D02*
G01*
X91460379Y-87668526D01*
X91460764Y-87668602D01*
X91496518Y-87679448D01*
X91496880Y-87679598D01*
X91529824Y-87697207D01*
X91530150Y-87697425D01*
X91559030Y-87721126D01*
X91559307Y-87721403D01*
X91583008Y-87750283D01*
X91583226Y-87750609D01*
X91600835Y-87783553D01*
X91600985Y-87783915D01*
X91611831Y-87819669D01*
X91611907Y-87820054D01*
X91616173Y-87863371D01*
X91616183Y-87863567D01*
X91616183Y-87945661D01*
X91615183Y-87947393D01*
X91613183Y-87947393D01*
X91612193Y-87945857D01*
X91606844Y-87891546D01*
X91591057Y-87839504D01*
X91565423Y-87791545D01*
X91530924Y-87749509D01*
X91488888Y-87715010D01*
X91440929Y-87689376D01*
X91388887Y-87673589D01*
X91334576Y-87668240D01*
X91332950Y-87667075D01*
X91333146Y-87665085D01*
X91334772Y-87664250D01*
X91416866Y-87664250D01*
X91417062Y-87664260D01*
G37*
G36*
X135521732Y-86139000D02*
G01*
X135522000Y-86140000D01*
X135522000Y-86290000D01*
X135521000Y-86291732D01*
X135520000Y-86292000D01*
X134520000Y-86292000D01*
X134518268Y-86291000D01*
X134518000Y-86290000D01*
X134518000Y-86140000D01*
X134519000Y-86138268D01*
X134520000Y-86138000D01*
X135520000Y-86138000D01*
X135521732Y-86139000D01*
G37*
G36*
X137321732Y-86139000D02*
G01*
X137322000Y-86140000D01*
X137322000Y-86290000D01*
X137321000Y-86291732D01*
X137320000Y-86292000D01*
X136320000Y-86292000D01*
X136318268Y-86291000D01*
X136318000Y-86290000D01*
X136318000Y-86140000D01*
X136319000Y-86138268D01*
X136320000Y-86138000D01*
X137320000Y-86138000D01*
X137321732Y-86139000D01*
G37*
G36*
X137321732Y-85339000D02*
G01*
X137322000Y-85340000D01*
X137322000Y-85540000D01*
X137321000Y-85541732D01*
X137320000Y-85542000D01*
X136320000Y-85542000D01*
X136318268Y-85541000D01*
X136318000Y-85540000D01*
X136318000Y-85340000D01*
X136319000Y-85338268D01*
X136320000Y-85338000D01*
X137320000Y-85338000D01*
X137321732Y-85339000D01*
G37*
G36*
X135521732Y-85339000D02*
G01*
X135522000Y-85340000D01*
X135522000Y-85540000D01*
X135521000Y-85541732D01*
X135520000Y-85542000D01*
X134520000Y-85542000D01*
X134518268Y-85541000D01*
X134518000Y-85540000D01*
X134518000Y-85340000D01*
X134519000Y-85338268D01*
X134520000Y-85338000D01*
X135520000Y-85338000D01*
X135521732Y-85339000D01*
G37*
G36*
X137321732Y-84589000D02*
G01*
X137322000Y-84590000D01*
X137322000Y-84740000D01*
X137321000Y-84741732D01*
X137320000Y-84742000D01*
X136320000Y-84742000D01*
X136318268Y-84741000D01*
X136318000Y-84740000D01*
X136318000Y-84590000D01*
X136319000Y-84588268D01*
X136320000Y-84588000D01*
X137320000Y-84588000D01*
X137321732Y-84589000D01*
G37*
G36*
X135521732Y-84589000D02*
G01*
X135522000Y-84590000D01*
X135522000Y-84740000D01*
X135521000Y-84741732D01*
X135520000Y-84742000D01*
X134520000Y-84742000D01*
X134518268Y-84741000D01*
X134518000Y-84740000D01*
X134518000Y-84590000D01*
X134519000Y-84588268D01*
X134520000Y-84588000D01*
X135520000Y-84588000D01*
X135521732Y-84589000D01*
G37*
G36*
X91615348Y-81486588D02*
G01*
X91616183Y-81488214D01*
X91616183Y-81570308D01*
X91616173Y-81570504D01*
X91611907Y-81613821D01*
X91611831Y-81614206D01*
X91600985Y-81649960D01*
X91600835Y-81650322D01*
X91583226Y-81683266D01*
X91583008Y-81683592D01*
X91559307Y-81712472D01*
X91559030Y-81712749D01*
X91530150Y-81736450D01*
X91529824Y-81736668D01*
X91496880Y-81754277D01*
X91496518Y-81754427D01*
X91460764Y-81765273D01*
X91460379Y-81765349D01*
X91417062Y-81769615D01*
X91416866Y-81769625D01*
X91334772Y-81769625D01*
X91333040Y-81768625D01*
X91333040Y-81766625D01*
X91334576Y-81765635D01*
X91388887Y-81760286D01*
X91440929Y-81744499D01*
X91488888Y-81718865D01*
X91530924Y-81684366D01*
X91565423Y-81642330D01*
X91591057Y-81594371D01*
X91606844Y-81542329D01*
X91612193Y-81488018D01*
X91613358Y-81486392D01*
X91615348Y-81486588D01*
G37*
G36*
X120331165Y-81486588D02*
G01*
X120332000Y-81488214D01*
X120332000Y-81570308D01*
X120331990Y-81570504D01*
X120327724Y-81613821D01*
X120327648Y-81614206D01*
X120316802Y-81649960D01*
X120316652Y-81650322D01*
X120299043Y-81683266D01*
X120298825Y-81683592D01*
X120275124Y-81712472D01*
X120274847Y-81712749D01*
X120245967Y-81736450D01*
X120245641Y-81736668D01*
X120212697Y-81754277D01*
X120212335Y-81754427D01*
X120176581Y-81765273D01*
X120176196Y-81765349D01*
X120132879Y-81769615D01*
X120132683Y-81769625D01*
X120050589Y-81769625D01*
X120048857Y-81768625D01*
X120048857Y-81766625D01*
X120050393Y-81765635D01*
X120104704Y-81760286D01*
X120156746Y-81744499D01*
X120204705Y-81718865D01*
X120246741Y-81684366D01*
X120281240Y-81642330D01*
X120306874Y-81594371D01*
X120322661Y-81542329D01*
X120328010Y-81488018D01*
X120329175Y-81486392D01*
X120331165Y-81486588D01*
G37*
G36*
X107223256Y-81486588D02*
G01*
X107224091Y-81488214D01*
X107224091Y-81570308D01*
X107224081Y-81570504D01*
X107219815Y-81613821D01*
X107219739Y-81614206D01*
X107208893Y-81649960D01*
X107208743Y-81650322D01*
X107191134Y-81683266D01*
X107190916Y-81683592D01*
X107167215Y-81712472D01*
X107166938Y-81712749D01*
X107138058Y-81736450D01*
X107137732Y-81736668D01*
X107104788Y-81754277D01*
X107104426Y-81754427D01*
X107068672Y-81765273D01*
X107068287Y-81765349D01*
X107024970Y-81769615D01*
X107024774Y-81769625D01*
X106942680Y-81769625D01*
X106940948Y-81768625D01*
X106940948Y-81766625D01*
X106942484Y-81765635D01*
X106996795Y-81760286D01*
X107048837Y-81744499D01*
X107096796Y-81718865D01*
X107138832Y-81684366D01*
X107173331Y-81642330D01*
X107198965Y-81594371D01*
X107214752Y-81542329D01*
X107220101Y-81488018D01*
X107221266Y-81486392D01*
X107223256Y-81486588D01*
G37*
G36*
X118431990Y-81488018D02*
G01*
X118437339Y-81542329D01*
X118453126Y-81594371D01*
X118478760Y-81642330D01*
X118513259Y-81684366D01*
X118555295Y-81718865D01*
X118603254Y-81744499D01*
X118655296Y-81760286D01*
X118709607Y-81765635D01*
X118711233Y-81766800D01*
X118711037Y-81768790D01*
X118709411Y-81769625D01*
X118627317Y-81769625D01*
X118627121Y-81769615D01*
X118583804Y-81765349D01*
X118583419Y-81765273D01*
X118547665Y-81754427D01*
X118547303Y-81754277D01*
X118514359Y-81736668D01*
X118514033Y-81736450D01*
X118485153Y-81712749D01*
X118484876Y-81712472D01*
X118461175Y-81683592D01*
X118460957Y-81683266D01*
X118443348Y-81650322D01*
X118443198Y-81649960D01*
X118432352Y-81614206D01*
X118432276Y-81613821D01*
X118428010Y-81570504D01*
X118428000Y-81570308D01*
X118428000Y-81488214D01*
X118429000Y-81486482D01*
X118431000Y-81486482D01*
X118431990Y-81488018D01*
G37*
G36*
X105324081Y-81488018D02*
G01*
X105329430Y-81542329D01*
X105345217Y-81594371D01*
X105370851Y-81642330D01*
X105405350Y-81684366D01*
X105447386Y-81718865D01*
X105495345Y-81744499D01*
X105547387Y-81760286D01*
X105601698Y-81765635D01*
X105603324Y-81766800D01*
X105603128Y-81768790D01*
X105601502Y-81769625D01*
X105519408Y-81769625D01*
X105519212Y-81769615D01*
X105475895Y-81765349D01*
X105475510Y-81765273D01*
X105439756Y-81754427D01*
X105439394Y-81754277D01*
X105406450Y-81736668D01*
X105406124Y-81736450D01*
X105377244Y-81712749D01*
X105376967Y-81712472D01*
X105353266Y-81683592D01*
X105353048Y-81683266D01*
X105335439Y-81650322D01*
X105335289Y-81649960D01*
X105324443Y-81614206D01*
X105324367Y-81613821D01*
X105320101Y-81570504D01*
X105320091Y-81570308D01*
X105320091Y-81488214D01*
X105321091Y-81486482D01*
X105323091Y-81486482D01*
X105324081Y-81488018D01*
G37*
G36*
X89716173Y-81488018D02*
G01*
X89721522Y-81542329D01*
X89737309Y-81594371D01*
X89762943Y-81642330D01*
X89797442Y-81684366D01*
X89839478Y-81718865D01*
X89887437Y-81744499D01*
X89939479Y-81760286D01*
X89993790Y-81765635D01*
X89995416Y-81766800D01*
X89995220Y-81768790D01*
X89993594Y-81769625D01*
X89911500Y-81769625D01*
X89911304Y-81769615D01*
X89867987Y-81765349D01*
X89867602Y-81765273D01*
X89831848Y-81754427D01*
X89831486Y-81754277D01*
X89798542Y-81736668D01*
X89798216Y-81736450D01*
X89769336Y-81712749D01*
X89769059Y-81712472D01*
X89745358Y-81683592D01*
X89745140Y-81683266D01*
X89727531Y-81650322D01*
X89727381Y-81649960D01*
X89716535Y-81614206D01*
X89716459Y-81613821D01*
X89712193Y-81570504D01*
X89712183Y-81570308D01*
X89712183Y-81488214D01*
X89713183Y-81486482D01*
X89715183Y-81486482D01*
X89716173Y-81488018D01*
G37*
G36*
X118711143Y-79616625D02*
G01*
X118711143Y-79618625D01*
X118709607Y-79619615D01*
X118655296Y-79624964D01*
X118603254Y-79640751D01*
X118555295Y-79666385D01*
X118513259Y-79700884D01*
X118478760Y-79742920D01*
X118453126Y-79790879D01*
X118437339Y-79842921D01*
X118431990Y-79897232D01*
X118430825Y-79898858D01*
X118428835Y-79898662D01*
X118428000Y-79897036D01*
X118428000Y-79814942D01*
X118428010Y-79814746D01*
X118432276Y-79771429D01*
X118432352Y-79771044D01*
X118443198Y-79735290D01*
X118443348Y-79734928D01*
X118460957Y-79701984D01*
X118461175Y-79701658D01*
X118484876Y-79672778D01*
X118485153Y-79672501D01*
X118514033Y-79648800D01*
X118514359Y-79648582D01*
X118547303Y-79630973D01*
X118547665Y-79630823D01*
X118583419Y-79619977D01*
X118583804Y-79619901D01*
X118627121Y-79615635D01*
X118627317Y-79615625D01*
X118709411Y-79615625D01*
X118711143Y-79616625D01*
G37*
G36*
X89995326Y-79616625D02*
G01*
X89995326Y-79618625D01*
X89993790Y-79619615D01*
X89939479Y-79624964D01*
X89887437Y-79640751D01*
X89839478Y-79666385D01*
X89797442Y-79700884D01*
X89762943Y-79742920D01*
X89737309Y-79790879D01*
X89721522Y-79842921D01*
X89716173Y-79897232D01*
X89715008Y-79898858D01*
X89713018Y-79898662D01*
X89712183Y-79897036D01*
X89712183Y-79814942D01*
X89712193Y-79814746D01*
X89716459Y-79771429D01*
X89716535Y-79771044D01*
X89727381Y-79735290D01*
X89727531Y-79734928D01*
X89745140Y-79701984D01*
X89745358Y-79701658D01*
X89769059Y-79672778D01*
X89769336Y-79672501D01*
X89798216Y-79648800D01*
X89798542Y-79648582D01*
X89831486Y-79630973D01*
X89831848Y-79630823D01*
X89867602Y-79619977D01*
X89867987Y-79619901D01*
X89911304Y-79615635D01*
X89911500Y-79615625D01*
X89993594Y-79615625D01*
X89995326Y-79616625D01*
G37*
G36*
X105603234Y-79616625D02*
G01*
X105603234Y-79618625D01*
X105601698Y-79619615D01*
X105547387Y-79624964D01*
X105495345Y-79640751D01*
X105447386Y-79666385D01*
X105405350Y-79700884D01*
X105370851Y-79742920D01*
X105345217Y-79790879D01*
X105329430Y-79842921D01*
X105324081Y-79897232D01*
X105322916Y-79898858D01*
X105320926Y-79898662D01*
X105320091Y-79897036D01*
X105320091Y-79814942D01*
X105320101Y-79814746D01*
X105324367Y-79771429D01*
X105324443Y-79771044D01*
X105335289Y-79735290D01*
X105335439Y-79734928D01*
X105353048Y-79701984D01*
X105353266Y-79701658D01*
X105376967Y-79672778D01*
X105377244Y-79672501D01*
X105406124Y-79648800D01*
X105406450Y-79648582D01*
X105439394Y-79630973D01*
X105439756Y-79630823D01*
X105475510Y-79619977D01*
X105475895Y-79619901D01*
X105519212Y-79615635D01*
X105519408Y-79615625D01*
X105601502Y-79615625D01*
X105603234Y-79616625D01*
G37*
G36*
X120132879Y-79615635D02*
G01*
X120176196Y-79619901D01*
X120176581Y-79619977D01*
X120212335Y-79630823D01*
X120212697Y-79630973D01*
X120245641Y-79648582D01*
X120245967Y-79648800D01*
X120274847Y-79672501D01*
X120275124Y-79672778D01*
X120298825Y-79701658D01*
X120299043Y-79701984D01*
X120316652Y-79734928D01*
X120316802Y-79735290D01*
X120327648Y-79771044D01*
X120327724Y-79771429D01*
X120331990Y-79814746D01*
X120332000Y-79814942D01*
X120332000Y-79897036D01*
X120331000Y-79898768D01*
X120329000Y-79898768D01*
X120328010Y-79897232D01*
X120322661Y-79842921D01*
X120306874Y-79790879D01*
X120281240Y-79742920D01*
X120246741Y-79700884D01*
X120204705Y-79666385D01*
X120156746Y-79640751D01*
X120104704Y-79624964D01*
X120050393Y-79619615D01*
X120048767Y-79618450D01*
X120048963Y-79616460D01*
X120050589Y-79615625D01*
X120132683Y-79615625D01*
X120132879Y-79615635D01*
G37*
G36*
X91417062Y-79615635D02*
G01*
X91460379Y-79619901D01*
X91460764Y-79619977D01*
X91496518Y-79630823D01*
X91496880Y-79630973D01*
X91529824Y-79648582D01*
X91530150Y-79648800D01*
X91559030Y-79672501D01*
X91559307Y-79672778D01*
X91583008Y-79701658D01*
X91583226Y-79701984D01*
X91600835Y-79734928D01*
X91600985Y-79735290D01*
X91611831Y-79771044D01*
X91611907Y-79771429D01*
X91616173Y-79814746D01*
X91616183Y-79814942D01*
X91616183Y-79897036D01*
X91615183Y-79898768D01*
X91613183Y-79898768D01*
X91612193Y-79897232D01*
X91606844Y-79842921D01*
X91591057Y-79790879D01*
X91565423Y-79742920D01*
X91530924Y-79700884D01*
X91488888Y-79666385D01*
X91440929Y-79640751D01*
X91388887Y-79624964D01*
X91334576Y-79619615D01*
X91332950Y-79618450D01*
X91333146Y-79616460D01*
X91334772Y-79615625D01*
X91416866Y-79615625D01*
X91417062Y-79615635D01*
G37*
G36*
X107024970Y-79615635D02*
G01*
X107068287Y-79619901D01*
X107068672Y-79619977D01*
X107104426Y-79630823D01*
X107104788Y-79630973D01*
X107137732Y-79648582D01*
X107138058Y-79648800D01*
X107166938Y-79672501D01*
X107167215Y-79672778D01*
X107190916Y-79701658D01*
X107191134Y-79701984D01*
X107208743Y-79734928D01*
X107208893Y-79735290D01*
X107219739Y-79771044D01*
X107219815Y-79771429D01*
X107224081Y-79814746D01*
X107224091Y-79814942D01*
X107224091Y-79897036D01*
X107223091Y-79898768D01*
X107221091Y-79898768D01*
X107220101Y-79897232D01*
X107214752Y-79842921D01*
X107198965Y-79790879D01*
X107173331Y-79742920D01*
X107138832Y-79700884D01*
X107096796Y-79666385D01*
X107048837Y-79640751D01*
X106996795Y-79624964D01*
X106942484Y-79619615D01*
X106940858Y-79618450D01*
X106941054Y-79616460D01*
X106942680Y-79615625D01*
X107024774Y-79615625D01*
X107024970Y-79615635D01*
G37*
G36*
X135521732Y-76919000D02*
G01*
X135522000Y-76920000D01*
X135522000Y-77070000D01*
X135521000Y-77071732D01*
X135520000Y-77072000D01*
X134520000Y-77072000D01*
X134518268Y-77071000D01*
X134518000Y-77070000D01*
X134518000Y-76920000D01*
X134519000Y-76918268D01*
X134520000Y-76918000D01*
X135520000Y-76918000D01*
X135521732Y-76919000D01*
G37*
G36*
X137321732Y-76919000D02*
G01*
X137322000Y-76920000D01*
X137322000Y-77070000D01*
X137321000Y-77071732D01*
X137320000Y-77072000D01*
X136320000Y-77072000D01*
X136318268Y-77071000D01*
X136318000Y-77070000D01*
X136318000Y-76920000D01*
X136319000Y-76918268D01*
X136320000Y-76918000D01*
X137320000Y-76918000D01*
X137321732Y-76919000D01*
G37*
G36*
X137321732Y-76119000D02*
G01*
X137322000Y-76120000D01*
X137322000Y-76320000D01*
X137321000Y-76321732D01*
X137320000Y-76322000D01*
X136320000Y-76322000D01*
X136318268Y-76321000D01*
X136318000Y-76320000D01*
X136318000Y-76120000D01*
X136319000Y-76118268D01*
X136320000Y-76118000D01*
X137320000Y-76118000D01*
X137321732Y-76119000D01*
G37*
G36*
X135521732Y-76119000D02*
G01*
X135522000Y-76120000D01*
X135522000Y-76320000D01*
X135521000Y-76321732D01*
X135520000Y-76322000D01*
X134520000Y-76322000D01*
X134518268Y-76321000D01*
X134518000Y-76320000D01*
X134518000Y-76120000D01*
X134519000Y-76118268D01*
X134520000Y-76118000D01*
X135520000Y-76118000D01*
X135521732Y-76119000D01*
G37*
G36*
X135521732Y-75369000D02*
G01*
X135522000Y-75370000D01*
X135522000Y-75520000D01*
X135521000Y-75521732D01*
X135520000Y-75522000D01*
X134520000Y-75522000D01*
X134518268Y-75521000D01*
X134518000Y-75520000D01*
X134518000Y-75370000D01*
X134519000Y-75368268D01*
X134520000Y-75368000D01*
X135520000Y-75368000D01*
X135521732Y-75369000D01*
G37*
G36*
X137321732Y-75369000D02*
G01*
X137322000Y-75370000D01*
X137322000Y-75520000D01*
X137321000Y-75521732D01*
X137320000Y-75522000D01*
X136320000Y-75522000D01*
X136318268Y-75521000D01*
X136318000Y-75520000D01*
X136318000Y-75370000D01*
X136319000Y-75368268D01*
X136320000Y-75368000D01*
X137320000Y-75368000D01*
X137321732Y-75369000D01*
G37*
G36*
X91615348Y-73437963D02*
G01*
X91616183Y-73439589D01*
X91616183Y-73521683D01*
X91616173Y-73521879D01*
X91611907Y-73565196D01*
X91611831Y-73565581D01*
X91600985Y-73601335D01*
X91600835Y-73601697D01*
X91583226Y-73634641D01*
X91583008Y-73634967D01*
X91559307Y-73663847D01*
X91559030Y-73664124D01*
X91530150Y-73687825D01*
X91529824Y-73688043D01*
X91496880Y-73705652D01*
X91496518Y-73705802D01*
X91460764Y-73716648D01*
X91460379Y-73716724D01*
X91417062Y-73720990D01*
X91416866Y-73721000D01*
X91334772Y-73721000D01*
X91333040Y-73720000D01*
X91333040Y-73718000D01*
X91334576Y-73717010D01*
X91388887Y-73711661D01*
X91440929Y-73695874D01*
X91488888Y-73670240D01*
X91530924Y-73635741D01*
X91565423Y-73593705D01*
X91591057Y-73545746D01*
X91606844Y-73493704D01*
X91612193Y-73439393D01*
X91613358Y-73437767D01*
X91615348Y-73437963D01*
G37*
G36*
X107223256Y-73437963D02*
G01*
X107224091Y-73439589D01*
X107224091Y-73521683D01*
X107224081Y-73521879D01*
X107219815Y-73565196D01*
X107219739Y-73565581D01*
X107208893Y-73601335D01*
X107208743Y-73601697D01*
X107191134Y-73634641D01*
X107190916Y-73634967D01*
X107167215Y-73663847D01*
X107166938Y-73664124D01*
X107138058Y-73687825D01*
X107137732Y-73688043D01*
X107104788Y-73705652D01*
X107104426Y-73705802D01*
X107068672Y-73716648D01*
X107068287Y-73716724D01*
X107024970Y-73720990D01*
X107024774Y-73721000D01*
X106942680Y-73721000D01*
X106940948Y-73720000D01*
X106940948Y-73718000D01*
X106942484Y-73717010D01*
X106996795Y-73711661D01*
X107048837Y-73695874D01*
X107096796Y-73670240D01*
X107138832Y-73635741D01*
X107173331Y-73593705D01*
X107198965Y-73545746D01*
X107214752Y-73493704D01*
X107220101Y-73439393D01*
X107221266Y-73437767D01*
X107223256Y-73437963D01*
G37*
G36*
X118431990Y-73439393D02*
G01*
X118437339Y-73493704D01*
X118453126Y-73545746D01*
X118478760Y-73593705D01*
X118513259Y-73635741D01*
X118555295Y-73670240D01*
X118603254Y-73695874D01*
X118655296Y-73711661D01*
X118709607Y-73717010D01*
X118711233Y-73718175D01*
X118711037Y-73720165D01*
X118709411Y-73721000D01*
X118627317Y-73721000D01*
X118627121Y-73720990D01*
X118583804Y-73716724D01*
X118583419Y-73716648D01*
X118547665Y-73705802D01*
X118547303Y-73705652D01*
X118514359Y-73688043D01*
X118514033Y-73687825D01*
X118485153Y-73664124D01*
X118484876Y-73663847D01*
X118461175Y-73634967D01*
X118460957Y-73634641D01*
X118443348Y-73601697D01*
X118443198Y-73601335D01*
X118432352Y-73565581D01*
X118432276Y-73565196D01*
X118428010Y-73521879D01*
X118428000Y-73521683D01*
X118428000Y-73439589D01*
X118429000Y-73437857D01*
X118431000Y-73437857D01*
X118431990Y-73439393D01*
G37*
G36*
X120331165Y-73437963D02*
G01*
X120332000Y-73439589D01*
X120332000Y-73521683D01*
X120331990Y-73521879D01*
X120327724Y-73565196D01*
X120327648Y-73565581D01*
X120316802Y-73601335D01*
X120316652Y-73601697D01*
X120299043Y-73634641D01*
X120298825Y-73634967D01*
X120275124Y-73663847D01*
X120274847Y-73664124D01*
X120245967Y-73687825D01*
X120245641Y-73688043D01*
X120212697Y-73705652D01*
X120212335Y-73705802D01*
X120176581Y-73716648D01*
X120176196Y-73716724D01*
X120132879Y-73720990D01*
X120132683Y-73721000D01*
X120050589Y-73721000D01*
X120048857Y-73720000D01*
X120048857Y-73718000D01*
X120050393Y-73717010D01*
X120104704Y-73711661D01*
X120156746Y-73695874D01*
X120204705Y-73670240D01*
X120246741Y-73635741D01*
X120281240Y-73593705D01*
X120306874Y-73545746D01*
X120322661Y-73493704D01*
X120328010Y-73439393D01*
X120329175Y-73437767D01*
X120331165Y-73437963D01*
G37*
G36*
X105324081Y-73439393D02*
G01*
X105329430Y-73493704D01*
X105345217Y-73545746D01*
X105370851Y-73593705D01*
X105405350Y-73635741D01*
X105447386Y-73670240D01*
X105495345Y-73695874D01*
X105547387Y-73711661D01*
X105601698Y-73717010D01*
X105603324Y-73718175D01*
X105603128Y-73720165D01*
X105601502Y-73721000D01*
X105519408Y-73721000D01*
X105519212Y-73720990D01*
X105475895Y-73716724D01*
X105475510Y-73716648D01*
X105439756Y-73705802D01*
X105439394Y-73705652D01*
X105406450Y-73688043D01*
X105406124Y-73687825D01*
X105377244Y-73664124D01*
X105376967Y-73663847D01*
X105353266Y-73634967D01*
X105353048Y-73634641D01*
X105335439Y-73601697D01*
X105335289Y-73601335D01*
X105324443Y-73565581D01*
X105324367Y-73565196D01*
X105320101Y-73521879D01*
X105320091Y-73521683D01*
X105320091Y-73439589D01*
X105321091Y-73437857D01*
X105323091Y-73437857D01*
X105324081Y-73439393D01*
G37*
G36*
X89716173Y-73439393D02*
G01*
X89721522Y-73493704D01*
X89737309Y-73545746D01*
X89762943Y-73593705D01*
X89797442Y-73635741D01*
X89839478Y-73670240D01*
X89887437Y-73695874D01*
X89939479Y-73711661D01*
X89993790Y-73717010D01*
X89995416Y-73718175D01*
X89995220Y-73720165D01*
X89993594Y-73721000D01*
X89911500Y-73721000D01*
X89911304Y-73720990D01*
X89867987Y-73716724D01*
X89867602Y-73716648D01*
X89831848Y-73705802D01*
X89831486Y-73705652D01*
X89798542Y-73688043D01*
X89798216Y-73687825D01*
X89769336Y-73664124D01*
X89769059Y-73663847D01*
X89745358Y-73634967D01*
X89745140Y-73634641D01*
X89727531Y-73601697D01*
X89727381Y-73601335D01*
X89716535Y-73565581D01*
X89716459Y-73565196D01*
X89712193Y-73521879D01*
X89712183Y-73521683D01*
X89712183Y-73439589D01*
X89713183Y-73437857D01*
X89715183Y-73437857D01*
X89716173Y-73439393D01*
G37*
G36*
X89995326Y-71568000D02*
G01*
X89995326Y-71570000D01*
X89993790Y-71570990D01*
X89939479Y-71576339D01*
X89887437Y-71592126D01*
X89839478Y-71617760D01*
X89797442Y-71652259D01*
X89762943Y-71694295D01*
X89737309Y-71742254D01*
X89721522Y-71794296D01*
X89716173Y-71848607D01*
X89715008Y-71850233D01*
X89713018Y-71850037D01*
X89712183Y-71848411D01*
X89712183Y-71766317D01*
X89712193Y-71766121D01*
X89716459Y-71722804D01*
X89716535Y-71722419D01*
X89727381Y-71686665D01*
X89727531Y-71686303D01*
X89745140Y-71653359D01*
X89745358Y-71653033D01*
X89769059Y-71624153D01*
X89769336Y-71623876D01*
X89798216Y-71600175D01*
X89798542Y-71599957D01*
X89831486Y-71582348D01*
X89831848Y-71582198D01*
X89867602Y-71571352D01*
X89867987Y-71571276D01*
X89911304Y-71567010D01*
X89911500Y-71567000D01*
X89993594Y-71567000D01*
X89995326Y-71568000D01*
G37*
G36*
X118711143Y-71568000D02*
G01*
X118711143Y-71570000D01*
X118709607Y-71570990D01*
X118655296Y-71576339D01*
X118603254Y-71592126D01*
X118555295Y-71617760D01*
X118513259Y-71652259D01*
X118478760Y-71694295D01*
X118453126Y-71742254D01*
X118437339Y-71794296D01*
X118431990Y-71848607D01*
X118430825Y-71850233D01*
X118428835Y-71850037D01*
X118428000Y-71848411D01*
X118428000Y-71766317D01*
X118428010Y-71766121D01*
X118432276Y-71722804D01*
X118432352Y-71722419D01*
X118443198Y-71686665D01*
X118443348Y-71686303D01*
X118460957Y-71653359D01*
X118461175Y-71653033D01*
X118484876Y-71624153D01*
X118485153Y-71623876D01*
X118514033Y-71600175D01*
X118514359Y-71599957D01*
X118547303Y-71582348D01*
X118547665Y-71582198D01*
X118583419Y-71571352D01*
X118583804Y-71571276D01*
X118627121Y-71567010D01*
X118627317Y-71567000D01*
X118709411Y-71567000D01*
X118711143Y-71568000D01*
G37*
G36*
X105603234Y-71568000D02*
G01*
X105603234Y-71570000D01*
X105601698Y-71570990D01*
X105547387Y-71576339D01*
X105495345Y-71592126D01*
X105447386Y-71617760D01*
X105405350Y-71652259D01*
X105370851Y-71694295D01*
X105345217Y-71742254D01*
X105329430Y-71794296D01*
X105324081Y-71848607D01*
X105322916Y-71850233D01*
X105320926Y-71850037D01*
X105320091Y-71848411D01*
X105320091Y-71766317D01*
X105320101Y-71766121D01*
X105324367Y-71722804D01*
X105324443Y-71722419D01*
X105335289Y-71686665D01*
X105335439Y-71686303D01*
X105353048Y-71653359D01*
X105353266Y-71653033D01*
X105376967Y-71624153D01*
X105377244Y-71623876D01*
X105406124Y-71600175D01*
X105406450Y-71599957D01*
X105439394Y-71582348D01*
X105439756Y-71582198D01*
X105475510Y-71571352D01*
X105475895Y-71571276D01*
X105519212Y-71567010D01*
X105519408Y-71567000D01*
X105601502Y-71567000D01*
X105603234Y-71568000D01*
G37*
G36*
X120132879Y-71567010D02*
G01*
X120176196Y-71571276D01*
X120176581Y-71571352D01*
X120212335Y-71582198D01*
X120212697Y-71582348D01*
X120245641Y-71599957D01*
X120245967Y-71600175D01*
X120274847Y-71623876D01*
X120275124Y-71624153D01*
X120298825Y-71653033D01*
X120299043Y-71653359D01*
X120316652Y-71686303D01*
X120316802Y-71686665D01*
X120327648Y-71722419D01*
X120327724Y-71722804D01*
X120331990Y-71766121D01*
X120332000Y-71766317D01*
X120332000Y-71848411D01*
X120331000Y-71850143D01*
X120329000Y-71850143D01*
X120328010Y-71848607D01*
X120322661Y-71794296D01*
X120306874Y-71742254D01*
X120281240Y-71694295D01*
X120246741Y-71652259D01*
X120204705Y-71617760D01*
X120156746Y-71592126D01*
X120104704Y-71576339D01*
X120050393Y-71570990D01*
X120048767Y-71569825D01*
X120048963Y-71567835D01*
X120050589Y-71567000D01*
X120132683Y-71567000D01*
X120132879Y-71567010D01*
G37*
G36*
X107024970Y-71567010D02*
G01*
X107068287Y-71571276D01*
X107068672Y-71571352D01*
X107104426Y-71582198D01*
X107104788Y-71582348D01*
X107137732Y-71599957D01*
X107138058Y-71600175D01*
X107166938Y-71623876D01*
X107167215Y-71624153D01*
X107190916Y-71653033D01*
X107191134Y-71653359D01*
X107208743Y-71686303D01*
X107208893Y-71686665D01*
X107219739Y-71722419D01*
X107219815Y-71722804D01*
X107224081Y-71766121D01*
X107224091Y-71766317D01*
X107224091Y-71848411D01*
X107223091Y-71850143D01*
X107221091Y-71850143D01*
X107220101Y-71848607D01*
X107214752Y-71794296D01*
X107198965Y-71742254D01*
X107173331Y-71694295D01*
X107138832Y-71652259D01*
X107096796Y-71617760D01*
X107048837Y-71592126D01*
X106996795Y-71576339D01*
X106942484Y-71570990D01*
X106940858Y-71569825D01*
X106941054Y-71567835D01*
X106942680Y-71567000D01*
X107024774Y-71567000D01*
X107024970Y-71567010D01*
G37*
G36*
X91417062Y-71567010D02*
G01*
X91460379Y-71571276D01*
X91460764Y-71571352D01*
X91496518Y-71582198D01*
X91496880Y-71582348D01*
X91529824Y-71599957D01*
X91530150Y-71600175D01*
X91559030Y-71623876D01*
X91559307Y-71624153D01*
X91583008Y-71653033D01*
X91583226Y-71653359D01*
X91600835Y-71686303D01*
X91600985Y-71686665D01*
X91611831Y-71722419D01*
X91611907Y-71722804D01*
X91616173Y-71766121D01*
X91616183Y-71766317D01*
X91616183Y-71848411D01*
X91615183Y-71850143D01*
X91613183Y-71850143D01*
X91612193Y-71848607D01*
X91606844Y-71794296D01*
X91591057Y-71742254D01*
X91565423Y-71694295D01*
X91530924Y-71652259D01*
X91488888Y-71617760D01*
X91440929Y-71592126D01*
X91388887Y-71576339D01*
X91334576Y-71570990D01*
X91332950Y-71569825D01*
X91333146Y-71567835D01*
X91334772Y-71567000D01*
X91416866Y-71567000D01*
X91417062Y-71567010D01*
G37*
M02*
