%TF.GenerationSoftware,KiCad,Pcbnew,(5.1.7)-1*%
%TF.CreationDate,2022-01-16T10:28:54-05:00*%
%TF.ProjectId,reef-piHat,72656566-2d70-4694-9861-742e6b696361,rev?*%
%TF.SameCoordinates,Original*%
%TF.FileFunction,Soldermask,Bot*%
%TF.FilePolarity,Negative*%
%FSLAX46Y46*%
G04 Gerber Fmt 4.6, Leading zero omitted, Abs format (unit mm)*
G04 Created by KiCad (PCBNEW (5.1.7)-1) date 2022-01-16 10:28:54*
%MOMM*%
%LPD*%
G01*
G04 APERTURE LIST*
%TA.AperFunction,Profile*%
%ADD10C,0.100000*%
%TD*%
%ADD11O,1.900000X1.900000*%
%ADD12O,1.900000X2.200000*%
%ADD13O,1.900000X2.150000*%
%ADD14C,3.200000*%
%ADD15C,0.100000*%
G04 APERTURE END LIST*
D10*
X78546356Y-63817611D02*
X78546356Y-113817611D01*
X78546356Y-63817611D02*
G75*
G02*
X81546356Y-60817611I3000000J0D01*
G01*
X140546356Y-60817611D02*
X81546356Y-60817611D01*
X140546356Y-60817611D02*
G75*
G02*
X143546356Y-63817611I0J-3000000D01*
G01*
X143546356Y-113817611D02*
X143546356Y-63817611D01*
X81546356Y-116817611D02*
G75*
G02*
X78546356Y-113817611I0J3000000D01*
G01*
X81546356Y-116817611D02*
X140546356Y-116817611D01*
X143546351Y-113822847D02*
G75*
G02*
X140546356Y-116817611I-2999995J5236D01*
G01*
X78546356Y-63817611D02*
X78546356Y-113817611D01*
X78546356Y-63817611D02*
G75*
G02*
X81546356Y-60817611I3000000J0D01*
G01*
X140546356Y-60817611D02*
X81546356Y-60817611D01*
X140546356Y-60817611D02*
G75*
G02*
X143546356Y-63817611I0J-3000000D01*
G01*
X143546356Y-113817611D02*
X143546356Y-63817611D01*
X81546356Y-116817611D02*
G75*
G02*
X78546356Y-113817611I0J3000000D01*
G01*
X81546356Y-116817611D02*
X140546356Y-116817611D01*
X143546351Y-113822847D02*
G75*
G02*
X140546356Y-116817611I-2999995J5236D01*
G01*
G36*
G01*
X137480000Y-99148000D02*
X137480000Y-97448000D01*
G75*
G02*
X137580000Y-97348000I100000J0D01*
G01*
X139280000Y-97348000D01*
G75*
G02*
X139380000Y-97448000I0J-100000D01*
G01*
X139380000Y-99148000D01*
G75*
G02*
X139280000Y-99248000I-100000J0D01*
G01*
X137580000Y-99248000D01*
G75*
G02*
X137480000Y-99148000I0J100000D01*
G01*
G37*
D11*
X140970000Y-98298000D03*
X138430000Y-100838000D03*
X140970000Y-100838000D03*
X138430000Y-103378000D03*
X140970000Y-103378000D03*
X138430000Y-105918000D03*
X140970000Y-105918000D03*
X138430000Y-108458000D03*
X140970000Y-108458000D03*
D12*
X130690000Y-113270000D03*
G36*
G01*
X134140000Y-112449300D02*
X134140000Y-114090700D01*
G75*
G02*
X133860700Y-114370000I-279300J0D01*
G01*
X132519300Y-114370000D01*
G75*
G02*
X132240000Y-114090700I0J279300D01*
G01*
X132240000Y-112449300D01*
G75*
G02*
X132519300Y-112170000I279300J0D01*
G01*
X133860700Y-112170000D01*
G75*
G02*
X134140000Y-112449300I0J-279300D01*
G01*
G37*
X88770000Y-113140000D03*
G36*
G01*
X92220000Y-112319300D02*
X92220000Y-113960700D01*
G75*
G02*
X91940700Y-114240000I-279300J0D01*
G01*
X90599300Y-114240000D01*
G75*
G02*
X90320000Y-113960700I0J279300D01*
G01*
X90320000Y-112319300D01*
G75*
G02*
X90599300Y-112040000I279300J0D01*
G01*
X91940700Y-112040000D01*
G75*
G02*
X92220000Y-112319300I0J-279300D01*
G01*
G37*
D13*
X114380000Y-80692625D03*
X116880000Y-80692625D03*
G36*
G01*
X120330000Y-79897036D02*
X120330000Y-81488214D01*
G75*
G02*
X120050589Y-81767625I-279411J0D01*
G01*
X118709411Y-81767625D01*
G75*
G02*
X118430000Y-81488214I0J279411D01*
G01*
X118430000Y-79897036D01*
G75*
G02*
X118709411Y-79617625I279411J0D01*
G01*
X120050589Y-79617625D01*
G75*
G02*
X120330000Y-79897036I0J-279411D01*
G01*
G37*
G36*
G01*
X91614183Y-104042911D02*
X91614183Y-105634089D01*
G75*
G02*
X91334772Y-105913500I-279411J0D01*
G01*
X89993594Y-105913500D01*
G75*
G02*
X89714183Y-105634089I0J279411D01*
G01*
X89714183Y-104042911D01*
G75*
G02*
X89993594Y-103763500I279411J0D01*
G01*
X91334772Y-103763500D01*
G75*
G02*
X91614183Y-104042911I0J-279411D01*
G01*
G37*
X88164183Y-104838500D03*
X85664183Y-104838500D03*
X83164183Y-104838500D03*
G36*
G01*
X86070000Y-64640000D02*
X87770000Y-64640000D01*
G75*
G02*
X87870000Y-64740000I0J-100000D01*
G01*
X87870000Y-66440000D01*
G75*
G02*
X87770000Y-66540000I-100000J0D01*
G01*
X86070000Y-66540000D01*
G75*
G02*
X85970000Y-66440000I0J100000D01*
G01*
X85970000Y-64740000D01*
G75*
G02*
X86070000Y-64640000I100000J0D01*
G01*
G37*
D11*
X86920000Y-63050000D03*
X89460000Y-65590000D03*
X89460000Y-63050000D03*
X92000000Y-65590000D03*
X92000000Y-63050000D03*
X94540000Y-65590000D03*
X94540000Y-63050000D03*
X97080000Y-65590000D03*
X97080000Y-63050000D03*
X99620000Y-65590000D03*
X99620000Y-63050000D03*
X102160000Y-65590000D03*
X102160000Y-63050000D03*
X104700000Y-65590000D03*
X104700000Y-63050000D03*
X107240000Y-65590000D03*
X107240000Y-63050000D03*
X109780000Y-65590000D03*
X109780000Y-63050000D03*
X112320000Y-65590000D03*
X112320000Y-63050000D03*
X114860000Y-65590000D03*
X114860000Y-63050000D03*
X117400000Y-65590000D03*
X117400000Y-63050000D03*
X119940000Y-65590000D03*
X119940000Y-63050000D03*
X122480000Y-65590000D03*
X122480000Y-63050000D03*
X125020000Y-65590000D03*
X125020000Y-63050000D03*
X127560000Y-65590000D03*
X127560000Y-63050000D03*
X130100000Y-65590000D03*
X130100000Y-63050000D03*
X132640000Y-65590000D03*
X132640000Y-63050000D03*
X135180000Y-65590000D03*
X135180000Y-63050000D03*
D14*
X82040000Y-64310000D03*
X140040000Y-64330000D03*
X82040000Y-113320000D03*
X140030000Y-113310000D03*
D13*
X98772091Y-88741250D03*
X101272091Y-88741250D03*
X103772091Y-88741250D03*
G36*
G01*
X107222091Y-87945661D02*
X107222091Y-89536839D01*
G75*
G02*
X106942680Y-89816250I-279411J0D01*
G01*
X105601502Y-89816250D01*
G75*
G02*
X105322091Y-89536839I0J279411D01*
G01*
X105322091Y-87945661D01*
G75*
G02*
X105601502Y-87666250I279411J0D01*
G01*
X106942680Y-87666250D01*
G75*
G02*
X107222091Y-87945661I0J-279411D01*
G01*
G37*
G36*
G01*
X91614183Y-95994286D02*
X91614183Y-97585464D01*
G75*
G02*
X91334772Y-97864875I-279411J0D01*
G01*
X89993594Y-97864875D01*
G75*
G02*
X89714183Y-97585464I0J279411D01*
G01*
X89714183Y-95994286D01*
G75*
G02*
X89993594Y-95714875I279411J0D01*
G01*
X91334772Y-95714875D01*
G75*
G02*
X91614183Y-95994286I0J-279411D01*
G01*
G37*
X88164183Y-96789875D03*
X85664183Y-96789875D03*
X83164183Y-96789875D03*
G36*
G01*
X107222091Y-71848411D02*
X107222091Y-73439589D01*
G75*
G02*
X106942680Y-73719000I-279411J0D01*
G01*
X105601502Y-73719000D01*
G75*
G02*
X105322091Y-73439589I0J279411D01*
G01*
X105322091Y-71848411D01*
G75*
G02*
X105601502Y-71569000I279411J0D01*
G01*
X106942680Y-71569000D01*
G75*
G02*
X107222091Y-71848411I0J-279411D01*
G01*
G37*
X103772091Y-72644000D03*
X101272091Y-72644000D03*
X98772091Y-72644000D03*
X98772091Y-80692625D03*
X101272091Y-80692625D03*
X103772091Y-80692625D03*
G36*
G01*
X107222091Y-79897036D02*
X107222091Y-81488214D01*
G75*
G02*
X106942680Y-81767625I-279411J0D01*
G01*
X105601502Y-81767625D01*
G75*
G02*
X105322091Y-81488214I0J279411D01*
G01*
X105322091Y-79897036D01*
G75*
G02*
X105601502Y-79617625I279411J0D01*
G01*
X106942680Y-79617625D01*
G75*
G02*
X107222091Y-79897036I0J-279411D01*
G01*
G37*
G36*
G01*
X91614183Y-71848411D02*
X91614183Y-73439589D01*
G75*
G02*
X91334772Y-73719000I-279411J0D01*
G01*
X89993594Y-73719000D01*
G75*
G02*
X89714183Y-73439589I0J279411D01*
G01*
X89714183Y-71848411D01*
G75*
G02*
X89993594Y-71569000I279411J0D01*
G01*
X91334772Y-71569000D01*
G75*
G02*
X91614183Y-71848411I0J-279411D01*
G01*
G37*
X88164183Y-72644000D03*
X85664183Y-72644000D03*
X83164183Y-72644000D03*
X83164183Y-80692625D03*
X85664183Y-80692625D03*
X88164183Y-80692625D03*
G36*
G01*
X91614183Y-79897036D02*
X91614183Y-81488214D01*
G75*
G02*
X91334772Y-81767625I-279411J0D01*
G01*
X89993594Y-81767625D01*
G75*
G02*
X89714183Y-81488214I0J279411D01*
G01*
X89714183Y-79897036D01*
G75*
G02*
X89993594Y-79617625I279411J0D01*
G01*
X91334772Y-79617625D01*
G75*
G02*
X91614183Y-79897036I0J-279411D01*
G01*
G37*
G36*
G01*
X120330000Y-71848411D02*
X120330000Y-73439589D01*
G75*
G02*
X120050589Y-73719000I-279411J0D01*
G01*
X118709411Y-73719000D01*
G75*
G02*
X118430000Y-73439589I0J279411D01*
G01*
X118430000Y-71848411D01*
G75*
G02*
X118709411Y-71569000I279411J0D01*
G01*
X120050589Y-71569000D01*
G75*
G02*
X120330000Y-71848411I0J-279411D01*
G01*
G37*
X116880000Y-72644000D03*
X114380000Y-72644000D03*
G36*
G01*
X120330000Y-87945661D02*
X120330000Y-89536839D01*
G75*
G02*
X120050589Y-89816250I-279411J0D01*
G01*
X118709411Y-89816250D01*
G75*
G02*
X118430000Y-89536839I0J279411D01*
G01*
X118430000Y-87945661D01*
G75*
G02*
X118709411Y-87666250I279411J0D01*
G01*
X120050589Y-87666250D01*
G75*
G02*
X120330000Y-87945661I0J-279411D01*
G01*
G37*
X116880000Y-88741250D03*
X114380000Y-88741250D03*
G36*
G01*
X141920000Y-91606000D02*
X141920000Y-93306000D01*
G75*
G02*
X141820000Y-93406000I-100000J0D01*
G01*
X140120000Y-93406000D01*
G75*
G02*
X140020000Y-93306000I0J100000D01*
G01*
X140020000Y-91606000D01*
G75*
G02*
X140120000Y-91506000I100000J0D01*
G01*
X141820000Y-91506000D01*
G75*
G02*
X141920000Y-91606000I0J-100000D01*
G01*
G37*
D11*
X140970000Y-89916000D03*
X140970000Y-87376000D03*
X140970000Y-84836000D03*
X140970000Y-82296000D03*
X140970000Y-79756000D03*
X140970000Y-77216000D03*
X140970000Y-74676000D03*
X140970000Y-72136000D03*
X140970000Y-69596000D03*
G36*
G01*
X91614183Y-87945661D02*
X91614183Y-89536839D01*
G75*
G02*
X91334772Y-89816250I-279411J0D01*
G01*
X89993594Y-89816250D01*
G75*
G02*
X89714183Y-89536839I0J279411D01*
G01*
X89714183Y-87945661D01*
G75*
G02*
X89993594Y-87666250I279411J0D01*
G01*
X91334772Y-87666250D01*
G75*
G02*
X91614183Y-87945661I0J-279411D01*
G01*
G37*
D13*
X88164183Y-88741250D03*
X85664183Y-88741250D03*
X83164183Y-88741250D03*
D15*
G36*
X132241990Y-114090504D02*
G01*
X132247337Y-114144794D01*
X132263117Y-114196814D01*
X132288742Y-114244755D01*
X132323226Y-114286774D01*
X132365245Y-114321258D01*
X132413186Y-114346883D01*
X132465206Y-114362663D01*
X132519496Y-114368010D01*
X132521122Y-114369175D01*
X132520926Y-114371165D01*
X132519300Y-114372000D01*
X132437190Y-114372000D01*
X132436994Y-114371990D01*
X132393702Y-114367726D01*
X132393317Y-114367650D01*
X132357588Y-114356812D01*
X132357226Y-114356662D01*
X132324301Y-114339063D01*
X132323975Y-114338845D01*
X132295116Y-114315161D01*
X132294839Y-114314884D01*
X132271155Y-114286025D01*
X132270937Y-114285699D01*
X132253338Y-114252774D01*
X132253188Y-114252412D01*
X132242350Y-114216683D01*
X132242274Y-114216298D01*
X132238010Y-114173006D01*
X132238000Y-114172810D01*
X132238000Y-114090700D01*
X132239000Y-114088968D01*
X132241000Y-114088968D01*
X132241990Y-114090504D01*
G37*
G36*
X134141165Y-114089074D02*
G01*
X134142000Y-114090700D01*
X134142000Y-114172810D01*
X134141990Y-114173006D01*
X134137726Y-114216298D01*
X134137650Y-114216683D01*
X134126812Y-114252412D01*
X134126662Y-114252774D01*
X134109063Y-114285699D01*
X134108845Y-114286025D01*
X134085161Y-114314884D01*
X134084884Y-114315161D01*
X134056025Y-114338845D01*
X134055699Y-114339063D01*
X134022774Y-114356662D01*
X134022412Y-114356812D01*
X133986683Y-114367650D01*
X133986298Y-114367726D01*
X133943006Y-114371990D01*
X133942810Y-114372000D01*
X133860700Y-114372000D01*
X133858968Y-114371000D01*
X133858968Y-114369000D01*
X133860504Y-114368010D01*
X133914794Y-114362663D01*
X133966814Y-114346883D01*
X134014755Y-114321258D01*
X134056774Y-114286774D01*
X134091258Y-114244755D01*
X134116883Y-114196814D01*
X134132663Y-114144794D01*
X134138010Y-114090504D01*
X134139175Y-114088878D01*
X134141165Y-114089074D01*
G37*
G36*
X92221165Y-113959074D02*
G01*
X92222000Y-113960700D01*
X92222000Y-114042810D01*
X92221990Y-114043006D01*
X92217726Y-114086298D01*
X92217650Y-114086683D01*
X92206812Y-114122412D01*
X92206662Y-114122774D01*
X92189063Y-114155699D01*
X92188845Y-114156025D01*
X92165161Y-114184884D01*
X92164884Y-114185161D01*
X92136025Y-114208845D01*
X92135699Y-114209063D01*
X92102774Y-114226662D01*
X92102412Y-114226812D01*
X92066683Y-114237650D01*
X92066298Y-114237726D01*
X92023006Y-114241990D01*
X92022810Y-114242000D01*
X91940700Y-114242000D01*
X91938968Y-114241000D01*
X91938968Y-114239000D01*
X91940504Y-114238010D01*
X91994794Y-114232663D01*
X92046814Y-114216883D01*
X92094755Y-114191258D01*
X92136774Y-114156774D01*
X92171258Y-114114755D01*
X92196883Y-114066814D01*
X92212663Y-114014794D01*
X92218010Y-113960504D01*
X92219175Y-113958878D01*
X92221165Y-113959074D01*
G37*
G36*
X90321990Y-113960504D02*
G01*
X90327337Y-114014794D01*
X90343117Y-114066814D01*
X90368742Y-114114755D01*
X90403226Y-114156774D01*
X90445245Y-114191258D01*
X90493186Y-114216883D01*
X90545206Y-114232663D01*
X90599496Y-114238010D01*
X90601122Y-114239175D01*
X90600926Y-114241165D01*
X90599300Y-114242000D01*
X90517190Y-114242000D01*
X90516994Y-114241990D01*
X90473702Y-114237726D01*
X90473317Y-114237650D01*
X90437588Y-114226812D01*
X90437226Y-114226662D01*
X90404301Y-114209063D01*
X90403975Y-114208845D01*
X90375116Y-114185161D01*
X90374839Y-114184884D01*
X90351155Y-114156025D01*
X90350937Y-114155699D01*
X90333338Y-114122774D01*
X90333188Y-114122412D01*
X90322350Y-114086683D01*
X90322274Y-114086298D01*
X90318010Y-114043006D01*
X90318000Y-114042810D01*
X90318000Y-113960700D01*
X90319000Y-113958968D01*
X90321000Y-113958968D01*
X90321990Y-113960504D01*
G37*
G36*
X132521032Y-112169000D02*
G01*
X132521032Y-112171000D01*
X132519496Y-112171990D01*
X132465206Y-112177337D01*
X132413186Y-112193117D01*
X132365245Y-112218742D01*
X132323226Y-112253226D01*
X132288742Y-112295245D01*
X132263117Y-112343186D01*
X132247337Y-112395206D01*
X132241990Y-112449496D01*
X132240825Y-112451122D01*
X132238835Y-112450926D01*
X132238000Y-112449300D01*
X132238000Y-112367190D01*
X132238010Y-112366994D01*
X132242274Y-112323702D01*
X132242350Y-112323317D01*
X132253188Y-112287588D01*
X132253338Y-112287226D01*
X132270937Y-112254301D01*
X132271155Y-112253975D01*
X132294839Y-112225116D01*
X132295116Y-112224839D01*
X132323975Y-112201155D01*
X132324301Y-112200937D01*
X132357226Y-112183338D01*
X132357588Y-112183188D01*
X132393317Y-112172350D01*
X132393702Y-112172274D01*
X132436994Y-112168010D01*
X132437190Y-112168000D01*
X132519300Y-112168000D01*
X132521032Y-112169000D01*
G37*
G36*
X133943006Y-112168010D02*
G01*
X133986298Y-112172274D01*
X133986683Y-112172350D01*
X134022412Y-112183188D01*
X134022774Y-112183338D01*
X134055699Y-112200937D01*
X134056025Y-112201155D01*
X134084884Y-112224839D01*
X134085161Y-112225116D01*
X134108845Y-112253975D01*
X134109063Y-112254301D01*
X134126662Y-112287226D01*
X134126812Y-112287588D01*
X134137650Y-112323317D01*
X134137726Y-112323702D01*
X134141990Y-112366994D01*
X134142000Y-112367190D01*
X134142000Y-112449300D01*
X134141000Y-112451032D01*
X134139000Y-112451032D01*
X134138010Y-112449496D01*
X134132663Y-112395206D01*
X134116883Y-112343186D01*
X134091258Y-112295245D01*
X134056774Y-112253226D01*
X134014755Y-112218742D01*
X133966814Y-112193117D01*
X133914794Y-112177337D01*
X133860504Y-112171990D01*
X133858878Y-112170825D01*
X133859074Y-112168835D01*
X133860700Y-112168000D01*
X133942810Y-112168000D01*
X133943006Y-112168010D01*
G37*
G36*
X90601032Y-112039000D02*
G01*
X90601032Y-112041000D01*
X90599496Y-112041990D01*
X90545206Y-112047337D01*
X90493186Y-112063117D01*
X90445245Y-112088742D01*
X90403226Y-112123226D01*
X90368742Y-112165245D01*
X90343117Y-112213186D01*
X90327337Y-112265206D01*
X90321990Y-112319496D01*
X90320825Y-112321122D01*
X90318835Y-112320926D01*
X90318000Y-112319300D01*
X90318000Y-112237190D01*
X90318010Y-112236994D01*
X90322274Y-112193702D01*
X90322350Y-112193317D01*
X90333188Y-112157588D01*
X90333338Y-112157226D01*
X90350937Y-112124301D01*
X90351155Y-112123975D01*
X90374839Y-112095116D01*
X90375116Y-112094839D01*
X90403975Y-112071155D01*
X90404301Y-112070937D01*
X90437226Y-112053338D01*
X90437588Y-112053188D01*
X90473317Y-112042350D01*
X90473702Y-112042274D01*
X90516994Y-112038010D01*
X90517190Y-112038000D01*
X90599300Y-112038000D01*
X90601032Y-112039000D01*
G37*
G36*
X92023006Y-112038010D02*
G01*
X92066298Y-112042274D01*
X92066683Y-112042350D01*
X92102412Y-112053188D01*
X92102774Y-112053338D01*
X92135699Y-112070937D01*
X92136025Y-112071155D01*
X92164884Y-112094839D01*
X92165161Y-112095116D01*
X92188845Y-112123975D01*
X92189063Y-112124301D01*
X92206662Y-112157226D01*
X92206812Y-112157588D01*
X92217650Y-112193317D01*
X92217726Y-112193702D01*
X92221990Y-112236994D01*
X92222000Y-112237190D01*
X92222000Y-112319300D01*
X92221000Y-112321032D01*
X92219000Y-112321032D01*
X92218010Y-112319496D01*
X92212663Y-112265206D01*
X92196883Y-112213186D01*
X92171258Y-112165245D01*
X92136774Y-112123226D01*
X92094755Y-112088742D01*
X92046814Y-112063117D01*
X91994794Y-112047337D01*
X91940504Y-112041990D01*
X91938878Y-112040825D01*
X91939074Y-112038835D01*
X91940700Y-112038000D01*
X92022810Y-112038000D01*
X92023006Y-112038010D01*
G37*
G36*
X89716173Y-105633893D02*
G01*
X89721522Y-105688204D01*
X89737309Y-105740246D01*
X89762943Y-105788205D01*
X89797442Y-105830241D01*
X89839478Y-105864740D01*
X89887437Y-105890374D01*
X89939479Y-105906161D01*
X89993790Y-105911510D01*
X89995416Y-105912675D01*
X89995220Y-105914665D01*
X89993594Y-105915500D01*
X89911500Y-105915500D01*
X89911304Y-105915490D01*
X89867987Y-105911224D01*
X89867602Y-105911148D01*
X89831848Y-105900302D01*
X89831486Y-105900152D01*
X89798542Y-105882543D01*
X89798216Y-105882325D01*
X89769336Y-105858624D01*
X89769059Y-105858347D01*
X89745358Y-105829467D01*
X89745140Y-105829141D01*
X89727531Y-105796197D01*
X89727381Y-105795835D01*
X89716535Y-105760081D01*
X89716459Y-105759696D01*
X89712193Y-105716379D01*
X89712183Y-105716183D01*
X89712183Y-105634089D01*
X89713183Y-105632357D01*
X89715183Y-105632357D01*
X89716173Y-105633893D01*
G37*
G36*
X91615348Y-105632463D02*
G01*
X91616183Y-105634089D01*
X91616183Y-105716183D01*
X91616173Y-105716379D01*
X91611907Y-105759696D01*
X91611831Y-105760081D01*
X91600985Y-105795835D01*
X91600835Y-105796197D01*
X91583226Y-105829141D01*
X91583008Y-105829467D01*
X91559307Y-105858347D01*
X91559030Y-105858624D01*
X91530150Y-105882325D01*
X91529824Y-105882543D01*
X91496880Y-105900152D01*
X91496518Y-105900302D01*
X91460764Y-105911148D01*
X91460379Y-105911224D01*
X91417062Y-105915490D01*
X91416866Y-105915500D01*
X91334772Y-105915500D01*
X91333040Y-105914500D01*
X91333040Y-105912500D01*
X91334576Y-105911510D01*
X91388887Y-105906161D01*
X91440929Y-105890374D01*
X91488888Y-105864740D01*
X91530924Y-105830241D01*
X91565423Y-105788205D01*
X91591057Y-105740246D01*
X91606844Y-105688204D01*
X91612193Y-105633893D01*
X91613358Y-105632267D01*
X91615348Y-105632463D01*
G37*
G36*
X89995326Y-103762500D02*
G01*
X89995326Y-103764500D01*
X89993790Y-103765490D01*
X89939479Y-103770839D01*
X89887437Y-103786626D01*
X89839478Y-103812260D01*
X89797442Y-103846759D01*
X89762943Y-103888795D01*
X89737309Y-103936754D01*
X89721522Y-103988796D01*
X89716173Y-104043107D01*
X89715008Y-104044733D01*
X89713018Y-104044537D01*
X89712183Y-104042911D01*
X89712183Y-103960817D01*
X89712193Y-103960621D01*
X89716459Y-103917304D01*
X89716535Y-103916919D01*
X89727381Y-103881165D01*
X89727531Y-103880803D01*
X89745140Y-103847859D01*
X89745358Y-103847533D01*
X89769059Y-103818653D01*
X89769336Y-103818376D01*
X89798216Y-103794675D01*
X89798542Y-103794457D01*
X89831486Y-103776848D01*
X89831848Y-103776698D01*
X89867602Y-103765852D01*
X89867987Y-103765776D01*
X89911304Y-103761510D01*
X89911500Y-103761500D01*
X89993594Y-103761500D01*
X89995326Y-103762500D01*
G37*
G36*
X91417062Y-103761510D02*
G01*
X91460379Y-103765776D01*
X91460764Y-103765852D01*
X91496518Y-103776698D01*
X91496880Y-103776848D01*
X91529824Y-103794457D01*
X91530150Y-103794675D01*
X91559030Y-103818376D01*
X91559307Y-103818653D01*
X91583008Y-103847533D01*
X91583226Y-103847859D01*
X91600835Y-103880803D01*
X91600985Y-103881165D01*
X91611831Y-103916919D01*
X91611907Y-103917304D01*
X91616173Y-103960621D01*
X91616183Y-103960817D01*
X91616183Y-104042911D01*
X91615183Y-104044643D01*
X91613183Y-104044643D01*
X91612193Y-104043107D01*
X91606844Y-103988796D01*
X91591057Y-103936754D01*
X91565423Y-103888795D01*
X91530924Y-103846759D01*
X91488888Y-103812260D01*
X91440929Y-103786626D01*
X91388887Y-103770839D01*
X91334576Y-103765490D01*
X91332950Y-103764325D01*
X91333146Y-103762335D01*
X91334772Y-103761500D01*
X91416866Y-103761500D01*
X91417062Y-103761510D01*
G37*
G36*
X91615348Y-97583838D02*
G01*
X91616183Y-97585464D01*
X91616183Y-97667558D01*
X91616173Y-97667754D01*
X91611907Y-97711071D01*
X91611831Y-97711456D01*
X91600985Y-97747210D01*
X91600835Y-97747572D01*
X91583226Y-97780516D01*
X91583008Y-97780842D01*
X91559307Y-97809722D01*
X91559030Y-97809999D01*
X91530150Y-97833700D01*
X91529824Y-97833918D01*
X91496880Y-97851527D01*
X91496518Y-97851677D01*
X91460764Y-97862523D01*
X91460379Y-97862599D01*
X91417062Y-97866865D01*
X91416866Y-97866875D01*
X91334772Y-97866875D01*
X91333040Y-97865875D01*
X91333040Y-97863875D01*
X91334576Y-97862885D01*
X91388887Y-97857536D01*
X91440929Y-97841749D01*
X91488888Y-97816115D01*
X91530924Y-97781616D01*
X91565423Y-97739580D01*
X91591057Y-97691621D01*
X91606844Y-97639579D01*
X91612193Y-97585268D01*
X91613358Y-97583642D01*
X91615348Y-97583838D01*
G37*
G36*
X89716173Y-97585268D02*
G01*
X89721522Y-97639579D01*
X89737309Y-97691621D01*
X89762943Y-97739580D01*
X89797442Y-97781616D01*
X89839478Y-97816115D01*
X89887437Y-97841749D01*
X89939479Y-97857536D01*
X89993790Y-97862885D01*
X89995416Y-97864050D01*
X89995220Y-97866040D01*
X89993594Y-97866875D01*
X89911500Y-97866875D01*
X89911304Y-97866865D01*
X89867987Y-97862599D01*
X89867602Y-97862523D01*
X89831848Y-97851677D01*
X89831486Y-97851527D01*
X89798542Y-97833918D01*
X89798216Y-97833700D01*
X89769336Y-97809999D01*
X89769059Y-97809722D01*
X89745358Y-97780842D01*
X89745140Y-97780516D01*
X89727531Y-97747572D01*
X89727381Y-97747210D01*
X89716535Y-97711456D01*
X89716459Y-97711071D01*
X89712193Y-97667754D01*
X89712183Y-97667558D01*
X89712183Y-97585464D01*
X89713183Y-97583732D01*
X89715183Y-97583732D01*
X89716173Y-97585268D01*
G37*
G36*
X89995326Y-95713875D02*
G01*
X89995326Y-95715875D01*
X89993790Y-95716865D01*
X89939479Y-95722214D01*
X89887437Y-95738001D01*
X89839478Y-95763635D01*
X89797442Y-95798134D01*
X89762943Y-95840170D01*
X89737309Y-95888129D01*
X89721522Y-95940171D01*
X89716173Y-95994482D01*
X89715008Y-95996108D01*
X89713018Y-95995912D01*
X89712183Y-95994286D01*
X89712183Y-95912192D01*
X89712193Y-95911996D01*
X89716459Y-95868679D01*
X89716535Y-95868294D01*
X89727381Y-95832540D01*
X89727531Y-95832178D01*
X89745140Y-95799234D01*
X89745358Y-95798908D01*
X89769059Y-95770028D01*
X89769336Y-95769751D01*
X89798216Y-95746050D01*
X89798542Y-95745832D01*
X89831486Y-95728223D01*
X89831848Y-95728073D01*
X89867602Y-95717227D01*
X89867987Y-95717151D01*
X89911304Y-95712885D01*
X89911500Y-95712875D01*
X89993594Y-95712875D01*
X89995326Y-95713875D01*
G37*
G36*
X91417062Y-95712885D02*
G01*
X91460379Y-95717151D01*
X91460764Y-95717227D01*
X91496518Y-95728073D01*
X91496880Y-95728223D01*
X91529824Y-95745832D01*
X91530150Y-95746050D01*
X91559030Y-95769751D01*
X91559307Y-95770028D01*
X91583008Y-95798908D01*
X91583226Y-95799234D01*
X91600835Y-95832178D01*
X91600985Y-95832540D01*
X91611831Y-95868294D01*
X91611907Y-95868679D01*
X91616173Y-95911996D01*
X91616183Y-95912192D01*
X91616183Y-95994286D01*
X91615183Y-95996018D01*
X91613183Y-95996018D01*
X91612193Y-95994482D01*
X91606844Y-95940171D01*
X91591057Y-95888129D01*
X91565423Y-95840170D01*
X91530924Y-95798134D01*
X91488888Y-95763635D01*
X91440929Y-95738001D01*
X91388887Y-95722214D01*
X91334576Y-95716865D01*
X91332950Y-95715700D01*
X91333146Y-95713710D01*
X91334772Y-95712875D01*
X91416866Y-95712875D01*
X91417062Y-95712885D01*
G37*
G36*
X120331165Y-89535213D02*
G01*
X120332000Y-89536839D01*
X120332000Y-89618933D01*
X120331990Y-89619129D01*
X120327724Y-89662446D01*
X120327648Y-89662831D01*
X120316802Y-89698585D01*
X120316652Y-89698947D01*
X120299043Y-89731891D01*
X120298825Y-89732217D01*
X120275124Y-89761097D01*
X120274847Y-89761374D01*
X120245967Y-89785075D01*
X120245641Y-89785293D01*
X120212697Y-89802902D01*
X120212335Y-89803052D01*
X120176581Y-89813898D01*
X120176196Y-89813974D01*
X120132879Y-89818240D01*
X120132683Y-89818250D01*
X120050589Y-89818250D01*
X120048857Y-89817250D01*
X120048857Y-89815250D01*
X120050393Y-89814260D01*
X120104704Y-89808911D01*
X120156746Y-89793124D01*
X120204705Y-89767490D01*
X120246741Y-89732991D01*
X120281240Y-89690955D01*
X120306874Y-89642996D01*
X120322661Y-89590954D01*
X120328010Y-89536643D01*
X120329175Y-89535017D01*
X120331165Y-89535213D01*
G37*
G36*
X91615348Y-89535213D02*
G01*
X91616183Y-89536839D01*
X91616183Y-89618933D01*
X91616173Y-89619129D01*
X91611907Y-89662446D01*
X91611831Y-89662831D01*
X91600985Y-89698585D01*
X91600835Y-89698947D01*
X91583226Y-89731891D01*
X91583008Y-89732217D01*
X91559307Y-89761097D01*
X91559030Y-89761374D01*
X91530150Y-89785075D01*
X91529824Y-89785293D01*
X91496880Y-89802902D01*
X91496518Y-89803052D01*
X91460764Y-89813898D01*
X91460379Y-89813974D01*
X91417062Y-89818240D01*
X91416866Y-89818250D01*
X91334772Y-89818250D01*
X91333040Y-89817250D01*
X91333040Y-89815250D01*
X91334576Y-89814260D01*
X91388887Y-89808911D01*
X91440929Y-89793124D01*
X91488888Y-89767490D01*
X91530924Y-89732991D01*
X91565423Y-89690955D01*
X91591057Y-89642996D01*
X91606844Y-89590954D01*
X91612193Y-89536643D01*
X91613358Y-89535017D01*
X91615348Y-89535213D01*
G37*
G36*
X107223256Y-89535213D02*
G01*
X107224091Y-89536839D01*
X107224091Y-89618933D01*
X107224081Y-89619129D01*
X107219815Y-89662446D01*
X107219739Y-89662831D01*
X107208893Y-89698585D01*
X107208743Y-89698947D01*
X107191134Y-89731891D01*
X107190916Y-89732217D01*
X107167215Y-89761097D01*
X107166938Y-89761374D01*
X107138058Y-89785075D01*
X107137732Y-89785293D01*
X107104788Y-89802902D01*
X107104426Y-89803052D01*
X107068672Y-89813898D01*
X107068287Y-89813974D01*
X107024970Y-89818240D01*
X107024774Y-89818250D01*
X106942680Y-89818250D01*
X106940948Y-89817250D01*
X106940948Y-89815250D01*
X106942484Y-89814260D01*
X106996795Y-89808911D01*
X107048837Y-89793124D01*
X107096796Y-89767490D01*
X107138832Y-89732991D01*
X107173331Y-89690955D01*
X107198965Y-89642996D01*
X107214752Y-89590954D01*
X107220101Y-89536643D01*
X107221266Y-89535017D01*
X107223256Y-89535213D01*
G37*
G36*
X118431990Y-89536643D02*
G01*
X118437339Y-89590954D01*
X118453126Y-89642996D01*
X118478760Y-89690955D01*
X118513259Y-89732991D01*
X118555295Y-89767490D01*
X118603254Y-89793124D01*
X118655296Y-89808911D01*
X118709607Y-89814260D01*
X118711233Y-89815425D01*
X118711037Y-89817415D01*
X118709411Y-89818250D01*
X118627317Y-89818250D01*
X118627121Y-89818240D01*
X118583804Y-89813974D01*
X118583419Y-89813898D01*
X118547665Y-89803052D01*
X118547303Y-89802902D01*
X118514359Y-89785293D01*
X118514033Y-89785075D01*
X118485153Y-89761374D01*
X118484876Y-89761097D01*
X118461175Y-89732217D01*
X118460957Y-89731891D01*
X118443348Y-89698947D01*
X118443198Y-89698585D01*
X118432352Y-89662831D01*
X118432276Y-89662446D01*
X118428010Y-89619129D01*
X118428000Y-89618933D01*
X118428000Y-89536839D01*
X118429000Y-89535107D01*
X118431000Y-89535107D01*
X118431990Y-89536643D01*
G37*
G36*
X89716173Y-89536643D02*
G01*
X89721522Y-89590954D01*
X89737309Y-89642996D01*
X89762943Y-89690955D01*
X89797442Y-89732991D01*
X89839478Y-89767490D01*
X89887437Y-89793124D01*
X89939479Y-89808911D01*
X89993790Y-89814260D01*
X89995416Y-89815425D01*
X89995220Y-89817415D01*
X89993594Y-89818250D01*
X89911500Y-89818250D01*
X89911304Y-89818240D01*
X89867987Y-89813974D01*
X89867602Y-89813898D01*
X89831848Y-89803052D01*
X89831486Y-89802902D01*
X89798542Y-89785293D01*
X89798216Y-89785075D01*
X89769336Y-89761374D01*
X89769059Y-89761097D01*
X89745358Y-89732217D01*
X89745140Y-89731891D01*
X89727531Y-89698947D01*
X89727381Y-89698585D01*
X89716535Y-89662831D01*
X89716459Y-89662446D01*
X89712193Y-89619129D01*
X89712183Y-89618933D01*
X89712183Y-89536839D01*
X89713183Y-89535107D01*
X89715183Y-89535107D01*
X89716173Y-89536643D01*
G37*
G36*
X105324081Y-89536643D02*
G01*
X105329430Y-89590954D01*
X105345217Y-89642996D01*
X105370851Y-89690955D01*
X105405350Y-89732991D01*
X105447386Y-89767490D01*
X105495345Y-89793124D01*
X105547387Y-89808911D01*
X105601698Y-89814260D01*
X105603324Y-89815425D01*
X105603128Y-89817415D01*
X105601502Y-89818250D01*
X105519408Y-89818250D01*
X105519212Y-89818240D01*
X105475895Y-89813974D01*
X105475510Y-89813898D01*
X105439756Y-89803052D01*
X105439394Y-89802902D01*
X105406450Y-89785293D01*
X105406124Y-89785075D01*
X105377244Y-89761374D01*
X105376967Y-89761097D01*
X105353266Y-89732217D01*
X105353048Y-89731891D01*
X105335439Y-89698947D01*
X105335289Y-89698585D01*
X105324443Y-89662831D01*
X105324367Y-89662446D01*
X105320101Y-89619129D01*
X105320091Y-89618933D01*
X105320091Y-89536839D01*
X105321091Y-89535107D01*
X105323091Y-89535107D01*
X105324081Y-89536643D01*
G37*
G36*
X89995326Y-87665250D02*
G01*
X89995326Y-87667250D01*
X89993790Y-87668240D01*
X89939479Y-87673589D01*
X89887437Y-87689376D01*
X89839478Y-87715010D01*
X89797442Y-87749509D01*
X89762943Y-87791545D01*
X89737309Y-87839504D01*
X89721522Y-87891546D01*
X89716173Y-87945857D01*
X89715008Y-87947483D01*
X89713018Y-87947287D01*
X89712183Y-87945661D01*
X89712183Y-87863567D01*
X89712193Y-87863371D01*
X89716459Y-87820054D01*
X89716535Y-87819669D01*
X89727381Y-87783915D01*
X89727531Y-87783553D01*
X89745140Y-87750609D01*
X89745358Y-87750283D01*
X89769059Y-87721403D01*
X89769336Y-87721126D01*
X89798216Y-87697425D01*
X89798542Y-87697207D01*
X89831486Y-87679598D01*
X89831848Y-87679448D01*
X89867602Y-87668602D01*
X89867987Y-87668526D01*
X89911304Y-87664260D01*
X89911500Y-87664250D01*
X89993594Y-87664250D01*
X89995326Y-87665250D01*
G37*
G36*
X105603234Y-87665250D02*
G01*
X105603234Y-87667250D01*
X105601698Y-87668240D01*
X105547387Y-87673589D01*
X105495345Y-87689376D01*
X105447386Y-87715010D01*
X105405350Y-87749509D01*
X105370851Y-87791545D01*
X105345217Y-87839504D01*
X105329430Y-87891546D01*
X105324081Y-87945857D01*
X105322916Y-87947483D01*
X105320926Y-87947287D01*
X105320091Y-87945661D01*
X105320091Y-87863567D01*
X105320101Y-87863371D01*
X105324367Y-87820054D01*
X105324443Y-87819669D01*
X105335289Y-87783915D01*
X105335439Y-87783553D01*
X105353048Y-87750609D01*
X105353266Y-87750283D01*
X105376967Y-87721403D01*
X105377244Y-87721126D01*
X105406124Y-87697425D01*
X105406450Y-87697207D01*
X105439394Y-87679598D01*
X105439756Y-87679448D01*
X105475510Y-87668602D01*
X105475895Y-87668526D01*
X105519212Y-87664260D01*
X105519408Y-87664250D01*
X105601502Y-87664250D01*
X105603234Y-87665250D01*
G37*
G36*
X118711143Y-87665250D02*
G01*
X118711143Y-87667250D01*
X118709607Y-87668240D01*
X118655296Y-87673589D01*
X118603254Y-87689376D01*
X118555295Y-87715010D01*
X118513259Y-87749509D01*
X118478760Y-87791545D01*
X118453126Y-87839504D01*
X118437339Y-87891546D01*
X118431990Y-87945857D01*
X118430825Y-87947483D01*
X118428835Y-87947287D01*
X118428000Y-87945661D01*
X118428000Y-87863567D01*
X118428010Y-87863371D01*
X118432276Y-87820054D01*
X118432352Y-87819669D01*
X118443198Y-87783915D01*
X118443348Y-87783553D01*
X118460957Y-87750609D01*
X118461175Y-87750283D01*
X118484876Y-87721403D01*
X118485153Y-87721126D01*
X118514033Y-87697425D01*
X118514359Y-87697207D01*
X118547303Y-87679598D01*
X118547665Y-87679448D01*
X118583419Y-87668602D01*
X118583804Y-87668526D01*
X118627121Y-87664260D01*
X118627317Y-87664250D01*
X118709411Y-87664250D01*
X118711143Y-87665250D01*
G37*
G36*
X120132879Y-87664260D02*
G01*
X120176196Y-87668526D01*
X120176581Y-87668602D01*
X120212335Y-87679448D01*
X120212697Y-87679598D01*
X120245641Y-87697207D01*
X120245967Y-87697425D01*
X120274847Y-87721126D01*
X120275124Y-87721403D01*
X120298825Y-87750283D01*
X120299043Y-87750609D01*
X120316652Y-87783553D01*
X120316802Y-87783915D01*
X120327648Y-87819669D01*
X120327724Y-87820054D01*
X120331990Y-87863371D01*
X120332000Y-87863567D01*
X120332000Y-87945661D01*
X120331000Y-87947393D01*
X120329000Y-87947393D01*
X120328010Y-87945857D01*
X120322661Y-87891546D01*
X120306874Y-87839504D01*
X120281240Y-87791545D01*
X120246741Y-87749509D01*
X120204705Y-87715010D01*
X120156746Y-87689376D01*
X120104704Y-87673589D01*
X120050393Y-87668240D01*
X120048767Y-87667075D01*
X120048963Y-87665085D01*
X120050589Y-87664250D01*
X120132683Y-87664250D01*
X120132879Y-87664260D01*
G37*
G36*
X107024970Y-87664260D02*
G01*
X107068287Y-87668526D01*
X107068672Y-87668602D01*
X107104426Y-87679448D01*
X107104788Y-87679598D01*
X107137732Y-87697207D01*
X107138058Y-87697425D01*
X107166938Y-87721126D01*
X107167215Y-87721403D01*
X107190916Y-87750283D01*
X107191134Y-87750609D01*
X107208743Y-87783553D01*
X107208893Y-87783915D01*
X107219739Y-87819669D01*
X107219815Y-87820054D01*
X107224081Y-87863371D01*
X107224091Y-87863567D01*
X107224091Y-87945661D01*
X107223091Y-87947393D01*
X107221091Y-87947393D01*
X107220101Y-87945857D01*
X107214752Y-87891546D01*
X107198965Y-87839504D01*
X107173331Y-87791545D01*
X107138832Y-87749509D01*
X107096796Y-87715010D01*
X107048837Y-87689376D01*
X106996795Y-87673589D01*
X106942484Y-87668240D01*
X106940858Y-87667075D01*
X106941054Y-87665085D01*
X106942680Y-87664250D01*
X107024774Y-87664250D01*
X107024970Y-87664260D01*
G37*
G36*
X91417062Y-87664260D02*
G01*
X91460379Y-87668526D01*
X91460764Y-87668602D01*
X91496518Y-87679448D01*
X91496880Y-87679598D01*
X91529824Y-87697207D01*
X91530150Y-87697425D01*
X91559030Y-87721126D01*
X91559307Y-87721403D01*
X91583008Y-87750283D01*
X91583226Y-87750609D01*
X91600835Y-87783553D01*
X91600985Y-87783915D01*
X91611831Y-87819669D01*
X91611907Y-87820054D01*
X91616173Y-87863371D01*
X91616183Y-87863567D01*
X91616183Y-87945661D01*
X91615183Y-87947393D01*
X91613183Y-87947393D01*
X91612193Y-87945857D01*
X91606844Y-87891546D01*
X91591057Y-87839504D01*
X91565423Y-87791545D01*
X91530924Y-87749509D01*
X91488888Y-87715010D01*
X91440929Y-87689376D01*
X91388887Y-87673589D01*
X91334576Y-87668240D01*
X91332950Y-87667075D01*
X91333146Y-87665085D01*
X91334772Y-87664250D01*
X91416866Y-87664250D01*
X91417062Y-87664260D01*
G37*
G36*
X120331165Y-81486588D02*
G01*
X120332000Y-81488214D01*
X120332000Y-81570308D01*
X120331990Y-81570504D01*
X120327724Y-81613821D01*
X120327648Y-81614206D01*
X120316802Y-81649960D01*
X120316652Y-81650322D01*
X120299043Y-81683266D01*
X120298825Y-81683592D01*
X120275124Y-81712472D01*
X120274847Y-81712749D01*
X120245967Y-81736450D01*
X120245641Y-81736668D01*
X120212697Y-81754277D01*
X120212335Y-81754427D01*
X120176581Y-81765273D01*
X120176196Y-81765349D01*
X120132879Y-81769615D01*
X120132683Y-81769625D01*
X120050589Y-81769625D01*
X120048857Y-81768625D01*
X120048857Y-81766625D01*
X120050393Y-81765635D01*
X120104704Y-81760286D01*
X120156746Y-81744499D01*
X120204705Y-81718865D01*
X120246741Y-81684366D01*
X120281240Y-81642330D01*
X120306874Y-81594371D01*
X120322661Y-81542329D01*
X120328010Y-81488018D01*
X120329175Y-81486392D01*
X120331165Y-81486588D01*
G37*
G36*
X107223256Y-81486588D02*
G01*
X107224091Y-81488214D01*
X107224091Y-81570308D01*
X107224081Y-81570504D01*
X107219815Y-81613821D01*
X107219739Y-81614206D01*
X107208893Y-81649960D01*
X107208743Y-81650322D01*
X107191134Y-81683266D01*
X107190916Y-81683592D01*
X107167215Y-81712472D01*
X107166938Y-81712749D01*
X107138058Y-81736450D01*
X107137732Y-81736668D01*
X107104788Y-81754277D01*
X107104426Y-81754427D01*
X107068672Y-81765273D01*
X107068287Y-81765349D01*
X107024970Y-81769615D01*
X107024774Y-81769625D01*
X106942680Y-81769625D01*
X106940948Y-81768625D01*
X106940948Y-81766625D01*
X106942484Y-81765635D01*
X106996795Y-81760286D01*
X107048837Y-81744499D01*
X107096796Y-81718865D01*
X107138832Y-81684366D01*
X107173331Y-81642330D01*
X107198965Y-81594371D01*
X107214752Y-81542329D01*
X107220101Y-81488018D01*
X107221266Y-81486392D01*
X107223256Y-81486588D01*
G37*
G36*
X118431990Y-81488018D02*
G01*
X118437339Y-81542329D01*
X118453126Y-81594371D01*
X118478760Y-81642330D01*
X118513259Y-81684366D01*
X118555295Y-81718865D01*
X118603254Y-81744499D01*
X118655296Y-81760286D01*
X118709607Y-81765635D01*
X118711233Y-81766800D01*
X118711037Y-81768790D01*
X118709411Y-81769625D01*
X118627317Y-81769625D01*
X118627121Y-81769615D01*
X118583804Y-81765349D01*
X118583419Y-81765273D01*
X118547665Y-81754427D01*
X118547303Y-81754277D01*
X118514359Y-81736668D01*
X118514033Y-81736450D01*
X118485153Y-81712749D01*
X118484876Y-81712472D01*
X118461175Y-81683592D01*
X118460957Y-81683266D01*
X118443348Y-81650322D01*
X118443198Y-81649960D01*
X118432352Y-81614206D01*
X118432276Y-81613821D01*
X118428010Y-81570504D01*
X118428000Y-81570308D01*
X118428000Y-81488214D01*
X118429000Y-81486482D01*
X118431000Y-81486482D01*
X118431990Y-81488018D01*
G37*
G36*
X91615348Y-81486588D02*
G01*
X91616183Y-81488214D01*
X91616183Y-81570308D01*
X91616173Y-81570504D01*
X91611907Y-81613821D01*
X91611831Y-81614206D01*
X91600985Y-81649960D01*
X91600835Y-81650322D01*
X91583226Y-81683266D01*
X91583008Y-81683592D01*
X91559307Y-81712472D01*
X91559030Y-81712749D01*
X91530150Y-81736450D01*
X91529824Y-81736668D01*
X91496880Y-81754277D01*
X91496518Y-81754427D01*
X91460764Y-81765273D01*
X91460379Y-81765349D01*
X91417062Y-81769615D01*
X91416866Y-81769625D01*
X91334772Y-81769625D01*
X91333040Y-81768625D01*
X91333040Y-81766625D01*
X91334576Y-81765635D01*
X91388887Y-81760286D01*
X91440929Y-81744499D01*
X91488888Y-81718865D01*
X91530924Y-81684366D01*
X91565423Y-81642330D01*
X91591057Y-81594371D01*
X91606844Y-81542329D01*
X91612193Y-81488018D01*
X91613358Y-81486392D01*
X91615348Y-81486588D01*
G37*
G36*
X105324081Y-81488018D02*
G01*
X105329430Y-81542329D01*
X105345217Y-81594371D01*
X105370851Y-81642330D01*
X105405350Y-81684366D01*
X105447386Y-81718865D01*
X105495345Y-81744499D01*
X105547387Y-81760286D01*
X105601698Y-81765635D01*
X105603324Y-81766800D01*
X105603128Y-81768790D01*
X105601502Y-81769625D01*
X105519408Y-81769625D01*
X105519212Y-81769615D01*
X105475895Y-81765349D01*
X105475510Y-81765273D01*
X105439756Y-81754427D01*
X105439394Y-81754277D01*
X105406450Y-81736668D01*
X105406124Y-81736450D01*
X105377244Y-81712749D01*
X105376967Y-81712472D01*
X105353266Y-81683592D01*
X105353048Y-81683266D01*
X105335439Y-81650322D01*
X105335289Y-81649960D01*
X105324443Y-81614206D01*
X105324367Y-81613821D01*
X105320101Y-81570504D01*
X105320091Y-81570308D01*
X105320091Y-81488214D01*
X105321091Y-81486482D01*
X105323091Y-81486482D01*
X105324081Y-81488018D01*
G37*
G36*
X89716173Y-81488018D02*
G01*
X89721522Y-81542329D01*
X89737309Y-81594371D01*
X89762943Y-81642330D01*
X89797442Y-81684366D01*
X89839478Y-81718865D01*
X89887437Y-81744499D01*
X89939479Y-81760286D01*
X89993790Y-81765635D01*
X89995416Y-81766800D01*
X89995220Y-81768790D01*
X89993594Y-81769625D01*
X89911500Y-81769625D01*
X89911304Y-81769615D01*
X89867987Y-81765349D01*
X89867602Y-81765273D01*
X89831848Y-81754427D01*
X89831486Y-81754277D01*
X89798542Y-81736668D01*
X89798216Y-81736450D01*
X89769336Y-81712749D01*
X89769059Y-81712472D01*
X89745358Y-81683592D01*
X89745140Y-81683266D01*
X89727531Y-81650322D01*
X89727381Y-81649960D01*
X89716535Y-81614206D01*
X89716459Y-81613821D01*
X89712193Y-81570504D01*
X89712183Y-81570308D01*
X89712183Y-81488214D01*
X89713183Y-81486482D01*
X89715183Y-81486482D01*
X89716173Y-81488018D01*
G37*
G36*
X118711143Y-79616625D02*
G01*
X118711143Y-79618625D01*
X118709607Y-79619615D01*
X118655296Y-79624964D01*
X118603254Y-79640751D01*
X118555295Y-79666385D01*
X118513259Y-79700884D01*
X118478760Y-79742920D01*
X118453126Y-79790879D01*
X118437339Y-79842921D01*
X118431990Y-79897232D01*
X118430825Y-79898858D01*
X118428835Y-79898662D01*
X118428000Y-79897036D01*
X118428000Y-79814942D01*
X118428010Y-79814746D01*
X118432276Y-79771429D01*
X118432352Y-79771044D01*
X118443198Y-79735290D01*
X118443348Y-79734928D01*
X118460957Y-79701984D01*
X118461175Y-79701658D01*
X118484876Y-79672778D01*
X118485153Y-79672501D01*
X118514033Y-79648800D01*
X118514359Y-79648582D01*
X118547303Y-79630973D01*
X118547665Y-79630823D01*
X118583419Y-79619977D01*
X118583804Y-79619901D01*
X118627121Y-79615635D01*
X118627317Y-79615625D01*
X118709411Y-79615625D01*
X118711143Y-79616625D01*
G37*
G36*
X89995326Y-79616625D02*
G01*
X89995326Y-79618625D01*
X89993790Y-79619615D01*
X89939479Y-79624964D01*
X89887437Y-79640751D01*
X89839478Y-79666385D01*
X89797442Y-79700884D01*
X89762943Y-79742920D01*
X89737309Y-79790879D01*
X89721522Y-79842921D01*
X89716173Y-79897232D01*
X89715008Y-79898858D01*
X89713018Y-79898662D01*
X89712183Y-79897036D01*
X89712183Y-79814942D01*
X89712193Y-79814746D01*
X89716459Y-79771429D01*
X89716535Y-79771044D01*
X89727381Y-79735290D01*
X89727531Y-79734928D01*
X89745140Y-79701984D01*
X89745358Y-79701658D01*
X89769059Y-79672778D01*
X89769336Y-79672501D01*
X89798216Y-79648800D01*
X89798542Y-79648582D01*
X89831486Y-79630973D01*
X89831848Y-79630823D01*
X89867602Y-79619977D01*
X89867987Y-79619901D01*
X89911304Y-79615635D01*
X89911500Y-79615625D01*
X89993594Y-79615625D01*
X89995326Y-79616625D01*
G37*
G36*
X105603234Y-79616625D02*
G01*
X105603234Y-79618625D01*
X105601698Y-79619615D01*
X105547387Y-79624964D01*
X105495345Y-79640751D01*
X105447386Y-79666385D01*
X105405350Y-79700884D01*
X105370851Y-79742920D01*
X105345217Y-79790879D01*
X105329430Y-79842921D01*
X105324081Y-79897232D01*
X105322916Y-79898858D01*
X105320926Y-79898662D01*
X105320091Y-79897036D01*
X105320091Y-79814942D01*
X105320101Y-79814746D01*
X105324367Y-79771429D01*
X105324443Y-79771044D01*
X105335289Y-79735290D01*
X105335439Y-79734928D01*
X105353048Y-79701984D01*
X105353266Y-79701658D01*
X105376967Y-79672778D01*
X105377244Y-79672501D01*
X105406124Y-79648800D01*
X105406450Y-79648582D01*
X105439394Y-79630973D01*
X105439756Y-79630823D01*
X105475510Y-79619977D01*
X105475895Y-79619901D01*
X105519212Y-79615635D01*
X105519408Y-79615625D01*
X105601502Y-79615625D01*
X105603234Y-79616625D01*
G37*
G36*
X120132879Y-79615635D02*
G01*
X120176196Y-79619901D01*
X120176581Y-79619977D01*
X120212335Y-79630823D01*
X120212697Y-79630973D01*
X120245641Y-79648582D01*
X120245967Y-79648800D01*
X120274847Y-79672501D01*
X120275124Y-79672778D01*
X120298825Y-79701658D01*
X120299043Y-79701984D01*
X120316652Y-79734928D01*
X120316802Y-79735290D01*
X120327648Y-79771044D01*
X120327724Y-79771429D01*
X120331990Y-79814746D01*
X120332000Y-79814942D01*
X120332000Y-79897036D01*
X120331000Y-79898768D01*
X120329000Y-79898768D01*
X120328010Y-79897232D01*
X120322661Y-79842921D01*
X120306874Y-79790879D01*
X120281240Y-79742920D01*
X120246741Y-79700884D01*
X120204705Y-79666385D01*
X120156746Y-79640751D01*
X120104704Y-79624964D01*
X120050393Y-79619615D01*
X120048767Y-79618450D01*
X120048963Y-79616460D01*
X120050589Y-79615625D01*
X120132683Y-79615625D01*
X120132879Y-79615635D01*
G37*
G36*
X91417062Y-79615635D02*
G01*
X91460379Y-79619901D01*
X91460764Y-79619977D01*
X91496518Y-79630823D01*
X91496880Y-79630973D01*
X91529824Y-79648582D01*
X91530150Y-79648800D01*
X91559030Y-79672501D01*
X91559307Y-79672778D01*
X91583008Y-79701658D01*
X91583226Y-79701984D01*
X91600835Y-79734928D01*
X91600985Y-79735290D01*
X91611831Y-79771044D01*
X91611907Y-79771429D01*
X91616173Y-79814746D01*
X91616183Y-79814942D01*
X91616183Y-79897036D01*
X91615183Y-79898768D01*
X91613183Y-79898768D01*
X91612193Y-79897232D01*
X91606844Y-79842921D01*
X91591057Y-79790879D01*
X91565423Y-79742920D01*
X91530924Y-79700884D01*
X91488888Y-79666385D01*
X91440929Y-79640751D01*
X91388887Y-79624964D01*
X91334576Y-79619615D01*
X91332950Y-79618450D01*
X91333146Y-79616460D01*
X91334772Y-79615625D01*
X91416866Y-79615625D01*
X91417062Y-79615635D01*
G37*
G36*
X107024970Y-79615635D02*
G01*
X107068287Y-79619901D01*
X107068672Y-79619977D01*
X107104426Y-79630823D01*
X107104788Y-79630973D01*
X107137732Y-79648582D01*
X107138058Y-79648800D01*
X107166938Y-79672501D01*
X107167215Y-79672778D01*
X107190916Y-79701658D01*
X107191134Y-79701984D01*
X107208743Y-79734928D01*
X107208893Y-79735290D01*
X107219739Y-79771044D01*
X107219815Y-79771429D01*
X107224081Y-79814746D01*
X107224091Y-79814942D01*
X107224091Y-79897036D01*
X107223091Y-79898768D01*
X107221091Y-79898768D01*
X107220101Y-79897232D01*
X107214752Y-79842921D01*
X107198965Y-79790879D01*
X107173331Y-79742920D01*
X107138832Y-79700884D01*
X107096796Y-79666385D01*
X107048837Y-79640751D01*
X106996795Y-79624964D01*
X106942484Y-79619615D01*
X106940858Y-79618450D01*
X106941054Y-79616460D01*
X106942680Y-79615625D01*
X107024774Y-79615625D01*
X107024970Y-79615635D01*
G37*
G36*
X118431990Y-73439393D02*
G01*
X118437339Y-73493704D01*
X118453126Y-73545746D01*
X118478760Y-73593705D01*
X118513259Y-73635741D01*
X118555295Y-73670240D01*
X118603254Y-73695874D01*
X118655296Y-73711661D01*
X118709607Y-73717010D01*
X118711233Y-73718175D01*
X118711037Y-73720165D01*
X118709411Y-73721000D01*
X118627317Y-73721000D01*
X118627121Y-73720990D01*
X118583804Y-73716724D01*
X118583419Y-73716648D01*
X118547665Y-73705802D01*
X118547303Y-73705652D01*
X118514359Y-73688043D01*
X118514033Y-73687825D01*
X118485153Y-73664124D01*
X118484876Y-73663847D01*
X118461175Y-73634967D01*
X118460957Y-73634641D01*
X118443348Y-73601697D01*
X118443198Y-73601335D01*
X118432352Y-73565581D01*
X118432276Y-73565196D01*
X118428010Y-73521879D01*
X118428000Y-73521683D01*
X118428000Y-73439589D01*
X118429000Y-73437857D01*
X118431000Y-73437857D01*
X118431990Y-73439393D01*
G37*
G36*
X89716173Y-73439393D02*
G01*
X89721522Y-73493704D01*
X89737309Y-73545746D01*
X89762943Y-73593705D01*
X89797442Y-73635741D01*
X89839478Y-73670240D01*
X89887437Y-73695874D01*
X89939479Y-73711661D01*
X89993790Y-73717010D01*
X89995416Y-73718175D01*
X89995220Y-73720165D01*
X89993594Y-73721000D01*
X89911500Y-73721000D01*
X89911304Y-73720990D01*
X89867987Y-73716724D01*
X89867602Y-73716648D01*
X89831848Y-73705802D01*
X89831486Y-73705652D01*
X89798542Y-73688043D01*
X89798216Y-73687825D01*
X89769336Y-73664124D01*
X89769059Y-73663847D01*
X89745358Y-73634967D01*
X89745140Y-73634641D01*
X89727531Y-73601697D01*
X89727381Y-73601335D01*
X89716535Y-73565581D01*
X89716459Y-73565196D01*
X89712193Y-73521879D01*
X89712183Y-73521683D01*
X89712183Y-73439589D01*
X89713183Y-73437857D01*
X89715183Y-73437857D01*
X89716173Y-73439393D01*
G37*
G36*
X91615348Y-73437963D02*
G01*
X91616183Y-73439589D01*
X91616183Y-73521683D01*
X91616173Y-73521879D01*
X91611907Y-73565196D01*
X91611831Y-73565581D01*
X91600985Y-73601335D01*
X91600835Y-73601697D01*
X91583226Y-73634641D01*
X91583008Y-73634967D01*
X91559307Y-73663847D01*
X91559030Y-73664124D01*
X91530150Y-73687825D01*
X91529824Y-73688043D01*
X91496880Y-73705652D01*
X91496518Y-73705802D01*
X91460764Y-73716648D01*
X91460379Y-73716724D01*
X91417062Y-73720990D01*
X91416866Y-73721000D01*
X91334772Y-73721000D01*
X91333040Y-73720000D01*
X91333040Y-73718000D01*
X91334576Y-73717010D01*
X91388887Y-73711661D01*
X91440929Y-73695874D01*
X91488888Y-73670240D01*
X91530924Y-73635741D01*
X91565423Y-73593705D01*
X91591057Y-73545746D01*
X91606844Y-73493704D01*
X91612193Y-73439393D01*
X91613358Y-73437767D01*
X91615348Y-73437963D01*
G37*
G36*
X107223256Y-73437963D02*
G01*
X107224091Y-73439589D01*
X107224091Y-73521683D01*
X107224081Y-73521879D01*
X107219815Y-73565196D01*
X107219739Y-73565581D01*
X107208893Y-73601335D01*
X107208743Y-73601697D01*
X107191134Y-73634641D01*
X107190916Y-73634967D01*
X107167215Y-73663847D01*
X107166938Y-73664124D01*
X107138058Y-73687825D01*
X107137732Y-73688043D01*
X107104788Y-73705652D01*
X107104426Y-73705802D01*
X107068672Y-73716648D01*
X107068287Y-73716724D01*
X107024970Y-73720990D01*
X107024774Y-73721000D01*
X106942680Y-73721000D01*
X106940948Y-73720000D01*
X106940948Y-73718000D01*
X106942484Y-73717010D01*
X106996795Y-73711661D01*
X107048837Y-73695874D01*
X107096796Y-73670240D01*
X107138832Y-73635741D01*
X107173331Y-73593705D01*
X107198965Y-73545746D01*
X107214752Y-73493704D01*
X107220101Y-73439393D01*
X107221266Y-73437767D01*
X107223256Y-73437963D01*
G37*
G36*
X120331165Y-73437963D02*
G01*
X120332000Y-73439589D01*
X120332000Y-73521683D01*
X120331990Y-73521879D01*
X120327724Y-73565196D01*
X120327648Y-73565581D01*
X120316802Y-73601335D01*
X120316652Y-73601697D01*
X120299043Y-73634641D01*
X120298825Y-73634967D01*
X120275124Y-73663847D01*
X120274847Y-73664124D01*
X120245967Y-73687825D01*
X120245641Y-73688043D01*
X120212697Y-73705652D01*
X120212335Y-73705802D01*
X120176581Y-73716648D01*
X120176196Y-73716724D01*
X120132879Y-73720990D01*
X120132683Y-73721000D01*
X120050589Y-73721000D01*
X120048857Y-73720000D01*
X120048857Y-73718000D01*
X120050393Y-73717010D01*
X120104704Y-73711661D01*
X120156746Y-73695874D01*
X120204705Y-73670240D01*
X120246741Y-73635741D01*
X120281240Y-73593705D01*
X120306874Y-73545746D01*
X120322661Y-73493704D01*
X120328010Y-73439393D01*
X120329175Y-73437767D01*
X120331165Y-73437963D01*
G37*
G36*
X105324081Y-73439393D02*
G01*
X105329430Y-73493704D01*
X105345217Y-73545746D01*
X105370851Y-73593705D01*
X105405350Y-73635741D01*
X105447386Y-73670240D01*
X105495345Y-73695874D01*
X105547387Y-73711661D01*
X105601698Y-73717010D01*
X105603324Y-73718175D01*
X105603128Y-73720165D01*
X105601502Y-73721000D01*
X105519408Y-73721000D01*
X105519212Y-73720990D01*
X105475895Y-73716724D01*
X105475510Y-73716648D01*
X105439756Y-73705802D01*
X105439394Y-73705652D01*
X105406450Y-73688043D01*
X105406124Y-73687825D01*
X105377244Y-73664124D01*
X105376967Y-73663847D01*
X105353266Y-73634967D01*
X105353048Y-73634641D01*
X105335439Y-73601697D01*
X105335289Y-73601335D01*
X105324443Y-73565581D01*
X105324367Y-73565196D01*
X105320101Y-73521879D01*
X105320091Y-73521683D01*
X105320091Y-73439589D01*
X105321091Y-73437857D01*
X105323091Y-73437857D01*
X105324081Y-73439393D01*
G37*
G36*
X89995326Y-71568000D02*
G01*
X89995326Y-71570000D01*
X89993790Y-71570990D01*
X89939479Y-71576339D01*
X89887437Y-71592126D01*
X89839478Y-71617760D01*
X89797442Y-71652259D01*
X89762943Y-71694295D01*
X89737309Y-71742254D01*
X89721522Y-71794296D01*
X89716173Y-71848607D01*
X89715008Y-71850233D01*
X89713018Y-71850037D01*
X89712183Y-71848411D01*
X89712183Y-71766317D01*
X89712193Y-71766121D01*
X89716459Y-71722804D01*
X89716535Y-71722419D01*
X89727381Y-71686665D01*
X89727531Y-71686303D01*
X89745140Y-71653359D01*
X89745358Y-71653033D01*
X89769059Y-71624153D01*
X89769336Y-71623876D01*
X89798216Y-71600175D01*
X89798542Y-71599957D01*
X89831486Y-71582348D01*
X89831848Y-71582198D01*
X89867602Y-71571352D01*
X89867987Y-71571276D01*
X89911304Y-71567010D01*
X89911500Y-71567000D01*
X89993594Y-71567000D01*
X89995326Y-71568000D01*
G37*
G36*
X105603234Y-71568000D02*
G01*
X105603234Y-71570000D01*
X105601698Y-71570990D01*
X105547387Y-71576339D01*
X105495345Y-71592126D01*
X105447386Y-71617760D01*
X105405350Y-71652259D01*
X105370851Y-71694295D01*
X105345217Y-71742254D01*
X105329430Y-71794296D01*
X105324081Y-71848607D01*
X105322916Y-71850233D01*
X105320926Y-71850037D01*
X105320091Y-71848411D01*
X105320091Y-71766317D01*
X105320101Y-71766121D01*
X105324367Y-71722804D01*
X105324443Y-71722419D01*
X105335289Y-71686665D01*
X105335439Y-71686303D01*
X105353048Y-71653359D01*
X105353266Y-71653033D01*
X105376967Y-71624153D01*
X105377244Y-71623876D01*
X105406124Y-71600175D01*
X105406450Y-71599957D01*
X105439394Y-71582348D01*
X105439756Y-71582198D01*
X105475510Y-71571352D01*
X105475895Y-71571276D01*
X105519212Y-71567010D01*
X105519408Y-71567000D01*
X105601502Y-71567000D01*
X105603234Y-71568000D01*
G37*
G36*
X118711143Y-71568000D02*
G01*
X118711143Y-71570000D01*
X118709607Y-71570990D01*
X118655296Y-71576339D01*
X118603254Y-71592126D01*
X118555295Y-71617760D01*
X118513259Y-71652259D01*
X118478760Y-71694295D01*
X118453126Y-71742254D01*
X118437339Y-71794296D01*
X118431990Y-71848607D01*
X118430825Y-71850233D01*
X118428835Y-71850037D01*
X118428000Y-71848411D01*
X118428000Y-71766317D01*
X118428010Y-71766121D01*
X118432276Y-71722804D01*
X118432352Y-71722419D01*
X118443198Y-71686665D01*
X118443348Y-71686303D01*
X118460957Y-71653359D01*
X118461175Y-71653033D01*
X118484876Y-71624153D01*
X118485153Y-71623876D01*
X118514033Y-71600175D01*
X118514359Y-71599957D01*
X118547303Y-71582348D01*
X118547665Y-71582198D01*
X118583419Y-71571352D01*
X118583804Y-71571276D01*
X118627121Y-71567010D01*
X118627317Y-71567000D01*
X118709411Y-71567000D01*
X118711143Y-71568000D01*
G37*
G36*
X91417062Y-71567010D02*
G01*
X91460379Y-71571276D01*
X91460764Y-71571352D01*
X91496518Y-71582198D01*
X91496880Y-71582348D01*
X91529824Y-71599957D01*
X91530150Y-71600175D01*
X91559030Y-71623876D01*
X91559307Y-71624153D01*
X91583008Y-71653033D01*
X91583226Y-71653359D01*
X91600835Y-71686303D01*
X91600985Y-71686665D01*
X91611831Y-71722419D01*
X91611907Y-71722804D01*
X91616173Y-71766121D01*
X91616183Y-71766317D01*
X91616183Y-71848411D01*
X91615183Y-71850143D01*
X91613183Y-71850143D01*
X91612193Y-71848607D01*
X91606844Y-71794296D01*
X91591057Y-71742254D01*
X91565423Y-71694295D01*
X91530924Y-71652259D01*
X91488888Y-71617760D01*
X91440929Y-71592126D01*
X91388887Y-71576339D01*
X91334576Y-71570990D01*
X91332950Y-71569825D01*
X91333146Y-71567835D01*
X91334772Y-71567000D01*
X91416866Y-71567000D01*
X91417062Y-71567010D01*
G37*
G36*
X120132879Y-71567010D02*
G01*
X120176196Y-71571276D01*
X120176581Y-71571352D01*
X120212335Y-71582198D01*
X120212697Y-71582348D01*
X120245641Y-71599957D01*
X120245967Y-71600175D01*
X120274847Y-71623876D01*
X120275124Y-71624153D01*
X120298825Y-71653033D01*
X120299043Y-71653359D01*
X120316652Y-71686303D01*
X120316802Y-71686665D01*
X120327648Y-71722419D01*
X120327724Y-71722804D01*
X120331990Y-71766121D01*
X120332000Y-71766317D01*
X120332000Y-71848411D01*
X120331000Y-71850143D01*
X120329000Y-71850143D01*
X120328010Y-71848607D01*
X120322661Y-71794296D01*
X120306874Y-71742254D01*
X120281240Y-71694295D01*
X120246741Y-71652259D01*
X120204705Y-71617760D01*
X120156746Y-71592126D01*
X120104704Y-71576339D01*
X120050393Y-71570990D01*
X120048767Y-71569825D01*
X120048963Y-71567835D01*
X120050589Y-71567000D01*
X120132683Y-71567000D01*
X120132879Y-71567010D01*
G37*
G36*
X107024970Y-71567010D02*
G01*
X107068287Y-71571276D01*
X107068672Y-71571352D01*
X107104426Y-71582198D01*
X107104788Y-71582348D01*
X107137732Y-71599957D01*
X107138058Y-71600175D01*
X107166938Y-71623876D01*
X107167215Y-71624153D01*
X107190916Y-71653033D01*
X107191134Y-71653359D01*
X107208743Y-71686303D01*
X107208893Y-71686665D01*
X107219739Y-71722419D01*
X107219815Y-71722804D01*
X107224081Y-71766121D01*
X107224091Y-71766317D01*
X107224091Y-71848411D01*
X107223091Y-71850143D01*
X107221091Y-71850143D01*
X107220101Y-71848607D01*
X107214752Y-71794296D01*
X107198965Y-71742254D01*
X107173331Y-71694295D01*
X107138832Y-71652259D01*
X107096796Y-71617760D01*
X107048837Y-71592126D01*
X106996795Y-71576339D01*
X106942484Y-71570990D01*
X106940858Y-71569825D01*
X106941054Y-71567835D01*
X106942680Y-71567000D01*
X107024774Y-71567000D01*
X107024970Y-71567010D01*
G37*
M02*
