G04 #@! TF.GenerationSoftware,KiCad,Pcbnew,(5.0.1)-3*
G04 #@! TF.CreationDate,2018-11-18T15:41:15-05:00*
G04 #@! TF.ProjectId,reef-piHat,726565662D70694861742E6B69636164,rev?*
G04 #@! TF.SameCoordinates,Original*
G04 #@! TF.FileFunction,Soldermask,Top*
G04 #@! TF.FilePolarity,Negative*
%FSLAX46Y46*%
G04 Gerber Fmt 4.6, Leading zero omitted, Abs format (unit mm)*
G04 Created by KiCad (PCBNEW (5.0.1)-3) date 11/18/2018 3:41:15 PM*
%MOMM*%
%LPD*%
G01*
G04 APERTURE LIST*
%ADD10C,0.100000*%
G04 APERTURE END LIST*
D10*
X78546356Y-63817611D02*
X78546356Y-113817611D01*
X78546356Y-63817611D02*
G75*
G02X81546356Y-60817611I3000000J0D01*
G01*
X140546356Y-60817611D02*
X81546356Y-60817611D01*
X140546356Y-60817611D02*
G75*
G02X143546356Y-63817611I0J-3000000D01*
G01*
X143546356Y-113817611D02*
X143546356Y-63817611D01*
X81546356Y-116817611D02*
G75*
G02X78546356Y-113817611I0J3000000D01*
G01*
X81546356Y-116817611D02*
X140546356Y-116817611D01*
X143546351Y-113822847D02*
G75*
G02X140546356Y-116817611I-2999995J5236D01*
G01*
G36*
X82506703Y-111781486D02*
X82797883Y-111902097D01*
X83059944Y-112077201D01*
X83282799Y-112300056D01*
X83457903Y-112562117D01*
X83578514Y-112853297D01*
X83640000Y-113162412D01*
X83640000Y-113477588D01*
X83578514Y-113786703D01*
X83457903Y-114077883D01*
X83282799Y-114339944D01*
X83059944Y-114562799D01*
X82797883Y-114737903D01*
X82506703Y-114858514D01*
X82197588Y-114920000D01*
X81882412Y-114920000D01*
X81573297Y-114858514D01*
X81282117Y-114737903D01*
X81020056Y-114562799D01*
X80797201Y-114339944D01*
X80622097Y-114077883D01*
X80501486Y-113786703D01*
X80440000Y-113477588D01*
X80440000Y-113162412D01*
X80501486Y-112853297D01*
X80622097Y-112562117D01*
X80797201Y-112300056D01*
X81020056Y-112077201D01*
X81282117Y-111902097D01*
X81573297Y-111781486D01*
X81882412Y-111720000D01*
X82197588Y-111720000D01*
X82506703Y-111781486D01*
X82506703Y-111781486D01*
G37*
G36*
X140496703Y-111771486D02*
X140787883Y-111892097D01*
X141049944Y-112067201D01*
X141272799Y-112290056D01*
X141447903Y-112552117D01*
X141568514Y-112843297D01*
X141630000Y-113152412D01*
X141630000Y-113467588D01*
X141568514Y-113776703D01*
X141447903Y-114067883D01*
X141272799Y-114329944D01*
X141049944Y-114552799D01*
X140787883Y-114727903D01*
X140496703Y-114848514D01*
X140187588Y-114910000D01*
X139872412Y-114910000D01*
X139563297Y-114848514D01*
X139272117Y-114727903D01*
X139010056Y-114552799D01*
X138787201Y-114329944D01*
X138612097Y-114067883D01*
X138491486Y-113776703D01*
X138430000Y-113467588D01*
X138430000Y-113152412D01*
X138491486Y-112843297D01*
X138612097Y-112552117D01*
X138787201Y-112290056D01*
X139010056Y-112067201D01*
X139272117Y-111892097D01*
X139563297Y-111771486D01*
X139872412Y-111710000D01*
X140187588Y-111710000D01*
X140496703Y-111771486D01*
X140496703Y-111771486D01*
G37*
G36*
X128585000Y-113789500D02*
X126685000Y-113789500D01*
X126685000Y-111889500D01*
X128585000Y-111889500D01*
X128585000Y-113789500D01*
X128585000Y-113789500D01*
G37*
G36*
X130361232Y-111903246D02*
X130450770Y-111930407D01*
X130540309Y-111957568D01*
X130705347Y-112045783D01*
X130850001Y-112164499D01*
X130968717Y-112309153D01*
X131056932Y-112474191D01*
X131111254Y-112653269D01*
X131129596Y-112839500D01*
X131111254Y-113025731D01*
X131056932Y-113204809D01*
X130968717Y-113369847D01*
X130850001Y-113514501D01*
X130705347Y-113633217D01*
X130540309Y-113721432D01*
X130450770Y-113748593D01*
X130361232Y-113775754D01*
X130221666Y-113789500D01*
X130128334Y-113789500D01*
X129988768Y-113775754D01*
X129899230Y-113748593D01*
X129809691Y-113721432D01*
X129644653Y-113633217D01*
X129499999Y-113514501D01*
X129381283Y-113369847D01*
X129293068Y-113204809D01*
X129238746Y-113025731D01*
X129220404Y-112839500D01*
X129238746Y-112653269D01*
X129293068Y-112474191D01*
X129381283Y-112309153D01*
X129499999Y-112164499D01*
X129644653Y-112045783D01*
X129809691Y-111957568D01*
X129899230Y-111930407D01*
X129988768Y-111903246D01*
X130128334Y-111889500D01*
X130221666Y-111889500D01*
X130361232Y-111903246D01*
X130361232Y-111903246D01*
G37*
G36*
X114551500Y-113599000D02*
X112651500Y-113599000D01*
X112651500Y-111699000D01*
X114551500Y-111699000D01*
X114551500Y-113599000D01*
X114551500Y-113599000D01*
G37*
G36*
X116257948Y-111705873D02*
X116327732Y-111712746D01*
X116351645Y-111720000D01*
X116506809Y-111767068D01*
X116671847Y-111855283D01*
X116816501Y-111973999D01*
X116935217Y-112118653D01*
X117023432Y-112283691D01*
X117034116Y-112318912D01*
X117077754Y-112462768D01*
X117096096Y-112649000D01*
X117077754Y-112835232D01*
X117072274Y-112853297D01*
X117023432Y-113014309D01*
X116935217Y-113179347D01*
X116816501Y-113324001D01*
X116671847Y-113442717D01*
X116506809Y-113530932D01*
X116417270Y-113558093D01*
X116327732Y-113585254D01*
X116188166Y-113599000D01*
X116094834Y-113599000D01*
X115955268Y-113585254D01*
X115865730Y-113558093D01*
X115776191Y-113530932D01*
X115611153Y-113442717D01*
X115466499Y-113324001D01*
X115347783Y-113179347D01*
X115259568Y-113014309D01*
X115210726Y-112853297D01*
X115205246Y-112835232D01*
X115186904Y-112649000D01*
X115205246Y-112462768D01*
X115248884Y-112318912D01*
X115259568Y-112283691D01*
X115347783Y-112118653D01*
X115466499Y-111973999D01*
X115611153Y-111855283D01*
X115776191Y-111767068D01*
X115931355Y-111720000D01*
X115955268Y-111712746D01*
X116025052Y-111705873D01*
X116094834Y-111699000D01*
X116188166Y-111699000D01*
X116257948Y-111705873D01*
X116257948Y-111705873D01*
G37*
G36*
X109359779Y-112127916D02*
X109401870Y-112140685D01*
X109440666Y-112161422D01*
X109474671Y-112189329D01*
X109502578Y-112223334D01*
X109523315Y-112262130D01*
X109536084Y-112304221D01*
X109541000Y-112354140D01*
X109541000Y-113141860D01*
X109536084Y-113191779D01*
X109523315Y-113233870D01*
X109502578Y-113272666D01*
X109474671Y-113306671D01*
X109440666Y-113334578D01*
X109401870Y-113355315D01*
X109359779Y-113368084D01*
X109309860Y-113373000D01*
X108622140Y-113373000D01*
X108572221Y-113368084D01*
X108530130Y-113355315D01*
X108491334Y-113334578D01*
X108457329Y-113306671D01*
X108429422Y-113272666D01*
X108408685Y-113233870D01*
X108395916Y-113191779D01*
X108391000Y-113141860D01*
X108391000Y-112354140D01*
X108395916Y-112304221D01*
X108408685Y-112262130D01*
X108429422Y-112223334D01*
X108457329Y-112189329D01*
X108491334Y-112161422D01*
X108530130Y-112140685D01*
X108572221Y-112127916D01*
X108622140Y-112123000D01*
X109309860Y-112123000D01*
X109359779Y-112127916D01*
X109359779Y-112127916D01*
G37*
G36*
X106375279Y-112092416D02*
X106417370Y-112105185D01*
X106456166Y-112125922D01*
X106490171Y-112153829D01*
X106518078Y-112187834D01*
X106538815Y-112226630D01*
X106551584Y-112268721D01*
X106556500Y-112318640D01*
X106556500Y-113106360D01*
X106551584Y-113156279D01*
X106538815Y-113198370D01*
X106518078Y-113237166D01*
X106490171Y-113271171D01*
X106456166Y-113299078D01*
X106417370Y-113319815D01*
X106375279Y-113332584D01*
X106325360Y-113337500D01*
X105637640Y-113337500D01*
X105587721Y-113332584D01*
X105545630Y-113319815D01*
X105506834Y-113299078D01*
X105472829Y-113271171D01*
X105444922Y-113237166D01*
X105424185Y-113198370D01*
X105411416Y-113156279D01*
X105406500Y-113106360D01*
X105406500Y-112318640D01*
X105411416Y-112268721D01*
X105424185Y-112226630D01*
X105444922Y-112187834D01*
X105472829Y-112153829D01*
X105506834Y-112125922D01*
X105545630Y-112105185D01*
X105587721Y-112092416D01*
X105637640Y-112087500D01*
X106325360Y-112087500D01*
X106375279Y-112092416D01*
X106375279Y-112092416D01*
G37*
G36*
X109359779Y-110377916D02*
X109401870Y-110390685D01*
X109440666Y-110411422D01*
X109474671Y-110439329D01*
X109502578Y-110473334D01*
X109523315Y-110512130D01*
X109536084Y-110554221D01*
X109541000Y-110604140D01*
X109541000Y-111391860D01*
X109536084Y-111441779D01*
X109523315Y-111483870D01*
X109502578Y-111522666D01*
X109474671Y-111556671D01*
X109440666Y-111584578D01*
X109401870Y-111605315D01*
X109359779Y-111618084D01*
X109309860Y-111623000D01*
X108622140Y-111623000D01*
X108572221Y-111618084D01*
X108530130Y-111605315D01*
X108491334Y-111584578D01*
X108457329Y-111556671D01*
X108429422Y-111522666D01*
X108408685Y-111483870D01*
X108395916Y-111441779D01*
X108391000Y-111391860D01*
X108391000Y-110604140D01*
X108395916Y-110554221D01*
X108408685Y-110512130D01*
X108429422Y-110473334D01*
X108457329Y-110439329D01*
X108491334Y-110411422D01*
X108530130Y-110390685D01*
X108572221Y-110377916D01*
X108622140Y-110373000D01*
X109309860Y-110373000D01*
X109359779Y-110377916D01*
X109359779Y-110377916D01*
G37*
G36*
X106375279Y-110342416D02*
X106417370Y-110355185D01*
X106456166Y-110375922D01*
X106490171Y-110403829D01*
X106518078Y-110437834D01*
X106538815Y-110476630D01*
X106551584Y-110518721D01*
X106556500Y-110568640D01*
X106556500Y-111356360D01*
X106551584Y-111406279D01*
X106538815Y-111448370D01*
X106518078Y-111487166D01*
X106490171Y-111521171D01*
X106456166Y-111549078D01*
X106417370Y-111569815D01*
X106375279Y-111582584D01*
X106325360Y-111587500D01*
X105637640Y-111587500D01*
X105587721Y-111582584D01*
X105545630Y-111569815D01*
X105506834Y-111549078D01*
X105472829Y-111521171D01*
X105444922Y-111487166D01*
X105424185Y-111448370D01*
X105411416Y-111406279D01*
X105406500Y-111356360D01*
X105406500Y-110568640D01*
X105411416Y-110518721D01*
X105424185Y-110476630D01*
X105444922Y-110437834D01*
X105472829Y-110403829D01*
X105506834Y-110375922D01*
X105545630Y-110355185D01*
X105587721Y-110342416D01*
X105637640Y-110337500D01*
X106325360Y-110337500D01*
X106375279Y-110342416D01*
X106375279Y-110342416D01*
G37*
G36*
X127757732Y-107966246D02*
X127785268Y-107974599D01*
X127936809Y-108020568D01*
X128101847Y-108108783D01*
X128246501Y-108227499D01*
X128365217Y-108372153D01*
X128453432Y-108537191D01*
X128507754Y-108716269D01*
X128526096Y-108902500D01*
X128507754Y-109088731D01*
X128453432Y-109267809D01*
X128365217Y-109432847D01*
X128246501Y-109577501D01*
X128101847Y-109696217D01*
X127936809Y-109784432D01*
X127847270Y-109811593D01*
X127757732Y-109838754D01*
X127618166Y-109852500D01*
X127524834Y-109852500D01*
X127385268Y-109838754D01*
X127295730Y-109811593D01*
X127206191Y-109784432D01*
X127041153Y-109696217D01*
X126896499Y-109577501D01*
X126777783Y-109432847D01*
X126689568Y-109267809D01*
X126635246Y-109088731D01*
X126616904Y-108902500D01*
X126635246Y-108716269D01*
X126689568Y-108537191D01*
X126777783Y-108372153D01*
X126896499Y-108227499D01*
X127041153Y-108108783D01*
X127206191Y-108020568D01*
X127357732Y-107974599D01*
X127385268Y-107966246D01*
X127524834Y-107952500D01*
X127618166Y-107952500D01*
X127757732Y-107966246D01*
X127757732Y-107966246D01*
G37*
G36*
X130297732Y-107966246D02*
X130325268Y-107974599D01*
X130476809Y-108020568D01*
X130641847Y-108108783D01*
X130786501Y-108227499D01*
X130905217Y-108372153D01*
X130993432Y-108537191D01*
X131047754Y-108716269D01*
X131066096Y-108902500D01*
X131047754Y-109088731D01*
X130993432Y-109267809D01*
X130905217Y-109432847D01*
X130786501Y-109577501D01*
X130641847Y-109696217D01*
X130476809Y-109784432D01*
X130387270Y-109811593D01*
X130297732Y-109838754D01*
X130158166Y-109852500D01*
X130064834Y-109852500D01*
X129925268Y-109838754D01*
X129835730Y-109811593D01*
X129746191Y-109784432D01*
X129581153Y-109696217D01*
X129436499Y-109577501D01*
X129317783Y-109432847D01*
X129229568Y-109267809D01*
X129175246Y-109088731D01*
X129156904Y-108902500D01*
X129175246Y-108716269D01*
X129229568Y-108537191D01*
X129317783Y-108372153D01*
X129436499Y-108227499D01*
X129581153Y-108108783D01*
X129746191Y-108020568D01*
X129897732Y-107974599D01*
X129925268Y-107966246D01*
X130064834Y-107952500D01*
X130158166Y-107952500D01*
X130297732Y-107966246D01*
X130297732Y-107966246D01*
G37*
G36*
X109608500Y-109452000D02*
X107848500Y-109452000D01*
X107848500Y-106702000D01*
X109608500Y-106702000D01*
X109608500Y-109452000D01*
X109608500Y-109452000D01*
G37*
G36*
X106908500Y-109452000D02*
X105148500Y-109452000D01*
X105148500Y-106702000D01*
X106908500Y-106702000D01*
X106908500Y-109452000D01*
X106908500Y-109452000D01*
G37*
G36*
X103322000Y-109173000D02*
X102022000Y-109173000D01*
X102022000Y-100123000D01*
X103322000Y-100123000D01*
X103322000Y-109173000D01*
X103322000Y-109173000D01*
G37*
G36*
X97622000Y-109173000D02*
X96322000Y-109173000D01*
X96322000Y-100123000D01*
X97622000Y-100123000D01*
X97622000Y-109173000D01*
X97622000Y-109173000D01*
G37*
G36*
X89253232Y-106063246D02*
X89315784Y-106082221D01*
X89432309Y-106117568D01*
X89597347Y-106205783D01*
X89742001Y-106324499D01*
X89860717Y-106469153D01*
X89860718Y-106469155D01*
X89948932Y-106634192D01*
X90003254Y-106813268D01*
X90003254Y-106813270D01*
X90017000Y-106952835D01*
X90017000Y-107296166D01*
X90003254Y-107435731D01*
X89948932Y-107614809D01*
X89860717Y-107779847D01*
X89742001Y-107924501D01*
X89597347Y-108043217D01*
X89432308Y-108131432D01*
X89342769Y-108158593D01*
X89253231Y-108185754D01*
X89067000Y-108204096D01*
X88880768Y-108185754D01*
X88791230Y-108158593D01*
X88701691Y-108131432D01*
X88536653Y-108043217D01*
X88391999Y-107924501D01*
X88273283Y-107779847D01*
X88185068Y-107614808D01*
X88157907Y-107525269D01*
X88130746Y-107435731D01*
X88117000Y-107296164D01*
X88117000Y-106952835D01*
X88130746Y-106813268D01*
X88185068Y-106634192D01*
X88185068Y-106634191D01*
X88260948Y-106492231D01*
X88273282Y-106469155D01*
X88391999Y-106324499D01*
X88516911Y-106221986D01*
X88536654Y-106205783D01*
X88701692Y-106117568D01*
X88818217Y-106082221D01*
X88880769Y-106063246D01*
X89067000Y-106044904D01*
X89253232Y-106063246D01*
X89253232Y-106063246D01*
G37*
G36*
X84253232Y-106063246D02*
X84315784Y-106082221D01*
X84432309Y-106117568D01*
X84597347Y-106205783D01*
X84742001Y-106324499D01*
X84860717Y-106469153D01*
X84860718Y-106469155D01*
X84948932Y-106634192D01*
X85003254Y-106813268D01*
X85003254Y-106813270D01*
X85017000Y-106952835D01*
X85017000Y-107296166D01*
X85003254Y-107435731D01*
X84948932Y-107614809D01*
X84860717Y-107779847D01*
X84742001Y-107924501D01*
X84597347Y-108043217D01*
X84432308Y-108131432D01*
X84342769Y-108158593D01*
X84253231Y-108185754D01*
X84067000Y-108204096D01*
X83880768Y-108185754D01*
X83791230Y-108158593D01*
X83701691Y-108131432D01*
X83536653Y-108043217D01*
X83391999Y-107924501D01*
X83273283Y-107779847D01*
X83185068Y-107614808D01*
X83157907Y-107525269D01*
X83130746Y-107435731D01*
X83117000Y-107296164D01*
X83117000Y-106952835D01*
X83130746Y-106813268D01*
X83185068Y-106634192D01*
X83185068Y-106634191D01*
X83260948Y-106492231D01*
X83273282Y-106469155D01*
X83391999Y-106324499D01*
X83516911Y-106221986D01*
X83536654Y-106205783D01*
X83701692Y-106117568D01*
X83818217Y-106082221D01*
X83880769Y-106063246D01*
X84067000Y-106044904D01*
X84253232Y-106063246D01*
X84253232Y-106063246D01*
G37*
G36*
X86753232Y-106063246D02*
X86815784Y-106082221D01*
X86932309Y-106117568D01*
X87097347Y-106205783D01*
X87242001Y-106324499D01*
X87360717Y-106469153D01*
X87360718Y-106469155D01*
X87448932Y-106634192D01*
X87503254Y-106813268D01*
X87503254Y-106813270D01*
X87517000Y-106952835D01*
X87517000Y-107296166D01*
X87503254Y-107435731D01*
X87448932Y-107614809D01*
X87360717Y-107779847D01*
X87242001Y-107924501D01*
X87097347Y-108043217D01*
X86932308Y-108131432D01*
X86842769Y-108158593D01*
X86753231Y-108185754D01*
X86567000Y-108204096D01*
X86380768Y-108185754D01*
X86291230Y-108158593D01*
X86201691Y-108131432D01*
X86036653Y-108043217D01*
X85891999Y-107924501D01*
X85773283Y-107779847D01*
X85685068Y-107614808D01*
X85657907Y-107525269D01*
X85630746Y-107435731D01*
X85617000Y-107296164D01*
X85617000Y-106952835D01*
X85630746Y-106813268D01*
X85685068Y-106634192D01*
X85685068Y-106634191D01*
X85760948Y-106492231D01*
X85773282Y-106469155D01*
X85891999Y-106324499D01*
X86016911Y-106221986D01*
X86036654Y-106205783D01*
X86201692Y-106117568D01*
X86318217Y-106082221D01*
X86380769Y-106063246D01*
X86567000Y-106044904D01*
X86753232Y-106063246D01*
X86753232Y-106063246D01*
G37*
G36*
X92363001Y-106053766D02*
X92398753Y-106064611D01*
X92431698Y-106082221D01*
X92460578Y-106105922D01*
X92484279Y-106134802D01*
X92501889Y-106167747D01*
X92512734Y-106203499D01*
X92517000Y-106246816D01*
X92517000Y-108002184D01*
X92512734Y-108045501D01*
X92501889Y-108081253D01*
X92484279Y-108114198D01*
X92460578Y-108143078D01*
X92431698Y-108166779D01*
X92398753Y-108184389D01*
X92363001Y-108195234D01*
X92319684Y-108199500D01*
X90814316Y-108199500D01*
X90770999Y-108195234D01*
X90735247Y-108184389D01*
X90702302Y-108166779D01*
X90673422Y-108143078D01*
X90649721Y-108114198D01*
X90632111Y-108081253D01*
X90621266Y-108045501D01*
X90617000Y-108002184D01*
X90617000Y-106246816D01*
X90621266Y-106203499D01*
X90632111Y-106167747D01*
X90649721Y-106134802D01*
X90673422Y-106105922D01*
X90702302Y-106082221D01*
X90735247Y-106064611D01*
X90770999Y-106053766D01*
X90814316Y-106049500D01*
X92319684Y-106049500D01*
X92363001Y-106053766D01*
X92363001Y-106053766D01*
G37*
G36*
X130297732Y-105426246D02*
X130387270Y-105453407D01*
X130476809Y-105480568D01*
X130641847Y-105568783D01*
X130786501Y-105687499D01*
X130905217Y-105832153D01*
X130993432Y-105997191D01*
X131010594Y-106053766D01*
X131047754Y-106176268D01*
X131066096Y-106362500D01*
X131055592Y-106469155D01*
X131047754Y-106548731D01*
X130993432Y-106727809D01*
X130905217Y-106892847D01*
X130786501Y-107037501D01*
X130641847Y-107156217D01*
X130476809Y-107244432D01*
X130387270Y-107271593D01*
X130297732Y-107298754D01*
X130227948Y-107305627D01*
X130158166Y-107312500D01*
X130064834Y-107312500D01*
X129995052Y-107305627D01*
X129925268Y-107298754D01*
X129835730Y-107271593D01*
X129746191Y-107244432D01*
X129581153Y-107156217D01*
X129436499Y-107037501D01*
X129317783Y-106892847D01*
X129229568Y-106727809D01*
X129175246Y-106548731D01*
X129167409Y-106469155D01*
X129156904Y-106362500D01*
X129175246Y-106176268D01*
X129212406Y-106053766D01*
X129229568Y-105997191D01*
X129317783Y-105832153D01*
X129436499Y-105687499D01*
X129581153Y-105568783D01*
X129746191Y-105480568D01*
X129835730Y-105453407D01*
X129925268Y-105426246D01*
X130064834Y-105412500D01*
X130158166Y-105412500D01*
X130297732Y-105426246D01*
X130297732Y-105426246D01*
G37*
G36*
X127757732Y-105426246D02*
X127847270Y-105453407D01*
X127936809Y-105480568D01*
X128101847Y-105568783D01*
X128246501Y-105687499D01*
X128365217Y-105832153D01*
X128453432Y-105997191D01*
X128470594Y-106053766D01*
X128507754Y-106176268D01*
X128526096Y-106362500D01*
X128515592Y-106469155D01*
X128507754Y-106548731D01*
X128453432Y-106727809D01*
X128365217Y-106892847D01*
X128246501Y-107037501D01*
X128101847Y-107156217D01*
X127936809Y-107244432D01*
X127847270Y-107271593D01*
X127757732Y-107298754D01*
X127687948Y-107305627D01*
X127618166Y-107312500D01*
X127524834Y-107312500D01*
X127455052Y-107305627D01*
X127385268Y-107298754D01*
X127295730Y-107271593D01*
X127206191Y-107244432D01*
X127041153Y-107156217D01*
X126896499Y-107037501D01*
X126777783Y-106892847D01*
X126689568Y-106727809D01*
X126635246Y-106548731D01*
X126627409Y-106469155D01*
X126616904Y-106362500D01*
X126635246Y-106176268D01*
X126672406Y-106053766D01*
X126689568Y-105997191D01*
X126777783Y-105832153D01*
X126896499Y-105687499D01*
X127041153Y-105568783D01*
X127206191Y-105480568D01*
X127295730Y-105453407D01*
X127385268Y-105426246D01*
X127524834Y-105412500D01*
X127618166Y-105412500D01*
X127757732Y-105426246D01*
X127757732Y-105426246D01*
G37*
G36*
X115754232Y-105369746D02*
X115843770Y-105396907D01*
X115933309Y-105424068D01*
X116098347Y-105512283D01*
X116243001Y-105630999D01*
X116361717Y-105775653D01*
X116449932Y-105940691D01*
X116449932Y-105940692D01*
X116504254Y-106119768D01*
X116512726Y-106205783D01*
X116522596Y-106306000D01*
X116504254Y-106492231D01*
X116449932Y-106671309D01*
X116361717Y-106836347D01*
X116243001Y-106981001D01*
X116098347Y-107099717D01*
X115933309Y-107187932D01*
X115843770Y-107215093D01*
X115754232Y-107242254D01*
X115614666Y-107256000D01*
X115271334Y-107256000D01*
X115131768Y-107242254D01*
X115042230Y-107215093D01*
X114952691Y-107187932D01*
X114787653Y-107099717D01*
X114642999Y-106981001D01*
X114524283Y-106836347D01*
X114436068Y-106671309D01*
X114381746Y-106492231D01*
X114363404Y-106306000D01*
X114373274Y-106205783D01*
X114381746Y-106119768D01*
X114436068Y-105940692D01*
X114436068Y-105940691D01*
X114524283Y-105775653D01*
X114642999Y-105630999D01*
X114787653Y-105512283D01*
X114952691Y-105424068D01*
X115042230Y-105396907D01*
X115131768Y-105369746D01*
X115271334Y-105356000D01*
X115614666Y-105356000D01*
X115754232Y-105369746D01*
X115754232Y-105369746D01*
G37*
G36*
X109928500Y-105907500D02*
X107828500Y-105907500D01*
X107828500Y-104907500D01*
X109928500Y-104907500D01*
X109928500Y-105907500D01*
X109928500Y-105907500D01*
G37*
G36*
X106928500Y-104957500D02*
X104828500Y-104957500D01*
X104828500Y-103957500D01*
X106928500Y-103957500D01*
X106928500Y-104957500D01*
X106928500Y-104957500D01*
G37*
G36*
X130297732Y-102886246D02*
X130387270Y-102913407D01*
X130476809Y-102940568D01*
X130641847Y-103028783D01*
X130786501Y-103147499D01*
X130905217Y-103292153D01*
X130993432Y-103457191D01*
X131047754Y-103636269D01*
X131066096Y-103822500D01*
X131047754Y-104008731D01*
X130993432Y-104187809D01*
X130905217Y-104352847D01*
X130786501Y-104497501D01*
X130641847Y-104616217D01*
X130476809Y-104704432D01*
X130387270Y-104731593D01*
X130297732Y-104758754D01*
X130158166Y-104772500D01*
X130064834Y-104772500D01*
X129925268Y-104758754D01*
X129835730Y-104731593D01*
X129746191Y-104704432D01*
X129581153Y-104616217D01*
X129436499Y-104497501D01*
X129317783Y-104352847D01*
X129229568Y-104187809D01*
X129175246Y-104008731D01*
X129156904Y-103822500D01*
X129175246Y-103636269D01*
X129229568Y-103457191D01*
X129317783Y-103292153D01*
X129436499Y-103147499D01*
X129581153Y-103028783D01*
X129746191Y-102940568D01*
X129835730Y-102913407D01*
X129925268Y-102886246D01*
X130064834Y-102872500D01*
X130158166Y-102872500D01*
X130297732Y-102886246D01*
X130297732Y-102886246D01*
G37*
G36*
X127757732Y-102886246D02*
X127847270Y-102913407D01*
X127936809Y-102940568D01*
X128101847Y-103028783D01*
X128246501Y-103147499D01*
X128365217Y-103292153D01*
X128453432Y-103457191D01*
X128507754Y-103636269D01*
X128526096Y-103822500D01*
X128507754Y-104008731D01*
X128453432Y-104187809D01*
X128365217Y-104352847D01*
X128246501Y-104497501D01*
X128101847Y-104616217D01*
X127936809Y-104704432D01*
X127847270Y-104731593D01*
X127757732Y-104758754D01*
X127618166Y-104772500D01*
X127524834Y-104772500D01*
X127385268Y-104758754D01*
X127295730Y-104731593D01*
X127206191Y-104704432D01*
X127041153Y-104616217D01*
X126896499Y-104497501D01*
X126777783Y-104352847D01*
X126689568Y-104187809D01*
X126635246Y-104008731D01*
X126616904Y-103822500D01*
X126635246Y-103636269D01*
X126689568Y-103457191D01*
X126777783Y-103292153D01*
X126896499Y-103147499D01*
X127041153Y-103028783D01*
X127206191Y-102940568D01*
X127295730Y-102913407D01*
X127385268Y-102886246D01*
X127524834Y-102872500D01*
X127618166Y-102872500D01*
X127757732Y-102886246D01*
X127757732Y-102886246D01*
G37*
G36*
X115684448Y-102862873D02*
X115754232Y-102869746D01*
X115808625Y-102886246D01*
X115933309Y-102924068D01*
X116098347Y-103012283D01*
X116243001Y-103130999D01*
X116361717Y-103275653D01*
X116449932Y-103440691D01*
X116449932Y-103440692D01*
X116504254Y-103619768D01*
X116522596Y-103806000D01*
X116504254Y-103992232D01*
X116477093Y-104081770D01*
X116449932Y-104171309D01*
X116361717Y-104336347D01*
X116243001Y-104481001D01*
X116098347Y-104599717D01*
X115933309Y-104687932D01*
X115878915Y-104704432D01*
X115754232Y-104742254D01*
X115614666Y-104756000D01*
X115271334Y-104756000D01*
X115201552Y-104749127D01*
X115131768Y-104742254D01*
X115007085Y-104704432D01*
X114952691Y-104687932D01*
X114787653Y-104599717D01*
X114642999Y-104481001D01*
X114524283Y-104336347D01*
X114436068Y-104171309D01*
X114408907Y-104081770D01*
X114381746Y-103992232D01*
X114363404Y-103806000D01*
X114381746Y-103619768D01*
X114436068Y-103440692D01*
X114436068Y-103440691D01*
X114524283Y-103275653D01*
X114642999Y-103130999D01*
X114787653Y-103012283D01*
X114952691Y-102924068D01*
X115077375Y-102886246D01*
X115131768Y-102869746D01*
X115201552Y-102862873D01*
X115271334Y-102856000D01*
X115614666Y-102856000D01*
X115684448Y-102862873D01*
X115684448Y-102862873D01*
G37*
G36*
X109928500Y-104007500D02*
X107828500Y-104007500D01*
X107828500Y-103007500D01*
X109928500Y-103007500D01*
X109928500Y-104007500D01*
X109928500Y-104007500D01*
G37*
G36*
X115684448Y-100362873D02*
X115754232Y-100369746D01*
X115804089Y-100384870D01*
X115933309Y-100424068D01*
X116098347Y-100512283D01*
X116243001Y-100630999D01*
X116361717Y-100775653D01*
X116449932Y-100940691D01*
X116449932Y-100940692D01*
X116504254Y-101119768D01*
X116522596Y-101306000D01*
X116506569Y-101468732D01*
X116504254Y-101492231D01*
X116449932Y-101671309D01*
X116361717Y-101836347D01*
X116243001Y-101981001D01*
X116098347Y-102099717D01*
X115933309Y-102187932D01*
X115843770Y-102215093D01*
X115754232Y-102242254D01*
X115684448Y-102249127D01*
X115614666Y-102256000D01*
X115271334Y-102256000D01*
X115201552Y-102249127D01*
X115131768Y-102242254D01*
X115042230Y-102215093D01*
X114952691Y-102187932D01*
X114787653Y-102099717D01*
X114642999Y-101981001D01*
X114524283Y-101836347D01*
X114436068Y-101671309D01*
X114381746Y-101492231D01*
X114379432Y-101468732D01*
X114363404Y-101306000D01*
X114381746Y-101119768D01*
X114436068Y-100940692D01*
X114436068Y-100940691D01*
X114524283Y-100775653D01*
X114642999Y-100630999D01*
X114787653Y-100512283D01*
X114952691Y-100424068D01*
X115081911Y-100384870D01*
X115131768Y-100369746D01*
X115201552Y-100362873D01*
X115271334Y-100356000D01*
X115614666Y-100356000D01*
X115684448Y-100362873D01*
X115684448Y-100362873D01*
G37*
G36*
X130297732Y-100346246D02*
X130375201Y-100369746D01*
X130476809Y-100400568D01*
X130641847Y-100488783D01*
X130786501Y-100607499D01*
X130905217Y-100752153D01*
X130993432Y-100917191D01*
X131000561Y-100940692D01*
X131047754Y-101096268D01*
X131066096Y-101282500D01*
X131047754Y-101468732D01*
X131040625Y-101492232D01*
X130993432Y-101647809D01*
X130905217Y-101812847D01*
X130786501Y-101957501D01*
X130641847Y-102076217D01*
X130476809Y-102164432D01*
X130399339Y-102187932D01*
X130297732Y-102218754D01*
X130227948Y-102225627D01*
X130158166Y-102232500D01*
X130064834Y-102232500D01*
X129925268Y-102218754D01*
X129823661Y-102187932D01*
X129746191Y-102164432D01*
X129581153Y-102076217D01*
X129436499Y-101957501D01*
X129317783Y-101812847D01*
X129229568Y-101647809D01*
X129182375Y-101492232D01*
X129175246Y-101468732D01*
X129156904Y-101282500D01*
X129175246Y-101096268D01*
X129222439Y-100940692D01*
X129229568Y-100917191D01*
X129317783Y-100752153D01*
X129436499Y-100607499D01*
X129581153Y-100488783D01*
X129746191Y-100400568D01*
X129847799Y-100369746D01*
X129925268Y-100346246D01*
X129995052Y-100339373D01*
X130064834Y-100332500D01*
X130158166Y-100332500D01*
X130297732Y-100346246D01*
X130297732Y-100346246D01*
G37*
G36*
X127757732Y-100346246D02*
X127835201Y-100369746D01*
X127936809Y-100400568D01*
X128101847Y-100488783D01*
X128246501Y-100607499D01*
X128365217Y-100752153D01*
X128453432Y-100917191D01*
X128460561Y-100940692D01*
X128507754Y-101096268D01*
X128526096Y-101282500D01*
X128507754Y-101468732D01*
X128500625Y-101492232D01*
X128453432Y-101647809D01*
X128365217Y-101812847D01*
X128246501Y-101957501D01*
X128101847Y-102076217D01*
X127936809Y-102164432D01*
X127859339Y-102187932D01*
X127757732Y-102218754D01*
X127687948Y-102225627D01*
X127618166Y-102232500D01*
X127524834Y-102232500D01*
X127385268Y-102218754D01*
X127283661Y-102187932D01*
X127206191Y-102164432D01*
X127041153Y-102076217D01*
X126896499Y-101957501D01*
X126777783Y-101812847D01*
X126689568Y-101647809D01*
X126642375Y-101492232D01*
X126635246Y-101468732D01*
X126616904Y-101282500D01*
X126635246Y-101096268D01*
X126682439Y-100940692D01*
X126689568Y-100917191D01*
X126777783Y-100752153D01*
X126896499Y-100607499D01*
X127041153Y-100488783D01*
X127206191Y-100400568D01*
X127307799Y-100369746D01*
X127385268Y-100346246D01*
X127455052Y-100339373D01*
X127524834Y-100332500D01*
X127618166Y-100332500D01*
X127757732Y-100346246D01*
X127757732Y-100346246D01*
G37*
G36*
X84253232Y-99078246D02*
X84315784Y-99097221D01*
X84432309Y-99132568D01*
X84597347Y-99220783D01*
X84742001Y-99339499D01*
X84860717Y-99484153D01*
X84860718Y-99484155D01*
X84948932Y-99649192D01*
X85003254Y-99828269D01*
X85017000Y-99967836D01*
X85017000Y-100311165D01*
X85003254Y-100450732D01*
X84991712Y-100488782D01*
X84948932Y-100629809D01*
X84860717Y-100794847D01*
X84742001Y-100939501D01*
X84597347Y-101058217D01*
X84432308Y-101146432D01*
X84342769Y-101173593D01*
X84253231Y-101200754D01*
X84067000Y-101219096D01*
X83880768Y-101200754D01*
X83791230Y-101173593D01*
X83701691Y-101146432D01*
X83536653Y-101058217D01*
X83391999Y-100939501D01*
X83273283Y-100794847D01*
X83185068Y-100629808D01*
X83138274Y-100475548D01*
X83130746Y-100450731D01*
X83117000Y-100311164D01*
X83117000Y-99967835D01*
X83130746Y-99828268D01*
X83166952Y-99708911D01*
X83185068Y-99649191D01*
X83273282Y-99484155D01*
X83391999Y-99339499D01*
X83453044Y-99289401D01*
X83536654Y-99220783D01*
X83701692Y-99132568D01*
X83818217Y-99097221D01*
X83880769Y-99078246D01*
X84067000Y-99059904D01*
X84253232Y-99078246D01*
X84253232Y-99078246D01*
G37*
G36*
X86753232Y-99078246D02*
X86815784Y-99097221D01*
X86932309Y-99132568D01*
X87097347Y-99220783D01*
X87242001Y-99339499D01*
X87360717Y-99484153D01*
X87360718Y-99484155D01*
X87448932Y-99649192D01*
X87503254Y-99828269D01*
X87517000Y-99967836D01*
X87517000Y-100311165D01*
X87503254Y-100450732D01*
X87491712Y-100488782D01*
X87448932Y-100629809D01*
X87360717Y-100794847D01*
X87242001Y-100939501D01*
X87097347Y-101058217D01*
X86932308Y-101146432D01*
X86842769Y-101173593D01*
X86753231Y-101200754D01*
X86567000Y-101219096D01*
X86380768Y-101200754D01*
X86291230Y-101173593D01*
X86201691Y-101146432D01*
X86036653Y-101058217D01*
X85891999Y-100939501D01*
X85773283Y-100794847D01*
X85685068Y-100629808D01*
X85638274Y-100475548D01*
X85630746Y-100450731D01*
X85617000Y-100311164D01*
X85617000Y-99967835D01*
X85630746Y-99828268D01*
X85666952Y-99708911D01*
X85685068Y-99649191D01*
X85773282Y-99484155D01*
X85891999Y-99339499D01*
X85953044Y-99289401D01*
X86036654Y-99220783D01*
X86201692Y-99132568D01*
X86318217Y-99097221D01*
X86380769Y-99078246D01*
X86567000Y-99059904D01*
X86753232Y-99078246D01*
X86753232Y-99078246D01*
G37*
G36*
X89253232Y-99078246D02*
X89315784Y-99097221D01*
X89432309Y-99132568D01*
X89597347Y-99220783D01*
X89742001Y-99339499D01*
X89860717Y-99484153D01*
X89860718Y-99484155D01*
X89948932Y-99649192D01*
X90003254Y-99828269D01*
X90017000Y-99967836D01*
X90017000Y-100311165D01*
X90003254Y-100450732D01*
X89991712Y-100488782D01*
X89948932Y-100629809D01*
X89860717Y-100794847D01*
X89742001Y-100939501D01*
X89597347Y-101058217D01*
X89432308Y-101146432D01*
X89342769Y-101173593D01*
X89253231Y-101200754D01*
X89067000Y-101219096D01*
X88880768Y-101200754D01*
X88791230Y-101173593D01*
X88701691Y-101146432D01*
X88536653Y-101058217D01*
X88391999Y-100939501D01*
X88273283Y-100794847D01*
X88185068Y-100629808D01*
X88138274Y-100475548D01*
X88130746Y-100450731D01*
X88117000Y-100311164D01*
X88117000Y-99967835D01*
X88130746Y-99828268D01*
X88166952Y-99708911D01*
X88185068Y-99649191D01*
X88273282Y-99484155D01*
X88391999Y-99339499D01*
X88453044Y-99289401D01*
X88536654Y-99220783D01*
X88701692Y-99132568D01*
X88818217Y-99097221D01*
X88880769Y-99078246D01*
X89067000Y-99059904D01*
X89253232Y-99078246D01*
X89253232Y-99078246D01*
G37*
G36*
X92363001Y-99068766D02*
X92398753Y-99079611D01*
X92431698Y-99097221D01*
X92460578Y-99120922D01*
X92484279Y-99149802D01*
X92501889Y-99182747D01*
X92512734Y-99218499D01*
X92517000Y-99261816D01*
X92517000Y-101017184D01*
X92512734Y-101060501D01*
X92501889Y-101096253D01*
X92484279Y-101129198D01*
X92460578Y-101158078D01*
X92431698Y-101181779D01*
X92398753Y-101199389D01*
X92363001Y-101210234D01*
X92319684Y-101214500D01*
X90814316Y-101214500D01*
X90770999Y-101210234D01*
X90735247Y-101199389D01*
X90702302Y-101181779D01*
X90673422Y-101158078D01*
X90649721Y-101129198D01*
X90632111Y-101096253D01*
X90621266Y-101060501D01*
X90617000Y-101017184D01*
X90617000Y-99261816D01*
X90621266Y-99218499D01*
X90632111Y-99182747D01*
X90649721Y-99149802D01*
X90673422Y-99120922D01*
X90702302Y-99097221D01*
X90735247Y-99079611D01*
X90770999Y-99068766D01*
X90814316Y-99064500D01*
X92319684Y-99064500D01*
X92363001Y-99068766D01*
X92363001Y-99068766D01*
G37*
G36*
X108457279Y-99378916D02*
X108499370Y-99391685D01*
X108538166Y-99412422D01*
X108572171Y-99440329D01*
X108600078Y-99474334D01*
X108620815Y-99513130D01*
X108633584Y-99555221D01*
X108638500Y-99605140D01*
X108638500Y-100292860D01*
X108633584Y-100342779D01*
X108620815Y-100384870D01*
X108600078Y-100423666D01*
X108572171Y-100457671D01*
X108538166Y-100485578D01*
X108499370Y-100506315D01*
X108457279Y-100519084D01*
X108407360Y-100524000D01*
X107619640Y-100524000D01*
X107569721Y-100519084D01*
X107527630Y-100506315D01*
X107488834Y-100485578D01*
X107454829Y-100457671D01*
X107426922Y-100423666D01*
X107406185Y-100384870D01*
X107393416Y-100342779D01*
X107388500Y-100292860D01*
X107388500Y-99605140D01*
X107393416Y-99555221D01*
X107406185Y-99513130D01*
X107426922Y-99474334D01*
X107454829Y-99440329D01*
X107488834Y-99412422D01*
X107527630Y-99391685D01*
X107569721Y-99378916D01*
X107619640Y-99374000D01*
X108407360Y-99374000D01*
X108457279Y-99378916D01*
X108457279Y-99378916D01*
G37*
G36*
X106707279Y-99378916D02*
X106749370Y-99391685D01*
X106788166Y-99412422D01*
X106822171Y-99440329D01*
X106850078Y-99474334D01*
X106870815Y-99513130D01*
X106883584Y-99555221D01*
X106888500Y-99605140D01*
X106888500Y-100292860D01*
X106883584Y-100342779D01*
X106870815Y-100384870D01*
X106850078Y-100423666D01*
X106822171Y-100457671D01*
X106788166Y-100485578D01*
X106749370Y-100506315D01*
X106707279Y-100519084D01*
X106657360Y-100524000D01*
X105869640Y-100524000D01*
X105819721Y-100519084D01*
X105777630Y-100506315D01*
X105738834Y-100485578D01*
X105704829Y-100457671D01*
X105676922Y-100423666D01*
X105656185Y-100384870D01*
X105643416Y-100342779D01*
X105638500Y-100292860D01*
X105638500Y-99605140D01*
X105643416Y-99555221D01*
X105656185Y-99513130D01*
X105676922Y-99474334D01*
X105704829Y-99440329D01*
X105738834Y-99412422D01*
X105777630Y-99391685D01*
X105819721Y-99378916D01*
X105869640Y-99374000D01*
X106657360Y-99374000D01*
X106707279Y-99378916D01*
X106707279Y-99378916D01*
G37*
G36*
X116364001Y-97860266D02*
X116399753Y-97871111D01*
X116432698Y-97888721D01*
X116461578Y-97912422D01*
X116485279Y-97941302D01*
X116502889Y-97974247D01*
X116513734Y-98009999D01*
X116518000Y-98053316D01*
X116518000Y-99558684D01*
X116513734Y-99602001D01*
X116502889Y-99637753D01*
X116485279Y-99670698D01*
X116461578Y-99699578D01*
X116432698Y-99723279D01*
X116399753Y-99740889D01*
X116364001Y-99751734D01*
X116320684Y-99756000D01*
X114565316Y-99756000D01*
X114521999Y-99751734D01*
X114486247Y-99740889D01*
X114453302Y-99723279D01*
X114424422Y-99699578D01*
X114400721Y-99670698D01*
X114383111Y-99637753D01*
X114372266Y-99602001D01*
X114368000Y-99558684D01*
X114368000Y-98053316D01*
X114372266Y-98009999D01*
X114383111Y-97974247D01*
X114400721Y-97941302D01*
X114424422Y-97912422D01*
X114453302Y-97888721D01*
X114486247Y-97871111D01*
X114521999Y-97860266D01*
X114565316Y-97856000D01*
X116320684Y-97856000D01*
X116364001Y-97860266D01*
X116364001Y-97860266D01*
G37*
G36*
X130297732Y-97806246D02*
X130387270Y-97833407D01*
X130476809Y-97860568D01*
X130641847Y-97948783D01*
X130786501Y-98067499D01*
X130905217Y-98212153D01*
X130993432Y-98377191D01*
X131047754Y-98556269D01*
X131066096Y-98742500D01*
X131047754Y-98928731D01*
X130993432Y-99107809D01*
X130905217Y-99272847D01*
X130786501Y-99417501D01*
X130641847Y-99536217D01*
X130476809Y-99624432D01*
X130395188Y-99649191D01*
X130297732Y-99678754D01*
X130227948Y-99685627D01*
X130158166Y-99692500D01*
X130064834Y-99692500D01*
X129995052Y-99685627D01*
X129925268Y-99678754D01*
X129827812Y-99649191D01*
X129746191Y-99624432D01*
X129581153Y-99536217D01*
X129436499Y-99417501D01*
X129317783Y-99272847D01*
X129229568Y-99107809D01*
X129175246Y-98928731D01*
X129156904Y-98742500D01*
X129175246Y-98556269D01*
X129229568Y-98377191D01*
X129317783Y-98212153D01*
X129436499Y-98067499D01*
X129581153Y-97948783D01*
X129746191Y-97860568D01*
X129835730Y-97833407D01*
X129925268Y-97806246D01*
X130064834Y-97792500D01*
X130158166Y-97792500D01*
X130297732Y-97806246D01*
X130297732Y-97806246D01*
G37*
G36*
X128521500Y-99692500D02*
X126621500Y-99692500D01*
X126621500Y-97792500D01*
X128521500Y-97792500D01*
X128521500Y-99692500D01*
X128521500Y-99692500D01*
G37*
G36*
X106131224Y-96946512D02*
X106169368Y-96958083D01*
X106204520Y-96976872D01*
X106235337Y-97002163D01*
X106260628Y-97032980D01*
X106279417Y-97068132D01*
X106290988Y-97106276D01*
X106295500Y-97152089D01*
X106295500Y-98681911D01*
X106290988Y-98727724D01*
X106279417Y-98765868D01*
X106260628Y-98801020D01*
X106235337Y-98831837D01*
X106204520Y-98857128D01*
X106169368Y-98875917D01*
X106131224Y-98887488D01*
X106085411Y-98892000D01*
X104880589Y-98892000D01*
X104834776Y-98887488D01*
X104796632Y-98875917D01*
X104761480Y-98857128D01*
X104730663Y-98831837D01*
X104705372Y-98801020D01*
X104686583Y-98765868D01*
X104675012Y-98727724D01*
X104670500Y-98681911D01*
X104670500Y-97152089D01*
X104675012Y-97106276D01*
X104686583Y-97068132D01*
X104705372Y-97032980D01*
X104730663Y-97002163D01*
X104761480Y-96976872D01*
X104796632Y-96958083D01*
X104834776Y-96946512D01*
X104880589Y-96942000D01*
X106085411Y-96942000D01*
X106131224Y-96946512D01*
X106131224Y-96946512D01*
G37*
G36*
X109106224Y-96946512D02*
X109144368Y-96958083D01*
X109179520Y-96976872D01*
X109210337Y-97002163D01*
X109235628Y-97032980D01*
X109254417Y-97068132D01*
X109265988Y-97106276D01*
X109270500Y-97152089D01*
X109270500Y-98681911D01*
X109265988Y-98727724D01*
X109254417Y-98765868D01*
X109235628Y-98801020D01*
X109210337Y-98831837D01*
X109179520Y-98857128D01*
X109144368Y-98875917D01*
X109106224Y-98887488D01*
X109060411Y-98892000D01*
X107855589Y-98892000D01*
X107809776Y-98887488D01*
X107771632Y-98875917D01*
X107736480Y-98857128D01*
X107705663Y-98831837D01*
X107680372Y-98801020D01*
X107661583Y-98765868D01*
X107650012Y-98727724D01*
X107645500Y-98681911D01*
X107645500Y-97152089D01*
X107650012Y-97106276D01*
X107661583Y-97068132D01*
X107680372Y-97032980D01*
X107705663Y-97002163D01*
X107736480Y-96976872D01*
X107771632Y-96958083D01*
X107809776Y-96946512D01*
X107855589Y-96942000D01*
X109060411Y-96942000D01*
X109106224Y-96946512D01*
X109106224Y-96946512D01*
G37*
G36*
X100405732Y-92156746D02*
X100468284Y-92175721D01*
X100584809Y-92211068D01*
X100749847Y-92299283D01*
X100894501Y-92417999D01*
X101013217Y-92562653D01*
X101013218Y-92562655D01*
X101101432Y-92727692D01*
X101155754Y-92906768D01*
X101155754Y-92906770D01*
X101169500Y-93046335D01*
X101169500Y-93389666D01*
X101155754Y-93529231D01*
X101101432Y-93708309D01*
X101013217Y-93873347D01*
X100894501Y-94018001D01*
X100749847Y-94136717D01*
X100584808Y-94224932D01*
X100495269Y-94252093D01*
X100405731Y-94279254D01*
X100219500Y-94297596D01*
X100033268Y-94279254D01*
X99943730Y-94252093D01*
X99854191Y-94224932D01*
X99689153Y-94136717D01*
X99544499Y-94018001D01*
X99425783Y-93873347D01*
X99337568Y-93708308D01*
X99310407Y-93618769D01*
X99283246Y-93529231D01*
X99269500Y-93389664D01*
X99269500Y-93046335D01*
X99283246Y-92906768D01*
X99337568Y-92727692D01*
X99337568Y-92727691D01*
X99385612Y-92637808D01*
X99425782Y-92562655D01*
X99544499Y-92417999D01*
X99669411Y-92315486D01*
X99689154Y-92299283D01*
X99854192Y-92211068D01*
X99970717Y-92175721D01*
X100033269Y-92156746D01*
X100219500Y-92138404D01*
X100405732Y-92156746D01*
X100405732Y-92156746D01*
G37*
G36*
X102905732Y-92156746D02*
X102968284Y-92175721D01*
X103084809Y-92211068D01*
X103249847Y-92299283D01*
X103394501Y-92417999D01*
X103513217Y-92562653D01*
X103513218Y-92562655D01*
X103601432Y-92727692D01*
X103655754Y-92906768D01*
X103655754Y-92906770D01*
X103669500Y-93046335D01*
X103669500Y-93389666D01*
X103655754Y-93529231D01*
X103601432Y-93708309D01*
X103513217Y-93873347D01*
X103394501Y-94018001D01*
X103249847Y-94136717D01*
X103084808Y-94224932D01*
X102995269Y-94252093D01*
X102905731Y-94279254D01*
X102719500Y-94297596D01*
X102533268Y-94279254D01*
X102443730Y-94252093D01*
X102354191Y-94224932D01*
X102189153Y-94136717D01*
X102044499Y-94018001D01*
X101925783Y-93873347D01*
X101837568Y-93708308D01*
X101810407Y-93618769D01*
X101783246Y-93529231D01*
X101769500Y-93389664D01*
X101769500Y-93046335D01*
X101783246Y-92906768D01*
X101837568Y-92727692D01*
X101837568Y-92727691D01*
X101885612Y-92637808D01*
X101925782Y-92562655D01*
X102044499Y-92417999D01*
X102169411Y-92315486D01*
X102189154Y-92299283D01*
X102354192Y-92211068D01*
X102470717Y-92175721D01*
X102533269Y-92156746D01*
X102719500Y-92138404D01*
X102905732Y-92156746D01*
X102905732Y-92156746D01*
G37*
G36*
X84253232Y-92156746D02*
X84315784Y-92175721D01*
X84432309Y-92211068D01*
X84597347Y-92299283D01*
X84742001Y-92417999D01*
X84860717Y-92562653D01*
X84860718Y-92562655D01*
X84948932Y-92727692D01*
X85003254Y-92906768D01*
X85003254Y-92906770D01*
X85017000Y-93046335D01*
X85017000Y-93389666D01*
X85003254Y-93529231D01*
X84948932Y-93708309D01*
X84860717Y-93873347D01*
X84742001Y-94018001D01*
X84597347Y-94136717D01*
X84432308Y-94224932D01*
X84342769Y-94252093D01*
X84253231Y-94279254D01*
X84067000Y-94297596D01*
X83880768Y-94279254D01*
X83791230Y-94252093D01*
X83701691Y-94224932D01*
X83536653Y-94136717D01*
X83391999Y-94018001D01*
X83273283Y-93873347D01*
X83185068Y-93708308D01*
X83157907Y-93618769D01*
X83130746Y-93529231D01*
X83117000Y-93389664D01*
X83117000Y-93046335D01*
X83130746Y-92906768D01*
X83185068Y-92727692D01*
X83185068Y-92727691D01*
X83233112Y-92637808D01*
X83273282Y-92562655D01*
X83391999Y-92417999D01*
X83516911Y-92315486D01*
X83536654Y-92299283D01*
X83701692Y-92211068D01*
X83818217Y-92175721D01*
X83880769Y-92156746D01*
X84067000Y-92138404D01*
X84253232Y-92156746D01*
X84253232Y-92156746D01*
G37*
G36*
X86753232Y-92156746D02*
X86815784Y-92175721D01*
X86932309Y-92211068D01*
X87097347Y-92299283D01*
X87242001Y-92417999D01*
X87360717Y-92562653D01*
X87360718Y-92562655D01*
X87448932Y-92727692D01*
X87503254Y-92906768D01*
X87503254Y-92906770D01*
X87517000Y-93046335D01*
X87517000Y-93389666D01*
X87503254Y-93529231D01*
X87448932Y-93708309D01*
X87360717Y-93873347D01*
X87242001Y-94018001D01*
X87097347Y-94136717D01*
X86932308Y-94224932D01*
X86842769Y-94252093D01*
X86753231Y-94279254D01*
X86567000Y-94297596D01*
X86380768Y-94279254D01*
X86291230Y-94252093D01*
X86201691Y-94224932D01*
X86036653Y-94136717D01*
X85891999Y-94018001D01*
X85773283Y-93873347D01*
X85685068Y-93708308D01*
X85657907Y-93618769D01*
X85630746Y-93529231D01*
X85617000Y-93389664D01*
X85617000Y-93046335D01*
X85630746Y-92906768D01*
X85685068Y-92727692D01*
X85685068Y-92727691D01*
X85733112Y-92637808D01*
X85773282Y-92562655D01*
X85891999Y-92417999D01*
X86016911Y-92315486D01*
X86036654Y-92299283D01*
X86201692Y-92211068D01*
X86318217Y-92175721D01*
X86380769Y-92156746D01*
X86567000Y-92138404D01*
X86753232Y-92156746D01*
X86753232Y-92156746D01*
G37*
G36*
X89253232Y-92156746D02*
X89315784Y-92175721D01*
X89432309Y-92211068D01*
X89597347Y-92299283D01*
X89742001Y-92417999D01*
X89860717Y-92562653D01*
X89860718Y-92562655D01*
X89948932Y-92727692D01*
X90003254Y-92906768D01*
X90003254Y-92906770D01*
X90017000Y-93046335D01*
X90017000Y-93389666D01*
X90003254Y-93529231D01*
X89948932Y-93708309D01*
X89860717Y-93873347D01*
X89742001Y-94018001D01*
X89597347Y-94136717D01*
X89432308Y-94224932D01*
X89342769Y-94252093D01*
X89253231Y-94279254D01*
X89067000Y-94297596D01*
X88880768Y-94279254D01*
X88791230Y-94252093D01*
X88701691Y-94224932D01*
X88536653Y-94136717D01*
X88391999Y-94018001D01*
X88273283Y-93873347D01*
X88185068Y-93708308D01*
X88157907Y-93618769D01*
X88130746Y-93529231D01*
X88117000Y-93389664D01*
X88117000Y-93046335D01*
X88130746Y-92906768D01*
X88185068Y-92727692D01*
X88185068Y-92727691D01*
X88233112Y-92637808D01*
X88273282Y-92562655D01*
X88391999Y-92417999D01*
X88516911Y-92315486D01*
X88536654Y-92299283D01*
X88701692Y-92211068D01*
X88818217Y-92175721D01*
X88880769Y-92156746D01*
X89067000Y-92138404D01*
X89253232Y-92156746D01*
X89253232Y-92156746D01*
G37*
G36*
X92363001Y-92147266D02*
X92398753Y-92158111D01*
X92431698Y-92175721D01*
X92460578Y-92199422D01*
X92484279Y-92228302D01*
X92501889Y-92261247D01*
X92512734Y-92296999D01*
X92517000Y-92340316D01*
X92517000Y-94095684D01*
X92512734Y-94139001D01*
X92501889Y-94174753D01*
X92484279Y-94207698D01*
X92460578Y-94236578D01*
X92431698Y-94260279D01*
X92398753Y-94277889D01*
X92363001Y-94288734D01*
X92319684Y-94293000D01*
X90814316Y-94293000D01*
X90770999Y-94288734D01*
X90735247Y-94277889D01*
X90702302Y-94260279D01*
X90673422Y-94236578D01*
X90649721Y-94207698D01*
X90632111Y-94174753D01*
X90621266Y-94139001D01*
X90617000Y-94095684D01*
X90617000Y-92340316D01*
X90621266Y-92296999D01*
X90632111Y-92261247D01*
X90649721Y-92228302D01*
X90673422Y-92199422D01*
X90702302Y-92175721D01*
X90735247Y-92158111D01*
X90770999Y-92147266D01*
X90814316Y-92143000D01*
X92319684Y-92143000D01*
X92363001Y-92147266D01*
X92363001Y-92147266D01*
G37*
G36*
X106015501Y-92147266D02*
X106051253Y-92158111D01*
X106084198Y-92175721D01*
X106113078Y-92199422D01*
X106136779Y-92228302D01*
X106154389Y-92261247D01*
X106165234Y-92296999D01*
X106169500Y-92340316D01*
X106169500Y-94095684D01*
X106165234Y-94139001D01*
X106154389Y-94174753D01*
X106136779Y-94207698D01*
X106113078Y-94236578D01*
X106084198Y-94260279D01*
X106051253Y-94277889D01*
X106015501Y-94288734D01*
X105972184Y-94293000D01*
X104466816Y-94293000D01*
X104423499Y-94288734D01*
X104387747Y-94277889D01*
X104354802Y-94260279D01*
X104325922Y-94236578D01*
X104302221Y-94207698D01*
X104284611Y-94174753D01*
X104273766Y-94139001D01*
X104269500Y-94095684D01*
X104269500Y-92340316D01*
X104273766Y-92296999D01*
X104284611Y-92261247D01*
X104302221Y-92228302D01*
X104325922Y-92199422D01*
X104354802Y-92175721D01*
X104387747Y-92158111D01*
X104423499Y-92147266D01*
X104466816Y-92143000D01*
X105972184Y-92143000D01*
X106015501Y-92147266D01*
X106015501Y-92147266D01*
G37*
G36*
X132988000Y-93717000D02*
X132188000Y-93717000D01*
X132188000Y-91792000D01*
X132988000Y-91792000D01*
X132988000Y-93717000D01*
X132988000Y-93717000D01*
G37*
G36*
X126638000Y-93717000D02*
X125838000Y-93717000D01*
X125838000Y-91792000D01*
X126638000Y-91792000D01*
X126638000Y-93717000D01*
X126638000Y-93717000D01*
G37*
G36*
X127908000Y-93717000D02*
X127108000Y-93717000D01*
X127108000Y-91792000D01*
X127908000Y-91792000D01*
X127908000Y-93717000D01*
X127908000Y-93717000D01*
G37*
G36*
X129178000Y-93717000D02*
X128378000Y-93717000D01*
X128378000Y-91792000D01*
X129178000Y-91792000D01*
X129178000Y-93717000D01*
X129178000Y-93717000D01*
G37*
G36*
X122828000Y-93717000D02*
X122028000Y-93717000D01*
X122028000Y-91792000D01*
X122828000Y-91792000D01*
X122828000Y-93717000D01*
X122828000Y-93717000D01*
G37*
G36*
X124098000Y-93717000D02*
X123298000Y-93717000D01*
X123298000Y-91792000D01*
X124098000Y-91792000D01*
X124098000Y-93717000D01*
X124098000Y-93717000D01*
G37*
G36*
X125368000Y-93717000D02*
X124568000Y-93717000D01*
X124568000Y-91792000D01*
X125368000Y-91792000D01*
X125368000Y-93717000D01*
X125368000Y-93717000D01*
G37*
G36*
X131718000Y-93717000D02*
X130918000Y-93717000D01*
X130918000Y-91792000D01*
X131718000Y-91792000D01*
X131718000Y-93717000D01*
X131718000Y-93717000D01*
G37*
G36*
X130448000Y-93717000D02*
X129648000Y-93717000D01*
X129648000Y-91792000D01*
X130448000Y-91792000D01*
X130448000Y-93717000D01*
X130448000Y-93717000D01*
G37*
G36*
X141920000Y-93406000D02*
X140020000Y-93406000D01*
X140020000Y-91506000D01*
X141920000Y-91506000D01*
X141920000Y-93406000D01*
X141920000Y-93406000D01*
G37*
G36*
X115684448Y-91329373D02*
X115754232Y-91336246D01*
X115843770Y-91363407D01*
X115933309Y-91390568D01*
X116098347Y-91478783D01*
X116243001Y-91597499D01*
X116361717Y-91742153D01*
X116449932Y-91907191D01*
X116449932Y-91907192D01*
X116504254Y-92086268D01*
X116510262Y-92147266D01*
X116522596Y-92272500D01*
X116504254Y-92458731D01*
X116449932Y-92637809D01*
X116361717Y-92802847D01*
X116243001Y-92947501D01*
X116098347Y-93066217D01*
X115933309Y-93154432D01*
X115843770Y-93181593D01*
X115754232Y-93208754D01*
X115684448Y-93215627D01*
X115614666Y-93222500D01*
X115271334Y-93222500D01*
X115201552Y-93215627D01*
X115131768Y-93208754D01*
X115042230Y-93181593D01*
X114952691Y-93154432D01*
X114787653Y-93066217D01*
X114642999Y-92947501D01*
X114524283Y-92802847D01*
X114436068Y-92637809D01*
X114381746Y-92458731D01*
X114363404Y-92272500D01*
X114375738Y-92147266D01*
X114381746Y-92086268D01*
X114436068Y-91907192D01*
X114436068Y-91907191D01*
X114524283Y-91742153D01*
X114642999Y-91597499D01*
X114787653Y-91478783D01*
X114952691Y-91390568D01*
X115042230Y-91363407D01*
X115131768Y-91336246D01*
X115201552Y-91329373D01*
X115271334Y-91322500D01*
X115614666Y-91322500D01*
X115684448Y-91329373D01*
X115684448Y-91329373D01*
G37*
G36*
X141086448Y-88972873D02*
X141156232Y-88979746D01*
X141245770Y-89006907D01*
X141335309Y-89034068D01*
X141500347Y-89122283D01*
X141645001Y-89240999D01*
X141763717Y-89385653D01*
X141851932Y-89550691D01*
X141906254Y-89729769D01*
X141924596Y-89916000D01*
X141906254Y-90102231D01*
X141851932Y-90281309D01*
X141763717Y-90446347D01*
X141645001Y-90591001D01*
X141500347Y-90709717D01*
X141335309Y-90797932D01*
X141245770Y-90825093D01*
X141156232Y-90852254D01*
X141086448Y-90859127D01*
X141016666Y-90866000D01*
X140923334Y-90866000D01*
X140853552Y-90859127D01*
X140783768Y-90852254D01*
X140694230Y-90825093D01*
X140604691Y-90797932D01*
X140439653Y-90709717D01*
X140294999Y-90591001D01*
X140176283Y-90446347D01*
X140088068Y-90281309D01*
X140033746Y-90102231D01*
X140015404Y-89916000D01*
X140033746Y-89729769D01*
X140088068Y-89550691D01*
X140176283Y-89385653D01*
X140294999Y-89240999D01*
X140439653Y-89122283D01*
X140604691Y-89034068D01*
X140694230Y-89006907D01*
X140783768Y-88979746D01*
X140853552Y-88972873D01*
X140923334Y-88966000D01*
X141016666Y-88966000D01*
X141086448Y-88972873D01*
X141086448Y-88972873D01*
G37*
G36*
X115684448Y-88829373D02*
X115754232Y-88836246D01*
X115843770Y-88863407D01*
X115933309Y-88890568D01*
X116098347Y-88978783D01*
X116243001Y-89097499D01*
X116361717Y-89242153D01*
X116449932Y-89407191D01*
X116504254Y-89586269D01*
X116522596Y-89772500D01*
X116504254Y-89958731D01*
X116449932Y-90137809D01*
X116361717Y-90302847D01*
X116243001Y-90447501D01*
X116098347Y-90566217D01*
X115933309Y-90654432D01*
X115843770Y-90681593D01*
X115754232Y-90708754D01*
X115614666Y-90722500D01*
X115271334Y-90722500D01*
X115131768Y-90708754D01*
X115042230Y-90681593D01*
X114952691Y-90654432D01*
X114787653Y-90566217D01*
X114642999Y-90447501D01*
X114524283Y-90302847D01*
X114436068Y-90137809D01*
X114381746Y-89958731D01*
X114363404Y-89772500D01*
X114381746Y-89586269D01*
X114436068Y-89407191D01*
X114524283Y-89242153D01*
X114642999Y-89097499D01*
X114787653Y-88978783D01*
X114952691Y-88890568D01*
X115042230Y-88863407D01*
X115131768Y-88836246D01*
X115201552Y-88829373D01*
X115271334Y-88822500D01*
X115614666Y-88822500D01*
X115684448Y-88829373D01*
X115684448Y-88829373D01*
G37*
G36*
X141156232Y-86439746D02*
X141245770Y-86466907D01*
X141335309Y-86494068D01*
X141500347Y-86582283D01*
X141645001Y-86700999D01*
X141763717Y-86845653D01*
X141851932Y-87010691D01*
X141851932Y-87010692D01*
X141906254Y-87189768D01*
X141912097Y-87249096D01*
X141924596Y-87376000D01*
X141906254Y-87562231D01*
X141851932Y-87741309D01*
X141763717Y-87906347D01*
X141645001Y-88051001D01*
X141500347Y-88169717D01*
X141335309Y-88257932D01*
X141245770Y-88285093D01*
X141156232Y-88312254D01*
X141086448Y-88319127D01*
X141016666Y-88326000D01*
X140923334Y-88326000D01*
X140853552Y-88319127D01*
X140783768Y-88312254D01*
X140694230Y-88285093D01*
X140604691Y-88257932D01*
X140439653Y-88169717D01*
X140294999Y-88051001D01*
X140176283Y-87906347D01*
X140088068Y-87741309D01*
X140033746Y-87562231D01*
X140015404Y-87376000D01*
X140027903Y-87249096D01*
X140033746Y-87189768D01*
X140088068Y-87010692D01*
X140088068Y-87010691D01*
X140176283Y-86845653D01*
X140294999Y-86700999D01*
X140439653Y-86582283D01*
X140604691Y-86494068D01*
X140694230Y-86466907D01*
X140783768Y-86439746D01*
X140923334Y-86426000D01*
X141016666Y-86426000D01*
X141156232Y-86439746D01*
X141156232Y-86439746D01*
G37*
G36*
X115754232Y-86336246D02*
X115843770Y-86363407D01*
X115933309Y-86390568D01*
X116098347Y-86478783D01*
X116243001Y-86597499D01*
X116361717Y-86742153D01*
X116449932Y-86907191D01*
X116504254Y-87086269D01*
X116522596Y-87272500D01*
X116504254Y-87458731D01*
X116449932Y-87637809D01*
X116361717Y-87802847D01*
X116243001Y-87947501D01*
X116098347Y-88066217D01*
X115933309Y-88154432D01*
X115882920Y-88169717D01*
X115754232Y-88208754D01*
X115614666Y-88222500D01*
X115271334Y-88222500D01*
X115131768Y-88208754D01*
X115003080Y-88169717D01*
X114952691Y-88154432D01*
X114787653Y-88066217D01*
X114642999Y-87947501D01*
X114524283Y-87802847D01*
X114436068Y-87637809D01*
X114381746Y-87458731D01*
X114363404Y-87272500D01*
X114381746Y-87086269D01*
X114436068Y-86907191D01*
X114524283Y-86742153D01*
X114642999Y-86597499D01*
X114787653Y-86478783D01*
X114952691Y-86390568D01*
X115042230Y-86363407D01*
X115131768Y-86336246D01*
X115271334Y-86322500D01*
X115614666Y-86322500D01*
X115754232Y-86336246D01*
X115754232Y-86336246D01*
G37*
G36*
X100405732Y-85108246D02*
X100468284Y-85127221D01*
X100584809Y-85162568D01*
X100749847Y-85250783D01*
X100894501Y-85369499D01*
X101013217Y-85514153D01*
X101013218Y-85514155D01*
X101101432Y-85679192D01*
X101155754Y-85858269D01*
X101169500Y-85997836D01*
X101169500Y-86341165D01*
X101155754Y-86480732D01*
X101128593Y-86570270D01*
X101101432Y-86659809D01*
X101013217Y-86824847D01*
X100894501Y-86969501D01*
X100749847Y-87088217D01*
X100584808Y-87176432D01*
X100495269Y-87203593D01*
X100405731Y-87230754D01*
X100219500Y-87249096D01*
X100033268Y-87230754D01*
X99943730Y-87203593D01*
X99854191Y-87176432D01*
X99689153Y-87088217D01*
X99544499Y-86969501D01*
X99425783Y-86824847D01*
X99337568Y-86659808D01*
X99287292Y-86494068D01*
X99283246Y-86480731D01*
X99269500Y-86341164D01*
X99269500Y-85997835D01*
X99283246Y-85858268D01*
X99326059Y-85717131D01*
X99337568Y-85679191D01*
X99381675Y-85596674D01*
X99425782Y-85514155D01*
X99544499Y-85369499D01*
X99669411Y-85266986D01*
X99689154Y-85250783D01*
X99854192Y-85162568D01*
X99970717Y-85127221D01*
X100033269Y-85108246D01*
X100219500Y-85089904D01*
X100405732Y-85108246D01*
X100405732Y-85108246D01*
G37*
G36*
X102905732Y-85108246D02*
X102968284Y-85127221D01*
X103084809Y-85162568D01*
X103249847Y-85250783D01*
X103394501Y-85369499D01*
X103513217Y-85514153D01*
X103513218Y-85514155D01*
X103601432Y-85679192D01*
X103655754Y-85858269D01*
X103669500Y-85997836D01*
X103669500Y-86341165D01*
X103655754Y-86480732D01*
X103628593Y-86570270D01*
X103601432Y-86659809D01*
X103513217Y-86824847D01*
X103394501Y-86969501D01*
X103249847Y-87088217D01*
X103084808Y-87176432D01*
X102995269Y-87203593D01*
X102905731Y-87230754D01*
X102719500Y-87249096D01*
X102533268Y-87230754D01*
X102443730Y-87203593D01*
X102354191Y-87176432D01*
X102189153Y-87088217D01*
X102044499Y-86969501D01*
X101925783Y-86824847D01*
X101837568Y-86659808D01*
X101787292Y-86494068D01*
X101783246Y-86480731D01*
X101769500Y-86341164D01*
X101769500Y-85997835D01*
X101783246Y-85858268D01*
X101826059Y-85717131D01*
X101837568Y-85679191D01*
X101881675Y-85596674D01*
X101925782Y-85514155D01*
X102044499Y-85369499D01*
X102169411Y-85266986D01*
X102189154Y-85250783D01*
X102354192Y-85162568D01*
X102470717Y-85127221D01*
X102533269Y-85108246D01*
X102719500Y-85089904D01*
X102905732Y-85108246D01*
X102905732Y-85108246D01*
G37*
G36*
X89253232Y-85108246D02*
X89315784Y-85127221D01*
X89432309Y-85162568D01*
X89597347Y-85250783D01*
X89742001Y-85369499D01*
X89860717Y-85514153D01*
X89860718Y-85514155D01*
X89948932Y-85679192D01*
X90003254Y-85858269D01*
X90017000Y-85997836D01*
X90017000Y-86341165D01*
X90003254Y-86480732D01*
X89976093Y-86570270D01*
X89948932Y-86659809D01*
X89860717Y-86824847D01*
X89742001Y-86969501D01*
X89597347Y-87088217D01*
X89432308Y-87176432D01*
X89342769Y-87203593D01*
X89253231Y-87230754D01*
X89067000Y-87249096D01*
X88880768Y-87230754D01*
X88791230Y-87203593D01*
X88701691Y-87176432D01*
X88536653Y-87088217D01*
X88391999Y-86969501D01*
X88273283Y-86824847D01*
X88185068Y-86659808D01*
X88134792Y-86494068D01*
X88130746Y-86480731D01*
X88117000Y-86341164D01*
X88117000Y-85997835D01*
X88130746Y-85858268D01*
X88173559Y-85717131D01*
X88185068Y-85679191D01*
X88273282Y-85514155D01*
X88391999Y-85369499D01*
X88516911Y-85266986D01*
X88536654Y-85250783D01*
X88701692Y-85162568D01*
X88818217Y-85127221D01*
X88880769Y-85108246D01*
X89067000Y-85089904D01*
X89253232Y-85108246D01*
X89253232Y-85108246D01*
G37*
G36*
X86753232Y-85108246D02*
X86815784Y-85127221D01*
X86932309Y-85162568D01*
X87097347Y-85250783D01*
X87242001Y-85369499D01*
X87360717Y-85514153D01*
X87360718Y-85514155D01*
X87448932Y-85679192D01*
X87503254Y-85858269D01*
X87517000Y-85997836D01*
X87517000Y-86341165D01*
X87503254Y-86480732D01*
X87476093Y-86570270D01*
X87448932Y-86659809D01*
X87360717Y-86824847D01*
X87242001Y-86969501D01*
X87097347Y-87088217D01*
X86932308Y-87176432D01*
X86842769Y-87203593D01*
X86753231Y-87230754D01*
X86567000Y-87249096D01*
X86380768Y-87230754D01*
X86291230Y-87203593D01*
X86201691Y-87176432D01*
X86036653Y-87088217D01*
X85891999Y-86969501D01*
X85773283Y-86824847D01*
X85685068Y-86659808D01*
X85634792Y-86494068D01*
X85630746Y-86480731D01*
X85617000Y-86341164D01*
X85617000Y-85997835D01*
X85630746Y-85858268D01*
X85673559Y-85717131D01*
X85685068Y-85679191D01*
X85773282Y-85514155D01*
X85891999Y-85369499D01*
X86016911Y-85266986D01*
X86036654Y-85250783D01*
X86201692Y-85162568D01*
X86318217Y-85127221D01*
X86380769Y-85108246D01*
X86567000Y-85089904D01*
X86753232Y-85108246D01*
X86753232Y-85108246D01*
G37*
G36*
X84253232Y-85108246D02*
X84315784Y-85127221D01*
X84432309Y-85162568D01*
X84597347Y-85250783D01*
X84742001Y-85369499D01*
X84860717Y-85514153D01*
X84860718Y-85514155D01*
X84948932Y-85679192D01*
X85003254Y-85858269D01*
X85017000Y-85997836D01*
X85017000Y-86341165D01*
X85003254Y-86480732D01*
X84976093Y-86570270D01*
X84948932Y-86659809D01*
X84860717Y-86824847D01*
X84742001Y-86969501D01*
X84597347Y-87088217D01*
X84432308Y-87176432D01*
X84342769Y-87203593D01*
X84253231Y-87230754D01*
X84067000Y-87249096D01*
X83880768Y-87230754D01*
X83791230Y-87203593D01*
X83701691Y-87176432D01*
X83536653Y-87088217D01*
X83391999Y-86969501D01*
X83273283Y-86824847D01*
X83185068Y-86659808D01*
X83134792Y-86494068D01*
X83130746Y-86480731D01*
X83117000Y-86341164D01*
X83117000Y-85997835D01*
X83130746Y-85858268D01*
X83173559Y-85717131D01*
X83185068Y-85679191D01*
X83273282Y-85514155D01*
X83391999Y-85369499D01*
X83516911Y-85266986D01*
X83536654Y-85250783D01*
X83701692Y-85162568D01*
X83818217Y-85127221D01*
X83880769Y-85108246D01*
X84067000Y-85089904D01*
X84253232Y-85108246D01*
X84253232Y-85108246D01*
G37*
G36*
X92363001Y-85098766D02*
X92398753Y-85109611D01*
X92431698Y-85127221D01*
X92460578Y-85150922D01*
X92484279Y-85179802D01*
X92501889Y-85212747D01*
X92512734Y-85248499D01*
X92517000Y-85291816D01*
X92517000Y-87047184D01*
X92512734Y-87090501D01*
X92501889Y-87126253D01*
X92484279Y-87159198D01*
X92460578Y-87188078D01*
X92431698Y-87211779D01*
X92398753Y-87229389D01*
X92363001Y-87240234D01*
X92319684Y-87244500D01*
X90814316Y-87244500D01*
X90770999Y-87240234D01*
X90735247Y-87229389D01*
X90702302Y-87211779D01*
X90673422Y-87188078D01*
X90649721Y-87159198D01*
X90632111Y-87126253D01*
X90621266Y-87090501D01*
X90617000Y-87047184D01*
X90617000Y-85291816D01*
X90621266Y-85248499D01*
X90632111Y-85212747D01*
X90649721Y-85179802D01*
X90673422Y-85150922D01*
X90702302Y-85127221D01*
X90735247Y-85109611D01*
X90770999Y-85098766D01*
X90814316Y-85094500D01*
X92319684Y-85094500D01*
X92363001Y-85098766D01*
X92363001Y-85098766D01*
G37*
G36*
X106015501Y-85098766D02*
X106051253Y-85109611D01*
X106084198Y-85127221D01*
X106113078Y-85150922D01*
X106136779Y-85179802D01*
X106154389Y-85212747D01*
X106165234Y-85248499D01*
X106169500Y-85291816D01*
X106169500Y-87047184D01*
X106165234Y-87090501D01*
X106154389Y-87126253D01*
X106136779Y-87159198D01*
X106113078Y-87188078D01*
X106084198Y-87211779D01*
X106051253Y-87229389D01*
X106015501Y-87240234D01*
X105972184Y-87244500D01*
X104466816Y-87244500D01*
X104423499Y-87240234D01*
X104387747Y-87229389D01*
X104354802Y-87211779D01*
X104325922Y-87188078D01*
X104302221Y-87159198D01*
X104284611Y-87126253D01*
X104273766Y-87090501D01*
X104269500Y-87047184D01*
X104269500Y-85291816D01*
X104273766Y-85248499D01*
X104284611Y-85212747D01*
X104302221Y-85179802D01*
X104325922Y-85150922D01*
X104354802Y-85127221D01*
X104387747Y-85109611D01*
X104423499Y-85098766D01*
X104466816Y-85094500D01*
X105972184Y-85094500D01*
X106015501Y-85098766D01*
X106015501Y-85098766D01*
G37*
G36*
X141086448Y-83892873D02*
X141156232Y-83899746D01*
X141245770Y-83926907D01*
X141335309Y-83954068D01*
X141500347Y-84042283D01*
X141645001Y-84160999D01*
X141763717Y-84305653D01*
X141851932Y-84470691D01*
X141851932Y-84470692D01*
X141906254Y-84649768D01*
X141924596Y-84836000D01*
X141909232Y-84992000D01*
X141906254Y-85022231D01*
X141851932Y-85201309D01*
X141763717Y-85366347D01*
X141645001Y-85511001D01*
X141500347Y-85629717D01*
X141335309Y-85717932D01*
X141245770Y-85745093D01*
X141156232Y-85772254D01*
X141016666Y-85786000D01*
X140923334Y-85786000D01*
X140783768Y-85772254D01*
X140694230Y-85745093D01*
X140604691Y-85717932D01*
X140439653Y-85629717D01*
X140294999Y-85511001D01*
X140176283Y-85366347D01*
X140088068Y-85201309D01*
X140033746Y-85022231D01*
X140030769Y-84992000D01*
X140015404Y-84836000D01*
X140033746Y-84649768D01*
X140088068Y-84470692D01*
X140088068Y-84470691D01*
X140176283Y-84305653D01*
X140294999Y-84160999D01*
X140439653Y-84042283D01*
X140604691Y-83954068D01*
X140694230Y-83926907D01*
X140783768Y-83899746D01*
X140853552Y-83892873D01*
X140923334Y-83886000D01*
X141016666Y-83886000D01*
X141086448Y-83892873D01*
X141086448Y-83892873D01*
G37*
G36*
X116364001Y-83826766D02*
X116399753Y-83837611D01*
X116432698Y-83855221D01*
X116461578Y-83878922D01*
X116485279Y-83907802D01*
X116502889Y-83940747D01*
X116513734Y-83976499D01*
X116518000Y-84019816D01*
X116518000Y-85525184D01*
X116513734Y-85568501D01*
X116502889Y-85604253D01*
X116485279Y-85637198D01*
X116461578Y-85666078D01*
X116432698Y-85689779D01*
X116399753Y-85707389D01*
X116364001Y-85718234D01*
X116320684Y-85722500D01*
X114565316Y-85722500D01*
X114521999Y-85718234D01*
X114486247Y-85707389D01*
X114453302Y-85689779D01*
X114424422Y-85666078D01*
X114400721Y-85637198D01*
X114383111Y-85604253D01*
X114372266Y-85568501D01*
X114368000Y-85525184D01*
X114368000Y-84019816D01*
X114372266Y-83976499D01*
X114383111Y-83940747D01*
X114400721Y-83907802D01*
X114424422Y-83878922D01*
X114453302Y-83855221D01*
X114486247Y-83837611D01*
X114521999Y-83826766D01*
X114565316Y-83822500D01*
X116320684Y-83822500D01*
X116364001Y-83826766D01*
X116364001Y-83826766D01*
G37*
G36*
X125368000Y-84992000D02*
X124568000Y-84992000D01*
X124568000Y-83067000D01*
X125368000Y-83067000D01*
X125368000Y-84992000D01*
X125368000Y-84992000D01*
G37*
G36*
X127908000Y-84992000D02*
X127108000Y-84992000D01*
X127108000Y-83067000D01*
X127908000Y-83067000D01*
X127908000Y-84992000D01*
X127908000Y-84992000D01*
G37*
G36*
X129178000Y-84992000D02*
X128378000Y-84992000D01*
X128378000Y-83067000D01*
X129178000Y-83067000D01*
X129178000Y-84992000D01*
X129178000Y-84992000D01*
G37*
G36*
X130448000Y-84992000D02*
X129648000Y-84992000D01*
X129648000Y-83067000D01*
X130448000Y-83067000D01*
X130448000Y-84992000D01*
X130448000Y-84992000D01*
G37*
G36*
X132988000Y-84992000D02*
X132188000Y-84992000D01*
X132188000Y-83067000D01*
X132988000Y-83067000D01*
X132988000Y-84992000D01*
X132988000Y-84992000D01*
G37*
G36*
X124098000Y-84992000D02*
X123298000Y-84992000D01*
X123298000Y-83067000D01*
X124098000Y-83067000D01*
X124098000Y-84992000D01*
X124098000Y-84992000D01*
G37*
G36*
X126638000Y-84992000D02*
X125838000Y-84992000D01*
X125838000Y-83067000D01*
X126638000Y-83067000D01*
X126638000Y-84992000D01*
X126638000Y-84992000D01*
G37*
G36*
X122828000Y-84992000D02*
X122028000Y-84992000D01*
X122028000Y-83067000D01*
X122828000Y-83067000D01*
X122828000Y-84992000D01*
X122828000Y-84992000D01*
G37*
G36*
X131718000Y-84992000D02*
X130918000Y-84992000D01*
X130918000Y-83067000D01*
X131718000Y-83067000D01*
X131718000Y-84992000D01*
X131718000Y-84992000D01*
G37*
G36*
X141086448Y-81352873D02*
X141156232Y-81359746D01*
X141245770Y-81386907D01*
X141335309Y-81414068D01*
X141500347Y-81502283D01*
X141645001Y-81620999D01*
X141763717Y-81765653D01*
X141851932Y-81930691D01*
X141906254Y-82109769D01*
X141924596Y-82296000D01*
X141906254Y-82482231D01*
X141851932Y-82661309D01*
X141763717Y-82826347D01*
X141645001Y-82971001D01*
X141500347Y-83089717D01*
X141335309Y-83177932D01*
X141245770Y-83205093D01*
X141156232Y-83232254D01*
X141016666Y-83246000D01*
X140923334Y-83246000D01*
X140783768Y-83232254D01*
X140694230Y-83205093D01*
X140604691Y-83177932D01*
X140439653Y-83089717D01*
X140294999Y-82971001D01*
X140176283Y-82826347D01*
X140088068Y-82661309D01*
X140033746Y-82482231D01*
X140015404Y-82296000D01*
X140033746Y-82109769D01*
X140088068Y-81930691D01*
X140176283Y-81765653D01*
X140294999Y-81620999D01*
X140439653Y-81502283D01*
X140604691Y-81414068D01*
X140694230Y-81386907D01*
X140783768Y-81359746D01*
X140853552Y-81352873D01*
X140923334Y-81346000D01*
X141016666Y-81346000D01*
X141086448Y-81352873D01*
X141086448Y-81352873D01*
G37*
G36*
X141054923Y-78809768D02*
X141156232Y-78819746D01*
X141245770Y-78846907D01*
X141335309Y-78874068D01*
X141500347Y-78962283D01*
X141645001Y-79080999D01*
X141763717Y-79225653D01*
X141851932Y-79390691D01*
X141864533Y-79432231D01*
X141906254Y-79569768D01*
X141924596Y-79756000D01*
X141906254Y-79942232D01*
X141881597Y-80023514D01*
X141851932Y-80121309D01*
X141763717Y-80286347D01*
X141645001Y-80431001D01*
X141500347Y-80549717D01*
X141335309Y-80637932D01*
X141245770Y-80665093D01*
X141156232Y-80692254D01*
X141086448Y-80699127D01*
X141016666Y-80706000D01*
X140923334Y-80706000D01*
X140853552Y-80699127D01*
X140783768Y-80692254D01*
X140694230Y-80665093D01*
X140604691Y-80637932D01*
X140439653Y-80549717D01*
X140294999Y-80431001D01*
X140176283Y-80286347D01*
X140088068Y-80121309D01*
X140058403Y-80023514D01*
X140033746Y-79942232D01*
X140015404Y-79756000D01*
X140033746Y-79569768D01*
X140075467Y-79432231D01*
X140088068Y-79390691D01*
X140176283Y-79225653D01*
X140294999Y-79080999D01*
X140439653Y-78962283D01*
X140604691Y-78874068D01*
X140694230Y-78846907D01*
X140783768Y-78819746D01*
X140885077Y-78809768D01*
X140923334Y-78806000D01*
X141016666Y-78806000D01*
X141054923Y-78809768D01*
X141054923Y-78809768D01*
G37*
G36*
X84253232Y-78059746D02*
X84315784Y-78078721D01*
X84432309Y-78114068D01*
X84597347Y-78202283D01*
X84742001Y-78320999D01*
X84860717Y-78465653D01*
X84860718Y-78465655D01*
X84948932Y-78630692D01*
X85003254Y-78809768D01*
X85003254Y-78809770D01*
X85017000Y-78949335D01*
X85017000Y-79292666D01*
X85003254Y-79432231D01*
X84948932Y-79611309D01*
X84860717Y-79776347D01*
X84742001Y-79921001D01*
X84597347Y-80039717D01*
X84432308Y-80127932D01*
X84342769Y-80155093D01*
X84253231Y-80182254D01*
X84067000Y-80200596D01*
X83880768Y-80182254D01*
X83791230Y-80155093D01*
X83701691Y-80127932D01*
X83536653Y-80039717D01*
X83391999Y-79921001D01*
X83273283Y-79776347D01*
X83185068Y-79611308D01*
X83157907Y-79521769D01*
X83130746Y-79432231D01*
X83117000Y-79292664D01*
X83117000Y-78949335D01*
X83130746Y-78809768D01*
X83185068Y-78630692D01*
X83185068Y-78630691D01*
X83273282Y-78465655D01*
X83391999Y-78320999D01*
X83516911Y-78218486D01*
X83536654Y-78202283D01*
X83701692Y-78114068D01*
X83818217Y-78078721D01*
X83880769Y-78059746D01*
X84067000Y-78041404D01*
X84253232Y-78059746D01*
X84253232Y-78059746D01*
G37*
G36*
X89253232Y-78059746D02*
X89315784Y-78078721D01*
X89432309Y-78114068D01*
X89597347Y-78202283D01*
X89742001Y-78320999D01*
X89860717Y-78465653D01*
X89860718Y-78465655D01*
X89948932Y-78630692D01*
X90003254Y-78809768D01*
X90003254Y-78809770D01*
X90017000Y-78949335D01*
X90017000Y-79292666D01*
X90003254Y-79432231D01*
X89948932Y-79611309D01*
X89860717Y-79776347D01*
X89742001Y-79921001D01*
X89597347Y-80039717D01*
X89432308Y-80127932D01*
X89342769Y-80155093D01*
X89253231Y-80182254D01*
X89067000Y-80200596D01*
X88880768Y-80182254D01*
X88791230Y-80155093D01*
X88701691Y-80127932D01*
X88536653Y-80039717D01*
X88391999Y-79921001D01*
X88273283Y-79776347D01*
X88185068Y-79611308D01*
X88157907Y-79521769D01*
X88130746Y-79432231D01*
X88117000Y-79292664D01*
X88117000Y-78949335D01*
X88130746Y-78809768D01*
X88185068Y-78630692D01*
X88185068Y-78630691D01*
X88273282Y-78465655D01*
X88391999Y-78320999D01*
X88516911Y-78218486D01*
X88536654Y-78202283D01*
X88701692Y-78114068D01*
X88818217Y-78078721D01*
X88880769Y-78059746D01*
X89067000Y-78041404D01*
X89253232Y-78059746D01*
X89253232Y-78059746D01*
G37*
G36*
X86753232Y-78059746D02*
X86815784Y-78078721D01*
X86932309Y-78114068D01*
X87097347Y-78202283D01*
X87242001Y-78320999D01*
X87360717Y-78465653D01*
X87360718Y-78465655D01*
X87448932Y-78630692D01*
X87503254Y-78809768D01*
X87503254Y-78809770D01*
X87517000Y-78949335D01*
X87517000Y-79292666D01*
X87503254Y-79432231D01*
X87448932Y-79611309D01*
X87360717Y-79776347D01*
X87242001Y-79921001D01*
X87097347Y-80039717D01*
X86932308Y-80127932D01*
X86842769Y-80155093D01*
X86753231Y-80182254D01*
X86567000Y-80200596D01*
X86380768Y-80182254D01*
X86291230Y-80155093D01*
X86201691Y-80127932D01*
X86036653Y-80039717D01*
X85891999Y-79921001D01*
X85773283Y-79776347D01*
X85685068Y-79611308D01*
X85657907Y-79521769D01*
X85630746Y-79432231D01*
X85617000Y-79292664D01*
X85617000Y-78949335D01*
X85630746Y-78809768D01*
X85685068Y-78630692D01*
X85685068Y-78630691D01*
X85773282Y-78465655D01*
X85891999Y-78320999D01*
X86016911Y-78218486D01*
X86036654Y-78202283D01*
X86201692Y-78114068D01*
X86318217Y-78078721D01*
X86380769Y-78059746D01*
X86567000Y-78041404D01*
X86753232Y-78059746D01*
X86753232Y-78059746D01*
G37*
G36*
X100405732Y-78059746D02*
X100468284Y-78078721D01*
X100584809Y-78114068D01*
X100749847Y-78202283D01*
X100894501Y-78320999D01*
X101013217Y-78465653D01*
X101013218Y-78465655D01*
X101101432Y-78630692D01*
X101155754Y-78809768D01*
X101155754Y-78809770D01*
X101169500Y-78949335D01*
X101169500Y-79292666D01*
X101155754Y-79432231D01*
X101101432Y-79611309D01*
X101013217Y-79776347D01*
X100894501Y-79921001D01*
X100749847Y-80039717D01*
X100584808Y-80127932D01*
X100495269Y-80155093D01*
X100405731Y-80182254D01*
X100219500Y-80200596D01*
X100033268Y-80182254D01*
X99943730Y-80155093D01*
X99854191Y-80127932D01*
X99689153Y-80039717D01*
X99544499Y-79921001D01*
X99425783Y-79776347D01*
X99337568Y-79611308D01*
X99310407Y-79521769D01*
X99283246Y-79432231D01*
X99269500Y-79292664D01*
X99269500Y-78949335D01*
X99283246Y-78809768D01*
X99337568Y-78630692D01*
X99337568Y-78630691D01*
X99425782Y-78465655D01*
X99544499Y-78320999D01*
X99669411Y-78218486D01*
X99689154Y-78202283D01*
X99854192Y-78114068D01*
X99970717Y-78078721D01*
X100033269Y-78059746D01*
X100219500Y-78041404D01*
X100405732Y-78059746D01*
X100405732Y-78059746D01*
G37*
G36*
X102905732Y-78059746D02*
X102968284Y-78078721D01*
X103084809Y-78114068D01*
X103249847Y-78202283D01*
X103394501Y-78320999D01*
X103513217Y-78465653D01*
X103513218Y-78465655D01*
X103601432Y-78630692D01*
X103655754Y-78809768D01*
X103655754Y-78809770D01*
X103669500Y-78949335D01*
X103669500Y-79292666D01*
X103655754Y-79432231D01*
X103601432Y-79611309D01*
X103513217Y-79776347D01*
X103394501Y-79921001D01*
X103249847Y-80039717D01*
X103084808Y-80127932D01*
X102995269Y-80155093D01*
X102905731Y-80182254D01*
X102719500Y-80200596D01*
X102533268Y-80182254D01*
X102443730Y-80155093D01*
X102354191Y-80127932D01*
X102189153Y-80039717D01*
X102044499Y-79921001D01*
X101925783Y-79776347D01*
X101837568Y-79611308D01*
X101810407Y-79521769D01*
X101783246Y-79432231D01*
X101769500Y-79292664D01*
X101769500Y-78949335D01*
X101783246Y-78809768D01*
X101837568Y-78630692D01*
X101837568Y-78630691D01*
X101925782Y-78465655D01*
X102044499Y-78320999D01*
X102169411Y-78218486D01*
X102189154Y-78202283D01*
X102354192Y-78114068D01*
X102470717Y-78078721D01*
X102533269Y-78059746D01*
X102719500Y-78041404D01*
X102905732Y-78059746D01*
X102905732Y-78059746D01*
G37*
G36*
X92363001Y-78050266D02*
X92398753Y-78061111D01*
X92431698Y-78078721D01*
X92460578Y-78102422D01*
X92484279Y-78131302D01*
X92501889Y-78164247D01*
X92512734Y-78199999D01*
X92517000Y-78243316D01*
X92517000Y-79998684D01*
X92512734Y-80042001D01*
X92501889Y-80077753D01*
X92484279Y-80110698D01*
X92460578Y-80139578D01*
X92431698Y-80163279D01*
X92398753Y-80180889D01*
X92363001Y-80191734D01*
X92319684Y-80196000D01*
X90814316Y-80196000D01*
X90770999Y-80191734D01*
X90735247Y-80180889D01*
X90702302Y-80163279D01*
X90673422Y-80139578D01*
X90649721Y-80110698D01*
X90632111Y-80077753D01*
X90621266Y-80042001D01*
X90617000Y-79998684D01*
X90617000Y-78243316D01*
X90621266Y-78199999D01*
X90632111Y-78164247D01*
X90649721Y-78131302D01*
X90673422Y-78102422D01*
X90702302Y-78078721D01*
X90735247Y-78061111D01*
X90770999Y-78050266D01*
X90814316Y-78046000D01*
X92319684Y-78046000D01*
X92363001Y-78050266D01*
X92363001Y-78050266D01*
G37*
G36*
X106015501Y-78050266D02*
X106051253Y-78061111D01*
X106084198Y-78078721D01*
X106113078Y-78102422D01*
X106136779Y-78131302D01*
X106154389Y-78164247D01*
X106165234Y-78199999D01*
X106169500Y-78243316D01*
X106169500Y-79998684D01*
X106165234Y-80042001D01*
X106154389Y-80077753D01*
X106136779Y-80110698D01*
X106113078Y-80139578D01*
X106084198Y-80163279D01*
X106051253Y-80180889D01*
X106015501Y-80191734D01*
X105972184Y-80196000D01*
X104466816Y-80196000D01*
X104423499Y-80191734D01*
X104387747Y-80180889D01*
X104354802Y-80163279D01*
X104325922Y-80139578D01*
X104302221Y-80110698D01*
X104284611Y-80077753D01*
X104273766Y-80042001D01*
X104269500Y-79998684D01*
X104269500Y-78243316D01*
X104273766Y-78199999D01*
X104284611Y-78164247D01*
X104302221Y-78131302D01*
X104325922Y-78102422D01*
X104354802Y-78078721D01*
X104387747Y-78061111D01*
X104423499Y-78050266D01*
X104466816Y-78046000D01*
X105972184Y-78046000D01*
X106015501Y-78050266D01*
X106015501Y-78050266D01*
G37*
G36*
X141086448Y-76272873D02*
X141156232Y-76279746D01*
X141245770Y-76306907D01*
X141335309Y-76334068D01*
X141500347Y-76422283D01*
X141645001Y-76540999D01*
X141763717Y-76685653D01*
X141851932Y-76850691D01*
X141906254Y-77029769D01*
X141924596Y-77216000D01*
X141906254Y-77402231D01*
X141851932Y-77581309D01*
X141763717Y-77746347D01*
X141645001Y-77891001D01*
X141500347Y-78009717D01*
X141335309Y-78097932D01*
X141282115Y-78114068D01*
X141156232Y-78152254D01*
X141086448Y-78159127D01*
X141016666Y-78166000D01*
X140923334Y-78166000D01*
X140853552Y-78159127D01*
X140783768Y-78152254D01*
X140657885Y-78114068D01*
X140604691Y-78097932D01*
X140439653Y-78009717D01*
X140294999Y-77891001D01*
X140176283Y-77746347D01*
X140088068Y-77581309D01*
X140033746Y-77402231D01*
X140015404Y-77216000D01*
X140033746Y-77029769D01*
X140088068Y-76850691D01*
X140176283Y-76685653D01*
X140294999Y-76540999D01*
X140439653Y-76422283D01*
X140604691Y-76334068D01*
X140694230Y-76306907D01*
X140783768Y-76279746D01*
X140853552Y-76272873D01*
X140923334Y-76266000D01*
X141016666Y-76266000D01*
X141086448Y-76272873D01*
X141086448Y-76272873D01*
G37*
G36*
X126999279Y-76645916D02*
X127041370Y-76658685D01*
X127080166Y-76679422D01*
X127114171Y-76707329D01*
X127142078Y-76741334D01*
X127162815Y-76780130D01*
X127175584Y-76822221D01*
X127180500Y-76872140D01*
X127180500Y-77559860D01*
X127175584Y-77609779D01*
X127162815Y-77651870D01*
X127142078Y-77690666D01*
X127114171Y-77724671D01*
X127080166Y-77752578D01*
X127041370Y-77773315D01*
X126999279Y-77786084D01*
X126949360Y-77791000D01*
X126161640Y-77791000D01*
X126111721Y-77786084D01*
X126069630Y-77773315D01*
X126030834Y-77752578D01*
X125996829Y-77724671D01*
X125968922Y-77690666D01*
X125948185Y-77651870D01*
X125935416Y-77609779D01*
X125930500Y-77559860D01*
X125930500Y-76872140D01*
X125935416Y-76822221D01*
X125948185Y-76780130D01*
X125968922Y-76741334D01*
X125996829Y-76707329D01*
X126030834Y-76679422D01*
X126069630Y-76658685D01*
X126111721Y-76645916D01*
X126161640Y-76641000D01*
X126949360Y-76641000D01*
X126999279Y-76645916D01*
X126999279Y-76645916D01*
G37*
G36*
X125249279Y-76645916D02*
X125291370Y-76658685D01*
X125330166Y-76679422D01*
X125364171Y-76707329D01*
X125392078Y-76741334D01*
X125412815Y-76780130D01*
X125425584Y-76822221D01*
X125430500Y-76872140D01*
X125430500Y-77559860D01*
X125425584Y-77609779D01*
X125412815Y-77651870D01*
X125392078Y-77690666D01*
X125364171Y-77724671D01*
X125330166Y-77752578D01*
X125291370Y-77773315D01*
X125249279Y-77786084D01*
X125199360Y-77791000D01*
X124411640Y-77791000D01*
X124361721Y-77786084D01*
X124319630Y-77773315D01*
X124280834Y-77752578D01*
X124246829Y-77724671D01*
X124218922Y-77690666D01*
X124198185Y-77651870D01*
X124185416Y-77609779D01*
X124180500Y-77559860D01*
X124180500Y-76872140D01*
X124185416Y-76822221D01*
X124198185Y-76780130D01*
X124218922Y-76741334D01*
X124246829Y-76707329D01*
X124280834Y-76679422D01*
X124319630Y-76658685D01*
X124361721Y-76645916D01*
X124411640Y-76641000D01*
X125199360Y-76641000D01*
X125249279Y-76645916D01*
X125249279Y-76645916D01*
G37*
G36*
X123841500Y-75647500D02*
X122091500Y-75647500D01*
X122091500Y-74847500D01*
X123841500Y-74847500D01*
X123841500Y-75647500D01*
X123841500Y-75647500D01*
G37*
G36*
X129241500Y-75647500D02*
X127491500Y-75647500D01*
X127491500Y-74847500D01*
X129241500Y-74847500D01*
X129241500Y-75647500D01*
X129241500Y-75647500D01*
G37*
G36*
X141086448Y-73732873D02*
X141156232Y-73739746D01*
X141245770Y-73766907D01*
X141335309Y-73794068D01*
X141500347Y-73882283D01*
X141645001Y-74000999D01*
X141763717Y-74145653D01*
X141851932Y-74310691D01*
X141851932Y-74310692D01*
X141906254Y-74489768D01*
X141924596Y-74676000D01*
X141906254Y-74862232D01*
X141885493Y-74930671D01*
X141851932Y-75041309D01*
X141763717Y-75206347D01*
X141645001Y-75351001D01*
X141500347Y-75469717D01*
X141335309Y-75557932D01*
X141245770Y-75585093D01*
X141156232Y-75612254D01*
X141086448Y-75619127D01*
X141016666Y-75626000D01*
X140923334Y-75626000D01*
X140853552Y-75619127D01*
X140783768Y-75612254D01*
X140694230Y-75585093D01*
X140604691Y-75557932D01*
X140439653Y-75469717D01*
X140294999Y-75351001D01*
X140176283Y-75206347D01*
X140088068Y-75041309D01*
X140054507Y-74930671D01*
X140033746Y-74862232D01*
X140015404Y-74676000D01*
X140033746Y-74489768D01*
X140088068Y-74310692D01*
X140088068Y-74310691D01*
X140176283Y-74145653D01*
X140294999Y-74000999D01*
X140439653Y-73882283D01*
X140604691Y-73794068D01*
X140694230Y-73766907D01*
X140783768Y-73739746D01*
X140853552Y-73732873D01*
X140923334Y-73726000D01*
X141016666Y-73726000D01*
X141086448Y-73732873D01*
X141086448Y-73732873D01*
G37*
G36*
X119188779Y-73851916D02*
X119230870Y-73864685D01*
X119269666Y-73885422D01*
X119303671Y-73913329D01*
X119331578Y-73947334D01*
X119352315Y-73986130D01*
X119365084Y-74028221D01*
X119370000Y-74078140D01*
X119370000Y-74765860D01*
X119365084Y-74815779D01*
X119352315Y-74857870D01*
X119331578Y-74896666D01*
X119303671Y-74930671D01*
X119269666Y-74958578D01*
X119230870Y-74979315D01*
X119188779Y-74992084D01*
X119138860Y-74997000D01*
X118351140Y-74997000D01*
X118301221Y-74992084D01*
X118259130Y-74979315D01*
X118220334Y-74958578D01*
X118186329Y-74930671D01*
X118158422Y-74896666D01*
X118137685Y-74857870D01*
X118124916Y-74815779D01*
X118120000Y-74765860D01*
X118120000Y-74078140D01*
X118124916Y-74028221D01*
X118137685Y-73986130D01*
X118158422Y-73947334D01*
X118186329Y-73913329D01*
X118220334Y-73885422D01*
X118259130Y-73864685D01*
X118301221Y-73851916D01*
X118351140Y-73847000D01*
X119138860Y-73847000D01*
X119188779Y-73851916D01*
X119188779Y-73851916D01*
G37*
G36*
X120938779Y-73851916D02*
X120980870Y-73864685D01*
X121019666Y-73885422D01*
X121053671Y-73913329D01*
X121081578Y-73947334D01*
X121102315Y-73986130D01*
X121115084Y-74028221D01*
X121120000Y-74078140D01*
X121120000Y-74765860D01*
X121115084Y-74815779D01*
X121102315Y-74857870D01*
X121081578Y-74896666D01*
X121053671Y-74930671D01*
X121019666Y-74958578D01*
X120980870Y-74979315D01*
X120938779Y-74992084D01*
X120888860Y-74997000D01*
X120101140Y-74997000D01*
X120051221Y-74992084D01*
X120009130Y-74979315D01*
X119970334Y-74958578D01*
X119936329Y-74930671D01*
X119908422Y-74896666D01*
X119887685Y-74857870D01*
X119874916Y-74815779D01*
X119870000Y-74765860D01*
X119870000Y-74078140D01*
X119874916Y-74028221D01*
X119887685Y-73986130D01*
X119908422Y-73947334D01*
X119936329Y-73913329D01*
X119970334Y-73885422D01*
X120009130Y-73864685D01*
X120051221Y-73851916D01*
X120101140Y-73847000D01*
X120888860Y-73847000D01*
X120938779Y-73851916D01*
X120938779Y-73851916D01*
G37*
G36*
X129241500Y-74377500D02*
X127491500Y-74377500D01*
X127491500Y-73577500D01*
X129241500Y-73577500D01*
X129241500Y-74377500D01*
X129241500Y-74377500D01*
G37*
G36*
X123841500Y-74377500D02*
X122091500Y-74377500D01*
X122091500Y-73577500D01*
X123841500Y-73577500D01*
X123841500Y-74377500D01*
X123841500Y-74377500D01*
G37*
G36*
X120952779Y-72200916D02*
X120994870Y-72213685D01*
X121033666Y-72234422D01*
X121067671Y-72262329D01*
X121095578Y-72296334D01*
X121116315Y-72335130D01*
X121129084Y-72377221D01*
X121134000Y-72427140D01*
X121134000Y-73114860D01*
X121129084Y-73164779D01*
X121116315Y-73206870D01*
X121095578Y-73245666D01*
X121067671Y-73279671D01*
X121033666Y-73307578D01*
X120994870Y-73328315D01*
X120952779Y-73341084D01*
X120902860Y-73346000D01*
X120115140Y-73346000D01*
X120065221Y-73341084D01*
X120023130Y-73328315D01*
X119984334Y-73307578D01*
X119950329Y-73279671D01*
X119922422Y-73245666D01*
X119901685Y-73206870D01*
X119888916Y-73164779D01*
X119884000Y-73114860D01*
X119884000Y-72427140D01*
X119888916Y-72377221D01*
X119901685Y-72335130D01*
X119922422Y-72296334D01*
X119950329Y-72262329D01*
X119984334Y-72234422D01*
X120023130Y-72213685D01*
X120065221Y-72200916D01*
X120115140Y-72196000D01*
X120902860Y-72196000D01*
X120952779Y-72200916D01*
X120952779Y-72200916D01*
G37*
G36*
X119202779Y-72200916D02*
X119244870Y-72213685D01*
X119283666Y-72234422D01*
X119317671Y-72262329D01*
X119345578Y-72296334D01*
X119366315Y-72335130D01*
X119379084Y-72377221D01*
X119384000Y-72427140D01*
X119384000Y-73114860D01*
X119379084Y-73164779D01*
X119366315Y-73206870D01*
X119345578Y-73245666D01*
X119317671Y-73279671D01*
X119283666Y-73307578D01*
X119244870Y-73328315D01*
X119202779Y-73341084D01*
X119152860Y-73346000D01*
X118365140Y-73346000D01*
X118315221Y-73341084D01*
X118273130Y-73328315D01*
X118234334Y-73307578D01*
X118200329Y-73279671D01*
X118172422Y-73245666D01*
X118151685Y-73206870D01*
X118138916Y-73164779D01*
X118134000Y-73114860D01*
X118134000Y-72427140D01*
X118138916Y-72377221D01*
X118151685Y-72335130D01*
X118172422Y-72296334D01*
X118200329Y-72262329D01*
X118234334Y-72234422D01*
X118273130Y-72213685D01*
X118315221Y-72200916D01*
X118365140Y-72196000D01*
X119152860Y-72196000D01*
X119202779Y-72200916D01*
X119202779Y-72200916D01*
G37*
G36*
X129241500Y-73107500D02*
X127491500Y-73107500D01*
X127491500Y-72307500D01*
X129241500Y-72307500D01*
X129241500Y-73107500D01*
X129241500Y-73107500D01*
G37*
G36*
X123841500Y-73107500D02*
X122091500Y-73107500D01*
X122091500Y-72307500D01*
X123841500Y-72307500D01*
X123841500Y-73107500D01*
X123841500Y-73107500D01*
G37*
G36*
X141156232Y-71199746D02*
X141245770Y-71226907D01*
X141335309Y-71254068D01*
X141500347Y-71342283D01*
X141645001Y-71460999D01*
X141763717Y-71605653D01*
X141851932Y-71770691D01*
X141851932Y-71770692D01*
X141906254Y-71949768D01*
X141924596Y-72136000D01*
X141913915Y-72244452D01*
X141906254Y-72322231D01*
X141851932Y-72501309D01*
X141763717Y-72666347D01*
X141645001Y-72811001D01*
X141500347Y-72929717D01*
X141335309Y-73017932D01*
X141245770Y-73045093D01*
X141156232Y-73072254D01*
X141086448Y-73079127D01*
X141016666Y-73086000D01*
X140923334Y-73086000D01*
X140853552Y-73079127D01*
X140783768Y-73072254D01*
X140694230Y-73045093D01*
X140604691Y-73017932D01*
X140439653Y-72929717D01*
X140294999Y-72811001D01*
X140176283Y-72666347D01*
X140088068Y-72501309D01*
X140033746Y-72322231D01*
X140026086Y-72244452D01*
X140015404Y-72136000D01*
X140033746Y-71949768D01*
X140088068Y-71770692D01*
X140088068Y-71770691D01*
X140176283Y-71605653D01*
X140294999Y-71460999D01*
X140439653Y-71342283D01*
X140604691Y-71254068D01*
X140694230Y-71226907D01*
X140783768Y-71199746D01*
X140923334Y-71186000D01*
X141016666Y-71186000D01*
X141156232Y-71199746D01*
X141156232Y-71199746D01*
G37*
G36*
X95898279Y-71819916D02*
X95940370Y-71832685D01*
X95979166Y-71853422D01*
X96013171Y-71881329D01*
X96041078Y-71915334D01*
X96061815Y-71954130D01*
X96074584Y-71996221D01*
X96079500Y-72046140D01*
X96079500Y-72733860D01*
X96074584Y-72783779D01*
X96061815Y-72825870D01*
X96041078Y-72864666D01*
X96013171Y-72898671D01*
X95979166Y-72926578D01*
X95940370Y-72947315D01*
X95898279Y-72960084D01*
X95848360Y-72965000D01*
X95060640Y-72965000D01*
X95010721Y-72960084D01*
X94968630Y-72947315D01*
X94929834Y-72926578D01*
X94895829Y-72898671D01*
X94867922Y-72864666D01*
X94847185Y-72825870D01*
X94834416Y-72783779D01*
X94829500Y-72733860D01*
X94829500Y-72046140D01*
X94834416Y-71996221D01*
X94847185Y-71954130D01*
X94867922Y-71915334D01*
X94895829Y-71881329D01*
X94929834Y-71853422D01*
X94968630Y-71832685D01*
X95010721Y-71819916D01*
X95060640Y-71815000D01*
X95848360Y-71815000D01*
X95898279Y-71819916D01*
X95898279Y-71819916D01*
G37*
G36*
X97648279Y-71819916D02*
X97690370Y-71832685D01*
X97729166Y-71853422D01*
X97763171Y-71881329D01*
X97791078Y-71915334D01*
X97811815Y-71954130D01*
X97824584Y-71996221D01*
X97829500Y-72046140D01*
X97829500Y-72733860D01*
X97824584Y-72783779D01*
X97811815Y-72825870D01*
X97791078Y-72864666D01*
X97763171Y-72898671D01*
X97729166Y-72926578D01*
X97690370Y-72947315D01*
X97648279Y-72960084D01*
X97598360Y-72965000D01*
X96810640Y-72965000D01*
X96760721Y-72960084D01*
X96718630Y-72947315D01*
X96679834Y-72926578D01*
X96645829Y-72898671D01*
X96617922Y-72864666D01*
X96597185Y-72825870D01*
X96584416Y-72783779D01*
X96579500Y-72733860D01*
X96579500Y-72046140D01*
X96584416Y-71996221D01*
X96597185Y-71954130D01*
X96617922Y-71915334D01*
X96645829Y-71881329D01*
X96679834Y-71853422D01*
X96718630Y-71832685D01*
X96760721Y-71819916D01*
X96810640Y-71815000D01*
X97598360Y-71815000D01*
X97648279Y-71819916D01*
X97648279Y-71819916D01*
G37*
G36*
X129241500Y-71837500D02*
X127491500Y-71837500D01*
X127491500Y-71037500D01*
X129241500Y-71037500D01*
X129241500Y-71837500D01*
X129241500Y-71837500D01*
G37*
G36*
X123841500Y-71837500D02*
X122091500Y-71837500D01*
X122091500Y-71037500D01*
X123841500Y-71037500D01*
X123841500Y-71837500D01*
X123841500Y-71837500D01*
G37*
G36*
X119202779Y-70422916D02*
X119244870Y-70435685D01*
X119283666Y-70456422D01*
X119317671Y-70484329D01*
X119345578Y-70518334D01*
X119366315Y-70557130D01*
X119379084Y-70599221D01*
X119384000Y-70649140D01*
X119384000Y-71336860D01*
X119379084Y-71386779D01*
X119366315Y-71428870D01*
X119345578Y-71467666D01*
X119317671Y-71501671D01*
X119283666Y-71529578D01*
X119244870Y-71550315D01*
X119202779Y-71563084D01*
X119152860Y-71568000D01*
X118365140Y-71568000D01*
X118315221Y-71563084D01*
X118273130Y-71550315D01*
X118234334Y-71529578D01*
X118200329Y-71501671D01*
X118172422Y-71467666D01*
X118151685Y-71428870D01*
X118138916Y-71386779D01*
X118134000Y-71336860D01*
X118134000Y-70649140D01*
X118138916Y-70599221D01*
X118151685Y-70557130D01*
X118172422Y-70518334D01*
X118200329Y-70484329D01*
X118234334Y-70456422D01*
X118273130Y-70435685D01*
X118315221Y-70422916D01*
X118365140Y-70418000D01*
X119152860Y-70418000D01*
X119202779Y-70422916D01*
X119202779Y-70422916D01*
G37*
G36*
X120952779Y-70422916D02*
X120994870Y-70435685D01*
X121033666Y-70456422D01*
X121067671Y-70484329D01*
X121095578Y-70518334D01*
X121116315Y-70557130D01*
X121129084Y-70599221D01*
X121134000Y-70649140D01*
X121134000Y-71336860D01*
X121129084Y-71386779D01*
X121116315Y-71428870D01*
X121095578Y-71467666D01*
X121067671Y-71501671D01*
X121033666Y-71529578D01*
X120994870Y-71550315D01*
X120952779Y-71563084D01*
X120902860Y-71568000D01*
X120115140Y-71568000D01*
X120065221Y-71563084D01*
X120023130Y-71550315D01*
X119984334Y-71529578D01*
X119950329Y-71501671D01*
X119922422Y-71467666D01*
X119901685Y-71428870D01*
X119888916Y-71386779D01*
X119884000Y-71336860D01*
X119884000Y-70649140D01*
X119888916Y-70599221D01*
X119901685Y-70557130D01*
X119922422Y-70518334D01*
X119950329Y-70484329D01*
X119984334Y-70456422D01*
X120023130Y-70435685D01*
X120065221Y-70422916D01*
X120115140Y-70418000D01*
X120902860Y-70418000D01*
X120952779Y-70422916D01*
X120952779Y-70422916D01*
G37*
G36*
X141156232Y-68659746D02*
X141245770Y-68686907D01*
X141335309Y-68714068D01*
X141500347Y-68802283D01*
X141645001Y-68920999D01*
X141763717Y-69065653D01*
X141851932Y-69230691D01*
X141906254Y-69409769D01*
X141924596Y-69596000D01*
X141906254Y-69782231D01*
X141851932Y-69961309D01*
X141763717Y-70126347D01*
X141645001Y-70271001D01*
X141500347Y-70389717D01*
X141335309Y-70477932D01*
X141255284Y-70502207D01*
X141156232Y-70532254D01*
X141086448Y-70539127D01*
X141016666Y-70546000D01*
X140923334Y-70546000D01*
X140853552Y-70539127D01*
X140783768Y-70532254D01*
X140684716Y-70502207D01*
X140604691Y-70477932D01*
X140439653Y-70389717D01*
X140294999Y-70271001D01*
X140176283Y-70126347D01*
X140088068Y-69961309D01*
X140033746Y-69782231D01*
X140015404Y-69596000D01*
X140033746Y-69409769D01*
X140088068Y-69230691D01*
X140176283Y-69065653D01*
X140294999Y-68920999D01*
X140439653Y-68802283D01*
X140604691Y-68714068D01*
X140694230Y-68686907D01*
X140783768Y-68659746D01*
X140923334Y-68646000D01*
X141016666Y-68646000D01*
X141156232Y-68659746D01*
X141156232Y-68659746D01*
G37*
G36*
X104886232Y-64653746D02*
X104975770Y-64680907D01*
X105065309Y-64708068D01*
X105230347Y-64796283D01*
X105375001Y-64914999D01*
X105493717Y-65059653D01*
X105581932Y-65224691D01*
X105581932Y-65224692D01*
X105636254Y-65403768D01*
X105654596Y-65590000D01*
X105636254Y-65776232D01*
X105609093Y-65865770D01*
X105581932Y-65955309D01*
X105493717Y-66120347D01*
X105375001Y-66265001D01*
X105230347Y-66383717D01*
X105065309Y-66471932D01*
X104975770Y-66499093D01*
X104886232Y-66526254D01*
X104746666Y-66540000D01*
X104653334Y-66540000D01*
X104513768Y-66526254D01*
X104424230Y-66499093D01*
X104334691Y-66471932D01*
X104169653Y-66383717D01*
X104024999Y-66265001D01*
X103906283Y-66120347D01*
X103818068Y-65955309D01*
X103790907Y-65865770D01*
X103763746Y-65776232D01*
X103745404Y-65590000D01*
X103763746Y-65403768D01*
X103818068Y-65224692D01*
X103818068Y-65224691D01*
X103906283Y-65059653D01*
X104024999Y-64914999D01*
X104169653Y-64796283D01*
X104334691Y-64708068D01*
X104424230Y-64680907D01*
X104513768Y-64653746D01*
X104653334Y-64640000D01*
X104746666Y-64640000D01*
X104886232Y-64653746D01*
X104886232Y-64653746D01*
G37*
G36*
X130286232Y-64653746D02*
X130375770Y-64680907D01*
X130465309Y-64708068D01*
X130630347Y-64796283D01*
X130775001Y-64914999D01*
X130893717Y-65059653D01*
X130981932Y-65224691D01*
X130981932Y-65224692D01*
X131036254Y-65403768D01*
X131054596Y-65590000D01*
X131036254Y-65776232D01*
X131009093Y-65865770D01*
X130981932Y-65955309D01*
X130893717Y-66120347D01*
X130775001Y-66265001D01*
X130630347Y-66383717D01*
X130465309Y-66471932D01*
X130375770Y-66499093D01*
X130286232Y-66526254D01*
X130146666Y-66540000D01*
X130053334Y-66540000D01*
X129913768Y-66526254D01*
X129824230Y-66499093D01*
X129734691Y-66471932D01*
X129569653Y-66383717D01*
X129424999Y-66265001D01*
X129306283Y-66120347D01*
X129218068Y-65955309D01*
X129190907Y-65865770D01*
X129163746Y-65776232D01*
X129145404Y-65590000D01*
X129163746Y-65403768D01*
X129218068Y-65224692D01*
X129218068Y-65224691D01*
X129306283Y-65059653D01*
X129424999Y-64914999D01*
X129569653Y-64796283D01*
X129734691Y-64708068D01*
X129824230Y-64680907D01*
X129913768Y-64653746D01*
X130053334Y-64640000D01*
X130146666Y-64640000D01*
X130286232Y-64653746D01*
X130286232Y-64653746D01*
G37*
G36*
X135366232Y-64653746D02*
X135455770Y-64680907D01*
X135545309Y-64708068D01*
X135710347Y-64796283D01*
X135855001Y-64914999D01*
X135973717Y-65059653D01*
X136061932Y-65224691D01*
X136061932Y-65224692D01*
X136116254Y-65403768D01*
X136134596Y-65590000D01*
X136116254Y-65776232D01*
X136089093Y-65865770D01*
X136061932Y-65955309D01*
X135973717Y-66120347D01*
X135855001Y-66265001D01*
X135710347Y-66383717D01*
X135545309Y-66471932D01*
X135455770Y-66499093D01*
X135366232Y-66526254D01*
X135226666Y-66540000D01*
X135133334Y-66540000D01*
X134993768Y-66526254D01*
X134904230Y-66499093D01*
X134814691Y-66471932D01*
X134649653Y-66383717D01*
X134504999Y-66265001D01*
X134386283Y-66120347D01*
X134298068Y-65955309D01*
X134270907Y-65865770D01*
X134243746Y-65776232D01*
X134225404Y-65590000D01*
X134243746Y-65403768D01*
X134298068Y-65224692D01*
X134298068Y-65224691D01*
X134386283Y-65059653D01*
X134504999Y-64914999D01*
X134649653Y-64796283D01*
X134814691Y-64708068D01*
X134904230Y-64680907D01*
X134993768Y-64653746D01*
X135133334Y-64640000D01*
X135226666Y-64640000D01*
X135366232Y-64653746D01*
X135366232Y-64653746D01*
G37*
G36*
X132826232Y-64653746D02*
X132915770Y-64680907D01*
X133005309Y-64708068D01*
X133170347Y-64796283D01*
X133315001Y-64914999D01*
X133433717Y-65059653D01*
X133521932Y-65224691D01*
X133521932Y-65224692D01*
X133576254Y-65403768D01*
X133594596Y-65590000D01*
X133576254Y-65776232D01*
X133549093Y-65865770D01*
X133521932Y-65955309D01*
X133433717Y-66120347D01*
X133315001Y-66265001D01*
X133170347Y-66383717D01*
X133005309Y-66471932D01*
X132915770Y-66499093D01*
X132826232Y-66526254D01*
X132686666Y-66540000D01*
X132593334Y-66540000D01*
X132453768Y-66526254D01*
X132364230Y-66499093D01*
X132274691Y-66471932D01*
X132109653Y-66383717D01*
X131964999Y-66265001D01*
X131846283Y-66120347D01*
X131758068Y-65955309D01*
X131730907Y-65865770D01*
X131703746Y-65776232D01*
X131685404Y-65590000D01*
X131703746Y-65403768D01*
X131758068Y-65224692D01*
X131758068Y-65224691D01*
X131846283Y-65059653D01*
X131964999Y-64914999D01*
X132109653Y-64796283D01*
X132274691Y-64708068D01*
X132364230Y-64680907D01*
X132453768Y-64653746D01*
X132593334Y-64640000D01*
X132686666Y-64640000D01*
X132826232Y-64653746D01*
X132826232Y-64653746D01*
G37*
G36*
X115046232Y-64653746D02*
X115135770Y-64680907D01*
X115225309Y-64708068D01*
X115390347Y-64796283D01*
X115535001Y-64914999D01*
X115653717Y-65059653D01*
X115741932Y-65224691D01*
X115741932Y-65224692D01*
X115796254Y-65403768D01*
X115814596Y-65590000D01*
X115796254Y-65776232D01*
X115769093Y-65865770D01*
X115741932Y-65955309D01*
X115653717Y-66120347D01*
X115535001Y-66265001D01*
X115390347Y-66383717D01*
X115225309Y-66471932D01*
X115135770Y-66499093D01*
X115046232Y-66526254D01*
X114906666Y-66540000D01*
X114813334Y-66540000D01*
X114673768Y-66526254D01*
X114584230Y-66499093D01*
X114494691Y-66471932D01*
X114329653Y-66383717D01*
X114184999Y-66265001D01*
X114066283Y-66120347D01*
X113978068Y-65955309D01*
X113950907Y-65865770D01*
X113923746Y-65776232D01*
X113905404Y-65590000D01*
X113923746Y-65403768D01*
X113978068Y-65224692D01*
X113978068Y-65224691D01*
X114066283Y-65059653D01*
X114184999Y-64914999D01*
X114329653Y-64796283D01*
X114494691Y-64708068D01*
X114584230Y-64680907D01*
X114673768Y-64653746D01*
X114813334Y-64640000D01*
X114906666Y-64640000D01*
X115046232Y-64653746D01*
X115046232Y-64653746D01*
G37*
G36*
X112506232Y-64653746D02*
X112595770Y-64680907D01*
X112685309Y-64708068D01*
X112850347Y-64796283D01*
X112995001Y-64914999D01*
X113113717Y-65059653D01*
X113201932Y-65224691D01*
X113201932Y-65224692D01*
X113256254Y-65403768D01*
X113274596Y-65590000D01*
X113256254Y-65776232D01*
X113229093Y-65865770D01*
X113201932Y-65955309D01*
X113113717Y-66120347D01*
X112995001Y-66265001D01*
X112850347Y-66383717D01*
X112685309Y-66471932D01*
X112595770Y-66499093D01*
X112506232Y-66526254D01*
X112366666Y-66540000D01*
X112273334Y-66540000D01*
X112133768Y-66526254D01*
X112044230Y-66499093D01*
X111954691Y-66471932D01*
X111789653Y-66383717D01*
X111644999Y-66265001D01*
X111526283Y-66120347D01*
X111438068Y-65955309D01*
X111410907Y-65865770D01*
X111383746Y-65776232D01*
X111365404Y-65590000D01*
X111383746Y-65403768D01*
X111438068Y-65224692D01*
X111438068Y-65224691D01*
X111526283Y-65059653D01*
X111644999Y-64914999D01*
X111789653Y-64796283D01*
X111954691Y-64708068D01*
X112044230Y-64680907D01*
X112133768Y-64653746D01*
X112273334Y-64640000D01*
X112366666Y-64640000D01*
X112506232Y-64653746D01*
X112506232Y-64653746D01*
G37*
G36*
X109966232Y-64653746D02*
X110055770Y-64680907D01*
X110145309Y-64708068D01*
X110310347Y-64796283D01*
X110455001Y-64914999D01*
X110573717Y-65059653D01*
X110661932Y-65224691D01*
X110661932Y-65224692D01*
X110716254Y-65403768D01*
X110734596Y-65590000D01*
X110716254Y-65776232D01*
X110689093Y-65865770D01*
X110661932Y-65955309D01*
X110573717Y-66120347D01*
X110455001Y-66265001D01*
X110310347Y-66383717D01*
X110145309Y-66471932D01*
X110055770Y-66499093D01*
X109966232Y-66526254D01*
X109826666Y-66540000D01*
X109733334Y-66540000D01*
X109593768Y-66526254D01*
X109504230Y-66499093D01*
X109414691Y-66471932D01*
X109249653Y-66383717D01*
X109104999Y-66265001D01*
X108986283Y-66120347D01*
X108898068Y-65955309D01*
X108870907Y-65865770D01*
X108843746Y-65776232D01*
X108825404Y-65590000D01*
X108843746Y-65403768D01*
X108898068Y-65224692D01*
X108898068Y-65224691D01*
X108986283Y-65059653D01*
X109104999Y-64914999D01*
X109249653Y-64796283D01*
X109414691Y-64708068D01*
X109504230Y-64680907D01*
X109593768Y-64653746D01*
X109733334Y-64640000D01*
X109826666Y-64640000D01*
X109966232Y-64653746D01*
X109966232Y-64653746D01*
G37*
G36*
X107426232Y-64653746D02*
X107515770Y-64680907D01*
X107605309Y-64708068D01*
X107770347Y-64796283D01*
X107915001Y-64914999D01*
X108033717Y-65059653D01*
X108121932Y-65224691D01*
X108121932Y-65224692D01*
X108176254Y-65403768D01*
X108194596Y-65590000D01*
X108176254Y-65776232D01*
X108149093Y-65865770D01*
X108121932Y-65955309D01*
X108033717Y-66120347D01*
X107915001Y-66265001D01*
X107770347Y-66383717D01*
X107605309Y-66471932D01*
X107515770Y-66499093D01*
X107426232Y-66526254D01*
X107286666Y-66540000D01*
X107193334Y-66540000D01*
X107053768Y-66526254D01*
X106964230Y-66499093D01*
X106874691Y-66471932D01*
X106709653Y-66383717D01*
X106564999Y-66265001D01*
X106446283Y-66120347D01*
X106358068Y-65955309D01*
X106330907Y-65865770D01*
X106303746Y-65776232D01*
X106285404Y-65590000D01*
X106303746Y-65403768D01*
X106358068Y-65224692D01*
X106358068Y-65224691D01*
X106446283Y-65059653D01*
X106564999Y-64914999D01*
X106709653Y-64796283D01*
X106874691Y-64708068D01*
X106964230Y-64680907D01*
X107053768Y-64653746D01*
X107193334Y-64640000D01*
X107286666Y-64640000D01*
X107426232Y-64653746D01*
X107426232Y-64653746D01*
G37*
G36*
X102346232Y-64653746D02*
X102435770Y-64680907D01*
X102525309Y-64708068D01*
X102690347Y-64796283D01*
X102835001Y-64914999D01*
X102953717Y-65059653D01*
X103041932Y-65224691D01*
X103041932Y-65224692D01*
X103096254Y-65403768D01*
X103114596Y-65590000D01*
X103096254Y-65776232D01*
X103069093Y-65865770D01*
X103041932Y-65955309D01*
X102953717Y-66120347D01*
X102835001Y-66265001D01*
X102690347Y-66383717D01*
X102525309Y-66471932D01*
X102435770Y-66499093D01*
X102346232Y-66526254D01*
X102206666Y-66540000D01*
X102113334Y-66540000D01*
X101973768Y-66526254D01*
X101884230Y-66499093D01*
X101794691Y-66471932D01*
X101629653Y-66383717D01*
X101484999Y-66265001D01*
X101366283Y-66120347D01*
X101278068Y-65955309D01*
X101250907Y-65865770D01*
X101223746Y-65776232D01*
X101205404Y-65590000D01*
X101223746Y-65403768D01*
X101278068Y-65224692D01*
X101278068Y-65224691D01*
X101366283Y-65059653D01*
X101484999Y-64914999D01*
X101629653Y-64796283D01*
X101794691Y-64708068D01*
X101884230Y-64680907D01*
X101973768Y-64653746D01*
X102113334Y-64640000D01*
X102206666Y-64640000D01*
X102346232Y-64653746D01*
X102346232Y-64653746D01*
G37*
G36*
X99806232Y-64653746D02*
X99895770Y-64680907D01*
X99985309Y-64708068D01*
X100150347Y-64796283D01*
X100295001Y-64914999D01*
X100413717Y-65059653D01*
X100501932Y-65224691D01*
X100501932Y-65224692D01*
X100556254Y-65403768D01*
X100574596Y-65590000D01*
X100556254Y-65776232D01*
X100529093Y-65865770D01*
X100501932Y-65955309D01*
X100413717Y-66120347D01*
X100295001Y-66265001D01*
X100150347Y-66383717D01*
X99985309Y-66471932D01*
X99895770Y-66499093D01*
X99806232Y-66526254D01*
X99666666Y-66540000D01*
X99573334Y-66540000D01*
X99433768Y-66526254D01*
X99344230Y-66499093D01*
X99254691Y-66471932D01*
X99089653Y-66383717D01*
X98944999Y-66265001D01*
X98826283Y-66120347D01*
X98738068Y-65955309D01*
X98710907Y-65865770D01*
X98683746Y-65776232D01*
X98665404Y-65590000D01*
X98683746Y-65403768D01*
X98738068Y-65224692D01*
X98738068Y-65224691D01*
X98826283Y-65059653D01*
X98944999Y-64914999D01*
X99089653Y-64796283D01*
X99254691Y-64708068D01*
X99344230Y-64680907D01*
X99433768Y-64653746D01*
X99573334Y-64640000D01*
X99666666Y-64640000D01*
X99806232Y-64653746D01*
X99806232Y-64653746D01*
G37*
G36*
X94726232Y-64653746D02*
X94815770Y-64680907D01*
X94905309Y-64708068D01*
X95070347Y-64796283D01*
X95215001Y-64914999D01*
X95333717Y-65059653D01*
X95421932Y-65224691D01*
X95421932Y-65224692D01*
X95476254Y-65403768D01*
X95494596Y-65590000D01*
X95476254Y-65776232D01*
X95449093Y-65865770D01*
X95421932Y-65955309D01*
X95333717Y-66120347D01*
X95215001Y-66265001D01*
X95070347Y-66383717D01*
X94905309Y-66471932D01*
X94815770Y-66499093D01*
X94726232Y-66526254D01*
X94586666Y-66540000D01*
X94493334Y-66540000D01*
X94353768Y-66526254D01*
X94264230Y-66499093D01*
X94174691Y-66471932D01*
X94009653Y-66383717D01*
X93864999Y-66265001D01*
X93746283Y-66120347D01*
X93658068Y-65955309D01*
X93630907Y-65865770D01*
X93603746Y-65776232D01*
X93585404Y-65590000D01*
X93603746Y-65403768D01*
X93658068Y-65224692D01*
X93658068Y-65224691D01*
X93746283Y-65059653D01*
X93864999Y-64914999D01*
X94009653Y-64796283D01*
X94174691Y-64708068D01*
X94264230Y-64680907D01*
X94353768Y-64653746D01*
X94493334Y-64640000D01*
X94586666Y-64640000D01*
X94726232Y-64653746D01*
X94726232Y-64653746D01*
G37*
G36*
X92186232Y-64653746D02*
X92275770Y-64680907D01*
X92365309Y-64708068D01*
X92530347Y-64796283D01*
X92675001Y-64914999D01*
X92793717Y-65059653D01*
X92881932Y-65224691D01*
X92881932Y-65224692D01*
X92936254Y-65403768D01*
X92954596Y-65590000D01*
X92936254Y-65776232D01*
X92909093Y-65865770D01*
X92881932Y-65955309D01*
X92793717Y-66120347D01*
X92675001Y-66265001D01*
X92530347Y-66383717D01*
X92365309Y-66471932D01*
X92275770Y-66499093D01*
X92186232Y-66526254D01*
X92046666Y-66540000D01*
X91953334Y-66540000D01*
X91813768Y-66526254D01*
X91724230Y-66499093D01*
X91634691Y-66471932D01*
X91469653Y-66383717D01*
X91324999Y-66265001D01*
X91206283Y-66120347D01*
X91118068Y-65955309D01*
X91090907Y-65865770D01*
X91063746Y-65776232D01*
X91045404Y-65590000D01*
X91063746Y-65403768D01*
X91118068Y-65224692D01*
X91118068Y-65224691D01*
X91206283Y-65059653D01*
X91324999Y-64914999D01*
X91469653Y-64796283D01*
X91634691Y-64708068D01*
X91724230Y-64680907D01*
X91813768Y-64653746D01*
X91953334Y-64640000D01*
X92046666Y-64640000D01*
X92186232Y-64653746D01*
X92186232Y-64653746D01*
G37*
G36*
X89646232Y-64653746D02*
X89735770Y-64680907D01*
X89825309Y-64708068D01*
X89990347Y-64796283D01*
X90135001Y-64914999D01*
X90253717Y-65059653D01*
X90341932Y-65224691D01*
X90341932Y-65224692D01*
X90396254Y-65403768D01*
X90414596Y-65590000D01*
X90396254Y-65776232D01*
X90369093Y-65865770D01*
X90341932Y-65955309D01*
X90253717Y-66120347D01*
X90135001Y-66265001D01*
X89990347Y-66383717D01*
X89825309Y-66471932D01*
X89735770Y-66499093D01*
X89646232Y-66526254D01*
X89506666Y-66540000D01*
X89413334Y-66540000D01*
X89273768Y-66526254D01*
X89184230Y-66499093D01*
X89094691Y-66471932D01*
X88929653Y-66383717D01*
X88784999Y-66265001D01*
X88666283Y-66120347D01*
X88578068Y-65955309D01*
X88550907Y-65865770D01*
X88523746Y-65776232D01*
X88505404Y-65590000D01*
X88523746Y-65403768D01*
X88578068Y-65224692D01*
X88578068Y-65224691D01*
X88666283Y-65059653D01*
X88784999Y-64914999D01*
X88929653Y-64796283D01*
X89094691Y-64708068D01*
X89184230Y-64680907D01*
X89273768Y-64653746D01*
X89413334Y-64640000D01*
X89506666Y-64640000D01*
X89646232Y-64653746D01*
X89646232Y-64653746D01*
G37*
G36*
X87870000Y-66540000D02*
X85970000Y-66540000D01*
X85970000Y-64640000D01*
X87870000Y-64640000D01*
X87870000Y-66540000D01*
X87870000Y-66540000D01*
G37*
G36*
X127746232Y-64653746D02*
X127835770Y-64680907D01*
X127925309Y-64708068D01*
X128090347Y-64796283D01*
X128235001Y-64914999D01*
X128353717Y-65059653D01*
X128441932Y-65224691D01*
X128441932Y-65224692D01*
X128496254Y-65403768D01*
X128514596Y-65590000D01*
X128496254Y-65776232D01*
X128469093Y-65865770D01*
X128441932Y-65955309D01*
X128353717Y-66120347D01*
X128235001Y-66265001D01*
X128090347Y-66383717D01*
X127925309Y-66471932D01*
X127835770Y-66499093D01*
X127746232Y-66526254D01*
X127606666Y-66540000D01*
X127513334Y-66540000D01*
X127373768Y-66526254D01*
X127284230Y-66499093D01*
X127194691Y-66471932D01*
X127029653Y-66383717D01*
X126884999Y-66265001D01*
X126766283Y-66120347D01*
X126678068Y-65955309D01*
X126650907Y-65865770D01*
X126623746Y-65776232D01*
X126605404Y-65590000D01*
X126623746Y-65403768D01*
X126678068Y-65224692D01*
X126678068Y-65224691D01*
X126766283Y-65059653D01*
X126884999Y-64914999D01*
X127029653Y-64796283D01*
X127194691Y-64708068D01*
X127284230Y-64680907D01*
X127373768Y-64653746D01*
X127513334Y-64640000D01*
X127606666Y-64640000D01*
X127746232Y-64653746D01*
X127746232Y-64653746D01*
G37*
G36*
X117586232Y-64653746D02*
X117675770Y-64680907D01*
X117765309Y-64708068D01*
X117930347Y-64796283D01*
X118075001Y-64914999D01*
X118193717Y-65059653D01*
X118281932Y-65224691D01*
X118281932Y-65224692D01*
X118336254Y-65403768D01*
X118354596Y-65590000D01*
X118336254Y-65776232D01*
X118309093Y-65865770D01*
X118281932Y-65955309D01*
X118193717Y-66120347D01*
X118075001Y-66265001D01*
X117930347Y-66383717D01*
X117765309Y-66471932D01*
X117675770Y-66499093D01*
X117586232Y-66526254D01*
X117446666Y-66540000D01*
X117353334Y-66540000D01*
X117213768Y-66526254D01*
X117124230Y-66499093D01*
X117034691Y-66471932D01*
X116869653Y-66383717D01*
X116724999Y-66265001D01*
X116606283Y-66120347D01*
X116518068Y-65955309D01*
X116490907Y-65865770D01*
X116463746Y-65776232D01*
X116445404Y-65590000D01*
X116463746Y-65403768D01*
X116518068Y-65224692D01*
X116518068Y-65224691D01*
X116606283Y-65059653D01*
X116724999Y-64914999D01*
X116869653Y-64796283D01*
X117034691Y-64708068D01*
X117124230Y-64680907D01*
X117213768Y-64653746D01*
X117353334Y-64640000D01*
X117446666Y-64640000D01*
X117586232Y-64653746D01*
X117586232Y-64653746D01*
G37*
G36*
X120126232Y-64653746D02*
X120215770Y-64680907D01*
X120305309Y-64708068D01*
X120470347Y-64796283D01*
X120615001Y-64914999D01*
X120733717Y-65059653D01*
X120821932Y-65224691D01*
X120821932Y-65224692D01*
X120876254Y-65403768D01*
X120894596Y-65590000D01*
X120876254Y-65776232D01*
X120849093Y-65865770D01*
X120821932Y-65955309D01*
X120733717Y-66120347D01*
X120615001Y-66265001D01*
X120470347Y-66383717D01*
X120305309Y-66471932D01*
X120215770Y-66499093D01*
X120126232Y-66526254D01*
X119986666Y-66540000D01*
X119893334Y-66540000D01*
X119753768Y-66526254D01*
X119664230Y-66499093D01*
X119574691Y-66471932D01*
X119409653Y-66383717D01*
X119264999Y-66265001D01*
X119146283Y-66120347D01*
X119058068Y-65955309D01*
X119030907Y-65865770D01*
X119003746Y-65776232D01*
X118985404Y-65590000D01*
X119003746Y-65403768D01*
X119058068Y-65224692D01*
X119058068Y-65224691D01*
X119146283Y-65059653D01*
X119264999Y-64914999D01*
X119409653Y-64796283D01*
X119574691Y-64708068D01*
X119664230Y-64680907D01*
X119753768Y-64653746D01*
X119893334Y-64640000D01*
X119986666Y-64640000D01*
X120126232Y-64653746D01*
X120126232Y-64653746D01*
G37*
G36*
X122666232Y-64653746D02*
X122755770Y-64680907D01*
X122845309Y-64708068D01*
X123010347Y-64796283D01*
X123155001Y-64914999D01*
X123273717Y-65059653D01*
X123361932Y-65224691D01*
X123361932Y-65224692D01*
X123416254Y-65403768D01*
X123434596Y-65590000D01*
X123416254Y-65776232D01*
X123389093Y-65865770D01*
X123361932Y-65955309D01*
X123273717Y-66120347D01*
X123155001Y-66265001D01*
X123010347Y-66383717D01*
X122845309Y-66471932D01*
X122755770Y-66499093D01*
X122666232Y-66526254D01*
X122526666Y-66540000D01*
X122433334Y-66540000D01*
X122293768Y-66526254D01*
X122204230Y-66499093D01*
X122114691Y-66471932D01*
X121949653Y-66383717D01*
X121804999Y-66265001D01*
X121686283Y-66120347D01*
X121598068Y-65955309D01*
X121570907Y-65865770D01*
X121543746Y-65776232D01*
X121525404Y-65590000D01*
X121543746Y-65403768D01*
X121598068Y-65224692D01*
X121598068Y-65224691D01*
X121686283Y-65059653D01*
X121804999Y-64914999D01*
X121949653Y-64796283D01*
X122114691Y-64708068D01*
X122204230Y-64680907D01*
X122293768Y-64653746D01*
X122433334Y-64640000D01*
X122526666Y-64640000D01*
X122666232Y-64653746D01*
X122666232Y-64653746D01*
G37*
G36*
X125206232Y-64653746D02*
X125295770Y-64680907D01*
X125385309Y-64708068D01*
X125550347Y-64796283D01*
X125695001Y-64914999D01*
X125813717Y-65059653D01*
X125901932Y-65224691D01*
X125901932Y-65224692D01*
X125956254Y-65403768D01*
X125974596Y-65590000D01*
X125956254Y-65776232D01*
X125929093Y-65865770D01*
X125901932Y-65955309D01*
X125813717Y-66120347D01*
X125695001Y-66265001D01*
X125550347Y-66383717D01*
X125385309Y-66471932D01*
X125295770Y-66499093D01*
X125206232Y-66526254D01*
X125066666Y-66540000D01*
X124973334Y-66540000D01*
X124833768Y-66526254D01*
X124744230Y-66499093D01*
X124654691Y-66471932D01*
X124489653Y-66383717D01*
X124344999Y-66265001D01*
X124226283Y-66120347D01*
X124138068Y-65955309D01*
X124110907Y-65865770D01*
X124083746Y-65776232D01*
X124065404Y-65590000D01*
X124083746Y-65403768D01*
X124138068Y-65224692D01*
X124138068Y-65224691D01*
X124226283Y-65059653D01*
X124344999Y-64914999D01*
X124489653Y-64796283D01*
X124654691Y-64708068D01*
X124744230Y-64680907D01*
X124833768Y-64653746D01*
X124973334Y-64640000D01*
X125066666Y-64640000D01*
X125206232Y-64653746D01*
X125206232Y-64653746D01*
G37*
G36*
X97266232Y-64653746D02*
X97355770Y-64680907D01*
X97445309Y-64708068D01*
X97610347Y-64796283D01*
X97755001Y-64914999D01*
X97873717Y-65059653D01*
X97961932Y-65224691D01*
X97961932Y-65224692D01*
X98016254Y-65403768D01*
X98034596Y-65590000D01*
X98016254Y-65776232D01*
X97989093Y-65865770D01*
X97961932Y-65955309D01*
X97873717Y-66120347D01*
X97755001Y-66265001D01*
X97610347Y-66383717D01*
X97445309Y-66471932D01*
X97355770Y-66499093D01*
X97266232Y-66526254D01*
X97126666Y-66540000D01*
X97033334Y-66540000D01*
X96893768Y-66526254D01*
X96804230Y-66499093D01*
X96714691Y-66471932D01*
X96549653Y-66383717D01*
X96404999Y-66265001D01*
X96286283Y-66120347D01*
X96198068Y-65955309D01*
X96170907Y-65865770D01*
X96143746Y-65776232D01*
X96125404Y-65590000D01*
X96143746Y-65403768D01*
X96198068Y-65224692D01*
X96198068Y-65224691D01*
X96286283Y-65059653D01*
X96404999Y-64914999D01*
X96549653Y-64796283D01*
X96714691Y-64708068D01*
X96804230Y-64680907D01*
X96893768Y-64653746D01*
X97033334Y-64640000D01*
X97126666Y-64640000D01*
X97266232Y-64653746D01*
X97266232Y-64653746D01*
G37*
G36*
X140506703Y-62791486D02*
X140797883Y-62912097D01*
X141059944Y-63087201D01*
X141282799Y-63310056D01*
X141457903Y-63572117D01*
X141578514Y-63863297D01*
X141640000Y-64172412D01*
X141640000Y-64487588D01*
X141578514Y-64796703D01*
X141457903Y-65087883D01*
X141282799Y-65349944D01*
X141059944Y-65572799D01*
X140797883Y-65747903D01*
X140506703Y-65868514D01*
X140197588Y-65930000D01*
X139882412Y-65930000D01*
X139573297Y-65868514D01*
X139282117Y-65747903D01*
X139020056Y-65572799D01*
X138797201Y-65349944D01*
X138622097Y-65087883D01*
X138501486Y-64796703D01*
X138440000Y-64487588D01*
X138440000Y-64172412D01*
X138501486Y-63863297D01*
X138622097Y-63572117D01*
X138797201Y-63310056D01*
X139020056Y-63087201D01*
X139282117Y-62912097D01*
X139573297Y-62791486D01*
X139882412Y-62730000D01*
X140197588Y-62730000D01*
X140506703Y-62791486D01*
X140506703Y-62791486D01*
G37*
G36*
X82506703Y-62771486D02*
X82797883Y-62892097D01*
X83059944Y-63067201D01*
X83282799Y-63290056D01*
X83457903Y-63552117D01*
X83578514Y-63843297D01*
X83640000Y-64152412D01*
X83640000Y-64467588D01*
X83578514Y-64776703D01*
X83457903Y-65067883D01*
X83282799Y-65329944D01*
X83059944Y-65552799D01*
X82797883Y-65727903D01*
X82506703Y-65848514D01*
X82197588Y-65910000D01*
X81882412Y-65910000D01*
X81573297Y-65848514D01*
X81282117Y-65727903D01*
X81020056Y-65552799D01*
X80797201Y-65329944D01*
X80622097Y-65067883D01*
X80501486Y-64776703D01*
X80440000Y-64467588D01*
X80440000Y-64152412D01*
X80501486Y-63843297D01*
X80622097Y-63552117D01*
X80797201Y-63290056D01*
X81020056Y-63067201D01*
X81282117Y-62892097D01*
X81573297Y-62771486D01*
X81882412Y-62710000D01*
X82197588Y-62710000D01*
X82506703Y-62771486D01*
X82506703Y-62771486D01*
G37*
G36*
X130286232Y-62113746D02*
X130375770Y-62140907D01*
X130465309Y-62168068D01*
X130630347Y-62256283D01*
X130775001Y-62374999D01*
X130893717Y-62519653D01*
X130981932Y-62684691D01*
X130981932Y-62684692D01*
X131014328Y-62791486D01*
X131036254Y-62863769D01*
X131054596Y-63050000D01*
X131036254Y-63236231D01*
X130981932Y-63415309D01*
X130893717Y-63580347D01*
X130775001Y-63725001D01*
X130630347Y-63843717D01*
X130465309Y-63931932D01*
X130375770Y-63959093D01*
X130286232Y-63986254D01*
X130146666Y-64000000D01*
X130053334Y-64000000D01*
X129913768Y-63986254D01*
X129824230Y-63959093D01*
X129734691Y-63931932D01*
X129569653Y-63843717D01*
X129424999Y-63725001D01*
X129306283Y-63580347D01*
X129218068Y-63415309D01*
X129163746Y-63236231D01*
X129145404Y-63050000D01*
X129163746Y-62863769D01*
X129185673Y-62791486D01*
X129218068Y-62684692D01*
X129218068Y-62684691D01*
X129306283Y-62519653D01*
X129424999Y-62374999D01*
X129569653Y-62256283D01*
X129734691Y-62168068D01*
X129824230Y-62140907D01*
X129913768Y-62113746D01*
X130053334Y-62100000D01*
X130146666Y-62100000D01*
X130286232Y-62113746D01*
X130286232Y-62113746D01*
G37*
G36*
X120126232Y-62113746D02*
X120215770Y-62140907D01*
X120305309Y-62168068D01*
X120470347Y-62256283D01*
X120615001Y-62374999D01*
X120733717Y-62519653D01*
X120821932Y-62684691D01*
X120821932Y-62684692D01*
X120854328Y-62791486D01*
X120876254Y-62863769D01*
X120894596Y-63050000D01*
X120876254Y-63236231D01*
X120821932Y-63415309D01*
X120733717Y-63580347D01*
X120615001Y-63725001D01*
X120470347Y-63843717D01*
X120305309Y-63931932D01*
X120215770Y-63959093D01*
X120126232Y-63986254D01*
X119986666Y-64000000D01*
X119893334Y-64000000D01*
X119753768Y-63986254D01*
X119664230Y-63959093D01*
X119574691Y-63931932D01*
X119409653Y-63843717D01*
X119264999Y-63725001D01*
X119146283Y-63580347D01*
X119058068Y-63415309D01*
X119003746Y-63236231D01*
X118985404Y-63050000D01*
X119003746Y-62863769D01*
X119025673Y-62791486D01*
X119058068Y-62684692D01*
X119058068Y-62684691D01*
X119146283Y-62519653D01*
X119264999Y-62374999D01*
X119409653Y-62256283D01*
X119574691Y-62168068D01*
X119664230Y-62140907D01*
X119753768Y-62113746D01*
X119893334Y-62100000D01*
X119986666Y-62100000D01*
X120126232Y-62113746D01*
X120126232Y-62113746D01*
G37*
G36*
X117586232Y-62113746D02*
X117675770Y-62140907D01*
X117765309Y-62168068D01*
X117930347Y-62256283D01*
X118075001Y-62374999D01*
X118193717Y-62519653D01*
X118281932Y-62684691D01*
X118281932Y-62684692D01*
X118314328Y-62791486D01*
X118336254Y-62863769D01*
X118354596Y-63050000D01*
X118336254Y-63236231D01*
X118281932Y-63415309D01*
X118193717Y-63580347D01*
X118075001Y-63725001D01*
X117930347Y-63843717D01*
X117765309Y-63931932D01*
X117675770Y-63959093D01*
X117586232Y-63986254D01*
X117446666Y-64000000D01*
X117353334Y-64000000D01*
X117213768Y-63986254D01*
X117124230Y-63959093D01*
X117034691Y-63931932D01*
X116869653Y-63843717D01*
X116724999Y-63725001D01*
X116606283Y-63580347D01*
X116518068Y-63415309D01*
X116463746Y-63236231D01*
X116445404Y-63050000D01*
X116463746Y-62863769D01*
X116485673Y-62791486D01*
X116518068Y-62684692D01*
X116518068Y-62684691D01*
X116606283Y-62519653D01*
X116724999Y-62374999D01*
X116869653Y-62256283D01*
X117034691Y-62168068D01*
X117124230Y-62140907D01*
X117213768Y-62113746D01*
X117353334Y-62100000D01*
X117446666Y-62100000D01*
X117586232Y-62113746D01*
X117586232Y-62113746D01*
G37*
G36*
X125206232Y-62113746D02*
X125295770Y-62140907D01*
X125385309Y-62168068D01*
X125550347Y-62256283D01*
X125695001Y-62374999D01*
X125813717Y-62519653D01*
X125901932Y-62684691D01*
X125901932Y-62684692D01*
X125934328Y-62791486D01*
X125956254Y-62863769D01*
X125974596Y-63050000D01*
X125956254Y-63236231D01*
X125901932Y-63415309D01*
X125813717Y-63580347D01*
X125695001Y-63725001D01*
X125550347Y-63843717D01*
X125385309Y-63931932D01*
X125295770Y-63959093D01*
X125206232Y-63986254D01*
X125066666Y-64000000D01*
X124973334Y-64000000D01*
X124833768Y-63986254D01*
X124744230Y-63959093D01*
X124654691Y-63931932D01*
X124489653Y-63843717D01*
X124344999Y-63725001D01*
X124226283Y-63580347D01*
X124138068Y-63415309D01*
X124083746Y-63236231D01*
X124065404Y-63050000D01*
X124083746Y-62863769D01*
X124105673Y-62791486D01*
X124138068Y-62684692D01*
X124138068Y-62684691D01*
X124226283Y-62519653D01*
X124344999Y-62374999D01*
X124489653Y-62256283D01*
X124654691Y-62168068D01*
X124744230Y-62140907D01*
X124833768Y-62113746D01*
X124973334Y-62100000D01*
X125066666Y-62100000D01*
X125206232Y-62113746D01*
X125206232Y-62113746D01*
G37*
G36*
X115046232Y-62113746D02*
X115135770Y-62140907D01*
X115225309Y-62168068D01*
X115390347Y-62256283D01*
X115535001Y-62374999D01*
X115653717Y-62519653D01*
X115741932Y-62684691D01*
X115741932Y-62684692D01*
X115774328Y-62791486D01*
X115796254Y-62863769D01*
X115814596Y-63050000D01*
X115796254Y-63236231D01*
X115741932Y-63415309D01*
X115653717Y-63580347D01*
X115535001Y-63725001D01*
X115390347Y-63843717D01*
X115225309Y-63931932D01*
X115135770Y-63959093D01*
X115046232Y-63986254D01*
X114906666Y-64000000D01*
X114813334Y-64000000D01*
X114673768Y-63986254D01*
X114584230Y-63959093D01*
X114494691Y-63931932D01*
X114329653Y-63843717D01*
X114184999Y-63725001D01*
X114066283Y-63580347D01*
X113978068Y-63415309D01*
X113923746Y-63236231D01*
X113905404Y-63050000D01*
X113923746Y-62863769D01*
X113945673Y-62791486D01*
X113978068Y-62684692D01*
X113978068Y-62684691D01*
X114066283Y-62519653D01*
X114184999Y-62374999D01*
X114329653Y-62256283D01*
X114494691Y-62168068D01*
X114584230Y-62140907D01*
X114673768Y-62113746D01*
X114813334Y-62100000D01*
X114906666Y-62100000D01*
X115046232Y-62113746D01*
X115046232Y-62113746D01*
G37*
G36*
X112506232Y-62113746D02*
X112595770Y-62140907D01*
X112685309Y-62168068D01*
X112850347Y-62256283D01*
X112995001Y-62374999D01*
X113113717Y-62519653D01*
X113201932Y-62684691D01*
X113201932Y-62684692D01*
X113234328Y-62791486D01*
X113256254Y-62863769D01*
X113274596Y-63050000D01*
X113256254Y-63236231D01*
X113201932Y-63415309D01*
X113113717Y-63580347D01*
X112995001Y-63725001D01*
X112850347Y-63843717D01*
X112685309Y-63931932D01*
X112595770Y-63959093D01*
X112506232Y-63986254D01*
X112366666Y-64000000D01*
X112273334Y-64000000D01*
X112133768Y-63986254D01*
X112044230Y-63959093D01*
X111954691Y-63931932D01*
X111789653Y-63843717D01*
X111644999Y-63725001D01*
X111526283Y-63580347D01*
X111438068Y-63415309D01*
X111383746Y-63236231D01*
X111365404Y-63050000D01*
X111383746Y-62863769D01*
X111405673Y-62791486D01*
X111438068Y-62684692D01*
X111438068Y-62684691D01*
X111526283Y-62519653D01*
X111644999Y-62374999D01*
X111789653Y-62256283D01*
X111954691Y-62168068D01*
X112044230Y-62140907D01*
X112133768Y-62113746D01*
X112273334Y-62100000D01*
X112366666Y-62100000D01*
X112506232Y-62113746D01*
X112506232Y-62113746D01*
G37*
G36*
X109966232Y-62113746D02*
X110055770Y-62140907D01*
X110145309Y-62168068D01*
X110310347Y-62256283D01*
X110455001Y-62374999D01*
X110573717Y-62519653D01*
X110661932Y-62684691D01*
X110661932Y-62684692D01*
X110694328Y-62791486D01*
X110716254Y-62863769D01*
X110734596Y-63050000D01*
X110716254Y-63236231D01*
X110661932Y-63415309D01*
X110573717Y-63580347D01*
X110455001Y-63725001D01*
X110310347Y-63843717D01*
X110145309Y-63931932D01*
X110055770Y-63959093D01*
X109966232Y-63986254D01*
X109826666Y-64000000D01*
X109733334Y-64000000D01*
X109593768Y-63986254D01*
X109504230Y-63959093D01*
X109414691Y-63931932D01*
X109249653Y-63843717D01*
X109104999Y-63725001D01*
X108986283Y-63580347D01*
X108898068Y-63415309D01*
X108843746Y-63236231D01*
X108825404Y-63050000D01*
X108843746Y-62863769D01*
X108865673Y-62791486D01*
X108898068Y-62684692D01*
X108898068Y-62684691D01*
X108986283Y-62519653D01*
X109104999Y-62374999D01*
X109249653Y-62256283D01*
X109414691Y-62168068D01*
X109504230Y-62140907D01*
X109593768Y-62113746D01*
X109733334Y-62100000D01*
X109826666Y-62100000D01*
X109966232Y-62113746D01*
X109966232Y-62113746D01*
G37*
G36*
X107426232Y-62113746D02*
X107515770Y-62140907D01*
X107605309Y-62168068D01*
X107770347Y-62256283D01*
X107915001Y-62374999D01*
X108033717Y-62519653D01*
X108121932Y-62684691D01*
X108121932Y-62684692D01*
X108154328Y-62791486D01*
X108176254Y-62863769D01*
X108194596Y-63050000D01*
X108176254Y-63236231D01*
X108121932Y-63415309D01*
X108033717Y-63580347D01*
X107915001Y-63725001D01*
X107770347Y-63843717D01*
X107605309Y-63931932D01*
X107515770Y-63959093D01*
X107426232Y-63986254D01*
X107286666Y-64000000D01*
X107193334Y-64000000D01*
X107053768Y-63986254D01*
X106964230Y-63959093D01*
X106874691Y-63931932D01*
X106709653Y-63843717D01*
X106564999Y-63725001D01*
X106446283Y-63580347D01*
X106358068Y-63415309D01*
X106303746Y-63236231D01*
X106285404Y-63050000D01*
X106303746Y-62863769D01*
X106325673Y-62791486D01*
X106358068Y-62684692D01*
X106358068Y-62684691D01*
X106446283Y-62519653D01*
X106564999Y-62374999D01*
X106709653Y-62256283D01*
X106874691Y-62168068D01*
X106964230Y-62140907D01*
X107053768Y-62113746D01*
X107193334Y-62100000D01*
X107286666Y-62100000D01*
X107426232Y-62113746D01*
X107426232Y-62113746D01*
G37*
G36*
X104886232Y-62113746D02*
X104975770Y-62140907D01*
X105065309Y-62168068D01*
X105230347Y-62256283D01*
X105375001Y-62374999D01*
X105493717Y-62519653D01*
X105581932Y-62684691D01*
X105581932Y-62684692D01*
X105614328Y-62791486D01*
X105636254Y-62863769D01*
X105654596Y-63050000D01*
X105636254Y-63236231D01*
X105581932Y-63415309D01*
X105493717Y-63580347D01*
X105375001Y-63725001D01*
X105230347Y-63843717D01*
X105065309Y-63931932D01*
X104975770Y-63959093D01*
X104886232Y-63986254D01*
X104746666Y-64000000D01*
X104653334Y-64000000D01*
X104513768Y-63986254D01*
X104424230Y-63959093D01*
X104334691Y-63931932D01*
X104169653Y-63843717D01*
X104024999Y-63725001D01*
X103906283Y-63580347D01*
X103818068Y-63415309D01*
X103763746Y-63236231D01*
X103745404Y-63050000D01*
X103763746Y-62863769D01*
X103785673Y-62791486D01*
X103818068Y-62684692D01*
X103818068Y-62684691D01*
X103906283Y-62519653D01*
X104024999Y-62374999D01*
X104169653Y-62256283D01*
X104334691Y-62168068D01*
X104424230Y-62140907D01*
X104513768Y-62113746D01*
X104653334Y-62100000D01*
X104746666Y-62100000D01*
X104886232Y-62113746D01*
X104886232Y-62113746D01*
G37*
G36*
X102346232Y-62113746D02*
X102435770Y-62140907D01*
X102525309Y-62168068D01*
X102690347Y-62256283D01*
X102835001Y-62374999D01*
X102953717Y-62519653D01*
X103041932Y-62684691D01*
X103041932Y-62684692D01*
X103074328Y-62791486D01*
X103096254Y-62863769D01*
X103114596Y-63050000D01*
X103096254Y-63236231D01*
X103041932Y-63415309D01*
X102953717Y-63580347D01*
X102835001Y-63725001D01*
X102690347Y-63843717D01*
X102525309Y-63931932D01*
X102435770Y-63959093D01*
X102346232Y-63986254D01*
X102206666Y-64000000D01*
X102113334Y-64000000D01*
X101973768Y-63986254D01*
X101884230Y-63959093D01*
X101794691Y-63931932D01*
X101629653Y-63843717D01*
X101484999Y-63725001D01*
X101366283Y-63580347D01*
X101278068Y-63415309D01*
X101223746Y-63236231D01*
X101205404Y-63050000D01*
X101223746Y-62863769D01*
X101245673Y-62791486D01*
X101278068Y-62684692D01*
X101278068Y-62684691D01*
X101366283Y-62519653D01*
X101484999Y-62374999D01*
X101629653Y-62256283D01*
X101794691Y-62168068D01*
X101884230Y-62140907D01*
X101973768Y-62113746D01*
X102113334Y-62100000D01*
X102206666Y-62100000D01*
X102346232Y-62113746D01*
X102346232Y-62113746D01*
G37*
G36*
X135366232Y-62113746D02*
X135455770Y-62140907D01*
X135545309Y-62168068D01*
X135710347Y-62256283D01*
X135855001Y-62374999D01*
X135973717Y-62519653D01*
X136061932Y-62684691D01*
X136061932Y-62684692D01*
X136094328Y-62791486D01*
X136116254Y-62863769D01*
X136134596Y-63050000D01*
X136116254Y-63236231D01*
X136061932Y-63415309D01*
X135973717Y-63580347D01*
X135855001Y-63725001D01*
X135710347Y-63843717D01*
X135545309Y-63931932D01*
X135455770Y-63959093D01*
X135366232Y-63986254D01*
X135226666Y-64000000D01*
X135133334Y-64000000D01*
X134993768Y-63986254D01*
X134904230Y-63959093D01*
X134814691Y-63931932D01*
X134649653Y-63843717D01*
X134504999Y-63725001D01*
X134386283Y-63580347D01*
X134298068Y-63415309D01*
X134243746Y-63236231D01*
X134225404Y-63050000D01*
X134243746Y-62863769D01*
X134265673Y-62791486D01*
X134298068Y-62684692D01*
X134298068Y-62684691D01*
X134386283Y-62519653D01*
X134504999Y-62374999D01*
X134649653Y-62256283D01*
X134814691Y-62168068D01*
X134904230Y-62140907D01*
X134993768Y-62113746D01*
X135133334Y-62100000D01*
X135226666Y-62100000D01*
X135366232Y-62113746D01*
X135366232Y-62113746D01*
G37*
G36*
X99806232Y-62113746D02*
X99895770Y-62140907D01*
X99985309Y-62168068D01*
X100150347Y-62256283D01*
X100295001Y-62374999D01*
X100413717Y-62519653D01*
X100501932Y-62684691D01*
X100501932Y-62684692D01*
X100534328Y-62791486D01*
X100556254Y-62863769D01*
X100574596Y-63050000D01*
X100556254Y-63236231D01*
X100501932Y-63415309D01*
X100413717Y-63580347D01*
X100295001Y-63725001D01*
X100150347Y-63843717D01*
X99985309Y-63931932D01*
X99895770Y-63959093D01*
X99806232Y-63986254D01*
X99666666Y-64000000D01*
X99573334Y-64000000D01*
X99433768Y-63986254D01*
X99344230Y-63959093D01*
X99254691Y-63931932D01*
X99089653Y-63843717D01*
X98944999Y-63725001D01*
X98826283Y-63580347D01*
X98738068Y-63415309D01*
X98683746Y-63236231D01*
X98665404Y-63050000D01*
X98683746Y-62863769D01*
X98705673Y-62791486D01*
X98738068Y-62684692D01*
X98738068Y-62684691D01*
X98826283Y-62519653D01*
X98944999Y-62374999D01*
X99089653Y-62256283D01*
X99254691Y-62168068D01*
X99344230Y-62140907D01*
X99433768Y-62113746D01*
X99573334Y-62100000D01*
X99666666Y-62100000D01*
X99806232Y-62113746D01*
X99806232Y-62113746D01*
G37*
G36*
X97266232Y-62113746D02*
X97355770Y-62140907D01*
X97445309Y-62168068D01*
X97610347Y-62256283D01*
X97755001Y-62374999D01*
X97873717Y-62519653D01*
X97961932Y-62684691D01*
X97961932Y-62684692D01*
X97994328Y-62791486D01*
X98016254Y-62863769D01*
X98034596Y-63050000D01*
X98016254Y-63236231D01*
X97961932Y-63415309D01*
X97873717Y-63580347D01*
X97755001Y-63725001D01*
X97610347Y-63843717D01*
X97445309Y-63931932D01*
X97355770Y-63959093D01*
X97266232Y-63986254D01*
X97126666Y-64000000D01*
X97033334Y-64000000D01*
X96893768Y-63986254D01*
X96804230Y-63959093D01*
X96714691Y-63931932D01*
X96549653Y-63843717D01*
X96404999Y-63725001D01*
X96286283Y-63580347D01*
X96198068Y-63415309D01*
X96143746Y-63236231D01*
X96125404Y-63050000D01*
X96143746Y-62863769D01*
X96165673Y-62791486D01*
X96198068Y-62684692D01*
X96198068Y-62684691D01*
X96286283Y-62519653D01*
X96404999Y-62374999D01*
X96549653Y-62256283D01*
X96714691Y-62168068D01*
X96804230Y-62140907D01*
X96893768Y-62113746D01*
X97033334Y-62100000D01*
X97126666Y-62100000D01*
X97266232Y-62113746D01*
X97266232Y-62113746D01*
G37*
G36*
X94726232Y-62113746D02*
X94815770Y-62140907D01*
X94905309Y-62168068D01*
X95070347Y-62256283D01*
X95215001Y-62374999D01*
X95333717Y-62519653D01*
X95421932Y-62684691D01*
X95421932Y-62684692D01*
X95454328Y-62791486D01*
X95476254Y-62863769D01*
X95494596Y-63050000D01*
X95476254Y-63236231D01*
X95421932Y-63415309D01*
X95333717Y-63580347D01*
X95215001Y-63725001D01*
X95070347Y-63843717D01*
X94905309Y-63931932D01*
X94815770Y-63959093D01*
X94726232Y-63986254D01*
X94586666Y-64000000D01*
X94493334Y-64000000D01*
X94353768Y-63986254D01*
X94264230Y-63959093D01*
X94174691Y-63931932D01*
X94009653Y-63843717D01*
X93864999Y-63725001D01*
X93746283Y-63580347D01*
X93658068Y-63415309D01*
X93603746Y-63236231D01*
X93585404Y-63050000D01*
X93603746Y-62863769D01*
X93625673Y-62791486D01*
X93658068Y-62684692D01*
X93658068Y-62684691D01*
X93746283Y-62519653D01*
X93864999Y-62374999D01*
X94009653Y-62256283D01*
X94174691Y-62168068D01*
X94264230Y-62140907D01*
X94353768Y-62113746D01*
X94493334Y-62100000D01*
X94586666Y-62100000D01*
X94726232Y-62113746D01*
X94726232Y-62113746D01*
G37*
G36*
X92186232Y-62113746D02*
X92275770Y-62140907D01*
X92365309Y-62168068D01*
X92530347Y-62256283D01*
X92675001Y-62374999D01*
X92793717Y-62519653D01*
X92881932Y-62684691D01*
X92881932Y-62684692D01*
X92914328Y-62791486D01*
X92936254Y-62863769D01*
X92954596Y-63050000D01*
X92936254Y-63236231D01*
X92881932Y-63415309D01*
X92793717Y-63580347D01*
X92675001Y-63725001D01*
X92530347Y-63843717D01*
X92365309Y-63931932D01*
X92275770Y-63959093D01*
X92186232Y-63986254D01*
X92046666Y-64000000D01*
X91953334Y-64000000D01*
X91813768Y-63986254D01*
X91724230Y-63959093D01*
X91634691Y-63931932D01*
X91469653Y-63843717D01*
X91324999Y-63725001D01*
X91206283Y-63580347D01*
X91118068Y-63415309D01*
X91063746Y-63236231D01*
X91045404Y-63050000D01*
X91063746Y-62863769D01*
X91085673Y-62791486D01*
X91118068Y-62684692D01*
X91118068Y-62684691D01*
X91206283Y-62519653D01*
X91324999Y-62374999D01*
X91469653Y-62256283D01*
X91634691Y-62168068D01*
X91724230Y-62140907D01*
X91813768Y-62113746D01*
X91953334Y-62100000D01*
X92046666Y-62100000D01*
X92186232Y-62113746D01*
X92186232Y-62113746D01*
G37*
G36*
X89646232Y-62113746D02*
X89735770Y-62140907D01*
X89825309Y-62168068D01*
X89990347Y-62256283D01*
X90135001Y-62374999D01*
X90253717Y-62519653D01*
X90341932Y-62684691D01*
X90341932Y-62684692D01*
X90374328Y-62791486D01*
X90396254Y-62863769D01*
X90414596Y-63050000D01*
X90396254Y-63236231D01*
X90341932Y-63415309D01*
X90253717Y-63580347D01*
X90135001Y-63725001D01*
X89990347Y-63843717D01*
X89825309Y-63931932D01*
X89735770Y-63959093D01*
X89646232Y-63986254D01*
X89506666Y-64000000D01*
X89413334Y-64000000D01*
X89273768Y-63986254D01*
X89184230Y-63959093D01*
X89094691Y-63931932D01*
X88929653Y-63843717D01*
X88784999Y-63725001D01*
X88666283Y-63580347D01*
X88578068Y-63415309D01*
X88523746Y-63236231D01*
X88505404Y-63050000D01*
X88523746Y-62863769D01*
X88545673Y-62791486D01*
X88578068Y-62684692D01*
X88578068Y-62684691D01*
X88666283Y-62519653D01*
X88784999Y-62374999D01*
X88929653Y-62256283D01*
X89094691Y-62168068D01*
X89184230Y-62140907D01*
X89273768Y-62113746D01*
X89413334Y-62100000D01*
X89506666Y-62100000D01*
X89646232Y-62113746D01*
X89646232Y-62113746D01*
G37*
G36*
X87106232Y-62113746D02*
X87195770Y-62140907D01*
X87285309Y-62168068D01*
X87450347Y-62256283D01*
X87595001Y-62374999D01*
X87713717Y-62519653D01*
X87801932Y-62684691D01*
X87801932Y-62684692D01*
X87834328Y-62791486D01*
X87856254Y-62863769D01*
X87874596Y-63050000D01*
X87856254Y-63236231D01*
X87801932Y-63415309D01*
X87713717Y-63580347D01*
X87595001Y-63725001D01*
X87450347Y-63843717D01*
X87285309Y-63931932D01*
X87195770Y-63959093D01*
X87106232Y-63986254D01*
X86966666Y-64000000D01*
X86873334Y-64000000D01*
X86733768Y-63986254D01*
X86644230Y-63959093D01*
X86554691Y-63931932D01*
X86389653Y-63843717D01*
X86244999Y-63725001D01*
X86126283Y-63580347D01*
X86038068Y-63415309D01*
X85983746Y-63236231D01*
X85965404Y-63050000D01*
X85983746Y-62863769D01*
X86005673Y-62791486D01*
X86038068Y-62684692D01*
X86038068Y-62684691D01*
X86126283Y-62519653D01*
X86244999Y-62374999D01*
X86389653Y-62256283D01*
X86554691Y-62168068D01*
X86644230Y-62140907D01*
X86733768Y-62113746D01*
X86873334Y-62100000D01*
X86966666Y-62100000D01*
X87106232Y-62113746D01*
X87106232Y-62113746D01*
G37*
G36*
X127746232Y-62113746D02*
X127835770Y-62140907D01*
X127925309Y-62168068D01*
X128090347Y-62256283D01*
X128235001Y-62374999D01*
X128353717Y-62519653D01*
X128441932Y-62684691D01*
X128441932Y-62684692D01*
X128474328Y-62791486D01*
X128496254Y-62863769D01*
X128514596Y-63050000D01*
X128496254Y-63236231D01*
X128441932Y-63415309D01*
X128353717Y-63580347D01*
X128235001Y-63725001D01*
X128090347Y-63843717D01*
X127925309Y-63931932D01*
X127835770Y-63959093D01*
X127746232Y-63986254D01*
X127606666Y-64000000D01*
X127513334Y-64000000D01*
X127373768Y-63986254D01*
X127284230Y-63959093D01*
X127194691Y-63931932D01*
X127029653Y-63843717D01*
X126884999Y-63725001D01*
X126766283Y-63580347D01*
X126678068Y-63415309D01*
X126623746Y-63236231D01*
X126605404Y-63050000D01*
X126623746Y-62863769D01*
X126645673Y-62791486D01*
X126678068Y-62684692D01*
X126678068Y-62684691D01*
X126766283Y-62519653D01*
X126884999Y-62374999D01*
X127029653Y-62256283D01*
X127194691Y-62168068D01*
X127284230Y-62140907D01*
X127373768Y-62113746D01*
X127513334Y-62100000D01*
X127606666Y-62100000D01*
X127746232Y-62113746D01*
X127746232Y-62113746D01*
G37*
G36*
X122666232Y-62113746D02*
X122755770Y-62140907D01*
X122845309Y-62168068D01*
X123010347Y-62256283D01*
X123155001Y-62374999D01*
X123273717Y-62519653D01*
X123361932Y-62684691D01*
X123361932Y-62684692D01*
X123394328Y-62791486D01*
X123416254Y-62863769D01*
X123434596Y-63050000D01*
X123416254Y-63236231D01*
X123361932Y-63415309D01*
X123273717Y-63580347D01*
X123155001Y-63725001D01*
X123010347Y-63843717D01*
X122845309Y-63931932D01*
X122755770Y-63959093D01*
X122666232Y-63986254D01*
X122526666Y-64000000D01*
X122433334Y-64000000D01*
X122293768Y-63986254D01*
X122204230Y-63959093D01*
X122114691Y-63931932D01*
X121949653Y-63843717D01*
X121804999Y-63725001D01*
X121686283Y-63580347D01*
X121598068Y-63415309D01*
X121543746Y-63236231D01*
X121525404Y-63050000D01*
X121543746Y-62863769D01*
X121565673Y-62791486D01*
X121598068Y-62684692D01*
X121598068Y-62684691D01*
X121686283Y-62519653D01*
X121804999Y-62374999D01*
X121949653Y-62256283D01*
X122114691Y-62168068D01*
X122204230Y-62140907D01*
X122293768Y-62113746D01*
X122433334Y-62100000D01*
X122526666Y-62100000D01*
X122666232Y-62113746D01*
X122666232Y-62113746D01*
G37*
G36*
X132826232Y-62113746D02*
X132915770Y-62140907D01*
X133005309Y-62168068D01*
X133170347Y-62256283D01*
X133315001Y-62374999D01*
X133433717Y-62519653D01*
X133521932Y-62684691D01*
X133521932Y-62684692D01*
X133554328Y-62791486D01*
X133576254Y-62863769D01*
X133594596Y-63050000D01*
X133576254Y-63236231D01*
X133521932Y-63415309D01*
X133433717Y-63580347D01*
X133315001Y-63725001D01*
X133170347Y-63843717D01*
X133005309Y-63931932D01*
X132915770Y-63959093D01*
X132826232Y-63986254D01*
X132686666Y-64000000D01*
X132593334Y-64000000D01*
X132453768Y-63986254D01*
X132364230Y-63959093D01*
X132274691Y-63931932D01*
X132109653Y-63843717D01*
X131964999Y-63725001D01*
X131846283Y-63580347D01*
X131758068Y-63415309D01*
X131703746Y-63236231D01*
X131685404Y-63050000D01*
X131703746Y-62863769D01*
X131725673Y-62791486D01*
X131758068Y-62684692D01*
X131758068Y-62684691D01*
X131846283Y-62519653D01*
X131964999Y-62374999D01*
X132109653Y-62256283D01*
X132274691Y-62168068D01*
X132364230Y-62140907D01*
X132453768Y-62113746D01*
X132593334Y-62100000D01*
X132686666Y-62100000D01*
X132826232Y-62113746D01*
X132826232Y-62113746D01*
G37*
M02*
