G04 #@! TF.GenerationSoftware,KiCad,Pcbnew,(5.0.1)-3*
G04 #@! TF.CreationDate,2018-11-18T15:41:14-05:00*
G04 #@! TF.ProjectId,reef-piHat,726565662D70694861742E6B69636164,rev?*
G04 #@! TF.SameCoordinates,Original*
G04 #@! TF.FileFunction,Legend,Bot*
G04 #@! TF.FilePolarity,Positive*
%FSLAX46Y46*%
G04 Gerber Fmt 4.6, Leading zero omitted, Abs format (unit mm)*
G04 Created by KiCad (PCBNEW (5.0.1)-3) date 11/18/2018 3:41:14 PM*
%MOMM*%
%LPD*%
G01*
G04 APERTURE LIST*
%ADD10C,0.200000*%
%ADD11C,0.100000*%
%ADD12C,0.010000*%
%ADD13C,0.120000*%
%ADD14C,0.150000*%
G04 APERTURE END LIST*
D10*
X134045523Y-77385904D02*
X134045523Y-76852571D01*
X134045523Y-77004952D02*
X134007428Y-76928761D01*
X133969333Y-76890666D01*
X133893142Y-76852571D01*
X133816952Y-76852571D01*
X133245523Y-77347809D02*
X133321714Y-77385904D01*
X133474095Y-77385904D01*
X133550285Y-77347809D01*
X133588380Y-77271619D01*
X133588380Y-76966857D01*
X133550285Y-76890666D01*
X133474095Y-76852571D01*
X133321714Y-76852571D01*
X133245523Y-76890666D01*
X133207428Y-76966857D01*
X133207428Y-77043047D01*
X133588380Y-77119238D01*
X132559809Y-77347809D02*
X132636000Y-77385904D01*
X132788380Y-77385904D01*
X132864571Y-77347809D01*
X132902666Y-77271619D01*
X132902666Y-76966857D01*
X132864571Y-76890666D01*
X132788380Y-76852571D01*
X132636000Y-76852571D01*
X132559809Y-76890666D01*
X132521714Y-76966857D01*
X132521714Y-77043047D01*
X132902666Y-77119238D01*
X132293142Y-76852571D02*
X131988380Y-76852571D01*
X132178857Y-77385904D02*
X132178857Y-76700190D01*
X132140761Y-76624000D01*
X132064571Y-76585904D01*
X131988380Y-76585904D01*
X131721714Y-77081142D02*
X131112190Y-77081142D01*
X130731238Y-76852571D02*
X130731238Y-77652571D01*
X130731238Y-76890666D02*
X130655047Y-76852571D01*
X130502666Y-76852571D01*
X130426476Y-76890666D01*
X130388380Y-76928761D01*
X130350285Y-77004952D01*
X130350285Y-77233523D01*
X130388380Y-77309714D01*
X130426476Y-77347809D01*
X130502666Y-77385904D01*
X130655047Y-77385904D01*
X130731238Y-77347809D01*
X130007428Y-77385904D02*
X130007428Y-76852571D01*
X130007428Y-76585904D02*
X130045523Y-76624000D01*
X130007428Y-76662095D01*
X129969333Y-76624000D01*
X130007428Y-76585904D01*
X130007428Y-76662095D01*
X129016952Y-77385904D02*
X129016952Y-76585904D01*
X128674095Y-77385904D02*
X128674095Y-76966857D01*
X128712190Y-76890666D01*
X128788380Y-76852571D01*
X128902666Y-76852571D01*
X128978857Y-76890666D01*
X129016952Y-76928761D01*
X127950285Y-77385904D02*
X127950285Y-76966857D01*
X127988380Y-76890666D01*
X128064571Y-76852571D01*
X128216952Y-76852571D01*
X128293142Y-76890666D01*
X127950285Y-77347809D02*
X128026476Y-77385904D01*
X128216952Y-77385904D01*
X128293142Y-77347809D01*
X128331238Y-77271619D01*
X128331238Y-77195428D01*
X128293142Y-77119238D01*
X128216952Y-77081142D01*
X128026476Y-77081142D01*
X127950285Y-77043047D01*
X127683619Y-76852571D02*
X127378857Y-76852571D01*
X127569333Y-76585904D02*
X127569333Y-77271619D01*
X127531238Y-77347809D01*
X127455047Y-77385904D01*
X127378857Y-77385904D01*
X133702666Y-78252571D02*
X133702666Y-78900190D01*
X133740761Y-78976380D01*
X133778857Y-79014476D01*
X133855047Y-79052571D01*
X133969333Y-79052571D01*
X134045523Y-79014476D01*
X133702666Y-78747809D02*
X133778857Y-78785904D01*
X133931238Y-78785904D01*
X134007428Y-78747809D01*
X134045523Y-78709714D01*
X134083619Y-78633523D01*
X134083619Y-78404952D01*
X134045523Y-78328761D01*
X134007428Y-78290666D01*
X133931238Y-78252571D01*
X133778857Y-78252571D01*
X133702666Y-78290666D01*
X133321714Y-78785904D02*
X133321714Y-78252571D01*
X133321714Y-77985904D02*
X133359809Y-78024000D01*
X133321714Y-78062095D01*
X133283619Y-78024000D01*
X133321714Y-77985904D01*
X133321714Y-78062095D01*
X133055047Y-78252571D02*
X132750285Y-78252571D01*
X132940761Y-77985904D02*
X132940761Y-78671619D01*
X132902666Y-78747809D01*
X132826476Y-78785904D01*
X132750285Y-78785904D01*
X132483619Y-78785904D02*
X132483619Y-77985904D01*
X132140761Y-78785904D02*
X132140761Y-78366857D01*
X132178857Y-78290666D01*
X132255047Y-78252571D01*
X132369333Y-78252571D01*
X132445523Y-78290666D01*
X132483619Y-78328761D01*
X131416952Y-78252571D02*
X131416952Y-78785904D01*
X131759809Y-78252571D02*
X131759809Y-78671619D01*
X131721714Y-78747809D01*
X131645523Y-78785904D01*
X131531238Y-78785904D01*
X131455047Y-78747809D01*
X131416952Y-78709714D01*
X131036000Y-78785904D02*
X131036000Y-77985904D01*
X131036000Y-78290666D02*
X130959809Y-78252571D01*
X130807428Y-78252571D01*
X130731238Y-78290666D01*
X130693142Y-78328761D01*
X130655047Y-78404952D01*
X130655047Y-78633523D01*
X130693142Y-78709714D01*
X130731238Y-78747809D01*
X130807428Y-78785904D01*
X130959809Y-78785904D01*
X131036000Y-78747809D01*
X130312190Y-78709714D02*
X130274095Y-78747809D01*
X130312190Y-78785904D01*
X130350285Y-78747809D01*
X130312190Y-78709714D01*
X130312190Y-78785904D01*
X129588380Y-78747809D02*
X129664571Y-78785904D01*
X129816952Y-78785904D01*
X129893142Y-78747809D01*
X129931238Y-78709714D01*
X129969333Y-78633523D01*
X129969333Y-78404952D01*
X129931238Y-78328761D01*
X129893142Y-78290666D01*
X129816952Y-78252571D01*
X129664571Y-78252571D01*
X129588380Y-78290666D01*
X129131238Y-78785904D02*
X129207428Y-78747809D01*
X129245523Y-78709714D01*
X129283619Y-78633523D01*
X129283619Y-78404952D01*
X129245523Y-78328761D01*
X129207428Y-78290666D01*
X129131238Y-78252571D01*
X129016952Y-78252571D01*
X128940761Y-78290666D01*
X128902666Y-78328761D01*
X128864571Y-78404952D01*
X128864571Y-78633523D01*
X128902666Y-78709714D01*
X128940761Y-78747809D01*
X129016952Y-78785904D01*
X129131238Y-78785904D01*
X128521714Y-78785904D02*
X128521714Y-78252571D01*
X128521714Y-78328761D02*
X128483619Y-78290666D01*
X128407428Y-78252571D01*
X128293142Y-78252571D01*
X128216952Y-78290666D01*
X128178857Y-78366857D01*
X128178857Y-78785904D01*
X128178857Y-78366857D02*
X128140761Y-78290666D01*
X128064571Y-78252571D01*
X127950285Y-78252571D01*
X127874095Y-78290666D01*
X127836000Y-78366857D01*
X127836000Y-78785904D01*
X126883619Y-77947809D02*
X127569333Y-78976380D01*
X126616952Y-78785904D02*
X126616952Y-78252571D01*
X126616952Y-78404952D02*
X126578857Y-78328761D01*
X126540761Y-78290666D01*
X126464571Y-78252571D01*
X126388380Y-78252571D01*
X125778857Y-78785904D02*
X125778857Y-78366857D01*
X125816952Y-78290666D01*
X125893142Y-78252571D01*
X126045523Y-78252571D01*
X126121714Y-78290666D01*
X125778857Y-78747809D02*
X125855047Y-78785904D01*
X126045523Y-78785904D01*
X126121714Y-78747809D01*
X126159809Y-78671619D01*
X126159809Y-78595428D01*
X126121714Y-78519238D01*
X126045523Y-78481142D01*
X125855047Y-78481142D01*
X125778857Y-78443047D01*
X125397904Y-78252571D02*
X125397904Y-78785904D01*
X125397904Y-78328761D02*
X125359809Y-78290666D01*
X125283619Y-78252571D01*
X125169333Y-78252571D01*
X125093142Y-78290666D01*
X125055047Y-78366857D01*
X125055047Y-78785904D01*
X124788380Y-78252571D02*
X124483619Y-78252571D01*
X124674095Y-77985904D02*
X124674095Y-78671619D01*
X124636000Y-78747809D01*
X124559809Y-78785904D01*
X124483619Y-78785904D01*
X124216952Y-78785904D02*
X124216952Y-77985904D01*
X123874095Y-78785904D02*
X123874095Y-78366857D01*
X123912190Y-78290666D01*
X123988380Y-78252571D01*
X124102666Y-78252571D01*
X124178857Y-78290666D01*
X124216952Y-78328761D01*
X123150285Y-78785904D02*
X123150285Y-78366857D01*
X123188380Y-78290666D01*
X123264571Y-78252571D01*
X123416952Y-78252571D01*
X123493142Y-78290666D01*
X123150285Y-78747809D02*
X123226476Y-78785904D01*
X123416952Y-78785904D01*
X123493142Y-78747809D01*
X123531238Y-78671619D01*
X123531238Y-78595428D01*
X123493142Y-78519238D01*
X123416952Y-78481142D01*
X123226476Y-78481142D01*
X123150285Y-78443047D01*
X122655047Y-78785904D02*
X122731238Y-78747809D01*
X122769333Y-78671619D01*
X122769333Y-77985904D01*
X122350285Y-78785904D02*
X122350285Y-78252571D01*
X122350285Y-77985904D02*
X122388380Y-78024000D01*
X122350285Y-78062095D01*
X122312190Y-78024000D01*
X122350285Y-77985904D01*
X122350285Y-78062095D01*
X121855047Y-78785904D02*
X121931238Y-78747809D01*
X121969333Y-78709714D01*
X122007428Y-78633523D01*
X122007428Y-78404952D01*
X121969333Y-78328761D01*
X121931238Y-78290666D01*
X121855047Y-78252571D01*
X121740761Y-78252571D01*
X121664571Y-78290666D01*
X121626476Y-78328761D01*
X121588380Y-78404952D01*
X121588380Y-78633523D01*
X121626476Y-78709714D01*
X121664571Y-78747809D01*
X121740761Y-78785904D01*
X121855047Y-78785904D01*
X121245523Y-78252571D02*
X121245523Y-78785904D01*
X121245523Y-78328761D02*
X121207428Y-78290666D01*
X121131238Y-78252571D01*
X121016952Y-78252571D01*
X120940761Y-78290666D01*
X120902666Y-78366857D01*
X120902666Y-78785904D01*
X119950285Y-77947809D02*
X120636000Y-78976380D01*
X119683619Y-78785904D02*
X119683619Y-78252571D01*
X119683619Y-78404952D02*
X119645523Y-78328761D01*
X119607428Y-78290666D01*
X119531238Y-78252571D01*
X119455047Y-78252571D01*
X118883619Y-78747809D02*
X118959809Y-78785904D01*
X119112190Y-78785904D01*
X119188380Y-78747809D01*
X119226476Y-78671619D01*
X119226476Y-78366857D01*
X119188380Y-78290666D01*
X119112190Y-78252571D01*
X118959809Y-78252571D01*
X118883619Y-78290666D01*
X118845523Y-78366857D01*
X118845523Y-78443047D01*
X119226476Y-78519238D01*
X118197904Y-78747809D02*
X118274095Y-78785904D01*
X118426476Y-78785904D01*
X118502666Y-78747809D01*
X118540761Y-78671619D01*
X118540761Y-78366857D01*
X118502666Y-78290666D01*
X118426476Y-78252571D01*
X118274095Y-78252571D01*
X118197904Y-78290666D01*
X118159809Y-78366857D01*
X118159809Y-78443047D01*
X118540761Y-78519238D01*
X117931238Y-78252571D02*
X117626476Y-78252571D01*
X117816952Y-78785904D02*
X117816952Y-78100190D01*
X117778857Y-78024000D01*
X117702666Y-77985904D01*
X117626476Y-77985904D01*
X117359809Y-78481142D02*
X116750285Y-78481142D01*
X116369333Y-78252571D02*
X116369333Y-79052571D01*
X116369333Y-78290666D02*
X116293142Y-78252571D01*
X116140761Y-78252571D01*
X116064571Y-78290666D01*
X116026476Y-78328761D01*
X115988380Y-78404952D01*
X115988380Y-78633523D01*
X116026476Y-78709714D01*
X116064571Y-78747809D01*
X116140761Y-78785904D01*
X116293142Y-78785904D01*
X116369333Y-78747809D01*
X115645523Y-78785904D02*
X115645523Y-78252571D01*
X115645523Y-77985904D02*
X115683619Y-78024000D01*
X115645523Y-78062095D01*
X115607428Y-78024000D01*
X115645523Y-77985904D01*
X115645523Y-78062095D01*
X115264571Y-78785904D02*
X115264571Y-77985904D01*
X115264571Y-78366857D02*
X114807428Y-78366857D01*
X114807428Y-78785904D02*
X114807428Y-77985904D01*
X114083619Y-78785904D02*
X114083619Y-78366857D01*
X114121714Y-78290666D01*
X114197904Y-78252571D01*
X114350285Y-78252571D01*
X114426476Y-78290666D01*
X114083619Y-78747809D02*
X114159809Y-78785904D01*
X114350285Y-78785904D01*
X114426476Y-78747809D01*
X114464571Y-78671619D01*
X114464571Y-78595428D01*
X114426476Y-78519238D01*
X114350285Y-78481142D01*
X114159809Y-78481142D01*
X114083619Y-78443047D01*
X113816952Y-78252571D02*
X113512190Y-78252571D01*
X113702666Y-77985904D02*
X113702666Y-78671619D01*
X113664571Y-78747809D01*
X113588380Y-78785904D01*
X113512190Y-78785904D01*
D11*
X78546356Y-63817611D02*
X78546356Y-113817611D01*
X78546356Y-63817611D02*
G75*
G02X81546356Y-60817611I3000000J0D01*
G01*
X140546356Y-60817611D02*
X81546356Y-60817611D01*
X140546356Y-60817611D02*
G75*
G02X143546356Y-63817611I0J-3000000D01*
G01*
X143546356Y-113817611D02*
X143546356Y-63817611D01*
X81546356Y-116817611D02*
G75*
G02X78546356Y-113817611I0J3000000D01*
G01*
X81546356Y-116817611D02*
X140546356Y-116817611D01*
X143546351Y-113822847D02*
G75*
G02X140546356Y-116817611I-2999995J5236D01*
G01*
D12*
G04 #@! TO.C,G\002A\002A\002A*
G36*
X128658485Y-69398746D02*
X128625021Y-69860619D01*
X128699628Y-70614598D01*
X128881405Y-71647748D01*
X129011299Y-72260902D01*
X129183889Y-73388332D01*
X129144923Y-74255950D01*
X128894640Y-74863098D01*
X128433284Y-75209119D01*
X127896635Y-75297543D01*
X127526630Y-75228839D01*
X126965664Y-75047138D01*
X126324103Y-74789056D01*
X126209891Y-74737913D01*
X125350740Y-74374062D01*
X124655364Y-74134597D01*
X124162700Y-74029720D01*
X123911686Y-74069631D01*
X123887658Y-74129544D01*
X124024718Y-74319256D01*
X124182029Y-74399354D01*
X124458734Y-74507084D01*
X124959885Y-74713780D01*
X125601322Y-74984463D01*
X125990601Y-75151028D01*
X127072003Y-75562428D01*
X127926754Y-75763242D01*
X128586583Y-75758340D01*
X128991830Y-75611673D01*
X129327827Y-75257373D01*
X129597840Y-74682055D01*
X129755555Y-74000551D01*
X129777808Y-73662880D01*
X129746753Y-73237512D01*
X129660589Y-72580493D01*
X129533387Y-71789407D01*
X129413224Y-71134298D01*
X129226974Y-70245282D01*
X129068644Y-69656345D01*
X128927208Y-69333405D01*
X128800921Y-69241914D01*
X128658485Y-69398746D01*
X128658485Y-69398746D01*
G37*
X128658485Y-69398746D02*
X128625021Y-69860619D01*
X128699628Y-70614598D01*
X128881405Y-71647748D01*
X129011299Y-72260902D01*
X129183889Y-73388332D01*
X129144923Y-74255950D01*
X128894640Y-74863098D01*
X128433284Y-75209119D01*
X127896635Y-75297543D01*
X127526630Y-75228839D01*
X126965664Y-75047138D01*
X126324103Y-74789056D01*
X126209891Y-74737913D01*
X125350740Y-74374062D01*
X124655364Y-74134597D01*
X124162700Y-74029720D01*
X123911686Y-74069631D01*
X123887658Y-74129544D01*
X124024718Y-74319256D01*
X124182029Y-74399354D01*
X124458734Y-74507084D01*
X124959885Y-74713780D01*
X125601322Y-74984463D01*
X125990601Y-75151028D01*
X127072003Y-75562428D01*
X127926754Y-75763242D01*
X128586583Y-75758340D01*
X128991830Y-75611673D01*
X129327827Y-75257373D01*
X129597840Y-74682055D01*
X129755555Y-74000551D01*
X129777808Y-73662880D01*
X129746753Y-73237512D01*
X129660589Y-72580493D01*
X129533387Y-71789407D01*
X129413224Y-71134298D01*
X129226974Y-70245282D01*
X129068644Y-69656345D01*
X128927208Y-69333405D01*
X128800921Y-69241914D01*
X128658485Y-69398746D01*
G36*
X130559299Y-68601841D02*
X130462036Y-68727503D01*
X130388538Y-68987056D01*
X130333490Y-69421505D01*
X130291579Y-70071854D01*
X130257491Y-70979108D01*
X130227864Y-72101517D01*
X130198255Y-73052832D01*
X130158648Y-73900582D01*
X130113042Y-74581222D01*
X130065434Y-75031205D01*
X130034683Y-75171384D01*
X129997800Y-75411539D01*
X130066502Y-75465755D01*
X130295418Y-75300975D01*
X130483725Y-74816226D01*
X130628060Y-74025893D01*
X130725063Y-72944364D01*
X130744483Y-72564100D01*
X130787031Y-71793770D01*
X130838983Y-71163818D01*
X130893718Y-70739895D01*
X130943849Y-70587609D01*
X131045214Y-70735649D01*
X131183760Y-71115764D01*
X131277179Y-71446040D01*
X131487001Y-72106958D01*
X131778609Y-72822859D01*
X132112667Y-73517347D01*
X132449837Y-74114025D01*
X132750782Y-74536497D01*
X132954496Y-74703531D01*
X133356205Y-74735647D01*
X133528395Y-74697594D01*
X133847204Y-74434621D01*
X134167908Y-73943660D01*
X134432867Y-73327837D01*
X134558900Y-72853764D01*
X134645179Y-72502242D01*
X134734636Y-72385798D01*
X134833696Y-72523062D01*
X134948784Y-72932664D01*
X135086327Y-73633234D01*
X135252747Y-74643402D01*
X135314695Y-75045225D01*
X135450766Y-75927673D01*
X135575459Y-76716340D01*
X135677081Y-77338669D01*
X135743937Y-77722101D01*
X135755244Y-77778669D01*
X135903840Y-78045295D01*
X136126164Y-78158658D01*
X136302263Y-78084012D01*
X136335976Y-77946881D01*
X136305156Y-77686975D01*
X136216016Y-77130090D01*
X136074440Y-76309483D01*
X135886315Y-75258416D01*
X135657527Y-74010148D01*
X135393961Y-72597939D01*
X135319227Y-72201465D01*
X135169332Y-71479247D01*
X135019251Y-70876942D01*
X134890345Y-70474787D01*
X134828865Y-70359545D01*
X134601236Y-70270007D01*
X134411816Y-70499900D01*
X134258280Y-71054454D01*
X134141513Y-71906784D01*
X134032772Y-72768400D01*
X133895006Y-73368719D01*
X133703240Y-73782843D01*
X133432496Y-74085872D01*
X133410732Y-74104208D01*
X133162655Y-74134484D01*
X132869981Y-73847160D01*
X132530818Y-73238722D01*
X132143274Y-72305654D01*
X131705455Y-71044441D01*
X131620100Y-70778964D01*
X131288743Y-69790520D01*
X131014125Y-69082631D01*
X130803352Y-68672101D01*
X130685640Y-68569066D01*
X130559299Y-68601841D01*
X130559299Y-68601841D01*
G37*
X130559299Y-68601841D02*
X130462036Y-68727503D01*
X130388538Y-68987056D01*
X130333490Y-69421505D01*
X130291579Y-70071854D01*
X130257491Y-70979108D01*
X130227864Y-72101517D01*
X130198255Y-73052832D01*
X130158648Y-73900582D01*
X130113042Y-74581222D01*
X130065434Y-75031205D01*
X130034683Y-75171384D01*
X129997800Y-75411539D01*
X130066502Y-75465755D01*
X130295418Y-75300975D01*
X130483725Y-74816226D01*
X130628060Y-74025893D01*
X130725063Y-72944364D01*
X130744483Y-72564100D01*
X130787031Y-71793770D01*
X130838983Y-71163818D01*
X130893718Y-70739895D01*
X130943849Y-70587609D01*
X131045214Y-70735649D01*
X131183760Y-71115764D01*
X131277179Y-71446040D01*
X131487001Y-72106958D01*
X131778609Y-72822859D01*
X132112667Y-73517347D01*
X132449837Y-74114025D01*
X132750782Y-74536497D01*
X132954496Y-74703531D01*
X133356205Y-74735647D01*
X133528395Y-74697594D01*
X133847204Y-74434621D01*
X134167908Y-73943660D01*
X134432867Y-73327837D01*
X134558900Y-72853764D01*
X134645179Y-72502242D01*
X134734636Y-72385798D01*
X134833696Y-72523062D01*
X134948784Y-72932664D01*
X135086327Y-73633234D01*
X135252747Y-74643402D01*
X135314695Y-75045225D01*
X135450766Y-75927673D01*
X135575459Y-76716340D01*
X135677081Y-77338669D01*
X135743937Y-77722101D01*
X135755244Y-77778669D01*
X135903840Y-78045295D01*
X136126164Y-78158658D01*
X136302263Y-78084012D01*
X136335976Y-77946881D01*
X136305156Y-77686975D01*
X136216016Y-77130090D01*
X136074440Y-76309483D01*
X135886315Y-75258416D01*
X135657527Y-74010148D01*
X135393961Y-72597939D01*
X135319227Y-72201465D01*
X135169332Y-71479247D01*
X135019251Y-70876942D01*
X134890345Y-70474787D01*
X134828865Y-70359545D01*
X134601236Y-70270007D01*
X134411816Y-70499900D01*
X134258280Y-71054454D01*
X134141513Y-71906784D01*
X134032772Y-72768400D01*
X133895006Y-73368719D01*
X133703240Y-73782843D01*
X133432496Y-74085872D01*
X133410732Y-74104208D01*
X133162655Y-74134484D01*
X132869981Y-73847160D01*
X132530818Y-73238722D01*
X132143274Y-72305654D01*
X131705455Y-71044441D01*
X131620100Y-70778964D01*
X131288743Y-69790520D01*
X131014125Y-69082631D01*
X130803352Y-68672101D01*
X130685640Y-68569066D01*
X130559299Y-68601841D01*
D13*
G04 #@! TO.C,J3*
X85590000Y-61720000D02*
X85590000Y-64320000D01*
X85590000Y-61720000D02*
X136510000Y-61720000D01*
X136510000Y-61720000D02*
X136510000Y-66920000D01*
X88190000Y-66920000D02*
X136510000Y-66920000D01*
X88190000Y-64320000D02*
X88190000Y-66920000D01*
X85590000Y-64320000D02*
X88190000Y-64320000D01*
X85590000Y-66920000D02*
X86920000Y-66920000D01*
X85590000Y-65590000D02*
X85590000Y-66920000D01*
D12*
G04 #@! TO.C,REF\002A\002A*
G36*
X89431090Y-110018348D02*
X89352546Y-110018778D01*
X89295702Y-110019942D01*
X89256895Y-110022207D01*
X89232462Y-110025940D01*
X89218738Y-110031506D01*
X89212060Y-110039273D01*
X89208764Y-110049605D01*
X89208444Y-110050943D01*
X89203438Y-110075079D01*
X89194171Y-110122701D01*
X89181608Y-110188741D01*
X89166713Y-110268128D01*
X89150449Y-110355796D01*
X89149881Y-110358875D01*
X89133590Y-110444789D01*
X89118348Y-110520696D01*
X89105139Y-110582045D01*
X89094946Y-110624282D01*
X89088752Y-110642855D01*
X89088457Y-110643184D01*
X89070212Y-110652253D01*
X89032595Y-110667367D01*
X88983729Y-110685262D01*
X88983457Y-110685358D01*
X88921907Y-110708493D01*
X88849343Y-110737965D01*
X88780943Y-110767597D01*
X88777706Y-110769062D01*
X88666298Y-110819626D01*
X88419601Y-110651160D01*
X88343923Y-110599803D01*
X88275369Y-110553889D01*
X88217912Y-110516030D01*
X88175524Y-110488837D01*
X88152175Y-110474921D01*
X88149958Y-110473889D01*
X88132990Y-110478484D01*
X88101299Y-110500655D01*
X88053648Y-110541447D01*
X87988802Y-110601905D01*
X87922603Y-110666227D01*
X87858786Y-110729612D01*
X87801671Y-110787451D01*
X87754695Y-110836175D01*
X87721297Y-110872210D01*
X87704915Y-110891984D01*
X87704306Y-110893002D01*
X87702495Y-110906572D01*
X87709317Y-110928733D01*
X87726460Y-110962478D01*
X87755607Y-111010800D01*
X87798445Y-111076692D01*
X87855552Y-111161517D01*
X87906234Y-111236177D01*
X87951539Y-111303140D01*
X87988850Y-111358516D01*
X88015548Y-111398420D01*
X88029015Y-111418962D01*
X88029863Y-111420356D01*
X88028219Y-111440038D01*
X88015755Y-111478293D01*
X87994952Y-111527889D01*
X87987538Y-111543728D01*
X87955186Y-111614290D01*
X87920672Y-111694353D01*
X87892635Y-111763629D01*
X87872432Y-111815045D01*
X87856385Y-111854119D01*
X87847112Y-111874541D01*
X87845959Y-111876114D01*
X87828904Y-111878721D01*
X87788702Y-111885863D01*
X87730698Y-111896523D01*
X87660237Y-111909685D01*
X87582665Y-111924333D01*
X87503328Y-111939449D01*
X87427569Y-111954018D01*
X87360736Y-111967022D01*
X87308172Y-111977445D01*
X87275224Y-111984270D01*
X87267143Y-111986199D01*
X87258795Y-111990962D01*
X87252494Y-112001718D01*
X87247955Y-112022098D01*
X87244896Y-112055734D01*
X87243033Y-112106255D01*
X87242082Y-112177292D01*
X87241760Y-112272476D01*
X87241743Y-112311492D01*
X87241743Y-112628799D01*
X87317943Y-112643839D01*
X87360337Y-112651995D01*
X87423600Y-112663899D01*
X87500038Y-112678116D01*
X87581957Y-112693210D01*
X87604600Y-112697355D01*
X87680194Y-112712053D01*
X87746047Y-112726505D01*
X87796634Y-112739375D01*
X87826426Y-112749322D01*
X87831388Y-112752287D01*
X87843574Y-112773283D01*
X87861047Y-112813967D01*
X87880423Y-112866322D01*
X87884266Y-112877600D01*
X87909661Y-112947523D01*
X87941183Y-113026418D01*
X87972031Y-113097266D01*
X87972183Y-113097595D01*
X88023553Y-113208733D01*
X87854601Y-113457253D01*
X87685648Y-113705772D01*
X87902571Y-113923058D01*
X87968181Y-113987726D01*
X88028021Y-114044733D01*
X88078733Y-114091033D01*
X88116954Y-114123584D01*
X88139325Y-114139343D01*
X88142534Y-114140343D01*
X88161374Y-114132469D01*
X88199820Y-114110578D01*
X88253670Y-114077267D01*
X88318724Y-114035131D01*
X88389060Y-113987943D01*
X88460445Y-113939810D01*
X88524092Y-113897928D01*
X88575959Y-113864871D01*
X88612005Y-113843218D01*
X88628133Y-113835543D01*
X88647811Y-113842037D01*
X88685125Y-113859150D01*
X88732379Y-113883326D01*
X88737388Y-113886013D01*
X88801023Y-113917927D01*
X88844659Y-113933579D01*
X88871798Y-113933745D01*
X88885943Y-113919204D01*
X88886025Y-113919000D01*
X88893095Y-113901779D01*
X88909958Y-113860899D01*
X88935305Y-113799525D01*
X88967829Y-113720819D01*
X89006222Y-113627947D01*
X89049178Y-113524072D01*
X89090778Y-113423502D01*
X89136496Y-113312516D01*
X89178474Y-113209703D01*
X89215452Y-113118215D01*
X89246173Y-113041201D01*
X89269378Y-112981815D01*
X89283810Y-112943209D01*
X89288257Y-112928800D01*
X89277104Y-112912272D01*
X89247931Y-112885930D01*
X89209029Y-112856887D01*
X89098243Y-112765039D01*
X89011649Y-112659759D01*
X88950284Y-112543266D01*
X88915185Y-112417776D01*
X88907392Y-112285507D01*
X88913057Y-112224457D01*
X88943922Y-112097795D01*
X88997080Y-111985941D01*
X89069233Y-111890001D01*
X89157083Y-111811076D01*
X89257335Y-111750270D01*
X89366690Y-111708687D01*
X89481853Y-111687428D01*
X89599525Y-111687599D01*
X89716410Y-111710301D01*
X89829211Y-111756638D01*
X89934631Y-111827713D01*
X89978632Y-111867911D01*
X90063021Y-111971129D01*
X90121778Y-112083925D01*
X90155296Y-112203010D01*
X90163965Y-112325095D01*
X90148177Y-112446893D01*
X90108322Y-112565116D01*
X90044793Y-112676475D01*
X89957979Y-112777684D01*
X89860971Y-112856887D01*
X89820563Y-112887162D01*
X89792018Y-112913219D01*
X89781743Y-112928825D01*
X89787123Y-112945843D01*
X89802425Y-112986500D01*
X89826388Y-113047642D01*
X89857756Y-113126119D01*
X89895268Y-113218780D01*
X89937667Y-113322472D01*
X89979337Y-113423526D01*
X90025310Y-113534607D01*
X90067893Y-113637541D01*
X90105779Y-113729165D01*
X90137660Y-113806316D01*
X90162229Y-113865831D01*
X90178180Y-113904544D01*
X90184090Y-113919000D01*
X90198052Y-113933685D01*
X90225060Y-113933642D01*
X90268587Y-113918099D01*
X90332110Y-113886284D01*
X90332612Y-113886013D01*
X90380440Y-113861323D01*
X90419103Y-113843338D01*
X90440905Y-113835614D01*
X90441867Y-113835543D01*
X90458279Y-113843378D01*
X90494513Y-113865165D01*
X90546526Y-113898328D01*
X90610275Y-113940291D01*
X90680940Y-113987943D01*
X90752884Y-114036191D01*
X90817726Y-114078151D01*
X90871265Y-114111227D01*
X90909303Y-114132821D01*
X90927467Y-114140343D01*
X90944192Y-114130457D01*
X90977820Y-114102826D01*
X91024990Y-114060495D01*
X91082342Y-114006505D01*
X91146516Y-113943899D01*
X91167503Y-113922983D01*
X91384501Y-113705623D01*
X91219332Y-113463220D01*
X91169136Y-113388781D01*
X91125081Y-113321972D01*
X91089638Y-113266665D01*
X91065281Y-113226729D01*
X91054478Y-113206036D01*
X91054162Y-113204563D01*
X91059857Y-113185058D01*
X91075174Y-113145822D01*
X91097463Y-113093430D01*
X91113107Y-113058355D01*
X91142359Y-112991201D01*
X91169906Y-112923358D01*
X91191263Y-112866034D01*
X91197065Y-112848572D01*
X91213548Y-112801938D01*
X91229660Y-112765905D01*
X91238510Y-112752287D01*
X91258040Y-112743952D01*
X91300666Y-112732137D01*
X91360855Y-112718181D01*
X91433078Y-112703422D01*
X91465400Y-112697355D01*
X91547478Y-112682273D01*
X91626205Y-112667669D01*
X91693891Y-112654980D01*
X91742840Y-112645642D01*
X91752057Y-112643839D01*
X91828257Y-112628799D01*
X91828257Y-112311492D01*
X91828086Y-112207154D01*
X91827384Y-112128213D01*
X91825866Y-112071038D01*
X91823251Y-112031999D01*
X91819254Y-112007465D01*
X91813591Y-111993805D01*
X91805980Y-111987389D01*
X91802857Y-111986199D01*
X91784022Y-111981980D01*
X91742412Y-111973562D01*
X91683370Y-111961961D01*
X91612243Y-111948195D01*
X91534375Y-111933280D01*
X91455113Y-111918232D01*
X91379802Y-111904069D01*
X91313787Y-111891806D01*
X91262413Y-111882461D01*
X91231025Y-111877050D01*
X91224041Y-111876114D01*
X91217715Y-111863596D01*
X91203710Y-111830246D01*
X91184645Y-111782377D01*
X91177366Y-111763629D01*
X91148004Y-111691195D01*
X91113429Y-111611170D01*
X91082463Y-111543728D01*
X91059677Y-111492159D01*
X91044518Y-111449785D01*
X91039458Y-111423834D01*
X91040264Y-111420356D01*
X91050959Y-111403936D01*
X91075380Y-111367417D01*
X91110905Y-111314687D01*
X91154913Y-111249635D01*
X91204783Y-111176151D01*
X91214644Y-111161645D01*
X91272508Y-111075704D01*
X91315044Y-111010261D01*
X91343946Y-110962304D01*
X91360910Y-110928820D01*
X91367633Y-110906795D01*
X91365810Y-110893217D01*
X91365764Y-110893131D01*
X91351414Y-110875297D01*
X91319677Y-110840817D01*
X91273990Y-110793268D01*
X91217796Y-110736222D01*
X91154532Y-110673255D01*
X91147398Y-110666227D01*
X91067670Y-110589020D01*
X91006143Y-110532330D01*
X90961579Y-110495110D01*
X90932743Y-110476315D01*
X90920042Y-110473889D01*
X90901506Y-110484471D01*
X90863039Y-110508916D01*
X90808614Y-110544612D01*
X90742202Y-110588947D01*
X90667775Y-110639311D01*
X90650399Y-110651160D01*
X90403703Y-110819626D01*
X90292294Y-110769062D01*
X90224543Y-110739595D01*
X90151817Y-110709959D01*
X90089297Y-110686330D01*
X90086543Y-110685358D01*
X90037640Y-110667457D01*
X89999943Y-110652320D01*
X89981575Y-110643210D01*
X89981544Y-110643184D01*
X89975715Y-110626717D01*
X89965808Y-110586219D01*
X89952805Y-110526242D01*
X89937691Y-110451340D01*
X89921448Y-110366064D01*
X89920119Y-110358875D01*
X89903825Y-110271014D01*
X89888867Y-110191260D01*
X89876209Y-110124681D01*
X89866814Y-110076347D01*
X89861646Y-110051325D01*
X89861556Y-110050943D01*
X89858411Y-110040299D01*
X89852296Y-110032262D01*
X89839547Y-110026467D01*
X89816500Y-110022547D01*
X89779491Y-110020135D01*
X89724856Y-110018865D01*
X89648933Y-110018371D01*
X89548056Y-110018286D01*
X89535000Y-110018286D01*
X89431090Y-110018348D01*
X89431090Y-110018348D01*
G37*
X89431090Y-110018348D02*
X89352546Y-110018778D01*
X89295702Y-110019942D01*
X89256895Y-110022207D01*
X89232462Y-110025940D01*
X89218738Y-110031506D01*
X89212060Y-110039273D01*
X89208764Y-110049605D01*
X89208444Y-110050943D01*
X89203438Y-110075079D01*
X89194171Y-110122701D01*
X89181608Y-110188741D01*
X89166713Y-110268128D01*
X89150449Y-110355796D01*
X89149881Y-110358875D01*
X89133590Y-110444789D01*
X89118348Y-110520696D01*
X89105139Y-110582045D01*
X89094946Y-110624282D01*
X89088752Y-110642855D01*
X89088457Y-110643184D01*
X89070212Y-110652253D01*
X89032595Y-110667367D01*
X88983729Y-110685262D01*
X88983457Y-110685358D01*
X88921907Y-110708493D01*
X88849343Y-110737965D01*
X88780943Y-110767597D01*
X88777706Y-110769062D01*
X88666298Y-110819626D01*
X88419601Y-110651160D01*
X88343923Y-110599803D01*
X88275369Y-110553889D01*
X88217912Y-110516030D01*
X88175524Y-110488837D01*
X88152175Y-110474921D01*
X88149958Y-110473889D01*
X88132990Y-110478484D01*
X88101299Y-110500655D01*
X88053648Y-110541447D01*
X87988802Y-110601905D01*
X87922603Y-110666227D01*
X87858786Y-110729612D01*
X87801671Y-110787451D01*
X87754695Y-110836175D01*
X87721297Y-110872210D01*
X87704915Y-110891984D01*
X87704306Y-110893002D01*
X87702495Y-110906572D01*
X87709317Y-110928733D01*
X87726460Y-110962478D01*
X87755607Y-111010800D01*
X87798445Y-111076692D01*
X87855552Y-111161517D01*
X87906234Y-111236177D01*
X87951539Y-111303140D01*
X87988850Y-111358516D01*
X88015548Y-111398420D01*
X88029015Y-111418962D01*
X88029863Y-111420356D01*
X88028219Y-111440038D01*
X88015755Y-111478293D01*
X87994952Y-111527889D01*
X87987538Y-111543728D01*
X87955186Y-111614290D01*
X87920672Y-111694353D01*
X87892635Y-111763629D01*
X87872432Y-111815045D01*
X87856385Y-111854119D01*
X87847112Y-111874541D01*
X87845959Y-111876114D01*
X87828904Y-111878721D01*
X87788702Y-111885863D01*
X87730698Y-111896523D01*
X87660237Y-111909685D01*
X87582665Y-111924333D01*
X87503328Y-111939449D01*
X87427569Y-111954018D01*
X87360736Y-111967022D01*
X87308172Y-111977445D01*
X87275224Y-111984270D01*
X87267143Y-111986199D01*
X87258795Y-111990962D01*
X87252494Y-112001718D01*
X87247955Y-112022098D01*
X87244896Y-112055734D01*
X87243033Y-112106255D01*
X87242082Y-112177292D01*
X87241760Y-112272476D01*
X87241743Y-112311492D01*
X87241743Y-112628799D01*
X87317943Y-112643839D01*
X87360337Y-112651995D01*
X87423600Y-112663899D01*
X87500038Y-112678116D01*
X87581957Y-112693210D01*
X87604600Y-112697355D01*
X87680194Y-112712053D01*
X87746047Y-112726505D01*
X87796634Y-112739375D01*
X87826426Y-112749322D01*
X87831388Y-112752287D01*
X87843574Y-112773283D01*
X87861047Y-112813967D01*
X87880423Y-112866322D01*
X87884266Y-112877600D01*
X87909661Y-112947523D01*
X87941183Y-113026418D01*
X87972031Y-113097266D01*
X87972183Y-113097595D01*
X88023553Y-113208733D01*
X87854601Y-113457253D01*
X87685648Y-113705772D01*
X87902571Y-113923058D01*
X87968181Y-113987726D01*
X88028021Y-114044733D01*
X88078733Y-114091033D01*
X88116954Y-114123584D01*
X88139325Y-114139343D01*
X88142534Y-114140343D01*
X88161374Y-114132469D01*
X88199820Y-114110578D01*
X88253670Y-114077267D01*
X88318724Y-114035131D01*
X88389060Y-113987943D01*
X88460445Y-113939810D01*
X88524092Y-113897928D01*
X88575959Y-113864871D01*
X88612005Y-113843218D01*
X88628133Y-113835543D01*
X88647811Y-113842037D01*
X88685125Y-113859150D01*
X88732379Y-113883326D01*
X88737388Y-113886013D01*
X88801023Y-113917927D01*
X88844659Y-113933579D01*
X88871798Y-113933745D01*
X88885943Y-113919204D01*
X88886025Y-113919000D01*
X88893095Y-113901779D01*
X88909958Y-113860899D01*
X88935305Y-113799525D01*
X88967829Y-113720819D01*
X89006222Y-113627947D01*
X89049178Y-113524072D01*
X89090778Y-113423502D01*
X89136496Y-113312516D01*
X89178474Y-113209703D01*
X89215452Y-113118215D01*
X89246173Y-113041201D01*
X89269378Y-112981815D01*
X89283810Y-112943209D01*
X89288257Y-112928800D01*
X89277104Y-112912272D01*
X89247931Y-112885930D01*
X89209029Y-112856887D01*
X89098243Y-112765039D01*
X89011649Y-112659759D01*
X88950284Y-112543266D01*
X88915185Y-112417776D01*
X88907392Y-112285507D01*
X88913057Y-112224457D01*
X88943922Y-112097795D01*
X88997080Y-111985941D01*
X89069233Y-111890001D01*
X89157083Y-111811076D01*
X89257335Y-111750270D01*
X89366690Y-111708687D01*
X89481853Y-111687428D01*
X89599525Y-111687599D01*
X89716410Y-111710301D01*
X89829211Y-111756638D01*
X89934631Y-111827713D01*
X89978632Y-111867911D01*
X90063021Y-111971129D01*
X90121778Y-112083925D01*
X90155296Y-112203010D01*
X90163965Y-112325095D01*
X90148177Y-112446893D01*
X90108322Y-112565116D01*
X90044793Y-112676475D01*
X89957979Y-112777684D01*
X89860971Y-112856887D01*
X89820563Y-112887162D01*
X89792018Y-112913219D01*
X89781743Y-112928825D01*
X89787123Y-112945843D01*
X89802425Y-112986500D01*
X89826388Y-113047642D01*
X89857756Y-113126119D01*
X89895268Y-113218780D01*
X89937667Y-113322472D01*
X89979337Y-113423526D01*
X90025310Y-113534607D01*
X90067893Y-113637541D01*
X90105779Y-113729165D01*
X90137660Y-113806316D01*
X90162229Y-113865831D01*
X90178180Y-113904544D01*
X90184090Y-113919000D01*
X90198052Y-113933685D01*
X90225060Y-113933642D01*
X90268587Y-113918099D01*
X90332110Y-113886284D01*
X90332612Y-113886013D01*
X90380440Y-113861323D01*
X90419103Y-113843338D01*
X90440905Y-113835614D01*
X90441867Y-113835543D01*
X90458279Y-113843378D01*
X90494513Y-113865165D01*
X90546526Y-113898328D01*
X90610275Y-113940291D01*
X90680940Y-113987943D01*
X90752884Y-114036191D01*
X90817726Y-114078151D01*
X90871265Y-114111227D01*
X90909303Y-114132821D01*
X90927467Y-114140343D01*
X90944192Y-114130457D01*
X90977820Y-114102826D01*
X91024990Y-114060495D01*
X91082342Y-114006505D01*
X91146516Y-113943899D01*
X91167503Y-113922983D01*
X91384501Y-113705623D01*
X91219332Y-113463220D01*
X91169136Y-113388781D01*
X91125081Y-113321972D01*
X91089638Y-113266665D01*
X91065281Y-113226729D01*
X91054478Y-113206036D01*
X91054162Y-113204563D01*
X91059857Y-113185058D01*
X91075174Y-113145822D01*
X91097463Y-113093430D01*
X91113107Y-113058355D01*
X91142359Y-112991201D01*
X91169906Y-112923358D01*
X91191263Y-112866034D01*
X91197065Y-112848572D01*
X91213548Y-112801938D01*
X91229660Y-112765905D01*
X91238510Y-112752287D01*
X91258040Y-112743952D01*
X91300666Y-112732137D01*
X91360855Y-112718181D01*
X91433078Y-112703422D01*
X91465400Y-112697355D01*
X91547478Y-112682273D01*
X91626205Y-112667669D01*
X91693891Y-112654980D01*
X91742840Y-112645642D01*
X91752057Y-112643839D01*
X91828257Y-112628799D01*
X91828257Y-112311492D01*
X91828086Y-112207154D01*
X91827384Y-112128213D01*
X91825866Y-112071038D01*
X91823251Y-112031999D01*
X91819254Y-112007465D01*
X91813591Y-111993805D01*
X91805980Y-111987389D01*
X91802857Y-111986199D01*
X91784022Y-111981980D01*
X91742412Y-111973562D01*
X91683370Y-111961961D01*
X91612243Y-111948195D01*
X91534375Y-111933280D01*
X91455113Y-111918232D01*
X91379802Y-111904069D01*
X91313787Y-111891806D01*
X91262413Y-111882461D01*
X91231025Y-111877050D01*
X91224041Y-111876114D01*
X91217715Y-111863596D01*
X91203710Y-111830246D01*
X91184645Y-111782377D01*
X91177366Y-111763629D01*
X91148004Y-111691195D01*
X91113429Y-111611170D01*
X91082463Y-111543728D01*
X91059677Y-111492159D01*
X91044518Y-111449785D01*
X91039458Y-111423834D01*
X91040264Y-111420356D01*
X91050959Y-111403936D01*
X91075380Y-111367417D01*
X91110905Y-111314687D01*
X91154913Y-111249635D01*
X91204783Y-111176151D01*
X91214644Y-111161645D01*
X91272508Y-111075704D01*
X91315044Y-111010261D01*
X91343946Y-110962304D01*
X91360910Y-110928820D01*
X91367633Y-110906795D01*
X91365810Y-110893217D01*
X91365764Y-110893131D01*
X91351414Y-110875297D01*
X91319677Y-110840817D01*
X91273990Y-110793268D01*
X91217796Y-110736222D01*
X91154532Y-110673255D01*
X91147398Y-110666227D01*
X91067670Y-110589020D01*
X91006143Y-110532330D01*
X90961579Y-110495110D01*
X90932743Y-110476315D01*
X90920042Y-110473889D01*
X90901506Y-110484471D01*
X90863039Y-110508916D01*
X90808614Y-110544612D01*
X90742202Y-110588947D01*
X90667775Y-110639311D01*
X90650399Y-110651160D01*
X90403703Y-110819626D01*
X90292294Y-110769062D01*
X90224543Y-110739595D01*
X90151817Y-110709959D01*
X90089297Y-110686330D01*
X90086543Y-110685358D01*
X90037640Y-110667457D01*
X89999943Y-110652320D01*
X89981575Y-110643210D01*
X89981544Y-110643184D01*
X89975715Y-110626717D01*
X89965808Y-110586219D01*
X89952805Y-110526242D01*
X89937691Y-110451340D01*
X89921448Y-110366064D01*
X89920119Y-110358875D01*
X89903825Y-110271014D01*
X89888867Y-110191260D01*
X89876209Y-110124681D01*
X89866814Y-110076347D01*
X89861646Y-110051325D01*
X89861556Y-110050943D01*
X89858411Y-110040299D01*
X89852296Y-110032262D01*
X89839547Y-110026467D01*
X89816500Y-110022547D01*
X89779491Y-110020135D01*
X89724856Y-110018865D01*
X89648933Y-110018371D01*
X89548056Y-110018286D01*
X89535000Y-110018286D01*
X89431090Y-110018348D01*
G36*
X86381405Y-114742966D02*
X86323979Y-114780497D01*
X86296281Y-114814096D01*
X86274338Y-114875064D01*
X86272595Y-114923308D01*
X86276543Y-114987816D01*
X86425314Y-115052934D01*
X86497651Y-115086202D01*
X86544916Y-115112964D01*
X86569493Y-115136144D01*
X86573763Y-115158667D01*
X86560111Y-115183455D01*
X86545057Y-115199886D01*
X86501254Y-115226235D01*
X86453611Y-115228081D01*
X86409855Y-115207546D01*
X86377711Y-115166752D01*
X86371962Y-115152347D01*
X86344424Y-115107356D01*
X86312742Y-115088182D01*
X86269286Y-115071779D01*
X86269286Y-115133966D01*
X86273128Y-115176283D01*
X86288177Y-115211969D01*
X86319720Y-115252943D01*
X86324408Y-115258267D01*
X86359494Y-115294720D01*
X86389653Y-115314283D01*
X86427385Y-115323283D01*
X86458665Y-115326230D01*
X86514615Y-115326965D01*
X86554445Y-115317660D01*
X86579292Y-115303846D01*
X86618344Y-115273467D01*
X86645375Y-115240613D01*
X86662483Y-115199294D01*
X86671762Y-115143521D01*
X86675307Y-115067305D01*
X86675590Y-115028622D01*
X86674628Y-114982247D01*
X86586993Y-114982247D01*
X86585977Y-115007126D01*
X86583444Y-115011200D01*
X86566726Y-115005665D01*
X86530751Y-114991017D01*
X86482669Y-114970190D01*
X86472614Y-114965714D01*
X86411848Y-114934814D01*
X86378368Y-114907657D01*
X86371010Y-114882220D01*
X86388609Y-114856481D01*
X86403144Y-114845109D01*
X86455590Y-114822364D01*
X86504678Y-114826122D01*
X86545773Y-114853884D01*
X86574242Y-114903152D01*
X86583369Y-114942257D01*
X86586993Y-114982247D01*
X86674628Y-114982247D01*
X86673715Y-114938249D01*
X86666804Y-114871384D01*
X86653116Y-114822695D01*
X86630904Y-114786849D01*
X86598426Y-114758513D01*
X86584267Y-114749355D01*
X86519947Y-114725507D01*
X86449527Y-114724006D01*
X86381405Y-114742966D01*
X86381405Y-114742966D01*
G37*
X86381405Y-114742966D02*
X86323979Y-114780497D01*
X86296281Y-114814096D01*
X86274338Y-114875064D01*
X86272595Y-114923308D01*
X86276543Y-114987816D01*
X86425314Y-115052934D01*
X86497651Y-115086202D01*
X86544916Y-115112964D01*
X86569493Y-115136144D01*
X86573763Y-115158667D01*
X86560111Y-115183455D01*
X86545057Y-115199886D01*
X86501254Y-115226235D01*
X86453611Y-115228081D01*
X86409855Y-115207546D01*
X86377711Y-115166752D01*
X86371962Y-115152347D01*
X86344424Y-115107356D01*
X86312742Y-115088182D01*
X86269286Y-115071779D01*
X86269286Y-115133966D01*
X86273128Y-115176283D01*
X86288177Y-115211969D01*
X86319720Y-115252943D01*
X86324408Y-115258267D01*
X86359494Y-115294720D01*
X86389653Y-115314283D01*
X86427385Y-115323283D01*
X86458665Y-115326230D01*
X86514615Y-115326965D01*
X86554445Y-115317660D01*
X86579292Y-115303846D01*
X86618344Y-115273467D01*
X86645375Y-115240613D01*
X86662483Y-115199294D01*
X86671762Y-115143521D01*
X86675307Y-115067305D01*
X86675590Y-115028622D01*
X86674628Y-114982247D01*
X86586993Y-114982247D01*
X86585977Y-115007126D01*
X86583444Y-115011200D01*
X86566726Y-115005665D01*
X86530751Y-114991017D01*
X86482669Y-114970190D01*
X86472614Y-114965714D01*
X86411848Y-114934814D01*
X86378368Y-114907657D01*
X86371010Y-114882220D01*
X86388609Y-114856481D01*
X86403144Y-114845109D01*
X86455590Y-114822364D01*
X86504678Y-114826122D01*
X86545773Y-114853884D01*
X86574242Y-114903152D01*
X86583369Y-114942257D01*
X86586993Y-114982247D01*
X86674628Y-114982247D01*
X86673715Y-114938249D01*
X86666804Y-114871384D01*
X86653116Y-114822695D01*
X86630904Y-114786849D01*
X86598426Y-114758513D01*
X86584267Y-114749355D01*
X86519947Y-114725507D01*
X86449527Y-114724006D01*
X86381405Y-114742966D01*
G36*
X86882400Y-114734752D02*
X86865052Y-114742334D01*
X86823644Y-114775128D01*
X86788235Y-114822547D01*
X86766336Y-114873151D01*
X86762771Y-114898098D01*
X86774721Y-114932927D01*
X86800933Y-114951357D01*
X86829036Y-114962516D01*
X86841905Y-114964572D01*
X86848171Y-114949649D01*
X86860544Y-114917175D01*
X86865972Y-114902502D01*
X86896410Y-114851744D01*
X86940480Y-114826427D01*
X86996990Y-114827206D01*
X87001175Y-114828203D01*
X87031345Y-114842507D01*
X87053524Y-114870393D01*
X87068673Y-114915287D01*
X87077750Y-114980615D01*
X87081714Y-115069804D01*
X87082086Y-115117261D01*
X87082270Y-115192071D01*
X87083478Y-115243069D01*
X87086691Y-115275471D01*
X87092891Y-115294495D01*
X87103060Y-115305356D01*
X87118181Y-115313272D01*
X87119054Y-115313670D01*
X87148172Y-115325981D01*
X87162597Y-115330514D01*
X87164814Y-115316809D01*
X87166711Y-115278925D01*
X87168153Y-115221715D01*
X87169002Y-115150027D01*
X87169171Y-115097565D01*
X87168308Y-114996047D01*
X87164930Y-114919032D01*
X87157858Y-114862023D01*
X87145912Y-114820526D01*
X87127910Y-114790043D01*
X87102673Y-114766080D01*
X87077753Y-114749355D01*
X87017829Y-114727097D01*
X86948089Y-114722076D01*
X86882400Y-114734752D01*
X86882400Y-114734752D01*
G37*
X86882400Y-114734752D02*
X86865052Y-114742334D01*
X86823644Y-114775128D01*
X86788235Y-114822547D01*
X86766336Y-114873151D01*
X86762771Y-114898098D01*
X86774721Y-114932927D01*
X86800933Y-114951357D01*
X86829036Y-114962516D01*
X86841905Y-114964572D01*
X86848171Y-114949649D01*
X86860544Y-114917175D01*
X86865972Y-114902502D01*
X86896410Y-114851744D01*
X86940480Y-114826427D01*
X86996990Y-114827206D01*
X87001175Y-114828203D01*
X87031345Y-114842507D01*
X87053524Y-114870393D01*
X87068673Y-114915287D01*
X87077750Y-114980615D01*
X87081714Y-115069804D01*
X87082086Y-115117261D01*
X87082270Y-115192071D01*
X87083478Y-115243069D01*
X87086691Y-115275471D01*
X87092891Y-115294495D01*
X87103060Y-115305356D01*
X87118181Y-115313272D01*
X87119054Y-115313670D01*
X87148172Y-115325981D01*
X87162597Y-115330514D01*
X87164814Y-115316809D01*
X87166711Y-115278925D01*
X87168153Y-115221715D01*
X87169002Y-115150027D01*
X87169171Y-115097565D01*
X87168308Y-114996047D01*
X87164930Y-114919032D01*
X87157858Y-114862023D01*
X87145912Y-114820526D01*
X87127910Y-114790043D01*
X87102673Y-114766080D01*
X87077753Y-114749355D01*
X87017829Y-114727097D01*
X86948089Y-114722076D01*
X86882400Y-114734752D01*
G36*
X87390124Y-114732335D02*
X87348333Y-114751344D01*
X87315531Y-114774378D01*
X87291497Y-114800133D01*
X87274903Y-114833358D01*
X87264423Y-114878800D01*
X87258729Y-114941207D01*
X87256493Y-115025327D01*
X87256257Y-115080721D01*
X87256257Y-115296826D01*
X87293226Y-115313670D01*
X87322344Y-115325981D01*
X87336769Y-115330514D01*
X87339528Y-115317025D01*
X87341718Y-115280653D01*
X87343058Y-115227542D01*
X87343343Y-115185372D01*
X87344566Y-115124447D01*
X87347864Y-115076115D01*
X87352679Y-115046518D01*
X87356504Y-115040229D01*
X87382217Y-115046652D01*
X87422582Y-115063125D01*
X87469321Y-115085458D01*
X87514155Y-115109457D01*
X87548807Y-115130930D01*
X87564998Y-115145685D01*
X87565062Y-115145845D01*
X87563670Y-115173152D01*
X87551182Y-115199219D01*
X87529257Y-115220392D01*
X87497257Y-115227474D01*
X87469908Y-115226649D01*
X87431174Y-115226042D01*
X87410842Y-115235116D01*
X87398631Y-115259092D01*
X87397091Y-115263613D01*
X87391797Y-115297806D01*
X87405953Y-115318568D01*
X87442852Y-115328462D01*
X87482711Y-115330292D01*
X87554438Y-115316727D01*
X87591568Y-115297355D01*
X87637424Y-115251845D01*
X87661744Y-115195983D01*
X87663927Y-115136957D01*
X87643371Y-115081953D01*
X87612451Y-115047486D01*
X87581580Y-115028189D01*
X87533058Y-115003759D01*
X87476515Y-114978985D01*
X87467090Y-114975199D01*
X87404981Y-114947791D01*
X87369178Y-114923634D01*
X87357663Y-114899619D01*
X87368420Y-114872635D01*
X87386886Y-114851543D01*
X87430531Y-114825572D01*
X87478554Y-114823624D01*
X87522594Y-114843637D01*
X87554291Y-114883551D01*
X87558451Y-114893848D01*
X87582673Y-114931724D01*
X87618035Y-114959842D01*
X87662657Y-114982917D01*
X87662657Y-114917485D01*
X87660031Y-114877506D01*
X87648770Y-114845997D01*
X87623801Y-114812378D01*
X87599831Y-114786484D01*
X87562559Y-114749817D01*
X87533599Y-114730121D01*
X87502495Y-114722220D01*
X87467287Y-114720914D01*
X87390124Y-114732335D01*
X87390124Y-114732335D01*
G37*
X87390124Y-114732335D02*
X87348333Y-114751344D01*
X87315531Y-114774378D01*
X87291497Y-114800133D01*
X87274903Y-114833358D01*
X87264423Y-114878800D01*
X87258729Y-114941207D01*
X87256493Y-115025327D01*
X87256257Y-115080721D01*
X87256257Y-115296826D01*
X87293226Y-115313670D01*
X87322344Y-115325981D01*
X87336769Y-115330514D01*
X87339528Y-115317025D01*
X87341718Y-115280653D01*
X87343058Y-115227542D01*
X87343343Y-115185372D01*
X87344566Y-115124447D01*
X87347864Y-115076115D01*
X87352679Y-115046518D01*
X87356504Y-115040229D01*
X87382217Y-115046652D01*
X87422582Y-115063125D01*
X87469321Y-115085458D01*
X87514155Y-115109457D01*
X87548807Y-115130930D01*
X87564998Y-115145685D01*
X87565062Y-115145845D01*
X87563670Y-115173152D01*
X87551182Y-115199219D01*
X87529257Y-115220392D01*
X87497257Y-115227474D01*
X87469908Y-115226649D01*
X87431174Y-115226042D01*
X87410842Y-115235116D01*
X87398631Y-115259092D01*
X87397091Y-115263613D01*
X87391797Y-115297806D01*
X87405953Y-115318568D01*
X87442852Y-115328462D01*
X87482711Y-115330292D01*
X87554438Y-115316727D01*
X87591568Y-115297355D01*
X87637424Y-115251845D01*
X87661744Y-115195983D01*
X87663927Y-115136957D01*
X87643371Y-115081953D01*
X87612451Y-115047486D01*
X87581580Y-115028189D01*
X87533058Y-115003759D01*
X87476515Y-114978985D01*
X87467090Y-114975199D01*
X87404981Y-114947791D01*
X87369178Y-114923634D01*
X87357663Y-114899619D01*
X87368420Y-114872635D01*
X87386886Y-114851543D01*
X87430531Y-114825572D01*
X87478554Y-114823624D01*
X87522594Y-114843637D01*
X87554291Y-114883551D01*
X87558451Y-114893848D01*
X87582673Y-114931724D01*
X87618035Y-114959842D01*
X87662657Y-114982917D01*
X87662657Y-114917485D01*
X87660031Y-114877506D01*
X87648770Y-114845997D01*
X87623801Y-114812378D01*
X87599831Y-114786484D01*
X87562559Y-114749817D01*
X87533599Y-114730121D01*
X87502495Y-114722220D01*
X87467287Y-114720914D01*
X87390124Y-114732335D01*
G36*
X87755167Y-114734663D02*
X87752952Y-114772850D01*
X87751216Y-114830886D01*
X87750101Y-114904180D01*
X87749743Y-114981055D01*
X87749743Y-115241196D01*
X87795674Y-115287127D01*
X87827325Y-115315429D01*
X87855110Y-115326893D01*
X87893085Y-115326168D01*
X87908160Y-115324321D01*
X87955274Y-115318948D01*
X87994244Y-115315869D01*
X88003743Y-115315585D01*
X88035767Y-115317445D01*
X88081568Y-115322114D01*
X88099326Y-115324321D01*
X88142943Y-115327735D01*
X88172255Y-115320320D01*
X88201320Y-115297427D01*
X88211812Y-115287127D01*
X88257743Y-115241196D01*
X88257743Y-114754602D01*
X88220774Y-114737758D01*
X88188941Y-114725282D01*
X88170317Y-114720914D01*
X88165542Y-114734718D01*
X88161079Y-114773286D01*
X88157225Y-114832356D01*
X88154278Y-114907663D01*
X88152857Y-114971286D01*
X88148886Y-115221657D01*
X88114241Y-115226556D01*
X88082732Y-115223131D01*
X88067292Y-115212041D01*
X88062977Y-115191308D01*
X88059292Y-115147145D01*
X88056531Y-115085146D01*
X88054988Y-115010909D01*
X88054765Y-114972706D01*
X88054543Y-114752783D01*
X88008834Y-114736849D01*
X87976482Y-114726015D01*
X87958885Y-114720962D01*
X87958377Y-114720914D01*
X87956612Y-114734648D01*
X87954671Y-114772730D01*
X87952718Y-114830482D01*
X87950916Y-114903227D01*
X87949657Y-114971286D01*
X87945686Y-115221657D01*
X87858600Y-115221657D01*
X87854604Y-114993240D01*
X87850608Y-114764822D01*
X87808153Y-114742868D01*
X87776808Y-114727793D01*
X87758256Y-114720951D01*
X87757721Y-114720914D01*
X87755167Y-114734663D01*
X87755167Y-114734663D01*
G37*
X87755167Y-114734663D02*
X87752952Y-114772850D01*
X87751216Y-114830886D01*
X87750101Y-114904180D01*
X87749743Y-114981055D01*
X87749743Y-115241196D01*
X87795674Y-115287127D01*
X87827325Y-115315429D01*
X87855110Y-115326893D01*
X87893085Y-115326168D01*
X87908160Y-115324321D01*
X87955274Y-115318948D01*
X87994244Y-115315869D01*
X88003743Y-115315585D01*
X88035767Y-115317445D01*
X88081568Y-115322114D01*
X88099326Y-115324321D01*
X88142943Y-115327735D01*
X88172255Y-115320320D01*
X88201320Y-115297427D01*
X88211812Y-115287127D01*
X88257743Y-115241196D01*
X88257743Y-114754602D01*
X88220774Y-114737758D01*
X88188941Y-114725282D01*
X88170317Y-114720914D01*
X88165542Y-114734718D01*
X88161079Y-114773286D01*
X88157225Y-114832356D01*
X88154278Y-114907663D01*
X88152857Y-114971286D01*
X88148886Y-115221657D01*
X88114241Y-115226556D01*
X88082732Y-115223131D01*
X88067292Y-115212041D01*
X88062977Y-115191308D01*
X88059292Y-115147145D01*
X88056531Y-115085146D01*
X88054988Y-115010909D01*
X88054765Y-114972706D01*
X88054543Y-114752783D01*
X88008834Y-114736849D01*
X87976482Y-114726015D01*
X87958885Y-114720962D01*
X87958377Y-114720914D01*
X87956612Y-114734648D01*
X87954671Y-114772730D01*
X87952718Y-114830482D01*
X87950916Y-114903227D01*
X87949657Y-114971286D01*
X87945686Y-115221657D01*
X87858600Y-115221657D01*
X87854604Y-114993240D01*
X87850608Y-114764822D01*
X87808153Y-114742868D01*
X87776808Y-114727793D01*
X87758256Y-114720951D01*
X87757721Y-114720914D01*
X87755167Y-114734663D01*
G36*
X88344883Y-114841358D02*
X88345067Y-114949837D01*
X88345781Y-115033287D01*
X88347325Y-115095704D01*
X88349999Y-115141085D01*
X88354106Y-115173429D01*
X88359945Y-115196733D01*
X88367818Y-115214995D01*
X88373779Y-115225418D01*
X88423145Y-115281945D01*
X88485736Y-115317377D01*
X88554987Y-115330090D01*
X88624332Y-115318463D01*
X88665625Y-115297568D01*
X88708975Y-115261422D01*
X88738519Y-115217276D01*
X88756345Y-115159462D01*
X88764537Y-115082313D01*
X88765698Y-115025714D01*
X88765542Y-115021647D01*
X88664143Y-115021647D01*
X88663524Y-115086550D01*
X88660686Y-115129514D01*
X88654160Y-115157622D01*
X88642477Y-115177953D01*
X88628517Y-115193288D01*
X88581635Y-115222890D01*
X88531299Y-115225419D01*
X88483724Y-115200705D01*
X88480021Y-115197356D01*
X88464217Y-115179935D01*
X88454307Y-115159209D01*
X88448942Y-115128362D01*
X88446772Y-115080577D01*
X88446429Y-115027748D01*
X88447173Y-114961381D01*
X88450252Y-114917106D01*
X88456939Y-114888009D01*
X88468504Y-114867173D01*
X88477987Y-114856107D01*
X88522040Y-114828198D01*
X88572776Y-114824843D01*
X88621204Y-114846159D01*
X88630550Y-114854073D01*
X88646460Y-114871647D01*
X88656390Y-114892587D01*
X88661722Y-114923782D01*
X88663837Y-114972122D01*
X88664143Y-115021647D01*
X88765542Y-115021647D01*
X88762190Y-114934568D01*
X88750274Y-114866086D01*
X88727865Y-114814600D01*
X88692876Y-114774443D01*
X88665625Y-114753861D01*
X88616093Y-114731625D01*
X88558684Y-114721304D01*
X88505318Y-114724067D01*
X88475457Y-114735212D01*
X88463739Y-114738383D01*
X88455963Y-114726557D01*
X88450535Y-114694866D01*
X88446429Y-114646593D01*
X88441933Y-114592829D01*
X88435687Y-114560482D01*
X88424324Y-114541985D01*
X88404472Y-114529770D01*
X88392000Y-114524362D01*
X88344829Y-114504601D01*
X88344883Y-114841358D01*
X88344883Y-114841358D01*
G37*
X88344883Y-114841358D02*
X88345067Y-114949837D01*
X88345781Y-115033287D01*
X88347325Y-115095704D01*
X88349999Y-115141085D01*
X88354106Y-115173429D01*
X88359945Y-115196733D01*
X88367818Y-115214995D01*
X88373779Y-115225418D01*
X88423145Y-115281945D01*
X88485736Y-115317377D01*
X88554987Y-115330090D01*
X88624332Y-115318463D01*
X88665625Y-115297568D01*
X88708975Y-115261422D01*
X88738519Y-115217276D01*
X88756345Y-115159462D01*
X88764537Y-115082313D01*
X88765698Y-115025714D01*
X88765542Y-115021647D01*
X88664143Y-115021647D01*
X88663524Y-115086550D01*
X88660686Y-115129514D01*
X88654160Y-115157622D01*
X88642477Y-115177953D01*
X88628517Y-115193288D01*
X88581635Y-115222890D01*
X88531299Y-115225419D01*
X88483724Y-115200705D01*
X88480021Y-115197356D01*
X88464217Y-115179935D01*
X88454307Y-115159209D01*
X88448942Y-115128362D01*
X88446772Y-115080577D01*
X88446429Y-115027748D01*
X88447173Y-114961381D01*
X88450252Y-114917106D01*
X88456939Y-114888009D01*
X88468504Y-114867173D01*
X88477987Y-114856107D01*
X88522040Y-114828198D01*
X88572776Y-114824843D01*
X88621204Y-114846159D01*
X88630550Y-114854073D01*
X88646460Y-114871647D01*
X88656390Y-114892587D01*
X88661722Y-114923782D01*
X88663837Y-114972122D01*
X88664143Y-115021647D01*
X88765542Y-115021647D01*
X88762190Y-114934568D01*
X88750274Y-114866086D01*
X88727865Y-114814600D01*
X88692876Y-114774443D01*
X88665625Y-114753861D01*
X88616093Y-114731625D01*
X88558684Y-114721304D01*
X88505318Y-114724067D01*
X88475457Y-114735212D01*
X88463739Y-114738383D01*
X88455963Y-114726557D01*
X88450535Y-114694866D01*
X88446429Y-114646593D01*
X88441933Y-114592829D01*
X88435687Y-114560482D01*
X88424324Y-114541985D01*
X88404472Y-114529770D01*
X88392000Y-114524362D01*
X88344829Y-114504601D01*
X88344883Y-114841358D01*
G36*
X89005074Y-114725755D02*
X88939142Y-114750084D01*
X88885727Y-114793117D01*
X88864836Y-114823409D01*
X88842061Y-114878994D01*
X88842534Y-114919186D01*
X88866438Y-114946217D01*
X88875283Y-114950813D01*
X88913470Y-114965144D01*
X88932972Y-114961472D01*
X88939578Y-114937407D01*
X88939914Y-114924114D01*
X88952008Y-114875210D01*
X88983529Y-114840999D01*
X89027341Y-114824476D01*
X89076305Y-114828634D01*
X89116106Y-114850227D01*
X89129550Y-114862544D01*
X89139079Y-114877487D01*
X89145515Y-114900075D01*
X89149683Y-114935328D01*
X89152403Y-114988266D01*
X89154498Y-115063907D01*
X89155040Y-115087857D01*
X89157019Y-115169790D01*
X89159269Y-115227455D01*
X89162643Y-115265608D01*
X89167994Y-115289004D01*
X89176176Y-115302398D01*
X89188041Y-115310545D01*
X89195638Y-115314144D01*
X89227898Y-115326452D01*
X89246889Y-115330514D01*
X89253164Y-115316948D01*
X89256994Y-115275934D01*
X89258400Y-115206999D01*
X89257402Y-115109669D01*
X89257092Y-115094657D01*
X89254899Y-115005859D01*
X89252307Y-114941019D01*
X89248618Y-114895067D01*
X89243136Y-114862935D01*
X89235165Y-114839553D01*
X89224007Y-114819852D01*
X89218170Y-114811410D01*
X89184704Y-114774057D01*
X89147273Y-114745003D01*
X89142691Y-114742467D01*
X89075574Y-114722443D01*
X89005074Y-114725755D01*
X89005074Y-114725755D01*
G37*
X89005074Y-114725755D02*
X88939142Y-114750084D01*
X88885727Y-114793117D01*
X88864836Y-114823409D01*
X88842061Y-114878994D01*
X88842534Y-114919186D01*
X88866438Y-114946217D01*
X88875283Y-114950813D01*
X88913470Y-114965144D01*
X88932972Y-114961472D01*
X88939578Y-114937407D01*
X88939914Y-114924114D01*
X88952008Y-114875210D01*
X88983529Y-114840999D01*
X89027341Y-114824476D01*
X89076305Y-114828634D01*
X89116106Y-114850227D01*
X89129550Y-114862544D01*
X89139079Y-114877487D01*
X89145515Y-114900075D01*
X89149683Y-114935328D01*
X89152403Y-114988266D01*
X89154498Y-115063907D01*
X89155040Y-115087857D01*
X89157019Y-115169790D01*
X89159269Y-115227455D01*
X89162643Y-115265608D01*
X89167994Y-115289004D01*
X89176176Y-115302398D01*
X89188041Y-115310545D01*
X89195638Y-115314144D01*
X89227898Y-115326452D01*
X89246889Y-115330514D01*
X89253164Y-115316948D01*
X89256994Y-115275934D01*
X89258400Y-115206999D01*
X89257402Y-115109669D01*
X89257092Y-115094657D01*
X89254899Y-115005859D01*
X89252307Y-114941019D01*
X89248618Y-114895067D01*
X89243136Y-114862935D01*
X89235165Y-114839553D01*
X89224007Y-114819852D01*
X89218170Y-114811410D01*
X89184704Y-114774057D01*
X89147273Y-114745003D01*
X89142691Y-114742467D01*
X89075574Y-114722443D01*
X89005074Y-114725755D01*
G36*
X89495256Y-114726968D02*
X89438384Y-114748087D01*
X89437733Y-114748493D01*
X89402560Y-114774380D01*
X89376593Y-114804633D01*
X89358330Y-114844058D01*
X89346268Y-114897462D01*
X89338904Y-114969651D01*
X89334736Y-115065432D01*
X89334371Y-115079078D01*
X89329124Y-115284842D01*
X89373284Y-115307678D01*
X89405237Y-115323110D01*
X89424530Y-115330423D01*
X89425422Y-115330514D01*
X89428761Y-115317022D01*
X89431413Y-115280626D01*
X89433044Y-115227452D01*
X89433400Y-115184393D01*
X89433408Y-115114641D01*
X89436597Y-115070837D01*
X89447712Y-115049944D01*
X89471499Y-115048925D01*
X89512704Y-115064741D01*
X89574914Y-115093815D01*
X89620659Y-115117963D01*
X89644187Y-115138913D01*
X89651104Y-115161747D01*
X89651114Y-115162877D01*
X89639701Y-115202212D01*
X89605908Y-115223462D01*
X89554191Y-115226539D01*
X89516939Y-115226006D01*
X89497297Y-115236735D01*
X89485048Y-115262505D01*
X89477998Y-115295337D01*
X89488158Y-115313966D01*
X89491983Y-115316632D01*
X89527999Y-115327340D01*
X89578434Y-115328856D01*
X89630374Y-115321759D01*
X89667178Y-115308788D01*
X89718062Y-115265585D01*
X89746986Y-115205446D01*
X89752714Y-115158462D01*
X89748343Y-115116082D01*
X89732525Y-115081488D01*
X89701203Y-115050763D01*
X89650322Y-115019990D01*
X89575824Y-114985252D01*
X89571286Y-114983288D01*
X89504179Y-114952287D01*
X89462768Y-114926862D01*
X89445019Y-114904014D01*
X89448893Y-114880745D01*
X89472357Y-114854056D01*
X89479373Y-114847914D01*
X89526370Y-114824100D01*
X89575067Y-114825103D01*
X89617478Y-114848451D01*
X89645616Y-114891675D01*
X89648231Y-114900160D01*
X89673692Y-114941308D01*
X89705999Y-114961128D01*
X89752714Y-114980770D01*
X89752714Y-114929950D01*
X89738504Y-114856082D01*
X89696325Y-114788327D01*
X89674376Y-114765661D01*
X89624483Y-114736569D01*
X89561033Y-114723400D01*
X89495256Y-114726968D01*
X89495256Y-114726968D01*
G37*
X89495256Y-114726968D02*
X89438384Y-114748087D01*
X89437733Y-114748493D01*
X89402560Y-114774380D01*
X89376593Y-114804633D01*
X89358330Y-114844058D01*
X89346268Y-114897462D01*
X89338904Y-114969651D01*
X89334736Y-115065432D01*
X89334371Y-115079078D01*
X89329124Y-115284842D01*
X89373284Y-115307678D01*
X89405237Y-115323110D01*
X89424530Y-115330423D01*
X89425422Y-115330514D01*
X89428761Y-115317022D01*
X89431413Y-115280626D01*
X89433044Y-115227452D01*
X89433400Y-115184393D01*
X89433408Y-115114641D01*
X89436597Y-115070837D01*
X89447712Y-115049944D01*
X89471499Y-115048925D01*
X89512704Y-115064741D01*
X89574914Y-115093815D01*
X89620659Y-115117963D01*
X89644187Y-115138913D01*
X89651104Y-115161747D01*
X89651114Y-115162877D01*
X89639701Y-115202212D01*
X89605908Y-115223462D01*
X89554191Y-115226539D01*
X89516939Y-115226006D01*
X89497297Y-115236735D01*
X89485048Y-115262505D01*
X89477998Y-115295337D01*
X89488158Y-115313966D01*
X89491983Y-115316632D01*
X89527999Y-115327340D01*
X89578434Y-115328856D01*
X89630374Y-115321759D01*
X89667178Y-115308788D01*
X89718062Y-115265585D01*
X89746986Y-115205446D01*
X89752714Y-115158462D01*
X89748343Y-115116082D01*
X89732525Y-115081488D01*
X89701203Y-115050763D01*
X89650322Y-115019990D01*
X89575824Y-114985252D01*
X89571286Y-114983288D01*
X89504179Y-114952287D01*
X89462768Y-114926862D01*
X89445019Y-114904014D01*
X89448893Y-114880745D01*
X89472357Y-114854056D01*
X89479373Y-114847914D01*
X89526370Y-114824100D01*
X89575067Y-114825103D01*
X89617478Y-114848451D01*
X89645616Y-114891675D01*
X89648231Y-114900160D01*
X89673692Y-114941308D01*
X89705999Y-114961128D01*
X89752714Y-114980770D01*
X89752714Y-114929950D01*
X89738504Y-114856082D01*
X89696325Y-114788327D01*
X89674376Y-114765661D01*
X89624483Y-114736569D01*
X89561033Y-114723400D01*
X89495256Y-114726968D01*
G36*
X90159114Y-114627289D02*
X90154861Y-114686613D01*
X90149975Y-114721572D01*
X90143205Y-114736820D01*
X90133298Y-114737015D01*
X90130086Y-114735195D01*
X90087356Y-114722015D01*
X90031773Y-114722785D01*
X89975263Y-114736333D01*
X89939918Y-114753861D01*
X89903679Y-114781861D01*
X89877187Y-114813549D01*
X89859001Y-114853813D01*
X89847678Y-114907543D01*
X89841778Y-114979626D01*
X89839857Y-115074951D01*
X89839823Y-115093237D01*
X89839800Y-115298646D01*
X89885509Y-115314580D01*
X89917973Y-115325420D01*
X89935785Y-115330468D01*
X89936309Y-115330514D01*
X89938063Y-115316828D01*
X89939556Y-115279076D01*
X89940674Y-115222224D01*
X89941303Y-115151234D01*
X89941400Y-115108073D01*
X89941602Y-115022973D01*
X89942642Y-114961981D01*
X89945169Y-114920177D01*
X89949836Y-114892642D01*
X89957293Y-114874456D01*
X89968189Y-114860698D01*
X89974993Y-114854073D01*
X90021728Y-114827375D01*
X90072728Y-114825375D01*
X90118999Y-114847955D01*
X90127556Y-114856107D01*
X90140107Y-114871436D01*
X90148812Y-114889618D01*
X90154369Y-114915909D01*
X90157474Y-114955562D01*
X90158824Y-115013832D01*
X90159114Y-115094173D01*
X90159114Y-115298646D01*
X90204823Y-115314580D01*
X90237287Y-115325420D01*
X90255099Y-115330468D01*
X90255623Y-115330514D01*
X90256963Y-115316623D01*
X90258172Y-115277439D01*
X90259199Y-115216700D01*
X90259998Y-115138141D01*
X90260519Y-115045498D01*
X90260714Y-114942509D01*
X90260714Y-114545342D01*
X90213543Y-114525444D01*
X90166371Y-114505547D01*
X90159114Y-114627289D01*
X90159114Y-114627289D01*
G37*
X90159114Y-114627289D02*
X90154861Y-114686613D01*
X90149975Y-114721572D01*
X90143205Y-114736820D01*
X90133298Y-114737015D01*
X90130086Y-114735195D01*
X90087356Y-114722015D01*
X90031773Y-114722785D01*
X89975263Y-114736333D01*
X89939918Y-114753861D01*
X89903679Y-114781861D01*
X89877187Y-114813549D01*
X89859001Y-114853813D01*
X89847678Y-114907543D01*
X89841778Y-114979626D01*
X89839857Y-115074951D01*
X89839823Y-115093237D01*
X89839800Y-115298646D01*
X89885509Y-115314580D01*
X89917973Y-115325420D01*
X89935785Y-115330468D01*
X89936309Y-115330514D01*
X89938063Y-115316828D01*
X89939556Y-115279076D01*
X89940674Y-115222224D01*
X89941303Y-115151234D01*
X89941400Y-115108073D01*
X89941602Y-115022973D01*
X89942642Y-114961981D01*
X89945169Y-114920177D01*
X89949836Y-114892642D01*
X89957293Y-114874456D01*
X89968189Y-114860698D01*
X89974993Y-114854073D01*
X90021728Y-114827375D01*
X90072728Y-114825375D01*
X90118999Y-114847955D01*
X90127556Y-114856107D01*
X90140107Y-114871436D01*
X90148812Y-114889618D01*
X90154369Y-114915909D01*
X90157474Y-114955562D01*
X90158824Y-115013832D01*
X90159114Y-115094173D01*
X90159114Y-115298646D01*
X90204823Y-115314580D01*
X90237287Y-115325420D01*
X90255099Y-115330468D01*
X90255623Y-115330514D01*
X90256963Y-115316623D01*
X90258172Y-115277439D01*
X90259199Y-115216700D01*
X90259998Y-115138141D01*
X90260519Y-115045498D01*
X90260714Y-114942509D01*
X90260714Y-114545342D01*
X90213543Y-114525444D01*
X90166371Y-114505547D01*
X90159114Y-114627289D01*
G36*
X91366697Y-114707239D02*
X91309473Y-114745735D01*
X91265251Y-114801335D01*
X91238833Y-114872086D01*
X91233490Y-114924162D01*
X91234097Y-114945893D01*
X91239178Y-114962531D01*
X91253145Y-114977437D01*
X91280411Y-114993973D01*
X91325388Y-115015498D01*
X91392489Y-115045374D01*
X91392829Y-115045524D01*
X91454593Y-115073813D01*
X91505241Y-115098933D01*
X91539596Y-115118179D01*
X91552482Y-115128848D01*
X91552486Y-115128934D01*
X91541128Y-115152166D01*
X91514569Y-115177774D01*
X91484077Y-115196221D01*
X91468630Y-115199886D01*
X91426485Y-115187212D01*
X91390192Y-115155471D01*
X91372483Y-115120572D01*
X91355448Y-115094845D01*
X91322078Y-115065546D01*
X91282851Y-115040235D01*
X91248244Y-115026471D01*
X91241007Y-115025714D01*
X91232861Y-115038160D01*
X91232370Y-115069972D01*
X91238357Y-115112866D01*
X91249643Y-115158558D01*
X91265050Y-115198761D01*
X91265829Y-115200322D01*
X91312196Y-115265062D01*
X91372289Y-115309097D01*
X91440535Y-115330711D01*
X91511362Y-115328185D01*
X91579196Y-115299804D01*
X91582212Y-115297808D01*
X91635573Y-115249448D01*
X91670660Y-115186352D01*
X91690078Y-115103387D01*
X91692684Y-115080078D01*
X91697299Y-114970055D01*
X91691767Y-114918748D01*
X91552486Y-114918748D01*
X91550676Y-114950753D01*
X91540778Y-114960093D01*
X91516102Y-114953105D01*
X91477205Y-114936587D01*
X91433725Y-114915881D01*
X91432644Y-114915333D01*
X91395791Y-114895949D01*
X91381000Y-114883013D01*
X91384647Y-114869451D01*
X91400005Y-114851632D01*
X91439077Y-114825845D01*
X91481154Y-114823950D01*
X91518897Y-114842717D01*
X91544966Y-114878915D01*
X91552486Y-114918748D01*
X91691767Y-114918748D01*
X91687806Y-114882027D01*
X91663450Y-114812212D01*
X91629544Y-114763302D01*
X91568347Y-114713878D01*
X91500937Y-114689359D01*
X91432120Y-114687797D01*
X91366697Y-114707239D01*
X91366697Y-114707239D01*
G37*
X91366697Y-114707239D02*
X91309473Y-114745735D01*
X91265251Y-114801335D01*
X91238833Y-114872086D01*
X91233490Y-114924162D01*
X91234097Y-114945893D01*
X91239178Y-114962531D01*
X91253145Y-114977437D01*
X91280411Y-114993973D01*
X91325388Y-115015498D01*
X91392489Y-115045374D01*
X91392829Y-115045524D01*
X91454593Y-115073813D01*
X91505241Y-115098933D01*
X91539596Y-115118179D01*
X91552482Y-115128848D01*
X91552486Y-115128934D01*
X91541128Y-115152166D01*
X91514569Y-115177774D01*
X91484077Y-115196221D01*
X91468630Y-115199886D01*
X91426485Y-115187212D01*
X91390192Y-115155471D01*
X91372483Y-115120572D01*
X91355448Y-115094845D01*
X91322078Y-115065546D01*
X91282851Y-115040235D01*
X91248244Y-115026471D01*
X91241007Y-115025714D01*
X91232861Y-115038160D01*
X91232370Y-115069972D01*
X91238357Y-115112866D01*
X91249643Y-115158558D01*
X91265050Y-115198761D01*
X91265829Y-115200322D01*
X91312196Y-115265062D01*
X91372289Y-115309097D01*
X91440535Y-115330711D01*
X91511362Y-115328185D01*
X91579196Y-115299804D01*
X91582212Y-115297808D01*
X91635573Y-115249448D01*
X91670660Y-115186352D01*
X91690078Y-115103387D01*
X91692684Y-115080078D01*
X91697299Y-114970055D01*
X91691767Y-114918748D01*
X91552486Y-114918748D01*
X91550676Y-114950753D01*
X91540778Y-114960093D01*
X91516102Y-114953105D01*
X91477205Y-114936587D01*
X91433725Y-114915881D01*
X91432644Y-114915333D01*
X91395791Y-114895949D01*
X91381000Y-114883013D01*
X91384647Y-114869451D01*
X91400005Y-114851632D01*
X91439077Y-114825845D01*
X91481154Y-114823950D01*
X91518897Y-114842717D01*
X91544966Y-114878915D01*
X91552486Y-114918748D01*
X91691767Y-114918748D01*
X91687806Y-114882027D01*
X91663450Y-114812212D01*
X91629544Y-114763302D01*
X91568347Y-114713878D01*
X91500937Y-114689359D01*
X91432120Y-114687797D01*
X91366697Y-114707239D01*
G36*
X92493885Y-114697962D02*
X92425855Y-114733733D01*
X92375649Y-114791301D01*
X92357815Y-114828312D01*
X92343937Y-114883882D01*
X92336833Y-114954096D01*
X92336160Y-115030727D01*
X92341573Y-115105552D01*
X92352730Y-115170342D01*
X92369286Y-115216873D01*
X92374374Y-115224887D01*
X92434645Y-115284707D01*
X92506231Y-115320535D01*
X92583908Y-115331020D01*
X92662452Y-115314810D01*
X92684311Y-115305092D01*
X92726878Y-115275143D01*
X92764237Y-115235433D01*
X92767768Y-115230397D01*
X92782119Y-115206124D01*
X92791606Y-115180178D01*
X92797210Y-115146022D01*
X92799914Y-115097119D01*
X92800701Y-115026935D01*
X92800714Y-115011200D01*
X92800678Y-115006192D01*
X92655571Y-115006192D01*
X92654727Y-115072430D01*
X92651404Y-115116386D01*
X92644417Y-115144779D01*
X92632584Y-115164325D01*
X92626543Y-115170857D01*
X92591814Y-115195680D01*
X92558097Y-115194548D01*
X92524005Y-115173016D01*
X92503671Y-115150029D01*
X92491629Y-115116478D01*
X92484866Y-115063569D01*
X92484402Y-115057399D01*
X92483248Y-114961513D01*
X92495312Y-114890299D01*
X92520430Y-114844194D01*
X92558440Y-114823635D01*
X92572008Y-114822514D01*
X92607636Y-114828152D01*
X92632006Y-114847686D01*
X92646907Y-114885042D01*
X92654125Y-114944150D01*
X92655571Y-115006192D01*
X92800678Y-115006192D01*
X92800174Y-114936413D01*
X92797904Y-114884159D01*
X92792932Y-114847949D01*
X92784287Y-114821299D01*
X92770995Y-114797722D01*
X92768057Y-114793338D01*
X92718687Y-114734249D01*
X92664891Y-114699947D01*
X92599398Y-114686331D01*
X92577158Y-114685665D01*
X92493885Y-114697962D01*
X92493885Y-114697962D01*
G37*
X92493885Y-114697962D02*
X92425855Y-114733733D01*
X92375649Y-114791301D01*
X92357815Y-114828312D01*
X92343937Y-114883882D01*
X92336833Y-114954096D01*
X92336160Y-115030727D01*
X92341573Y-115105552D01*
X92352730Y-115170342D01*
X92369286Y-115216873D01*
X92374374Y-115224887D01*
X92434645Y-115284707D01*
X92506231Y-115320535D01*
X92583908Y-115331020D01*
X92662452Y-115314810D01*
X92684311Y-115305092D01*
X92726878Y-115275143D01*
X92764237Y-115235433D01*
X92767768Y-115230397D01*
X92782119Y-115206124D01*
X92791606Y-115180178D01*
X92797210Y-115146022D01*
X92799914Y-115097119D01*
X92800701Y-115026935D01*
X92800714Y-115011200D01*
X92800678Y-115006192D01*
X92655571Y-115006192D01*
X92654727Y-115072430D01*
X92651404Y-115116386D01*
X92644417Y-115144779D01*
X92632584Y-115164325D01*
X92626543Y-115170857D01*
X92591814Y-115195680D01*
X92558097Y-115194548D01*
X92524005Y-115173016D01*
X92503671Y-115150029D01*
X92491629Y-115116478D01*
X92484866Y-115063569D01*
X92484402Y-115057399D01*
X92483248Y-114961513D01*
X92495312Y-114890299D01*
X92520430Y-114844194D01*
X92558440Y-114823635D01*
X92572008Y-114822514D01*
X92607636Y-114828152D01*
X92632006Y-114847686D01*
X92646907Y-114885042D01*
X92654125Y-114944150D01*
X92655571Y-115006192D01*
X92800678Y-115006192D01*
X92800174Y-114936413D01*
X92797904Y-114884159D01*
X92792932Y-114847949D01*
X92784287Y-114821299D01*
X92770995Y-114797722D01*
X92768057Y-114793338D01*
X92718687Y-114734249D01*
X92664891Y-114699947D01*
X92599398Y-114686331D01*
X92577158Y-114685665D01*
X92493885Y-114697962D01*
G36*
X90818907Y-114703780D02*
X90772328Y-114730723D01*
X90739943Y-114757466D01*
X90716258Y-114785484D01*
X90699941Y-114819748D01*
X90689661Y-114865227D01*
X90684086Y-114926892D01*
X90681884Y-115009711D01*
X90681629Y-115069246D01*
X90681629Y-115288391D01*
X90743314Y-115316044D01*
X90805000Y-115343697D01*
X90812257Y-115103670D01*
X90815256Y-115014028D01*
X90818402Y-114948962D01*
X90822299Y-114904026D01*
X90827553Y-114874770D01*
X90834769Y-114856748D01*
X90844550Y-114845511D01*
X90847688Y-114843079D01*
X90895239Y-114824083D01*
X90943303Y-114831600D01*
X90971914Y-114851543D01*
X90983553Y-114865675D01*
X90991609Y-114884220D01*
X90996729Y-114912334D01*
X90999559Y-114955173D01*
X91000744Y-115017895D01*
X91000943Y-115083261D01*
X91000982Y-115165268D01*
X91002386Y-115223316D01*
X91007086Y-115262465D01*
X91017013Y-115287780D01*
X91034097Y-115304323D01*
X91060268Y-115317156D01*
X91095225Y-115330491D01*
X91133404Y-115345007D01*
X91128859Y-115087389D01*
X91127029Y-114994519D01*
X91124888Y-114925889D01*
X91121819Y-114876711D01*
X91117206Y-114842198D01*
X91110432Y-114817562D01*
X91100881Y-114798016D01*
X91089366Y-114780770D01*
X91033810Y-114725680D01*
X90966020Y-114693822D01*
X90892287Y-114686191D01*
X90818907Y-114703780D01*
X90818907Y-114703780D01*
G37*
X90818907Y-114703780D02*
X90772328Y-114730723D01*
X90739943Y-114757466D01*
X90716258Y-114785484D01*
X90699941Y-114819748D01*
X90689661Y-114865227D01*
X90684086Y-114926892D01*
X90681884Y-115009711D01*
X90681629Y-115069246D01*
X90681629Y-115288391D01*
X90743314Y-115316044D01*
X90805000Y-115343697D01*
X90812257Y-115103670D01*
X90815256Y-115014028D01*
X90818402Y-114948962D01*
X90822299Y-114904026D01*
X90827553Y-114874770D01*
X90834769Y-114856748D01*
X90844550Y-114845511D01*
X90847688Y-114843079D01*
X90895239Y-114824083D01*
X90943303Y-114831600D01*
X90971914Y-114851543D01*
X90983553Y-114865675D01*
X90991609Y-114884220D01*
X90996729Y-114912334D01*
X90999559Y-114955173D01*
X91000744Y-115017895D01*
X91000943Y-115083261D01*
X91000982Y-115165268D01*
X91002386Y-115223316D01*
X91007086Y-115262465D01*
X91017013Y-115287780D01*
X91034097Y-115304323D01*
X91060268Y-115317156D01*
X91095225Y-115330491D01*
X91133404Y-115345007D01*
X91128859Y-115087389D01*
X91127029Y-114994519D01*
X91124888Y-114925889D01*
X91121819Y-114876711D01*
X91117206Y-114842198D01*
X91110432Y-114817562D01*
X91100881Y-114798016D01*
X91089366Y-114780770D01*
X91033810Y-114725680D01*
X90966020Y-114693822D01*
X90892287Y-114686191D01*
X90818907Y-114703780D01*
G36*
X91935256Y-114695918D02*
X91879799Y-114723568D01*
X91830852Y-114774480D01*
X91817371Y-114793338D01*
X91802686Y-114818015D01*
X91793158Y-114844816D01*
X91787707Y-114880587D01*
X91785253Y-114932169D01*
X91784714Y-115000267D01*
X91787148Y-115093588D01*
X91795606Y-115163657D01*
X91811826Y-115215931D01*
X91837546Y-115255869D01*
X91874503Y-115288929D01*
X91877218Y-115290886D01*
X91913640Y-115310908D01*
X91957498Y-115320815D01*
X92013276Y-115323257D01*
X92103952Y-115323257D01*
X92103990Y-115411283D01*
X92104834Y-115460308D01*
X92109976Y-115489065D01*
X92123413Y-115506311D01*
X92149142Y-115520808D01*
X92155321Y-115523769D01*
X92184236Y-115537648D01*
X92206624Y-115546414D01*
X92223271Y-115547171D01*
X92234964Y-115537023D01*
X92242490Y-115513073D01*
X92246634Y-115472426D01*
X92248185Y-115412186D01*
X92247929Y-115329455D01*
X92246651Y-115221339D01*
X92246252Y-115189000D01*
X92244815Y-115077524D01*
X92243528Y-115004603D01*
X92104029Y-115004603D01*
X92103245Y-115066499D01*
X92099760Y-115106997D01*
X92091876Y-115133708D01*
X92077895Y-115154244D01*
X92068403Y-115164260D01*
X92029596Y-115193567D01*
X91995237Y-115195952D01*
X91959784Y-115171750D01*
X91958886Y-115170857D01*
X91944461Y-115152153D01*
X91935687Y-115126732D01*
X91931261Y-115087584D01*
X91929882Y-115027697D01*
X91929857Y-115014430D01*
X91933188Y-114931901D01*
X91944031Y-114874691D01*
X91963660Y-114839766D01*
X91993350Y-114824094D01*
X92010509Y-114822514D01*
X92051234Y-114829926D01*
X92079168Y-114854330D01*
X92095983Y-114898980D01*
X92103350Y-114967130D01*
X92104029Y-115004603D01*
X92243528Y-115004603D01*
X92243292Y-114991245D01*
X92241323Y-114926333D01*
X92238550Y-114878958D01*
X92234612Y-114845290D01*
X92229151Y-114821498D01*
X92221808Y-114803753D01*
X92212223Y-114788224D01*
X92208113Y-114782381D01*
X92153595Y-114727185D01*
X92084664Y-114695890D01*
X92004928Y-114687165D01*
X91935256Y-114695918D01*
X91935256Y-114695918D01*
G37*
X91935256Y-114695918D02*
X91879799Y-114723568D01*
X91830852Y-114774480D01*
X91817371Y-114793338D01*
X91802686Y-114818015D01*
X91793158Y-114844816D01*
X91787707Y-114880587D01*
X91785253Y-114932169D01*
X91784714Y-115000267D01*
X91787148Y-115093588D01*
X91795606Y-115163657D01*
X91811826Y-115215931D01*
X91837546Y-115255869D01*
X91874503Y-115288929D01*
X91877218Y-115290886D01*
X91913640Y-115310908D01*
X91957498Y-115320815D01*
X92013276Y-115323257D01*
X92103952Y-115323257D01*
X92103990Y-115411283D01*
X92104834Y-115460308D01*
X92109976Y-115489065D01*
X92123413Y-115506311D01*
X92149142Y-115520808D01*
X92155321Y-115523769D01*
X92184236Y-115537648D01*
X92206624Y-115546414D01*
X92223271Y-115547171D01*
X92234964Y-115537023D01*
X92242490Y-115513073D01*
X92246634Y-115472426D01*
X92248185Y-115412186D01*
X92247929Y-115329455D01*
X92246651Y-115221339D01*
X92246252Y-115189000D01*
X92244815Y-115077524D01*
X92243528Y-115004603D01*
X92104029Y-115004603D01*
X92103245Y-115066499D01*
X92099760Y-115106997D01*
X92091876Y-115133708D01*
X92077895Y-115154244D01*
X92068403Y-115164260D01*
X92029596Y-115193567D01*
X91995237Y-115195952D01*
X91959784Y-115171750D01*
X91958886Y-115170857D01*
X91944461Y-115152153D01*
X91935687Y-115126732D01*
X91931261Y-115087584D01*
X91929882Y-115027697D01*
X91929857Y-115014430D01*
X91933188Y-114931901D01*
X91944031Y-114874691D01*
X91963660Y-114839766D01*
X91993350Y-114824094D01*
X92010509Y-114822514D01*
X92051234Y-114829926D01*
X92079168Y-114854330D01*
X92095983Y-114898980D01*
X92103350Y-114967130D01*
X92104029Y-115004603D01*
X92243528Y-115004603D01*
X92243292Y-114991245D01*
X92241323Y-114926333D01*
X92238550Y-114878958D01*
X92234612Y-114845290D01*
X92229151Y-114821498D01*
X92221808Y-114803753D01*
X92212223Y-114788224D01*
X92208113Y-114782381D01*
X92153595Y-114727185D01*
X92084664Y-114695890D01*
X92004928Y-114687165D01*
X91935256Y-114695918D01*
G04 #@! TD*
G04 #@! TO.C,J3*
D14*
X83602380Y-63986666D02*
X84316666Y-63986666D01*
X84459523Y-63939047D01*
X84554761Y-63843809D01*
X84602380Y-63700952D01*
X84602380Y-63605714D01*
X83602380Y-64367619D02*
X83602380Y-64986666D01*
X83983333Y-64653333D01*
X83983333Y-64796190D01*
X84030952Y-64891428D01*
X84078571Y-64939047D01*
X84173809Y-64986666D01*
X84411904Y-64986666D01*
X84507142Y-64939047D01*
X84554761Y-64891428D01*
X84602380Y-64796190D01*
X84602380Y-64510476D01*
X84554761Y-64415238D01*
X84507142Y-64367619D01*
G04 #@! TD*
M02*
