G04 #@! TF.GenerationSoftware,KiCad,Pcbnew,(5.0.1)-3*
G04 #@! TF.CreationDate,2018-11-18T15:41:14-05:00*
G04 #@! TF.ProjectId,reef-piHat,726565662D70694861742E6B69636164,rev?*
G04 #@! TF.SameCoordinates,Original*
G04 #@! TF.FileFunction,Legend,Top*
G04 #@! TF.FilePolarity,Positive*
%FSLAX46Y46*%
G04 Gerber Fmt 4.6, Leading zero omitted, Abs format (unit mm)*
G04 Created by KiCad (PCBNEW (5.0.1)-3) date 11/18/2018 3:41:14 PM*
%MOMM*%
%LPD*%
G01*
G04 APERTURE LIST*
%ADD10C,0.300000*%
%ADD11C,0.100000*%
%ADD12C,0.120000*%
%ADD13C,0.150000*%
%ADD14C,0.080000*%
G04 APERTURE END LIST*
D10*
X131972928Y-86598071D02*
X131972928Y-85740928D01*
X131972928Y-86169500D02*
X133472928Y-86169500D01*
X133258642Y-86026642D01*
X133115785Y-85883785D01*
X133044357Y-85740928D01*
X98790071Y-101389571D02*
X97932928Y-101389571D01*
X98361500Y-101389571D02*
X98361500Y-99889571D01*
X98218642Y-100103857D01*
X98075785Y-100246714D01*
X97932928Y-100318142D01*
X138922071Y-93325071D02*
X138064928Y-93325071D01*
X138493500Y-93325071D02*
X138493500Y-91825071D01*
X138350642Y-92039357D01*
X138207785Y-92182214D01*
X138064928Y-92253642D01*
X125523571Y-99357571D02*
X124666428Y-99357571D01*
X125095000Y-99357571D02*
X125095000Y-97857571D01*
X124952142Y-98071857D01*
X124809285Y-98214714D01*
X124666428Y-98286142D01*
X110363071Y-114089642D02*
X111505928Y-114089642D01*
X110934500Y-114661071D02*
X110934500Y-113518214D01*
X124523571Y-112946642D02*
X125666428Y-112946642D01*
X125095000Y-113518071D02*
X125095000Y-112375214D01*
D11*
X78546356Y-63817611D02*
X78546356Y-113817611D01*
X78546356Y-63817611D02*
G75*
G02X81546356Y-60817611I3000000J0D01*
G01*
X140546356Y-60817611D02*
X81546356Y-60817611D01*
X140546356Y-60817611D02*
G75*
G02X143546356Y-63817611I0J-3000000D01*
G01*
X143546356Y-113817611D02*
X143546356Y-63817611D01*
X81546356Y-116817611D02*
G75*
G02X78546356Y-113817611I0J3000000D01*
G01*
X81546356Y-116817611D02*
X140546356Y-116817611D01*
X143546351Y-113822847D02*
G75*
G02X140546356Y-116817611I-2999995J5236D01*
G01*
D12*
G04 #@! TO.C,J15*
X108069500Y-88919500D02*
X108069500Y-87669500D01*
X106819500Y-88919500D02*
X108069500Y-88919500D01*
X98419500Y-83419500D02*
X102719500Y-83419500D01*
X98419500Y-86369500D02*
X98419500Y-83419500D01*
X97669500Y-86369500D02*
X98419500Y-86369500D01*
X107019500Y-83419500D02*
X102719500Y-83419500D01*
X107019500Y-86369500D02*
X107019500Y-83419500D01*
X107769500Y-86369500D02*
X107019500Y-86369500D01*
X97669500Y-88619500D02*
X99469500Y-88619500D01*
X97669500Y-87869500D02*
X97669500Y-88619500D01*
X99469500Y-87869500D02*
X97669500Y-87869500D01*
X99469500Y-88619500D02*
X99469500Y-87869500D01*
X105969500Y-88619500D02*
X107769500Y-88619500D01*
X105969500Y-87869500D02*
X105969500Y-88619500D01*
X107769500Y-87869500D02*
X105969500Y-87869500D01*
X107769500Y-88619500D02*
X107769500Y-87869500D01*
X100969500Y-88619500D02*
X104469500Y-88619500D01*
X100969500Y-87869500D02*
X100969500Y-88619500D01*
X104469500Y-87869500D02*
X100969500Y-87869500D01*
X104469500Y-88619500D02*
X104469500Y-87869500D01*
X97659500Y-88629500D02*
X107779500Y-88629500D01*
X97659500Y-82659500D02*
X97659500Y-88629500D01*
X107779500Y-82659500D02*
X97659500Y-82659500D01*
X107779500Y-88629500D02*
X107779500Y-82659500D01*
G04 #@! TO.C,J2*
X94127000Y-102599500D02*
X94127000Y-96629500D01*
X94127000Y-96629500D02*
X81507000Y-96629500D01*
X81507000Y-96629500D02*
X81507000Y-102599500D01*
X81507000Y-102599500D02*
X94127000Y-102599500D01*
X90817000Y-102589500D02*
X90817000Y-101839500D01*
X90817000Y-101839500D02*
X84817000Y-101839500D01*
X84817000Y-101839500D02*
X84817000Y-102589500D01*
X84817000Y-102589500D02*
X90817000Y-102589500D01*
X94117000Y-102589500D02*
X94117000Y-101839500D01*
X94117000Y-101839500D02*
X92317000Y-101839500D01*
X92317000Y-101839500D02*
X92317000Y-102589500D01*
X92317000Y-102589500D02*
X94117000Y-102589500D01*
X83317000Y-102589500D02*
X83317000Y-101839500D01*
X83317000Y-101839500D02*
X81517000Y-101839500D01*
X81517000Y-101839500D02*
X81517000Y-102589500D01*
X81517000Y-102589500D02*
X83317000Y-102589500D01*
X94117000Y-100339500D02*
X93367000Y-100339500D01*
X93367000Y-100339500D02*
X93367000Y-97389500D01*
X93367000Y-97389500D02*
X87817000Y-97389500D01*
X81517000Y-100339500D02*
X82267000Y-100339500D01*
X82267000Y-100339500D02*
X82267000Y-97389500D01*
X82267000Y-97389500D02*
X87817000Y-97389500D01*
X93167000Y-102889500D02*
X94417000Y-102889500D01*
X94417000Y-102889500D02*
X94417000Y-101639500D01*
G04 #@! TO.C,J1*
X94417000Y-95968000D02*
X94417000Y-94718000D01*
X93167000Y-95968000D02*
X94417000Y-95968000D01*
X82267000Y-90468000D02*
X87817000Y-90468000D01*
X82267000Y-93418000D02*
X82267000Y-90468000D01*
X81517000Y-93418000D02*
X82267000Y-93418000D01*
X93367000Y-90468000D02*
X87817000Y-90468000D01*
X93367000Y-93418000D02*
X93367000Y-90468000D01*
X94117000Y-93418000D02*
X93367000Y-93418000D01*
X81517000Y-95668000D02*
X83317000Y-95668000D01*
X81517000Y-94918000D02*
X81517000Y-95668000D01*
X83317000Y-94918000D02*
X81517000Y-94918000D01*
X83317000Y-95668000D02*
X83317000Y-94918000D01*
X92317000Y-95668000D02*
X94117000Y-95668000D01*
X92317000Y-94918000D02*
X92317000Y-95668000D01*
X94117000Y-94918000D02*
X92317000Y-94918000D01*
X94117000Y-95668000D02*
X94117000Y-94918000D01*
X84817000Y-95668000D02*
X90817000Y-95668000D01*
X84817000Y-94918000D02*
X84817000Y-95668000D01*
X90817000Y-94918000D02*
X84817000Y-94918000D01*
X90817000Y-95668000D02*
X90817000Y-94918000D01*
X81507000Y-95678000D02*
X94127000Y-95678000D01*
X81507000Y-89708000D02*
X81507000Y-95678000D01*
X94127000Y-89708000D02*
X81507000Y-89708000D01*
X94127000Y-95678000D02*
X94127000Y-89708000D01*
G04 #@! TO.C,J4*
X94127000Y-109584500D02*
X94127000Y-103614500D01*
X94127000Y-103614500D02*
X81507000Y-103614500D01*
X81507000Y-103614500D02*
X81507000Y-109584500D01*
X81507000Y-109584500D02*
X94127000Y-109584500D01*
X90817000Y-109574500D02*
X90817000Y-108824500D01*
X90817000Y-108824500D02*
X84817000Y-108824500D01*
X84817000Y-108824500D02*
X84817000Y-109574500D01*
X84817000Y-109574500D02*
X90817000Y-109574500D01*
X94117000Y-109574500D02*
X94117000Y-108824500D01*
X94117000Y-108824500D02*
X92317000Y-108824500D01*
X92317000Y-108824500D02*
X92317000Y-109574500D01*
X92317000Y-109574500D02*
X94117000Y-109574500D01*
X83317000Y-109574500D02*
X83317000Y-108824500D01*
X83317000Y-108824500D02*
X81517000Y-108824500D01*
X81517000Y-108824500D02*
X81517000Y-109574500D01*
X81517000Y-109574500D02*
X83317000Y-109574500D01*
X94117000Y-107324500D02*
X93367000Y-107324500D01*
X93367000Y-107324500D02*
X93367000Y-104374500D01*
X93367000Y-104374500D02*
X87817000Y-104374500D01*
X81517000Y-107324500D02*
X82267000Y-107324500D01*
X82267000Y-107324500D02*
X82267000Y-104374500D01*
X82267000Y-104374500D02*
X87817000Y-104374500D01*
X93167000Y-109874500D02*
X94417000Y-109874500D01*
X94417000Y-109874500D02*
X94417000Y-108624500D01*
G04 #@! TO.C,J8*
X117903000Y-82212500D02*
X111933000Y-82212500D01*
X111933000Y-82212500D02*
X111933000Y-94832500D01*
X111933000Y-94832500D02*
X117903000Y-94832500D01*
X117903000Y-94832500D02*
X117903000Y-82212500D01*
X117893000Y-85522500D02*
X117143000Y-85522500D01*
X117143000Y-85522500D02*
X117143000Y-91522500D01*
X117143000Y-91522500D02*
X117893000Y-91522500D01*
X117893000Y-91522500D02*
X117893000Y-85522500D01*
X117893000Y-82222500D02*
X117143000Y-82222500D01*
X117143000Y-82222500D02*
X117143000Y-84022500D01*
X117143000Y-84022500D02*
X117893000Y-84022500D01*
X117893000Y-84022500D02*
X117893000Y-82222500D01*
X117893000Y-93022500D02*
X117143000Y-93022500D01*
X117143000Y-93022500D02*
X117143000Y-94822500D01*
X117143000Y-94822500D02*
X117893000Y-94822500D01*
X117893000Y-94822500D02*
X117893000Y-93022500D01*
X115643000Y-82222500D02*
X115643000Y-82972500D01*
X115643000Y-82972500D02*
X112693000Y-82972500D01*
X112693000Y-82972500D02*
X112693000Y-88522500D01*
X115643000Y-94822500D02*
X115643000Y-94072500D01*
X115643000Y-94072500D02*
X112693000Y-94072500D01*
X112693000Y-94072500D02*
X112693000Y-88522500D01*
X118193000Y-83172500D02*
X118193000Y-81922500D01*
X118193000Y-81922500D02*
X116943000Y-81922500D01*
G04 #@! TO.C,J10*
X118193000Y-95956000D02*
X116943000Y-95956000D01*
X118193000Y-97206000D02*
X118193000Y-95956000D01*
X112693000Y-108106000D02*
X112693000Y-102556000D01*
X115643000Y-108106000D02*
X112693000Y-108106000D01*
X115643000Y-108856000D02*
X115643000Y-108106000D01*
X112693000Y-97006000D02*
X112693000Y-102556000D01*
X115643000Y-97006000D02*
X112693000Y-97006000D01*
X115643000Y-96256000D02*
X115643000Y-97006000D01*
X117893000Y-108856000D02*
X117893000Y-107056000D01*
X117143000Y-108856000D02*
X117893000Y-108856000D01*
X117143000Y-107056000D02*
X117143000Y-108856000D01*
X117893000Y-107056000D02*
X117143000Y-107056000D01*
X117893000Y-98056000D02*
X117893000Y-96256000D01*
X117143000Y-98056000D02*
X117893000Y-98056000D01*
X117143000Y-96256000D02*
X117143000Y-98056000D01*
X117893000Y-96256000D02*
X117143000Y-96256000D01*
X117893000Y-105556000D02*
X117893000Y-99556000D01*
X117143000Y-105556000D02*
X117893000Y-105556000D01*
X117143000Y-99556000D02*
X117143000Y-105556000D01*
X117893000Y-99556000D02*
X117143000Y-99556000D01*
X117903000Y-108866000D02*
X117903000Y-96246000D01*
X111933000Y-108866000D02*
X117903000Y-108866000D01*
X111933000Y-96246000D02*
X111933000Y-108866000D01*
X117903000Y-96246000D02*
X111933000Y-96246000D01*
G04 #@! TO.C,J11*
X94127000Y-81581000D02*
X94127000Y-75611000D01*
X94127000Y-75611000D02*
X81507000Y-75611000D01*
X81507000Y-75611000D02*
X81507000Y-81581000D01*
X81507000Y-81581000D02*
X94127000Y-81581000D01*
X90817000Y-81571000D02*
X90817000Y-80821000D01*
X90817000Y-80821000D02*
X84817000Y-80821000D01*
X84817000Y-80821000D02*
X84817000Y-81571000D01*
X84817000Y-81571000D02*
X90817000Y-81571000D01*
X94117000Y-81571000D02*
X94117000Y-80821000D01*
X94117000Y-80821000D02*
X92317000Y-80821000D01*
X92317000Y-80821000D02*
X92317000Y-81571000D01*
X92317000Y-81571000D02*
X94117000Y-81571000D01*
X83317000Y-81571000D02*
X83317000Y-80821000D01*
X83317000Y-80821000D02*
X81517000Y-80821000D01*
X81517000Y-80821000D02*
X81517000Y-81571000D01*
X81517000Y-81571000D02*
X83317000Y-81571000D01*
X94117000Y-79321000D02*
X93367000Y-79321000D01*
X93367000Y-79321000D02*
X93367000Y-76371000D01*
X93367000Y-76371000D02*
X87817000Y-76371000D01*
X81517000Y-79321000D02*
X82267000Y-79321000D01*
X82267000Y-79321000D02*
X82267000Y-76371000D01*
X82267000Y-76371000D02*
X87817000Y-76371000D01*
X93167000Y-81871000D02*
X94417000Y-81871000D01*
X94417000Y-81871000D02*
X94417000Y-80621000D01*
G04 #@! TO.C,J12*
X94417000Y-88919500D02*
X94417000Y-87669500D01*
X93167000Y-88919500D02*
X94417000Y-88919500D01*
X82267000Y-83419500D02*
X87817000Y-83419500D01*
X82267000Y-86369500D02*
X82267000Y-83419500D01*
X81517000Y-86369500D02*
X82267000Y-86369500D01*
X93367000Y-83419500D02*
X87817000Y-83419500D01*
X93367000Y-86369500D02*
X93367000Y-83419500D01*
X94117000Y-86369500D02*
X93367000Y-86369500D01*
X81517000Y-88619500D02*
X83317000Y-88619500D01*
X81517000Y-87869500D02*
X81517000Y-88619500D01*
X83317000Y-87869500D02*
X81517000Y-87869500D01*
X83317000Y-88619500D02*
X83317000Y-87869500D01*
X92317000Y-88619500D02*
X94117000Y-88619500D01*
X92317000Y-87869500D02*
X92317000Y-88619500D01*
X94117000Y-87869500D02*
X92317000Y-87869500D01*
X94117000Y-88619500D02*
X94117000Y-87869500D01*
X84817000Y-88619500D02*
X90817000Y-88619500D01*
X84817000Y-87869500D02*
X84817000Y-88619500D01*
X90817000Y-87869500D02*
X84817000Y-87869500D01*
X90817000Y-88619500D02*
X90817000Y-87869500D01*
X81507000Y-88629500D02*
X94127000Y-88629500D01*
X81507000Y-82659500D02*
X81507000Y-88629500D01*
X94127000Y-82659500D02*
X81507000Y-82659500D01*
X94127000Y-88629500D02*
X94127000Y-82659500D01*
G04 #@! TO.C,J13*
X117471500Y-113979000D02*
X117471500Y-111319000D01*
X114871500Y-113979000D02*
X117471500Y-113979000D01*
X114871500Y-111319000D02*
X117471500Y-111319000D01*
X114871500Y-113979000D02*
X114871500Y-111319000D01*
X113601500Y-113979000D02*
X112271500Y-113979000D01*
X112271500Y-113979000D02*
X112271500Y-112649000D01*
G04 #@! TO.C,J14*
X107779500Y-81581000D02*
X107779500Y-75611000D01*
X107779500Y-75611000D02*
X97659500Y-75611000D01*
X97659500Y-75611000D02*
X97659500Y-81581000D01*
X97659500Y-81581000D02*
X107779500Y-81581000D01*
X104469500Y-81571000D02*
X104469500Y-80821000D01*
X104469500Y-80821000D02*
X100969500Y-80821000D01*
X100969500Y-80821000D02*
X100969500Y-81571000D01*
X100969500Y-81571000D02*
X104469500Y-81571000D01*
X107769500Y-81571000D02*
X107769500Y-80821000D01*
X107769500Y-80821000D02*
X105969500Y-80821000D01*
X105969500Y-80821000D02*
X105969500Y-81571000D01*
X105969500Y-81571000D02*
X107769500Y-81571000D01*
X99469500Y-81571000D02*
X99469500Y-80821000D01*
X99469500Y-80821000D02*
X97669500Y-80821000D01*
X97669500Y-80821000D02*
X97669500Y-81571000D01*
X97669500Y-81571000D02*
X99469500Y-81571000D01*
X107769500Y-79321000D02*
X107019500Y-79321000D01*
X107019500Y-79321000D02*
X107019500Y-76371000D01*
X107019500Y-76371000D02*
X102719500Y-76371000D01*
X97669500Y-79321000D02*
X98419500Y-79321000D01*
X98419500Y-79321000D02*
X98419500Y-76371000D01*
X98419500Y-76371000D02*
X102719500Y-76371000D01*
X106819500Y-81871000D02*
X108069500Y-81871000D01*
X108069500Y-81871000D02*
X108069500Y-80621000D01*
G04 #@! TO.C,J16*
X107779500Y-95678000D02*
X107779500Y-89708000D01*
X107779500Y-89708000D02*
X97659500Y-89708000D01*
X97659500Y-89708000D02*
X97659500Y-95678000D01*
X97659500Y-95678000D02*
X107779500Y-95678000D01*
X104469500Y-95668000D02*
X104469500Y-94918000D01*
X104469500Y-94918000D02*
X100969500Y-94918000D01*
X100969500Y-94918000D02*
X100969500Y-95668000D01*
X100969500Y-95668000D02*
X104469500Y-95668000D01*
X107769500Y-95668000D02*
X107769500Y-94918000D01*
X107769500Y-94918000D02*
X105969500Y-94918000D01*
X105969500Y-94918000D02*
X105969500Y-95668000D01*
X105969500Y-95668000D02*
X107769500Y-95668000D01*
X99469500Y-95668000D02*
X99469500Y-94918000D01*
X99469500Y-94918000D02*
X97669500Y-94918000D01*
X97669500Y-94918000D02*
X97669500Y-95668000D01*
X97669500Y-95668000D02*
X99469500Y-95668000D01*
X107769500Y-93418000D02*
X107019500Y-93418000D01*
X107019500Y-93418000D02*
X107019500Y-90468000D01*
X107019500Y-90468000D02*
X102719500Y-90468000D01*
X97669500Y-93418000D02*
X98419500Y-93418000D01*
X98419500Y-93418000D02*
X98419500Y-90468000D01*
X98419500Y-90468000D02*
X102719500Y-90468000D01*
X106819500Y-95968000D02*
X108069500Y-95968000D01*
X108069500Y-95968000D02*
X108069500Y-94718000D01*
G04 #@! TO.C,R5*
X106967233Y-99439000D02*
X107309767Y-99439000D01*
X106967233Y-100459000D02*
X107309767Y-100459000D01*
G04 #@! TO.C,R13*
X96158233Y-72900000D02*
X96500767Y-72900000D01*
X96158233Y-71880000D02*
X96500767Y-71880000D01*
D13*
G04 #@! TO.C,U1*
X97497000Y-99673000D02*
X97497000Y-99898000D01*
X102147000Y-99673000D02*
X102147000Y-99998000D01*
X102147000Y-109623000D02*
X102147000Y-109298000D01*
X97497000Y-109623000D02*
X97497000Y-109298000D01*
X97497000Y-99673000D02*
X102147000Y-99673000D01*
X97497000Y-109623000D02*
X102147000Y-109623000D01*
X97497000Y-99898000D02*
X96422000Y-99898000D01*
D12*
G04 #@! TO.C,U3*
X133148000Y-83167000D02*
X133148000Y-84782000D01*
X133148000Y-84782000D02*
X133868000Y-84782000D01*
X133868000Y-84782000D02*
X133868000Y-92002000D01*
X133868000Y-92002000D02*
X133148000Y-92002000D01*
X121868000Y-84782000D02*
X121148000Y-84782000D01*
X121148000Y-84782000D02*
X121148000Y-92002000D01*
X121148000Y-92002000D02*
X121868000Y-92002000D01*
G04 #@! TO.C,C1*
X106368436Y-97007000D02*
X107572564Y-97007000D01*
X106368436Y-98827000D02*
X107572564Y-98827000D01*
G04 #@! TO.C,J7*
X142300000Y-68266000D02*
X139640000Y-68266000D01*
X142300000Y-91186000D02*
X142300000Y-68266000D01*
X139640000Y-91186000D02*
X139640000Y-68266000D01*
X142300000Y-91186000D02*
X139640000Y-91186000D01*
X142300000Y-92456000D02*
X142300000Y-93786000D01*
X142300000Y-93786000D02*
X140970000Y-93786000D01*
G04 #@! TO.C,J5*
X131505000Y-114169500D02*
X131505000Y-111509500D01*
X128905000Y-114169500D02*
X131505000Y-114169500D01*
X128905000Y-111509500D02*
X131505000Y-111509500D01*
X128905000Y-114169500D02*
X128905000Y-111509500D01*
X127635000Y-114169500D02*
X126305000Y-114169500D01*
X126305000Y-114169500D02*
X126305000Y-112839500D01*
G04 #@! TO.C,J6*
X126241500Y-110232500D02*
X131441500Y-110232500D01*
X126241500Y-100012500D02*
X126241500Y-110232500D01*
X131441500Y-97412500D02*
X131441500Y-110232500D01*
X126241500Y-100012500D02*
X128841500Y-100012500D01*
X128841500Y-100012500D02*
X128841500Y-97412500D01*
X128841500Y-97412500D02*
X131441500Y-97412500D01*
X126241500Y-98742500D02*
X126241500Y-97412500D01*
X126241500Y-97412500D02*
X127571500Y-97412500D01*
G04 #@! TO.C,Q1*
X106478500Y-109687000D02*
X108278500Y-109687000D01*
X108278500Y-106467000D02*
X105328500Y-106467000D01*
G04 #@! TO.C,Q2*
X106618500Y-102877500D02*
X106618500Y-103807500D01*
X106618500Y-106037500D02*
X106618500Y-105107500D01*
X106618500Y-106037500D02*
X109778500Y-106037500D01*
X106618500Y-102877500D02*
X108078500Y-102877500D01*
D13*
G04 #@! TO.C,U2*
X127741500Y-75917500D02*
X127741500Y-75867500D01*
X123591500Y-75917500D02*
X123591500Y-75772500D01*
X123591500Y-70767500D02*
X123591500Y-70912500D01*
X127741500Y-70767500D02*
X127741500Y-70912500D01*
X127741500Y-75917500D02*
X123591500Y-75917500D01*
X127741500Y-70767500D02*
X123591500Y-70767500D01*
X127741500Y-75867500D02*
X129141500Y-75867500D01*
D12*
G04 #@! TO.C,R1*
X125509233Y-76706000D02*
X125851767Y-76706000D01*
X125509233Y-77726000D02*
X125851767Y-77726000D01*
G04 #@! TO.C,R2*
X119448733Y-74932000D02*
X119791267Y-74932000D01*
X119448733Y-73912000D02*
X119791267Y-73912000D01*
G04 #@! TO.C,R3*
X119462733Y-73281000D02*
X119805267Y-73281000D01*
X119462733Y-72261000D02*
X119805267Y-72261000D01*
G04 #@! TO.C,R4*
X119462733Y-70483000D02*
X119805267Y-70483000D01*
X119462733Y-71503000D02*
X119805267Y-71503000D01*
G04 #@! TO.C,R6*
X105471500Y-111666233D02*
X105471500Y-112008767D01*
X106491500Y-111666233D02*
X106491500Y-112008767D01*
G04 #@! TO.C,R7*
X109476000Y-111701733D02*
X109476000Y-112044267D01*
X108456000Y-111701733D02*
X108456000Y-112044267D01*
G04 #@! TD*
G04 #@! TO.C,J15*
D13*
X101933476Y-82954880D02*
X101933476Y-83669166D01*
X101885857Y-83812023D01*
X101790619Y-83907261D01*
X101647761Y-83954880D01*
X101552523Y-83954880D01*
X102933476Y-83954880D02*
X102362047Y-83954880D01*
X102647761Y-83954880D02*
X102647761Y-82954880D01*
X102552523Y-83097738D01*
X102457285Y-83192976D01*
X102362047Y-83240595D01*
X103838238Y-82954880D02*
X103362047Y-82954880D01*
X103314428Y-83431071D01*
X103362047Y-83383452D01*
X103457285Y-83335833D01*
X103695380Y-83335833D01*
X103790619Y-83383452D01*
X103838238Y-83431071D01*
X103885857Y-83526309D01*
X103885857Y-83764404D01*
X103838238Y-83859642D01*
X103790619Y-83907261D01*
X103695380Y-83954880D01*
X103457285Y-83954880D01*
X103362047Y-83907261D01*
X103314428Y-83859642D01*
X95718380Y-87653523D02*
X95718380Y-87082095D01*
X96718380Y-87367809D02*
X95718380Y-87367809D01*
X96670761Y-86367809D02*
X96718380Y-86463047D01*
X96718380Y-86653523D01*
X96670761Y-86748761D01*
X96575523Y-86796380D01*
X96194571Y-86796380D01*
X96099333Y-86748761D01*
X96051714Y-86653523D01*
X96051714Y-86463047D01*
X96099333Y-86367809D01*
X96194571Y-86320190D01*
X96289809Y-86320190D01*
X96385047Y-86796380D01*
X96718380Y-85891619D02*
X96051714Y-85891619D01*
X96146952Y-85891619D02*
X96099333Y-85844000D01*
X96051714Y-85748761D01*
X96051714Y-85605904D01*
X96099333Y-85510666D01*
X96194571Y-85463047D01*
X96718380Y-85463047D01*
X96194571Y-85463047D02*
X96099333Y-85415428D01*
X96051714Y-85320190D01*
X96051714Y-85177333D01*
X96099333Y-85082095D01*
X96194571Y-85034476D01*
X96718380Y-85034476D01*
X96051714Y-84558285D02*
X97051714Y-84558285D01*
X96099333Y-84558285D02*
X96051714Y-84463047D01*
X96051714Y-84272571D01*
X96099333Y-84177333D01*
X96146952Y-84129714D01*
X96242190Y-84082095D01*
X96527904Y-84082095D01*
X96623142Y-84129714D01*
X96670761Y-84177333D01*
X96718380Y-84272571D01*
X96718380Y-84463047D01*
X96670761Y-84558285D01*
X95813619Y-83701142D02*
X95766000Y-83653523D01*
X95718380Y-83558285D01*
X95718380Y-83320190D01*
X95766000Y-83224952D01*
X95813619Y-83177333D01*
X95908857Y-83129714D01*
X96004095Y-83129714D01*
X96146952Y-83177333D01*
X96718380Y-83748761D01*
X96718380Y-83129714D01*
G04 #@! TO.C,J2*
X87483666Y-96861380D02*
X87483666Y-97575666D01*
X87436047Y-97718523D01*
X87340809Y-97813761D01*
X87197952Y-97861380D01*
X87102714Y-97861380D01*
X87912238Y-96956619D02*
X87959857Y-96909000D01*
X88055095Y-96861380D01*
X88293190Y-96861380D01*
X88388428Y-96909000D01*
X88436047Y-96956619D01*
X88483666Y-97051857D01*
X88483666Y-97147095D01*
X88436047Y-97289952D01*
X87864619Y-97861380D01*
X88483666Y-97861380D01*
X80462380Y-101099738D02*
X80462380Y-101575928D01*
X79462380Y-101575928D01*
X80462380Y-100766404D02*
X79795714Y-100766404D01*
X79462380Y-100766404D02*
X79510000Y-100814023D01*
X79557619Y-100766404D01*
X79510000Y-100718785D01*
X79462380Y-100766404D01*
X79557619Y-100766404D01*
X79795714Y-99861642D02*
X80605238Y-99861642D01*
X80700476Y-99909261D01*
X80748095Y-99956880D01*
X80795714Y-100052119D01*
X80795714Y-100194976D01*
X80748095Y-100290214D01*
X80414761Y-99861642D02*
X80462380Y-99956880D01*
X80462380Y-100147357D01*
X80414761Y-100242595D01*
X80367142Y-100290214D01*
X80271904Y-100337833D01*
X79986190Y-100337833D01*
X79890952Y-100290214D01*
X79843333Y-100242595D01*
X79795714Y-100147357D01*
X79795714Y-99956880D01*
X79843333Y-99861642D01*
X80462380Y-99385452D02*
X79462380Y-99385452D01*
X80462380Y-98956880D02*
X79938571Y-98956880D01*
X79843333Y-99004500D01*
X79795714Y-99099738D01*
X79795714Y-99242595D01*
X79843333Y-99337833D01*
X79890952Y-99385452D01*
X79795714Y-98623547D02*
X79795714Y-98242595D01*
X79462380Y-98480690D02*
X80319523Y-98480690D01*
X80414761Y-98433071D01*
X80462380Y-98337833D01*
X80462380Y-98242595D01*
X80462380Y-97385452D02*
X80462380Y-97956880D01*
X80462380Y-97671166D02*
X79462380Y-97671166D01*
X79605238Y-97766404D01*
X79700476Y-97861642D01*
X79748095Y-97956880D01*
G04 #@! TO.C,H1*
X81338095Y-64852380D02*
X81338095Y-63852380D01*
X81338095Y-64328571D02*
X81909523Y-64328571D01*
X81909523Y-64852380D02*
X81909523Y-63852380D01*
X82909523Y-64852380D02*
X82338095Y-64852380D01*
X82623809Y-64852380D02*
X82623809Y-63852380D01*
X82528571Y-63995238D01*
X82433333Y-64090476D01*
X82338095Y-64138095D01*
G04 #@! TO.C,H2*
X139338095Y-64872380D02*
X139338095Y-63872380D01*
X139338095Y-64348571D02*
X139909523Y-64348571D01*
X139909523Y-64872380D02*
X139909523Y-63872380D01*
X140338095Y-63967619D02*
X140385714Y-63920000D01*
X140480952Y-63872380D01*
X140719047Y-63872380D01*
X140814285Y-63920000D01*
X140861904Y-63967619D01*
X140909523Y-64062857D01*
X140909523Y-64158095D01*
X140861904Y-64300952D01*
X140290476Y-64872380D01*
X140909523Y-64872380D01*
G04 #@! TO.C,H3*
X81338095Y-113862380D02*
X81338095Y-112862380D01*
X81338095Y-113338571D02*
X81909523Y-113338571D01*
X81909523Y-113862380D02*
X81909523Y-112862380D01*
X82290476Y-112862380D02*
X82909523Y-112862380D01*
X82576190Y-113243333D01*
X82719047Y-113243333D01*
X82814285Y-113290952D01*
X82861904Y-113338571D01*
X82909523Y-113433809D01*
X82909523Y-113671904D01*
X82861904Y-113767142D01*
X82814285Y-113814761D01*
X82719047Y-113862380D01*
X82433333Y-113862380D01*
X82338095Y-113814761D01*
X82290476Y-113767142D01*
G04 #@! TO.C,H4*
X139328095Y-113852380D02*
X139328095Y-112852380D01*
X139328095Y-113328571D02*
X139899523Y-113328571D01*
X139899523Y-113852380D02*
X139899523Y-112852380D01*
X140804285Y-113185714D02*
X140804285Y-113852380D01*
X140566190Y-112804761D02*
X140328095Y-113519047D01*
X140947142Y-113519047D01*
G04 #@! TO.C,J1*
X87483666Y-89920380D02*
X87483666Y-90634666D01*
X87436047Y-90777523D01*
X87340809Y-90872761D01*
X87197952Y-90920380D01*
X87102714Y-90920380D01*
X88483666Y-90920380D02*
X87912238Y-90920380D01*
X88197952Y-90920380D02*
X88197952Y-89920380D01*
X88102714Y-90063238D01*
X88007476Y-90158476D01*
X87912238Y-90206095D01*
X80462380Y-94122642D02*
X79462380Y-94122642D01*
X79462380Y-93884547D01*
X79510000Y-93741690D01*
X79605238Y-93646452D01*
X79700476Y-93598833D01*
X79890952Y-93551214D01*
X80033809Y-93551214D01*
X80224285Y-93598833D01*
X80319523Y-93646452D01*
X80414761Y-93741690D01*
X80462380Y-93884547D01*
X80462380Y-94122642D01*
X80462380Y-92979785D02*
X80414761Y-93075023D01*
X80367142Y-93122642D01*
X80271904Y-93170261D01*
X79986190Y-93170261D01*
X79890952Y-93122642D01*
X79843333Y-93075023D01*
X79795714Y-92979785D01*
X79795714Y-92836928D01*
X79843333Y-92741690D01*
X79890952Y-92694071D01*
X79986190Y-92646452D01*
X80271904Y-92646452D01*
X80367142Y-92694071D01*
X80414761Y-92741690D01*
X80462380Y-92836928D01*
X80462380Y-92979785D01*
X80414761Y-92265500D02*
X80462380Y-92170261D01*
X80462380Y-91979785D01*
X80414761Y-91884547D01*
X80319523Y-91836928D01*
X80271904Y-91836928D01*
X80176666Y-91884547D01*
X80129047Y-91979785D01*
X80129047Y-92122642D01*
X80081428Y-92217880D01*
X79986190Y-92265500D01*
X79938571Y-92265500D01*
X79843333Y-92217880D01*
X79795714Y-92122642D01*
X79795714Y-91979785D01*
X79843333Y-91884547D01*
X80414761Y-91027404D02*
X80462380Y-91122642D01*
X80462380Y-91313119D01*
X80414761Y-91408357D01*
X80319523Y-91455976D01*
X79938571Y-91455976D01*
X79843333Y-91408357D01*
X79795714Y-91313119D01*
X79795714Y-91122642D01*
X79843333Y-91027404D01*
X79938571Y-90979785D01*
X80033809Y-90979785D01*
X80129047Y-91455976D01*
X80462380Y-90551214D02*
X79795714Y-90551214D01*
X79986190Y-90551214D02*
X79890952Y-90503595D01*
X79843333Y-90455976D01*
X79795714Y-90360738D01*
X79795714Y-90265500D01*
G04 #@! TO.C,J4*
X87487166Y-103846380D02*
X87487166Y-104560666D01*
X87439547Y-104703523D01*
X87344309Y-104798761D01*
X87201452Y-104846380D01*
X87106214Y-104846380D01*
X88391928Y-104179714D02*
X88391928Y-104846380D01*
X88153833Y-103798761D02*
X87915738Y-104513047D01*
X88534785Y-104513047D01*
X80462380Y-108021238D02*
X80462380Y-108497428D01*
X79462380Y-108497428D01*
X80462380Y-107687904D02*
X79795714Y-107687904D01*
X79462380Y-107687904D02*
X79510000Y-107735523D01*
X79557619Y-107687904D01*
X79510000Y-107640285D01*
X79462380Y-107687904D01*
X79557619Y-107687904D01*
X79795714Y-106783142D02*
X80605238Y-106783142D01*
X80700476Y-106830761D01*
X80748095Y-106878380D01*
X80795714Y-106973619D01*
X80795714Y-107116476D01*
X80748095Y-107211714D01*
X80414761Y-106783142D02*
X80462380Y-106878380D01*
X80462380Y-107068857D01*
X80414761Y-107164095D01*
X80367142Y-107211714D01*
X80271904Y-107259333D01*
X79986190Y-107259333D01*
X79890952Y-107211714D01*
X79843333Y-107164095D01*
X79795714Y-107068857D01*
X79795714Y-106878380D01*
X79843333Y-106783142D01*
X80462380Y-106306952D02*
X79462380Y-106306952D01*
X80462380Y-105878380D02*
X79938571Y-105878380D01*
X79843333Y-105926000D01*
X79795714Y-106021238D01*
X79795714Y-106164095D01*
X79843333Y-106259333D01*
X79890952Y-106306952D01*
X79795714Y-105545047D02*
X79795714Y-105164095D01*
X79462380Y-105402190D02*
X80319523Y-105402190D01*
X80414761Y-105354571D01*
X80462380Y-105259333D01*
X80462380Y-105164095D01*
X79557619Y-104878380D02*
X79510000Y-104830761D01*
X79462380Y-104735523D01*
X79462380Y-104497428D01*
X79510000Y-104402190D01*
X79557619Y-104354571D01*
X79652857Y-104306952D01*
X79748095Y-104306952D01*
X79890952Y-104354571D01*
X80462380Y-104926000D01*
X80462380Y-104306952D01*
G04 #@! TO.C,J8*
X112228380Y-88852333D02*
X112942666Y-88852333D01*
X113085523Y-88899952D01*
X113180761Y-88995190D01*
X113228380Y-89138047D01*
X113228380Y-89233285D01*
X112656952Y-88233285D02*
X112609333Y-88328523D01*
X112561714Y-88376142D01*
X112466476Y-88423761D01*
X112418857Y-88423761D01*
X112323619Y-88376142D01*
X112276000Y-88328523D01*
X112228380Y-88233285D01*
X112228380Y-88042809D01*
X112276000Y-87947571D01*
X112323619Y-87899952D01*
X112418857Y-87852333D01*
X112466476Y-87852333D01*
X112561714Y-87899952D01*
X112609333Y-87947571D01*
X112656952Y-88042809D01*
X112656952Y-88233285D01*
X112704571Y-88328523D01*
X112752190Y-88376142D01*
X112847428Y-88423761D01*
X113037904Y-88423761D01*
X113133142Y-88376142D01*
X113180761Y-88328523D01*
X113228380Y-88233285D01*
X113228380Y-88042809D01*
X113180761Y-87947571D01*
X113133142Y-87899952D01*
X113037904Y-87852333D01*
X112847428Y-87852333D01*
X112752190Y-87899952D01*
X112704571Y-87947571D01*
X112656952Y-88042809D01*
X119356166Y-94710047D02*
X119356166Y-94233857D01*
X119641880Y-94805285D02*
X118641880Y-94471952D01*
X119641880Y-94138619D01*
X118641880Y-93948142D02*
X118641880Y-93376714D01*
X119641880Y-93662428D02*
X118641880Y-93662428D01*
X118641880Y-92852904D02*
X118641880Y-92662428D01*
X118689500Y-92567190D01*
X118784738Y-92471952D01*
X118975214Y-92424333D01*
X119308547Y-92424333D01*
X119499023Y-92471952D01*
X119594261Y-92567190D01*
X119641880Y-92662428D01*
X119641880Y-92852904D01*
X119594261Y-92948142D01*
X119499023Y-93043380D01*
X119308547Y-93091000D01*
X118975214Y-93091000D01*
X118784738Y-93043380D01*
X118689500Y-92948142D01*
X118641880Y-92852904D01*
X119641880Y-91471952D02*
X119641880Y-92043380D01*
X119641880Y-91757666D02*
X118641880Y-91757666D01*
X118784738Y-91852904D01*
X118879976Y-91948142D01*
X118927595Y-92043380D01*
G04 #@! TO.C,J10*
X112228380Y-103362023D02*
X112942666Y-103362023D01*
X113085523Y-103409642D01*
X113180761Y-103504880D01*
X113228380Y-103647738D01*
X113228380Y-103742976D01*
X113228380Y-102362023D02*
X113228380Y-102933452D01*
X113228380Y-102647738D02*
X112228380Y-102647738D01*
X112371238Y-102742976D01*
X112466476Y-102838214D01*
X112514095Y-102933452D01*
X112228380Y-101742976D02*
X112228380Y-101647738D01*
X112276000Y-101552500D01*
X112323619Y-101504880D01*
X112418857Y-101457261D01*
X112609333Y-101409642D01*
X112847428Y-101409642D01*
X113037904Y-101457261D01*
X113133142Y-101504880D01*
X113180761Y-101552500D01*
X113228380Y-101647738D01*
X113228380Y-101742976D01*
X113180761Y-101838214D01*
X113133142Y-101885833D01*
X113037904Y-101933452D01*
X112847428Y-101981071D01*
X112609333Y-101981071D01*
X112418857Y-101933452D01*
X112323619Y-101885833D01*
X112276000Y-101838214D01*
X112228380Y-101742976D01*
X119419666Y-108743547D02*
X119419666Y-108267357D01*
X119705380Y-108838785D02*
X118705380Y-108505452D01*
X119705380Y-108172119D01*
X118705380Y-107981642D02*
X118705380Y-107410214D01*
X119705380Y-107695928D02*
X118705380Y-107695928D01*
X118705380Y-106886404D02*
X118705380Y-106695928D01*
X118753000Y-106600690D01*
X118848238Y-106505452D01*
X119038714Y-106457833D01*
X119372047Y-106457833D01*
X119562523Y-106505452D01*
X119657761Y-106600690D01*
X119705380Y-106695928D01*
X119705380Y-106886404D01*
X119657761Y-106981642D01*
X119562523Y-107076880D01*
X119372047Y-107124500D01*
X119038714Y-107124500D01*
X118848238Y-107076880D01*
X118753000Y-106981642D01*
X118705380Y-106886404D01*
X118800619Y-106076880D02*
X118753000Y-106029261D01*
X118705380Y-105934023D01*
X118705380Y-105695928D01*
X118753000Y-105600690D01*
X118800619Y-105553071D01*
X118895857Y-105505452D01*
X118991095Y-105505452D01*
X119133952Y-105553071D01*
X119705380Y-106124500D01*
X119705380Y-105505452D01*
G04 #@! TO.C,J11*
X87007476Y-75906380D02*
X87007476Y-76620666D01*
X86959857Y-76763523D01*
X86864619Y-76858761D01*
X86721761Y-76906380D01*
X86626523Y-76906380D01*
X88007476Y-76906380D02*
X87436047Y-76906380D01*
X87721761Y-76906380D02*
X87721761Y-75906380D01*
X87626523Y-76049238D01*
X87531285Y-76144476D01*
X87436047Y-76192095D01*
X88959857Y-76906380D02*
X88388428Y-76906380D01*
X88674142Y-76906380D02*
X88674142Y-75906380D01*
X88578904Y-76049238D01*
X88483666Y-76144476D01*
X88388428Y-76192095D01*
X79795714Y-79438357D02*
X80795714Y-79438357D01*
X79843333Y-79438357D02*
X79795714Y-79343119D01*
X79795714Y-79152642D01*
X79843333Y-79057404D01*
X79890952Y-79009785D01*
X79986190Y-78962166D01*
X80271904Y-78962166D01*
X80367142Y-79009785D01*
X80414761Y-79057404D01*
X80462380Y-79152642D01*
X80462380Y-79343119D01*
X80414761Y-79438357D01*
X80462380Y-78533595D02*
X79462380Y-78533595D01*
X80462380Y-78105023D02*
X79938571Y-78105023D01*
X79843333Y-78152642D01*
X79795714Y-78247880D01*
X79795714Y-78390738D01*
X79843333Y-78485976D01*
X79890952Y-78533595D01*
X80462380Y-77105023D02*
X80462380Y-77676452D01*
X80462380Y-77390738D02*
X79462380Y-77390738D01*
X79605238Y-77485976D01*
X79700476Y-77581214D01*
X79748095Y-77676452D01*
G04 #@! TO.C,J12*
X87010976Y-83272380D02*
X87010976Y-83986666D01*
X86963357Y-84129523D01*
X86868119Y-84224761D01*
X86725261Y-84272380D01*
X86630023Y-84272380D01*
X88010976Y-84272380D02*
X87439547Y-84272380D01*
X87725261Y-84272380D02*
X87725261Y-83272380D01*
X87630023Y-83415238D01*
X87534785Y-83510476D01*
X87439547Y-83558095D01*
X88391928Y-83367619D02*
X88439547Y-83320000D01*
X88534785Y-83272380D01*
X88772880Y-83272380D01*
X88868119Y-83320000D01*
X88915738Y-83367619D01*
X88963357Y-83462857D01*
X88963357Y-83558095D01*
X88915738Y-83700952D01*
X88344309Y-84272380D01*
X88963357Y-84272380D01*
X79795714Y-86740857D02*
X80795714Y-86740857D01*
X79843333Y-86740857D02*
X79795714Y-86645619D01*
X79795714Y-86455142D01*
X79843333Y-86359904D01*
X79890952Y-86312285D01*
X79986190Y-86264666D01*
X80271904Y-86264666D01*
X80367142Y-86312285D01*
X80414761Y-86359904D01*
X80462380Y-86455142D01*
X80462380Y-86645619D01*
X80414761Y-86740857D01*
X80462380Y-85836095D02*
X79462380Y-85836095D01*
X80462380Y-85407523D02*
X79938571Y-85407523D01*
X79843333Y-85455142D01*
X79795714Y-85550380D01*
X79795714Y-85693238D01*
X79843333Y-85788476D01*
X79890952Y-85836095D01*
X79557619Y-84978952D02*
X79510000Y-84931333D01*
X79462380Y-84836095D01*
X79462380Y-84598000D01*
X79510000Y-84502761D01*
X79557619Y-84455142D01*
X79652857Y-84407523D01*
X79748095Y-84407523D01*
X79890952Y-84455142D01*
X80462380Y-85026571D01*
X80462380Y-84407523D01*
G04 #@! TO.C,J13*
X118133880Y-113649023D02*
X118848166Y-113649023D01*
X118991023Y-113696642D01*
X119086261Y-113791880D01*
X119133880Y-113934738D01*
X119133880Y-114029976D01*
X119133880Y-112649023D02*
X119133880Y-113220452D01*
X119133880Y-112934738D02*
X118133880Y-112934738D01*
X118276738Y-113029976D01*
X118371976Y-113125214D01*
X118419595Y-113220452D01*
X118133880Y-112315690D02*
X118133880Y-111696642D01*
X118514833Y-112029976D01*
X118514833Y-111887119D01*
X118562452Y-111791880D01*
X118610071Y-111744261D01*
X118705309Y-111696642D01*
X118943404Y-111696642D01*
X119038642Y-111744261D01*
X119086261Y-111791880D01*
X119133880Y-111887119D01*
X119133880Y-112172833D01*
X119086261Y-112268071D01*
X119038642Y-112315690D01*
X112577857Y-114704880D02*
X112101666Y-114704880D01*
X112054047Y-115181071D01*
X112101666Y-115133452D01*
X112196904Y-115085833D01*
X112435000Y-115085833D01*
X112530238Y-115133452D01*
X112577857Y-115181071D01*
X112625476Y-115276309D01*
X112625476Y-115514404D01*
X112577857Y-115609642D01*
X112530238Y-115657261D01*
X112435000Y-115704880D01*
X112196904Y-115704880D01*
X112101666Y-115657261D01*
X112054047Y-115609642D01*
X112958809Y-115038214D02*
X113196904Y-115704880D01*
X113435000Y-115038214D01*
X113815952Y-115704880D02*
X113815952Y-114704880D01*
X114196904Y-114704880D01*
X114292142Y-114752500D01*
X114339761Y-114800119D01*
X114387380Y-114895357D01*
X114387380Y-115038214D01*
X114339761Y-115133452D01*
X114292142Y-115181071D01*
X114196904Y-115228690D01*
X113815952Y-115228690D01*
X114958809Y-115704880D02*
X114863571Y-115657261D01*
X114815952Y-115609642D01*
X114768333Y-115514404D01*
X114768333Y-115228690D01*
X114815952Y-115133452D01*
X114863571Y-115085833D01*
X114958809Y-115038214D01*
X115101666Y-115038214D01*
X115196904Y-115085833D01*
X115244523Y-115133452D01*
X115292142Y-115228690D01*
X115292142Y-115514404D01*
X115244523Y-115609642D01*
X115196904Y-115657261D01*
X115101666Y-115704880D01*
X114958809Y-115704880D01*
X115625476Y-115038214D02*
X115815952Y-115704880D01*
X116006428Y-115228690D01*
X116196904Y-115704880D01*
X116387380Y-115038214D01*
X117149285Y-115657261D02*
X117054047Y-115704880D01*
X116863571Y-115704880D01*
X116768333Y-115657261D01*
X116720714Y-115562023D01*
X116720714Y-115181071D01*
X116768333Y-115085833D01*
X116863571Y-115038214D01*
X117054047Y-115038214D01*
X117149285Y-115085833D01*
X117196904Y-115181071D01*
X117196904Y-115276309D01*
X116720714Y-115371547D01*
X117625476Y-115704880D02*
X117625476Y-115038214D01*
X117625476Y-115228690D02*
X117673095Y-115133452D01*
X117720714Y-115085833D01*
X117815952Y-115038214D01*
X117911190Y-115038214D01*
G04 #@! TO.C,J14*
X101933476Y-75906380D02*
X101933476Y-76620666D01*
X101885857Y-76763523D01*
X101790619Y-76858761D01*
X101647761Y-76906380D01*
X101552523Y-76906380D01*
X102933476Y-76906380D02*
X102362047Y-76906380D01*
X102647761Y-76906380D02*
X102647761Y-75906380D01*
X102552523Y-76049238D01*
X102457285Y-76144476D01*
X102362047Y-76192095D01*
X103790619Y-76239714D02*
X103790619Y-76906380D01*
X103552523Y-75858761D02*
X103314428Y-76573047D01*
X103933476Y-76573047D01*
X95654880Y-80732023D02*
X95654880Y-80160595D01*
X96654880Y-80446309D02*
X95654880Y-80446309D01*
X96607261Y-79446309D02*
X96654880Y-79541547D01*
X96654880Y-79732023D01*
X96607261Y-79827261D01*
X96512023Y-79874880D01*
X96131071Y-79874880D01*
X96035833Y-79827261D01*
X95988214Y-79732023D01*
X95988214Y-79541547D01*
X96035833Y-79446309D01*
X96131071Y-79398690D01*
X96226309Y-79398690D01*
X96321547Y-79874880D01*
X96654880Y-78970119D02*
X95988214Y-78970119D01*
X96083452Y-78970119D02*
X96035833Y-78922500D01*
X95988214Y-78827261D01*
X95988214Y-78684404D01*
X96035833Y-78589166D01*
X96131071Y-78541547D01*
X96654880Y-78541547D01*
X96131071Y-78541547D02*
X96035833Y-78493928D01*
X95988214Y-78398690D01*
X95988214Y-78255833D01*
X96035833Y-78160595D01*
X96131071Y-78112976D01*
X96654880Y-78112976D01*
X95988214Y-77636785D02*
X96988214Y-77636785D01*
X96035833Y-77636785D02*
X95988214Y-77541547D01*
X95988214Y-77351071D01*
X96035833Y-77255833D01*
X96083452Y-77208214D01*
X96178690Y-77160595D01*
X96464404Y-77160595D01*
X96559642Y-77208214D01*
X96607261Y-77255833D01*
X96654880Y-77351071D01*
X96654880Y-77541547D01*
X96607261Y-77636785D01*
X96654880Y-76208214D02*
X96654880Y-76779642D01*
X96654880Y-76493928D02*
X95654880Y-76493928D01*
X95797738Y-76589166D01*
X95892976Y-76684404D01*
X95940595Y-76779642D01*
G04 #@! TO.C,J16*
X101933476Y-90003380D02*
X101933476Y-90717666D01*
X101885857Y-90860523D01*
X101790619Y-90955761D01*
X101647761Y-91003380D01*
X101552523Y-91003380D01*
X102933476Y-91003380D02*
X102362047Y-91003380D01*
X102647761Y-91003380D02*
X102647761Y-90003380D01*
X102552523Y-90146238D01*
X102457285Y-90241476D01*
X102362047Y-90289095D01*
X103790619Y-90003380D02*
X103600142Y-90003380D01*
X103504904Y-90051000D01*
X103457285Y-90098619D01*
X103362047Y-90241476D01*
X103314428Y-90431952D01*
X103314428Y-90812904D01*
X103362047Y-90908142D01*
X103409666Y-90955761D01*
X103504904Y-91003380D01*
X103695380Y-91003380D01*
X103790619Y-90955761D01*
X103838238Y-90908142D01*
X103885857Y-90812904D01*
X103885857Y-90574809D01*
X103838238Y-90479571D01*
X103790619Y-90431952D01*
X103695380Y-90384333D01*
X103504904Y-90384333D01*
X103409666Y-90431952D01*
X103362047Y-90479571D01*
X103314428Y-90574809D01*
X95845380Y-95146523D02*
X95845380Y-94575095D01*
X96845380Y-94860809D02*
X95845380Y-94860809D01*
X96797761Y-93860809D02*
X96845380Y-93956047D01*
X96845380Y-94146523D01*
X96797761Y-94241761D01*
X96702523Y-94289380D01*
X96321571Y-94289380D01*
X96226333Y-94241761D01*
X96178714Y-94146523D01*
X96178714Y-93956047D01*
X96226333Y-93860809D01*
X96321571Y-93813190D01*
X96416809Y-93813190D01*
X96512047Y-94289380D01*
X96845380Y-93384619D02*
X96178714Y-93384619D01*
X96273952Y-93384619D02*
X96226333Y-93337000D01*
X96178714Y-93241761D01*
X96178714Y-93098904D01*
X96226333Y-93003666D01*
X96321571Y-92956047D01*
X96845380Y-92956047D01*
X96321571Y-92956047D02*
X96226333Y-92908428D01*
X96178714Y-92813190D01*
X96178714Y-92670333D01*
X96226333Y-92575095D01*
X96321571Y-92527476D01*
X96845380Y-92527476D01*
X96178714Y-92051285D02*
X97178714Y-92051285D01*
X96226333Y-92051285D02*
X96178714Y-91956047D01*
X96178714Y-91765571D01*
X96226333Y-91670333D01*
X96273952Y-91622714D01*
X96369190Y-91575095D01*
X96654904Y-91575095D01*
X96750142Y-91622714D01*
X96797761Y-91670333D01*
X96845380Y-91765571D01*
X96845380Y-91956047D01*
X96797761Y-92051285D01*
X95845380Y-91241761D02*
X95845380Y-90622714D01*
X96226333Y-90956047D01*
X96226333Y-90813190D01*
X96273952Y-90717952D01*
X96321571Y-90670333D01*
X96416809Y-90622714D01*
X96654904Y-90622714D01*
X96750142Y-90670333D01*
X96797761Y-90717952D01*
X96845380Y-90813190D01*
X96845380Y-91098904D01*
X96797761Y-91194142D01*
X96750142Y-91241761D01*
G04 #@! TO.C,R5*
X104304833Y-100401380D02*
X103971500Y-99925190D01*
X103733404Y-100401380D02*
X103733404Y-99401380D01*
X104114357Y-99401380D01*
X104209595Y-99449000D01*
X104257214Y-99496619D01*
X104304833Y-99591857D01*
X104304833Y-99734714D01*
X104257214Y-99829952D01*
X104209595Y-99877571D01*
X104114357Y-99925190D01*
X103733404Y-99925190D01*
X105209595Y-99401380D02*
X104733404Y-99401380D01*
X104685785Y-99877571D01*
X104733404Y-99829952D01*
X104828642Y-99782333D01*
X105066738Y-99782333D01*
X105161976Y-99829952D01*
X105209595Y-99877571D01*
X105257214Y-99972809D01*
X105257214Y-100210904D01*
X105209595Y-100306142D01*
X105161976Y-100353761D01*
X105066738Y-100401380D01*
X104828642Y-100401380D01*
X104733404Y-100353761D01*
X104685785Y-100306142D01*
X109577261Y-100401380D02*
X109005833Y-100401380D01*
X109291547Y-100401380D02*
X109291547Y-99401380D01*
X109196309Y-99544238D01*
X109101071Y-99639476D01*
X109005833Y-99687095D01*
X110196309Y-99401380D02*
X110291547Y-99401380D01*
X110386785Y-99449000D01*
X110434404Y-99496619D01*
X110482023Y-99591857D01*
X110529642Y-99782333D01*
X110529642Y-100020428D01*
X110482023Y-100210904D01*
X110434404Y-100306142D01*
X110386785Y-100353761D01*
X110291547Y-100401380D01*
X110196309Y-100401380D01*
X110101071Y-100353761D01*
X110053452Y-100306142D01*
X110005833Y-100210904D01*
X109958214Y-100020428D01*
X109958214Y-99782333D01*
X110005833Y-99591857D01*
X110053452Y-99496619D01*
X110101071Y-99449000D01*
X110196309Y-99401380D01*
X110958214Y-100401380D02*
X110958214Y-99401380D01*
X111053452Y-100020428D02*
X111339166Y-100401380D01*
X111339166Y-99734714D02*
X110958214Y-100115666D01*
G04 #@! TO.C,R13*
X95686642Y-71412380D02*
X95353309Y-70936190D01*
X95115214Y-71412380D02*
X95115214Y-70412380D01*
X95496166Y-70412380D01*
X95591404Y-70460000D01*
X95639023Y-70507619D01*
X95686642Y-70602857D01*
X95686642Y-70745714D01*
X95639023Y-70840952D01*
X95591404Y-70888571D01*
X95496166Y-70936190D01*
X95115214Y-70936190D01*
X96639023Y-71412380D02*
X96067595Y-71412380D01*
X96353309Y-71412380D02*
X96353309Y-70412380D01*
X96258071Y-70555238D01*
X96162833Y-70650476D01*
X96067595Y-70698095D01*
X96972357Y-70412380D02*
X97591404Y-70412380D01*
X97258071Y-70793333D01*
X97400928Y-70793333D01*
X97496166Y-70840952D01*
X97543785Y-70888571D01*
X97591404Y-70983809D01*
X97591404Y-71221904D01*
X97543785Y-71317142D01*
X97496166Y-71364761D01*
X97400928Y-71412380D01*
X97115214Y-71412380D01*
X97019976Y-71364761D01*
X96972357Y-71317142D01*
X95400928Y-73605714D02*
X95400928Y-74272380D01*
X95162833Y-73224761D02*
X94924738Y-73939047D01*
X95543785Y-73939047D01*
X95924738Y-74177142D02*
X95972357Y-74224761D01*
X95924738Y-74272380D01*
X95877119Y-74224761D01*
X95924738Y-74177142D01*
X95924738Y-74272380D01*
X96305690Y-73272380D02*
X96972357Y-73272380D01*
X96543785Y-74272380D01*
X97353309Y-74272380D02*
X97353309Y-73272380D01*
X97448547Y-73891428D02*
X97734261Y-74272380D01*
X97734261Y-73605714D02*
X97353309Y-73986666D01*
G04 #@! TO.C,U1*
X99060095Y-98200380D02*
X99060095Y-99009904D01*
X99107714Y-99105142D01*
X99155333Y-99152761D01*
X99250571Y-99200380D01*
X99441047Y-99200380D01*
X99536285Y-99152761D01*
X99583904Y-99105142D01*
X99631523Y-99009904D01*
X99631523Y-98200380D01*
X100631523Y-99200380D02*
X100060095Y-99200380D01*
X100345809Y-99200380D02*
X100345809Y-98200380D01*
X100250571Y-98343238D01*
X100155333Y-98438476D01*
X100060095Y-98486095D01*
D11*
X96905333Y-110864666D02*
X96905333Y-110164666D01*
X97172000Y-110164666D01*
X97238666Y-110198000D01*
X97272000Y-110231333D01*
X97305333Y-110298000D01*
X97305333Y-110398000D01*
X97272000Y-110464666D01*
X97238666Y-110498000D01*
X97172000Y-110531333D01*
X96905333Y-110531333D01*
X98005333Y-110798000D02*
X97972000Y-110831333D01*
X97872000Y-110864666D01*
X97805333Y-110864666D01*
X97705333Y-110831333D01*
X97638666Y-110764666D01*
X97605333Y-110698000D01*
X97572000Y-110564666D01*
X97572000Y-110464666D01*
X97605333Y-110331333D01*
X97638666Y-110264666D01*
X97705333Y-110198000D01*
X97805333Y-110164666D01*
X97872000Y-110164666D01*
X97972000Y-110198000D01*
X98005333Y-110231333D01*
X98272000Y-110664666D02*
X98605333Y-110664666D01*
X98205333Y-110864666D02*
X98438666Y-110164666D01*
X98672000Y-110864666D01*
X98938666Y-110864666D02*
X99072000Y-110864666D01*
X99138666Y-110831333D01*
X99172000Y-110798000D01*
X99238666Y-110698000D01*
X99272000Y-110564666D01*
X99272000Y-110298000D01*
X99238666Y-110231333D01*
X99205333Y-110198000D01*
X99138666Y-110164666D01*
X99005333Y-110164666D01*
X98938666Y-110198000D01*
X98905333Y-110231333D01*
X98872000Y-110298000D01*
X98872000Y-110464666D01*
X98905333Y-110531333D01*
X98938666Y-110564666D01*
X99005333Y-110598000D01*
X99138666Y-110598000D01*
X99205333Y-110564666D01*
X99238666Y-110531333D01*
X99272000Y-110464666D01*
X99872000Y-110164666D02*
X99738666Y-110164666D01*
X99672000Y-110198000D01*
X99638666Y-110231333D01*
X99572000Y-110331333D01*
X99538666Y-110464666D01*
X99538666Y-110731333D01*
X99572000Y-110798000D01*
X99605333Y-110831333D01*
X99672000Y-110864666D01*
X99805333Y-110864666D01*
X99872000Y-110831333D01*
X99905333Y-110798000D01*
X99938666Y-110731333D01*
X99938666Y-110564666D01*
X99905333Y-110498000D01*
X99872000Y-110464666D01*
X99805333Y-110431333D01*
X99672000Y-110431333D01*
X99605333Y-110464666D01*
X99572000Y-110498000D01*
X99538666Y-110564666D01*
X100338666Y-110464666D02*
X100272000Y-110431333D01*
X100238666Y-110398000D01*
X100205333Y-110331333D01*
X100205333Y-110298000D01*
X100238666Y-110231333D01*
X100272000Y-110198000D01*
X100338666Y-110164666D01*
X100472000Y-110164666D01*
X100538666Y-110198000D01*
X100572000Y-110231333D01*
X100605333Y-110298000D01*
X100605333Y-110331333D01*
X100572000Y-110398000D01*
X100538666Y-110431333D01*
X100472000Y-110464666D01*
X100338666Y-110464666D01*
X100272000Y-110498000D01*
X100238666Y-110531333D01*
X100205333Y-110598000D01*
X100205333Y-110731333D01*
X100238666Y-110798000D01*
X100272000Y-110831333D01*
X100338666Y-110864666D01*
X100472000Y-110864666D01*
X100538666Y-110831333D01*
X100572000Y-110798000D01*
X100605333Y-110731333D01*
X100605333Y-110598000D01*
X100572000Y-110531333D01*
X100538666Y-110498000D01*
X100472000Y-110464666D01*
X101238666Y-110164666D02*
X100905333Y-110164666D01*
X100872000Y-110498000D01*
X100905333Y-110464666D01*
X100972000Y-110431333D01*
X101138666Y-110431333D01*
X101205333Y-110464666D01*
X101238666Y-110498000D01*
X101272000Y-110564666D01*
X101272000Y-110731333D01*
X101238666Y-110798000D01*
X101205333Y-110831333D01*
X101138666Y-110864666D01*
X100972000Y-110864666D01*
X100905333Y-110831333D01*
X100872000Y-110798000D01*
X101572000Y-110864666D02*
X101572000Y-110164666D01*
X101838666Y-110164666D01*
X101905333Y-110198000D01*
X101938666Y-110231333D01*
X101972000Y-110298000D01*
X101972000Y-110398000D01*
X101938666Y-110464666D01*
X101905333Y-110498000D01*
X101838666Y-110531333D01*
X101572000Y-110531333D01*
X102205333Y-110164666D02*
X102372000Y-110864666D01*
X102505333Y-110364666D01*
X102638666Y-110864666D01*
X102805333Y-110164666D01*
G04 #@! TO.C,U3*
D13*
X120880119Y-87630095D02*
X120070595Y-87630095D01*
X119975357Y-87677714D01*
X119927738Y-87725333D01*
X119880119Y-87820571D01*
X119880119Y-88011047D01*
X119927738Y-88106285D01*
X119975357Y-88153904D01*
X120070595Y-88201523D01*
X120880119Y-88201523D01*
X120880119Y-88582476D02*
X120880119Y-89201523D01*
X120499166Y-88868190D01*
X120499166Y-89011047D01*
X120451547Y-89106285D01*
X120403928Y-89153904D01*
X120308690Y-89201523D01*
X120070595Y-89201523D01*
X119975357Y-89153904D01*
X119927738Y-89106285D01*
X119880119Y-89011047D01*
X119880119Y-88725333D01*
X119927738Y-88630095D01*
X119975357Y-88582476D01*
X135294619Y-85225380D02*
X134485095Y-85225380D01*
X134389857Y-85273000D01*
X134342238Y-85320619D01*
X134294619Y-85415857D01*
X134294619Y-85606333D01*
X134342238Y-85701571D01*
X134389857Y-85749190D01*
X134485095Y-85796809D01*
X135294619Y-85796809D01*
X134294619Y-86749190D02*
X134294619Y-86273000D01*
X135294619Y-86273000D01*
X134294619Y-87082523D02*
X135294619Y-87082523D01*
X134294619Y-87653952D01*
X135294619Y-87653952D01*
X135199380Y-88082523D02*
X135247000Y-88130142D01*
X135294619Y-88225380D01*
X135294619Y-88463476D01*
X135247000Y-88558714D01*
X135199380Y-88606333D01*
X135104142Y-88653952D01*
X135008904Y-88653952D01*
X134866047Y-88606333D01*
X134294619Y-88034904D01*
X134294619Y-88653952D01*
X134866047Y-89225380D02*
X134913666Y-89130142D01*
X134961285Y-89082523D01*
X135056523Y-89034904D01*
X135104142Y-89034904D01*
X135199380Y-89082523D01*
X135247000Y-89130142D01*
X135294619Y-89225380D01*
X135294619Y-89415857D01*
X135247000Y-89511095D01*
X135199380Y-89558714D01*
X135104142Y-89606333D01*
X135056523Y-89606333D01*
X134961285Y-89558714D01*
X134913666Y-89511095D01*
X134866047Y-89415857D01*
X134866047Y-89225380D01*
X134818428Y-89130142D01*
X134770809Y-89082523D01*
X134675571Y-89034904D01*
X134485095Y-89034904D01*
X134389857Y-89082523D01*
X134342238Y-89130142D01*
X134294619Y-89225380D01*
X134294619Y-89415857D01*
X134342238Y-89511095D01*
X134389857Y-89558714D01*
X134485095Y-89606333D01*
X134675571Y-89606333D01*
X134770809Y-89558714D01*
X134818428Y-89511095D01*
X134866047Y-89415857D01*
X135294619Y-90225380D02*
X135294619Y-90320619D01*
X135247000Y-90415857D01*
X135199380Y-90463476D01*
X135104142Y-90511095D01*
X134913666Y-90558714D01*
X134675571Y-90558714D01*
X134485095Y-90511095D01*
X134389857Y-90463476D01*
X134342238Y-90415857D01*
X134294619Y-90320619D01*
X134294619Y-90225380D01*
X134342238Y-90130142D01*
X134389857Y-90082523D01*
X134485095Y-90034904D01*
X134675571Y-89987285D01*
X134913666Y-89987285D01*
X135104142Y-90034904D01*
X135199380Y-90082523D01*
X135247000Y-90130142D01*
X135294619Y-90225380D01*
X135294619Y-90892047D02*
X135294619Y-91511095D01*
X134913666Y-91177761D01*
X134913666Y-91320619D01*
X134866047Y-91415857D01*
X134818428Y-91463476D01*
X134723190Y-91511095D01*
X134485095Y-91511095D01*
X134389857Y-91463476D01*
X134342238Y-91415857D01*
X134294619Y-91320619D01*
X134294619Y-91034904D01*
X134342238Y-90939666D01*
X134389857Y-90892047D01*
X134580333Y-91892047D02*
X134580333Y-92368238D01*
X134294619Y-91796809D02*
X135294619Y-92130142D01*
X134294619Y-92463476D01*
G04 #@! TO.C,C1*
X103401833Y-98083642D02*
X103354214Y-98131261D01*
X103211357Y-98178880D01*
X103116119Y-98178880D01*
X102973261Y-98131261D01*
X102878023Y-98036023D01*
X102830404Y-97940785D01*
X102782785Y-97750309D01*
X102782785Y-97607452D01*
X102830404Y-97416976D01*
X102878023Y-97321738D01*
X102973261Y-97226500D01*
X103116119Y-97178880D01*
X103211357Y-97178880D01*
X103354214Y-97226500D01*
X103401833Y-97274119D01*
X104354214Y-98178880D02*
X103782785Y-98178880D01*
X104068500Y-98178880D02*
X104068500Y-97178880D01*
X103973261Y-97321738D01*
X103878023Y-97416976D01*
X103782785Y-97464595D01*
X108910571Y-96591380D02*
X108339142Y-96591380D01*
X108624857Y-96591380D02*
X108624857Y-95591380D01*
X108529619Y-95734238D01*
X108434380Y-95829476D01*
X108339142Y-95877095D01*
X109529619Y-95591380D02*
X109624857Y-95591380D01*
X109720095Y-95639000D01*
X109767714Y-95686619D01*
X109815333Y-95781857D01*
X109862952Y-95972333D01*
X109862952Y-96210428D01*
X109815333Y-96400904D01*
X109767714Y-96496142D01*
X109720095Y-96543761D01*
X109624857Y-96591380D01*
X109529619Y-96591380D01*
X109434380Y-96543761D01*
X109386761Y-96496142D01*
X109339142Y-96400904D01*
X109291523Y-96210428D01*
X109291523Y-95972333D01*
X109339142Y-95781857D01*
X109386761Y-95686619D01*
X109434380Y-95639000D01*
X109529619Y-95591380D01*
X110720095Y-95924714D02*
X110720095Y-96591380D01*
X110291523Y-95924714D02*
X110291523Y-96448523D01*
X110339142Y-96543761D01*
X110434380Y-96591380D01*
X110577238Y-96591380D01*
X110672476Y-96543761D01*
X110720095Y-96496142D01*
X111529619Y-96067571D02*
X111196285Y-96067571D01*
X111196285Y-96591380D02*
X111196285Y-95591380D01*
X111672476Y-95591380D01*
G04 #@! TO.C,J7*
X140636666Y-94238380D02*
X140636666Y-94952666D01*
X140589047Y-95095523D01*
X140493809Y-95190761D01*
X140350952Y-95238380D01*
X140255714Y-95238380D01*
X141017619Y-94238380D02*
X141684285Y-94238380D01*
X141255714Y-95238380D01*
X138628380Y-84176880D02*
X137628380Y-84176880D01*
X137628380Y-83795928D01*
X137676000Y-83700690D01*
X137723619Y-83653071D01*
X137818857Y-83605452D01*
X137961714Y-83605452D01*
X138056952Y-83653071D01*
X138104571Y-83700690D01*
X138152190Y-83795928D01*
X138152190Y-84176880D01*
X138628380Y-83034023D02*
X138580761Y-83129261D01*
X138533142Y-83176880D01*
X138437904Y-83224500D01*
X138152190Y-83224500D01*
X138056952Y-83176880D01*
X138009333Y-83129261D01*
X137961714Y-83034023D01*
X137961714Y-82891166D01*
X138009333Y-82795928D01*
X138056952Y-82748309D01*
X138152190Y-82700690D01*
X138437904Y-82700690D01*
X138533142Y-82748309D01*
X138580761Y-82795928D01*
X138628380Y-82891166D01*
X138628380Y-83034023D01*
X137961714Y-82367357D02*
X138628380Y-82176880D01*
X138152190Y-81986404D01*
X138628380Y-81795928D01*
X137961714Y-81605452D01*
X138580761Y-80843547D02*
X138628380Y-80938785D01*
X138628380Y-81129261D01*
X138580761Y-81224500D01*
X138485523Y-81272119D01*
X138104571Y-81272119D01*
X138009333Y-81224500D01*
X137961714Y-81129261D01*
X137961714Y-80938785D01*
X138009333Y-80843547D01*
X138104571Y-80795928D01*
X138199809Y-80795928D01*
X138295047Y-81272119D01*
X138628380Y-80367357D02*
X137961714Y-80367357D01*
X138152190Y-80367357D02*
X138056952Y-80319738D01*
X138009333Y-80272119D01*
X137961714Y-80176880D01*
X137961714Y-80081642D01*
X138628380Y-79224500D02*
X138628380Y-79795928D01*
X138628380Y-79510214D02*
X137628380Y-79510214D01*
X137771238Y-79605452D01*
X137866476Y-79700690D01*
X137914095Y-79795928D01*
G04 #@! TO.C,J5*
X132103880Y-113426833D02*
X132818166Y-113426833D01*
X132961023Y-113474452D01*
X133056261Y-113569690D01*
X133103880Y-113712547D01*
X133103880Y-113807785D01*
X132103880Y-112474452D02*
X132103880Y-112950642D01*
X132580071Y-112998261D01*
X132532452Y-112950642D01*
X132484833Y-112855404D01*
X132484833Y-112617309D01*
X132532452Y-112522071D01*
X132580071Y-112474452D01*
X132675309Y-112426833D01*
X132913404Y-112426833D01*
X133008642Y-112474452D01*
X133056261Y-112522071D01*
X133103880Y-112617309D01*
X133103880Y-112855404D01*
X133056261Y-112950642D01*
X133008642Y-112998261D01*
X126246285Y-116022380D02*
X125674857Y-116022380D01*
X125960571Y-116022380D02*
X125960571Y-115022380D01*
X125865333Y-115165238D01*
X125770095Y-115260476D01*
X125674857Y-115308095D01*
X126627238Y-115117619D02*
X126674857Y-115070000D01*
X126770095Y-115022380D01*
X127008190Y-115022380D01*
X127103428Y-115070000D01*
X127151047Y-115117619D01*
X127198666Y-115212857D01*
X127198666Y-115308095D01*
X127151047Y-115450952D01*
X126579619Y-116022380D01*
X127198666Y-116022380D01*
X127532000Y-115355714D02*
X127770095Y-116022380D01*
X128008190Y-115355714D01*
X128389142Y-116022380D02*
X128389142Y-115022380D01*
X128770095Y-115022380D01*
X128865333Y-115070000D01*
X128912952Y-115117619D01*
X128960571Y-115212857D01*
X128960571Y-115355714D01*
X128912952Y-115450952D01*
X128865333Y-115498571D01*
X128770095Y-115546190D01*
X128389142Y-115546190D01*
X129532000Y-116022380D02*
X129436761Y-115974761D01*
X129389142Y-115927142D01*
X129341523Y-115831904D01*
X129341523Y-115546190D01*
X129389142Y-115450952D01*
X129436761Y-115403333D01*
X129532000Y-115355714D01*
X129674857Y-115355714D01*
X129770095Y-115403333D01*
X129817714Y-115450952D01*
X129865333Y-115546190D01*
X129865333Y-115831904D01*
X129817714Y-115927142D01*
X129770095Y-115974761D01*
X129674857Y-116022380D01*
X129532000Y-116022380D01*
X130198666Y-115355714D02*
X130389142Y-116022380D01*
X130579619Y-115546190D01*
X130770095Y-116022380D01*
X130960571Y-115355714D01*
X131722476Y-115974761D02*
X131627238Y-116022380D01*
X131436761Y-116022380D01*
X131341523Y-115974761D01*
X131293904Y-115879523D01*
X131293904Y-115498571D01*
X131341523Y-115403333D01*
X131436761Y-115355714D01*
X131627238Y-115355714D01*
X131722476Y-115403333D01*
X131770095Y-115498571D01*
X131770095Y-115593809D01*
X131293904Y-115689047D01*
X132198666Y-116022380D02*
X132198666Y-115355714D01*
X132198666Y-115546190D02*
X132246285Y-115450952D01*
X132293904Y-115403333D01*
X132389142Y-115355714D01*
X132484380Y-115355714D01*
G04 #@! TO.C,J6*
X132572166Y-107783380D02*
X132572166Y-108497666D01*
X132524547Y-108640523D01*
X132429309Y-108735761D01*
X132286452Y-108783380D01*
X132191214Y-108783380D01*
X133476928Y-107783380D02*
X133286452Y-107783380D01*
X133191214Y-107831000D01*
X133143595Y-107878619D01*
X133048357Y-108021476D01*
X133000738Y-108211952D01*
X133000738Y-108592904D01*
X133048357Y-108688142D01*
X133095976Y-108735761D01*
X133191214Y-108783380D01*
X133381690Y-108783380D01*
X133476928Y-108735761D01*
X133524547Y-108688142D01*
X133572166Y-108592904D01*
X133572166Y-108354809D01*
X133524547Y-108259571D01*
X133476928Y-108211952D01*
X133381690Y-108164333D01*
X133191214Y-108164333D01*
X133095976Y-108211952D01*
X133048357Y-108259571D01*
X133000738Y-108354809D01*
X126389119Y-96654880D02*
X126389119Y-95654880D01*
X126770071Y-95654880D01*
X126865309Y-95702500D01*
X126912928Y-95750119D01*
X126960547Y-95845357D01*
X126960547Y-95988214D01*
X126912928Y-96083452D01*
X126865309Y-96131071D01*
X126770071Y-96178690D01*
X126389119Y-96178690D01*
X127531976Y-96654880D02*
X127436738Y-96607261D01*
X127389119Y-96559642D01*
X127341500Y-96464404D01*
X127341500Y-96178690D01*
X127389119Y-96083452D01*
X127436738Y-96035833D01*
X127531976Y-95988214D01*
X127674833Y-95988214D01*
X127770071Y-96035833D01*
X127817690Y-96083452D01*
X127865309Y-96178690D01*
X127865309Y-96464404D01*
X127817690Y-96559642D01*
X127770071Y-96607261D01*
X127674833Y-96654880D01*
X127531976Y-96654880D01*
X128198642Y-95988214D02*
X128389119Y-96654880D01*
X128579595Y-96178690D01*
X128770071Y-96654880D01*
X128960547Y-95988214D01*
X129722452Y-96607261D02*
X129627214Y-96654880D01*
X129436738Y-96654880D01*
X129341500Y-96607261D01*
X129293880Y-96512023D01*
X129293880Y-96131071D01*
X129341500Y-96035833D01*
X129436738Y-95988214D01*
X129627214Y-95988214D01*
X129722452Y-96035833D01*
X129770071Y-96131071D01*
X129770071Y-96226309D01*
X129293880Y-96321547D01*
X130198642Y-96654880D02*
X130198642Y-95988214D01*
X130198642Y-96178690D02*
X130246261Y-96083452D01*
X130293880Y-96035833D01*
X130389119Y-95988214D01*
X130484357Y-95988214D01*
X130770071Y-95750119D02*
X130817690Y-95702500D01*
X130912928Y-95654880D01*
X131151023Y-95654880D01*
X131246261Y-95702500D01*
X131293880Y-95750119D01*
X131341500Y-95845357D01*
X131341500Y-95940595D01*
X131293880Y-96083452D01*
X130722452Y-96654880D01*
X131341500Y-96654880D01*
G04 #@! TO.C,Q1*
D14*
X105606857Y-103389071D02*
X105549714Y-103360500D01*
X105492571Y-103303357D01*
X105406857Y-103217642D01*
X105349714Y-103189071D01*
X105292571Y-103189071D01*
X105321142Y-103331928D02*
X105264000Y-103303357D01*
X105206857Y-103246214D01*
X105178285Y-103131928D01*
X105178285Y-102931928D01*
X105206857Y-102817642D01*
X105264000Y-102760500D01*
X105321142Y-102731928D01*
X105435428Y-102731928D01*
X105492571Y-102760500D01*
X105549714Y-102817642D01*
X105578285Y-102931928D01*
X105578285Y-103131928D01*
X105549714Y-103246214D01*
X105492571Y-103303357D01*
X105435428Y-103331928D01*
X105321142Y-103331928D01*
X106149714Y-103331928D02*
X105806857Y-103331928D01*
X105978285Y-103331928D02*
X105978285Y-102731928D01*
X105921142Y-102817642D01*
X105864000Y-102874785D01*
X105806857Y-102903357D01*
X104792428Y-110354785D02*
X104192428Y-110354785D01*
X104192428Y-110211928D01*
X104221000Y-110126214D01*
X104278142Y-110069071D01*
X104335285Y-110040500D01*
X104449571Y-110011928D01*
X104535285Y-110011928D01*
X104649571Y-110040500D01*
X104706714Y-110069071D01*
X104763857Y-110126214D01*
X104792428Y-110211928D01*
X104792428Y-110354785D01*
X104792428Y-109754785D02*
X104192428Y-109754785D01*
X104621000Y-109554785D01*
X104192428Y-109354785D01*
X104792428Y-109354785D01*
X104792428Y-109069071D02*
X104192428Y-109069071D01*
X104621000Y-108869071D01*
X104192428Y-108669071D01*
X104792428Y-108669071D01*
X104192428Y-108469071D02*
X104192428Y-108126214D01*
X104792428Y-108297642D02*
X104192428Y-108297642D01*
X104192428Y-107640500D02*
X104192428Y-107926214D01*
X104478142Y-107954785D01*
X104449571Y-107926214D01*
X104421000Y-107869071D01*
X104421000Y-107726214D01*
X104449571Y-107669071D01*
X104478142Y-107640500D01*
X104535285Y-107611928D01*
X104678142Y-107611928D01*
X104735285Y-107640500D01*
X104763857Y-107669071D01*
X104792428Y-107726214D01*
X104792428Y-107869071D01*
X104763857Y-107926214D01*
X104735285Y-107954785D01*
X104392428Y-107097642D02*
X104792428Y-107097642D01*
X104163857Y-107240500D02*
X104592428Y-107383357D01*
X104592428Y-107011928D01*
X104192428Y-106669071D02*
X104192428Y-106611928D01*
X104221000Y-106554785D01*
X104249571Y-106526214D01*
X104306714Y-106497642D01*
X104421000Y-106469071D01*
X104563857Y-106469071D01*
X104678142Y-106497642D01*
X104735285Y-106526214D01*
X104763857Y-106554785D01*
X104792428Y-106611928D01*
X104792428Y-106669071D01*
X104763857Y-106726214D01*
X104735285Y-106754785D01*
X104678142Y-106783357D01*
X104563857Y-106811928D01*
X104421000Y-106811928D01*
X104306714Y-106783357D01*
X104249571Y-106754785D01*
X104221000Y-106726214D01*
X104192428Y-106669071D01*
X104792428Y-105897642D02*
X104792428Y-106240500D01*
X104792428Y-106069071D02*
X104192428Y-106069071D01*
X104278142Y-106126214D01*
X104335285Y-106183357D01*
X104363857Y-106240500D01*
G04 #@! TO.C,Q2*
X110305857Y-109485071D02*
X110248714Y-109456500D01*
X110191571Y-109399357D01*
X110105857Y-109313642D01*
X110048714Y-109285071D01*
X109991571Y-109285071D01*
X110020142Y-109427928D02*
X109963000Y-109399357D01*
X109905857Y-109342214D01*
X109877285Y-109227928D01*
X109877285Y-109027928D01*
X109905857Y-108913642D01*
X109963000Y-108856500D01*
X110020142Y-108827928D01*
X110134428Y-108827928D01*
X110191571Y-108856500D01*
X110248714Y-108913642D01*
X110277285Y-109027928D01*
X110277285Y-109227928D01*
X110248714Y-109342214D01*
X110191571Y-109399357D01*
X110134428Y-109427928D01*
X110020142Y-109427928D01*
X110505857Y-108885071D02*
X110534428Y-108856500D01*
X110591571Y-108827928D01*
X110734428Y-108827928D01*
X110791571Y-108856500D01*
X110820142Y-108885071D01*
X110848714Y-108942214D01*
X110848714Y-108999357D01*
X110820142Y-109085071D01*
X110477285Y-109427928D01*
X110848714Y-109427928D01*
X104835642Y-102228928D02*
X104835642Y-101628928D01*
X104978500Y-101628928D01*
X105064214Y-101657500D01*
X105121357Y-101714642D01*
X105149928Y-101771785D01*
X105178500Y-101886071D01*
X105178500Y-101971785D01*
X105149928Y-102086071D01*
X105121357Y-102143214D01*
X105064214Y-102200357D01*
X104978500Y-102228928D01*
X104835642Y-102228928D01*
X105435642Y-102228928D02*
X105435642Y-101628928D01*
X105635642Y-102057500D01*
X105835642Y-101628928D01*
X105835642Y-102228928D01*
X106435642Y-101657500D02*
X106378500Y-101628928D01*
X106292785Y-101628928D01*
X106207071Y-101657500D01*
X106149928Y-101714642D01*
X106121357Y-101771785D01*
X106092785Y-101886071D01*
X106092785Y-101971785D01*
X106121357Y-102086071D01*
X106149928Y-102143214D01*
X106207071Y-102200357D01*
X106292785Y-102228928D01*
X106349928Y-102228928D01*
X106435642Y-102200357D01*
X106464214Y-102171785D01*
X106464214Y-101971785D01*
X106349928Y-101971785D01*
X106692785Y-101686071D02*
X106721357Y-101657500D01*
X106778500Y-101628928D01*
X106921357Y-101628928D01*
X106978500Y-101657500D01*
X107007071Y-101686071D01*
X107035642Y-101743214D01*
X107035642Y-101800357D01*
X107007071Y-101886071D01*
X106664214Y-102228928D01*
X107035642Y-102228928D01*
X107235642Y-101628928D02*
X107607071Y-101628928D01*
X107407071Y-101857500D01*
X107492785Y-101857500D01*
X107549928Y-101886071D01*
X107578500Y-101914642D01*
X107607071Y-101971785D01*
X107607071Y-102114642D01*
X107578500Y-102171785D01*
X107549928Y-102200357D01*
X107492785Y-102228928D01*
X107321357Y-102228928D01*
X107264214Y-102200357D01*
X107235642Y-102171785D01*
X107978500Y-101628928D02*
X108035642Y-101628928D01*
X108092785Y-101657500D01*
X108121357Y-101686071D01*
X108149928Y-101743214D01*
X108178500Y-101857500D01*
X108178500Y-102000357D01*
X108149928Y-102114642D01*
X108121357Y-102171785D01*
X108092785Y-102200357D01*
X108035642Y-102228928D01*
X107978500Y-102228928D01*
X107921357Y-102200357D01*
X107892785Y-102171785D01*
X107864214Y-102114642D01*
X107835642Y-102000357D01*
X107835642Y-101857500D01*
X107864214Y-101743214D01*
X107892785Y-101686071D01*
X107921357Y-101657500D01*
X107978500Y-101628928D01*
X108721357Y-101628928D02*
X108435642Y-101628928D01*
X108407071Y-101914642D01*
X108435642Y-101886071D01*
X108492785Y-101857500D01*
X108635642Y-101857500D01*
X108692785Y-101886071D01*
X108721357Y-101914642D01*
X108749928Y-101971785D01*
X108749928Y-102114642D01*
X108721357Y-102171785D01*
X108692785Y-102200357D01*
X108635642Y-102228928D01*
X108492785Y-102228928D01*
X108435642Y-102200357D01*
X108407071Y-102171785D01*
X109007071Y-101628928D02*
X109007071Y-102114642D01*
X109035642Y-102171785D01*
X109064214Y-102200357D01*
X109121357Y-102228928D01*
X109235642Y-102228928D01*
X109292785Y-102200357D01*
X109321357Y-102171785D01*
X109349928Y-102114642D01*
X109349928Y-101628928D01*
X109578500Y-101628928D02*
X109978500Y-102228928D01*
X109978500Y-101628928D02*
X109578500Y-102228928D01*
G04 #@! TO.C,U2*
D13*
X124904595Y-72794880D02*
X124904595Y-73604404D01*
X124952214Y-73699642D01*
X124999833Y-73747261D01*
X125095071Y-73794880D01*
X125285547Y-73794880D01*
X125380785Y-73747261D01*
X125428404Y-73699642D01*
X125476023Y-73604404D01*
X125476023Y-72794880D01*
X125904595Y-72890119D02*
X125952214Y-72842500D01*
X126047452Y-72794880D01*
X126285547Y-72794880D01*
X126380785Y-72842500D01*
X126428404Y-72890119D01*
X126476023Y-72985357D01*
X126476023Y-73080595D01*
X126428404Y-73223452D01*
X125856976Y-73794880D01*
X126476023Y-73794880D01*
X122761738Y-70199642D02*
X122714119Y-70247261D01*
X122571261Y-70294880D01*
X122476023Y-70294880D01*
X122333166Y-70247261D01*
X122237928Y-70152023D01*
X122190309Y-70056785D01*
X122142690Y-69866309D01*
X122142690Y-69723452D01*
X122190309Y-69532976D01*
X122237928Y-69437738D01*
X122333166Y-69342500D01*
X122476023Y-69294880D01*
X122571261Y-69294880D01*
X122714119Y-69342500D01*
X122761738Y-69390119D01*
X123142690Y-70009166D02*
X123618880Y-70009166D01*
X123047452Y-70294880D02*
X123380785Y-69294880D01*
X123714119Y-70294880D01*
X123904595Y-69294880D02*
X124476023Y-69294880D01*
X124190309Y-70294880D02*
X124190309Y-69294880D01*
X124761738Y-69390119D02*
X124809357Y-69342500D01*
X124904595Y-69294880D01*
X125142690Y-69294880D01*
X125237928Y-69342500D01*
X125285547Y-69390119D01*
X125333166Y-69485357D01*
X125333166Y-69580595D01*
X125285547Y-69723452D01*
X124714119Y-70294880D01*
X125333166Y-70294880D01*
X126190309Y-69628214D02*
X126190309Y-70294880D01*
X125952214Y-69247261D02*
X125714119Y-69961547D01*
X126333166Y-69961547D01*
X127285547Y-70199642D02*
X127237928Y-70247261D01*
X127095071Y-70294880D01*
X126999833Y-70294880D01*
X126856976Y-70247261D01*
X126761738Y-70152023D01*
X126714119Y-70056785D01*
X126666500Y-69866309D01*
X126666500Y-69723452D01*
X126714119Y-69532976D01*
X126761738Y-69437738D01*
X126856976Y-69342500D01*
X126999833Y-69294880D01*
X127095071Y-69294880D01*
X127237928Y-69342500D01*
X127285547Y-69390119D01*
X127618880Y-69294880D02*
X128237928Y-69294880D01*
X127904595Y-69675833D01*
X128047452Y-69675833D01*
X128142690Y-69723452D01*
X128190309Y-69771071D01*
X128237928Y-69866309D01*
X128237928Y-70104404D01*
X128190309Y-70199642D01*
X128142690Y-70247261D01*
X128047452Y-70294880D01*
X127761738Y-70294880D01*
X127666500Y-70247261D01*
X127618880Y-70199642D01*
X128618880Y-69390119D02*
X128666500Y-69342500D01*
X128761738Y-69294880D01*
X128999833Y-69294880D01*
X129095071Y-69342500D01*
X129142690Y-69390119D01*
X129190309Y-69485357D01*
X129190309Y-69580595D01*
X129142690Y-69723452D01*
X128571261Y-70294880D01*
X129190309Y-70294880D01*
G04 #@! TO.C,R1*
X122832833Y-77731880D02*
X122499500Y-77255690D01*
X122261404Y-77731880D02*
X122261404Y-76731880D01*
X122642357Y-76731880D01*
X122737595Y-76779500D01*
X122785214Y-76827119D01*
X122832833Y-76922357D01*
X122832833Y-77065214D01*
X122785214Y-77160452D01*
X122737595Y-77208071D01*
X122642357Y-77255690D01*
X122261404Y-77255690D01*
X123785214Y-77731880D02*
X123213785Y-77731880D01*
X123499500Y-77731880D02*
X123499500Y-76731880D01*
X123404261Y-76874738D01*
X123309023Y-76969976D01*
X123213785Y-77017595D01*
X127619285Y-77731880D02*
X127619285Y-76731880D01*
X127857380Y-76731880D01*
X128000238Y-76779500D01*
X128095476Y-76874738D01*
X128143095Y-76969976D01*
X128190714Y-77160452D01*
X128190714Y-77303309D01*
X128143095Y-77493785D01*
X128095476Y-77589023D01*
X128000238Y-77684261D01*
X127857380Y-77731880D01*
X127619285Y-77731880D01*
X128619285Y-77731880D02*
X128619285Y-76731880D01*
X129190714Y-77731880D01*
X129190714Y-76731880D01*
X129666904Y-77731880D02*
X129666904Y-76731880D01*
X130047857Y-76731880D01*
X130143095Y-76779500D01*
X130190714Y-76827119D01*
X130238333Y-76922357D01*
X130238333Y-77065214D01*
X130190714Y-77160452D01*
X130143095Y-77208071D01*
X130047857Y-77255690D01*
X129666904Y-77255690D01*
G04 #@! TO.C,R2*
X116800333Y-74937880D02*
X116467000Y-74461690D01*
X116228904Y-74937880D02*
X116228904Y-73937880D01*
X116609857Y-73937880D01*
X116705095Y-73985500D01*
X116752714Y-74033119D01*
X116800333Y-74128357D01*
X116800333Y-74271214D01*
X116752714Y-74366452D01*
X116705095Y-74414071D01*
X116609857Y-74461690D01*
X116228904Y-74461690D01*
X117181285Y-74033119D02*
X117228904Y-73985500D01*
X117324142Y-73937880D01*
X117562238Y-73937880D01*
X117657476Y-73985500D01*
X117705095Y-74033119D01*
X117752714Y-74128357D01*
X117752714Y-74223595D01*
X117705095Y-74366452D01*
X117133666Y-74937880D01*
X117752714Y-74937880D01*
X113228523Y-74937880D02*
X112657095Y-74937880D01*
X112942809Y-74937880D02*
X112942809Y-73937880D01*
X112847571Y-74080738D01*
X112752333Y-74175976D01*
X112657095Y-74223595D01*
X113847571Y-73937880D02*
X113942809Y-73937880D01*
X114038047Y-73985500D01*
X114085666Y-74033119D01*
X114133285Y-74128357D01*
X114180904Y-74318833D01*
X114180904Y-74556928D01*
X114133285Y-74747404D01*
X114085666Y-74842642D01*
X114038047Y-74890261D01*
X113942809Y-74937880D01*
X113847571Y-74937880D01*
X113752333Y-74890261D01*
X113704714Y-74842642D01*
X113657095Y-74747404D01*
X113609476Y-74556928D01*
X113609476Y-74318833D01*
X113657095Y-74128357D01*
X113704714Y-74033119D01*
X113752333Y-73985500D01*
X113847571Y-73937880D01*
X114609476Y-74937880D02*
X114609476Y-73937880D01*
X115180904Y-74937880D02*
X114752333Y-74366452D01*
X115180904Y-73937880D02*
X114609476Y-74509309D01*
G04 #@! TO.C,R3*
X116800333Y-73223380D02*
X116467000Y-72747190D01*
X116228904Y-73223380D02*
X116228904Y-72223380D01*
X116609857Y-72223380D01*
X116705095Y-72271000D01*
X116752714Y-72318619D01*
X116800333Y-72413857D01*
X116800333Y-72556714D01*
X116752714Y-72651952D01*
X116705095Y-72699571D01*
X116609857Y-72747190D01*
X116228904Y-72747190D01*
X117133666Y-72223380D02*
X117752714Y-72223380D01*
X117419380Y-72604333D01*
X117562238Y-72604333D01*
X117657476Y-72651952D01*
X117705095Y-72699571D01*
X117752714Y-72794809D01*
X117752714Y-73032904D01*
X117705095Y-73128142D01*
X117657476Y-73175761D01*
X117562238Y-73223380D01*
X117276523Y-73223380D01*
X117181285Y-73175761D01*
X117133666Y-73128142D01*
X112180880Y-72223380D02*
X112799928Y-72223380D01*
X112466595Y-72604333D01*
X112609452Y-72604333D01*
X112704690Y-72651952D01*
X112752309Y-72699571D01*
X112799928Y-72794809D01*
X112799928Y-73032904D01*
X112752309Y-73128142D01*
X112704690Y-73175761D01*
X112609452Y-73223380D01*
X112323738Y-73223380D01*
X112228500Y-73175761D01*
X112180880Y-73128142D01*
X113228500Y-73128142D02*
X113276119Y-73175761D01*
X113228500Y-73223380D01*
X113180880Y-73175761D01*
X113228500Y-73128142D01*
X113228500Y-73223380D01*
X113752309Y-73223380D02*
X113942785Y-73223380D01*
X114038023Y-73175761D01*
X114085642Y-73128142D01*
X114180880Y-72985285D01*
X114228500Y-72794809D01*
X114228500Y-72413857D01*
X114180880Y-72318619D01*
X114133261Y-72271000D01*
X114038023Y-72223380D01*
X113847547Y-72223380D01*
X113752309Y-72271000D01*
X113704690Y-72318619D01*
X113657071Y-72413857D01*
X113657071Y-72651952D01*
X113704690Y-72747190D01*
X113752309Y-72794809D01*
X113847547Y-72842428D01*
X114038023Y-72842428D01*
X114133261Y-72794809D01*
X114180880Y-72747190D01*
X114228500Y-72651952D01*
X114657071Y-73223380D02*
X114657071Y-72223380D01*
X115228500Y-73223380D02*
X114799928Y-72651952D01*
X115228500Y-72223380D02*
X114657071Y-72794809D01*
G04 #@! TO.C,R4*
X116800333Y-71381880D02*
X116467000Y-70905690D01*
X116228904Y-71381880D02*
X116228904Y-70381880D01*
X116609857Y-70381880D01*
X116705095Y-70429500D01*
X116752714Y-70477119D01*
X116800333Y-70572357D01*
X116800333Y-70715214D01*
X116752714Y-70810452D01*
X116705095Y-70858071D01*
X116609857Y-70905690D01*
X116228904Y-70905690D01*
X117657476Y-70715214D02*
X117657476Y-71381880D01*
X117419380Y-70334261D02*
X117181285Y-71048547D01*
X117800333Y-71048547D01*
X112180880Y-70381880D02*
X112799928Y-70381880D01*
X112466595Y-70762833D01*
X112609452Y-70762833D01*
X112704690Y-70810452D01*
X112752309Y-70858071D01*
X112799928Y-70953309D01*
X112799928Y-71191404D01*
X112752309Y-71286642D01*
X112704690Y-71334261D01*
X112609452Y-71381880D01*
X112323738Y-71381880D01*
X112228500Y-71334261D01*
X112180880Y-71286642D01*
X113228500Y-71286642D02*
X113276119Y-71334261D01*
X113228500Y-71381880D01*
X113180880Y-71334261D01*
X113228500Y-71286642D01*
X113228500Y-71381880D01*
X113752309Y-71381880D02*
X113942785Y-71381880D01*
X114038023Y-71334261D01*
X114085642Y-71286642D01*
X114180880Y-71143785D01*
X114228500Y-70953309D01*
X114228500Y-70572357D01*
X114180880Y-70477119D01*
X114133261Y-70429500D01*
X114038023Y-70381880D01*
X113847547Y-70381880D01*
X113752309Y-70429500D01*
X113704690Y-70477119D01*
X113657071Y-70572357D01*
X113657071Y-70810452D01*
X113704690Y-70905690D01*
X113752309Y-70953309D01*
X113847547Y-71000928D01*
X114038023Y-71000928D01*
X114133261Y-70953309D01*
X114180880Y-70905690D01*
X114228500Y-70810452D01*
X114657071Y-71381880D02*
X114657071Y-70381880D01*
X115228500Y-71381880D02*
X114799928Y-70810452D01*
X115228500Y-70381880D02*
X114657071Y-70953309D01*
G04 #@! TO.C,R6*
X105941833Y-114942880D02*
X105608500Y-114466690D01*
X105370404Y-114942880D02*
X105370404Y-113942880D01*
X105751357Y-113942880D01*
X105846595Y-113990500D01*
X105894214Y-114038119D01*
X105941833Y-114133357D01*
X105941833Y-114276214D01*
X105894214Y-114371452D01*
X105846595Y-114419071D01*
X105751357Y-114466690D01*
X105370404Y-114466690D01*
X106798976Y-113942880D02*
X106608500Y-113942880D01*
X106513261Y-113990500D01*
X106465642Y-114038119D01*
X106370404Y-114180976D01*
X106322785Y-114371452D01*
X106322785Y-114752404D01*
X106370404Y-114847642D01*
X106418023Y-114895261D01*
X106513261Y-114942880D01*
X106703738Y-114942880D01*
X106798976Y-114895261D01*
X106846595Y-114847642D01*
X106894214Y-114752404D01*
X106894214Y-114514309D01*
X106846595Y-114419071D01*
X106798976Y-114371452D01*
X106703738Y-114323833D01*
X106513261Y-114323833D01*
X106418023Y-114371452D01*
X106370404Y-114419071D01*
X106322785Y-114514309D01*
X104099119Y-112599404D02*
X104051500Y-112551785D01*
X104003880Y-112456547D01*
X104003880Y-112218452D01*
X104051500Y-112123214D01*
X104099119Y-112075595D01*
X104194357Y-112027976D01*
X104289595Y-112027976D01*
X104432452Y-112075595D01*
X105003880Y-112647023D01*
X105003880Y-112027976D01*
X104099119Y-111647023D02*
X104051500Y-111599404D01*
X104003880Y-111504166D01*
X104003880Y-111266071D01*
X104051500Y-111170833D01*
X104099119Y-111123214D01*
X104194357Y-111075595D01*
X104289595Y-111075595D01*
X104432452Y-111123214D01*
X105003880Y-111694642D01*
X105003880Y-111075595D01*
G04 #@! TO.C,R7*
X108926333Y-114942880D02*
X108593000Y-114466690D01*
X108354904Y-114942880D02*
X108354904Y-113942880D01*
X108735857Y-113942880D01*
X108831095Y-113990500D01*
X108878714Y-114038119D01*
X108926333Y-114133357D01*
X108926333Y-114276214D01*
X108878714Y-114371452D01*
X108831095Y-114419071D01*
X108735857Y-114466690D01*
X108354904Y-114466690D01*
X109259666Y-113942880D02*
X109926333Y-113942880D01*
X109497761Y-114942880D01*
X107083619Y-112634904D02*
X107036000Y-112587285D01*
X106988380Y-112492047D01*
X106988380Y-112253952D01*
X107036000Y-112158714D01*
X107083619Y-112111095D01*
X107178857Y-112063476D01*
X107274095Y-112063476D01*
X107416952Y-112111095D01*
X107988380Y-112682523D01*
X107988380Y-112063476D01*
X107083619Y-111682523D02*
X107036000Y-111634904D01*
X106988380Y-111539666D01*
X106988380Y-111301571D01*
X107036000Y-111206333D01*
X107083619Y-111158714D01*
X107178857Y-111111095D01*
X107274095Y-111111095D01*
X107416952Y-111158714D01*
X107988380Y-111730142D01*
X107988380Y-111111095D01*
G04 #@! TD*
M02*
