M48
;DRILL file {KiCad (5.0.1)-3} date 11/18/2018 3:25:09 PM
;FORMAT={-:-/ absolute / inch / decimal}
FMAT,2
INCH,TZ
T1C0.0079
T2C0.0374
T3C0.0394
%
G90
G05
M72
T1
X3.1675Y-2.98
X3.6125Y-2.98
X3.8275Y-2.785
X3.9738Y-3.9537
X4.36Y-4.075
X4.36Y-4.255
X4.67Y-2.72
T2
X3.9456Y-3.3925
X4.0441Y-3.3925
X4.1425Y-3.3925
X3.9456Y-3.67
X4.0441Y-3.67
X4.1425Y-3.67
X4.545Y-3.3375
X4.545Y-3.4359
X4.545Y-3.5344
X4.545Y-3.6328
X3.3097Y-4.2175
X3.4081Y-4.2175
X3.5066Y-4.2175
X3.605Y-4.2175
X3.3097Y-3.67
X3.4081Y-3.67
X3.5066Y-3.67
X3.605Y-3.67
X3.3097Y-3.3925
X3.4081Y-3.3925
X3.5066Y-3.3925
X3.605Y-3.3925
X3.9456Y-3.115
X4.0441Y-3.115
X4.1425Y-3.115
X3.3097Y-3.9425
X3.4081Y-3.9425
X3.5066Y-3.9425
X3.605Y-3.9425
X4.545Y-3.89
X4.545Y-3.9884
X4.545Y-4.0869
X4.545Y-4.1853
X3.3097Y-3.115
X3.4081Y-3.115
X3.5066Y-3.115
X3.605Y-3.115
T3
X5.025Y-4.4425
X5.125Y-4.4425
X5.0225Y-3.8875
X5.0225Y-3.9875
X5.0225Y-4.0875
X5.0225Y-4.1875
X5.0225Y-4.2875
X5.1225Y-3.8875
X5.1225Y-3.9875
X5.1225Y-4.0875
X5.1225Y-4.1875
X5.1225Y-4.2875
X4.4725Y-4.435
X4.5725Y-4.435
X3.422Y-2.4823
X3.422Y-2.5823
X3.522Y-2.4823
X3.522Y-2.5823
X3.622Y-2.4823
X3.622Y-2.5823
X3.722Y-2.4823
X3.722Y-2.5823
X3.822Y-2.4823
X3.822Y-2.5823
X3.922Y-2.4823
X3.922Y-2.5823
X4.022Y-2.4823
X4.022Y-2.5823
X4.122Y-2.4823
X4.122Y-2.5823
X4.222Y-2.4823
X4.222Y-2.5823
X4.322Y-2.4823
X4.322Y-2.5823
X4.422Y-2.4823
X4.422Y-2.5823
X4.522Y-2.4823
X4.522Y-2.5823
X4.622Y-2.4823
X4.622Y-2.5823
X4.722Y-2.4823
X4.722Y-2.5823
X4.822Y-2.4823
X4.822Y-2.5823
X4.922Y-2.4823
X4.922Y-2.5823
X5.022Y-2.4823
X5.022Y-2.5823
X5.122Y-2.4823
X5.122Y-2.5823
X5.222Y-2.4823
X5.222Y-2.5823
X5.322Y-2.4823
X5.322Y-2.5823
X5.55Y-2.74
X5.55Y-2.84
X5.55Y-2.94
X5.55Y-3.04
X5.55Y-3.14
X5.55Y-3.24
X5.55Y-3.34
X5.55Y-3.44
X5.55Y-3.54
X5.55Y-3.64
T0
M30
