G04 #@! TF.GenerationSoftware,KiCad,Pcbnew,(5.0.1)-3*
G04 #@! TF.CreationDate,2018-11-18T15:33:46-05:00*
G04 #@! TF.ProjectId,reef-piHat,726565662D70694861742E6B69636164,rev?*
G04 #@! TF.SameCoordinates,Original*
G04 #@! TF.FileFunction,Other,Fab,Top*
%FSLAX46Y46*%
G04 Gerber Fmt 4.6, Leading zero omitted, Abs format (unit mm)*
G04 Created by KiCad (PCBNEW (5.0.1)-3) date 11/18/2018 3:33:46 PM*
%MOMM*%
%LPD*%
G01*
G04 APERTURE LIST*
%ADD10C,0.100000*%
%ADD11C,0.150000*%
%ADD12C,0.060000*%
%ADD13C,0.120000*%
%ADD14C,0.075000*%
G04 APERTURE END LIST*
D10*
X78546356Y-63817611D02*
X78546356Y-113817611D01*
X78546356Y-63817611D02*
G75*
G02X81546356Y-60817611I3000000J0D01*
G01*
X140546356Y-60817611D02*
X81546356Y-60817611D01*
X140546356Y-60817611D02*
G75*
G02X143546356Y-63817611I0J-3000000D01*
G01*
X143546356Y-113817611D02*
X143546356Y-63817611D01*
X81546356Y-116817611D02*
G75*
G02X78546356Y-113817611I0J3000000D01*
G01*
X81546356Y-116817611D02*
X140546356Y-116817611D01*
X143546351Y-113822847D02*
G75*
G02X140546356Y-116817611I-2999995J5236D01*
G01*
G04 #@! TO.C,J15*
X105219500Y-87519500D02*
X104594500Y-88519500D01*
X105844500Y-88519500D02*
X105219500Y-87519500D01*
X97769500Y-88519500D02*
X107669500Y-88519500D01*
X97769500Y-82769500D02*
X97769500Y-88519500D01*
X107669500Y-82769500D02*
X97769500Y-82769500D01*
X107669500Y-88519500D02*
X107669500Y-82769500D01*
G04 #@! TO.C,J2*
X94017000Y-102489500D02*
X94017000Y-96739500D01*
X94017000Y-96739500D02*
X81617000Y-96739500D01*
X81617000Y-96739500D02*
X81617000Y-102489500D01*
X81617000Y-102489500D02*
X94017000Y-102489500D01*
X92192000Y-102489500D02*
X91567000Y-101489500D01*
X91567000Y-101489500D02*
X90942000Y-102489500D01*
G04 #@! TO.C,J1*
X91567000Y-94568000D02*
X90942000Y-95568000D01*
X92192000Y-95568000D02*
X91567000Y-94568000D01*
X81617000Y-95568000D02*
X94017000Y-95568000D01*
X81617000Y-89818000D02*
X81617000Y-95568000D01*
X94017000Y-89818000D02*
X81617000Y-89818000D01*
X94017000Y-95568000D02*
X94017000Y-89818000D01*
G04 #@! TO.C,J4*
X94017000Y-109474500D02*
X94017000Y-103724500D01*
X94017000Y-103724500D02*
X81617000Y-103724500D01*
X81617000Y-103724500D02*
X81617000Y-109474500D01*
X81617000Y-109474500D02*
X94017000Y-109474500D01*
X92192000Y-109474500D02*
X91567000Y-108474500D01*
X91567000Y-108474500D02*
X90942000Y-109474500D01*
G04 #@! TO.C,J8*
X117793000Y-82322500D02*
X112043000Y-82322500D01*
X112043000Y-82322500D02*
X112043000Y-94722500D01*
X112043000Y-94722500D02*
X117793000Y-94722500D01*
X117793000Y-94722500D02*
X117793000Y-82322500D01*
X117793000Y-84147500D02*
X116793000Y-84772500D01*
X116793000Y-84772500D02*
X117793000Y-85397500D01*
G04 #@! TO.C,J10*
X116793000Y-98806000D02*
X117793000Y-99431000D01*
X117793000Y-98181000D02*
X116793000Y-98806000D01*
X117793000Y-108756000D02*
X117793000Y-96356000D01*
X112043000Y-108756000D02*
X117793000Y-108756000D01*
X112043000Y-96356000D02*
X112043000Y-108756000D01*
X117793000Y-96356000D02*
X112043000Y-96356000D01*
G04 #@! TO.C,J11*
X94017000Y-81471000D02*
X94017000Y-75721000D01*
X94017000Y-75721000D02*
X81617000Y-75721000D01*
X81617000Y-75721000D02*
X81617000Y-81471000D01*
X81617000Y-81471000D02*
X94017000Y-81471000D01*
X92192000Y-81471000D02*
X91567000Y-80471000D01*
X91567000Y-80471000D02*
X90942000Y-81471000D01*
G04 #@! TO.C,J12*
X91567000Y-87519500D02*
X90942000Y-88519500D01*
X92192000Y-88519500D02*
X91567000Y-87519500D01*
X81617000Y-88519500D02*
X94017000Y-88519500D01*
X81617000Y-82769500D02*
X81617000Y-88519500D01*
X94017000Y-82769500D02*
X81617000Y-82769500D01*
X94017000Y-88519500D02*
X94017000Y-82769500D01*
G04 #@! TO.C,J13*
X112331500Y-113284000D02*
X112331500Y-111379000D01*
X112331500Y-111379000D02*
X117411500Y-111379000D01*
X117411500Y-111379000D02*
X117411500Y-113919000D01*
X117411500Y-113919000D02*
X112966500Y-113919000D01*
X112966500Y-113919000D02*
X112331500Y-113284000D01*
G04 #@! TO.C,J14*
X107669500Y-81471000D02*
X107669500Y-75721000D01*
X107669500Y-75721000D02*
X97769500Y-75721000D01*
X97769500Y-75721000D02*
X97769500Y-81471000D01*
X97769500Y-81471000D02*
X107669500Y-81471000D01*
X105844500Y-81471000D02*
X105219500Y-80471000D01*
X105219500Y-80471000D02*
X104594500Y-81471000D01*
G04 #@! TO.C,J16*
X107669500Y-95568000D02*
X107669500Y-89818000D01*
X107669500Y-89818000D02*
X97769500Y-89818000D01*
X97769500Y-89818000D02*
X97769500Y-95568000D01*
X97769500Y-95568000D02*
X107669500Y-95568000D01*
X105844500Y-95568000D02*
X105219500Y-94568000D01*
X105219500Y-94568000D02*
X104594500Y-95568000D01*
G04 #@! TO.C,R5*
X106338500Y-100349000D02*
X106338500Y-99549000D01*
X106338500Y-99549000D02*
X107938500Y-99549000D01*
X107938500Y-99549000D02*
X107938500Y-100349000D01*
X107938500Y-100349000D02*
X106338500Y-100349000D01*
G04 #@! TO.C,R13*
X97129500Y-72790000D02*
X95529500Y-72790000D01*
X97129500Y-71990000D02*
X97129500Y-72790000D01*
X95529500Y-71990000D02*
X97129500Y-71990000D01*
X95529500Y-72790000D02*
X95529500Y-71990000D01*
D11*
G04 #@! TO.C,U1*
X98622000Y-99798000D02*
X102022000Y-99798000D01*
X102022000Y-99798000D02*
X102022000Y-109498000D01*
X102022000Y-109498000D02*
X97622000Y-109498000D01*
X97622000Y-109498000D02*
X97622000Y-100798000D01*
X97622000Y-100798000D02*
X98622000Y-99798000D01*
D10*
G04 #@! TO.C,U3*
X133758000Y-85892000D02*
X133758000Y-91892000D01*
X133758000Y-91892000D02*
X121258000Y-91892000D01*
X121258000Y-91892000D02*
X121258000Y-84892000D01*
X121258000Y-84892000D02*
X132758000Y-84892000D01*
X132758000Y-84892000D02*
X133758000Y-85892000D01*
G04 #@! TO.C,C1*
X105370500Y-98717000D02*
X105370500Y-97117000D01*
X105370500Y-97117000D02*
X108570500Y-97117000D01*
X108570500Y-97117000D02*
X108570500Y-98717000D01*
X108570500Y-98717000D02*
X105370500Y-98717000D01*
G04 #@! TO.C,J7*
X141605000Y-93726000D02*
X139700000Y-93726000D01*
X139700000Y-93726000D02*
X139700000Y-68326000D01*
X139700000Y-68326000D02*
X142240000Y-68326000D01*
X142240000Y-68326000D02*
X142240000Y-93091000D01*
X142240000Y-93091000D02*
X141605000Y-93726000D01*
G04 #@! TO.C,J5*
X126365000Y-113474500D02*
X126365000Y-111569500D01*
X126365000Y-111569500D02*
X131445000Y-111569500D01*
X131445000Y-111569500D02*
X131445000Y-114109500D01*
X131445000Y-114109500D02*
X127000000Y-114109500D01*
X127000000Y-114109500D02*
X126365000Y-113474500D01*
G04 #@! TO.C,J6*
X127571500Y-97472500D02*
X131381500Y-97472500D01*
X131381500Y-97472500D02*
X131381500Y-110172500D01*
X131381500Y-110172500D02*
X126301500Y-110172500D01*
X126301500Y-110172500D02*
X126301500Y-98742500D01*
X126301500Y-98742500D02*
X127571500Y-97472500D01*
G04 #@! TO.C,Q1*
X106478500Y-107177000D02*
X107128500Y-106527000D01*
X108278500Y-106527000D02*
X107128500Y-106527000D01*
X106478500Y-107177000D02*
X106478500Y-109627000D01*
X108278500Y-109627000D02*
X106478500Y-109627000D01*
X108278500Y-106527000D02*
X108278500Y-109627000D01*
G04 #@! TO.C,Q2*
X108078500Y-105407500D02*
X108078500Y-102957500D01*
X107528500Y-105977500D02*
X106678500Y-105977500D01*
X108078500Y-105407500D02*
X107528500Y-105977500D01*
X106678500Y-105977500D02*
X106678500Y-102937500D01*
X108078500Y-102937500D02*
X106678500Y-102937500D01*
G04 #@! TO.C,U2*
X126616500Y-75792500D02*
X123716500Y-75792500D01*
X123716500Y-75792500D02*
X123716500Y-70892500D01*
X123716500Y-70892500D02*
X127616500Y-70892500D01*
X127616500Y-70892500D02*
X127616500Y-74792500D01*
X127616500Y-74792500D02*
X126616500Y-75792500D01*
G04 #@! TO.C,R1*
X124880500Y-77616000D02*
X124880500Y-76816000D01*
X124880500Y-76816000D02*
X126480500Y-76816000D01*
X126480500Y-76816000D02*
X126480500Y-77616000D01*
X126480500Y-77616000D02*
X124880500Y-77616000D01*
G04 #@! TO.C,R2*
X120420000Y-74822000D02*
X118820000Y-74822000D01*
X120420000Y-74022000D02*
X120420000Y-74822000D01*
X118820000Y-74022000D02*
X120420000Y-74022000D01*
X118820000Y-74822000D02*
X118820000Y-74022000D01*
G04 #@! TO.C,R3*
X120434000Y-73171000D02*
X118834000Y-73171000D01*
X120434000Y-72371000D02*
X120434000Y-73171000D01*
X118834000Y-72371000D02*
X120434000Y-72371000D01*
X118834000Y-73171000D02*
X118834000Y-72371000D01*
G04 #@! TO.C,R4*
X118834000Y-71393000D02*
X118834000Y-70593000D01*
X118834000Y-70593000D02*
X120434000Y-70593000D01*
X120434000Y-70593000D02*
X120434000Y-71393000D01*
X120434000Y-71393000D02*
X118834000Y-71393000D01*
G04 #@! TO.C,R6*
X105581500Y-112637500D02*
X105581500Y-111037500D01*
X106381500Y-112637500D02*
X105581500Y-112637500D01*
X106381500Y-111037500D02*
X106381500Y-112637500D01*
X105581500Y-111037500D02*
X106381500Y-111037500D01*
G04 #@! TO.C,R7*
X108566000Y-111073000D02*
X109366000Y-111073000D01*
X109366000Y-111073000D02*
X109366000Y-112673000D01*
X109366000Y-112673000D02*
X108566000Y-112673000D01*
X108566000Y-112673000D02*
X108566000Y-111073000D01*
G04 #@! TD*
G04 #@! TO.C,J15*
D11*
X101909976Y-82921880D02*
X101909976Y-83636166D01*
X101862357Y-83779023D01*
X101767119Y-83874261D01*
X101624261Y-83921880D01*
X101529023Y-83921880D01*
X102909976Y-83921880D02*
X102338547Y-83921880D01*
X102624261Y-83921880D02*
X102624261Y-82921880D01*
X102529023Y-83064738D01*
X102433785Y-83159976D01*
X102338547Y-83207595D01*
X103814738Y-82921880D02*
X103338547Y-82921880D01*
X103290928Y-83398071D01*
X103338547Y-83350452D01*
X103433785Y-83302833D01*
X103671880Y-83302833D01*
X103767119Y-83350452D01*
X103814738Y-83398071D01*
X103862357Y-83493309D01*
X103862357Y-83731404D01*
X103814738Y-83826642D01*
X103767119Y-83874261D01*
X103671880Y-83921880D01*
X103433785Y-83921880D01*
X103338547Y-83874261D01*
X103290928Y-83826642D01*
G04 #@! TO.C,J2*
X87483666Y-96891880D02*
X87483666Y-97606166D01*
X87436047Y-97749023D01*
X87340809Y-97844261D01*
X87197952Y-97891880D01*
X87102714Y-97891880D01*
X87912238Y-96987119D02*
X87959857Y-96939500D01*
X88055095Y-96891880D01*
X88293190Y-96891880D01*
X88388428Y-96939500D01*
X88436047Y-96987119D01*
X88483666Y-97082357D01*
X88483666Y-97177595D01*
X88436047Y-97320452D01*
X87864619Y-97891880D01*
X88483666Y-97891880D01*
G04 #@! TO.C,J1*
X87483666Y-89970380D02*
X87483666Y-90684666D01*
X87436047Y-90827523D01*
X87340809Y-90922761D01*
X87197952Y-90970380D01*
X87102714Y-90970380D01*
X88483666Y-90970380D02*
X87912238Y-90970380D01*
X88197952Y-90970380D02*
X88197952Y-89970380D01*
X88102714Y-90113238D01*
X88007476Y-90208476D01*
X87912238Y-90256095D01*
G04 #@! TO.C,J4*
X87483666Y-103876880D02*
X87483666Y-104591166D01*
X87436047Y-104734023D01*
X87340809Y-104829261D01*
X87197952Y-104876880D01*
X87102714Y-104876880D01*
X88388428Y-104210214D02*
X88388428Y-104876880D01*
X88150333Y-103829261D02*
X87912238Y-104543547D01*
X88531285Y-104543547D01*
G04 #@! TO.C,J8*
X112195380Y-88855833D02*
X112909666Y-88855833D01*
X113052523Y-88903452D01*
X113147761Y-88998690D01*
X113195380Y-89141547D01*
X113195380Y-89236785D01*
X112623952Y-88236785D02*
X112576333Y-88332023D01*
X112528714Y-88379642D01*
X112433476Y-88427261D01*
X112385857Y-88427261D01*
X112290619Y-88379642D01*
X112243000Y-88332023D01*
X112195380Y-88236785D01*
X112195380Y-88046309D01*
X112243000Y-87951071D01*
X112290619Y-87903452D01*
X112385857Y-87855833D01*
X112433476Y-87855833D01*
X112528714Y-87903452D01*
X112576333Y-87951071D01*
X112623952Y-88046309D01*
X112623952Y-88236785D01*
X112671571Y-88332023D01*
X112719190Y-88379642D01*
X112814428Y-88427261D01*
X113004904Y-88427261D01*
X113100142Y-88379642D01*
X113147761Y-88332023D01*
X113195380Y-88236785D01*
X113195380Y-88046309D01*
X113147761Y-87951071D01*
X113100142Y-87903452D01*
X113004904Y-87855833D01*
X112814428Y-87855833D01*
X112719190Y-87903452D01*
X112671571Y-87951071D01*
X112623952Y-88046309D01*
G04 #@! TO.C,J10*
X112195380Y-103365523D02*
X112909666Y-103365523D01*
X113052523Y-103413142D01*
X113147761Y-103508380D01*
X113195380Y-103651238D01*
X113195380Y-103746476D01*
X113195380Y-102365523D02*
X113195380Y-102936952D01*
X113195380Y-102651238D02*
X112195380Y-102651238D01*
X112338238Y-102746476D01*
X112433476Y-102841714D01*
X112481095Y-102936952D01*
X112195380Y-101746476D02*
X112195380Y-101651238D01*
X112243000Y-101556000D01*
X112290619Y-101508380D01*
X112385857Y-101460761D01*
X112576333Y-101413142D01*
X112814428Y-101413142D01*
X113004904Y-101460761D01*
X113100142Y-101508380D01*
X113147761Y-101556000D01*
X113195380Y-101651238D01*
X113195380Y-101746476D01*
X113147761Y-101841714D01*
X113100142Y-101889333D01*
X113004904Y-101936952D01*
X112814428Y-101984571D01*
X112576333Y-101984571D01*
X112385857Y-101936952D01*
X112290619Y-101889333D01*
X112243000Y-101841714D01*
X112195380Y-101746476D01*
G04 #@! TO.C,J11*
X87007476Y-75873380D02*
X87007476Y-76587666D01*
X86959857Y-76730523D01*
X86864619Y-76825761D01*
X86721761Y-76873380D01*
X86626523Y-76873380D01*
X88007476Y-76873380D02*
X87436047Y-76873380D01*
X87721761Y-76873380D02*
X87721761Y-75873380D01*
X87626523Y-76016238D01*
X87531285Y-76111476D01*
X87436047Y-76159095D01*
X88959857Y-76873380D02*
X88388428Y-76873380D01*
X88674142Y-76873380D02*
X88674142Y-75873380D01*
X88578904Y-76016238D01*
X88483666Y-76111476D01*
X88388428Y-76159095D01*
G04 #@! TO.C,J12*
X87007476Y-83272380D02*
X87007476Y-83986666D01*
X86959857Y-84129523D01*
X86864619Y-84224761D01*
X86721761Y-84272380D01*
X86626523Y-84272380D01*
X88007476Y-84272380D02*
X87436047Y-84272380D01*
X87721761Y-84272380D02*
X87721761Y-83272380D01*
X87626523Y-83415238D01*
X87531285Y-83510476D01*
X87436047Y-83558095D01*
X88388428Y-83367619D02*
X88436047Y-83320000D01*
X88531285Y-83272380D01*
X88769380Y-83272380D01*
X88864619Y-83320000D01*
X88912238Y-83367619D01*
X88959857Y-83462857D01*
X88959857Y-83558095D01*
X88912238Y-83700952D01*
X88340809Y-84272380D01*
X88959857Y-84272380D01*
G04 #@! TO.C,J13*
X114061976Y-112101380D02*
X114061976Y-112815666D01*
X114014357Y-112958523D01*
X113919119Y-113053761D01*
X113776261Y-113101380D01*
X113681023Y-113101380D01*
X115061976Y-113101380D02*
X114490547Y-113101380D01*
X114776261Y-113101380D02*
X114776261Y-112101380D01*
X114681023Y-112244238D01*
X114585785Y-112339476D01*
X114490547Y-112387095D01*
X115395309Y-112101380D02*
X116014357Y-112101380D01*
X115681023Y-112482333D01*
X115823880Y-112482333D01*
X115919119Y-112529952D01*
X115966738Y-112577571D01*
X116014357Y-112672809D01*
X116014357Y-112910904D01*
X115966738Y-113006142D01*
X115919119Y-113053761D01*
X115823880Y-113101380D01*
X115538166Y-113101380D01*
X115442928Y-113053761D01*
X115395309Y-113006142D01*
G04 #@! TO.C,J14*
X101909976Y-75873380D02*
X101909976Y-76587666D01*
X101862357Y-76730523D01*
X101767119Y-76825761D01*
X101624261Y-76873380D01*
X101529023Y-76873380D01*
X102909976Y-76873380D02*
X102338547Y-76873380D01*
X102624261Y-76873380D02*
X102624261Y-75873380D01*
X102529023Y-76016238D01*
X102433785Y-76111476D01*
X102338547Y-76159095D01*
X103767119Y-76206714D02*
X103767119Y-76873380D01*
X103529023Y-75825761D02*
X103290928Y-76540047D01*
X103909976Y-76540047D01*
G04 #@! TO.C,J16*
X101909976Y-89970380D02*
X101909976Y-90684666D01*
X101862357Y-90827523D01*
X101767119Y-90922761D01*
X101624261Y-90970380D01*
X101529023Y-90970380D01*
X102909976Y-90970380D02*
X102338547Y-90970380D01*
X102624261Y-90970380D02*
X102624261Y-89970380D01*
X102529023Y-90113238D01*
X102433785Y-90208476D01*
X102338547Y-90256095D01*
X103767119Y-89970380D02*
X103576642Y-89970380D01*
X103481404Y-90018000D01*
X103433785Y-90065619D01*
X103338547Y-90208476D01*
X103290928Y-90398952D01*
X103290928Y-90779904D01*
X103338547Y-90875142D01*
X103386166Y-90922761D01*
X103481404Y-90970380D01*
X103671880Y-90970380D01*
X103767119Y-90922761D01*
X103814738Y-90875142D01*
X103862357Y-90779904D01*
X103862357Y-90541809D01*
X103814738Y-90446571D01*
X103767119Y-90398952D01*
X103671880Y-90351333D01*
X103481404Y-90351333D01*
X103386166Y-90398952D01*
X103338547Y-90446571D01*
X103290928Y-90541809D01*
G04 #@! TO.C,R5*
D12*
X107071833Y-100129952D02*
X106938500Y-99939476D01*
X106843261Y-100129952D02*
X106843261Y-99729952D01*
X106995642Y-99729952D01*
X107033738Y-99749000D01*
X107052785Y-99768047D01*
X107071833Y-99806142D01*
X107071833Y-99863285D01*
X107052785Y-99901380D01*
X107033738Y-99920428D01*
X106995642Y-99939476D01*
X106843261Y-99939476D01*
X107433738Y-99729952D02*
X107243261Y-99729952D01*
X107224214Y-99920428D01*
X107243261Y-99901380D01*
X107281357Y-99882333D01*
X107376595Y-99882333D01*
X107414690Y-99901380D01*
X107433738Y-99920428D01*
X107452785Y-99958523D01*
X107452785Y-100053761D01*
X107433738Y-100091857D01*
X107414690Y-100110904D01*
X107376595Y-100129952D01*
X107281357Y-100129952D01*
X107243261Y-100110904D01*
X107224214Y-100091857D01*
G04 #@! TO.C,R13*
X96072357Y-72570952D02*
X95939023Y-72380476D01*
X95843785Y-72570952D02*
X95843785Y-72170952D01*
X95996166Y-72170952D01*
X96034261Y-72190000D01*
X96053309Y-72209047D01*
X96072357Y-72247142D01*
X96072357Y-72304285D01*
X96053309Y-72342380D01*
X96034261Y-72361428D01*
X95996166Y-72380476D01*
X95843785Y-72380476D01*
X96453309Y-72570952D02*
X96224738Y-72570952D01*
X96339023Y-72570952D02*
X96339023Y-72170952D01*
X96300928Y-72228095D01*
X96262833Y-72266190D01*
X96224738Y-72285238D01*
X96586642Y-72170952D02*
X96834261Y-72170952D01*
X96700928Y-72323333D01*
X96758071Y-72323333D01*
X96796166Y-72342380D01*
X96815214Y-72361428D01*
X96834261Y-72399523D01*
X96834261Y-72494761D01*
X96815214Y-72532857D01*
X96796166Y-72551904D01*
X96758071Y-72570952D01*
X96643785Y-72570952D01*
X96605690Y-72551904D01*
X96586642Y-72532857D01*
G04 #@! TO.C,U1*
D11*
X99212476Y-104209904D02*
X99212476Y-104857523D01*
X99250571Y-104933714D01*
X99288666Y-104971809D01*
X99364857Y-105009904D01*
X99517238Y-105009904D01*
X99593428Y-104971809D01*
X99631523Y-104933714D01*
X99669619Y-104857523D01*
X99669619Y-104209904D01*
X100469619Y-105009904D02*
X100012476Y-105009904D01*
X100241047Y-105009904D02*
X100241047Y-104209904D01*
X100164857Y-104324190D01*
X100088666Y-104400380D01*
X100012476Y-104438476D01*
G04 #@! TO.C,U3*
X120880119Y-87630095D02*
X120070595Y-87630095D01*
X119975357Y-87677714D01*
X119927738Y-87725333D01*
X119880119Y-87820571D01*
X119880119Y-88011047D01*
X119927738Y-88106285D01*
X119975357Y-88153904D01*
X120070595Y-88201523D01*
X120880119Y-88201523D01*
X120880119Y-88582476D02*
X120880119Y-89201523D01*
X120499166Y-88868190D01*
X120499166Y-89011047D01*
X120451547Y-89106285D01*
X120403928Y-89153904D01*
X120308690Y-89201523D01*
X120070595Y-89201523D01*
X119975357Y-89153904D01*
X119927738Y-89106285D01*
X119880119Y-89011047D01*
X119880119Y-88725333D01*
X119927738Y-88630095D01*
X119975357Y-88582476D01*
G04 #@! TO.C,C1*
D13*
X106837166Y-98202714D02*
X106799071Y-98240809D01*
X106684785Y-98278904D01*
X106608595Y-98278904D01*
X106494309Y-98240809D01*
X106418119Y-98164619D01*
X106380023Y-98088428D01*
X106341928Y-97936047D01*
X106341928Y-97821761D01*
X106380023Y-97669380D01*
X106418119Y-97593190D01*
X106494309Y-97517000D01*
X106608595Y-97478904D01*
X106684785Y-97478904D01*
X106799071Y-97517000D01*
X106837166Y-97555095D01*
X107599071Y-98278904D02*
X107141928Y-98278904D01*
X107370500Y-98278904D02*
X107370500Y-97478904D01*
X107294309Y-97593190D01*
X107218119Y-97669380D01*
X107141928Y-97707476D01*
G04 #@! TO.C,J7*
D11*
X140422380Y-81359333D02*
X141136666Y-81359333D01*
X141279523Y-81406952D01*
X141374761Y-81502190D01*
X141422380Y-81645047D01*
X141422380Y-81740285D01*
X140422380Y-80978380D02*
X140422380Y-80311714D01*
X141422380Y-80740285D01*
G04 #@! TO.C,J5*
X128571666Y-112291880D02*
X128571666Y-113006166D01*
X128524047Y-113149023D01*
X128428809Y-113244261D01*
X128285952Y-113291880D01*
X128190714Y-113291880D01*
X129524047Y-112291880D02*
X129047857Y-112291880D01*
X129000238Y-112768071D01*
X129047857Y-112720452D01*
X129143095Y-112672833D01*
X129381190Y-112672833D01*
X129476428Y-112720452D01*
X129524047Y-112768071D01*
X129571666Y-112863309D01*
X129571666Y-113101404D01*
X129524047Y-113196642D01*
X129476428Y-113244261D01*
X129381190Y-113291880D01*
X129143095Y-113291880D01*
X129047857Y-113244261D01*
X129000238Y-113196642D01*
G04 #@! TO.C,J6*
X128293880Y-104155833D02*
X129008166Y-104155833D01*
X129151023Y-104203452D01*
X129246261Y-104298690D01*
X129293880Y-104441547D01*
X129293880Y-104536785D01*
X128293880Y-103251071D02*
X128293880Y-103441547D01*
X128341500Y-103536785D01*
X128389119Y-103584404D01*
X128531976Y-103679642D01*
X128722452Y-103727261D01*
X129103404Y-103727261D01*
X129198642Y-103679642D01*
X129246261Y-103632023D01*
X129293880Y-103536785D01*
X129293880Y-103346309D01*
X129246261Y-103251071D01*
X129198642Y-103203452D01*
X129103404Y-103155833D01*
X128865309Y-103155833D01*
X128770071Y-103203452D01*
X128722452Y-103251071D01*
X128674833Y-103346309D01*
X128674833Y-103536785D01*
X128722452Y-103632023D01*
X128770071Y-103679642D01*
X128865309Y-103727261D01*
G04 #@! TO.C,Q1*
D14*
X107652309Y-108124619D02*
X107628500Y-108172238D01*
X107580880Y-108219857D01*
X107509452Y-108291285D01*
X107485642Y-108338904D01*
X107485642Y-108386523D01*
X107604690Y-108362714D02*
X107580880Y-108410333D01*
X107533261Y-108457952D01*
X107438023Y-108481761D01*
X107271357Y-108481761D01*
X107176119Y-108457952D01*
X107128500Y-108410333D01*
X107104690Y-108362714D01*
X107104690Y-108267476D01*
X107128500Y-108219857D01*
X107176119Y-108172238D01*
X107271357Y-108148428D01*
X107438023Y-108148428D01*
X107533261Y-108172238D01*
X107580880Y-108219857D01*
X107604690Y-108267476D01*
X107604690Y-108362714D01*
X107604690Y-107672238D02*
X107604690Y-107957952D01*
X107604690Y-107815095D02*
X107104690Y-107815095D01*
X107176119Y-107862714D01*
X107223738Y-107910333D01*
X107247547Y-107957952D01*
G04 #@! TO.C,Q2*
X107652309Y-104505119D02*
X107628500Y-104552738D01*
X107580880Y-104600357D01*
X107509452Y-104671785D01*
X107485642Y-104719404D01*
X107485642Y-104767023D01*
X107604690Y-104743214D02*
X107580880Y-104790833D01*
X107533261Y-104838452D01*
X107438023Y-104862261D01*
X107271357Y-104862261D01*
X107176119Y-104838452D01*
X107128500Y-104790833D01*
X107104690Y-104743214D01*
X107104690Y-104647976D01*
X107128500Y-104600357D01*
X107176119Y-104552738D01*
X107271357Y-104528928D01*
X107438023Y-104528928D01*
X107533261Y-104552738D01*
X107580880Y-104600357D01*
X107604690Y-104647976D01*
X107604690Y-104743214D01*
X107152309Y-104338452D02*
X107128500Y-104314642D01*
X107104690Y-104267023D01*
X107104690Y-104147976D01*
X107128500Y-104100357D01*
X107152309Y-104076547D01*
X107199928Y-104052738D01*
X107247547Y-104052738D01*
X107318976Y-104076547D01*
X107604690Y-104362261D01*
X107604690Y-104052738D01*
G04 #@! TO.C,U2*
D11*
X124904595Y-72794880D02*
X124904595Y-73604404D01*
X124952214Y-73699642D01*
X124999833Y-73747261D01*
X125095071Y-73794880D01*
X125285547Y-73794880D01*
X125380785Y-73747261D01*
X125428404Y-73699642D01*
X125476023Y-73604404D01*
X125476023Y-72794880D01*
X125904595Y-72890119D02*
X125952214Y-72842500D01*
X126047452Y-72794880D01*
X126285547Y-72794880D01*
X126380785Y-72842500D01*
X126428404Y-72890119D01*
X126476023Y-72985357D01*
X126476023Y-73080595D01*
X126428404Y-73223452D01*
X125856976Y-73794880D01*
X126476023Y-73794880D01*
G04 #@! TO.C,R1*
D12*
X125613833Y-77396952D02*
X125480500Y-77206476D01*
X125385261Y-77396952D02*
X125385261Y-76996952D01*
X125537642Y-76996952D01*
X125575738Y-77016000D01*
X125594785Y-77035047D01*
X125613833Y-77073142D01*
X125613833Y-77130285D01*
X125594785Y-77168380D01*
X125575738Y-77187428D01*
X125537642Y-77206476D01*
X125385261Y-77206476D01*
X125994785Y-77396952D02*
X125766214Y-77396952D01*
X125880500Y-77396952D02*
X125880500Y-76996952D01*
X125842404Y-77054095D01*
X125804309Y-77092190D01*
X125766214Y-77111238D01*
G04 #@! TO.C,R2*
X119553333Y-74602952D02*
X119420000Y-74412476D01*
X119324761Y-74602952D02*
X119324761Y-74202952D01*
X119477142Y-74202952D01*
X119515238Y-74222000D01*
X119534285Y-74241047D01*
X119553333Y-74279142D01*
X119553333Y-74336285D01*
X119534285Y-74374380D01*
X119515238Y-74393428D01*
X119477142Y-74412476D01*
X119324761Y-74412476D01*
X119705714Y-74241047D02*
X119724761Y-74222000D01*
X119762857Y-74202952D01*
X119858095Y-74202952D01*
X119896190Y-74222000D01*
X119915238Y-74241047D01*
X119934285Y-74279142D01*
X119934285Y-74317238D01*
X119915238Y-74374380D01*
X119686666Y-74602952D01*
X119934285Y-74602952D01*
G04 #@! TO.C,R3*
X119567333Y-72951952D02*
X119434000Y-72761476D01*
X119338761Y-72951952D02*
X119338761Y-72551952D01*
X119491142Y-72551952D01*
X119529238Y-72571000D01*
X119548285Y-72590047D01*
X119567333Y-72628142D01*
X119567333Y-72685285D01*
X119548285Y-72723380D01*
X119529238Y-72742428D01*
X119491142Y-72761476D01*
X119338761Y-72761476D01*
X119700666Y-72551952D02*
X119948285Y-72551952D01*
X119814952Y-72704333D01*
X119872095Y-72704333D01*
X119910190Y-72723380D01*
X119929238Y-72742428D01*
X119948285Y-72780523D01*
X119948285Y-72875761D01*
X119929238Y-72913857D01*
X119910190Y-72932904D01*
X119872095Y-72951952D01*
X119757809Y-72951952D01*
X119719714Y-72932904D01*
X119700666Y-72913857D01*
G04 #@! TO.C,R4*
X119567333Y-71173952D02*
X119434000Y-70983476D01*
X119338761Y-71173952D02*
X119338761Y-70773952D01*
X119491142Y-70773952D01*
X119529238Y-70793000D01*
X119548285Y-70812047D01*
X119567333Y-70850142D01*
X119567333Y-70907285D01*
X119548285Y-70945380D01*
X119529238Y-70964428D01*
X119491142Y-70983476D01*
X119338761Y-70983476D01*
X119910190Y-70907285D02*
X119910190Y-71173952D01*
X119814952Y-70754904D02*
X119719714Y-71040619D01*
X119967333Y-71040619D01*
G04 #@! TO.C,R6*
X106162452Y-111904166D02*
X105971976Y-112037500D01*
X106162452Y-112132738D02*
X105762452Y-112132738D01*
X105762452Y-111980357D01*
X105781500Y-111942261D01*
X105800547Y-111923214D01*
X105838642Y-111904166D01*
X105895785Y-111904166D01*
X105933880Y-111923214D01*
X105952928Y-111942261D01*
X105971976Y-111980357D01*
X105971976Y-112132738D01*
X105762452Y-111561309D02*
X105762452Y-111637500D01*
X105781500Y-111675595D01*
X105800547Y-111694642D01*
X105857690Y-111732738D01*
X105933880Y-111751785D01*
X106086261Y-111751785D01*
X106124357Y-111732738D01*
X106143404Y-111713690D01*
X106162452Y-111675595D01*
X106162452Y-111599404D01*
X106143404Y-111561309D01*
X106124357Y-111542261D01*
X106086261Y-111523214D01*
X105991023Y-111523214D01*
X105952928Y-111542261D01*
X105933880Y-111561309D01*
X105914833Y-111599404D01*
X105914833Y-111675595D01*
X105933880Y-111713690D01*
X105952928Y-111732738D01*
X105991023Y-111751785D01*
G04 #@! TO.C,R7*
X109146952Y-111939666D02*
X108956476Y-112073000D01*
X109146952Y-112168238D02*
X108746952Y-112168238D01*
X108746952Y-112015857D01*
X108766000Y-111977761D01*
X108785047Y-111958714D01*
X108823142Y-111939666D01*
X108880285Y-111939666D01*
X108918380Y-111958714D01*
X108937428Y-111977761D01*
X108956476Y-112015857D01*
X108956476Y-112168238D01*
X108746952Y-111806333D02*
X108746952Y-111539666D01*
X109146952Y-111711095D01*
G04 #@! TD*
M02*
