G04 #@! TF.GenerationSoftware,KiCad,Pcbnew,(5.0.1)-3*
G04 #@! TF.CreationDate,2018-11-18T15:33:46-05:00*
G04 #@! TF.ProjectId,reef-piHat,726565662D70694861742E6B69636164,rev?*
G04 #@! TF.SameCoordinates,Original*
G04 #@! TF.FileFunction,Other,Fab,Bot*
%FSLAX46Y46*%
G04 Gerber Fmt 4.6, Leading zero omitted, Abs format (unit mm)*
G04 Created by KiCad (PCBNEW (5.0.1)-3) date 11/18/2018 3:33:46 PM*
%MOMM*%
%LPD*%
G01*
G04 APERTURE LIST*
%ADD10C,0.100000*%
%ADD11C,0.150000*%
G04 APERTURE END LIST*
D10*
X78546356Y-63817611D02*
X78546356Y-113817611D01*
X78546356Y-63817611D02*
G75*
G02X81546356Y-60817611I3000000J0D01*
G01*
X140546356Y-60817611D02*
X81546356Y-60817611D01*
X140546356Y-60817611D02*
G75*
G02X143546356Y-63817611I0J-3000000D01*
G01*
X143546356Y-113817611D02*
X143546356Y-63817611D01*
X81546356Y-116817611D02*
G75*
G02X78546356Y-113817611I0J3000000D01*
G01*
X81546356Y-116817611D02*
X140546356Y-116817611D01*
X143546351Y-113822847D02*
G75*
G02X140546356Y-116817611I-2999995J5236D01*
G01*
G04 #@! TO.C,J3*
X85650000Y-61780000D02*
X85650000Y-65860000D01*
X85650000Y-65860000D02*
X86650000Y-66860000D01*
X86650000Y-66860000D02*
X136450000Y-66860000D01*
X136450000Y-66860000D02*
X136450000Y-61780000D01*
X136450000Y-61780000D02*
X85650000Y-61780000D01*
G04 #@! TD*
G04 #@! TO.C,J3*
D11*
X111383333Y-63772380D02*
X111383333Y-64486666D01*
X111430952Y-64629523D01*
X111526190Y-64724761D01*
X111669047Y-64772380D01*
X111764285Y-64772380D01*
X111002380Y-63772380D02*
X110383333Y-63772380D01*
X110716666Y-64153333D01*
X110573809Y-64153333D01*
X110478571Y-64200952D01*
X110430952Y-64248571D01*
X110383333Y-64343809D01*
X110383333Y-64581904D01*
X110430952Y-64677142D01*
X110478571Y-64724761D01*
X110573809Y-64772380D01*
X110859523Y-64772380D01*
X110954761Y-64724761D01*
X111002380Y-64677142D01*
G04 #@! TD*
M02*
