G04 #@! TF.GenerationSoftware,KiCad,Pcbnew,(5.0.1)-3*
G04 #@! TF.CreationDate,2018-11-18T15:41:14-05:00*
G04 #@! TF.ProjectId,reef-piHat,726565662D70694861742E6B69636164,rev?*
G04 #@! TF.SameCoordinates,Original*
G04 #@! TF.FileFunction,Copper,L2,Bot,Signal*
G04 #@! TF.FilePolarity,Positive*
%FSLAX46Y46*%
G04 Gerber Fmt 4.6, Leading zero omitted, Abs format (unit mm)*
G04 Created by KiCad (PCBNEW (5.0.1)-3) date 11/18/2018 3:41:14 PM*
%MOMM*%
%LPD*%
G01*
G04 APERTURE LIST*
G04 #@! TA.AperFunction,NonConductor*
%ADD10C,0.100000*%
G04 #@! TD*
G04 #@! TA.AperFunction,ComponentPad*
%ADD11O,1.700000X1.950000*%
G04 #@! TD*
G04 #@! TA.AperFunction,Conductor*
%ADD12C,0.100000*%
G04 #@! TD*
G04 #@! TA.AperFunction,ComponentPad*
%ADD13C,1.700000*%
G04 #@! TD*
G04 #@! TA.AperFunction,ComponentPad*
%ADD14R,1.700000X1.700000*%
G04 #@! TD*
G04 #@! TA.AperFunction,ComponentPad*
%ADD15O,1.700000X1.700000*%
G04 #@! TD*
G04 #@! TA.AperFunction,WasherPad*
%ADD16C,3.000000*%
G04 #@! TD*
G04 #@! TA.AperFunction,ComponentPad*
%ADD17O,1.950000X1.700000*%
G04 #@! TD*
G04 #@! TA.AperFunction,ViaPad*
%ADD18C,0.600000*%
G04 #@! TD*
G04 #@! TA.AperFunction,Conductor*
%ADD19C,0.250000*%
G04 #@! TD*
G04 #@! TA.AperFunction,Conductor*
%ADD20C,0.150000*%
G04 #@! TD*
G04 #@! TA.AperFunction,Conductor*
%ADD21C,0.200000*%
G04 #@! TD*
G04 APERTURE END LIST*
D10*
X78546356Y-63817611D02*
X78546356Y-113817611D01*
X78546356Y-63817611D02*
G75*
G02X81546356Y-60817611I3000000J0D01*
G01*
X140546356Y-60817611D02*
X81546356Y-60817611D01*
X140546356Y-60817611D02*
G75*
G02X143546356Y-63817611I0J-3000000D01*
G01*
X143546356Y-113817611D02*
X143546356Y-63817611D01*
X81546356Y-116817611D02*
G75*
G02X78546356Y-113817611I0J3000000D01*
G01*
X81546356Y-116817611D02*
X140546356Y-116817611D01*
X143546351Y-113822847D02*
G75*
G02X140546356Y-116817611I-2999995J5236D01*
G01*
D11*
G04 #@! TO.P,J15,3*
G04 #@! TO.N,GND*
X100219500Y-86169500D03*
G04 #@! TO.P,J15,2*
G04 #@! TO.N,/1WIRE*
X102719500Y-86169500D03*
D12*
G04 #@! TD*
G04 #@! TO.N,/P3V3_HAT*
G04 #@! TO.C,J15*
G36*
X105844004Y-85195704D02*
X105868273Y-85199304D01*
X105892071Y-85205265D01*
X105915171Y-85213530D01*
X105937349Y-85224020D01*
X105958393Y-85236633D01*
X105978098Y-85251247D01*
X105996277Y-85267723D01*
X106012753Y-85285902D01*
X106027367Y-85305607D01*
X106039980Y-85326651D01*
X106050470Y-85348829D01*
X106058735Y-85371929D01*
X106064696Y-85395727D01*
X106068296Y-85419996D01*
X106069500Y-85444500D01*
X106069500Y-86894500D01*
X106068296Y-86919004D01*
X106064696Y-86943273D01*
X106058735Y-86967071D01*
X106050470Y-86990171D01*
X106039980Y-87012349D01*
X106027367Y-87033393D01*
X106012753Y-87053098D01*
X105996277Y-87071277D01*
X105978098Y-87087753D01*
X105958393Y-87102367D01*
X105937349Y-87114980D01*
X105915171Y-87125470D01*
X105892071Y-87133735D01*
X105868273Y-87139696D01*
X105844004Y-87143296D01*
X105819500Y-87144500D01*
X104619500Y-87144500D01*
X104594996Y-87143296D01*
X104570727Y-87139696D01*
X104546929Y-87133735D01*
X104523829Y-87125470D01*
X104501651Y-87114980D01*
X104480607Y-87102367D01*
X104460902Y-87087753D01*
X104442723Y-87071277D01*
X104426247Y-87053098D01*
X104411633Y-87033393D01*
X104399020Y-87012349D01*
X104388530Y-86990171D01*
X104380265Y-86967071D01*
X104374304Y-86943273D01*
X104370704Y-86919004D01*
X104369500Y-86894500D01*
X104369500Y-85444500D01*
X104370704Y-85419996D01*
X104374304Y-85395727D01*
X104380265Y-85371929D01*
X104388530Y-85348829D01*
X104399020Y-85326651D01*
X104411633Y-85305607D01*
X104426247Y-85285902D01*
X104442723Y-85267723D01*
X104460902Y-85251247D01*
X104480607Y-85236633D01*
X104501651Y-85224020D01*
X104523829Y-85213530D01*
X104546929Y-85205265D01*
X104570727Y-85199304D01*
X104594996Y-85195704D01*
X104619500Y-85194500D01*
X105819500Y-85194500D01*
X105844004Y-85195704D01*
X105844004Y-85195704D01*
G37*
D13*
G04 #@! TO.P,J15,1*
G04 #@! TO.N,/P3V3_HAT*
X105219500Y-86169500D03*
G04 #@! TD*
D12*
G04 #@! TO.N,Net-(J2-Pad1)*
G04 #@! TO.C,J2*
G36*
X92191504Y-99165704D02*
X92215773Y-99169304D01*
X92239571Y-99175265D01*
X92262671Y-99183530D01*
X92284849Y-99194020D01*
X92305893Y-99206633D01*
X92325598Y-99221247D01*
X92343777Y-99237723D01*
X92360253Y-99255902D01*
X92374867Y-99275607D01*
X92387480Y-99296651D01*
X92397970Y-99318829D01*
X92406235Y-99341929D01*
X92412196Y-99365727D01*
X92415796Y-99389996D01*
X92417000Y-99414500D01*
X92417000Y-100864500D01*
X92415796Y-100889004D01*
X92412196Y-100913273D01*
X92406235Y-100937071D01*
X92397970Y-100960171D01*
X92387480Y-100982349D01*
X92374867Y-101003393D01*
X92360253Y-101023098D01*
X92343777Y-101041277D01*
X92325598Y-101057753D01*
X92305893Y-101072367D01*
X92284849Y-101084980D01*
X92262671Y-101095470D01*
X92239571Y-101103735D01*
X92215773Y-101109696D01*
X92191504Y-101113296D01*
X92167000Y-101114500D01*
X90967000Y-101114500D01*
X90942496Y-101113296D01*
X90918227Y-101109696D01*
X90894429Y-101103735D01*
X90871329Y-101095470D01*
X90849151Y-101084980D01*
X90828107Y-101072367D01*
X90808402Y-101057753D01*
X90790223Y-101041277D01*
X90773747Y-101023098D01*
X90759133Y-101003393D01*
X90746520Y-100982349D01*
X90736030Y-100960171D01*
X90727765Y-100937071D01*
X90721804Y-100913273D01*
X90718204Y-100889004D01*
X90717000Y-100864500D01*
X90717000Y-99414500D01*
X90718204Y-99389996D01*
X90721804Y-99365727D01*
X90727765Y-99341929D01*
X90736030Y-99318829D01*
X90746520Y-99296651D01*
X90759133Y-99275607D01*
X90773747Y-99255902D01*
X90790223Y-99237723D01*
X90808402Y-99221247D01*
X90828107Y-99206633D01*
X90849151Y-99194020D01*
X90871329Y-99183530D01*
X90894429Y-99175265D01*
X90918227Y-99169304D01*
X90942496Y-99165704D01*
X90967000Y-99164500D01*
X92167000Y-99164500D01*
X92191504Y-99165704D01*
X92191504Y-99165704D01*
G37*
D13*
G04 #@! TD*
G04 #@! TO.P,J2,1*
G04 #@! TO.N,Net-(J2-Pad1)*
X91567000Y-100139500D03*
D11*
G04 #@! TO.P,J2,2*
G04 #@! TO.N,Net-(J2-Pad2)*
X89067000Y-100139500D03*
G04 #@! TO.P,J2,3*
G04 #@! TO.N,Net-(J2-Pad3)*
X86567000Y-100139500D03*
G04 #@! TO.P,J2,4*
G04 #@! TO.N,GND*
X84067000Y-100139500D03*
G04 #@! TD*
D14*
G04 #@! TO.P,J3,1*
G04 #@! TO.N,/P3V3_HAT*
X86920000Y-65590000D03*
D15*
G04 #@! TO.P,J3,2*
G04 #@! TO.N,/P5V_HAT*
X86920000Y-63050000D03*
G04 #@! TO.P,J3,3*
G04 #@! TO.N,/SDA*
X89460000Y-65590000D03*
G04 #@! TO.P,J3,4*
G04 #@! TO.N,/P5V_HAT*
X89460000Y-63050000D03*
G04 #@! TO.P,J3,5*
G04 #@! TO.N,/SCL*
X92000000Y-65590000D03*
G04 #@! TO.P,J3,6*
G04 #@! TO.N,GND*
X92000000Y-63050000D03*
G04 #@! TO.P,J3,7*
G04 #@! TO.N,/1WIRE*
X94540000Y-65590000D03*
G04 #@! TO.P,J3,8*
G04 #@! TO.N,Net-(J3-Pad8)*
X94540000Y-63050000D03*
G04 #@! TO.P,J3,9*
G04 #@! TO.N,GND*
X97080000Y-65590000D03*
G04 #@! TO.P,J3,10*
G04 #@! TO.N,Net-(J3-Pad10)*
X97080000Y-63050000D03*
G04 #@! TO.P,J3,11*
G04 #@! TO.N,Net-(J3-Pad11)*
X99620000Y-65590000D03*
G04 #@! TO.P,J3,12*
G04 #@! TO.N,/ATO2*
X99620000Y-63050000D03*
G04 #@! TO.P,J3,13*
G04 #@! TO.N,/ATO1*
X102160000Y-65590000D03*
G04 #@! TO.P,J3,14*
G04 #@! TO.N,GND*
X102160000Y-63050000D03*
G04 #@! TO.P,J3,15*
G04 #@! TO.N,/PA8*
X104700000Y-65590000D03*
G04 #@! TO.P,J3,16*
G04 #@! TO.N,/PA7*
X104700000Y-63050000D03*
G04 #@! TO.P,J3,17*
G04 #@! TO.N,/P3V3*
X107240000Y-65590000D03*
G04 #@! TO.P,J3,18*
G04 #@! TO.N,/PA6*
X107240000Y-63050000D03*
G04 #@! TO.P,J3,19*
G04 #@! TO.N,/PA5*
X109780000Y-65590000D03*
G04 #@! TO.P,J3,20*
G04 #@! TO.N,GND*
X109780000Y-63050000D03*
G04 #@! TO.P,J3,21*
G04 #@! TO.N,/PA3*
X112320000Y-65590000D03*
G04 #@! TO.P,J3,22*
G04 #@! TO.N,/PA4*
X112320000Y-63050000D03*
G04 #@! TO.P,J3,23*
G04 #@! TO.N,/PA1*
X114860000Y-65590000D03*
G04 #@! TO.P,J3,24*
G04 #@! TO.N,/PA2*
X114860000Y-63050000D03*
G04 #@! TO.P,J3,25*
G04 #@! TO.N,GND*
X117400000Y-65590000D03*
G04 #@! TO.P,J3,26*
G04 #@! TO.N,Net-(J3-Pad26)*
X117400000Y-63050000D03*
G04 #@! TO.P,J3,27*
G04 #@! TO.N,/ID_SD_EEPROM*
X119940000Y-65590000D03*
G04 #@! TO.P,J3,28*
G04 #@! TO.N,/ID_SC_EEPROM*
X119940000Y-63050000D03*
G04 #@! TO.P,J3,29*
G04 #@! TO.N,/PB8*
X122480000Y-65590000D03*
G04 #@! TO.P,J3,30*
G04 #@! TO.N,GND*
X122480000Y-63050000D03*
G04 #@! TO.P,J3,31*
G04 #@! TO.N,/PB7*
X125020000Y-65590000D03*
G04 #@! TO.P,J3,32*
G04 #@! TO.N,Net-(J3-Pad32)*
X125020000Y-63050000D03*
G04 #@! TO.P,J3,33*
G04 #@! TO.N,/PB6*
X127560000Y-65590000D03*
G04 #@! TO.P,J3,34*
G04 #@! TO.N,GND*
X127560000Y-63050000D03*
G04 #@! TO.P,J3,35*
G04 #@! TO.N,/PB4*
X130100000Y-65590000D03*
G04 #@! TO.P,J3,36*
G04 #@! TO.N,/PB5*
X130100000Y-63050000D03*
G04 #@! TO.P,J3,37*
G04 #@! TO.N,/PB2*
X132640000Y-65590000D03*
G04 #@! TO.P,J3,38*
G04 #@! TO.N,/PB3*
X132640000Y-63050000D03*
G04 #@! TO.P,J3,39*
G04 #@! TO.N,GND*
X135180000Y-65590000D03*
G04 #@! TO.P,J3,40*
G04 #@! TO.N,/PB1*
X135180000Y-63050000D03*
G04 #@! TD*
D16*
G04 #@! TO.P,H1,*
G04 #@! TO.N,*
X82040000Y-64310000D03*
G04 #@! TD*
G04 #@! TO.P,H2,*
G04 #@! TO.N,*
X140040000Y-64330000D03*
G04 #@! TD*
G04 #@! TO.P,H3,*
G04 #@! TO.N,*
X82040000Y-113320000D03*
G04 #@! TD*
G04 #@! TO.P,H4,*
G04 #@! TO.N,*
X140030000Y-113310000D03*
G04 #@! TD*
D11*
G04 #@! TO.P,J1,4*
G04 #@! TO.N,GND*
X84067000Y-93218000D03*
G04 #@! TO.P,J1,3*
G04 #@! TO.N,Net-(J1-Pad3)*
X86567000Y-93218000D03*
G04 #@! TO.P,J1,2*
G04 #@! TO.N,Net-(J1-Pad2)*
X89067000Y-93218000D03*
D12*
G04 #@! TD*
G04 #@! TO.N,Net-(J1-Pad1)*
G04 #@! TO.C,J1*
G36*
X92191504Y-92244204D02*
X92215773Y-92247804D01*
X92239571Y-92253765D01*
X92262671Y-92262030D01*
X92284849Y-92272520D01*
X92305893Y-92285133D01*
X92325598Y-92299747D01*
X92343777Y-92316223D01*
X92360253Y-92334402D01*
X92374867Y-92354107D01*
X92387480Y-92375151D01*
X92397970Y-92397329D01*
X92406235Y-92420429D01*
X92412196Y-92444227D01*
X92415796Y-92468496D01*
X92417000Y-92493000D01*
X92417000Y-93943000D01*
X92415796Y-93967504D01*
X92412196Y-93991773D01*
X92406235Y-94015571D01*
X92397970Y-94038671D01*
X92387480Y-94060849D01*
X92374867Y-94081893D01*
X92360253Y-94101598D01*
X92343777Y-94119777D01*
X92325598Y-94136253D01*
X92305893Y-94150867D01*
X92284849Y-94163480D01*
X92262671Y-94173970D01*
X92239571Y-94182235D01*
X92215773Y-94188196D01*
X92191504Y-94191796D01*
X92167000Y-94193000D01*
X90967000Y-94193000D01*
X90942496Y-94191796D01*
X90918227Y-94188196D01*
X90894429Y-94182235D01*
X90871329Y-94173970D01*
X90849151Y-94163480D01*
X90828107Y-94150867D01*
X90808402Y-94136253D01*
X90790223Y-94119777D01*
X90773747Y-94101598D01*
X90759133Y-94081893D01*
X90746520Y-94060849D01*
X90736030Y-94038671D01*
X90727765Y-94015571D01*
X90721804Y-93991773D01*
X90718204Y-93967504D01*
X90717000Y-93943000D01*
X90717000Y-92493000D01*
X90718204Y-92468496D01*
X90721804Y-92444227D01*
X90727765Y-92420429D01*
X90736030Y-92397329D01*
X90746520Y-92375151D01*
X90759133Y-92354107D01*
X90773747Y-92334402D01*
X90790223Y-92316223D01*
X90808402Y-92299747D01*
X90828107Y-92285133D01*
X90849151Y-92272520D01*
X90871329Y-92262030D01*
X90894429Y-92253765D01*
X90918227Y-92247804D01*
X90942496Y-92244204D01*
X90967000Y-92243000D01*
X92167000Y-92243000D01*
X92191504Y-92244204D01*
X92191504Y-92244204D01*
G37*
D13*
G04 #@! TO.P,J1,1*
G04 #@! TO.N,Net-(J1-Pad1)*
X91567000Y-93218000D03*
G04 #@! TD*
D12*
G04 #@! TO.N,Net-(J4-Pad1)*
G04 #@! TO.C,J4*
G36*
X92191504Y-106150704D02*
X92215773Y-106154304D01*
X92239571Y-106160265D01*
X92262671Y-106168530D01*
X92284849Y-106179020D01*
X92305893Y-106191633D01*
X92325598Y-106206247D01*
X92343777Y-106222723D01*
X92360253Y-106240902D01*
X92374867Y-106260607D01*
X92387480Y-106281651D01*
X92397970Y-106303829D01*
X92406235Y-106326929D01*
X92412196Y-106350727D01*
X92415796Y-106374996D01*
X92417000Y-106399500D01*
X92417000Y-107849500D01*
X92415796Y-107874004D01*
X92412196Y-107898273D01*
X92406235Y-107922071D01*
X92397970Y-107945171D01*
X92387480Y-107967349D01*
X92374867Y-107988393D01*
X92360253Y-108008098D01*
X92343777Y-108026277D01*
X92325598Y-108042753D01*
X92305893Y-108057367D01*
X92284849Y-108069980D01*
X92262671Y-108080470D01*
X92239571Y-108088735D01*
X92215773Y-108094696D01*
X92191504Y-108098296D01*
X92167000Y-108099500D01*
X90967000Y-108099500D01*
X90942496Y-108098296D01*
X90918227Y-108094696D01*
X90894429Y-108088735D01*
X90871329Y-108080470D01*
X90849151Y-108069980D01*
X90828107Y-108057367D01*
X90808402Y-108042753D01*
X90790223Y-108026277D01*
X90773747Y-108008098D01*
X90759133Y-107988393D01*
X90746520Y-107967349D01*
X90736030Y-107945171D01*
X90727765Y-107922071D01*
X90721804Y-107898273D01*
X90718204Y-107874004D01*
X90717000Y-107849500D01*
X90717000Y-106399500D01*
X90718204Y-106374996D01*
X90721804Y-106350727D01*
X90727765Y-106326929D01*
X90736030Y-106303829D01*
X90746520Y-106281651D01*
X90759133Y-106260607D01*
X90773747Y-106240902D01*
X90790223Y-106222723D01*
X90808402Y-106206247D01*
X90828107Y-106191633D01*
X90849151Y-106179020D01*
X90871329Y-106168530D01*
X90894429Y-106160265D01*
X90918227Y-106154304D01*
X90942496Y-106150704D01*
X90967000Y-106149500D01*
X92167000Y-106149500D01*
X92191504Y-106150704D01*
X92191504Y-106150704D01*
G37*
D13*
G04 #@! TD*
G04 #@! TO.P,J4,1*
G04 #@! TO.N,Net-(J4-Pad1)*
X91567000Y-107124500D03*
D11*
G04 #@! TO.P,J4,2*
G04 #@! TO.N,Net-(J4-Pad2)*
X89067000Y-107124500D03*
G04 #@! TO.P,J4,3*
G04 #@! TO.N,Net-(J4-Pad3)*
X86567000Y-107124500D03*
G04 #@! TO.P,J4,4*
G04 #@! TO.N,GND*
X84067000Y-107124500D03*
G04 #@! TD*
D12*
G04 #@! TO.N,/P5V*
G04 #@! TO.C,J8*
G36*
X116192504Y-83923704D02*
X116216773Y-83927304D01*
X116240571Y-83933265D01*
X116263671Y-83941530D01*
X116285849Y-83952020D01*
X116306893Y-83964633D01*
X116326598Y-83979247D01*
X116344777Y-83995723D01*
X116361253Y-84013902D01*
X116375867Y-84033607D01*
X116388480Y-84054651D01*
X116398970Y-84076829D01*
X116407235Y-84099929D01*
X116413196Y-84123727D01*
X116416796Y-84147996D01*
X116418000Y-84172500D01*
X116418000Y-85372500D01*
X116416796Y-85397004D01*
X116413196Y-85421273D01*
X116407235Y-85445071D01*
X116398970Y-85468171D01*
X116388480Y-85490349D01*
X116375867Y-85511393D01*
X116361253Y-85531098D01*
X116344777Y-85549277D01*
X116326598Y-85565753D01*
X116306893Y-85580367D01*
X116285849Y-85592980D01*
X116263671Y-85603470D01*
X116240571Y-85611735D01*
X116216773Y-85617696D01*
X116192504Y-85621296D01*
X116168000Y-85622500D01*
X114718000Y-85622500D01*
X114693496Y-85621296D01*
X114669227Y-85617696D01*
X114645429Y-85611735D01*
X114622329Y-85603470D01*
X114600151Y-85592980D01*
X114579107Y-85580367D01*
X114559402Y-85565753D01*
X114541223Y-85549277D01*
X114524747Y-85531098D01*
X114510133Y-85511393D01*
X114497520Y-85490349D01*
X114487030Y-85468171D01*
X114478765Y-85445071D01*
X114472804Y-85421273D01*
X114469204Y-85397004D01*
X114468000Y-85372500D01*
X114468000Y-84172500D01*
X114469204Y-84147996D01*
X114472804Y-84123727D01*
X114478765Y-84099929D01*
X114487030Y-84076829D01*
X114497520Y-84054651D01*
X114510133Y-84033607D01*
X114524747Y-84013902D01*
X114541223Y-83995723D01*
X114559402Y-83979247D01*
X114579107Y-83964633D01*
X114600151Y-83952020D01*
X114622329Y-83941530D01*
X114645429Y-83933265D01*
X114669227Y-83927304D01*
X114693496Y-83923704D01*
X114718000Y-83922500D01*
X116168000Y-83922500D01*
X116192504Y-83923704D01*
X116192504Y-83923704D01*
G37*
D13*
G04 #@! TD*
G04 #@! TO.P,J8,1*
G04 #@! TO.N,/P5V*
X115443000Y-84772500D03*
D17*
G04 #@! TO.P,J8,2*
G04 #@! TO.N,/ATO1*
X115443000Y-87272500D03*
G04 #@! TO.P,J8,3*
G04 #@! TO.N,GND*
X115443000Y-89772500D03*
G04 #@! TO.P,J8,4*
X115443000Y-92272500D03*
G04 #@! TD*
G04 #@! TO.P,J10,4*
G04 #@! TO.N,GND*
X115443000Y-106306000D03*
G04 #@! TO.P,J10,3*
X115443000Y-103806000D03*
G04 #@! TO.P,J10,2*
G04 #@! TO.N,/ATO2*
X115443000Y-101306000D03*
D12*
G04 #@! TD*
G04 #@! TO.N,/P5V*
G04 #@! TO.C,J10*
G36*
X116192504Y-97957204D02*
X116216773Y-97960804D01*
X116240571Y-97966765D01*
X116263671Y-97975030D01*
X116285849Y-97985520D01*
X116306893Y-97998133D01*
X116326598Y-98012747D01*
X116344777Y-98029223D01*
X116361253Y-98047402D01*
X116375867Y-98067107D01*
X116388480Y-98088151D01*
X116398970Y-98110329D01*
X116407235Y-98133429D01*
X116413196Y-98157227D01*
X116416796Y-98181496D01*
X116418000Y-98206000D01*
X116418000Y-99406000D01*
X116416796Y-99430504D01*
X116413196Y-99454773D01*
X116407235Y-99478571D01*
X116398970Y-99501671D01*
X116388480Y-99523849D01*
X116375867Y-99544893D01*
X116361253Y-99564598D01*
X116344777Y-99582777D01*
X116326598Y-99599253D01*
X116306893Y-99613867D01*
X116285849Y-99626480D01*
X116263671Y-99636970D01*
X116240571Y-99645235D01*
X116216773Y-99651196D01*
X116192504Y-99654796D01*
X116168000Y-99656000D01*
X114718000Y-99656000D01*
X114693496Y-99654796D01*
X114669227Y-99651196D01*
X114645429Y-99645235D01*
X114622329Y-99636970D01*
X114600151Y-99626480D01*
X114579107Y-99613867D01*
X114559402Y-99599253D01*
X114541223Y-99582777D01*
X114524747Y-99564598D01*
X114510133Y-99544893D01*
X114497520Y-99523849D01*
X114487030Y-99501671D01*
X114478765Y-99478571D01*
X114472804Y-99454773D01*
X114469204Y-99430504D01*
X114468000Y-99406000D01*
X114468000Y-98206000D01*
X114469204Y-98181496D01*
X114472804Y-98157227D01*
X114478765Y-98133429D01*
X114487030Y-98110329D01*
X114497520Y-98088151D01*
X114510133Y-98067107D01*
X114524747Y-98047402D01*
X114541223Y-98029223D01*
X114559402Y-98012747D01*
X114579107Y-97998133D01*
X114600151Y-97985520D01*
X114622329Y-97975030D01*
X114645429Y-97966765D01*
X114669227Y-97960804D01*
X114693496Y-97957204D01*
X114718000Y-97956000D01*
X116168000Y-97956000D01*
X116192504Y-97957204D01*
X116192504Y-97957204D01*
G37*
D13*
G04 #@! TO.P,J10,1*
G04 #@! TO.N,/P5V*
X115443000Y-98806000D03*
G04 #@! TD*
D12*
G04 #@! TO.N,/P5V*
G04 #@! TO.C,J11*
G36*
X92191504Y-78147204D02*
X92215773Y-78150804D01*
X92239571Y-78156765D01*
X92262671Y-78165030D01*
X92284849Y-78175520D01*
X92305893Y-78188133D01*
X92325598Y-78202747D01*
X92343777Y-78219223D01*
X92360253Y-78237402D01*
X92374867Y-78257107D01*
X92387480Y-78278151D01*
X92397970Y-78300329D01*
X92406235Y-78323429D01*
X92412196Y-78347227D01*
X92415796Y-78371496D01*
X92417000Y-78396000D01*
X92417000Y-79846000D01*
X92415796Y-79870504D01*
X92412196Y-79894773D01*
X92406235Y-79918571D01*
X92397970Y-79941671D01*
X92387480Y-79963849D01*
X92374867Y-79984893D01*
X92360253Y-80004598D01*
X92343777Y-80022777D01*
X92325598Y-80039253D01*
X92305893Y-80053867D01*
X92284849Y-80066480D01*
X92262671Y-80076970D01*
X92239571Y-80085235D01*
X92215773Y-80091196D01*
X92191504Y-80094796D01*
X92167000Y-80096000D01*
X90967000Y-80096000D01*
X90942496Y-80094796D01*
X90918227Y-80091196D01*
X90894429Y-80085235D01*
X90871329Y-80076970D01*
X90849151Y-80066480D01*
X90828107Y-80053867D01*
X90808402Y-80039253D01*
X90790223Y-80022777D01*
X90773747Y-80004598D01*
X90759133Y-79984893D01*
X90746520Y-79963849D01*
X90736030Y-79941671D01*
X90727765Y-79918571D01*
X90721804Y-79894773D01*
X90718204Y-79870504D01*
X90717000Y-79846000D01*
X90717000Y-78396000D01*
X90718204Y-78371496D01*
X90721804Y-78347227D01*
X90727765Y-78323429D01*
X90736030Y-78300329D01*
X90746520Y-78278151D01*
X90759133Y-78257107D01*
X90773747Y-78237402D01*
X90790223Y-78219223D01*
X90808402Y-78202747D01*
X90828107Y-78188133D01*
X90849151Y-78175520D01*
X90871329Y-78165030D01*
X90894429Y-78156765D01*
X90918227Y-78150804D01*
X90942496Y-78147204D01*
X90967000Y-78146000D01*
X92167000Y-78146000D01*
X92191504Y-78147204D01*
X92191504Y-78147204D01*
G37*
D13*
G04 #@! TD*
G04 #@! TO.P,J11,1*
G04 #@! TO.N,/P5V*
X91567000Y-79121000D03*
D11*
G04 #@! TO.P,J11,2*
G04 #@! TO.N,/SCL*
X89067000Y-79121000D03*
G04 #@! TO.P,J11,3*
G04 #@! TO.N,/SDA*
X86567000Y-79121000D03*
G04 #@! TO.P,J11,4*
G04 #@! TO.N,GND*
X84067000Y-79121000D03*
G04 #@! TD*
G04 #@! TO.P,J12,4*
G04 #@! TO.N,GND*
X84067000Y-86169500D03*
G04 #@! TO.P,J12,3*
G04 #@! TO.N,/SDA*
X86567000Y-86169500D03*
G04 #@! TO.P,J12,2*
G04 #@! TO.N,/SCL*
X89067000Y-86169500D03*
D12*
G04 #@! TD*
G04 #@! TO.N,/P5V*
G04 #@! TO.C,J12*
G36*
X92191504Y-85195704D02*
X92215773Y-85199304D01*
X92239571Y-85205265D01*
X92262671Y-85213530D01*
X92284849Y-85224020D01*
X92305893Y-85236633D01*
X92325598Y-85251247D01*
X92343777Y-85267723D01*
X92360253Y-85285902D01*
X92374867Y-85305607D01*
X92387480Y-85326651D01*
X92397970Y-85348829D01*
X92406235Y-85371929D01*
X92412196Y-85395727D01*
X92415796Y-85419996D01*
X92417000Y-85444500D01*
X92417000Y-86894500D01*
X92415796Y-86919004D01*
X92412196Y-86943273D01*
X92406235Y-86967071D01*
X92397970Y-86990171D01*
X92387480Y-87012349D01*
X92374867Y-87033393D01*
X92360253Y-87053098D01*
X92343777Y-87071277D01*
X92325598Y-87087753D01*
X92305893Y-87102367D01*
X92284849Y-87114980D01*
X92262671Y-87125470D01*
X92239571Y-87133735D01*
X92215773Y-87139696D01*
X92191504Y-87143296D01*
X92167000Y-87144500D01*
X90967000Y-87144500D01*
X90942496Y-87143296D01*
X90918227Y-87139696D01*
X90894429Y-87133735D01*
X90871329Y-87125470D01*
X90849151Y-87114980D01*
X90828107Y-87102367D01*
X90808402Y-87087753D01*
X90790223Y-87071277D01*
X90773747Y-87053098D01*
X90759133Y-87033393D01*
X90746520Y-87012349D01*
X90736030Y-86990171D01*
X90727765Y-86967071D01*
X90721804Y-86943273D01*
X90718204Y-86919004D01*
X90717000Y-86894500D01*
X90717000Y-85444500D01*
X90718204Y-85419996D01*
X90721804Y-85395727D01*
X90727765Y-85371929D01*
X90736030Y-85348829D01*
X90746520Y-85326651D01*
X90759133Y-85305607D01*
X90773747Y-85285902D01*
X90790223Y-85267723D01*
X90808402Y-85251247D01*
X90828107Y-85236633D01*
X90849151Y-85224020D01*
X90871329Y-85213530D01*
X90894429Y-85205265D01*
X90918227Y-85199304D01*
X90942496Y-85195704D01*
X90967000Y-85194500D01*
X92167000Y-85194500D01*
X92191504Y-85195704D01*
X92191504Y-85195704D01*
G37*
D13*
G04 #@! TO.P,J12,1*
G04 #@! TO.N,/P5V*
X91567000Y-86169500D03*
G04 #@! TD*
D14*
G04 #@! TO.P,J13,1*
G04 #@! TO.N,/P5V*
X113601500Y-112649000D03*
D15*
G04 #@! TO.P,J13,2*
G04 #@! TO.N,GND*
X116141500Y-112649000D03*
G04 #@! TD*
D12*
G04 #@! TO.N,/P3V3_HAT*
G04 #@! TO.C,J14*
G36*
X105844004Y-78147204D02*
X105868273Y-78150804D01*
X105892071Y-78156765D01*
X105915171Y-78165030D01*
X105937349Y-78175520D01*
X105958393Y-78188133D01*
X105978098Y-78202747D01*
X105996277Y-78219223D01*
X106012753Y-78237402D01*
X106027367Y-78257107D01*
X106039980Y-78278151D01*
X106050470Y-78300329D01*
X106058735Y-78323429D01*
X106064696Y-78347227D01*
X106068296Y-78371496D01*
X106069500Y-78396000D01*
X106069500Y-79846000D01*
X106068296Y-79870504D01*
X106064696Y-79894773D01*
X106058735Y-79918571D01*
X106050470Y-79941671D01*
X106039980Y-79963849D01*
X106027367Y-79984893D01*
X106012753Y-80004598D01*
X105996277Y-80022777D01*
X105978098Y-80039253D01*
X105958393Y-80053867D01*
X105937349Y-80066480D01*
X105915171Y-80076970D01*
X105892071Y-80085235D01*
X105868273Y-80091196D01*
X105844004Y-80094796D01*
X105819500Y-80096000D01*
X104619500Y-80096000D01*
X104594996Y-80094796D01*
X104570727Y-80091196D01*
X104546929Y-80085235D01*
X104523829Y-80076970D01*
X104501651Y-80066480D01*
X104480607Y-80053867D01*
X104460902Y-80039253D01*
X104442723Y-80022777D01*
X104426247Y-80004598D01*
X104411633Y-79984893D01*
X104399020Y-79963849D01*
X104388530Y-79941671D01*
X104380265Y-79918571D01*
X104374304Y-79894773D01*
X104370704Y-79870504D01*
X104369500Y-79846000D01*
X104369500Y-78396000D01*
X104370704Y-78371496D01*
X104374304Y-78347227D01*
X104380265Y-78323429D01*
X104388530Y-78300329D01*
X104399020Y-78278151D01*
X104411633Y-78257107D01*
X104426247Y-78237402D01*
X104442723Y-78219223D01*
X104460902Y-78202747D01*
X104480607Y-78188133D01*
X104501651Y-78175520D01*
X104523829Y-78165030D01*
X104546929Y-78156765D01*
X104570727Y-78150804D01*
X104594996Y-78147204D01*
X104619500Y-78146000D01*
X105819500Y-78146000D01*
X105844004Y-78147204D01*
X105844004Y-78147204D01*
G37*
D13*
G04 #@! TD*
G04 #@! TO.P,J14,1*
G04 #@! TO.N,/P3V3_HAT*
X105219500Y-79121000D03*
D11*
G04 #@! TO.P,J14,2*
G04 #@! TO.N,/1WIRE*
X102719500Y-79121000D03*
G04 #@! TO.P,J14,3*
G04 #@! TO.N,GND*
X100219500Y-79121000D03*
G04 #@! TD*
D12*
G04 #@! TO.N,/P3V3_HAT*
G04 #@! TO.C,J16*
G36*
X105844004Y-92244204D02*
X105868273Y-92247804D01*
X105892071Y-92253765D01*
X105915171Y-92262030D01*
X105937349Y-92272520D01*
X105958393Y-92285133D01*
X105978098Y-92299747D01*
X105996277Y-92316223D01*
X106012753Y-92334402D01*
X106027367Y-92354107D01*
X106039980Y-92375151D01*
X106050470Y-92397329D01*
X106058735Y-92420429D01*
X106064696Y-92444227D01*
X106068296Y-92468496D01*
X106069500Y-92493000D01*
X106069500Y-93943000D01*
X106068296Y-93967504D01*
X106064696Y-93991773D01*
X106058735Y-94015571D01*
X106050470Y-94038671D01*
X106039980Y-94060849D01*
X106027367Y-94081893D01*
X106012753Y-94101598D01*
X105996277Y-94119777D01*
X105978098Y-94136253D01*
X105958393Y-94150867D01*
X105937349Y-94163480D01*
X105915171Y-94173970D01*
X105892071Y-94182235D01*
X105868273Y-94188196D01*
X105844004Y-94191796D01*
X105819500Y-94193000D01*
X104619500Y-94193000D01*
X104594996Y-94191796D01*
X104570727Y-94188196D01*
X104546929Y-94182235D01*
X104523829Y-94173970D01*
X104501651Y-94163480D01*
X104480607Y-94150867D01*
X104460902Y-94136253D01*
X104442723Y-94119777D01*
X104426247Y-94101598D01*
X104411633Y-94081893D01*
X104399020Y-94060849D01*
X104388530Y-94038671D01*
X104380265Y-94015571D01*
X104374304Y-93991773D01*
X104370704Y-93967504D01*
X104369500Y-93943000D01*
X104369500Y-92493000D01*
X104370704Y-92468496D01*
X104374304Y-92444227D01*
X104380265Y-92420429D01*
X104388530Y-92397329D01*
X104399020Y-92375151D01*
X104411633Y-92354107D01*
X104426247Y-92334402D01*
X104442723Y-92316223D01*
X104460902Y-92299747D01*
X104480607Y-92285133D01*
X104501651Y-92272520D01*
X104523829Y-92262030D01*
X104546929Y-92253765D01*
X104570727Y-92247804D01*
X104594996Y-92244204D01*
X104619500Y-92243000D01*
X105819500Y-92243000D01*
X105844004Y-92244204D01*
X105844004Y-92244204D01*
G37*
D13*
G04 #@! TD*
G04 #@! TO.P,J16,1*
G04 #@! TO.N,/P3V3_HAT*
X105219500Y-93218000D03*
D11*
G04 #@! TO.P,J16,2*
G04 #@! TO.N,/1WIRE*
X102719500Y-93218000D03*
G04 #@! TO.P,J16,3*
G04 #@! TO.N,GND*
X100219500Y-93218000D03*
G04 #@! TD*
D14*
G04 #@! TO.P,J7,1*
G04 #@! TO.N,/P5V*
X140970000Y-92456000D03*
D15*
G04 #@! TO.P,J7,2*
G04 #@! TO.N,/PB8*
X140970000Y-89916000D03*
G04 #@! TO.P,J7,3*
G04 #@! TO.N,/PB7*
X140970000Y-87376000D03*
G04 #@! TO.P,J7,4*
G04 #@! TO.N,/PB6*
X140970000Y-84836000D03*
G04 #@! TO.P,J7,5*
G04 #@! TO.N,/PB5*
X140970000Y-82296000D03*
G04 #@! TO.P,J7,6*
G04 #@! TO.N,/PB4*
X140970000Y-79756000D03*
G04 #@! TO.P,J7,7*
G04 #@! TO.N,/PB3*
X140970000Y-77216000D03*
G04 #@! TO.P,J7,8*
G04 #@! TO.N,/PB2*
X140970000Y-74676000D03*
G04 #@! TO.P,J7,9*
G04 #@! TO.N,/PB1*
X140970000Y-72136000D03*
G04 #@! TO.P,J7,10*
G04 #@! TO.N,GND*
X140970000Y-69596000D03*
G04 #@! TD*
D14*
G04 #@! TO.P,J5,1*
G04 #@! TO.N,/12V*
X127635000Y-112839500D03*
D15*
G04 #@! TO.P,J5,2*
G04 #@! TO.N,GND*
X130175000Y-112839500D03*
G04 #@! TD*
D14*
G04 #@! TO.P,J6,1*
G04 #@! TO.N,Net-(J6-Pad1)*
X127571500Y-98742500D03*
D15*
G04 #@! TO.P,J6,2*
G04 #@! TO.N,Net-(J6-Pad2)*
X130111500Y-98742500D03*
G04 #@! TO.P,J6,3*
G04 #@! TO.N,Net-(J6-Pad3)*
X127571500Y-101282500D03*
G04 #@! TO.P,J6,4*
G04 #@! TO.N,Net-(J6-Pad4)*
X130111500Y-101282500D03*
G04 #@! TO.P,J6,5*
G04 #@! TO.N,Net-(J6-Pad5)*
X127571500Y-103822500D03*
G04 #@! TO.P,J6,6*
G04 #@! TO.N,Net-(J6-Pad6)*
X130111500Y-103822500D03*
G04 #@! TO.P,J6,7*
G04 #@! TO.N,Net-(J6-Pad7)*
X127571500Y-106362500D03*
G04 #@! TO.P,J6,8*
G04 #@! TO.N,Net-(J6-Pad8)*
X130111500Y-106362500D03*
G04 #@! TO.P,J6,9*
G04 #@! TO.N,/12V*
X127571500Y-108902500D03*
G04 #@! TO.P,J6,10*
G04 #@! TO.N,Net-(J6-Pad10)*
X130111500Y-108902500D03*
G04 #@! TD*
D18*
G04 #@! TO.N,/P3V3_HAT*
X97218500Y-70739000D03*
X100935500Y-100423000D03*
G04 #@! TO.N,/P5V*
X91757500Y-75692000D03*
X80454500Y-75692000D03*
G04 #@! TO.N,/P5V_HAT*
X110744000Y-108077000D03*
X110744000Y-103505000D03*
G04 #@! TO.N,/P3V3*
X118618000Y-69088000D03*
G04 #@! TD*
D19*
G04 #@! TO.N,/ID_SD_EEPROM*
X119940000Y-66060000D02*
X119940000Y-65590000D01*
G04 #@! TO.N,/P3V3_HAT*
X86920000Y-65590000D02*
X86920000Y-66981000D01*
X86920000Y-66981000D02*
X88582500Y-68643500D01*
X88582500Y-68643500D02*
X95123000Y-68643500D01*
X95123000Y-68643500D02*
X97218500Y-70739000D01*
X97218500Y-70739000D02*
X97282000Y-70802500D01*
X97218500Y-70739000D02*
X97218500Y-70739000D01*
D20*
X100935500Y-99026000D02*
X100935500Y-100423000D01*
X105219500Y-93218000D02*
X105219500Y-94742000D01*
X105219500Y-94742000D02*
X100935500Y-99026000D01*
D19*
G04 #@! TO.N,/P5V*
X91757500Y-75692000D02*
X91757500Y-75692000D01*
X91757500Y-75692000D02*
X80454500Y-75692000D01*
X80454500Y-75692000D02*
X80454500Y-75692000D01*
D21*
G04 #@! TO.N,/P5V_HAT*
X110744000Y-108077000D02*
X110744000Y-103505000D01*
X110744000Y-103505000D02*
X110744000Y-103505000D01*
D19*
X86920000Y-63050000D02*
X86111500Y-63050000D01*
X89598500Y-74041000D02*
X107061000Y-74041000D01*
X110744000Y-77724000D02*
X110744000Y-103505000D01*
X107061000Y-74041000D02*
X110744000Y-77724000D01*
D20*
X86920000Y-63050000D02*
X85921000Y-63050000D01*
D19*
X85280500Y-63690500D02*
X85280500Y-69723000D01*
X85921000Y-63050000D02*
X85280500Y-63690500D01*
X85280500Y-69723000D02*
X89598500Y-74041000D01*
D20*
G04 #@! TO.N,/P3V3*
X107240000Y-65590000D02*
X107240000Y-67616000D01*
X107240000Y-67616000D02*
X108712000Y-69088000D01*
X108712000Y-69088000D02*
X118618000Y-69088000D01*
X118618000Y-69088000D02*
X118618000Y-69088000D01*
G04 #@! TD*
M02*
