G04 #@! TF.GenerationSoftware,KiCad,Pcbnew,(5.0.1)-3*
G04 #@! TF.CreationDate,2018-11-17T22:48:42-05:00*
G04 #@! TF.ProjectId,reef-piHat,726565662D70694861742E6B69636164,rev?*
G04 #@! TF.SameCoordinates,Original*
G04 #@! TF.FileFunction,Copper,L2,Bot,Signal*
G04 #@! TF.FilePolarity,Positive*
%FSLAX46Y46*%
G04 Gerber Fmt 4.6, Leading zero omitted, Abs format (unit mm)*
G04 Created by KiCad (PCBNEW (5.0.1)-3) date 11/17/2018 10:48:42 PM*
%MOMM*%
%LPD*%
G01*
G04 APERTURE LIST*
G04 #@! TA.AperFunction,NonConductor*
%ADD10C,0.100000*%
G04 #@! TD*
G04 #@! TA.AperFunction,ComponentPad*
%ADD11R,1.700000X1.700000*%
G04 #@! TD*
G04 #@! TA.AperFunction,ComponentPad*
%ADD12O,1.700000X1.700000*%
G04 #@! TD*
G04 #@! TA.AperFunction,WasherPad*
%ADD13C,3.000000*%
G04 #@! TD*
G04 #@! TA.AperFunction,ComponentPad*
%ADD14O,1.700000X1.950000*%
G04 #@! TD*
G04 #@! TA.AperFunction,Conductor*
%ADD15C,0.100000*%
G04 #@! TD*
G04 #@! TA.AperFunction,ComponentPad*
%ADD16C,1.700000*%
G04 #@! TD*
G04 #@! TA.AperFunction,ComponentPad*
%ADD17O,1.950000X1.700000*%
G04 #@! TD*
G04 #@! TA.AperFunction,ViaPad*
%ADD18C,1.000000*%
G04 #@! TD*
G04 #@! TA.AperFunction,Conductor*
%ADD19C,0.250000*%
G04 #@! TD*
G04 #@! TA.AperFunction,Conductor*
%ADD20C,0.150000*%
G04 #@! TD*
G04 APERTURE END LIST*
D10*
X78546356Y-63817611D02*
X78546356Y-113817611D01*
X78546356Y-63817611D02*
G75*
G02X81546356Y-60817611I3000000J0D01*
G01*
X140546356Y-60817611D02*
X81546356Y-60817611D01*
X140546356Y-60817611D02*
G75*
G02X143546356Y-63817611I0J-3000000D01*
G01*
X143546356Y-113817611D02*
X143546356Y-63817611D01*
X81546356Y-116817611D02*
G75*
G02X78546356Y-113817611I0J3000000D01*
G01*
X81546356Y-116817611D02*
X140546356Y-116817611D01*
X143546351Y-113822847D02*
G75*
G02X140546356Y-116817611I-2999995J5236D01*
G01*
D11*
G04 #@! TO.P,J3,1*
G04 #@! TO.N,/P3V3_HAT*
X86920000Y-65590000D03*
D12*
G04 #@! TO.P,J3,2*
G04 #@! TO.N,/P5V*
X86920000Y-63050000D03*
G04 #@! TO.P,J3,3*
G04 #@! TO.N,/SDA*
X89460000Y-65590000D03*
G04 #@! TO.P,J3,4*
G04 #@! TO.N,/P5V*
X89460000Y-63050000D03*
G04 #@! TO.P,J3,5*
G04 #@! TO.N,/SCL*
X92000000Y-65590000D03*
G04 #@! TO.P,J3,6*
G04 #@! TO.N,GND*
X92000000Y-63050000D03*
G04 #@! TO.P,J3,7*
G04 #@! TO.N,/1WIRE*
X94540000Y-65590000D03*
G04 #@! TO.P,J3,8*
G04 #@! TO.N,Net-(J3-Pad8)*
X94540000Y-63050000D03*
G04 #@! TO.P,J3,9*
G04 #@! TO.N,GND*
X97080000Y-65590000D03*
G04 #@! TO.P,J3,10*
G04 #@! TO.N,Net-(J3-Pad10)*
X97080000Y-63050000D03*
G04 #@! TO.P,J3,11*
G04 #@! TO.N,/ATO2*
X99620000Y-65590000D03*
G04 #@! TO.P,J3,12*
G04 #@! TO.N,Net-(J3-Pad12)*
X99620000Y-63050000D03*
G04 #@! TO.P,J3,13*
G04 #@! TO.N,/ATO1*
X102160000Y-65590000D03*
G04 #@! TO.P,J3,14*
G04 #@! TO.N,GND*
X102160000Y-63050000D03*
G04 #@! TO.P,J3,15*
G04 #@! TO.N,/PA8*
X104700000Y-65590000D03*
G04 #@! TO.P,J3,16*
G04 #@! TO.N,/PA7*
X104700000Y-63050000D03*
G04 #@! TO.P,J3,17*
G04 #@! TO.N,/P3V3_HAT*
X107240000Y-65590000D03*
G04 #@! TO.P,J3,18*
G04 #@! TO.N,/PA6*
X107240000Y-63050000D03*
G04 #@! TO.P,J3,19*
G04 #@! TO.N,/PA5*
X109780000Y-65590000D03*
G04 #@! TO.P,J3,20*
G04 #@! TO.N,GND*
X109780000Y-63050000D03*
G04 #@! TO.P,J3,21*
G04 #@! TO.N,/PA3*
X112320000Y-65590000D03*
G04 #@! TO.P,J3,22*
G04 #@! TO.N,/PA4*
X112320000Y-63050000D03*
G04 #@! TO.P,J3,23*
G04 #@! TO.N,/PA1*
X114860000Y-65590000D03*
G04 #@! TO.P,J3,24*
G04 #@! TO.N,/PA2*
X114860000Y-63050000D03*
G04 #@! TO.P,J3,25*
G04 #@! TO.N,GND*
X117400000Y-65590000D03*
G04 #@! TO.P,J3,26*
G04 #@! TO.N,Net-(J3-Pad26)*
X117400000Y-63050000D03*
G04 #@! TO.P,J3,27*
G04 #@! TO.N,/ID_SD_EEPROM*
X119940000Y-65590000D03*
G04 #@! TO.P,J3,28*
G04 #@! TO.N,/ID_SC_EEPROM*
X119940000Y-63050000D03*
G04 #@! TO.P,J3,29*
G04 #@! TO.N,/PB7*
X122480000Y-65590000D03*
G04 #@! TO.P,J3,30*
G04 #@! TO.N,GND*
X122480000Y-63050000D03*
G04 #@! TO.P,J3,31*
G04 #@! TO.N,/PB8*
X125020000Y-65590000D03*
G04 #@! TO.P,J3,32*
G04 #@! TO.N,Net-(J3-Pad32)*
X125020000Y-63050000D03*
G04 #@! TO.P,J3,33*
G04 #@! TO.N,/PB6*
X127560000Y-65590000D03*
G04 #@! TO.P,J3,34*
G04 #@! TO.N,GND*
X127560000Y-63050000D03*
G04 #@! TO.P,J3,35*
G04 #@! TO.N,/PB4*
X130100000Y-65590000D03*
G04 #@! TO.P,J3,36*
G04 #@! TO.N,/PB5*
X130100000Y-63050000D03*
G04 #@! TO.P,J3,37*
G04 #@! TO.N,/PB2*
X132640000Y-65590000D03*
G04 #@! TO.P,J3,38*
G04 #@! TO.N,/PB3*
X132640000Y-63050000D03*
G04 #@! TO.P,J3,39*
G04 #@! TO.N,GND*
X135180000Y-65590000D03*
G04 #@! TO.P,J3,40*
G04 #@! TO.N,/PB1*
X135180000Y-63050000D03*
G04 #@! TD*
D13*
G04 #@! TO.P,H1,*
G04 #@! TO.N,*
X82040000Y-64310000D03*
G04 #@! TD*
G04 #@! TO.P,H2,*
G04 #@! TO.N,*
X140040000Y-64330000D03*
G04 #@! TD*
G04 #@! TO.P,H3,*
G04 #@! TO.N,*
X82040000Y-113320000D03*
G04 #@! TD*
G04 #@! TO.P,H4,*
G04 #@! TO.N,*
X140030000Y-113310000D03*
G04 #@! TD*
D14*
G04 #@! TO.P,J1,4*
G04 #@! TO.N,GND*
X82670000Y-92456000D03*
G04 #@! TO.P,J1,3*
G04 #@! TO.N,Net-(J1-Pad3)*
X85170000Y-92456000D03*
G04 #@! TO.P,J1,2*
G04 #@! TO.N,Net-(J1-Pad2)*
X87670000Y-92456000D03*
D15*
G04 #@! TD*
G04 #@! TO.N,Net-(J1-Pad1)*
G04 #@! TO.C,J1*
G36*
X90794504Y-91482204D02*
X90818773Y-91485804D01*
X90842571Y-91491765D01*
X90865671Y-91500030D01*
X90887849Y-91510520D01*
X90908893Y-91523133D01*
X90928598Y-91537747D01*
X90946777Y-91554223D01*
X90963253Y-91572402D01*
X90977867Y-91592107D01*
X90990480Y-91613151D01*
X91000970Y-91635329D01*
X91009235Y-91658429D01*
X91015196Y-91682227D01*
X91018796Y-91706496D01*
X91020000Y-91731000D01*
X91020000Y-93181000D01*
X91018796Y-93205504D01*
X91015196Y-93229773D01*
X91009235Y-93253571D01*
X91000970Y-93276671D01*
X90990480Y-93298849D01*
X90977867Y-93319893D01*
X90963253Y-93339598D01*
X90946777Y-93357777D01*
X90928598Y-93374253D01*
X90908893Y-93388867D01*
X90887849Y-93401480D01*
X90865671Y-93411970D01*
X90842571Y-93420235D01*
X90818773Y-93426196D01*
X90794504Y-93429796D01*
X90770000Y-93431000D01*
X89570000Y-93431000D01*
X89545496Y-93429796D01*
X89521227Y-93426196D01*
X89497429Y-93420235D01*
X89474329Y-93411970D01*
X89452151Y-93401480D01*
X89431107Y-93388867D01*
X89411402Y-93374253D01*
X89393223Y-93357777D01*
X89376747Y-93339598D01*
X89362133Y-93319893D01*
X89349520Y-93298849D01*
X89339030Y-93276671D01*
X89330765Y-93253571D01*
X89324804Y-93229773D01*
X89321204Y-93205504D01*
X89320000Y-93181000D01*
X89320000Y-91731000D01*
X89321204Y-91706496D01*
X89324804Y-91682227D01*
X89330765Y-91658429D01*
X89339030Y-91635329D01*
X89349520Y-91613151D01*
X89362133Y-91592107D01*
X89376747Y-91572402D01*
X89393223Y-91554223D01*
X89411402Y-91537747D01*
X89431107Y-91523133D01*
X89452151Y-91510520D01*
X89474329Y-91500030D01*
X89497429Y-91491765D01*
X89521227Y-91485804D01*
X89545496Y-91482204D01*
X89570000Y-91481000D01*
X90770000Y-91481000D01*
X90794504Y-91482204D01*
X90794504Y-91482204D01*
G37*
D16*
G04 #@! TO.P,J1,1*
G04 #@! TO.N,Net-(J1-Pad1)*
X90170000Y-92456000D03*
G04 #@! TD*
D15*
G04 #@! TO.N,Net-(J2-Pad1)*
G04 #@! TO.C,J2*
G36*
X90794504Y-97832204D02*
X90818773Y-97835804D01*
X90842571Y-97841765D01*
X90865671Y-97850030D01*
X90887849Y-97860520D01*
X90908893Y-97873133D01*
X90928598Y-97887747D01*
X90946777Y-97904223D01*
X90963253Y-97922402D01*
X90977867Y-97942107D01*
X90990480Y-97963151D01*
X91000970Y-97985329D01*
X91009235Y-98008429D01*
X91015196Y-98032227D01*
X91018796Y-98056496D01*
X91020000Y-98081000D01*
X91020000Y-99531000D01*
X91018796Y-99555504D01*
X91015196Y-99579773D01*
X91009235Y-99603571D01*
X91000970Y-99626671D01*
X90990480Y-99648849D01*
X90977867Y-99669893D01*
X90963253Y-99689598D01*
X90946777Y-99707777D01*
X90928598Y-99724253D01*
X90908893Y-99738867D01*
X90887849Y-99751480D01*
X90865671Y-99761970D01*
X90842571Y-99770235D01*
X90818773Y-99776196D01*
X90794504Y-99779796D01*
X90770000Y-99781000D01*
X89570000Y-99781000D01*
X89545496Y-99779796D01*
X89521227Y-99776196D01*
X89497429Y-99770235D01*
X89474329Y-99761970D01*
X89452151Y-99751480D01*
X89431107Y-99738867D01*
X89411402Y-99724253D01*
X89393223Y-99707777D01*
X89376747Y-99689598D01*
X89362133Y-99669893D01*
X89349520Y-99648849D01*
X89339030Y-99626671D01*
X89330765Y-99603571D01*
X89324804Y-99579773D01*
X89321204Y-99555504D01*
X89320000Y-99531000D01*
X89320000Y-98081000D01*
X89321204Y-98056496D01*
X89324804Y-98032227D01*
X89330765Y-98008429D01*
X89339030Y-97985329D01*
X89349520Y-97963151D01*
X89362133Y-97942107D01*
X89376747Y-97922402D01*
X89393223Y-97904223D01*
X89411402Y-97887747D01*
X89431107Y-97873133D01*
X89452151Y-97860520D01*
X89474329Y-97850030D01*
X89497429Y-97841765D01*
X89521227Y-97835804D01*
X89545496Y-97832204D01*
X89570000Y-97831000D01*
X90770000Y-97831000D01*
X90794504Y-97832204D01*
X90794504Y-97832204D01*
G37*
D16*
G04 #@! TD*
G04 #@! TO.P,J2,1*
G04 #@! TO.N,Net-(J2-Pad1)*
X90170000Y-98806000D03*
D14*
G04 #@! TO.P,J2,2*
G04 #@! TO.N,Net-(J2-Pad2)*
X87670000Y-98806000D03*
G04 #@! TO.P,J2,3*
G04 #@! TO.N,Net-(J2-Pad3)*
X85170000Y-98806000D03*
G04 #@! TO.P,J2,4*
G04 #@! TO.N,GND*
X82670000Y-98806000D03*
G04 #@! TD*
D15*
G04 #@! TO.N,Net-(J4-Pad1)*
G04 #@! TO.C,J4*
G36*
X90794504Y-104436204D02*
X90818773Y-104439804D01*
X90842571Y-104445765D01*
X90865671Y-104454030D01*
X90887849Y-104464520D01*
X90908893Y-104477133D01*
X90928598Y-104491747D01*
X90946777Y-104508223D01*
X90963253Y-104526402D01*
X90977867Y-104546107D01*
X90990480Y-104567151D01*
X91000970Y-104589329D01*
X91009235Y-104612429D01*
X91015196Y-104636227D01*
X91018796Y-104660496D01*
X91020000Y-104685000D01*
X91020000Y-106135000D01*
X91018796Y-106159504D01*
X91015196Y-106183773D01*
X91009235Y-106207571D01*
X91000970Y-106230671D01*
X90990480Y-106252849D01*
X90977867Y-106273893D01*
X90963253Y-106293598D01*
X90946777Y-106311777D01*
X90928598Y-106328253D01*
X90908893Y-106342867D01*
X90887849Y-106355480D01*
X90865671Y-106365970D01*
X90842571Y-106374235D01*
X90818773Y-106380196D01*
X90794504Y-106383796D01*
X90770000Y-106385000D01*
X89570000Y-106385000D01*
X89545496Y-106383796D01*
X89521227Y-106380196D01*
X89497429Y-106374235D01*
X89474329Y-106365970D01*
X89452151Y-106355480D01*
X89431107Y-106342867D01*
X89411402Y-106328253D01*
X89393223Y-106311777D01*
X89376747Y-106293598D01*
X89362133Y-106273893D01*
X89349520Y-106252849D01*
X89339030Y-106230671D01*
X89330765Y-106207571D01*
X89324804Y-106183773D01*
X89321204Y-106159504D01*
X89320000Y-106135000D01*
X89320000Y-104685000D01*
X89321204Y-104660496D01*
X89324804Y-104636227D01*
X89330765Y-104612429D01*
X89339030Y-104589329D01*
X89349520Y-104567151D01*
X89362133Y-104546107D01*
X89376747Y-104526402D01*
X89393223Y-104508223D01*
X89411402Y-104491747D01*
X89431107Y-104477133D01*
X89452151Y-104464520D01*
X89474329Y-104454030D01*
X89497429Y-104445765D01*
X89521227Y-104439804D01*
X89545496Y-104436204D01*
X89570000Y-104435000D01*
X90770000Y-104435000D01*
X90794504Y-104436204D01*
X90794504Y-104436204D01*
G37*
D16*
G04 #@! TD*
G04 #@! TO.P,J4,1*
G04 #@! TO.N,Net-(J4-Pad1)*
X90170000Y-105410000D03*
D14*
G04 #@! TO.P,J4,2*
G04 #@! TO.N,Net-(J4-Pad2)*
X87670000Y-105410000D03*
G04 #@! TO.P,J4,3*
G04 #@! TO.N,Net-(J4-Pad3)*
X85170000Y-105410000D03*
G04 #@! TO.P,J4,4*
G04 #@! TO.N,GND*
X82670000Y-105410000D03*
G04 #@! TD*
D15*
G04 #@! TO.N,/P5V*
G04 #@! TO.C,J8*
G36*
X116065504Y-93131204D02*
X116089773Y-93134804D01*
X116113571Y-93140765D01*
X116136671Y-93149030D01*
X116158849Y-93159520D01*
X116179893Y-93172133D01*
X116199598Y-93186747D01*
X116217777Y-93203223D01*
X116234253Y-93221402D01*
X116248867Y-93241107D01*
X116261480Y-93262151D01*
X116271970Y-93284329D01*
X116280235Y-93307429D01*
X116286196Y-93331227D01*
X116289796Y-93355496D01*
X116291000Y-93380000D01*
X116291000Y-94580000D01*
X116289796Y-94604504D01*
X116286196Y-94628773D01*
X116280235Y-94652571D01*
X116271970Y-94675671D01*
X116261480Y-94697849D01*
X116248867Y-94718893D01*
X116234253Y-94738598D01*
X116217777Y-94756777D01*
X116199598Y-94773253D01*
X116179893Y-94787867D01*
X116158849Y-94800480D01*
X116136671Y-94810970D01*
X116113571Y-94819235D01*
X116089773Y-94825196D01*
X116065504Y-94828796D01*
X116041000Y-94830000D01*
X114591000Y-94830000D01*
X114566496Y-94828796D01*
X114542227Y-94825196D01*
X114518429Y-94819235D01*
X114495329Y-94810970D01*
X114473151Y-94800480D01*
X114452107Y-94787867D01*
X114432402Y-94773253D01*
X114414223Y-94756777D01*
X114397747Y-94738598D01*
X114383133Y-94718893D01*
X114370520Y-94697849D01*
X114360030Y-94675671D01*
X114351765Y-94652571D01*
X114345804Y-94628773D01*
X114342204Y-94604504D01*
X114341000Y-94580000D01*
X114341000Y-93380000D01*
X114342204Y-93355496D01*
X114345804Y-93331227D01*
X114351765Y-93307429D01*
X114360030Y-93284329D01*
X114370520Y-93262151D01*
X114383133Y-93241107D01*
X114397747Y-93221402D01*
X114414223Y-93203223D01*
X114432402Y-93186747D01*
X114452107Y-93172133D01*
X114473151Y-93159520D01*
X114495329Y-93149030D01*
X114518429Y-93140765D01*
X114542227Y-93134804D01*
X114566496Y-93131204D01*
X114591000Y-93130000D01*
X116041000Y-93130000D01*
X116065504Y-93131204D01*
X116065504Y-93131204D01*
G37*
D16*
G04 #@! TD*
G04 #@! TO.P,J8,1*
G04 #@! TO.N,/P5V*
X115316000Y-93980000D03*
D17*
G04 #@! TO.P,J8,2*
G04 #@! TO.N,/ATO1*
X115316000Y-91480000D03*
G04 #@! TO.P,J8,3*
G04 #@! TO.N,GND*
X115316000Y-88980000D03*
G04 #@! TO.P,J8,4*
X115316000Y-86480000D03*
G04 #@! TD*
G04 #@! TO.P,J10,4*
G04 #@! TO.N,GND*
X115316000Y-99942000D03*
G04 #@! TO.P,J10,3*
X115316000Y-102442000D03*
G04 #@! TO.P,J10,2*
G04 #@! TO.N,/ATO2*
X115316000Y-104942000D03*
D15*
G04 #@! TD*
G04 #@! TO.N,/P5V*
G04 #@! TO.C,J10*
G36*
X116065504Y-106593204D02*
X116089773Y-106596804D01*
X116113571Y-106602765D01*
X116136671Y-106611030D01*
X116158849Y-106621520D01*
X116179893Y-106634133D01*
X116199598Y-106648747D01*
X116217777Y-106665223D01*
X116234253Y-106683402D01*
X116248867Y-106703107D01*
X116261480Y-106724151D01*
X116271970Y-106746329D01*
X116280235Y-106769429D01*
X116286196Y-106793227D01*
X116289796Y-106817496D01*
X116291000Y-106842000D01*
X116291000Y-108042000D01*
X116289796Y-108066504D01*
X116286196Y-108090773D01*
X116280235Y-108114571D01*
X116271970Y-108137671D01*
X116261480Y-108159849D01*
X116248867Y-108180893D01*
X116234253Y-108200598D01*
X116217777Y-108218777D01*
X116199598Y-108235253D01*
X116179893Y-108249867D01*
X116158849Y-108262480D01*
X116136671Y-108272970D01*
X116113571Y-108281235D01*
X116089773Y-108287196D01*
X116065504Y-108290796D01*
X116041000Y-108292000D01*
X114591000Y-108292000D01*
X114566496Y-108290796D01*
X114542227Y-108287196D01*
X114518429Y-108281235D01*
X114495329Y-108272970D01*
X114473151Y-108262480D01*
X114452107Y-108249867D01*
X114432402Y-108235253D01*
X114414223Y-108218777D01*
X114397747Y-108200598D01*
X114383133Y-108180893D01*
X114370520Y-108159849D01*
X114360030Y-108137671D01*
X114351765Y-108114571D01*
X114345804Y-108090773D01*
X114342204Y-108066504D01*
X114341000Y-108042000D01*
X114341000Y-106842000D01*
X114342204Y-106817496D01*
X114345804Y-106793227D01*
X114351765Y-106769429D01*
X114360030Y-106746329D01*
X114370520Y-106724151D01*
X114383133Y-106703107D01*
X114397747Y-106683402D01*
X114414223Y-106665223D01*
X114432402Y-106648747D01*
X114452107Y-106634133D01*
X114473151Y-106621520D01*
X114495329Y-106611030D01*
X114518429Y-106602765D01*
X114542227Y-106596804D01*
X114566496Y-106593204D01*
X114591000Y-106592000D01*
X116041000Y-106592000D01*
X116065504Y-106593204D01*
X116065504Y-106593204D01*
G37*
D16*
G04 #@! TO.P,J10,1*
G04 #@! TO.N,/P5V*
X115316000Y-107442000D03*
G04 #@! TD*
D15*
G04 #@! TO.N,/P5V*
G04 #@! TO.C,J11*
G36*
X90794504Y-85132204D02*
X90818773Y-85135804D01*
X90842571Y-85141765D01*
X90865671Y-85150030D01*
X90887849Y-85160520D01*
X90908893Y-85173133D01*
X90928598Y-85187747D01*
X90946777Y-85204223D01*
X90963253Y-85222402D01*
X90977867Y-85242107D01*
X90990480Y-85263151D01*
X91000970Y-85285329D01*
X91009235Y-85308429D01*
X91015196Y-85332227D01*
X91018796Y-85356496D01*
X91020000Y-85381000D01*
X91020000Y-86831000D01*
X91018796Y-86855504D01*
X91015196Y-86879773D01*
X91009235Y-86903571D01*
X91000970Y-86926671D01*
X90990480Y-86948849D01*
X90977867Y-86969893D01*
X90963253Y-86989598D01*
X90946777Y-87007777D01*
X90928598Y-87024253D01*
X90908893Y-87038867D01*
X90887849Y-87051480D01*
X90865671Y-87061970D01*
X90842571Y-87070235D01*
X90818773Y-87076196D01*
X90794504Y-87079796D01*
X90770000Y-87081000D01*
X89570000Y-87081000D01*
X89545496Y-87079796D01*
X89521227Y-87076196D01*
X89497429Y-87070235D01*
X89474329Y-87061970D01*
X89452151Y-87051480D01*
X89431107Y-87038867D01*
X89411402Y-87024253D01*
X89393223Y-87007777D01*
X89376747Y-86989598D01*
X89362133Y-86969893D01*
X89349520Y-86948849D01*
X89339030Y-86926671D01*
X89330765Y-86903571D01*
X89324804Y-86879773D01*
X89321204Y-86855504D01*
X89320000Y-86831000D01*
X89320000Y-85381000D01*
X89321204Y-85356496D01*
X89324804Y-85332227D01*
X89330765Y-85308429D01*
X89339030Y-85285329D01*
X89349520Y-85263151D01*
X89362133Y-85242107D01*
X89376747Y-85222402D01*
X89393223Y-85204223D01*
X89411402Y-85187747D01*
X89431107Y-85173133D01*
X89452151Y-85160520D01*
X89474329Y-85150030D01*
X89497429Y-85141765D01*
X89521227Y-85135804D01*
X89545496Y-85132204D01*
X89570000Y-85131000D01*
X90770000Y-85131000D01*
X90794504Y-85132204D01*
X90794504Y-85132204D01*
G37*
D16*
G04 #@! TD*
G04 #@! TO.P,J11,1*
G04 #@! TO.N,/P5V*
X90170000Y-86106000D03*
D14*
G04 #@! TO.P,J11,2*
G04 #@! TO.N,/SCL*
X87670000Y-86106000D03*
G04 #@! TO.P,J11,3*
G04 #@! TO.N,/SDA*
X85170000Y-86106000D03*
G04 #@! TO.P,J11,4*
G04 #@! TO.N,GND*
X82670000Y-86106000D03*
G04 #@! TD*
G04 #@! TO.P,J12,4*
G04 #@! TO.N,GND*
X82670000Y-79756000D03*
G04 #@! TO.P,J12,3*
G04 #@! TO.N,/SDA*
X85170000Y-79756000D03*
G04 #@! TO.P,J12,2*
G04 #@! TO.N,/SCL*
X87670000Y-79756000D03*
D15*
G04 #@! TD*
G04 #@! TO.N,/P5V*
G04 #@! TO.C,J12*
G36*
X90794504Y-78782204D02*
X90818773Y-78785804D01*
X90842571Y-78791765D01*
X90865671Y-78800030D01*
X90887849Y-78810520D01*
X90908893Y-78823133D01*
X90928598Y-78837747D01*
X90946777Y-78854223D01*
X90963253Y-78872402D01*
X90977867Y-78892107D01*
X90990480Y-78913151D01*
X91000970Y-78935329D01*
X91009235Y-78958429D01*
X91015196Y-78982227D01*
X91018796Y-79006496D01*
X91020000Y-79031000D01*
X91020000Y-80481000D01*
X91018796Y-80505504D01*
X91015196Y-80529773D01*
X91009235Y-80553571D01*
X91000970Y-80576671D01*
X90990480Y-80598849D01*
X90977867Y-80619893D01*
X90963253Y-80639598D01*
X90946777Y-80657777D01*
X90928598Y-80674253D01*
X90908893Y-80688867D01*
X90887849Y-80701480D01*
X90865671Y-80711970D01*
X90842571Y-80720235D01*
X90818773Y-80726196D01*
X90794504Y-80729796D01*
X90770000Y-80731000D01*
X89570000Y-80731000D01*
X89545496Y-80729796D01*
X89521227Y-80726196D01*
X89497429Y-80720235D01*
X89474329Y-80711970D01*
X89452151Y-80701480D01*
X89431107Y-80688867D01*
X89411402Y-80674253D01*
X89393223Y-80657777D01*
X89376747Y-80639598D01*
X89362133Y-80619893D01*
X89349520Y-80598849D01*
X89339030Y-80576671D01*
X89330765Y-80553571D01*
X89324804Y-80529773D01*
X89321204Y-80505504D01*
X89320000Y-80481000D01*
X89320000Y-79031000D01*
X89321204Y-79006496D01*
X89324804Y-78982227D01*
X89330765Y-78958429D01*
X89339030Y-78935329D01*
X89349520Y-78913151D01*
X89362133Y-78892107D01*
X89376747Y-78872402D01*
X89393223Y-78854223D01*
X89411402Y-78837747D01*
X89431107Y-78823133D01*
X89452151Y-78810520D01*
X89474329Y-78800030D01*
X89497429Y-78791765D01*
X89521227Y-78785804D01*
X89545496Y-78782204D01*
X89570000Y-78781000D01*
X90770000Y-78781000D01*
X90794504Y-78782204D01*
X90794504Y-78782204D01*
G37*
D16*
G04 #@! TO.P,J12,1*
G04 #@! TO.N,/P5V*
X90170000Y-79756000D03*
G04 #@! TD*
D11*
G04 #@! TO.P,J13,1*
G04 #@! TO.N,/P5V*
X81534000Y-71628000D03*
D12*
G04 #@! TO.P,J13,2*
G04 #@! TO.N,GND*
X81534000Y-74168000D03*
G04 #@! TD*
D15*
G04 #@! TO.N,/P3V3_HAT*
G04 #@! TO.C,J14*
G36*
X103494504Y-78782204D02*
X103518773Y-78785804D01*
X103542571Y-78791765D01*
X103565671Y-78800030D01*
X103587849Y-78810520D01*
X103608893Y-78823133D01*
X103628598Y-78837747D01*
X103646777Y-78854223D01*
X103663253Y-78872402D01*
X103677867Y-78892107D01*
X103690480Y-78913151D01*
X103700970Y-78935329D01*
X103709235Y-78958429D01*
X103715196Y-78982227D01*
X103718796Y-79006496D01*
X103720000Y-79031000D01*
X103720000Y-80481000D01*
X103718796Y-80505504D01*
X103715196Y-80529773D01*
X103709235Y-80553571D01*
X103700970Y-80576671D01*
X103690480Y-80598849D01*
X103677867Y-80619893D01*
X103663253Y-80639598D01*
X103646777Y-80657777D01*
X103628598Y-80674253D01*
X103608893Y-80688867D01*
X103587849Y-80701480D01*
X103565671Y-80711970D01*
X103542571Y-80720235D01*
X103518773Y-80726196D01*
X103494504Y-80729796D01*
X103470000Y-80731000D01*
X102270000Y-80731000D01*
X102245496Y-80729796D01*
X102221227Y-80726196D01*
X102197429Y-80720235D01*
X102174329Y-80711970D01*
X102152151Y-80701480D01*
X102131107Y-80688867D01*
X102111402Y-80674253D01*
X102093223Y-80657777D01*
X102076747Y-80639598D01*
X102062133Y-80619893D01*
X102049520Y-80598849D01*
X102039030Y-80576671D01*
X102030765Y-80553571D01*
X102024804Y-80529773D01*
X102021204Y-80505504D01*
X102020000Y-80481000D01*
X102020000Y-79031000D01*
X102021204Y-79006496D01*
X102024804Y-78982227D01*
X102030765Y-78958429D01*
X102039030Y-78935329D01*
X102049520Y-78913151D01*
X102062133Y-78892107D01*
X102076747Y-78872402D01*
X102093223Y-78854223D01*
X102111402Y-78837747D01*
X102131107Y-78823133D01*
X102152151Y-78810520D01*
X102174329Y-78800030D01*
X102197429Y-78791765D01*
X102221227Y-78785804D01*
X102245496Y-78782204D01*
X102270000Y-78781000D01*
X103470000Y-78781000D01*
X103494504Y-78782204D01*
X103494504Y-78782204D01*
G37*
D16*
G04 #@! TD*
G04 #@! TO.P,J14,1*
G04 #@! TO.N,/P3V3_HAT*
X102870000Y-79756000D03*
D14*
G04 #@! TO.P,J14,2*
G04 #@! TO.N,/1WIRE*
X100370000Y-79756000D03*
G04 #@! TO.P,J14,3*
G04 #@! TO.N,GND*
X97870000Y-79756000D03*
G04 #@! TD*
G04 #@! TO.P,J15,3*
G04 #@! TO.N,GND*
X97870000Y-86106000D03*
G04 #@! TO.P,J15,2*
G04 #@! TO.N,/1WIRE*
X100370000Y-86106000D03*
D15*
G04 #@! TD*
G04 #@! TO.N,/P3V3_HAT*
G04 #@! TO.C,J15*
G36*
X103494504Y-85132204D02*
X103518773Y-85135804D01*
X103542571Y-85141765D01*
X103565671Y-85150030D01*
X103587849Y-85160520D01*
X103608893Y-85173133D01*
X103628598Y-85187747D01*
X103646777Y-85204223D01*
X103663253Y-85222402D01*
X103677867Y-85242107D01*
X103690480Y-85263151D01*
X103700970Y-85285329D01*
X103709235Y-85308429D01*
X103715196Y-85332227D01*
X103718796Y-85356496D01*
X103720000Y-85381000D01*
X103720000Y-86831000D01*
X103718796Y-86855504D01*
X103715196Y-86879773D01*
X103709235Y-86903571D01*
X103700970Y-86926671D01*
X103690480Y-86948849D01*
X103677867Y-86969893D01*
X103663253Y-86989598D01*
X103646777Y-87007777D01*
X103628598Y-87024253D01*
X103608893Y-87038867D01*
X103587849Y-87051480D01*
X103565671Y-87061970D01*
X103542571Y-87070235D01*
X103518773Y-87076196D01*
X103494504Y-87079796D01*
X103470000Y-87081000D01*
X102270000Y-87081000D01*
X102245496Y-87079796D01*
X102221227Y-87076196D01*
X102197429Y-87070235D01*
X102174329Y-87061970D01*
X102152151Y-87051480D01*
X102131107Y-87038867D01*
X102111402Y-87024253D01*
X102093223Y-87007777D01*
X102076747Y-86989598D01*
X102062133Y-86969893D01*
X102049520Y-86948849D01*
X102039030Y-86926671D01*
X102030765Y-86903571D01*
X102024804Y-86879773D01*
X102021204Y-86855504D01*
X102020000Y-86831000D01*
X102020000Y-85381000D01*
X102021204Y-85356496D01*
X102024804Y-85332227D01*
X102030765Y-85308429D01*
X102039030Y-85285329D01*
X102049520Y-85263151D01*
X102062133Y-85242107D01*
X102076747Y-85222402D01*
X102093223Y-85204223D01*
X102111402Y-85187747D01*
X102131107Y-85173133D01*
X102152151Y-85160520D01*
X102174329Y-85150030D01*
X102197429Y-85141765D01*
X102221227Y-85135804D01*
X102245496Y-85132204D01*
X102270000Y-85131000D01*
X103470000Y-85131000D01*
X103494504Y-85132204D01*
X103494504Y-85132204D01*
G37*
D16*
G04 #@! TO.P,J15,1*
G04 #@! TO.N,/P3V3_HAT*
X102870000Y-86106000D03*
G04 #@! TD*
D15*
G04 #@! TO.N,/P3V3_HAT*
G04 #@! TO.C,J16*
G36*
X103494504Y-91482204D02*
X103518773Y-91485804D01*
X103542571Y-91491765D01*
X103565671Y-91500030D01*
X103587849Y-91510520D01*
X103608893Y-91523133D01*
X103628598Y-91537747D01*
X103646777Y-91554223D01*
X103663253Y-91572402D01*
X103677867Y-91592107D01*
X103690480Y-91613151D01*
X103700970Y-91635329D01*
X103709235Y-91658429D01*
X103715196Y-91682227D01*
X103718796Y-91706496D01*
X103720000Y-91731000D01*
X103720000Y-93181000D01*
X103718796Y-93205504D01*
X103715196Y-93229773D01*
X103709235Y-93253571D01*
X103700970Y-93276671D01*
X103690480Y-93298849D01*
X103677867Y-93319893D01*
X103663253Y-93339598D01*
X103646777Y-93357777D01*
X103628598Y-93374253D01*
X103608893Y-93388867D01*
X103587849Y-93401480D01*
X103565671Y-93411970D01*
X103542571Y-93420235D01*
X103518773Y-93426196D01*
X103494504Y-93429796D01*
X103470000Y-93431000D01*
X102270000Y-93431000D01*
X102245496Y-93429796D01*
X102221227Y-93426196D01*
X102197429Y-93420235D01*
X102174329Y-93411970D01*
X102152151Y-93401480D01*
X102131107Y-93388867D01*
X102111402Y-93374253D01*
X102093223Y-93357777D01*
X102076747Y-93339598D01*
X102062133Y-93319893D01*
X102049520Y-93298849D01*
X102039030Y-93276671D01*
X102030765Y-93253571D01*
X102024804Y-93229773D01*
X102021204Y-93205504D01*
X102020000Y-93181000D01*
X102020000Y-91731000D01*
X102021204Y-91706496D01*
X102024804Y-91682227D01*
X102030765Y-91658429D01*
X102039030Y-91635329D01*
X102049520Y-91613151D01*
X102062133Y-91592107D01*
X102076747Y-91572402D01*
X102093223Y-91554223D01*
X102111402Y-91537747D01*
X102131107Y-91523133D01*
X102152151Y-91510520D01*
X102174329Y-91500030D01*
X102197429Y-91491765D01*
X102221227Y-91485804D01*
X102245496Y-91482204D01*
X102270000Y-91481000D01*
X103470000Y-91481000D01*
X103494504Y-91482204D01*
X103494504Y-91482204D01*
G37*
D16*
G04 #@! TD*
G04 #@! TO.P,J16,1*
G04 #@! TO.N,/P3V3_HAT*
X102870000Y-92456000D03*
D14*
G04 #@! TO.P,J16,2*
G04 #@! TO.N,/1WIRE*
X100370000Y-92456000D03*
G04 #@! TO.P,J16,3*
G04 #@! TO.N,GND*
X97870000Y-92456000D03*
G04 #@! TD*
D11*
G04 #@! TO.P,J7,1*
G04 #@! TO.N,/P5V*
X140970000Y-92456000D03*
D12*
G04 #@! TO.P,J7,2*
G04 #@! TO.N,/PB8*
X140970000Y-89916000D03*
G04 #@! TO.P,J7,3*
G04 #@! TO.N,/PB7*
X140970000Y-87376000D03*
G04 #@! TO.P,J7,4*
G04 #@! TO.N,/PB6*
X140970000Y-84836000D03*
G04 #@! TO.P,J7,5*
G04 #@! TO.N,/PB5*
X140970000Y-82296000D03*
G04 #@! TO.P,J7,6*
G04 #@! TO.N,/PB4*
X140970000Y-79756000D03*
G04 #@! TO.P,J7,7*
G04 #@! TO.N,/PB3*
X140970000Y-77216000D03*
G04 #@! TO.P,J7,8*
G04 #@! TO.N,/PB2*
X140970000Y-74676000D03*
G04 #@! TO.P,J7,9*
G04 #@! TO.N,/PB1*
X140970000Y-72136000D03*
G04 #@! TO.P,J7,10*
G04 #@! TO.N,GND*
X140970000Y-69596000D03*
G04 #@! TD*
D11*
G04 #@! TO.P,J5,1*
G04 #@! TO.N,/12V*
X127635000Y-112839500D03*
D12*
G04 #@! TO.P,J5,2*
G04 #@! TO.N,GND*
X130175000Y-112839500D03*
G04 #@! TD*
D11*
G04 #@! TO.P,J6,1*
G04 #@! TO.N,Net-(J6-Pad1)*
X127571500Y-98742500D03*
D12*
G04 #@! TO.P,J6,2*
G04 #@! TO.N,Net-(J6-Pad2)*
X130111500Y-98742500D03*
G04 #@! TO.P,J6,3*
G04 #@! TO.N,Net-(J6-Pad3)*
X127571500Y-101282500D03*
G04 #@! TO.P,J6,4*
G04 #@! TO.N,Net-(J6-Pad4)*
X130111500Y-101282500D03*
G04 #@! TO.P,J6,5*
G04 #@! TO.N,Net-(J6-Pad5)*
X127571500Y-103822500D03*
G04 #@! TO.P,J6,6*
G04 #@! TO.N,Net-(J6-Pad6)*
X130111500Y-103822500D03*
G04 #@! TO.P,J6,7*
G04 #@! TO.N,Net-(J6-Pad7)*
X127571500Y-106362500D03*
G04 #@! TO.P,J6,8*
G04 #@! TO.N,Net-(J6-Pad8)*
X130111500Y-106362500D03*
G04 #@! TO.P,J6,9*
G04 #@! TO.N,/12V*
X127571500Y-108902500D03*
G04 #@! TO.P,J6,10*
G04 #@! TO.N,Net-(J6-Pad10)*
X130111500Y-108902500D03*
G04 #@! TD*
D18*
G04 #@! TO.N,/P3V3_HAT*
X86931500Y-69342000D03*
X102616000Y-72453500D03*
X98679000Y-98171000D03*
X106997500Y-100266500D03*
G04 #@! TD*
D19*
G04 #@! TO.N,/ID_SD_EEPROM*
X119940000Y-66060000D02*
X119940000Y-65590000D01*
G04 #@! TO.N,/P3V3_HAT*
X87431499Y-69841999D02*
X100004499Y-69841999D01*
X86931500Y-69342000D02*
X87431499Y-69841999D01*
X100004499Y-69841999D02*
X102616000Y-72453500D01*
X102616000Y-72453500D02*
X102616000Y-72453500D01*
X86920000Y-64490000D02*
X86920000Y-65590000D01*
X86995001Y-64414999D02*
X86920000Y-64490000D01*
X106064999Y-64414999D02*
X86995001Y-64414999D01*
X107240000Y-65590000D02*
X106064999Y-64414999D01*
D20*
X98679000Y-98171000D02*
X104902000Y-98171000D01*
X104902000Y-98171000D02*
X106997500Y-100266500D01*
X106997500Y-100266500D02*
X106997500Y-100266500D01*
G04 #@! TD*
M02*
