M48
;DRILL file {KiCad (5.0.1)-3} date 11/17/2018 10:49:40 PM
;FORMAT={-:-/ absolute / inch / decimal}
FMAT,2
INCH,TZ
T1C0.0079
T2C0.0374
T3C0.0394
%
G90
G05
M72
T1
X3.4225Y-2.73
X3.885Y-3.865
X4.04Y-2.8525
X4.2125Y-3.9475
T2
X3.2547Y-3.39
X3.3531Y-3.39
X3.4516Y-3.39
X3.55Y-3.39
X4.54Y-3.4047
X4.54Y-3.5031
X4.54Y-3.6016
X4.54Y-3.7
X3.2547Y-3.14
X3.3531Y-3.14
X3.4516Y-3.14
X3.55Y-3.14
X3.8531Y-3.64
X3.9516Y-3.64
X4.05Y-3.64
X3.2547Y-3.89
X3.3531Y-3.89
X3.4516Y-3.89
X3.55Y-3.89
X3.2547Y-4.15
X3.3531Y-4.15
X3.4516Y-4.15
X3.55Y-4.15
X3.2547Y-3.64
X3.3531Y-3.64
X3.4516Y-3.64
X3.55Y-3.64
X3.8531Y-3.39
X3.9516Y-3.39
X4.05Y-3.39
X4.54Y-3.9347
X4.54Y-4.0331
X4.54Y-4.1316
X4.54Y-4.23
X3.8531Y-3.14
X3.9516Y-3.14
X4.05Y-3.14
T3
X5.55Y-2.74
X5.55Y-2.84
X5.55Y-2.94
X5.55Y-3.04
X5.55Y-3.14
X5.55Y-3.24
X5.55Y-3.34
X5.55Y-3.44
X5.55Y-3.54
X5.55Y-3.64
X5.0225Y-3.8875
X5.0225Y-3.9875
X5.0225Y-4.0875
X5.0225Y-4.1875
X5.0225Y-4.2875
X5.1225Y-3.8875
X5.1225Y-3.9875
X5.1225Y-4.0875
X5.1225Y-4.1875
X5.1225Y-4.2875
X5.025Y-4.4425
X5.125Y-4.4425
X3.422Y-2.4823
X3.422Y-2.5823
X3.522Y-2.4823
X3.522Y-2.5823
X3.622Y-2.4823
X3.622Y-2.5823
X3.722Y-2.4823
X3.722Y-2.5823
X3.822Y-2.4823
X3.822Y-2.5823
X3.922Y-2.4823
X3.922Y-2.5823
X4.022Y-2.4823
X4.022Y-2.5823
X4.122Y-2.4823
X4.122Y-2.5823
X4.222Y-2.4823
X4.222Y-2.5823
X4.322Y-2.4823
X4.322Y-2.5823
X4.422Y-2.4823
X4.422Y-2.5823
X4.522Y-2.4823
X4.522Y-2.5823
X4.622Y-2.4823
X4.622Y-2.5823
X4.722Y-2.4823
X4.722Y-2.5823
X4.822Y-2.4823
X4.822Y-2.5823
X4.922Y-2.4823
X4.922Y-2.5823
X5.022Y-2.4823
X5.022Y-2.5823
X5.122Y-2.4823
X5.122Y-2.5823
X5.222Y-2.4823
X5.222Y-2.5823
X5.322Y-2.4823
X5.322Y-2.5823
X3.21Y-2.82
X3.21Y-2.92
T0
M30
