G04 #@! TF.GenerationSoftware,KiCad,Pcbnew,(5.0.1)-3*
G04 #@! TF.CreationDate,2018-11-17T22:48:42-05:00*
G04 #@! TF.ProjectId,reef-piHat,726565662D70694861742E6B69636164,rev?*
G04 #@! TF.SameCoordinates,Original*
G04 #@! TF.FileFunction,Legend,Bot*
G04 #@! TF.FilePolarity,Positive*
%FSLAX46Y46*%
G04 Gerber Fmt 4.6, Leading zero omitted, Abs format (unit mm)*
G04 Created by KiCad (PCBNEW (5.0.1)-3) date 11/17/2018 10:48:42 PM*
%MOMM*%
%LPD*%
G01*
G04 APERTURE LIST*
%ADD10C,0.100000*%
%ADD11C,0.120000*%
%ADD12C,0.150000*%
G04 APERTURE END LIST*
D10*
X78546356Y-63817611D02*
X78546356Y-113817611D01*
X78546356Y-63817611D02*
G75*
G02X81546356Y-60817611I3000000J0D01*
G01*
X140546356Y-60817611D02*
X81546356Y-60817611D01*
X140546356Y-60817611D02*
G75*
G02X143546356Y-63817611I0J-3000000D01*
G01*
X143546356Y-113817611D02*
X143546356Y-63817611D01*
X81546356Y-116817611D02*
G75*
G02X78546356Y-113817611I0J3000000D01*
G01*
X81546356Y-116817611D02*
X140546356Y-116817611D01*
X143546351Y-113822847D02*
G75*
G02X140546356Y-116817611I-2999995J5236D01*
G01*
D11*
G04 #@! TO.C,J3*
X85590000Y-61720000D02*
X85590000Y-64320000D01*
X85590000Y-61720000D02*
X136510000Y-61720000D01*
X136510000Y-61720000D02*
X136510000Y-66920000D01*
X88190000Y-66920000D02*
X136510000Y-66920000D01*
X88190000Y-64320000D02*
X88190000Y-66920000D01*
X85590000Y-64320000D02*
X88190000Y-64320000D01*
X85590000Y-66920000D02*
X86920000Y-66920000D01*
X85590000Y-65590000D02*
X85590000Y-66920000D01*
G04 #@! TO.C,J1*
X93020000Y-89706000D02*
X93020000Y-90956000D01*
X91770000Y-89706000D02*
X93020000Y-89706000D01*
X80870000Y-95206000D02*
X86420000Y-95206000D01*
X80870000Y-92256000D02*
X80870000Y-95206000D01*
X80120000Y-92256000D02*
X80870000Y-92256000D01*
X91970000Y-95206000D02*
X86420000Y-95206000D01*
X91970000Y-92256000D02*
X91970000Y-95206000D01*
X92720000Y-92256000D02*
X91970000Y-92256000D01*
X80120000Y-90006000D02*
X81920000Y-90006000D01*
X80120000Y-90756000D02*
X80120000Y-90006000D01*
X81920000Y-90756000D02*
X80120000Y-90756000D01*
X81920000Y-90006000D02*
X81920000Y-90756000D01*
X90920000Y-90006000D02*
X92720000Y-90006000D01*
X90920000Y-90756000D02*
X90920000Y-90006000D01*
X92720000Y-90756000D02*
X90920000Y-90756000D01*
X92720000Y-90006000D02*
X92720000Y-90756000D01*
X83420000Y-90006000D02*
X89420000Y-90006000D01*
X83420000Y-90756000D02*
X83420000Y-90006000D01*
X89420000Y-90756000D02*
X83420000Y-90756000D01*
X89420000Y-90006000D02*
X89420000Y-90756000D01*
X80110000Y-89996000D02*
X92730000Y-89996000D01*
X80110000Y-95966000D02*
X80110000Y-89996000D01*
X92730000Y-95966000D02*
X80110000Y-95966000D01*
X92730000Y-89996000D02*
X92730000Y-95966000D01*
G04 #@! TO.C,J2*
X92730000Y-96346000D02*
X92730000Y-102316000D01*
X92730000Y-102316000D02*
X80110000Y-102316000D01*
X80110000Y-102316000D02*
X80110000Y-96346000D01*
X80110000Y-96346000D02*
X92730000Y-96346000D01*
X89420000Y-96356000D02*
X89420000Y-97106000D01*
X89420000Y-97106000D02*
X83420000Y-97106000D01*
X83420000Y-97106000D02*
X83420000Y-96356000D01*
X83420000Y-96356000D02*
X89420000Y-96356000D01*
X92720000Y-96356000D02*
X92720000Y-97106000D01*
X92720000Y-97106000D02*
X90920000Y-97106000D01*
X90920000Y-97106000D02*
X90920000Y-96356000D01*
X90920000Y-96356000D02*
X92720000Y-96356000D01*
X81920000Y-96356000D02*
X81920000Y-97106000D01*
X81920000Y-97106000D02*
X80120000Y-97106000D01*
X80120000Y-97106000D02*
X80120000Y-96356000D01*
X80120000Y-96356000D02*
X81920000Y-96356000D01*
X92720000Y-98606000D02*
X91970000Y-98606000D01*
X91970000Y-98606000D02*
X91970000Y-101556000D01*
X91970000Y-101556000D02*
X86420000Y-101556000D01*
X80120000Y-98606000D02*
X80870000Y-98606000D01*
X80870000Y-98606000D02*
X80870000Y-101556000D01*
X80870000Y-101556000D02*
X86420000Y-101556000D01*
X91770000Y-96056000D02*
X93020000Y-96056000D01*
X93020000Y-96056000D02*
X93020000Y-97306000D01*
G04 #@! TO.C,J4*
X92730000Y-102950000D02*
X92730000Y-108920000D01*
X92730000Y-108920000D02*
X80110000Y-108920000D01*
X80110000Y-108920000D02*
X80110000Y-102950000D01*
X80110000Y-102950000D02*
X92730000Y-102950000D01*
X89420000Y-102960000D02*
X89420000Y-103710000D01*
X89420000Y-103710000D02*
X83420000Y-103710000D01*
X83420000Y-103710000D02*
X83420000Y-102960000D01*
X83420000Y-102960000D02*
X89420000Y-102960000D01*
X92720000Y-102960000D02*
X92720000Y-103710000D01*
X92720000Y-103710000D02*
X90920000Y-103710000D01*
X90920000Y-103710000D02*
X90920000Y-102960000D01*
X90920000Y-102960000D02*
X92720000Y-102960000D01*
X81920000Y-102960000D02*
X81920000Y-103710000D01*
X81920000Y-103710000D02*
X80120000Y-103710000D01*
X80120000Y-103710000D02*
X80120000Y-102960000D01*
X80120000Y-102960000D02*
X81920000Y-102960000D01*
X92720000Y-105210000D02*
X91970000Y-105210000D01*
X91970000Y-105210000D02*
X91970000Y-108160000D01*
X91970000Y-108160000D02*
X86420000Y-108160000D01*
X80120000Y-105210000D02*
X80870000Y-105210000D01*
X80870000Y-105210000D02*
X80870000Y-108160000D01*
X80870000Y-108160000D02*
X86420000Y-108160000D01*
X91770000Y-102660000D02*
X93020000Y-102660000D01*
X93020000Y-102660000D02*
X93020000Y-103910000D01*
G04 #@! TO.C,J8*
X117776000Y-96540000D02*
X111806000Y-96540000D01*
X111806000Y-96540000D02*
X111806000Y-83920000D01*
X111806000Y-83920000D02*
X117776000Y-83920000D01*
X117776000Y-83920000D02*
X117776000Y-96540000D01*
X117766000Y-93230000D02*
X117016000Y-93230000D01*
X117016000Y-93230000D02*
X117016000Y-87230000D01*
X117016000Y-87230000D02*
X117766000Y-87230000D01*
X117766000Y-87230000D02*
X117766000Y-93230000D01*
X117766000Y-96530000D02*
X117016000Y-96530000D01*
X117016000Y-96530000D02*
X117016000Y-94730000D01*
X117016000Y-94730000D02*
X117766000Y-94730000D01*
X117766000Y-94730000D02*
X117766000Y-96530000D01*
X117766000Y-85730000D02*
X117016000Y-85730000D01*
X117016000Y-85730000D02*
X117016000Y-83930000D01*
X117016000Y-83930000D02*
X117766000Y-83930000D01*
X117766000Y-83930000D02*
X117766000Y-85730000D01*
X115516000Y-96530000D02*
X115516000Y-95780000D01*
X115516000Y-95780000D02*
X112566000Y-95780000D01*
X112566000Y-95780000D02*
X112566000Y-90230000D01*
X115516000Y-83930000D02*
X115516000Y-84680000D01*
X115516000Y-84680000D02*
X112566000Y-84680000D01*
X112566000Y-84680000D02*
X112566000Y-90230000D01*
X118066000Y-95580000D02*
X118066000Y-96830000D01*
X118066000Y-96830000D02*
X116816000Y-96830000D01*
G04 #@! TO.C,J10*
X118066000Y-110292000D02*
X116816000Y-110292000D01*
X118066000Y-109042000D02*
X118066000Y-110292000D01*
X112566000Y-98142000D02*
X112566000Y-103692000D01*
X115516000Y-98142000D02*
X112566000Y-98142000D01*
X115516000Y-97392000D02*
X115516000Y-98142000D01*
X112566000Y-109242000D02*
X112566000Y-103692000D01*
X115516000Y-109242000D02*
X112566000Y-109242000D01*
X115516000Y-109992000D02*
X115516000Y-109242000D01*
X117766000Y-97392000D02*
X117766000Y-99192000D01*
X117016000Y-97392000D02*
X117766000Y-97392000D01*
X117016000Y-99192000D02*
X117016000Y-97392000D01*
X117766000Y-99192000D02*
X117016000Y-99192000D01*
X117766000Y-108192000D02*
X117766000Y-109992000D01*
X117016000Y-108192000D02*
X117766000Y-108192000D01*
X117016000Y-109992000D02*
X117016000Y-108192000D01*
X117766000Y-109992000D02*
X117016000Y-109992000D01*
X117766000Y-100692000D02*
X117766000Y-106692000D01*
X117016000Y-100692000D02*
X117766000Y-100692000D01*
X117016000Y-106692000D02*
X117016000Y-100692000D01*
X117766000Y-106692000D02*
X117016000Y-106692000D01*
X117776000Y-97382000D02*
X117776000Y-110002000D01*
X111806000Y-97382000D02*
X117776000Y-97382000D01*
X111806000Y-110002000D02*
X111806000Y-97382000D01*
X117776000Y-110002000D02*
X111806000Y-110002000D01*
G04 #@! TO.C,J11*
X92730000Y-83646000D02*
X92730000Y-89616000D01*
X92730000Y-89616000D02*
X80110000Y-89616000D01*
X80110000Y-89616000D02*
X80110000Y-83646000D01*
X80110000Y-83646000D02*
X92730000Y-83646000D01*
X89420000Y-83656000D02*
X89420000Y-84406000D01*
X89420000Y-84406000D02*
X83420000Y-84406000D01*
X83420000Y-84406000D02*
X83420000Y-83656000D01*
X83420000Y-83656000D02*
X89420000Y-83656000D01*
X92720000Y-83656000D02*
X92720000Y-84406000D01*
X92720000Y-84406000D02*
X90920000Y-84406000D01*
X90920000Y-84406000D02*
X90920000Y-83656000D01*
X90920000Y-83656000D02*
X92720000Y-83656000D01*
X81920000Y-83656000D02*
X81920000Y-84406000D01*
X81920000Y-84406000D02*
X80120000Y-84406000D01*
X80120000Y-84406000D02*
X80120000Y-83656000D01*
X80120000Y-83656000D02*
X81920000Y-83656000D01*
X92720000Y-85906000D02*
X91970000Y-85906000D01*
X91970000Y-85906000D02*
X91970000Y-88856000D01*
X91970000Y-88856000D02*
X86420000Y-88856000D01*
X80120000Y-85906000D02*
X80870000Y-85906000D01*
X80870000Y-85906000D02*
X80870000Y-88856000D01*
X80870000Y-88856000D02*
X86420000Y-88856000D01*
X91770000Y-83356000D02*
X93020000Y-83356000D01*
X93020000Y-83356000D02*
X93020000Y-84606000D01*
G04 #@! TO.C,J12*
X93020000Y-77006000D02*
X93020000Y-78256000D01*
X91770000Y-77006000D02*
X93020000Y-77006000D01*
X80870000Y-82506000D02*
X86420000Y-82506000D01*
X80870000Y-79556000D02*
X80870000Y-82506000D01*
X80120000Y-79556000D02*
X80870000Y-79556000D01*
X91970000Y-82506000D02*
X86420000Y-82506000D01*
X91970000Y-79556000D02*
X91970000Y-82506000D01*
X92720000Y-79556000D02*
X91970000Y-79556000D01*
X80120000Y-77306000D02*
X81920000Y-77306000D01*
X80120000Y-78056000D02*
X80120000Y-77306000D01*
X81920000Y-78056000D02*
X80120000Y-78056000D01*
X81920000Y-77306000D02*
X81920000Y-78056000D01*
X90920000Y-77306000D02*
X92720000Y-77306000D01*
X90920000Y-78056000D02*
X90920000Y-77306000D01*
X92720000Y-78056000D02*
X90920000Y-78056000D01*
X92720000Y-77306000D02*
X92720000Y-78056000D01*
X83420000Y-77306000D02*
X89420000Y-77306000D01*
X83420000Y-78056000D02*
X83420000Y-77306000D01*
X89420000Y-78056000D02*
X83420000Y-78056000D01*
X89420000Y-77306000D02*
X89420000Y-78056000D01*
X80110000Y-77296000D02*
X92730000Y-77296000D01*
X80110000Y-83266000D02*
X80110000Y-77296000D01*
X92730000Y-83266000D02*
X80110000Y-83266000D01*
X92730000Y-77296000D02*
X92730000Y-83266000D01*
G04 #@! TO.C,J13*
X82864000Y-75498000D02*
X80204000Y-75498000D01*
X82864000Y-72898000D02*
X82864000Y-75498000D01*
X80204000Y-72898000D02*
X80204000Y-75498000D01*
X82864000Y-72898000D02*
X80204000Y-72898000D01*
X82864000Y-71628000D02*
X82864000Y-70298000D01*
X82864000Y-70298000D02*
X81534000Y-70298000D01*
G04 #@! TO.C,J14*
X105430000Y-77296000D02*
X105430000Y-83266000D01*
X105430000Y-83266000D02*
X95310000Y-83266000D01*
X95310000Y-83266000D02*
X95310000Y-77296000D01*
X95310000Y-77296000D02*
X105430000Y-77296000D01*
X102120000Y-77306000D02*
X102120000Y-78056000D01*
X102120000Y-78056000D02*
X98620000Y-78056000D01*
X98620000Y-78056000D02*
X98620000Y-77306000D01*
X98620000Y-77306000D02*
X102120000Y-77306000D01*
X105420000Y-77306000D02*
X105420000Y-78056000D01*
X105420000Y-78056000D02*
X103620000Y-78056000D01*
X103620000Y-78056000D02*
X103620000Y-77306000D01*
X103620000Y-77306000D02*
X105420000Y-77306000D01*
X97120000Y-77306000D02*
X97120000Y-78056000D01*
X97120000Y-78056000D02*
X95320000Y-78056000D01*
X95320000Y-78056000D02*
X95320000Y-77306000D01*
X95320000Y-77306000D02*
X97120000Y-77306000D01*
X105420000Y-79556000D02*
X104670000Y-79556000D01*
X104670000Y-79556000D02*
X104670000Y-82506000D01*
X104670000Y-82506000D02*
X100370000Y-82506000D01*
X95320000Y-79556000D02*
X96070000Y-79556000D01*
X96070000Y-79556000D02*
X96070000Y-82506000D01*
X96070000Y-82506000D02*
X100370000Y-82506000D01*
X104470000Y-77006000D02*
X105720000Y-77006000D01*
X105720000Y-77006000D02*
X105720000Y-78256000D01*
G04 #@! TO.C,J15*
X105720000Y-83356000D02*
X105720000Y-84606000D01*
X104470000Y-83356000D02*
X105720000Y-83356000D01*
X96070000Y-88856000D02*
X100370000Y-88856000D01*
X96070000Y-85906000D02*
X96070000Y-88856000D01*
X95320000Y-85906000D02*
X96070000Y-85906000D01*
X104670000Y-88856000D02*
X100370000Y-88856000D01*
X104670000Y-85906000D02*
X104670000Y-88856000D01*
X105420000Y-85906000D02*
X104670000Y-85906000D01*
X95320000Y-83656000D02*
X97120000Y-83656000D01*
X95320000Y-84406000D02*
X95320000Y-83656000D01*
X97120000Y-84406000D02*
X95320000Y-84406000D01*
X97120000Y-83656000D02*
X97120000Y-84406000D01*
X103620000Y-83656000D02*
X105420000Y-83656000D01*
X103620000Y-84406000D02*
X103620000Y-83656000D01*
X105420000Y-84406000D02*
X103620000Y-84406000D01*
X105420000Y-83656000D02*
X105420000Y-84406000D01*
X98620000Y-83656000D02*
X102120000Y-83656000D01*
X98620000Y-84406000D02*
X98620000Y-83656000D01*
X102120000Y-84406000D02*
X98620000Y-84406000D01*
X102120000Y-83656000D02*
X102120000Y-84406000D01*
X95310000Y-83646000D02*
X105430000Y-83646000D01*
X95310000Y-89616000D02*
X95310000Y-83646000D01*
X105430000Y-89616000D02*
X95310000Y-89616000D01*
X105430000Y-83646000D02*
X105430000Y-89616000D01*
G04 #@! TO.C,J16*
X105430000Y-89996000D02*
X105430000Y-95966000D01*
X105430000Y-95966000D02*
X95310000Y-95966000D01*
X95310000Y-95966000D02*
X95310000Y-89996000D01*
X95310000Y-89996000D02*
X105430000Y-89996000D01*
X102120000Y-90006000D02*
X102120000Y-90756000D01*
X102120000Y-90756000D02*
X98620000Y-90756000D01*
X98620000Y-90756000D02*
X98620000Y-90006000D01*
X98620000Y-90006000D02*
X102120000Y-90006000D01*
X105420000Y-90006000D02*
X105420000Y-90756000D01*
X105420000Y-90756000D02*
X103620000Y-90756000D01*
X103620000Y-90756000D02*
X103620000Y-90006000D01*
X103620000Y-90006000D02*
X105420000Y-90006000D01*
X97120000Y-90006000D02*
X97120000Y-90756000D01*
X97120000Y-90756000D02*
X95320000Y-90756000D01*
X95320000Y-90756000D02*
X95320000Y-90006000D01*
X95320000Y-90006000D02*
X97120000Y-90006000D01*
X105420000Y-92256000D02*
X104670000Y-92256000D01*
X104670000Y-92256000D02*
X104670000Y-95206000D01*
X104670000Y-95206000D02*
X100370000Y-95206000D01*
X95320000Y-92256000D02*
X96070000Y-92256000D01*
X96070000Y-92256000D02*
X96070000Y-95206000D01*
X96070000Y-95206000D02*
X100370000Y-95206000D01*
X104470000Y-89706000D02*
X105720000Y-89706000D01*
X105720000Y-89706000D02*
X105720000Y-90956000D01*
G04 #@! TO.C,J7*
X139640000Y-68266000D02*
X142300000Y-68266000D01*
X139640000Y-91186000D02*
X139640000Y-68266000D01*
X142300000Y-91186000D02*
X142300000Y-68266000D01*
X139640000Y-91186000D02*
X142300000Y-91186000D01*
X139640000Y-92456000D02*
X139640000Y-93786000D01*
X139640000Y-93786000D02*
X140970000Y-93786000D01*
G04 #@! TO.C,J5*
X131505000Y-111509500D02*
X131505000Y-114169500D01*
X128905000Y-111509500D02*
X131505000Y-111509500D01*
X128905000Y-114169500D02*
X131505000Y-114169500D01*
X128905000Y-111509500D02*
X128905000Y-114169500D01*
X127635000Y-111509500D02*
X126305000Y-111509500D01*
X126305000Y-111509500D02*
X126305000Y-112839500D01*
G04 #@! TD*
G04 #@! TO.C,J3*
D12*
X83602380Y-63986666D02*
X84316666Y-63986666D01*
X84459523Y-63939047D01*
X84554761Y-63843809D01*
X84602380Y-63700952D01*
X84602380Y-63605714D01*
X83602380Y-64367619D02*
X83602380Y-64986666D01*
X83983333Y-64653333D01*
X83983333Y-64796190D01*
X84030952Y-64891428D01*
X84078571Y-64939047D01*
X84173809Y-64986666D01*
X84411904Y-64986666D01*
X84507142Y-64939047D01*
X84554761Y-64891428D01*
X84602380Y-64796190D01*
X84602380Y-64510476D01*
X84554761Y-64415238D01*
X84507142Y-64367619D01*
G04 #@! TO.C,J1*
X86753333Y-88358380D02*
X86753333Y-89072666D01*
X86800952Y-89215523D01*
X86896190Y-89310761D01*
X87039047Y-89358380D01*
X87134285Y-89358380D01*
X85753333Y-89358380D02*
X86324761Y-89358380D01*
X86039047Y-89358380D02*
X86039047Y-88358380D01*
X86134285Y-88501238D01*
X86229523Y-88596476D01*
X86324761Y-88644095D01*
G04 #@! TO.C,J2*
X86753333Y-94708380D02*
X86753333Y-95422666D01*
X86800952Y-95565523D01*
X86896190Y-95660761D01*
X87039047Y-95708380D01*
X87134285Y-95708380D01*
X86324761Y-94803619D02*
X86277142Y-94756000D01*
X86181904Y-94708380D01*
X85943809Y-94708380D01*
X85848571Y-94756000D01*
X85800952Y-94803619D01*
X85753333Y-94898857D01*
X85753333Y-94994095D01*
X85800952Y-95136952D01*
X86372380Y-95708380D01*
X85753333Y-95708380D01*
G04 #@! TO.C,J4*
X86753333Y-101312380D02*
X86753333Y-102026666D01*
X86800952Y-102169523D01*
X86896190Y-102264761D01*
X87039047Y-102312380D01*
X87134285Y-102312380D01*
X85848571Y-101645714D02*
X85848571Y-102312380D01*
X86086666Y-101264761D02*
X86324761Y-101979047D01*
X85705714Y-101979047D01*
G04 #@! TO.C,J8*
X118318380Y-89896666D02*
X119032666Y-89896666D01*
X119175523Y-89849047D01*
X119270761Y-89753809D01*
X119318380Y-89610952D01*
X119318380Y-89515714D01*
X118746952Y-90515714D02*
X118699333Y-90420476D01*
X118651714Y-90372857D01*
X118556476Y-90325238D01*
X118508857Y-90325238D01*
X118413619Y-90372857D01*
X118366000Y-90420476D01*
X118318380Y-90515714D01*
X118318380Y-90706190D01*
X118366000Y-90801428D01*
X118413619Y-90849047D01*
X118508857Y-90896666D01*
X118556476Y-90896666D01*
X118651714Y-90849047D01*
X118699333Y-90801428D01*
X118746952Y-90706190D01*
X118746952Y-90515714D01*
X118794571Y-90420476D01*
X118842190Y-90372857D01*
X118937428Y-90325238D01*
X119127904Y-90325238D01*
X119223142Y-90372857D01*
X119270761Y-90420476D01*
X119318380Y-90515714D01*
X119318380Y-90706190D01*
X119270761Y-90801428D01*
X119223142Y-90849047D01*
X119127904Y-90896666D01*
X118937428Y-90896666D01*
X118842190Y-90849047D01*
X118794571Y-90801428D01*
X118746952Y-90706190D01*
G04 #@! TO.C,J10*
X118318380Y-102882476D02*
X119032666Y-102882476D01*
X119175523Y-102834857D01*
X119270761Y-102739619D01*
X119318380Y-102596761D01*
X119318380Y-102501523D01*
X119318380Y-103882476D02*
X119318380Y-103311047D01*
X119318380Y-103596761D02*
X118318380Y-103596761D01*
X118461238Y-103501523D01*
X118556476Y-103406285D01*
X118604095Y-103311047D01*
X118318380Y-104501523D02*
X118318380Y-104596761D01*
X118366000Y-104692000D01*
X118413619Y-104739619D01*
X118508857Y-104787238D01*
X118699333Y-104834857D01*
X118937428Y-104834857D01*
X119127904Y-104787238D01*
X119223142Y-104739619D01*
X119270761Y-104692000D01*
X119318380Y-104596761D01*
X119318380Y-104501523D01*
X119270761Y-104406285D01*
X119223142Y-104358666D01*
X119127904Y-104311047D01*
X118937428Y-104263428D01*
X118699333Y-104263428D01*
X118508857Y-104311047D01*
X118413619Y-104358666D01*
X118366000Y-104406285D01*
X118318380Y-104501523D01*
G04 #@! TO.C,J11*
X87229523Y-82008380D02*
X87229523Y-82722666D01*
X87277142Y-82865523D01*
X87372380Y-82960761D01*
X87515238Y-83008380D01*
X87610476Y-83008380D01*
X86229523Y-83008380D02*
X86800952Y-83008380D01*
X86515238Y-83008380D02*
X86515238Y-82008380D01*
X86610476Y-82151238D01*
X86705714Y-82246476D01*
X86800952Y-82294095D01*
X85277142Y-83008380D02*
X85848571Y-83008380D01*
X85562857Y-83008380D02*
X85562857Y-82008380D01*
X85658095Y-82151238D01*
X85753333Y-82246476D01*
X85848571Y-82294095D01*
G04 #@! TO.C,J12*
X87229523Y-75658380D02*
X87229523Y-76372666D01*
X87277142Y-76515523D01*
X87372380Y-76610761D01*
X87515238Y-76658380D01*
X87610476Y-76658380D01*
X86229523Y-76658380D02*
X86800952Y-76658380D01*
X86515238Y-76658380D02*
X86515238Y-75658380D01*
X86610476Y-75801238D01*
X86705714Y-75896476D01*
X86800952Y-75944095D01*
X85848571Y-75753619D02*
X85800952Y-75706000D01*
X85705714Y-75658380D01*
X85467619Y-75658380D01*
X85372380Y-75706000D01*
X85324761Y-75753619D01*
X85277142Y-75848857D01*
X85277142Y-75944095D01*
X85324761Y-76086952D01*
X85896190Y-76658380D01*
X85277142Y-76658380D01*
G04 #@! TO.C,J13*
X82343523Y-68750380D02*
X82343523Y-69464666D01*
X82391142Y-69607523D01*
X82486380Y-69702761D01*
X82629238Y-69750380D01*
X82724476Y-69750380D01*
X81343523Y-69750380D02*
X81914952Y-69750380D01*
X81629238Y-69750380D02*
X81629238Y-68750380D01*
X81724476Y-68893238D01*
X81819714Y-68988476D01*
X81914952Y-69036095D01*
X81010190Y-68750380D02*
X80391142Y-68750380D01*
X80724476Y-69131333D01*
X80581619Y-69131333D01*
X80486380Y-69178952D01*
X80438761Y-69226571D01*
X80391142Y-69321809D01*
X80391142Y-69559904D01*
X80438761Y-69655142D01*
X80486380Y-69702761D01*
X80581619Y-69750380D01*
X80867333Y-69750380D01*
X80962571Y-69702761D01*
X81010190Y-69655142D01*
G04 #@! TO.C,J14*
X101179523Y-75658380D02*
X101179523Y-76372666D01*
X101227142Y-76515523D01*
X101322380Y-76610761D01*
X101465238Y-76658380D01*
X101560476Y-76658380D01*
X100179523Y-76658380D02*
X100750952Y-76658380D01*
X100465238Y-76658380D02*
X100465238Y-75658380D01*
X100560476Y-75801238D01*
X100655714Y-75896476D01*
X100750952Y-75944095D01*
X99322380Y-75991714D02*
X99322380Y-76658380D01*
X99560476Y-75610761D02*
X99798571Y-76325047D01*
X99179523Y-76325047D01*
G04 #@! TO.C,J15*
X101179523Y-82008380D02*
X101179523Y-82722666D01*
X101227142Y-82865523D01*
X101322380Y-82960761D01*
X101465238Y-83008380D01*
X101560476Y-83008380D01*
X100179523Y-83008380D02*
X100750952Y-83008380D01*
X100465238Y-83008380D02*
X100465238Y-82008380D01*
X100560476Y-82151238D01*
X100655714Y-82246476D01*
X100750952Y-82294095D01*
X99274761Y-82008380D02*
X99750952Y-82008380D01*
X99798571Y-82484571D01*
X99750952Y-82436952D01*
X99655714Y-82389333D01*
X99417619Y-82389333D01*
X99322380Y-82436952D01*
X99274761Y-82484571D01*
X99227142Y-82579809D01*
X99227142Y-82817904D01*
X99274761Y-82913142D01*
X99322380Y-82960761D01*
X99417619Y-83008380D01*
X99655714Y-83008380D01*
X99750952Y-82960761D01*
X99798571Y-82913142D01*
G04 #@! TO.C,J16*
X101179523Y-88358380D02*
X101179523Y-89072666D01*
X101227142Y-89215523D01*
X101322380Y-89310761D01*
X101465238Y-89358380D01*
X101560476Y-89358380D01*
X100179523Y-89358380D02*
X100750952Y-89358380D01*
X100465238Y-89358380D02*
X100465238Y-88358380D01*
X100560476Y-88501238D01*
X100655714Y-88596476D01*
X100750952Y-88644095D01*
X99322380Y-88358380D02*
X99512857Y-88358380D01*
X99608095Y-88406000D01*
X99655714Y-88453619D01*
X99750952Y-88596476D01*
X99798571Y-88786952D01*
X99798571Y-89167904D01*
X99750952Y-89263142D01*
X99703333Y-89310761D01*
X99608095Y-89358380D01*
X99417619Y-89358380D01*
X99322380Y-89310761D01*
X99274761Y-89263142D01*
X99227142Y-89167904D01*
X99227142Y-88929809D01*
X99274761Y-88834571D01*
X99322380Y-88786952D01*
X99417619Y-88739333D01*
X99608095Y-88739333D01*
X99703333Y-88786952D01*
X99750952Y-88834571D01*
X99798571Y-88929809D01*
G04 #@! TO.C,J7*
X141303333Y-94238380D02*
X141303333Y-94952666D01*
X141350952Y-95095523D01*
X141446190Y-95190761D01*
X141589047Y-95238380D01*
X141684285Y-95238380D01*
X140922380Y-94238380D02*
X140255714Y-94238380D01*
X140684285Y-95238380D01*
G04 #@! TO.C,J5*
X124757380Y-112506166D02*
X125471666Y-112506166D01*
X125614523Y-112458547D01*
X125709761Y-112363309D01*
X125757380Y-112220452D01*
X125757380Y-112125214D01*
X124757380Y-113458547D02*
X124757380Y-112982357D01*
X125233571Y-112934738D01*
X125185952Y-112982357D01*
X125138333Y-113077595D01*
X125138333Y-113315690D01*
X125185952Y-113410928D01*
X125233571Y-113458547D01*
X125328809Y-113506166D01*
X125566904Y-113506166D01*
X125662142Y-113458547D01*
X125709761Y-113410928D01*
X125757380Y-113315690D01*
X125757380Y-113077595D01*
X125709761Y-112982357D01*
X125662142Y-112934738D01*
G04 #@! TD*
M02*
