M48
;DRILL file {KiCad (5.0.1)-3} date 3/6/2019 1:06:12 PM
;FORMAT={-:-/ absolute / inch / decimal}
FMAT,2
INCH,TZ
T1C0.0118
T2C0.0394
%
G90
G05
M72
T1
X3.202Y-2.765
X3.3224Y-3.3234
X3.3224Y-3.0824
X3.325Y-3.7292
X3.3599Y-3.1115
X3.3617Y-3.2996
X3.3644Y-3.7181
X3.3968Y-3.3308
X3.4848Y-2.765
X3.7023Y-3.9677
X3.703Y-3.8436
X3.7244Y-3.3045
X3.7268Y-3.811
X3.7271Y-3.9402
X3.7473Y-3.7793
X3.7881Y-3.3186
X3.8911Y-2.9814
X3.8922Y-2.7677
X3.9678Y-4.1932
X3.989Y-4.276
X3.9914Y-4.316
X3.9956Y-3.5496
X4.0372Y-2.6517
X4.054Y-2.6927
X4.0843Y-3.5163
X4.18Y-2.9875
X4.263Y-4.162
X4.3877Y-3.7222
X4.4338Y-4.2403
X4.4338Y-4.3126
X4.5345Y-3.2655
X4.548Y-4.4881
X4.5892Y-3.2669
X4.6458Y-3.2669
X4.7079Y-3.2683
X4.7654Y-3.2673
X4.8225Y-3.2678
X4.8771Y-3.2707
X5.1882Y-3.4511
X5.1921Y-3.0488
X5.1952Y-3.1829
X5.1965Y-3.317
X5.1976Y-2.9152
X5.1982Y-3.7193
X5.1983Y-3.5852
X5.2733Y-2.7004
T2
X3.4925Y-4.4525
X3.5925Y-4.4525
X4.7753Y-4.4497
X4.8753Y-4.4497
X4.7728Y-3.8947
X4.7728Y-3.9947
X4.7728Y-4.0947
X4.7728Y-4.1947
X4.7728Y-4.2947
X4.8728Y-3.8947
X4.8728Y-3.9947
X4.8728Y-4.0947
X4.8728Y-4.1947
X4.8728Y-4.2947
X5.55Y-2.74
X5.55Y-2.84
X5.55Y-2.94
X5.55Y-3.04
X5.55Y-3.14
X5.55Y-3.24
X5.55Y-3.34
X5.55Y-3.44
X5.55Y-3.54
X5.55Y-3.64
X3.422Y-2.4823
X3.422Y-2.5823
X3.522Y-2.4823
X3.522Y-2.5823
X3.622Y-2.4823
X3.622Y-2.5823
X3.722Y-2.4823
X3.722Y-2.5823
X3.822Y-2.4823
X3.822Y-2.5823
X3.922Y-2.4823
X3.922Y-2.5823
X4.022Y-2.4823
X4.022Y-2.5823
X4.122Y-2.4823
X4.122Y-2.5823
X4.222Y-2.4823
X4.222Y-2.5823
X4.322Y-2.4823
X4.322Y-2.5823
X4.422Y-2.4823
X4.422Y-2.5823
X4.522Y-2.4823
X4.522Y-2.5823
X4.622Y-2.4823
X4.622Y-2.5823
X4.722Y-2.4823
X4.722Y-2.5823
X4.822Y-2.4823
X4.822Y-2.5823
X4.922Y-2.4823
X4.922Y-2.5823
X5.022Y-2.4823
X5.022Y-2.5823
X5.122Y-2.4823
X5.122Y-2.5823
X5.222Y-2.4823
X5.222Y-2.5823
X5.322Y-2.4823
X5.322Y-2.5823
T0
M30
