%TF.GenerationSoftware,KiCad,Pcbnew,(5.0.1)-3*%
%TF.CreationDate,2019-03-06T13:22:50-05:00*%
%TF.ProjectId,reef-piHat,726565662D70694861742E6B69636164,rev?*%
%TF.SameCoordinates,Original*%
%TF.FileFunction,Legend,Top*%
%TF.FilePolarity,Positive*%
%FSLAX46Y46*%
G04 Gerber Fmt 4.6, Leading zero omitted, Abs format (unit mm)*
G04 Created by KiCad (PCBNEW (5.0.1)-3) date 3/6/2019 1:22:50 PM*
%MOMM*%
%LPD*%
G01*
G04 APERTURE LIST*
%ADD10C,0.200000*%
%ADD11C,0.300000*%
%ADD12C,0.100000*%
%ADD13C,0.120000*%
%ADD14C,0.150000*%
%ADD15C,0.010000*%
%ADD16C,0.080000*%
G04 APERTURE END LIST*
D10*
X100680997Y-111234480D02*
X100680997Y-110234480D01*
X101061949Y-110234480D01*
X101157187Y-110282100D01*
X101204806Y-110329719D01*
X101252425Y-110424957D01*
X101252425Y-110567814D01*
X101204806Y-110663052D01*
X101157187Y-110710671D01*
X101061949Y-110758290D01*
X100680997Y-110758290D01*
X102252425Y-111139242D02*
X102204806Y-111186861D01*
X102061949Y-111234480D01*
X101966711Y-111234480D01*
X101823854Y-111186861D01*
X101728616Y-111091623D01*
X101680997Y-110996385D01*
X101633378Y-110805909D01*
X101633378Y-110663052D01*
X101680997Y-110472576D01*
X101728616Y-110377338D01*
X101823854Y-110282100D01*
X101966711Y-110234480D01*
X102061949Y-110234480D01*
X102204806Y-110282100D01*
X102252425Y-110329719D01*
X102633378Y-110948766D02*
X103109568Y-110948766D01*
X102538140Y-111234480D02*
X102871473Y-110234480D01*
X103204806Y-111234480D01*
X103585759Y-111234480D02*
X103776235Y-111234480D01*
X103871473Y-111186861D01*
X103919092Y-111139242D01*
X104014330Y-110996385D01*
X104061949Y-110805909D01*
X104061949Y-110424957D01*
X104014330Y-110329719D01*
X103966711Y-110282100D01*
X103871473Y-110234480D01*
X103680997Y-110234480D01*
X103585759Y-110282100D01*
X103538140Y-110329719D01*
X103490520Y-110424957D01*
X103490520Y-110663052D01*
X103538140Y-110758290D01*
X103585759Y-110805909D01*
X103680997Y-110853528D01*
X103871473Y-110853528D01*
X103966711Y-110805909D01*
X104014330Y-110758290D01*
X104061949Y-110663052D01*
X104919092Y-110234480D02*
X104728616Y-110234480D01*
X104633378Y-110282100D01*
X104585759Y-110329719D01*
X104490520Y-110472576D01*
X104442901Y-110663052D01*
X104442901Y-111044004D01*
X104490520Y-111139242D01*
X104538140Y-111186861D01*
X104633378Y-111234480D01*
X104823854Y-111234480D01*
X104919092Y-111186861D01*
X104966711Y-111139242D01*
X105014330Y-111044004D01*
X105014330Y-110805909D01*
X104966711Y-110710671D01*
X104919092Y-110663052D01*
X104823854Y-110615433D01*
X104633378Y-110615433D01*
X104538140Y-110663052D01*
X104490520Y-110710671D01*
X104442901Y-110805909D01*
X105585759Y-110663052D02*
X105490520Y-110615433D01*
X105442901Y-110567814D01*
X105395282Y-110472576D01*
X105395282Y-110424957D01*
X105442901Y-110329719D01*
X105490520Y-110282100D01*
X105585759Y-110234480D01*
X105776235Y-110234480D01*
X105871473Y-110282100D01*
X105919092Y-110329719D01*
X105966711Y-110424957D01*
X105966711Y-110472576D01*
X105919092Y-110567814D01*
X105871473Y-110615433D01*
X105776235Y-110663052D01*
X105585759Y-110663052D01*
X105490520Y-110710671D01*
X105442901Y-110758290D01*
X105395282Y-110853528D01*
X105395282Y-111044004D01*
X105442901Y-111139242D01*
X105490520Y-111186861D01*
X105585759Y-111234480D01*
X105776235Y-111234480D01*
X105871473Y-111186861D01*
X105919092Y-111139242D01*
X105966711Y-111044004D01*
X105966711Y-110853528D01*
X105919092Y-110758290D01*
X105871473Y-110710671D01*
X105776235Y-110663052D01*
X106871473Y-110234480D02*
X106395282Y-110234480D01*
X106347663Y-110710671D01*
X106395282Y-110663052D01*
X106490520Y-110615433D01*
X106728616Y-110615433D01*
X106823854Y-110663052D01*
X106871473Y-110710671D01*
X106919092Y-110805909D01*
X106919092Y-111044004D01*
X106871473Y-111139242D01*
X106823854Y-111186861D01*
X106728616Y-111234480D01*
X106490520Y-111234480D01*
X106395282Y-111186861D01*
X106347663Y-111139242D01*
X108061949Y-110948766D02*
X108538140Y-110948766D01*
X107966711Y-111234480D02*
X108300044Y-110234480D01*
X108633378Y-111234480D01*
X109395282Y-111234480D02*
X109395282Y-110234480D01*
X109395282Y-111186861D02*
X109300044Y-111234480D01*
X109109568Y-111234480D01*
X109014330Y-111186861D01*
X108966711Y-111139242D01*
X108919092Y-111044004D01*
X108919092Y-110758290D01*
X108966711Y-110663052D01*
X109014330Y-110615433D01*
X109109568Y-110567814D01*
X109300044Y-110567814D01*
X109395282Y-110615433D01*
X110300044Y-111234480D02*
X110300044Y-110234480D01*
X110300044Y-111186861D02*
X110204806Y-111234480D01*
X110014330Y-111234480D01*
X109919092Y-111186861D01*
X109871473Y-111139242D01*
X109823854Y-111044004D01*
X109823854Y-110758290D01*
X109871473Y-110663052D01*
X109919092Y-110615433D01*
X110014330Y-110567814D01*
X110204806Y-110567814D01*
X110300044Y-110615433D01*
X110776235Y-111234480D02*
X110776235Y-110567814D01*
X110776235Y-110758290D02*
X110823854Y-110663052D01*
X110871473Y-110615433D01*
X110966711Y-110567814D01*
X111061949Y-110567814D01*
X111776235Y-111186861D02*
X111680997Y-111234480D01*
X111490520Y-111234480D01*
X111395282Y-111186861D01*
X111347663Y-111091623D01*
X111347663Y-110710671D01*
X111395282Y-110615433D01*
X111490520Y-110567814D01*
X111680997Y-110567814D01*
X111776235Y-110615433D01*
X111823854Y-110710671D01*
X111823854Y-110805909D01*
X111347663Y-110901147D01*
X112204806Y-111186861D02*
X112300044Y-111234480D01*
X112490520Y-111234480D01*
X112585759Y-111186861D01*
X112633378Y-111091623D01*
X112633378Y-111044004D01*
X112585759Y-110948766D01*
X112490520Y-110901147D01*
X112347663Y-110901147D01*
X112252425Y-110853528D01*
X112204806Y-110758290D01*
X112204806Y-110710671D01*
X112252425Y-110615433D01*
X112347663Y-110567814D01*
X112490520Y-110567814D01*
X112585759Y-110615433D01*
X113014330Y-111186861D02*
X113109568Y-111234480D01*
X113300044Y-111234480D01*
X113395282Y-111186861D01*
X113442901Y-111091623D01*
X113442901Y-111044004D01*
X113395282Y-110948766D01*
X113300044Y-110901147D01*
X113157187Y-110901147D01*
X113061949Y-110853528D01*
X113014330Y-110758290D01*
X113014330Y-110710671D01*
X113061949Y-110615433D01*
X113157187Y-110567814D01*
X113300044Y-110567814D01*
X113395282Y-110615433D01*
X140781114Y-94580971D02*
X140066828Y-94580971D01*
X139995400Y-95295257D01*
X140066828Y-95223828D01*
X140209685Y-95152400D01*
X140566828Y-95152400D01*
X140709685Y-95223828D01*
X140781114Y-95295257D01*
X140852542Y-95438114D01*
X140852542Y-95795257D01*
X140781114Y-95938114D01*
X140709685Y-96009542D01*
X140566828Y-96080971D01*
X140209685Y-96080971D01*
X140066828Y-96009542D01*
X139995400Y-95938114D01*
X141352542Y-95080971D02*
X141709685Y-96080971D01*
X142066828Y-95080971D01*
X109327914Y-108630980D02*
X108756485Y-108630980D01*
X109042200Y-108630980D02*
X109042200Y-107630980D01*
X108946961Y-107773838D01*
X108851723Y-107869076D01*
X108756485Y-107916695D01*
X124167639Y-86884474D02*
X124167639Y-86313045D01*
X124167639Y-86598760D02*
X125167639Y-86598760D01*
X125024781Y-86503521D01*
X124929543Y-86408283D01*
X124881924Y-86313045D01*
D11*
X119181191Y-99540451D02*
X118324048Y-99540451D01*
X118752620Y-99540451D02*
X118752620Y-98040451D01*
X118609762Y-98254737D01*
X118466905Y-98397594D01*
X118324048Y-98469022D01*
X85852071Y-113518142D02*
X86994928Y-113518142D01*
X86423500Y-114089571D02*
X86423500Y-112946714D01*
X118181191Y-113129522D02*
X119324048Y-113129522D01*
X118752620Y-113700951D02*
X118752620Y-112558094D01*
D12*
X78546356Y-63817611D02*
X78546356Y-113817611D01*
X78546356Y-63817611D02*
G75*
G02X81546356Y-60817611I3000000J0D01*
G01*
X140546356Y-60817611D02*
X81546356Y-60817611D01*
X140546356Y-60817611D02*
G75*
G02X143546356Y-63817611I0J-3000000D01*
G01*
X143546356Y-113817611D02*
X143546356Y-63817611D01*
X81546356Y-116817611D02*
G75*
G02X78546356Y-113817611I0J3000000D01*
G01*
X81546356Y-116817611D02*
X140546356Y-116817611D01*
X143546351Y-113822847D02*
G75*
G02X140546356Y-116817611I-2999995J5236D01*
G01*
D13*
X101432513Y-70560660D02*
X101775047Y-70560660D01*
X101432513Y-69540660D02*
X101775047Y-69540660D01*
X99988700Y-70964920D02*
X99988700Y-73424920D01*
X101458700Y-70964920D02*
X99988700Y-70964920D01*
X101458700Y-73424920D02*
X101458700Y-70964920D01*
X101769240Y-71743640D02*
X101769240Y-74203640D01*
X101769240Y-74203640D02*
X103239240Y-74203640D01*
X103239240Y-74203640D02*
X103239240Y-71743640D01*
X98854380Y-72030100D02*
X98854380Y-70880100D01*
X98854380Y-70880100D02*
X97804380Y-70880100D01*
X97804380Y-70880100D02*
X97804380Y-69890100D01*
X92634380Y-72030100D02*
X92634380Y-70880100D01*
X92634380Y-70880100D02*
X93684380Y-70880100D01*
X97684380Y-74000100D02*
X93804380Y-74000100D01*
D14*
X109716200Y-108962600D02*
X109716200Y-108737600D01*
X105066200Y-108962600D02*
X105066200Y-108637600D01*
X105066200Y-99012600D02*
X105066200Y-99337600D01*
X109716200Y-99012600D02*
X109716200Y-99337600D01*
X109716200Y-108962600D02*
X105066200Y-108962600D01*
X109716200Y-99012600D02*
X105066200Y-99012600D01*
X109716200Y-108737600D02*
X110791200Y-108737600D01*
D13*
X92579500Y-114423500D02*
X92579500Y-111763500D01*
X89979500Y-114423500D02*
X92579500Y-114423500D01*
X89979500Y-111763500D02*
X92579500Y-111763500D01*
X89979500Y-114423500D02*
X89979500Y-111763500D01*
X88709500Y-114423500D02*
X87379500Y-114423500D01*
X87379500Y-114423500D02*
X87379500Y-113093500D01*
X125256220Y-83659760D02*
X125256220Y-85274760D01*
X125256220Y-85274760D02*
X125976220Y-85274760D01*
X125976220Y-85274760D02*
X125976220Y-92494760D01*
X125976220Y-92494760D02*
X125256220Y-92494760D01*
X113976220Y-85274760D02*
X113256220Y-85274760D01*
X113256220Y-85274760D02*
X113256220Y-92494760D01*
X113256220Y-92494760D02*
X113976220Y-92494760D01*
X97455744Y-111158700D02*
X96251616Y-111158700D01*
X97455744Y-109338700D02*
X96251616Y-109338700D01*
X142300000Y-68266000D02*
X139640000Y-68266000D01*
X142300000Y-91186000D02*
X142300000Y-68266000D01*
X139640000Y-91186000D02*
X139640000Y-68266000D01*
X142300000Y-91186000D02*
X139640000Y-91186000D01*
X142300000Y-92456000D02*
X142300000Y-93786000D01*
X142300000Y-93786000D02*
X140970000Y-93786000D01*
X125162620Y-114352380D02*
X125162620Y-111692380D01*
X122562620Y-114352380D02*
X125162620Y-114352380D01*
X122562620Y-111692380D02*
X125162620Y-111692380D01*
X122562620Y-114352380D02*
X122562620Y-111692380D01*
X121292620Y-114352380D02*
X119962620Y-114352380D01*
X119962620Y-114352380D02*
X119962620Y-113022380D01*
X119899120Y-110415380D02*
X125099120Y-110415380D01*
X119899120Y-100195380D02*
X119899120Y-110415380D01*
X125099120Y-97595380D02*
X125099120Y-110415380D01*
X119899120Y-100195380D02*
X122499120Y-100195380D01*
X122499120Y-100195380D02*
X122499120Y-97595380D01*
X122499120Y-97595380D02*
X125099120Y-97595380D01*
X119899120Y-98925380D02*
X119899120Y-97595380D01*
X119899120Y-97595380D02*
X121229120Y-97595380D01*
X101478293Y-75334400D02*
X101820827Y-75334400D01*
X101478293Y-76354400D02*
X101820827Y-76354400D01*
X105396540Y-80936980D02*
X105396540Y-76636980D01*
X105396540Y-76636980D02*
X103396540Y-76636980D01*
X103396540Y-76636980D02*
X103396540Y-80936980D01*
X103373680Y-69507200D02*
X103373680Y-73807200D01*
X105373680Y-69507200D02*
X103373680Y-69507200D01*
X105373680Y-73807200D02*
X105373680Y-69507200D01*
X114365280Y-111872740D02*
X114365280Y-114672740D01*
X114365280Y-114672740D02*
X112365280Y-114672740D01*
X112365280Y-114672740D02*
X112365280Y-111872740D01*
X112365280Y-111872740D02*
X114365280Y-111872740D01*
X109799880Y-111872740D02*
X111799880Y-111872740D01*
X109799880Y-114672740D02*
X109799880Y-111872740D01*
X111799880Y-114672740D02*
X109799880Y-114672740D01*
X111799880Y-111872740D02*
X111799880Y-114672740D01*
X109209080Y-111872740D02*
X109209080Y-114672740D01*
X109209080Y-114672740D02*
X107209080Y-114672740D01*
X107209080Y-114672740D02*
X107209080Y-111872740D01*
X107209080Y-111872740D02*
X109209080Y-111872740D01*
X104618280Y-111872740D02*
X106618280Y-111872740D01*
X104618280Y-114672740D02*
X104618280Y-111872740D01*
X106618280Y-114672740D02*
X104618280Y-114672740D01*
X106618280Y-111872740D02*
X106618280Y-114672740D01*
X114322400Y-105580540D02*
X115322400Y-105580540D01*
X114322400Y-108940540D02*
X115322400Y-108940540D01*
X107844640Y-97030480D02*
X106844640Y-97030480D01*
X107844640Y-93670480D02*
X106844640Y-93670480D01*
X98301000Y-102969000D02*
X97301000Y-102969000D01*
X98301000Y-99609000D02*
X97301000Y-99609000D01*
X98353500Y-95538500D02*
X97353500Y-95538500D01*
X98353500Y-98898500D02*
X97353500Y-98898500D01*
X136419640Y-91135140D02*
X135419640Y-91135140D01*
X136419640Y-87775140D02*
X135419640Y-87775140D01*
X136419640Y-74551900D02*
X135419640Y-74551900D01*
X136419640Y-77911900D02*
X135419640Y-77911900D01*
X109639253Y-67770280D02*
X109981787Y-67770280D01*
X109639253Y-68790280D02*
X109981787Y-68790280D01*
X104027480Y-111872740D02*
X104027480Y-114672740D01*
X104027480Y-114672740D02*
X102027480Y-114672740D01*
X102027480Y-114672740D02*
X102027480Y-111872740D01*
X102027480Y-111872740D02*
X104027480Y-111872740D01*
X99436680Y-111872740D02*
X101436680Y-111872740D01*
X99436680Y-114672740D02*
X99436680Y-111872740D01*
X101436680Y-114672740D02*
X99436680Y-114672740D01*
X101436680Y-111872740D02*
X101436680Y-114672740D01*
X98301000Y-108620200D02*
X97301000Y-108620200D01*
X98301000Y-105260200D02*
X97301000Y-105260200D01*
X97683533Y-103630000D02*
X98026067Y-103630000D01*
X97683533Y-104650000D02*
X98026067Y-104650000D01*
X101789560Y-77542520D02*
X101789560Y-80002520D01*
X101789560Y-80002520D02*
X103259560Y-80002520D01*
X103259560Y-80002520D02*
X103259560Y-77542520D01*
X100227060Y-85840900D02*
X97767060Y-85840900D01*
X97767060Y-85840900D02*
X97767060Y-87310900D01*
X97767060Y-87310900D02*
X100227060Y-87310900D01*
X89495560Y-85802800D02*
X87035560Y-85802800D01*
X87035560Y-85802800D02*
X87035560Y-87272800D01*
X87035560Y-87272800D02*
X89495560Y-87272800D01*
X87350460Y-97768080D02*
X89810460Y-97768080D01*
X87350460Y-96298080D02*
X87350460Y-97768080D01*
X89810460Y-96298080D02*
X87350460Y-96298080D01*
X89886720Y-106719700D02*
X87426720Y-106719700D01*
X87426720Y-106719700D02*
X87426720Y-108189700D01*
X87426720Y-108189700D02*
X89886720Y-108189700D01*
X94402800Y-87326140D02*
X96862800Y-87326140D01*
X94402800Y-85856140D02*
X94402800Y-87326140D01*
X96862800Y-85856140D02*
X94402800Y-85856140D01*
X86146540Y-85797720D02*
X83686540Y-85797720D01*
X83686540Y-85797720D02*
X83686540Y-87267720D01*
X83686540Y-87267720D02*
X86146540Y-87267720D01*
X84059300Y-97768080D02*
X86519300Y-97768080D01*
X84059300Y-96298080D02*
X84059300Y-97768080D01*
X86519300Y-96298080D02*
X84059300Y-96298080D01*
X86475440Y-106740020D02*
X84015440Y-106740020D01*
X84015440Y-106740020D02*
X84015440Y-108210020D01*
X84015440Y-108210020D02*
X86475440Y-108210020D01*
X93525240Y-85861220D02*
X91065240Y-85861220D01*
X91065240Y-85861220D02*
X91065240Y-87331220D01*
X91065240Y-87331220D02*
X93525240Y-87331220D01*
X80307040Y-87293120D02*
X82767040Y-87293120D01*
X80307040Y-85823120D02*
X80307040Y-87293120D01*
X82767040Y-85823120D02*
X80307040Y-85823120D01*
X80736360Y-97768080D02*
X83196360Y-97768080D01*
X80736360Y-96298080D02*
X80736360Y-97768080D01*
X83196360Y-96298080D02*
X80736360Y-96298080D01*
X83013480Y-106757800D02*
X80553480Y-106757800D01*
X80553480Y-106757800D02*
X80553480Y-108227800D01*
X80553480Y-108227800D02*
X83013480Y-108227800D01*
X124794339Y-79225060D02*
X124794339Y-81685060D01*
X126264339Y-79225060D02*
X124794339Y-79225060D01*
X126264339Y-81685060D02*
X126264339Y-79225060D01*
X123298642Y-79225060D02*
X123298642Y-81685060D01*
X124768642Y-79225060D02*
X123298642Y-79225060D01*
X124768642Y-81685060D02*
X124768642Y-79225060D01*
X121802945Y-79225060D02*
X121802945Y-81685060D01*
X123272945Y-79225060D02*
X121802945Y-79225060D01*
X123272945Y-81685060D02*
X123272945Y-79225060D01*
X120307248Y-79225060D02*
X120307248Y-81685060D01*
X121777248Y-79225060D02*
X120307248Y-79225060D01*
X121777248Y-81685060D02*
X121777248Y-79225060D01*
X120281551Y-81685060D02*
X120281551Y-79225060D01*
X120281551Y-79225060D02*
X118811551Y-79225060D01*
X118811551Y-79225060D02*
X118811551Y-81685060D01*
X118785854Y-81685060D02*
X118785854Y-79225060D01*
X118785854Y-79225060D02*
X117315854Y-79225060D01*
X117315854Y-79225060D02*
X117315854Y-81685060D01*
X117290157Y-81685060D02*
X117290157Y-79225060D01*
X117290157Y-79225060D02*
X115820157Y-79225060D01*
X115820157Y-79225060D02*
X115820157Y-81685060D01*
X114324460Y-79225060D02*
X114324460Y-81685060D01*
X115794460Y-79225060D02*
X114324460Y-79225060D01*
X115794460Y-81685060D02*
X115794460Y-79225060D01*
X131037000Y-73162300D02*
X131037000Y-70702300D01*
X129567000Y-73162300D02*
X131037000Y-73162300D01*
X129567000Y-70702300D02*
X129567000Y-73162300D01*
X129567000Y-74108431D02*
X129567000Y-76568431D01*
X129567000Y-76568431D02*
X131037000Y-76568431D01*
X131037000Y-76568431D02*
X131037000Y-74108431D01*
X131037000Y-79974562D02*
X131037000Y-77514562D01*
X129567000Y-79974562D02*
X131037000Y-79974562D01*
X129567000Y-77514562D02*
X129567000Y-79974562D01*
X131037000Y-83380693D02*
X131037000Y-80920693D01*
X129567000Y-83380693D02*
X131037000Y-83380693D01*
X129567000Y-80920693D02*
X129567000Y-83380693D01*
X131037000Y-86786824D02*
X131037000Y-84326824D01*
X129567000Y-86786824D02*
X131037000Y-86786824D01*
X129567000Y-84326824D02*
X129567000Y-86786824D01*
X131037000Y-90192955D02*
X131037000Y-87732955D01*
X129567000Y-90192955D02*
X131037000Y-90192955D01*
X129567000Y-87732955D02*
X129567000Y-90192955D01*
X131037000Y-93599086D02*
X131037000Y-91139086D01*
X129567000Y-93599086D02*
X131037000Y-93599086D01*
X129567000Y-91139086D02*
X129567000Y-93599086D01*
X131037000Y-97005220D02*
X131037000Y-94545220D01*
X129567000Y-97005220D02*
X131037000Y-97005220D01*
X129567000Y-94545220D02*
X129567000Y-97005220D01*
X100024260Y-76706620D02*
X100024260Y-79166620D01*
X101494260Y-76706620D02*
X100024260Y-76706620D01*
X101494260Y-79166620D02*
X101494260Y-76706620D01*
X97775920Y-88944120D02*
X100235920Y-88944120D01*
X97775920Y-87474120D02*
X97775920Y-88944120D01*
X100235920Y-87474120D02*
X97775920Y-87474120D01*
X89481560Y-87349660D02*
X87021560Y-87349660D01*
X87021560Y-87349660D02*
X87021560Y-88819660D01*
X87021560Y-88819660D02*
X89481560Y-88819660D01*
X87361920Y-99317480D02*
X89821920Y-99317480D01*
X87361920Y-97847480D02*
X87361920Y-99317480D01*
X89821920Y-97847480D02*
X87361920Y-97847480D01*
X89909580Y-108421500D02*
X87449580Y-108421500D01*
X87449580Y-108421500D02*
X87449580Y-109891500D01*
X87449580Y-109891500D02*
X89909580Y-109891500D01*
X96870420Y-87471580D02*
X94410420Y-87471580D01*
X94410420Y-87471580D02*
X94410420Y-88941580D01*
X94410420Y-88941580D02*
X96870420Y-88941580D01*
X83684000Y-88852680D02*
X86144000Y-88852680D01*
X83684000Y-87382680D02*
X83684000Y-88852680D01*
X86144000Y-87382680D02*
X83684000Y-87382680D01*
X86508460Y-97844940D02*
X84048460Y-97844940D01*
X84048460Y-97844940D02*
X84048460Y-99314940D01*
X84048460Y-99314940D02*
X86508460Y-99314940D01*
X84034520Y-109858480D02*
X86494520Y-109858480D01*
X84034520Y-108388480D02*
X84034520Y-109858480D01*
X86494520Y-108388480D02*
X84034520Y-108388480D01*
X91053840Y-88933960D02*
X93513840Y-88933960D01*
X91053840Y-87463960D02*
X91053840Y-88933960D01*
X93513840Y-87463960D02*
X91053840Y-87463960D01*
X82774720Y-87369980D02*
X80314720Y-87369980D01*
X80314720Y-87369980D02*
X80314720Y-88839980D01*
X80314720Y-88839980D02*
X82774720Y-88839980D01*
X80724900Y-99309860D02*
X83184900Y-99309860D01*
X80724900Y-97839860D02*
X80724900Y-99309860D01*
X83184900Y-97839860D02*
X80724900Y-97839860D01*
X83035040Y-108396100D02*
X80575040Y-108396100D01*
X80575040Y-108396100D02*
X80575040Y-109866100D01*
X80575040Y-109866100D02*
X83035040Y-109866100D01*
X126264339Y-79197340D02*
X126264339Y-76737340D01*
X124794339Y-79197340D02*
X126264339Y-79197340D01*
X124794339Y-76737340D02*
X124794339Y-79197340D01*
X123298642Y-76737340D02*
X123298642Y-79197340D01*
X123298642Y-79197340D02*
X124768642Y-79197340D01*
X124768642Y-79197340D02*
X124768642Y-76737340D01*
X121802945Y-76737340D02*
X121802945Y-79197340D01*
X121802945Y-79197340D02*
X123272945Y-79197340D01*
X123272945Y-79197340D02*
X123272945Y-76737340D01*
X120307248Y-76737340D02*
X120307248Y-79197340D01*
X120307248Y-79197340D02*
X121777248Y-79197340D01*
X121777248Y-79197340D02*
X121777248Y-76737340D01*
X120281551Y-79197340D02*
X120281551Y-76737340D01*
X118811551Y-79197340D02*
X120281551Y-79197340D01*
X118811551Y-76737340D02*
X118811551Y-79197340D01*
X118785854Y-79197340D02*
X118785854Y-76737340D01*
X117315854Y-79197340D02*
X118785854Y-79197340D01*
X117315854Y-76737340D02*
X117315854Y-79197340D01*
X117290157Y-79197340D02*
X117290157Y-76737340D01*
X115820157Y-79197340D02*
X117290157Y-79197340D01*
X115820157Y-76737340D02*
X115820157Y-79197340D01*
X115794460Y-79197340D02*
X115794460Y-76737340D01*
X114324460Y-79197340D02*
X115794460Y-79197340D01*
X114324460Y-76737340D02*
X114324460Y-79197340D01*
X127908380Y-70702300D02*
X127908380Y-73162300D01*
X127908380Y-73162300D02*
X129378380Y-73162300D01*
X129378380Y-73162300D02*
X129378380Y-70702300D01*
X127908380Y-74108431D02*
X127908380Y-76568431D01*
X127908380Y-76568431D02*
X129378380Y-76568431D01*
X129378380Y-76568431D02*
X129378380Y-74108431D01*
X127908380Y-77514562D02*
X127908380Y-79974562D01*
X127908380Y-79974562D02*
X129378380Y-79974562D01*
X129378380Y-79974562D02*
X129378380Y-77514562D01*
X127908380Y-80920693D02*
X127908380Y-83380693D01*
X127908380Y-83380693D02*
X129378380Y-83380693D01*
X129378380Y-83380693D02*
X129378380Y-80920693D01*
X127908380Y-84326824D02*
X127908380Y-86786824D01*
X127908380Y-86786824D02*
X129378380Y-86786824D01*
X129378380Y-86786824D02*
X129378380Y-84326824D01*
X127908380Y-87732955D02*
X127908380Y-90192955D01*
X127908380Y-90192955D02*
X129378380Y-90192955D01*
X129378380Y-90192955D02*
X129378380Y-87732955D01*
X127908380Y-91139086D02*
X127908380Y-93599086D01*
X127908380Y-93599086D02*
X129378380Y-93599086D01*
X129378380Y-93599086D02*
X129378380Y-91139086D01*
X127908380Y-94545220D02*
X127908380Y-97005220D01*
X127908380Y-97005220D02*
X129378380Y-97005220D01*
X129378380Y-97005220D02*
X129378380Y-94545220D01*
X111989260Y-71710300D02*
X111989260Y-70560300D01*
X111989260Y-70560300D02*
X110939260Y-70560300D01*
X110939260Y-70560300D02*
X110939260Y-69570300D01*
X106769260Y-71710300D02*
X106769260Y-70560300D01*
X106769260Y-70560300D02*
X107819260Y-70560300D01*
X110819260Y-73680300D02*
X107939260Y-73680300D01*
X110819260Y-79692240D02*
X107939260Y-79692240D01*
X106769260Y-76572240D02*
X107819260Y-76572240D01*
X106769260Y-77722240D02*
X106769260Y-76572240D01*
X110939260Y-76572240D02*
X110939260Y-75582240D01*
X111989260Y-76572240D02*
X110939260Y-76572240D01*
X111989260Y-77722240D02*
X111989260Y-76572240D01*
X111989260Y-83168000D02*
X111989260Y-82018000D01*
X111989260Y-82018000D02*
X110939260Y-82018000D01*
X110939260Y-82018000D02*
X110939260Y-81028000D01*
X106769260Y-83168000D02*
X106769260Y-82018000D01*
X106769260Y-82018000D02*
X107819260Y-82018000D01*
X110819260Y-85138000D02*
X107939260Y-85138000D01*
X86785240Y-74000100D02*
X82905240Y-74000100D01*
X81735240Y-70880100D02*
X82785240Y-70880100D01*
X81735240Y-72030100D02*
X81735240Y-70880100D01*
X86905240Y-70880100D02*
X86905240Y-69890100D01*
X87955240Y-70880100D02*
X86905240Y-70880100D01*
X87955240Y-72030100D02*
X87955240Y-70880100D01*
X87963780Y-77606520D02*
X87963780Y-76456520D01*
X87963780Y-76456520D02*
X86913780Y-76456520D01*
X86913780Y-76456520D02*
X86913780Y-75466520D01*
X81743780Y-77606520D02*
X81743780Y-76456520D01*
X81743780Y-76456520D02*
X82793780Y-76456520D01*
X86793780Y-79576520D02*
X82913780Y-79576520D01*
X98828980Y-83168000D02*
X98828980Y-82018000D01*
X98828980Y-82018000D02*
X97778980Y-82018000D01*
X97778980Y-82018000D02*
X97778980Y-81028000D01*
X92608980Y-83168000D02*
X92608980Y-82018000D01*
X92608980Y-82018000D02*
X93658980Y-82018000D01*
X97658980Y-85138000D02*
X93778980Y-85138000D01*
X88155900Y-103902020D02*
X88155900Y-102752020D01*
X88155900Y-102752020D02*
X87105900Y-102752020D01*
X87105900Y-102752020D02*
X87105900Y-101762020D01*
X81935900Y-103902020D02*
X81935900Y-102752020D01*
X81935900Y-102752020D02*
X82985900Y-102752020D01*
X86985900Y-105872020D02*
X83105900Y-105872020D01*
X86895380Y-95464220D02*
X83015380Y-95464220D01*
X81845380Y-92344220D02*
X82895380Y-92344220D01*
X81845380Y-93494220D02*
X81845380Y-92344220D01*
X87015380Y-92344220D02*
X87015380Y-91354220D01*
X88065380Y-92344220D02*
X87015380Y-92344220D01*
X88065380Y-93494220D02*
X88065380Y-92344220D01*
X98856920Y-77606520D02*
X98856920Y-76456520D01*
X98856920Y-76456520D02*
X97806920Y-76456520D01*
X97806920Y-76456520D02*
X97806920Y-75466520D01*
X92636920Y-77606520D02*
X92636920Y-76456520D01*
X92636920Y-76456520D02*
X93686920Y-76456520D01*
X97686920Y-79576520D02*
X93806920Y-79576520D01*
X86828420Y-85102440D02*
X82948420Y-85102440D01*
X81778420Y-81982440D02*
X82828420Y-81982440D01*
X81778420Y-83132440D02*
X81778420Y-81982440D01*
X86948420Y-81982440D02*
X86948420Y-80992440D01*
X87998420Y-81982440D02*
X86948420Y-81982440D01*
X87998420Y-83132440D02*
X87998420Y-81982440D01*
D15*
G36*
X135137930Y-102489788D02*
X135216474Y-102490218D01*
X135273318Y-102491382D01*
X135312125Y-102493647D01*
X135336558Y-102497380D01*
X135350282Y-102502946D01*
X135356960Y-102510713D01*
X135360256Y-102521045D01*
X135360576Y-102522383D01*
X135365582Y-102546519D01*
X135374849Y-102594141D01*
X135387412Y-102660181D01*
X135402307Y-102739568D01*
X135418571Y-102827236D01*
X135419139Y-102830315D01*
X135435430Y-102916229D01*
X135450672Y-102992136D01*
X135463881Y-103053485D01*
X135474074Y-103095722D01*
X135480268Y-103114295D01*
X135480563Y-103114624D01*
X135498808Y-103123693D01*
X135536425Y-103138807D01*
X135585291Y-103156702D01*
X135585563Y-103156798D01*
X135647113Y-103179933D01*
X135719677Y-103209405D01*
X135788077Y-103239037D01*
X135791314Y-103240502D01*
X135902722Y-103291066D01*
X136149419Y-103122600D01*
X136225097Y-103071243D01*
X136293651Y-103025329D01*
X136351108Y-102987470D01*
X136393496Y-102960277D01*
X136416845Y-102946361D01*
X136419062Y-102945329D01*
X136436030Y-102949924D01*
X136467721Y-102972095D01*
X136515372Y-103012887D01*
X136580218Y-103073345D01*
X136646417Y-103137667D01*
X136710234Y-103201052D01*
X136767349Y-103258891D01*
X136814325Y-103307615D01*
X136847723Y-103343650D01*
X136864105Y-103363424D01*
X136864714Y-103364442D01*
X136866525Y-103378012D01*
X136859703Y-103400173D01*
X136842560Y-103433918D01*
X136813413Y-103482240D01*
X136770575Y-103548132D01*
X136713468Y-103632957D01*
X136662786Y-103707617D01*
X136617481Y-103774580D01*
X136580170Y-103829956D01*
X136553472Y-103869860D01*
X136540005Y-103890402D01*
X136539157Y-103891796D01*
X136540801Y-103911478D01*
X136553265Y-103949733D01*
X136574068Y-103999329D01*
X136581482Y-104015168D01*
X136613834Y-104085730D01*
X136648348Y-104165793D01*
X136676385Y-104235069D01*
X136696588Y-104286485D01*
X136712635Y-104325559D01*
X136721908Y-104345981D01*
X136723061Y-104347554D01*
X136740116Y-104350161D01*
X136780318Y-104357303D01*
X136838322Y-104367963D01*
X136908783Y-104381125D01*
X136986355Y-104395773D01*
X137065692Y-104410889D01*
X137141451Y-104425458D01*
X137208284Y-104438462D01*
X137260848Y-104448885D01*
X137293796Y-104455710D01*
X137301877Y-104457639D01*
X137310225Y-104462402D01*
X137316526Y-104473158D01*
X137321065Y-104493538D01*
X137324124Y-104527174D01*
X137325987Y-104577695D01*
X137326938Y-104648732D01*
X137327260Y-104743916D01*
X137327277Y-104782932D01*
X137327277Y-105100239D01*
X137251077Y-105115279D01*
X137208683Y-105123435D01*
X137145420Y-105135339D01*
X137068982Y-105149556D01*
X136987063Y-105164650D01*
X136964420Y-105168795D01*
X136888826Y-105183493D01*
X136822973Y-105197945D01*
X136772386Y-105210815D01*
X136742594Y-105220762D01*
X136737632Y-105223727D01*
X136725446Y-105244723D01*
X136707973Y-105285407D01*
X136688597Y-105337762D01*
X136684754Y-105349040D01*
X136659359Y-105418963D01*
X136627837Y-105497858D01*
X136596989Y-105568706D01*
X136596837Y-105569035D01*
X136545467Y-105680173D01*
X136714419Y-105928693D01*
X136883372Y-106177212D01*
X136666449Y-106394498D01*
X136600839Y-106459166D01*
X136540999Y-106516173D01*
X136490287Y-106562473D01*
X136452066Y-106595024D01*
X136429695Y-106610783D01*
X136426486Y-106611783D01*
X136407646Y-106603909D01*
X136369200Y-106582018D01*
X136315350Y-106548707D01*
X136250296Y-106506571D01*
X136179960Y-106459383D01*
X136108575Y-106411250D01*
X136044928Y-106369368D01*
X135993061Y-106336311D01*
X135957015Y-106314658D01*
X135940887Y-106306983D01*
X135921209Y-106313477D01*
X135883895Y-106330590D01*
X135836641Y-106354766D01*
X135831632Y-106357453D01*
X135767997Y-106389367D01*
X135724361Y-106405019D01*
X135697222Y-106405185D01*
X135683077Y-106390644D01*
X135682995Y-106390440D01*
X135675925Y-106373219D01*
X135659062Y-106332339D01*
X135633715Y-106270965D01*
X135601191Y-106192259D01*
X135562798Y-106099387D01*
X135519842Y-105995512D01*
X135478242Y-105894942D01*
X135432524Y-105783956D01*
X135390546Y-105681143D01*
X135353568Y-105589655D01*
X135322847Y-105512641D01*
X135299642Y-105453255D01*
X135285210Y-105414649D01*
X135280763Y-105400240D01*
X135291916Y-105383712D01*
X135321089Y-105357370D01*
X135359991Y-105328327D01*
X135470777Y-105236479D01*
X135557371Y-105131199D01*
X135618736Y-105014706D01*
X135653835Y-104889216D01*
X135661628Y-104756947D01*
X135655963Y-104695897D01*
X135625098Y-104569235D01*
X135571940Y-104457381D01*
X135499787Y-104361441D01*
X135411937Y-104282516D01*
X135311685Y-104221710D01*
X135202330Y-104180127D01*
X135087167Y-104158868D01*
X134969495Y-104159039D01*
X134852610Y-104181741D01*
X134739809Y-104228078D01*
X134634389Y-104299153D01*
X134590388Y-104339351D01*
X134505999Y-104442569D01*
X134447242Y-104555365D01*
X134413724Y-104674450D01*
X134405055Y-104796535D01*
X134420843Y-104918333D01*
X134460698Y-105036556D01*
X134524227Y-105147915D01*
X134611041Y-105249124D01*
X134708049Y-105328327D01*
X134748457Y-105358602D01*
X134777002Y-105384659D01*
X134787277Y-105400265D01*
X134781897Y-105417283D01*
X134766595Y-105457940D01*
X134742632Y-105519082D01*
X134711264Y-105597559D01*
X134673752Y-105690220D01*
X134631353Y-105793912D01*
X134589683Y-105894966D01*
X134543710Y-106006047D01*
X134501127Y-106108981D01*
X134463241Y-106200605D01*
X134431360Y-106277756D01*
X134406791Y-106337271D01*
X134390840Y-106375984D01*
X134384930Y-106390440D01*
X134370968Y-106405125D01*
X134343960Y-106405082D01*
X134300433Y-106389539D01*
X134236910Y-106357724D01*
X134236408Y-106357453D01*
X134188580Y-106332763D01*
X134149917Y-106314778D01*
X134128115Y-106307054D01*
X134127153Y-106306983D01*
X134110741Y-106314818D01*
X134074507Y-106336605D01*
X134022494Y-106369768D01*
X133958745Y-106411731D01*
X133888080Y-106459383D01*
X133816136Y-106507631D01*
X133751294Y-106549591D01*
X133697755Y-106582667D01*
X133659717Y-106604261D01*
X133641553Y-106611783D01*
X133624828Y-106601897D01*
X133591200Y-106574266D01*
X133544030Y-106531935D01*
X133486678Y-106477945D01*
X133422504Y-106415339D01*
X133401517Y-106394423D01*
X133184519Y-106177063D01*
X133349688Y-105934660D01*
X133399884Y-105860221D01*
X133443939Y-105793412D01*
X133479382Y-105738105D01*
X133503739Y-105698169D01*
X133514542Y-105677476D01*
X133514858Y-105676003D01*
X133509163Y-105656498D01*
X133493846Y-105617262D01*
X133471557Y-105564870D01*
X133455913Y-105529795D01*
X133426661Y-105462641D01*
X133399114Y-105394798D01*
X133377757Y-105337474D01*
X133371955Y-105320012D01*
X133355472Y-105273378D01*
X133339360Y-105237345D01*
X133330510Y-105223727D01*
X133310980Y-105215392D01*
X133268354Y-105203577D01*
X133208165Y-105189621D01*
X133135942Y-105174862D01*
X133103620Y-105168795D01*
X133021542Y-105153713D01*
X132942815Y-105139109D01*
X132875129Y-105126420D01*
X132826180Y-105117082D01*
X132816963Y-105115279D01*
X132740763Y-105100239D01*
X132740763Y-104782932D01*
X132740934Y-104678594D01*
X132741636Y-104599653D01*
X132743154Y-104542478D01*
X132745769Y-104503439D01*
X132749766Y-104478905D01*
X132755429Y-104465245D01*
X132763040Y-104458829D01*
X132766163Y-104457639D01*
X132784998Y-104453420D01*
X132826608Y-104445002D01*
X132885650Y-104433401D01*
X132956777Y-104419635D01*
X133034645Y-104404720D01*
X133113907Y-104389672D01*
X133189218Y-104375509D01*
X133255233Y-104363246D01*
X133306607Y-104353901D01*
X133337995Y-104348490D01*
X133344979Y-104347554D01*
X133351305Y-104335036D01*
X133365310Y-104301686D01*
X133384375Y-104253817D01*
X133391654Y-104235069D01*
X133421016Y-104162635D01*
X133455591Y-104082610D01*
X133486557Y-104015168D01*
X133509343Y-103963599D01*
X133524502Y-103921225D01*
X133529562Y-103895274D01*
X133528756Y-103891796D01*
X133518061Y-103875376D01*
X133493640Y-103838857D01*
X133458115Y-103786127D01*
X133414107Y-103721075D01*
X133364237Y-103647591D01*
X133354376Y-103633085D01*
X133296512Y-103547144D01*
X133253976Y-103481701D01*
X133225074Y-103433744D01*
X133208110Y-103400260D01*
X133201387Y-103378235D01*
X133203210Y-103364657D01*
X133203256Y-103364571D01*
X133217606Y-103346737D01*
X133249343Y-103312257D01*
X133295030Y-103264708D01*
X133351224Y-103207662D01*
X133414488Y-103144695D01*
X133421622Y-103137667D01*
X133501350Y-103060460D01*
X133562877Y-103003770D01*
X133607441Y-102966550D01*
X133636277Y-102947755D01*
X133648978Y-102945329D01*
X133667514Y-102955911D01*
X133705981Y-102980356D01*
X133760406Y-103016052D01*
X133826818Y-103060387D01*
X133901245Y-103110751D01*
X133918621Y-103122600D01*
X134165317Y-103291066D01*
X134276726Y-103240502D01*
X134344477Y-103211035D01*
X134417203Y-103181399D01*
X134479723Y-103157770D01*
X134482477Y-103156798D01*
X134531380Y-103138897D01*
X134569077Y-103123760D01*
X134587445Y-103114650D01*
X134587476Y-103114624D01*
X134593305Y-103098157D01*
X134603212Y-103057659D01*
X134616215Y-102997682D01*
X134631329Y-102922780D01*
X134647572Y-102837504D01*
X134648901Y-102830315D01*
X134665195Y-102742454D01*
X134680153Y-102662700D01*
X134692811Y-102596121D01*
X134702206Y-102547787D01*
X134707374Y-102522765D01*
X134707464Y-102522383D01*
X134710609Y-102511739D01*
X134716724Y-102503702D01*
X134729473Y-102497907D01*
X134752520Y-102493987D01*
X134789529Y-102491575D01*
X134844164Y-102490305D01*
X134920087Y-102489811D01*
X135020964Y-102489726D01*
X135034020Y-102489726D01*
X135137930Y-102489788D01*
X135137930Y-102489788D01*
G37*
X135137930Y-102489788D02*
X135216474Y-102490218D01*
X135273318Y-102491382D01*
X135312125Y-102493647D01*
X135336558Y-102497380D01*
X135350282Y-102502946D01*
X135356960Y-102510713D01*
X135360256Y-102521045D01*
X135360576Y-102522383D01*
X135365582Y-102546519D01*
X135374849Y-102594141D01*
X135387412Y-102660181D01*
X135402307Y-102739568D01*
X135418571Y-102827236D01*
X135419139Y-102830315D01*
X135435430Y-102916229D01*
X135450672Y-102992136D01*
X135463881Y-103053485D01*
X135474074Y-103095722D01*
X135480268Y-103114295D01*
X135480563Y-103114624D01*
X135498808Y-103123693D01*
X135536425Y-103138807D01*
X135585291Y-103156702D01*
X135585563Y-103156798D01*
X135647113Y-103179933D01*
X135719677Y-103209405D01*
X135788077Y-103239037D01*
X135791314Y-103240502D01*
X135902722Y-103291066D01*
X136149419Y-103122600D01*
X136225097Y-103071243D01*
X136293651Y-103025329D01*
X136351108Y-102987470D01*
X136393496Y-102960277D01*
X136416845Y-102946361D01*
X136419062Y-102945329D01*
X136436030Y-102949924D01*
X136467721Y-102972095D01*
X136515372Y-103012887D01*
X136580218Y-103073345D01*
X136646417Y-103137667D01*
X136710234Y-103201052D01*
X136767349Y-103258891D01*
X136814325Y-103307615D01*
X136847723Y-103343650D01*
X136864105Y-103363424D01*
X136864714Y-103364442D01*
X136866525Y-103378012D01*
X136859703Y-103400173D01*
X136842560Y-103433918D01*
X136813413Y-103482240D01*
X136770575Y-103548132D01*
X136713468Y-103632957D01*
X136662786Y-103707617D01*
X136617481Y-103774580D01*
X136580170Y-103829956D01*
X136553472Y-103869860D01*
X136540005Y-103890402D01*
X136539157Y-103891796D01*
X136540801Y-103911478D01*
X136553265Y-103949733D01*
X136574068Y-103999329D01*
X136581482Y-104015168D01*
X136613834Y-104085730D01*
X136648348Y-104165793D01*
X136676385Y-104235069D01*
X136696588Y-104286485D01*
X136712635Y-104325559D01*
X136721908Y-104345981D01*
X136723061Y-104347554D01*
X136740116Y-104350161D01*
X136780318Y-104357303D01*
X136838322Y-104367963D01*
X136908783Y-104381125D01*
X136986355Y-104395773D01*
X137065692Y-104410889D01*
X137141451Y-104425458D01*
X137208284Y-104438462D01*
X137260848Y-104448885D01*
X137293796Y-104455710D01*
X137301877Y-104457639D01*
X137310225Y-104462402D01*
X137316526Y-104473158D01*
X137321065Y-104493538D01*
X137324124Y-104527174D01*
X137325987Y-104577695D01*
X137326938Y-104648732D01*
X137327260Y-104743916D01*
X137327277Y-104782932D01*
X137327277Y-105100239D01*
X137251077Y-105115279D01*
X137208683Y-105123435D01*
X137145420Y-105135339D01*
X137068982Y-105149556D01*
X136987063Y-105164650D01*
X136964420Y-105168795D01*
X136888826Y-105183493D01*
X136822973Y-105197945D01*
X136772386Y-105210815D01*
X136742594Y-105220762D01*
X136737632Y-105223727D01*
X136725446Y-105244723D01*
X136707973Y-105285407D01*
X136688597Y-105337762D01*
X136684754Y-105349040D01*
X136659359Y-105418963D01*
X136627837Y-105497858D01*
X136596989Y-105568706D01*
X136596837Y-105569035D01*
X136545467Y-105680173D01*
X136714419Y-105928693D01*
X136883372Y-106177212D01*
X136666449Y-106394498D01*
X136600839Y-106459166D01*
X136540999Y-106516173D01*
X136490287Y-106562473D01*
X136452066Y-106595024D01*
X136429695Y-106610783D01*
X136426486Y-106611783D01*
X136407646Y-106603909D01*
X136369200Y-106582018D01*
X136315350Y-106548707D01*
X136250296Y-106506571D01*
X136179960Y-106459383D01*
X136108575Y-106411250D01*
X136044928Y-106369368D01*
X135993061Y-106336311D01*
X135957015Y-106314658D01*
X135940887Y-106306983D01*
X135921209Y-106313477D01*
X135883895Y-106330590D01*
X135836641Y-106354766D01*
X135831632Y-106357453D01*
X135767997Y-106389367D01*
X135724361Y-106405019D01*
X135697222Y-106405185D01*
X135683077Y-106390644D01*
X135682995Y-106390440D01*
X135675925Y-106373219D01*
X135659062Y-106332339D01*
X135633715Y-106270965D01*
X135601191Y-106192259D01*
X135562798Y-106099387D01*
X135519842Y-105995512D01*
X135478242Y-105894942D01*
X135432524Y-105783956D01*
X135390546Y-105681143D01*
X135353568Y-105589655D01*
X135322847Y-105512641D01*
X135299642Y-105453255D01*
X135285210Y-105414649D01*
X135280763Y-105400240D01*
X135291916Y-105383712D01*
X135321089Y-105357370D01*
X135359991Y-105328327D01*
X135470777Y-105236479D01*
X135557371Y-105131199D01*
X135618736Y-105014706D01*
X135653835Y-104889216D01*
X135661628Y-104756947D01*
X135655963Y-104695897D01*
X135625098Y-104569235D01*
X135571940Y-104457381D01*
X135499787Y-104361441D01*
X135411937Y-104282516D01*
X135311685Y-104221710D01*
X135202330Y-104180127D01*
X135087167Y-104158868D01*
X134969495Y-104159039D01*
X134852610Y-104181741D01*
X134739809Y-104228078D01*
X134634389Y-104299153D01*
X134590388Y-104339351D01*
X134505999Y-104442569D01*
X134447242Y-104555365D01*
X134413724Y-104674450D01*
X134405055Y-104796535D01*
X134420843Y-104918333D01*
X134460698Y-105036556D01*
X134524227Y-105147915D01*
X134611041Y-105249124D01*
X134708049Y-105328327D01*
X134748457Y-105358602D01*
X134777002Y-105384659D01*
X134787277Y-105400265D01*
X134781897Y-105417283D01*
X134766595Y-105457940D01*
X134742632Y-105519082D01*
X134711264Y-105597559D01*
X134673752Y-105690220D01*
X134631353Y-105793912D01*
X134589683Y-105894966D01*
X134543710Y-106006047D01*
X134501127Y-106108981D01*
X134463241Y-106200605D01*
X134431360Y-106277756D01*
X134406791Y-106337271D01*
X134390840Y-106375984D01*
X134384930Y-106390440D01*
X134370968Y-106405125D01*
X134343960Y-106405082D01*
X134300433Y-106389539D01*
X134236910Y-106357724D01*
X134236408Y-106357453D01*
X134188580Y-106332763D01*
X134149917Y-106314778D01*
X134128115Y-106307054D01*
X134127153Y-106306983D01*
X134110741Y-106314818D01*
X134074507Y-106336605D01*
X134022494Y-106369768D01*
X133958745Y-106411731D01*
X133888080Y-106459383D01*
X133816136Y-106507631D01*
X133751294Y-106549591D01*
X133697755Y-106582667D01*
X133659717Y-106604261D01*
X133641553Y-106611783D01*
X133624828Y-106601897D01*
X133591200Y-106574266D01*
X133544030Y-106531935D01*
X133486678Y-106477945D01*
X133422504Y-106415339D01*
X133401517Y-106394423D01*
X133184519Y-106177063D01*
X133349688Y-105934660D01*
X133399884Y-105860221D01*
X133443939Y-105793412D01*
X133479382Y-105738105D01*
X133503739Y-105698169D01*
X133514542Y-105677476D01*
X133514858Y-105676003D01*
X133509163Y-105656498D01*
X133493846Y-105617262D01*
X133471557Y-105564870D01*
X133455913Y-105529795D01*
X133426661Y-105462641D01*
X133399114Y-105394798D01*
X133377757Y-105337474D01*
X133371955Y-105320012D01*
X133355472Y-105273378D01*
X133339360Y-105237345D01*
X133330510Y-105223727D01*
X133310980Y-105215392D01*
X133268354Y-105203577D01*
X133208165Y-105189621D01*
X133135942Y-105174862D01*
X133103620Y-105168795D01*
X133021542Y-105153713D01*
X132942815Y-105139109D01*
X132875129Y-105126420D01*
X132826180Y-105117082D01*
X132816963Y-105115279D01*
X132740763Y-105100239D01*
X132740763Y-104782932D01*
X132740934Y-104678594D01*
X132741636Y-104599653D01*
X132743154Y-104542478D01*
X132745769Y-104503439D01*
X132749766Y-104478905D01*
X132755429Y-104465245D01*
X132763040Y-104458829D01*
X132766163Y-104457639D01*
X132784998Y-104453420D01*
X132826608Y-104445002D01*
X132885650Y-104433401D01*
X132956777Y-104419635D01*
X133034645Y-104404720D01*
X133113907Y-104389672D01*
X133189218Y-104375509D01*
X133255233Y-104363246D01*
X133306607Y-104353901D01*
X133337995Y-104348490D01*
X133344979Y-104347554D01*
X133351305Y-104335036D01*
X133365310Y-104301686D01*
X133384375Y-104253817D01*
X133391654Y-104235069D01*
X133421016Y-104162635D01*
X133455591Y-104082610D01*
X133486557Y-104015168D01*
X133509343Y-103963599D01*
X133524502Y-103921225D01*
X133529562Y-103895274D01*
X133528756Y-103891796D01*
X133518061Y-103875376D01*
X133493640Y-103838857D01*
X133458115Y-103786127D01*
X133414107Y-103721075D01*
X133364237Y-103647591D01*
X133354376Y-103633085D01*
X133296512Y-103547144D01*
X133253976Y-103481701D01*
X133225074Y-103433744D01*
X133208110Y-103400260D01*
X133201387Y-103378235D01*
X133203210Y-103364657D01*
X133203256Y-103364571D01*
X133217606Y-103346737D01*
X133249343Y-103312257D01*
X133295030Y-103264708D01*
X133351224Y-103207662D01*
X133414488Y-103144695D01*
X133421622Y-103137667D01*
X133501350Y-103060460D01*
X133562877Y-103003770D01*
X133607441Y-102966550D01*
X133636277Y-102947755D01*
X133648978Y-102945329D01*
X133667514Y-102955911D01*
X133705981Y-102980356D01*
X133760406Y-103016052D01*
X133826818Y-103060387D01*
X133901245Y-103110751D01*
X133918621Y-103122600D01*
X134165317Y-103291066D01*
X134276726Y-103240502D01*
X134344477Y-103211035D01*
X134417203Y-103181399D01*
X134479723Y-103157770D01*
X134482477Y-103156798D01*
X134531380Y-103138897D01*
X134569077Y-103123760D01*
X134587445Y-103114650D01*
X134587476Y-103114624D01*
X134593305Y-103098157D01*
X134603212Y-103057659D01*
X134616215Y-102997682D01*
X134631329Y-102922780D01*
X134647572Y-102837504D01*
X134648901Y-102830315D01*
X134665195Y-102742454D01*
X134680153Y-102662700D01*
X134692811Y-102596121D01*
X134702206Y-102547787D01*
X134707374Y-102522765D01*
X134707464Y-102522383D01*
X134710609Y-102511739D01*
X134716724Y-102503702D01*
X134729473Y-102497907D01*
X134752520Y-102493987D01*
X134789529Y-102491575D01*
X134844164Y-102490305D01*
X134920087Y-102489811D01*
X135020964Y-102489726D01*
X135034020Y-102489726D01*
X135137930Y-102489788D01*
G36*
X138187615Y-107214406D02*
X138245041Y-107251937D01*
X138272739Y-107285536D01*
X138294682Y-107346504D01*
X138296425Y-107394748D01*
X138292477Y-107459256D01*
X138143706Y-107524374D01*
X138071369Y-107557642D01*
X138024104Y-107584404D01*
X137999527Y-107607584D01*
X137995257Y-107630107D01*
X138008909Y-107654895D01*
X138023963Y-107671326D01*
X138067766Y-107697675D01*
X138115409Y-107699521D01*
X138159165Y-107678986D01*
X138191309Y-107638192D01*
X138197058Y-107623787D01*
X138224596Y-107578796D01*
X138256278Y-107559622D01*
X138299734Y-107543219D01*
X138299734Y-107605406D01*
X138295892Y-107647723D01*
X138280843Y-107683409D01*
X138249300Y-107724383D01*
X138244612Y-107729707D01*
X138209526Y-107766160D01*
X138179367Y-107785723D01*
X138141635Y-107794723D01*
X138110355Y-107797670D01*
X138054405Y-107798405D01*
X138014575Y-107789100D01*
X137989728Y-107775286D01*
X137950676Y-107744907D01*
X137923645Y-107712053D01*
X137906537Y-107670734D01*
X137897258Y-107614961D01*
X137893713Y-107538745D01*
X137893430Y-107500062D01*
X137894392Y-107453687D01*
X137982027Y-107453687D01*
X137983043Y-107478566D01*
X137985576Y-107482640D01*
X138002294Y-107477105D01*
X138038269Y-107462457D01*
X138086351Y-107441630D01*
X138096406Y-107437154D01*
X138157172Y-107406254D01*
X138190652Y-107379097D01*
X138198010Y-107353660D01*
X138180411Y-107327921D01*
X138165876Y-107316549D01*
X138113430Y-107293804D01*
X138064342Y-107297562D01*
X138023247Y-107325324D01*
X137994778Y-107374592D01*
X137985651Y-107413697D01*
X137982027Y-107453687D01*
X137894392Y-107453687D01*
X137895305Y-107409689D01*
X137902216Y-107342824D01*
X137915904Y-107294135D01*
X137938116Y-107258289D01*
X137970594Y-107229953D01*
X137984753Y-107220795D01*
X138049073Y-107196947D01*
X138119493Y-107195446D01*
X138187615Y-107214406D01*
X138187615Y-107214406D01*
G37*
X138187615Y-107214406D02*
X138245041Y-107251937D01*
X138272739Y-107285536D01*
X138294682Y-107346504D01*
X138296425Y-107394748D01*
X138292477Y-107459256D01*
X138143706Y-107524374D01*
X138071369Y-107557642D01*
X138024104Y-107584404D01*
X137999527Y-107607584D01*
X137995257Y-107630107D01*
X138008909Y-107654895D01*
X138023963Y-107671326D01*
X138067766Y-107697675D01*
X138115409Y-107699521D01*
X138159165Y-107678986D01*
X138191309Y-107638192D01*
X138197058Y-107623787D01*
X138224596Y-107578796D01*
X138256278Y-107559622D01*
X138299734Y-107543219D01*
X138299734Y-107605406D01*
X138295892Y-107647723D01*
X138280843Y-107683409D01*
X138249300Y-107724383D01*
X138244612Y-107729707D01*
X138209526Y-107766160D01*
X138179367Y-107785723D01*
X138141635Y-107794723D01*
X138110355Y-107797670D01*
X138054405Y-107798405D01*
X138014575Y-107789100D01*
X137989728Y-107775286D01*
X137950676Y-107744907D01*
X137923645Y-107712053D01*
X137906537Y-107670734D01*
X137897258Y-107614961D01*
X137893713Y-107538745D01*
X137893430Y-107500062D01*
X137894392Y-107453687D01*
X137982027Y-107453687D01*
X137983043Y-107478566D01*
X137985576Y-107482640D01*
X138002294Y-107477105D01*
X138038269Y-107462457D01*
X138086351Y-107441630D01*
X138096406Y-107437154D01*
X138157172Y-107406254D01*
X138190652Y-107379097D01*
X138198010Y-107353660D01*
X138180411Y-107327921D01*
X138165876Y-107316549D01*
X138113430Y-107293804D01*
X138064342Y-107297562D01*
X138023247Y-107325324D01*
X137994778Y-107374592D01*
X137985651Y-107413697D01*
X137982027Y-107453687D01*
X137894392Y-107453687D01*
X137895305Y-107409689D01*
X137902216Y-107342824D01*
X137915904Y-107294135D01*
X137938116Y-107258289D01*
X137970594Y-107229953D01*
X137984753Y-107220795D01*
X138049073Y-107196947D01*
X138119493Y-107195446D01*
X138187615Y-107214406D01*
G36*
X137686620Y-107206192D02*
X137703968Y-107213774D01*
X137745376Y-107246568D01*
X137780785Y-107293987D01*
X137802684Y-107344591D01*
X137806249Y-107369538D01*
X137794299Y-107404367D01*
X137768087Y-107422797D01*
X137739984Y-107433956D01*
X137727115Y-107436012D01*
X137720849Y-107421089D01*
X137708476Y-107388615D01*
X137703048Y-107373942D01*
X137672610Y-107323184D01*
X137628540Y-107297867D01*
X137572030Y-107298646D01*
X137567845Y-107299643D01*
X137537675Y-107313947D01*
X137515496Y-107341833D01*
X137500347Y-107386727D01*
X137491270Y-107452055D01*
X137487306Y-107541244D01*
X137486934Y-107588701D01*
X137486750Y-107663511D01*
X137485542Y-107714509D01*
X137482329Y-107746911D01*
X137476129Y-107765935D01*
X137465960Y-107776796D01*
X137450839Y-107784712D01*
X137449966Y-107785110D01*
X137420848Y-107797421D01*
X137406423Y-107801954D01*
X137404206Y-107788249D01*
X137402309Y-107750365D01*
X137400867Y-107693155D01*
X137400018Y-107621467D01*
X137399849Y-107569005D01*
X137400712Y-107467487D01*
X137404090Y-107390472D01*
X137411162Y-107333463D01*
X137423108Y-107291966D01*
X137441110Y-107261483D01*
X137466347Y-107237520D01*
X137491267Y-107220795D01*
X137551191Y-107198537D01*
X137620931Y-107193516D01*
X137686620Y-107206192D01*
X137686620Y-107206192D01*
G37*
X137686620Y-107206192D02*
X137703968Y-107213774D01*
X137745376Y-107246568D01*
X137780785Y-107293987D01*
X137802684Y-107344591D01*
X137806249Y-107369538D01*
X137794299Y-107404367D01*
X137768087Y-107422797D01*
X137739984Y-107433956D01*
X137727115Y-107436012D01*
X137720849Y-107421089D01*
X137708476Y-107388615D01*
X137703048Y-107373942D01*
X137672610Y-107323184D01*
X137628540Y-107297867D01*
X137572030Y-107298646D01*
X137567845Y-107299643D01*
X137537675Y-107313947D01*
X137515496Y-107341833D01*
X137500347Y-107386727D01*
X137491270Y-107452055D01*
X137487306Y-107541244D01*
X137486934Y-107588701D01*
X137486750Y-107663511D01*
X137485542Y-107714509D01*
X137482329Y-107746911D01*
X137476129Y-107765935D01*
X137465960Y-107776796D01*
X137450839Y-107784712D01*
X137449966Y-107785110D01*
X137420848Y-107797421D01*
X137406423Y-107801954D01*
X137404206Y-107788249D01*
X137402309Y-107750365D01*
X137400867Y-107693155D01*
X137400018Y-107621467D01*
X137399849Y-107569005D01*
X137400712Y-107467487D01*
X137404090Y-107390472D01*
X137411162Y-107333463D01*
X137423108Y-107291966D01*
X137441110Y-107261483D01*
X137466347Y-107237520D01*
X137491267Y-107220795D01*
X137551191Y-107198537D01*
X137620931Y-107193516D01*
X137686620Y-107206192D01*
G36*
X137178896Y-107203775D02*
X137220687Y-107222784D01*
X137253489Y-107245818D01*
X137277523Y-107271573D01*
X137294117Y-107304798D01*
X137304597Y-107350240D01*
X137310291Y-107412647D01*
X137312527Y-107496767D01*
X137312763Y-107552161D01*
X137312763Y-107768266D01*
X137275794Y-107785110D01*
X137246676Y-107797421D01*
X137232251Y-107801954D01*
X137229492Y-107788465D01*
X137227302Y-107752093D01*
X137225962Y-107698982D01*
X137225677Y-107656812D01*
X137224454Y-107595887D01*
X137221156Y-107547555D01*
X137216341Y-107517958D01*
X137212516Y-107511669D01*
X137186803Y-107518092D01*
X137146438Y-107534565D01*
X137099699Y-107556898D01*
X137054865Y-107580897D01*
X137020213Y-107602370D01*
X137004022Y-107617125D01*
X137003958Y-107617285D01*
X137005350Y-107644592D01*
X137017838Y-107670659D01*
X137039763Y-107691832D01*
X137071763Y-107698914D01*
X137099112Y-107698089D01*
X137137846Y-107697482D01*
X137158178Y-107706556D01*
X137170389Y-107730532D01*
X137171929Y-107735053D01*
X137177223Y-107769246D01*
X137163067Y-107790008D01*
X137126168Y-107799902D01*
X137086309Y-107801732D01*
X137014582Y-107788167D01*
X136977452Y-107768795D01*
X136931596Y-107723285D01*
X136907276Y-107667423D01*
X136905093Y-107608397D01*
X136925649Y-107553393D01*
X136956569Y-107518926D01*
X136987440Y-107499629D01*
X137035962Y-107475199D01*
X137092505Y-107450425D01*
X137101930Y-107446639D01*
X137164039Y-107419231D01*
X137199842Y-107395074D01*
X137211357Y-107371059D01*
X137200600Y-107344075D01*
X137182134Y-107322983D01*
X137138489Y-107297012D01*
X137090466Y-107295064D01*
X137046426Y-107315077D01*
X137014729Y-107354991D01*
X137010569Y-107365288D01*
X136986347Y-107403164D01*
X136950985Y-107431282D01*
X136906363Y-107454357D01*
X136906363Y-107388925D01*
X136908989Y-107348946D01*
X136920250Y-107317437D01*
X136945219Y-107283818D01*
X136969189Y-107257924D01*
X137006461Y-107221257D01*
X137035421Y-107201561D01*
X137066525Y-107193660D01*
X137101733Y-107192354D01*
X137178896Y-107203775D01*
X137178896Y-107203775D01*
G37*
X137178896Y-107203775D02*
X137220687Y-107222784D01*
X137253489Y-107245818D01*
X137277523Y-107271573D01*
X137294117Y-107304798D01*
X137304597Y-107350240D01*
X137310291Y-107412647D01*
X137312527Y-107496767D01*
X137312763Y-107552161D01*
X137312763Y-107768266D01*
X137275794Y-107785110D01*
X137246676Y-107797421D01*
X137232251Y-107801954D01*
X137229492Y-107788465D01*
X137227302Y-107752093D01*
X137225962Y-107698982D01*
X137225677Y-107656812D01*
X137224454Y-107595887D01*
X137221156Y-107547555D01*
X137216341Y-107517958D01*
X137212516Y-107511669D01*
X137186803Y-107518092D01*
X137146438Y-107534565D01*
X137099699Y-107556898D01*
X137054865Y-107580897D01*
X137020213Y-107602370D01*
X137004022Y-107617125D01*
X137003958Y-107617285D01*
X137005350Y-107644592D01*
X137017838Y-107670659D01*
X137039763Y-107691832D01*
X137071763Y-107698914D01*
X137099112Y-107698089D01*
X137137846Y-107697482D01*
X137158178Y-107706556D01*
X137170389Y-107730532D01*
X137171929Y-107735053D01*
X137177223Y-107769246D01*
X137163067Y-107790008D01*
X137126168Y-107799902D01*
X137086309Y-107801732D01*
X137014582Y-107788167D01*
X136977452Y-107768795D01*
X136931596Y-107723285D01*
X136907276Y-107667423D01*
X136905093Y-107608397D01*
X136925649Y-107553393D01*
X136956569Y-107518926D01*
X136987440Y-107499629D01*
X137035962Y-107475199D01*
X137092505Y-107450425D01*
X137101930Y-107446639D01*
X137164039Y-107419231D01*
X137199842Y-107395074D01*
X137211357Y-107371059D01*
X137200600Y-107344075D01*
X137182134Y-107322983D01*
X137138489Y-107297012D01*
X137090466Y-107295064D01*
X137046426Y-107315077D01*
X137014729Y-107354991D01*
X137010569Y-107365288D01*
X136986347Y-107403164D01*
X136950985Y-107431282D01*
X136906363Y-107454357D01*
X136906363Y-107388925D01*
X136908989Y-107348946D01*
X136920250Y-107317437D01*
X136945219Y-107283818D01*
X136969189Y-107257924D01*
X137006461Y-107221257D01*
X137035421Y-107201561D01*
X137066525Y-107193660D01*
X137101733Y-107192354D01*
X137178896Y-107203775D01*
G36*
X136813853Y-107206103D02*
X136816068Y-107244290D01*
X136817804Y-107302326D01*
X136818919Y-107375620D01*
X136819277Y-107452495D01*
X136819277Y-107712636D01*
X136773346Y-107758567D01*
X136741695Y-107786869D01*
X136713910Y-107798333D01*
X136675935Y-107797608D01*
X136660860Y-107795761D01*
X136613746Y-107790388D01*
X136574776Y-107787309D01*
X136565277Y-107787025D01*
X136533253Y-107788885D01*
X136487452Y-107793554D01*
X136469694Y-107795761D01*
X136426077Y-107799175D01*
X136396765Y-107791760D01*
X136367700Y-107768867D01*
X136357208Y-107758567D01*
X136311277Y-107712636D01*
X136311277Y-107226042D01*
X136348246Y-107209198D01*
X136380079Y-107196722D01*
X136398703Y-107192354D01*
X136403478Y-107206158D01*
X136407941Y-107244726D01*
X136411795Y-107303796D01*
X136414742Y-107379103D01*
X136416163Y-107442726D01*
X136420134Y-107693097D01*
X136454779Y-107697996D01*
X136486288Y-107694571D01*
X136501728Y-107683481D01*
X136506043Y-107662748D01*
X136509728Y-107618585D01*
X136512489Y-107556586D01*
X136514032Y-107482349D01*
X136514255Y-107444146D01*
X136514477Y-107224223D01*
X136560186Y-107208289D01*
X136592538Y-107197455D01*
X136610135Y-107192402D01*
X136610643Y-107192354D01*
X136612408Y-107206088D01*
X136614349Y-107244170D01*
X136616302Y-107301922D01*
X136618104Y-107374667D01*
X136619363Y-107442726D01*
X136623334Y-107693097D01*
X136710420Y-107693097D01*
X136714416Y-107464680D01*
X136718412Y-107236262D01*
X136760867Y-107214308D01*
X136792212Y-107199233D01*
X136810764Y-107192391D01*
X136811299Y-107192354D01*
X136813853Y-107206103D01*
X136813853Y-107206103D01*
G37*
X136813853Y-107206103D02*
X136816068Y-107244290D01*
X136817804Y-107302326D01*
X136818919Y-107375620D01*
X136819277Y-107452495D01*
X136819277Y-107712636D01*
X136773346Y-107758567D01*
X136741695Y-107786869D01*
X136713910Y-107798333D01*
X136675935Y-107797608D01*
X136660860Y-107795761D01*
X136613746Y-107790388D01*
X136574776Y-107787309D01*
X136565277Y-107787025D01*
X136533253Y-107788885D01*
X136487452Y-107793554D01*
X136469694Y-107795761D01*
X136426077Y-107799175D01*
X136396765Y-107791760D01*
X136367700Y-107768867D01*
X136357208Y-107758567D01*
X136311277Y-107712636D01*
X136311277Y-107226042D01*
X136348246Y-107209198D01*
X136380079Y-107196722D01*
X136398703Y-107192354D01*
X136403478Y-107206158D01*
X136407941Y-107244726D01*
X136411795Y-107303796D01*
X136414742Y-107379103D01*
X136416163Y-107442726D01*
X136420134Y-107693097D01*
X136454779Y-107697996D01*
X136486288Y-107694571D01*
X136501728Y-107683481D01*
X136506043Y-107662748D01*
X136509728Y-107618585D01*
X136512489Y-107556586D01*
X136514032Y-107482349D01*
X136514255Y-107444146D01*
X136514477Y-107224223D01*
X136560186Y-107208289D01*
X136592538Y-107197455D01*
X136610135Y-107192402D01*
X136610643Y-107192354D01*
X136612408Y-107206088D01*
X136614349Y-107244170D01*
X136616302Y-107301922D01*
X136618104Y-107374667D01*
X136619363Y-107442726D01*
X136623334Y-107693097D01*
X136710420Y-107693097D01*
X136714416Y-107464680D01*
X136718412Y-107236262D01*
X136760867Y-107214308D01*
X136792212Y-107199233D01*
X136810764Y-107192391D01*
X136811299Y-107192354D01*
X136813853Y-107206103D01*
G36*
X136224137Y-107312798D02*
X136223953Y-107421277D01*
X136223239Y-107504727D01*
X136221695Y-107567144D01*
X136219021Y-107612525D01*
X136214914Y-107644869D01*
X136209075Y-107668173D01*
X136201202Y-107686435D01*
X136195241Y-107696858D01*
X136145875Y-107753385D01*
X136083284Y-107788817D01*
X136014033Y-107801530D01*
X135944688Y-107789903D01*
X135903395Y-107769008D01*
X135860045Y-107732862D01*
X135830501Y-107688716D01*
X135812675Y-107630902D01*
X135804483Y-107553753D01*
X135803322Y-107497154D01*
X135803478Y-107493087D01*
X135904877Y-107493087D01*
X135905496Y-107557990D01*
X135908334Y-107600954D01*
X135914860Y-107629062D01*
X135926543Y-107649393D01*
X135940503Y-107664728D01*
X135987385Y-107694330D01*
X136037721Y-107696859D01*
X136085296Y-107672145D01*
X136088999Y-107668796D01*
X136104803Y-107651375D01*
X136114713Y-107630649D01*
X136120078Y-107599802D01*
X136122248Y-107552017D01*
X136122591Y-107499188D01*
X136121847Y-107432821D01*
X136118768Y-107388546D01*
X136112081Y-107359449D01*
X136100516Y-107338613D01*
X136091033Y-107327547D01*
X136046980Y-107299638D01*
X135996244Y-107296283D01*
X135947816Y-107317599D01*
X135938470Y-107325513D01*
X135922560Y-107343087D01*
X135912630Y-107364027D01*
X135907298Y-107395222D01*
X135905183Y-107443562D01*
X135904877Y-107493087D01*
X135803478Y-107493087D01*
X135806830Y-107406008D01*
X135818746Y-107337526D01*
X135841155Y-107286040D01*
X135876144Y-107245883D01*
X135903395Y-107225301D01*
X135952927Y-107203065D01*
X136010336Y-107192744D01*
X136063702Y-107195507D01*
X136093563Y-107206652D01*
X136105281Y-107209823D01*
X136113057Y-107197997D01*
X136118485Y-107166306D01*
X136122591Y-107118033D01*
X136127087Y-107064269D01*
X136133333Y-107031922D01*
X136144696Y-107013425D01*
X136164548Y-107001210D01*
X136177020Y-106995802D01*
X136224191Y-106976041D01*
X136224137Y-107312798D01*
X136224137Y-107312798D01*
G37*
X136224137Y-107312798D02*
X136223953Y-107421277D01*
X136223239Y-107504727D01*
X136221695Y-107567144D01*
X136219021Y-107612525D01*
X136214914Y-107644869D01*
X136209075Y-107668173D01*
X136201202Y-107686435D01*
X136195241Y-107696858D01*
X136145875Y-107753385D01*
X136083284Y-107788817D01*
X136014033Y-107801530D01*
X135944688Y-107789903D01*
X135903395Y-107769008D01*
X135860045Y-107732862D01*
X135830501Y-107688716D01*
X135812675Y-107630902D01*
X135804483Y-107553753D01*
X135803322Y-107497154D01*
X135803478Y-107493087D01*
X135904877Y-107493087D01*
X135905496Y-107557990D01*
X135908334Y-107600954D01*
X135914860Y-107629062D01*
X135926543Y-107649393D01*
X135940503Y-107664728D01*
X135987385Y-107694330D01*
X136037721Y-107696859D01*
X136085296Y-107672145D01*
X136088999Y-107668796D01*
X136104803Y-107651375D01*
X136114713Y-107630649D01*
X136120078Y-107599802D01*
X136122248Y-107552017D01*
X136122591Y-107499188D01*
X136121847Y-107432821D01*
X136118768Y-107388546D01*
X136112081Y-107359449D01*
X136100516Y-107338613D01*
X136091033Y-107327547D01*
X136046980Y-107299638D01*
X135996244Y-107296283D01*
X135947816Y-107317599D01*
X135938470Y-107325513D01*
X135922560Y-107343087D01*
X135912630Y-107364027D01*
X135907298Y-107395222D01*
X135905183Y-107443562D01*
X135904877Y-107493087D01*
X135803478Y-107493087D01*
X135806830Y-107406008D01*
X135818746Y-107337526D01*
X135841155Y-107286040D01*
X135876144Y-107245883D01*
X135903395Y-107225301D01*
X135952927Y-107203065D01*
X136010336Y-107192744D01*
X136063702Y-107195507D01*
X136093563Y-107206652D01*
X136105281Y-107209823D01*
X136113057Y-107197997D01*
X136118485Y-107166306D01*
X136122591Y-107118033D01*
X136127087Y-107064269D01*
X136133333Y-107031922D01*
X136144696Y-107013425D01*
X136164548Y-107001210D01*
X136177020Y-106995802D01*
X136224191Y-106976041D01*
X136224137Y-107312798D01*
G36*
X135563946Y-107197195D02*
X135629878Y-107221524D01*
X135683293Y-107264557D01*
X135704184Y-107294849D01*
X135726959Y-107350434D01*
X135726486Y-107390626D01*
X135702582Y-107417657D01*
X135693737Y-107422253D01*
X135655550Y-107436584D01*
X135636048Y-107432912D01*
X135629442Y-107408847D01*
X135629106Y-107395554D01*
X135617012Y-107346650D01*
X135585491Y-107312439D01*
X135541679Y-107295916D01*
X135492715Y-107300074D01*
X135452914Y-107321667D01*
X135439470Y-107333984D01*
X135429941Y-107348927D01*
X135423505Y-107371515D01*
X135419337Y-107406768D01*
X135416617Y-107459706D01*
X135414522Y-107535347D01*
X135413980Y-107559297D01*
X135412001Y-107641230D01*
X135409751Y-107698895D01*
X135406377Y-107737048D01*
X135401026Y-107760444D01*
X135392844Y-107773838D01*
X135380979Y-107781985D01*
X135373382Y-107785584D01*
X135341122Y-107797892D01*
X135322131Y-107801954D01*
X135315856Y-107788388D01*
X135312026Y-107747374D01*
X135310620Y-107678439D01*
X135311618Y-107581109D01*
X135311928Y-107566097D01*
X135314121Y-107477299D01*
X135316713Y-107412459D01*
X135320402Y-107366507D01*
X135325884Y-107334375D01*
X135333855Y-107310993D01*
X135345013Y-107291292D01*
X135350850Y-107282850D01*
X135384316Y-107245497D01*
X135421747Y-107216443D01*
X135426329Y-107213907D01*
X135493446Y-107193883D01*
X135563946Y-107197195D01*
X135563946Y-107197195D01*
G37*
X135563946Y-107197195D02*
X135629878Y-107221524D01*
X135683293Y-107264557D01*
X135704184Y-107294849D01*
X135726959Y-107350434D01*
X135726486Y-107390626D01*
X135702582Y-107417657D01*
X135693737Y-107422253D01*
X135655550Y-107436584D01*
X135636048Y-107432912D01*
X135629442Y-107408847D01*
X135629106Y-107395554D01*
X135617012Y-107346650D01*
X135585491Y-107312439D01*
X135541679Y-107295916D01*
X135492715Y-107300074D01*
X135452914Y-107321667D01*
X135439470Y-107333984D01*
X135429941Y-107348927D01*
X135423505Y-107371515D01*
X135419337Y-107406768D01*
X135416617Y-107459706D01*
X135414522Y-107535347D01*
X135413980Y-107559297D01*
X135412001Y-107641230D01*
X135409751Y-107698895D01*
X135406377Y-107737048D01*
X135401026Y-107760444D01*
X135392844Y-107773838D01*
X135380979Y-107781985D01*
X135373382Y-107785584D01*
X135341122Y-107797892D01*
X135322131Y-107801954D01*
X135315856Y-107788388D01*
X135312026Y-107747374D01*
X135310620Y-107678439D01*
X135311618Y-107581109D01*
X135311928Y-107566097D01*
X135314121Y-107477299D01*
X135316713Y-107412459D01*
X135320402Y-107366507D01*
X135325884Y-107334375D01*
X135333855Y-107310993D01*
X135345013Y-107291292D01*
X135350850Y-107282850D01*
X135384316Y-107245497D01*
X135421747Y-107216443D01*
X135426329Y-107213907D01*
X135493446Y-107193883D01*
X135563946Y-107197195D01*
G36*
X135073764Y-107198408D02*
X135130636Y-107219527D01*
X135131287Y-107219933D01*
X135166460Y-107245820D01*
X135192427Y-107276073D01*
X135210690Y-107315498D01*
X135222752Y-107368902D01*
X135230116Y-107441091D01*
X135234284Y-107536872D01*
X135234649Y-107550518D01*
X135239896Y-107756282D01*
X135195736Y-107779118D01*
X135163783Y-107794550D01*
X135144490Y-107801863D01*
X135143598Y-107801954D01*
X135140259Y-107788462D01*
X135137607Y-107752066D01*
X135135976Y-107698892D01*
X135135620Y-107655833D01*
X135135612Y-107586081D01*
X135132423Y-107542277D01*
X135121308Y-107521384D01*
X135097521Y-107520365D01*
X135056316Y-107536181D01*
X134994106Y-107565255D01*
X134948361Y-107589403D01*
X134924833Y-107610353D01*
X134917916Y-107633187D01*
X134917906Y-107634317D01*
X134929319Y-107673652D01*
X134963112Y-107694902D01*
X135014829Y-107697979D01*
X135052081Y-107697446D01*
X135071723Y-107708175D01*
X135083972Y-107733945D01*
X135091022Y-107766777D01*
X135080862Y-107785406D01*
X135077037Y-107788072D01*
X135041021Y-107798780D01*
X134990586Y-107800296D01*
X134938646Y-107793199D01*
X134901842Y-107780228D01*
X134850958Y-107737025D01*
X134822034Y-107676886D01*
X134816306Y-107629902D01*
X134820677Y-107587522D01*
X134836495Y-107552928D01*
X134867817Y-107522203D01*
X134918698Y-107491430D01*
X134993196Y-107456692D01*
X134997734Y-107454728D01*
X135064841Y-107423727D01*
X135106252Y-107398302D01*
X135124001Y-107375454D01*
X135120127Y-107352185D01*
X135096663Y-107325496D01*
X135089647Y-107319354D01*
X135042650Y-107295540D01*
X134993953Y-107296543D01*
X134951542Y-107319891D01*
X134923404Y-107363115D01*
X134920789Y-107371600D01*
X134895328Y-107412748D01*
X134863021Y-107432568D01*
X134816306Y-107452210D01*
X134816306Y-107401390D01*
X134830516Y-107327522D01*
X134872695Y-107259767D01*
X134894644Y-107237101D01*
X134944537Y-107208009D01*
X135007987Y-107194840D01*
X135073764Y-107198408D01*
X135073764Y-107198408D01*
G37*
X135073764Y-107198408D02*
X135130636Y-107219527D01*
X135131287Y-107219933D01*
X135166460Y-107245820D01*
X135192427Y-107276073D01*
X135210690Y-107315498D01*
X135222752Y-107368902D01*
X135230116Y-107441091D01*
X135234284Y-107536872D01*
X135234649Y-107550518D01*
X135239896Y-107756282D01*
X135195736Y-107779118D01*
X135163783Y-107794550D01*
X135144490Y-107801863D01*
X135143598Y-107801954D01*
X135140259Y-107788462D01*
X135137607Y-107752066D01*
X135135976Y-107698892D01*
X135135620Y-107655833D01*
X135135612Y-107586081D01*
X135132423Y-107542277D01*
X135121308Y-107521384D01*
X135097521Y-107520365D01*
X135056316Y-107536181D01*
X134994106Y-107565255D01*
X134948361Y-107589403D01*
X134924833Y-107610353D01*
X134917916Y-107633187D01*
X134917906Y-107634317D01*
X134929319Y-107673652D01*
X134963112Y-107694902D01*
X135014829Y-107697979D01*
X135052081Y-107697446D01*
X135071723Y-107708175D01*
X135083972Y-107733945D01*
X135091022Y-107766777D01*
X135080862Y-107785406D01*
X135077037Y-107788072D01*
X135041021Y-107798780D01*
X134990586Y-107800296D01*
X134938646Y-107793199D01*
X134901842Y-107780228D01*
X134850958Y-107737025D01*
X134822034Y-107676886D01*
X134816306Y-107629902D01*
X134820677Y-107587522D01*
X134836495Y-107552928D01*
X134867817Y-107522203D01*
X134918698Y-107491430D01*
X134993196Y-107456692D01*
X134997734Y-107454728D01*
X135064841Y-107423727D01*
X135106252Y-107398302D01*
X135124001Y-107375454D01*
X135120127Y-107352185D01*
X135096663Y-107325496D01*
X135089647Y-107319354D01*
X135042650Y-107295540D01*
X134993953Y-107296543D01*
X134951542Y-107319891D01*
X134923404Y-107363115D01*
X134920789Y-107371600D01*
X134895328Y-107412748D01*
X134863021Y-107432568D01*
X134816306Y-107452210D01*
X134816306Y-107401390D01*
X134830516Y-107327522D01*
X134872695Y-107259767D01*
X134894644Y-107237101D01*
X134944537Y-107208009D01*
X135007987Y-107194840D01*
X135073764Y-107198408D01*
G36*
X134409906Y-107098729D02*
X134414159Y-107158053D01*
X134419045Y-107193012D01*
X134425815Y-107208260D01*
X134435722Y-107208455D01*
X134438934Y-107206635D01*
X134481664Y-107193455D01*
X134537247Y-107194225D01*
X134593757Y-107207773D01*
X134629102Y-107225301D01*
X134665341Y-107253301D01*
X134691833Y-107284989D01*
X134710019Y-107325253D01*
X134721342Y-107378983D01*
X134727242Y-107451066D01*
X134729163Y-107546391D01*
X134729197Y-107564677D01*
X134729220Y-107770086D01*
X134683511Y-107786020D01*
X134651047Y-107796860D01*
X134633235Y-107801908D01*
X134632711Y-107801954D01*
X134630957Y-107788268D01*
X134629464Y-107750516D01*
X134628346Y-107693664D01*
X134627717Y-107622674D01*
X134627620Y-107579513D01*
X134627418Y-107494413D01*
X134626378Y-107433421D01*
X134623851Y-107391617D01*
X134619184Y-107364082D01*
X134611727Y-107345896D01*
X134600831Y-107332138D01*
X134594027Y-107325513D01*
X134547292Y-107298815D01*
X134496292Y-107296815D01*
X134450021Y-107319395D01*
X134441464Y-107327547D01*
X134428913Y-107342876D01*
X134420208Y-107361058D01*
X134414651Y-107387349D01*
X134411546Y-107427002D01*
X134410196Y-107485272D01*
X134409906Y-107565613D01*
X134409906Y-107770086D01*
X134364197Y-107786020D01*
X134331733Y-107796860D01*
X134313921Y-107801908D01*
X134313397Y-107801954D01*
X134312057Y-107788063D01*
X134310848Y-107748879D01*
X134309821Y-107688140D01*
X134309022Y-107609581D01*
X134308501Y-107516938D01*
X134308306Y-107413949D01*
X134308306Y-107016782D01*
X134355477Y-106996884D01*
X134402649Y-106976987D01*
X134409906Y-107098729D01*
X134409906Y-107098729D01*
G37*
X134409906Y-107098729D02*
X134414159Y-107158053D01*
X134419045Y-107193012D01*
X134425815Y-107208260D01*
X134435722Y-107208455D01*
X134438934Y-107206635D01*
X134481664Y-107193455D01*
X134537247Y-107194225D01*
X134593757Y-107207773D01*
X134629102Y-107225301D01*
X134665341Y-107253301D01*
X134691833Y-107284989D01*
X134710019Y-107325253D01*
X134721342Y-107378983D01*
X134727242Y-107451066D01*
X134729163Y-107546391D01*
X134729197Y-107564677D01*
X134729220Y-107770086D01*
X134683511Y-107786020D01*
X134651047Y-107796860D01*
X134633235Y-107801908D01*
X134632711Y-107801954D01*
X134630957Y-107788268D01*
X134629464Y-107750516D01*
X134628346Y-107693664D01*
X134627717Y-107622674D01*
X134627620Y-107579513D01*
X134627418Y-107494413D01*
X134626378Y-107433421D01*
X134623851Y-107391617D01*
X134619184Y-107364082D01*
X134611727Y-107345896D01*
X134600831Y-107332138D01*
X134594027Y-107325513D01*
X134547292Y-107298815D01*
X134496292Y-107296815D01*
X134450021Y-107319395D01*
X134441464Y-107327547D01*
X134428913Y-107342876D01*
X134420208Y-107361058D01*
X134414651Y-107387349D01*
X134411546Y-107427002D01*
X134410196Y-107485272D01*
X134409906Y-107565613D01*
X134409906Y-107770086D01*
X134364197Y-107786020D01*
X134331733Y-107796860D01*
X134313921Y-107801908D01*
X134313397Y-107801954D01*
X134312057Y-107788063D01*
X134310848Y-107748879D01*
X134309821Y-107688140D01*
X134309022Y-107609581D01*
X134308501Y-107516938D01*
X134308306Y-107413949D01*
X134308306Y-107016782D01*
X134355477Y-106996884D01*
X134402649Y-106976987D01*
X134409906Y-107098729D01*
G36*
X133202323Y-107178679D02*
X133259547Y-107217175D01*
X133303769Y-107272775D01*
X133330187Y-107343526D01*
X133335530Y-107395602D01*
X133334923Y-107417333D01*
X133329842Y-107433971D01*
X133315875Y-107448877D01*
X133288609Y-107465413D01*
X133243632Y-107486938D01*
X133176531Y-107516814D01*
X133176191Y-107516964D01*
X133114427Y-107545253D01*
X133063779Y-107570373D01*
X133029424Y-107589619D01*
X133016538Y-107600288D01*
X133016534Y-107600374D01*
X133027892Y-107623606D01*
X133054451Y-107649214D01*
X133084943Y-107667661D01*
X133100390Y-107671326D01*
X133142535Y-107658652D01*
X133178828Y-107626911D01*
X133196537Y-107592012D01*
X133213572Y-107566285D01*
X133246942Y-107536986D01*
X133286169Y-107511675D01*
X133320776Y-107497911D01*
X133328013Y-107497154D01*
X133336159Y-107509600D01*
X133336650Y-107541412D01*
X133330663Y-107584306D01*
X133319377Y-107629998D01*
X133303970Y-107670201D01*
X133303191Y-107671762D01*
X133256824Y-107736502D01*
X133196731Y-107780537D01*
X133128485Y-107802151D01*
X133057658Y-107799625D01*
X132989824Y-107771244D01*
X132986808Y-107769248D01*
X132933447Y-107720888D01*
X132898360Y-107657792D01*
X132878942Y-107574827D01*
X132876336Y-107551518D01*
X132871721Y-107441495D01*
X132877253Y-107390188D01*
X133016534Y-107390188D01*
X133018344Y-107422193D01*
X133028242Y-107431533D01*
X133052918Y-107424545D01*
X133091815Y-107408027D01*
X133135295Y-107387321D01*
X133136376Y-107386773D01*
X133173229Y-107367389D01*
X133188020Y-107354453D01*
X133184373Y-107340891D01*
X133169015Y-107323072D01*
X133129943Y-107297285D01*
X133087866Y-107295390D01*
X133050123Y-107314157D01*
X133024054Y-107350355D01*
X133016534Y-107390188D01*
X132877253Y-107390188D01*
X132881214Y-107353467D01*
X132905570Y-107283652D01*
X132939476Y-107234742D01*
X133000673Y-107185318D01*
X133068083Y-107160799D01*
X133136900Y-107159237D01*
X133202323Y-107178679D01*
X133202323Y-107178679D01*
G37*
X133202323Y-107178679D02*
X133259547Y-107217175D01*
X133303769Y-107272775D01*
X133330187Y-107343526D01*
X133335530Y-107395602D01*
X133334923Y-107417333D01*
X133329842Y-107433971D01*
X133315875Y-107448877D01*
X133288609Y-107465413D01*
X133243632Y-107486938D01*
X133176531Y-107516814D01*
X133176191Y-107516964D01*
X133114427Y-107545253D01*
X133063779Y-107570373D01*
X133029424Y-107589619D01*
X133016538Y-107600288D01*
X133016534Y-107600374D01*
X133027892Y-107623606D01*
X133054451Y-107649214D01*
X133084943Y-107667661D01*
X133100390Y-107671326D01*
X133142535Y-107658652D01*
X133178828Y-107626911D01*
X133196537Y-107592012D01*
X133213572Y-107566285D01*
X133246942Y-107536986D01*
X133286169Y-107511675D01*
X133320776Y-107497911D01*
X133328013Y-107497154D01*
X133336159Y-107509600D01*
X133336650Y-107541412D01*
X133330663Y-107584306D01*
X133319377Y-107629998D01*
X133303970Y-107670201D01*
X133303191Y-107671762D01*
X133256824Y-107736502D01*
X133196731Y-107780537D01*
X133128485Y-107802151D01*
X133057658Y-107799625D01*
X132989824Y-107771244D01*
X132986808Y-107769248D01*
X132933447Y-107720888D01*
X132898360Y-107657792D01*
X132878942Y-107574827D01*
X132876336Y-107551518D01*
X132871721Y-107441495D01*
X132877253Y-107390188D01*
X133016534Y-107390188D01*
X133018344Y-107422193D01*
X133028242Y-107431533D01*
X133052918Y-107424545D01*
X133091815Y-107408027D01*
X133135295Y-107387321D01*
X133136376Y-107386773D01*
X133173229Y-107367389D01*
X133188020Y-107354453D01*
X133184373Y-107340891D01*
X133169015Y-107323072D01*
X133129943Y-107297285D01*
X133087866Y-107295390D01*
X133050123Y-107314157D01*
X133024054Y-107350355D01*
X133016534Y-107390188D01*
X132877253Y-107390188D01*
X132881214Y-107353467D01*
X132905570Y-107283652D01*
X132939476Y-107234742D01*
X133000673Y-107185318D01*
X133068083Y-107160799D01*
X133136900Y-107159237D01*
X133202323Y-107178679D01*
G36*
X132075135Y-107169402D02*
X132143165Y-107205173D01*
X132193371Y-107262741D01*
X132211205Y-107299752D01*
X132225083Y-107355322D01*
X132232187Y-107425536D01*
X132232860Y-107502167D01*
X132227447Y-107576992D01*
X132216290Y-107641782D01*
X132199734Y-107688313D01*
X132194646Y-107696327D01*
X132134375Y-107756147D01*
X132062789Y-107791975D01*
X131985112Y-107802460D01*
X131906568Y-107786250D01*
X131884709Y-107776532D01*
X131842142Y-107746583D01*
X131804783Y-107706873D01*
X131801252Y-107701837D01*
X131786901Y-107677564D01*
X131777414Y-107651618D01*
X131771810Y-107617462D01*
X131769106Y-107568559D01*
X131768319Y-107498375D01*
X131768306Y-107482640D01*
X131768342Y-107477632D01*
X131913449Y-107477632D01*
X131914293Y-107543870D01*
X131917616Y-107587826D01*
X131924603Y-107616219D01*
X131936436Y-107635765D01*
X131942477Y-107642297D01*
X131977206Y-107667120D01*
X132010923Y-107665988D01*
X132045015Y-107644456D01*
X132065349Y-107621469D01*
X132077391Y-107587918D01*
X132084154Y-107535009D01*
X132084618Y-107528839D01*
X132085772Y-107432953D01*
X132073708Y-107361739D01*
X132048590Y-107315634D01*
X132010580Y-107295075D01*
X131997012Y-107293954D01*
X131961384Y-107299592D01*
X131937014Y-107319126D01*
X131922113Y-107356482D01*
X131914895Y-107415590D01*
X131913449Y-107477632D01*
X131768342Y-107477632D01*
X131768846Y-107407853D01*
X131771116Y-107355599D01*
X131776088Y-107319389D01*
X131784733Y-107292739D01*
X131798025Y-107269162D01*
X131800963Y-107264778D01*
X131850333Y-107205689D01*
X131904129Y-107171387D01*
X131969622Y-107157771D01*
X131991862Y-107157105D01*
X132075135Y-107169402D01*
X132075135Y-107169402D01*
G37*
X132075135Y-107169402D02*
X132143165Y-107205173D01*
X132193371Y-107262741D01*
X132211205Y-107299752D01*
X132225083Y-107355322D01*
X132232187Y-107425536D01*
X132232860Y-107502167D01*
X132227447Y-107576992D01*
X132216290Y-107641782D01*
X132199734Y-107688313D01*
X132194646Y-107696327D01*
X132134375Y-107756147D01*
X132062789Y-107791975D01*
X131985112Y-107802460D01*
X131906568Y-107786250D01*
X131884709Y-107776532D01*
X131842142Y-107746583D01*
X131804783Y-107706873D01*
X131801252Y-107701837D01*
X131786901Y-107677564D01*
X131777414Y-107651618D01*
X131771810Y-107617462D01*
X131769106Y-107568559D01*
X131768319Y-107498375D01*
X131768306Y-107482640D01*
X131768342Y-107477632D01*
X131913449Y-107477632D01*
X131914293Y-107543870D01*
X131917616Y-107587826D01*
X131924603Y-107616219D01*
X131936436Y-107635765D01*
X131942477Y-107642297D01*
X131977206Y-107667120D01*
X132010923Y-107665988D01*
X132045015Y-107644456D01*
X132065349Y-107621469D01*
X132077391Y-107587918D01*
X132084154Y-107535009D01*
X132084618Y-107528839D01*
X132085772Y-107432953D01*
X132073708Y-107361739D01*
X132048590Y-107315634D01*
X132010580Y-107295075D01*
X131997012Y-107293954D01*
X131961384Y-107299592D01*
X131937014Y-107319126D01*
X131922113Y-107356482D01*
X131914895Y-107415590D01*
X131913449Y-107477632D01*
X131768342Y-107477632D01*
X131768846Y-107407853D01*
X131771116Y-107355599D01*
X131776088Y-107319389D01*
X131784733Y-107292739D01*
X131798025Y-107269162D01*
X131800963Y-107264778D01*
X131850333Y-107205689D01*
X131904129Y-107171387D01*
X131969622Y-107157771D01*
X131991862Y-107157105D01*
X132075135Y-107169402D01*
G36*
X133750113Y-107175220D02*
X133796692Y-107202163D01*
X133829077Y-107228906D01*
X133852762Y-107256924D01*
X133869079Y-107291188D01*
X133879359Y-107336667D01*
X133884934Y-107398332D01*
X133887136Y-107481151D01*
X133887391Y-107540686D01*
X133887391Y-107759831D01*
X133825706Y-107787484D01*
X133764020Y-107815137D01*
X133756763Y-107575110D01*
X133753764Y-107485468D01*
X133750618Y-107420402D01*
X133746721Y-107375466D01*
X133741467Y-107346210D01*
X133734251Y-107328188D01*
X133724470Y-107316951D01*
X133721332Y-107314519D01*
X133673781Y-107295523D01*
X133625717Y-107303040D01*
X133597106Y-107322983D01*
X133585467Y-107337115D01*
X133577411Y-107355660D01*
X133572291Y-107383774D01*
X133569461Y-107426613D01*
X133568276Y-107489335D01*
X133568077Y-107554701D01*
X133568038Y-107636708D01*
X133566634Y-107694756D01*
X133561934Y-107733905D01*
X133552007Y-107759220D01*
X133534923Y-107775763D01*
X133508752Y-107788596D01*
X133473795Y-107801931D01*
X133435616Y-107816447D01*
X133440161Y-107558829D01*
X133441991Y-107465959D01*
X133444132Y-107397329D01*
X133447201Y-107348151D01*
X133451814Y-107313638D01*
X133458588Y-107289002D01*
X133468139Y-107269456D01*
X133479654Y-107252210D01*
X133535210Y-107197120D01*
X133603000Y-107165262D01*
X133676733Y-107157631D01*
X133750113Y-107175220D01*
X133750113Y-107175220D01*
G37*
X133750113Y-107175220D02*
X133796692Y-107202163D01*
X133829077Y-107228906D01*
X133852762Y-107256924D01*
X133869079Y-107291188D01*
X133879359Y-107336667D01*
X133884934Y-107398332D01*
X133887136Y-107481151D01*
X133887391Y-107540686D01*
X133887391Y-107759831D01*
X133825706Y-107787484D01*
X133764020Y-107815137D01*
X133756763Y-107575110D01*
X133753764Y-107485468D01*
X133750618Y-107420402D01*
X133746721Y-107375466D01*
X133741467Y-107346210D01*
X133734251Y-107328188D01*
X133724470Y-107316951D01*
X133721332Y-107314519D01*
X133673781Y-107295523D01*
X133625717Y-107303040D01*
X133597106Y-107322983D01*
X133585467Y-107337115D01*
X133577411Y-107355660D01*
X133572291Y-107383774D01*
X133569461Y-107426613D01*
X133568276Y-107489335D01*
X133568077Y-107554701D01*
X133568038Y-107636708D01*
X133566634Y-107694756D01*
X133561934Y-107733905D01*
X133552007Y-107759220D01*
X133534923Y-107775763D01*
X133508752Y-107788596D01*
X133473795Y-107801931D01*
X133435616Y-107816447D01*
X133440161Y-107558829D01*
X133441991Y-107465959D01*
X133444132Y-107397329D01*
X133447201Y-107348151D01*
X133451814Y-107313638D01*
X133458588Y-107289002D01*
X133468139Y-107269456D01*
X133479654Y-107252210D01*
X133535210Y-107197120D01*
X133603000Y-107165262D01*
X133676733Y-107157631D01*
X133750113Y-107175220D01*
G36*
X132633764Y-107167358D02*
X132689221Y-107195008D01*
X132738168Y-107245920D01*
X132751649Y-107264778D01*
X132766334Y-107289455D01*
X132775862Y-107316256D01*
X132781313Y-107352027D01*
X132783767Y-107403609D01*
X132784306Y-107471707D01*
X132781872Y-107565028D01*
X132773414Y-107635097D01*
X132757194Y-107687371D01*
X132731474Y-107727309D01*
X132694517Y-107760369D01*
X132691802Y-107762326D01*
X132655380Y-107782348D01*
X132611522Y-107792255D01*
X132555744Y-107794697D01*
X132465068Y-107794697D01*
X132465030Y-107882723D01*
X132464186Y-107931748D01*
X132459044Y-107960505D01*
X132445607Y-107977751D01*
X132419878Y-107992248D01*
X132413699Y-107995209D01*
X132384784Y-108009088D01*
X132362396Y-108017854D01*
X132345749Y-108018611D01*
X132334056Y-108008463D01*
X132326530Y-107984513D01*
X132322386Y-107943866D01*
X132320835Y-107883626D01*
X132321091Y-107800895D01*
X132322369Y-107692779D01*
X132322768Y-107660440D01*
X132324205Y-107548964D01*
X132325492Y-107476043D01*
X132464991Y-107476043D01*
X132465775Y-107537939D01*
X132469260Y-107578437D01*
X132477144Y-107605148D01*
X132491125Y-107625684D01*
X132500617Y-107635700D01*
X132539424Y-107665007D01*
X132573783Y-107667392D01*
X132609236Y-107643190D01*
X132610134Y-107642297D01*
X132624559Y-107623593D01*
X132633333Y-107598172D01*
X132637759Y-107559024D01*
X132639138Y-107499137D01*
X132639163Y-107485870D01*
X132635832Y-107403341D01*
X132624989Y-107346131D01*
X132605360Y-107311206D01*
X132575670Y-107295534D01*
X132558511Y-107293954D01*
X132517786Y-107301366D01*
X132489852Y-107325770D01*
X132473037Y-107370420D01*
X132465670Y-107438570D01*
X132464991Y-107476043D01*
X132325492Y-107476043D01*
X132325728Y-107462685D01*
X132327697Y-107397773D01*
X132330470Y-107350398D01*
X132334408Y-107316730D01*
X132339869Y-107292938D01*
X132347212Y-107275193D01*
X132356797Y-107259664D01*
X132360907Y-107253821D01*
X132415425Y-107198625D01*
X132484356Y-107167330D01*
X132564092Y-107158605D01*
X132633764Y-107167358D01*
X132633764Y-107167358D01*
G37*
X132633764Y-107167358D02*
X132689221Y-107195008D01*
X132738168Y-107245920D01*
X132751649Y-107264778D01*
X132766334Y-107289455D01*
X132775862Y-107316256D01*
X132781313Y-107352027D01*
X132783767Y-107403609D01*
X132784306Y-107471707D01*
X132781872Y-107565028D01*
X132773414Y-107635097D01*
X132757194Y-107687371D01*
X132731474Y-107727309D01*
X132694517Y-107760369D01*
X132691802Y-107762326D01*
X132655380Y-107782348D01*
X132611522Y-107792255D01*
X132555744Y-107794697D01*
X132465068Y-107794697D01*
X132465030Y-107882723D01*
X132464186Y-107931748D01*
X132459044Y-107960505D01*
X132445607Y-107977751D01*
X132419878Y-107992248D01*
X132413699Y-107995209D01*
X132384784Y-108009088D01*
X132362396Y-108017854D01*
X132345749Y-108018611D01*
X132334056Y-108008463D01*
X132326530Y-107984513D01*
X132322386Y-107943866D01*
X132320835Y-107883626D01*
X132321091Y-107800895D01*
X132322369Y-107692779D01*
X132322768Y-107660440D01*
X132324205Y-107548964D01*
X132325492Y-107476043D01*
X132464991Y-107476043D01*
X132465775Y-107537939D01*
X132469260Y-107578437D01*
X132477144Y-107605148D01*
X132491125Y-107625684D01*
X132500617Y-107635700D01*
X132539424Y-107665007D01*
X132573783Y-107667392D01*
X132609236Y-107643190D01*
X132610134Y-107642297D01*
X132624559Y-107623593D01*
X132633333Y-107598172D01*
X132637759Y-107559024D01*
X132639138Y-107499137D01*
X132639163Y-107485870D01*
X132635832Y-107403341D01*
X132624989Y-107346131D01*
X132605360Y-107311206D01*
X132575670Y-107295534D01*
X132558511Y-107293954D01*
X132517786Y-107301366D01*
X132489852Y-107325770D01*
X132473037Y-107370420D01*
X132465670Y-107438570D01*
X132464991Y-107476043D01*
X132325492Y-107476043D01*
X132325728Y-107462685D01*
X132327697Y-107397773D01*
X132330470Y-107350398D01*
X132334408Y-107316730D01*
X132339869Y-107292938D01*
X132347212Y-107275193D01*
X132356797Y-107259664D01*
X132360907Y-107253821D01*
X132415425Y-107198625D01*
X132484356Y-107167330D01*
X132564092Y-107158605D01*
X132633764Y-107167358D01*
D16*
X99361320Y-69887748D02*
X99161320Y-69602034D01*
X99018462Y-69887748D02*
X99018462Y-69287748D01*
X99247034Y-69287748D01*
X99304177Y-69316320D01*
X99332748Y-69344891D01*
X99361320Y-69402034D01*
X99361320Y-69487748D01*
X99332748Y-69544891D01*
X99304177Y-69573462D01*
X99247034Y-69602034D01*
X99018462Y-69602034D01*
X99589891Y-69344891D02*
X99618462Y-69316320D01*
X99675605Y-69287748D01*
X99818462Y-69287748D01*
X99875605Y-69316320D01*
X99904177Y-69344891D01*
X99932748Y-69402034D01*
X99932748Y-69459177D01*
X99904177Y-69544891D01*
X99561320Y-69887748D01*
X99932748Y-69887748D01*
X100626240Y-74949968D02*
X100426240Y-74664254D01*
X100283382Y-74949968D02*
X100283382Y-74349968D01*
X100511954Y-74349968D01*
X100569097Y-74378540D01*
X100597668Y-74407111D01*
X100626240Y-74464254D01*
X100626240Y-74549968D01*
X100597668Y-74607111D01*
X100569097Y-74635682D01*
X100511954Y-74664254D01*
X100283382Y-74664254D01*
X101169097Y-74349968D02*
X100883382Y-74349968D01*
X100854811Y-74635682D01*
X100883382Y-74607111D01*
X100940525Y-74578540D01*
X101083382Y-74578540D01*
X101140525Y-74607111D01*
X101169097Y-74635682D01*
X101197668Y-74692825D01*
X101197668Y-74835682D01*
X101169097Y-74892825D01*
X101140525Y-74921397D01*
X101083382Y-74949968D01*
X100940525Y-74949968D01*
X100883382Y-74921397D01*
X100854811Y-74892825D01*
X101719788Y-74949968D02*
X101719788Y-74349968D01*
X101862645Y-74349968D01*
X101948360Y-74378540D01*
X102005502Y-74435682D01*
X102034074Y-74492825D01*
X102062645Y-74607111D01*
X102062645Y-74692825D01*
X102034074Y-74807111D01*
X102005502Y-74864254D01*
X101948360Y-74921397D01*
X101862645Y-74949968D01*
X101719788Y-74949968D01*
X102634074Y-74949968D02*
X102291217Y-74949968D01*
X102462645Y-74949968D02*
X102462645Y-74349968D01*
X102405502Y-74435682D01*
X102348360Y-74492825D01*
X102291217Y-74521397D01*
X102862645Y-74407111D02*
X102891217Y-74378540D01*
X102948360Y-74349968D01*
X103091217Y-74349968D01*
X103148360Y-74378540D01*
X103176931Y-74407111D01*
X103205502Y-74464254D01*
X103205502Y-74521397D01*
X103176931Y-74607111D01*
X102834074Y-74949968D01*
X103205502Y-74949968D01*
D14*
X94933236Y-71783960D02*
X94933236Y-72498246D01*
X94885617Y-72641103D01*
X94790379Y-72736341D01*
X94647521Y-72783960D01*
X94552283Y-72783960D01*
X95933236Y-72783960D02*
X95361807Y-72783960D01*
X95647521Y-72783960D02*
X95647521Y-71783960D01*
X95552283Y-71926818D01*
X95457045Y-72022056D01*
X95361807Y-72069675D01*
X96552283Y-71783960D02*
X96647521Y-71783960D01*
X96742760Y-71831580D01*
X96790379Y-71879199D01*
X96837998Y-71974437D01*
X96885617Y-72164913D01*
X96885617Y-72403008D01*
X96837998Y-72593484D01*
X96790379Y-72688722D01*
X96742760Y-72736341D01*
X96647521Y-72783960D01*
X96552283Y-72783960D01*
X96457045Y-72736341D01*
X96409426Y-72688722D01*
X96361807Y-72593484D01*
X96314188Y-72403008D01*
X96314188Y-72164913D01*
X96361807Y-71974437D01*
X96409426Y-71879199D01*
X96457045Y-71831580D01*
X96552283Y-71783960D01*
X91324726Y-73628047D02*
X91324726Y-73151857D01*
X91610440Y-73723285D02*
X90610440Y-73389952D01*
X91610440Y-73056619D01*
X90610440Y-72866142D02*
X90610440Y-72294714D01*
X91610440Y-72580428D02*
X90610440Y-72580428D01*
X90610440Y-71770904D02*
X90610440Y-71580428D01*
X90658060Y-71485190D01*
X90753298Y-71389952D01*
X90943774Y-71342333D01*
X91277107Y-71342333D01*
X91467583Y-71389952D01*
X91562821Y-71485190D01*
X91610440Y-71580428D01*
X91610440Y-71770904D01*
X91562821Y-71866142D01*
X91467583Y-71961380D01*
X91277107Y-72009000D01*
X90943774Y-72009000D01*
X90753298Y-71961380D01*
X90658060Y-71866142D01*
X90610440Y-71770904D01*
X90705679Y-70961380D02*
X90658060Y-70913761D01*
X90610440Y-70818523D01*
X90610440Y-70580428D01*
X90658060Y-70485190D01*
X90705679Y-70437571D01*
X90800917Y-70389952D01*
X90896155Y-70389952D01*
X91039012Y-70437571D01*
X91610440Y-71009000D01*
X91610440Y-70389952D01*
X106629295Y-99528380D02*
X106629295Y-100337904D01*
X106676914Y-100433142D01*
X106724533Y-100480761D01*
X106819771Y-100528380D01*
X107010247Y-100528380D01*
X107105485Y-100480761D01*
X107153104Y-100433142D01*
X107200723Y-100337904D01*
X107200723Y-99528380D01*
X108200723Y-100528380D02*
X107629295Y-100528380D01*
X107915009Y-100528380D02*
X107915009Y-99528380D01*
X107819771Y-99671238D01*
X107724533Y-99766476D01*
X107629295Y-99814095D01*
D12*
X104474533Y-98404266D02*
X104474533Y-97704266D01*
X104741200Y-97704266D01*
X104807866Y-97737600D01*
X104841200Y-97770933D01*
X104874533Y-97837600D01*
X104874533Y-97937600D01*
X104841200Y-98004266D01*
X104807866Y-98037600D01*
X104741200Y-98070933D01*
X104474533Y-98070933D01*
X105574533Y-98337600D02*
X105541200Y-98370933D01*
X105441200Y-98404266D01*
X105374533Y-98404266D01*
X105274533Y-98370933D01*
X105207866Y-98304266D01*
X105174533Y-98237600D01*
X105141200Y-98104266D01*
X105141200Y-98004266D01*
X105174533Y-97870933D01*
X105207866Y-97804266D01*
X105274533Y-97737600D01*
X105374533Y-97704266D01*
X105441200Y-97704266D01*
X105541200Y-97737600D01*
X105574533Y-97770933D01*
X105841200Y-98204266D02*
X106174533Y-98204266D01*
X105774533Y-98404266D02*
X106007866Y-97704266D01*
X106241200Y-98404266D01*
X106507866Y-98404266D02*
X106641200Y-98404266D01*
X106707866Y-98370933D01*
X106741200Y-98337600D01*
X106807866Y-98237600D01*
X106841200Y-98104266D01*
X106841200Y-97837600D01*
X106807866Y-97770933D01*
X106774533Y-97737600D01*
X106707866Y-97704266D01*
X106574533Y-97704266D01*
X106507866Y-97737600D01*
X106474533Y-97770933D01*
X106441200Y-97837600D01*
X106441200Y-98004266D01*
X106474533Y-98070933D01*
X106507866Y-98104266D01*
X106574533Y-98137600D01*
X106707866Y-98137600D01*
X106774533Y-98104266D01*
X106807866Y-98070933D01*
X106841200Y-98004266D01*
X107441200Y-97704266D02*
X107307866Y-97704266D01*
X107241200Y-97737600D01*
X107207866Y-97770933D01*
X107141200Y-97870933D01*
X107107866Y-98004266D01*
X107107866Y-98270933D01*
X107141200Y-98337600D01*
X107174533Y-98370933D01*
X107241200Y-98404266D01*
X107374533Y-98404266D01*
X107441200Y-98370933D01*
X107474533Y-98337600D01*
X107507866Y-98270933D01*
X107507866Y-98104266D01*
X107474533Y-98037600D01*
X107441200Y-98004266D01*
X107374533Y-97970933D01*
X107241200Y-97970933D01*
X107174533Y-98004266D01*
X107141200Y-98037600D01*
X107107866Y-98104266D01*
X107907866Y-98004266D02*
X107841200Y-97970933D01*
X107807866Y-97937600D01*
X107774533Y-97870933D01*
X107774533Y-97837600D01*
X107807866Y-97770933D01*
X107841200Y-97737600D01*
X107907866Y-97704266D01*
X108041200Y-97704266D01*
X108107866Y-97737600D01*
X108141200Y-97770933D01*
X108174533Y-97837600D01*
X108174533Y-97870933D01*
X108141200Y-97937600D01*
X108107866Y-97970933D01*
X108041200Y-98004266D01*
X107907866Y-98004266D01*
X107841200Y-98037600D01*
X107807866Y-98070933D01*
X107774533Y-98137600D01*
X107774533Y-98270933D01*
X107807866Y-98337600D01*
X107841200Y-98370933D01*
X107907866Y-98404266D01*
X108041200Y-98404266D01*
X108107866Y-98370933D01*
X108141200Y-98337600D01*
X108174533Y-98270933D01*
X108174533Y-98137600D01*
X108141200Y-98070933D01*
X108107866Y-98037600D01*
X108041200Y-98004266D01*
X108807866Y-97704266D02*
X108474533Y-97704266D01*
X108441200Y-98037600D01*
X108474533Y-98004266D01*
X108541200Y-97970933D01*
X108707866Y-97970933D01*
X108774533Y-98004266D01*
X108807866Y-98037600D01*
X108841200Y-98104266D01*
X108841200Y-98270933D01*
X108807866Y-98337600D01*
X108774533Y-98370933D01*
X108707866Y-98404266D01*
X108541200Y-98404266D01*
X108474533Y-98370933D01*
X108441200Y-98337600D01*
X109141200Y-98404266D02*
X109141200Y-97704266D01*
X109407866Y-97704266D01*
X109474533Y-97737600D01*
X109507866Y-97770933D01*
X109541200Y-97837600D01*
X109541200Y-97937600D01*
X109507866Y-98004266D01*
X109474533Y-98037600D01*
X109407866Y-98070933D01*
X109141200Y-98070933D01*
X109774533Y-97704266D02*
X109941200Y-98404266D01*
X110074533Y-97904266D01*
X110207866Y-98404266D01*
X110374533Y-97704266D01*
D14*
X81338095Y-64852380D02*
X81338095Y-63852380D01*
X81338095Y-64328571D02*
X81909523Y-64328571D01*
X81909523Y-64852380D02*
X81909523Y-63852380D01*
X82909523Y-64852380D02*
X82338095Y-64852380D01*
X82623809Y-64852380D02*
X82623809Y-63852380D01*
X82528571Y-63995238D01*
X82433333Y-64090476D01*
X82338095Y-64138095D01*
X139338095Y-64872380D02*
X139338095Y-63872380D01*
X139338095Y-64348571D02*
X139909523Y-64348571D01*
X139909523Y-64872380D02*
X139909523Y-63872380D01*
X140338095Y-63967619D02*
X140385714Y-63920000D01*
X140480952Y-63872380D01*
X140719047Y-63872380D01*
X140814285Y-63920000D01*
X140861904Y-63967619D01*
X140909523Y-64062857D01*
X140909523Y-64158095D01*
X140861904Y-64300952D01*
X140290476Y-64872380D01*
X140909523Y-64872380D01*
X81338095Y-113862380D02*
X81338095Y-112862380D01*
X81338095Y-113338571D02*
X81909523Y-113338571D01*
X81909523Y-113862380D02*
X81909523Y-112862380D01*
X82290476Y-112862380D02*
X82909523Y-112862380D01*
X82576190Y-113243333D01*
X82719047Y-113243333D01*
X82814285Y-113290952D01*
X82861904Y-113338571D01*
X82909523Y-113433809D01*
X82909523Y-113671904D01*
X82861904Y-113767142D01*
X82814285Y-113814761D01*
X82719047Y-113862380D01*
X82433333Y-113862380D01*
X82338095Y-113814761D01*
X82290476Y-113767142D01*
X139328095Y-113852380D02*
X139328095Y-112852380D01*
X139328095Y-113328571D02*
X139899523Y-113328571D01*
X139899523Y-113852380D02*
X139899523Y-112852380D01*
X140804285Y-113185714D02*
X140804285Y-113852380D01*
X140566190Y-112804761D02*
X140328095Y-113519047D01*
X140947142Y-113519047D01*
X93241880Y-114093523D02*
X93956166Y-114093523D01*
X94099023Y-114141142D01*
X94194261Y-114236380D01*
X94241880Y-114379238D01*
X94241880Y-114474476D01*
X94241880Y-113093523D02*
X94241880Y-113664952D01*
X94241880Y-113379238D02*
X93241880Y-113379238D01*
X93384738Y-113474476D01*
X93479976Y-113569714D01*
X93527595Y-113664952D01*
X93241880Y-112760190D02*
X93241880Y-112141142D01*
X93622833Y-112474476D01*
X93622833Y-112331619D01*
X93670452Y-112236380D01*
X93718071Y-112188761D01*
X93813309Y-112141142D01*
X94051404Y-112141142D01*
X94146642Y-112188761D01*
X94194261Y-112236380D01*
X94241880Y-112331619D01*
X94241880Y-112617333D01*
X94194261Y-112712571D01*
X94146642Y-112760190D01*
X87685857Y-115149380D02*
X87209666Y-115149380D01*
X87162047Y-115625571D01*
X87209666Y-115577952D01*
X87304904Y-115530333D01*
X87543000Y-115530333D01*
X87638238Y-115577952D01*
X87685857Y-115625571D01*
X87733476Y-115720809D01*
X87733476Y-115958904D01*
X87685857Y-116054142D01*
X87638238Y-116101761D01*
X87543000Y-116149380D01*
X87304904Y-116149380D01*
X87209666Y-116101761D01*
X87162047Y-116054142D01*
X88066809Y-115482714D02*
X88304904Y-116149380D01*
X88543000Y-115482714D01*
X88923952Y-116149380D02*
X88923952Y-115149380D01*
X89304904Y-115149380D01*
X89400142Y-115197000D01*
X89447761Y-115244619D01*
X89495380Y-115339857D01*
X89495380Y-115482714D01*
X89447761Y-115577952D01*
X89400142Y-115625571D01*
X89304904Y-115673190D01*
X88923952Y-115673190D01*
X90066809Y-116149380D02*
X89971571Y-116101761D01*
X89923952Y-116054142D01*
X89876333Y-115958904D01*
X89876333Y-115673190D01*
X89923952Y-115577952D01*
X89971571Y-115530333D01*
X90066809Y-115482714D01*
X90209666Y-115482714D01*
X90304904Y-115530333D01*
X90352523Y-115577952D01*
X90400142Y-115673190D01*
X90400142Y-115958904D01*
X90352523Y-116054142D01*
X90304904Y-116101761D01*
X90209666Y-116149380D01*
X90066809Y-116149380D01*
X90733476Y-115482714D02*
X90923952Y-116149380D01*
X91114428Y-115673190D01*
X91304904Y-116149380D01*
X91495380Y-115482714D01*
X92257285Y-116101761D02*
X92162047Y-116149380D01*
X91971571Y-116149380D01*
X91876333Y-116101761D01*
X91828714Y-116006523D01*
X91828714Y-115625571D01*
X91876333Y-115530333D01*
X91971571Y-115482714D01*
X92162047Y-115482714D01*
X92257285Y-115530333D01*
X92304904Y-115625571D01*
X92304904Y-115720809D01*
X91828714Y-115816047D01*
X92733476Y-116149380D02*
X92733476Y-115482714D01*
X92733476Y-115673190D02*
X92781095Y-115577952D01*
X92828714Y-115530333D01*
X92923952Y-115482714D01*
X93019190Y-115482714D01*
X112988339Y-88122855D02*
X112178815Y-88122855D01*
X112083577Y-88170474D01*
X112035958Y-88218093D01*
X111988339Y-88313331D01*
X111988339Y-88503807D01*
X112035958Y-88599045D01*
X112083577Y-88646664D01*
X112178815Y-88694283D01*
X112988339Y-88694283D01*
X112988339Y-89075236D02*
X112988339Y-89694283D01*
X112607386Y-89360950D01*
X112607386Y-89503807D01*
X112559767Y-89599045D01*
X112512148Y-89646664D01*
X112416910Y-89694283D01*
X112178815Y-89694283D01*
X112083577Y-89646664D01*
X112035958Y-89599045D01*
X111988339Y-89503807D01*
X111988339Y-89218093D01*
X112035958Y-89122855D01*
X112083577Y-89075236D01*
X116127020Y-88614000D02*
X116127020Y-89423524D01*
X116174640Y-89518762D01*
X116222259Y-89566381D01*
X116317497Y-89614000D01*
X116507973Y-89614000D01*
X116603211Y-89566381D01*
X116650830Y-89518762D01*
X116698449Y-89423524D01*
X116698449Y-88614000D01*
X117650830Y-89614000D02*
X117174640Y-89614000D01*
X117174640Y-88614000D01*
X117984163Y-89614000D02*
X117984163Y-88614000D01*
X118555592Y-89614000D01*
X118555592Y-88614000D01*
X118984163Y-88709239D02*
X119031782Y-88661620D01*
X119127020Y-88614000D01*
X119365116Y-88614000D01*
X119460354Y-88661620D01*
X119507973Y-88709239D01*
X119555592Y-88804477D01*
X119555592Y-88899715D01*
X119507973Y-89042572D01*
X118936544Y-89614000D01*
X119555592Y-89614000D01*
X120127020Y-89042572D02*
X120031782Y-88994953D01*
X119984163Y-88947334D01*
X119936544Y-88852096D01*
X119936544Y-88804477D01*
X119984163Y-88709239D01*
X120031782Y-88661620D01*
X120127020Y-88614000D01*
X120317497Y-88614000D01*
X120412735Y-88661620D01*
X120460354Y-88709239D01*
X120507973Y-88804477D01*
X120507973Y-88852096D01*
X120460354Y-88947334D01*
X120412735Y-88994953D01*
X120317497Y-89042572D01*
X120127020Y-89042572D01*
X120031782Y-89090191D01*
X119984163Y-89137810D01*
X119936544Y-89233048D01*
X119936544Y-89423524D01*
X119984163Y-89518762D01*
X120031782Y-89566381D01*
X120127020Y-89614000D01*
X120317497Y-89614000D01*
X120412735Y-89566381D01*
X120460354Y-89518762D01*
X120507973Y-89423524D01*
X120507973Y-89233048D01*
X120460354Y-89137810D01*
X120412735Y-89090191D01*
X120317497Y-89042572D01*
X121127020Y-88614000D02*
X121222259Y-88614000D01*
X121317497Y-88661620D01*
X121365116Y-88709239D01*
X121412735Y-88804477D01*
X121460354Y-88994953D01*
X121460354Y-89233048D01*
X121412735Y-89423524D01*
X121365116Y-89518762D01*
X121317497Y-89566381D01*
X121222259Y-89614000D01*
X121127020Y-89614000D01*
X121031782Y-89566381D01*
X120984163Y-89518762D01*
X120936544Y-89423524D01*
X120888925Y-89233048D01*
X120888925Y-88994953D01*
X120936544Y-88804477D01*
X120984163Y-88709239D01*
X121031782Y-88661620D01*
X121127020Y-88614000D01*
X121793687Y-88614000D02*
X122412735Y-88614000D01*
X122079401Y-88994953D01*
X122222259Y-88994953D01*
X122317497Y-89042572D01*
X122365116Y-89090191D01*
X122412735Y-89185429D01*
X122412735Y-89423524D01*
X122365116Y-89518762D01*
X122317497Y-89566381D01*
X122222259Y-89614000D01*
X121936544Y-89614000D01*
X121841306Y-89566381D01*
X121793687Y-89518762D01*
X122793687Y-89328286D02*
X123269878Y-89328286D01*
X122698449Y-89614000D02*
X123031782Y-88614000D01*
X123365116Y-89614000D01*
X96828313Y-108878642D02*
X96780694Y-108926261D01*
X96637837Y-108973880D01*
X96542599Y-108973880D01*
X96399741Y-108926261D01*
X96304503Y-108831023D01*
X96256884Y-108735785D01*
X96209265Y-108545309D01*
X96209265Y-108402452D01*
X96256884Y-108211976D01*
X96304503Y-108116738D01*
X96399741Y-108021500D01*
X96542599Y-107973880D01*
X96637837Y-107973880D01*
X96780694Y-108021500D01*
X96828313Y-108069119D01*
X97780694Y-108973880D02*
X97209265Y-108973880D01*
X97494980Y-108973880D02*
X97494980Y-107973880D01*
X97399741Y-108116738D01*
X97304503Y-108211976D01*
X97209265Y-108259595D01*
X96272741Y-112606080D02*
X95701313Y-112606080D01*
X95987027Y-112606080D02*
X95987027Y-111606080D01*
X95891789Y-111748938D01*
X95796551Y-111844176D01*
X95701313Y-111891795D01*
X97129884Y-111939414D02*
X97129884Y-112606080D01*
X96701313Y-111939414D02*
X96701313Y-112463223D01*
X96748932Y-112558461D01*
X96844170Y-112606080D01*
X96987027Y-112606080D01*
X97082265Y-112558461D01*
X97129884Y-112510842D01*
X97939408Y-112082271D02*
X97606075Y-112082271D01*
X97606075Y-112606080D02*
X97606075Y-111606080D01*
X98082265Y-111606080D01*
X139415780Y-85459580D02*
X138415780Y-85459580D01*
X138415780Y-85078628D01*
X138463400Y-84983390D01*
X138511019Y-84935771D01*
X138606257Y-84888152D01*
X138749114Y-84888152D01*
X138844352Y-84935771D01*
X138891971Y-84983390D01*
X138939590Y-85078628D01*
X138939590Y-85459580D01*
X139415780Y-84316723D02*
X139368161Y-84411961D01*
X139320542Y-84459580D01*
X139225304Y-84507200D01*
X138939590Y-84507200D01*
X138844352Y-84459580D01*
X138796733Y-84411961D01*
X138749114Y-84316723D01*
X138749114Y-84173866D01*
X138796733Y-84078628D01*
X138844352Y-84031009D01*
X138939590Y-83983390D01*
X139225304Y-83983390D01*
X139320542Y-84031009D01*
X139368161Y-84078628D01*
X139415780Y-84173866D01*
X139415780Y-84316723D01*
X138749114Y-83650057D02*
X139415780Y-83459580D01*
X138939590Y-83269104D01*
X139415780Y-83078628D01*
X138749114Y-82888152D01*
X139368161Y-82126247D02*
X139415780Y-82221485D01*
X139415780Y-82411961D01*
X139368161Y-82507200D01*
X139272923Y-82554819D01*
X138891971Y-82554819D01*
X138796733Y-82507200D01*
X138749114Y-82411961D01*
X138749114Y-82221485D01*
X138796733Y-82126247D01*
X138891971Y-82078628D01*
X138987209Y-82078628D01*
X139082447Y-82554819D01*
X139415780Y-81650057D02*
X138749114Y-81650057D01*
X138939590Y-81650057D02*
X138844352Y-81602438D01*
X138796733Y-81554819D01*
X138749114Y-81459580D01*
X138749114Y-81364342D01*
X139415780Y-80507200D02*
X139415780Y-81078628D01*
X139415780Y-80792914D02*
X138415780Y-80792914D01*
X138558638Y-80888152D01*
X138653876Y-80983390D01*
X138701495Y-81078628D01*
X125761500Y-113609713D02*
X126475786Y-113609713D01*
X126618643Y-113657332D01*
X126713881Y-113752570D01*
X126761500Y-113895427D01*
X126761500Y-113990665D01*
X125761500Y-112657332D02*
X125761500Y-113133522D01*
X126237691Y-113181141D01*
X126190072Y-113133522D01*
X126142453Y-113038284D01*
X126142453Y-112800189D01*
X126190072Y-112704951D01*
X126237691Y-112657332D01*
X126332929Y-112609713D01*
X126571024Y-112609713D01*
X126666262Y-112657332D01*
X126713881Y-112704951D01*
X126761500Y-112800189D01*
X126761500Y-113038284D01*
X126713881Y-113133522D01*
X126666262Y-113181141D01*
X119903905Y-116205260D02*
X119332477Y-116205260D01*
X119618191Y-116205260D02*
X119618191Y-115205260D01*
X119522953Y-115348118D01*
X119427715Y-115443356D01*
X119332477Y-115490975D01*
X120284858Y-115300499D02*
X120332477Y-115252880D01*
X120427715Y-115205260D01*
X120665810Y-115205260D01*
X120761048Y-115252880D01*
X120808667Y-115300499D01*
X120856286Y-115395737D01*
X120856286Y-115490975D01*
X120808667Y-115633832D01*
X120237239Y-116205260D01*
X120856286Y-116205260D01*
X121189620Y-115538594D02*
X121427715Y-116205260D01*
X121665810Y-115538594D01*
X122046762Y-116205260D02*
X122046762Y-115205260D01*
X122427715Y-115205260D01*
X122522953Y-115252880D01*
X122570572Y-115300499D01*
X122618191Y-115395737D01*
X122618191Y-115538594D01*
X122570572Y-115633832D01*
X122522953Y-115681451D01*
X122427715Y-115729070D01*
X122046762Y-115729070D01*
X123189620Y-116205260D02*
X123094381Y-116157641D01*
X123046762Y-116110022D01*
X122999143Y-116014784D01*
X122999143Y-115729070D01*
X123046762Y-115633832D01*
X123094381Y-115586213D01*
X123189620Y-115538594D01*
X123332477Y-115538594D01*
X123427715Y-115586213D01*
X123475334Y-115633832D01*
X123522953Y-115729070D01*
X123522953Y-116014784D01*
X123475334Y-116110022D01*
X123427715Y-116157641D01*
X123332477Y-116205260D01*
X123189620Y-116205260D01*
X123856286Y-115538594D02*
X124046762Y-116205260D01*
X124237239Y-115729070D01*
X124427715Y-116205260D01*
X124618191Y-115538594D01*
X125380096Y-116157641D02*
X125284858Y-116205260D01*
X125094381Y-116205260D01*
X124999143Y-116157641D01*
X124951524Y-116062403D01*
X124951524Y-115681451D01*
X124999143Y-115586213D01*
X125094381Y-115538594D01*
X125284858Y-115538594D01*
X125380096Y-115586213D01*
X125427715Y-115681451D01*
X125427715Y-115776689D01*
X124951524Y-115871927D01*
X125856286Y-116205260D02*
X125856286Y-115538594D01*
X125856286Y-115729070D02*
X125903905Y-115633832D01*
X125951524Y-115586213D01*
X126046762Y-115538594D01*
X126142000Y-115538594D01*
X126229786Y-107966260D02*
X126229786Y-108680546D01*
X126182167Y-108823403D01*
X126086929Y-108918641D01*
X125944072Y-108966260D01*
X125848834Y-108966260D01*
X127134548Y-107966260D02*
X126944072Y-107966260D01*
X126848834Y-108013880D01*
X126801215Y-108061499D01*
X126705977Y-108204356D01*
X126658358Y-108394832D01*
X126658358Y-108775784D01*
X126705977Y-108871022D01*
X126753596Y-108918641D01*
X126848834Y-108966260D01*
X127039310Y-108966260D01*
X127134548Y-108918641D01*
X127182167Y-108871022D01*
X127229786Y-108775784D01*
X127229786Y-108537689D01*
X127182167Y-108442451D01*
X127134548Y-108394832D01*
X127039310Y-108347213D01*
X126848834Y-108347213D01*
X126753596Y-108394832D01*
X126705977Y-108442451D01*
X126658358Y-108537689D01*
X120046739Y-96837760D02*
X120046739Y-95837760D01*
X120427691Y-95837760D01*
X120522929Y-95885380D01*
X120570548Y-95932999D01*
X120618167Y-96028237D01*
X120618167Y-96171094D01*
X120570548Y-96266332D01*
X120522929Y-96313951D01*
X120427691Y-96361570D01*
X120046739Y-96361570D01*
X121189596Y-96837760D02*
X121094358Y-96790141D01*
X121046739Y-96742522D01*
X120999120Y-96647284D01*
X120999120Y-96361570D01*
X121046739Y-96266332D01*
X121094358Y-96218713D01*
X121189596Y-96171094D01*
X121332453Y-96171094D01*
X121427691Y-96218713D01*
X121475310Y-96266332D01*
X121522929Y-96361570D01*
X121522929Y-96647284D01*
X121475310Y-96742522D01*
X121427691Y-96790141D01*
X121332453Y-96837760D01*
X121189596Y-96837760D01*
X121856262Y-96171094D02*
X122046739Y-96837760D01*
X122237215Y-96361570D01*
X122427691Y-96837760D01*
X122618167Y-96171094D01*
X123380072Y-96790141D02*
X123284834Y-96837760D01*
X123094358Y-96837760D01*
X122999120Y-96790141D01*
X122951500Y-96694903D01*
X122951500Y-96313951D01*
X122999120Y-96218713D01*
X123094358Y-96171094D01*
X123284834Y-96171094D01*
X123380072Y-96218713D01*
X123427691Y-96313951D01*
X123427691Y-96409189D01*
X122951500Y-96504427D01*
X123856262Y-96837760D02*
X123856262Y-96171094D01*
X123856262Y-96361570D02*
X123903881Y-96266332D01*
X123951500Y-96218713D01*
X124046739Y-96171094D01*
X124141977Y-96171094D01*
X124427691Y-95932999D02*
X124475310Y-95885380D01*
X124570548Y-95837760D01*
X124808643Y-95837760D01*
X124903881Y-95885380D01*
X124951500Y-95932999D01*
X124999120Y-96028237D01*
X124999120Y-96123475D01*
X124951500Y-96266332D01*
X124380072Y-96837760D01*
X124999120Y-96837760D01*
D16*
X99442600Y-76580648D02*
X99242600Y-76294934D01*
X99099742Y-76580648D02*
X99099742Y-75980648D01*
X99328314Y-75980648D01*
X99385457Y-76009220D01*
X99414028Y-76037791D01*
X99442600Y-76094934D01*
X99442600Y-76180648D01*
X99414028Y-76237791D01*
X99385457Y-76266362D01*
X99328314Y-76294934D01*
X99099742Y-76294934D01*
X100014028Y-76580648D02*
X99671171Y-76580648D01*
X99842600Y-76580648D02*
X99842600Y-75980648D01*
X99785457Y-76066362D01*
X99728314Y-76123505D01*
X99671171Y-76152077D01*
D14*
X103643204Y-79626720D02*
X103643204Y-78626720D01*
X103881300Y-78626720D01*
X104024157Y-78674340D01*
X104119395Y-78769578D01*
X104167014Y-78864816D01*
X104214633Y-79055292D01*
X104214633Y-79198149D01*
X104167014Y-79388625D01*
X104119395Y-79483863D01*
X104024157Y-79579101D01*
X103881300Y-79626720D01*
X103643204Y-79626720D01*
X104595585Y-78721959D02*
X104643204Y-78674340D01*
X104738442Y-78626720D01*
X104976538Y-78626720D01*
X105071776Y-78674340D01*
X105119395Y-78721959D01*
X105167014Y-78817197D01*
X105167014Y-78912435D01*
X105119395Y-79055292D01*
X104547966Y-79626720D01*
X105167014Y-79626720D01*
X103734644Y-72618860D02*
X103734644Y-71618860D01*
X103972740Y-71618860D01*
X104115597Y-71666480D01*
X104210835Y-71761718D01*
X104258454Y-71856956D01*
X104306073Y-72047432D01*
X104306073Y-72190289D01*
X104258454Y-72380765D01*
X104210835Y-72476003D01*
X104115597Y-72571241D01*
X103972740Y-72618860D01*
X103734644Y-72618860D01*
X105163216Y-71618860D02*
X104972740Y-71618860D01*
X104877501Y-71666480D01*
X104829882Y-71714099D01*
X104734644Y-71856956D01*
X104687025Y-72047432D01*
X104687025Y-72428384D01*
X104734644Y-72523622D01*
X104782263Y-72571241D01*
X104877501Y-72618860D01*
X105067978Y-72618860D01*
X105163216Y-72571241D01*
X105210835Y-72523622D01*
X105258454Y-72428384D01*
X105258454Y-72190289D01*
X105210835Y-72095051D01*
X105163216Y-72047432D01*
X105067978Y-71999813D01*
X104877501Y-71999813D01*
X104782263Y-72047432D01*
X104734644Y-72095051D01*
X104687025Y-72190289D01*
X112650994Y-115866206D02*
X113127184Y-115866206D01*
X112555756Y-116151920D02*
X112889089Y-115151920D01*
X113222422Y-116151920D01*
X113746232Y-115151920D02*
X113841470Y-115151920D01*
X113936708Y-115199540D01*
X113984327Y-115247159D01*
X114031946Y-115342397D01*
X114079565Y-115532873D01*
X114079565Y-115770968D01*
X114031946Y-115961444D01*
X113984327Y-116056682D01*
X113936708Y-116104301D01*
X113841470Y-116151920D01*
X113746232Y-116151920D01*
X113650994Y-116104301D01*
X113603375Y-116056682D01*
X113555756Y-115961444D01*
X113508137Y-115770968D01*
X113508137Y-115532873D01*
X113555756Y-115342397D01*
X113603375Y-115247159D01*
X113650994Y-115199540D01*
X113746232Y-115151920D01*
X110085594Y-115866206D02*
X110561784Y-115866206D01*
X109990356Y-116151920D02*
X110323689Y-115151920D01*
X110657022Y-116151920D01*
X111514165Y-116151920D02*
X110942737Y-116151920D01*
X111228451Y-116151920D02*
X111228451Y-115151920D01*
X111133213Y-115294778D01*
X111037975Y-115390016D01*
X110942737Y-115437635D01*
X107494794Y-115866206D02*
X107970984Y-115866206D01*
X107399556Y-116151920D02*
X107732889Y-115151920D01*
X108066222Y-116151920D01*
X108351937Y-115247159D02*
X108399556Y-115199540D01*
X108494794Y-115151920D01*
X108732889Y-115151920D01*
X108828127Y-115199540D01*
X108875746Y-115247159D01*
X108923365Y-115342397D01*
X108923365Y-115437635D01*
X108875746Y-115580492D01*
X108304318Y-116151920D01*
X108923365Y-116151920D01*
X104903994Y-115864006D02*
X105380184Y-115864006D01*
X104808756Y-116149720D02*
X105142089Y-115149720D01*
X105475422Y-116149720D01*
X105713518Y-115149720D02*
X106332565Y-115149720D01*
X105999232Y-115530673D01*
X106142089Y-115530673D01*
X106237327Y-115578292D01*
X106284946Y-115625911D01*
X106332565Y-115721149D01*
X106332565Y-115959244D01*
X106284946Y-116054482D01*
X106237327Y-116102101D01*
X106142089Y-116149720D01*
X105856375Y-116149720D01*
X105761137Y-116102101D01*
X105713518Y-116054482D01*
X112517180Y-107804816D02*
X112040990Y-108138149D01*
X112517180Y-108376244D02*
X111517180Y-108376244D01*
X111517180Y-107995292D01*
X111564800Y-107900054D01*
X111612419Y-107852435D01*
X111707657Y-107804816D01*
X111850514Y-107804816D01*
X111945752Y-107852435D01*
X111993371Y-107900054D01*
X112040990Y-107995292D01*
X112040990Y-108376244D01*
X112517180Y-107376244D02*
X111517180Y-107376244D01*
X112517180Y-106804816D01*
X111517180Y-106804816D01*
X111612419Y-106376244D02*
X111564800Y-106328625D01*
X111517180Y-106233387D01*
X111517180Y-105995292D01*
X111564800Y-105900054D01*
X111612419Y-105852435D01*
X111707657Y-105804816D01*
X111802895Y-105804816D01*
X111945752Y-105852435D01*
X112517180Y-106423863D01*
X112517180Y-105804816D01*
X117825780Y-107887378D02*
X117825780Y-108458806D01*
X117825780Y-108173092D02*
X116825780Y-108173092D01*
X116968638Y-108268330D01*
X117063876Y-108363568D01*
X117111495Y-108458806D01*
X116825780Y-107268330D02*
X116825780Y-107173092D01*
X116873400Y-107077854D01*
X116921019Y-107030235D01*
X117016257Y-106982616D01*
X117206733Y-106934997D01*
X117444828Y-106934997D01*
X117635304Y-106982616D01*
X117730542Y-107030235D01*
X117778161Y-107077854D01*
X117825780Y-107173092D01*
X117825780Y-107268330D01*
X117778161Y-107363568D01*
X117730542Y-107411187D01*
X117635304Y-107458806D01*
X117444828Y-107506425D01*
X117206733Y-107506425D01*
X117016257Y-107458806D01*
X116921019Y-107411187D01*
X116873400Y-107363568D01*
X116825780Y-107268330D01*
X117825780Y-106506425D02*
X116825780Y-106506425D01*
X117444828Y-106411187D02*
X117825780Y-106125473D01*
X117159114Y-106125473D02*
X117540066Y-106506425D01*
X105242620Y-96009356D02*
X104766430Y-96342689D01*
X105242620Y-96580784D02*
X104242620Y-96580784D01*
X104242620Y-96199832D01*
X104290240Y-96104594D01*
X104337859Y-96056975D01*
X104433097Y-96009356D01*
X104575954Y-96009356D01*
X104671192Y-96056975D01*
X104718811Y-96104594D01*
X104766430Y-96199832D01*
X104766430Y-96580784D01*
X105242620Y-95580784D02*
X104242620Y-95580784D01*
X105242620Y-95009356D01*
X104242620Y-95009356D01*
X104242620Y-94628403D02*
X104242620Y-94009356D01*
X104623573Y-94342689D01*
X104623573Y-94199832D01*
X104671192Y-94104594D01*
X104718811Y-94056975D01*
X104814049Y-94009356D01*
X105052144Y-94009356D01*
X105147382Y-94056975D01*
X105195001Y-94104594D01*
X105242620Y-94199832D01*
X105242620Y-94485546D01*
X105195001Y-94580784D01*
X105147382Y-94628403D01*
X109570259Y-96785575D02*
X109522640Y-96737956D01*
X109475020Y-96642718D01*
X109475020Y-96404622D01*
X109522640Y-96309384D01*
X109570259Y-96261765D01*
X109665497Y-96214146D01*
X109760735Y-96214146D01*
X109903592Y-96261765D01*
X110475020Y-96833194D01*
X110475020Y-96214146D01*
X109570259Y-95833194D02*
X109522640Y-95785575D01*
X109475020Y-95690337D01*
X109475020Y-95452241D01*
X109522640Y-95357003D01*
X109570259Y-95309384D01*
X109665497Y-95261765D01*
X109760735Y-95261765D01*
X109903592Y-95309384D01*
X110475020Y-95880813D01*
X110475020Y-95261765D01*
X109475020Y-94642718D02*
X109475020Y-94547480D01*
X109522640Y-94452241D01*
X109570259Y-94404622D01*
X109665497Y-94357003D01*
X109855973Y-94309384D01*
X110094068Y-94309384D01*
X110284544Y-94357003D01*
X110379782Y-94404622D01*
X110427401Y-94452241D01*
X110475020Y-94547480D01*
X110475020Y-94642718D01*
X110427401Y-94737956D01*
X110379782Y-94785575D01*
X110284544Y-94833194D01*
X110094068Y-94880813D01*
X109855973Y-94880813D01*
X109665497Y-94833194D01*
X109570259Y-94785575D01*
X109522640Y-94737956D01*
X109475020Y-94642718D01*
X95829380Y-101972976D02*
X95353190Y-102306309D01*
X95829380Y-102544404D02*
X94829380Y-102544404D01*
X94829380Y-102163452D01*
X94877000Y-102068214D01*
X94924619Y-102020595D01*
X95019857Y-101972976D01*
X95162714Y-101972976D01*
X95257952Y-102020595D01*
X95305571Y-102068214D01*
X95353190Y-102163452D01*
X95353190Y-102544404D01*
X95829380Y-101544404D02*
X94829380Y-101544404D01*
X95829380Y-100972976D01*
X94829380Y-100972976D01*
X95162714Y-100068214D02*
X95829380Y-100068214D01*
X94781761Y-100306309D02*
X95496047Y-100544404D01*
X95496047Y-99925357D01*
X100030019Y-102533295D02*
X99982400Y-102485676D01*
X99934780Y-102390438D01*
X99934780Y-102152342D01*
X99982400Y-102057104D01*
X100030019Y-102009485D01*
X100125257Y-101961866D01*
X100220495Y-101961866D01*
X100363352Y-102009485D01*
X100934780Y-102580914D01*
X100934780Y-101961866D01*
X100030019Y-101580914D02*
X99982400Y-101533295D01*
X99934780Y-101438057D01*
X99934780Y-101199961D01*
X99982400Y-101104723D01*
X100030019Y-101057104D01*
X100125257Y-101009485D01*
X100220495Y-101009485D01*
X100363352Y-101057104D01*
X100934780Y-101628533D01*
X100934780Y-101009485D01*
X99934780Y-100390438D02*
X99934780Y-100295200D01*
X99982400Y-100199961D01*
X100030019Y-100152342D01*
X100125257Y-100104723D01*
X100315733Y-100057104D01*
X100553828Y-100057104D01*
X100744304Y-100104723D01*
X100839542Y-100152342D01*
X100887161Y-100199961D01*
X100934780Y-100295200D01*
X100934780Y-100390438D01*
X100887161Y-100485676D01*
X100839542Y-100533295D01*
X100744304Y-100580914D01*
X100553828Y-100628533D01*
X100315733Y-100628533D01*
X100125257Y-100580914D01*
X100030019Y-100533295D01*
X99982400Y-100485676D01*
X99934780Y-100390438D01*
X95765880Y-97908976D02*
X95289690Y-98242309D01*
X95765880Y-98480404D02*
X94765880Y-98480404D01*
X94765880Y-98099452D01*
X94813500Y-98004214D01*
X94861119Y-97956595D01*
X94956357Y-97908976D01*
X95099214Y-97908976D01*
X95194452Y-97956595D01*
X95242071Y-98004214D01*
X95289690Y-98099452D01*
X95289690Y-98480404D01*
X95765880Y-97480404D02*
X94765880Y-97480404D01*
X95765880Y-96908976D01*
X94765880Y-96908976D01*
X94765880Y-95956595D02*
X94765880Y-96432785D01*
X95242071Y-96480404D01*
X95194452Y-96432785D01*
X95146833Y-96337547D01*
X95146833Y-96099452D01*
X95194452Y-96004214D01*
X95242071Y-95956595D01*
X95337309Y-95908976D01*
X95575404Y-95908976D01*
X95670642Y-95956595D01*
X95718261Y-96004214D01*
X95765880Y-96099452D01*
X95765880Y-96337547D01*
X95718261Y-96432785D01*
X95670642Y-96480404D01*
X100004619Y-98418495D02*
X99957000Y-98370876D01*
X99909380Y-98275638D01*
X99909380Y-98037542D01*
X99957000Y-97942304D01*
X100004619Y-97894685D01*
X100099857Y-97847066D01*
X100195095Y-97847066D01*
X100337952Y-97894685D01*
X100909380Y-98466114D01*
X100909380Y-97847066D01*
X100004619Y-97466114D02*
X99957000Y-97418495D01*
X99909380Y-97323257D01*
X99909380Y-97085161D01*
X99957000Y-96989923D01*
X100004619Y-96942304D01*
X100099857Y-96894685D01*
X100195095Y-96894685D01*
X100337952Y-96942304D01*
X100909380Y-97513733D01*
X100909380Y-96894685D01*
X99909380Y-96275638D02*
X99909380Y-96180400D01*
X99957000Y-96085161D01*
X100004619Y-96037542D01*
X100099857Y-95989923D01*
X100290333Y-95942304D01*
X100528428Y-95942304D01*
X100718904Y-95989923D01*
X100814142Y-96037542D01*
X100861761Y-96085161D01*
X100909380Y-96180400D01*
X100909380Y-96275638D01*
X100861761Y-96370876D01*
X100814142Y-96418495D01*
X100718904Y-96466114D01*
X100528428Y-96513733D01*
X100290333Y-96513733D01*
X100099857Y-96466114D01*
X100004619Y-96418495D01*
X99957000Y-96370876D01*
X99909380Y-96275638D01*
X134060620Y-89637616D02*
X133584430Y-89970949D01*
X134060620Y-90209044D02*
X133060620Y-90209044D01*
X133060620Y-89828092D01*
X133108240Y-89732854D01*
X133155859Y-89685235D01*
X133251097Y-89637616D01*
X133393954Y-89637616D01*
X133489192Y-89685235D01*
X133536811Y-89732854D01*
X133584430Y-89828092D01*
X133584430Y-90209044D01*
X134060620Y-89209044D02*
X133060620Y-89209044D01*
X134060620Y-88637616D01*
X133060620Y-88637616D01*
X133060620Y-87732854D02*
X133060620Y-87923330D01*
X133108240Y-88018568D01*
X133155859Y-88066187D01*
X133298716Y-88161425D01*
X133489192Y-88209044D01*
X133870144Y-88209044D01*
X133965382Y-88161425D01*
X134013001Y-88113806D01*
X134060620Y-88018568D01*
X134060620Y-87828092D01*
X134013001Y-87732854D01*
X133965382Y-87685235D01*
X133870144Y-87637616D01*
X133632049Y-87637616D01*
X133536811Y-87685235D01*
X133489192Y-87732854D01*
X133441573Y-87828092D01*
X133441573Y-88018568D01*
X133489192Y-88113806D01*
X133536811Y-88161425D01*
X133632049Y-88209044D01*
X137880259Y-90693235D02*
X137832640Y-90645616D01*
X137785020Y-90550378D01*
X137785020Y-90312282D01*
X137832640Y-90217044D01*
X137880259Y-90169425D01*
X137975497Y-90121806D01*
X138070735Y-90121806D01*
X138213592Y-90169425D01*
X138785020Y-90740854D01*
X138785020Y-90121806D01*
X137880259Y-89740854D02*
X137832640Y-89693235D01*
X137785020Y-89597997D01*
X137785020Y-89359901D01*
X137832640Y-89264663D01*
X137880259Y-89217044D01*
X137975497Y-89169425D01*
X138070735Y-89169425D01*
X138213592Y-89217044D01*
X138785020Y-89788473D01*
X138785020Y-89169425D01*
X137785020Y-88550378D02*
X137785020Y-88455140D01*
X137832640Y-88359901D01*
X137880259Y-88312282D01*
X137975497Y-88264663D01*
X138165973Y-88217044D01*
X138404068Y-88217044D01*
X138594544Y-88264663D01*
X138689782Y-88312282D01*
X138737401Y-88359901D01*
X138785020Y-88455140D01*
X138785020Y-88550378D01*
X138737401Y-88645616D01*
X138689782Y-88693235D01*
X138594544Y-88740854D01*
X138404068Y-88788473D01*
X138165973Y-88788473D01*
X137975497Y-88740854D01*
X137880259Y-88693235D01*
X137832640Y-88645616D01*
X137785020Y-88550378D01*
X133770220Y-76788976D02*
X133294030Y-77122309D01*
X133770220Y-77360404D02*
X132770220Y-77360404D01*
X132770220Y-76979452D01*
X132817840Y-76884214D01*
X132865459Y-76836595D01*
X132960697Y-76788976D01*
X133103554Y-76788976D01*
X133198792Y-76836595D01*
X133246411Y-76884214D01*
X133294030Y-76979452D01*
X133294030Y-77360404D01*
X133770220Y-76360404D02*
X132770220Y-76360404D01*
X133770220Y-75788976D01*
X132770220Y-75788976D01*
X132770220Y-75408023D02*
X132770220Y-74741357D01*
X133770220Y-75169928D01*
X137843859Y-77387395D02*
X137796240Y-77339776D01*
X137748620Y-77244538D01*
X137748620Y-77006442D01*
X137796240Y-76911204D01*
X137843859Y-76863585D01*
X137939097Y-76815966D01*
X138034335Y-76815966D01*
X138177192Y-76863585D01*
X138748620Y-77435014D01*
X138748620Y-76815966D01*
X137843859Y-76435014D02*
X137796240Y-76387395D01*
X137748620Y-76292157D01*
X137748620Y-76054061D01*
X137796240Y-75958823D01*
X137843859Y-75911204D01*
X137939097Y-75863585D01*
X138034335Y-75863585D01*
X138177192Y-75911204D01*
X138748620Y-76482633D01*
X138748620Y-75863585D01*
X137748620Y-75244538D02*
X137748620Y-75149300D01*
X137796240Y-75054061D01*
X137843859Y-75006442D01*
X137939097Y-74958823D01*
X138129573Y-74911204D01*
X138367668Y-74911204D01*
X138558144Y-74958823D01*
X138653382Y-75006442D01*
X138701001Y-75054061D01*
X138748620Y-75149300D01*
X138748620Y-75244538D01*
X138701001Y-75339776D01*
X138653382Y-75387395D01*
X138558144Y-75435014D01*
X138367668Y-75482633D01*
X138129573Y-75482633D01*
X137939097Y-75435014D01*
X137843859Y-75387395D01*
X137796240Y-75339776D01*
X137748620Y-75244538D01*
X106146362Y-68824100D02*
X105813029Y-68347910D01*
X105574934Y-68824100D02*
X105574934Y-67824100D01*
X105955886Y-67824100D01*
X106051124Y-67871720D01*
X106098743Y-67919339D01*
X106146362Y-68014577D01*
X106146362Y-68157434D01*
X106098743Y-68252672D01*
X106051124Y-68300291D01*
X105955886Y-68347910D01*
X105574934Y-68347910D01*
X107098743Y-68824100D02*
X106527315Y-68824100D01*
X106813029Y-68824100D02*
X106813029Y-67824100D01*
X106717791Y-67966958D01*
X106622553Y-68062196D01*
X106527315Y-68109815D01*
X107432077Y-67824100D02*
X108051124Y-67824100D01*
X107717791Y-68205053D01*
X107860648Y-68205053D01*
X107955886Y-68252672D01*
X108003505Y-68300291D01*
X108051124Y-68395529D01*
X108051124Y-68633624D01*
X108003505Y-68728862D01*
X107955886Y-68776481D01*
X107860648Y-68824100D01*
X107574934Y-68824100D01*
X107479696Y-68776481D01*
X107432077Y-68728862D01*
X112200488Y-68020274D02*
X112200488Y-68686940D01*
X111962393Y-67639321D02*
X111724298Y-68353607D01*
X112343345Y-68353607D01*
X112724298Y-68591702D02*
X112771917Y-68639321D01*
X112724298Y-68686940D01*
X112676679Y-68639321D01*
X112724298Y-68591702D01*
X112724298Y-68686940D01*
X113105250Y-67686940D02*
X113771917Y-67686940D01*
X113343345Y-68686940D01*
X114152869Y-68686940D02*
X114152869Y-67686940D01*
X114248107Y-68305988D02*
X114533821Y-68686940D01*
X114533821Y-68020274D02*
X114152869Y-68401226D01*
X102313194Y-115864006D02*
X102789384Y-115864006D01*
X102217956Y-116149720D02*
X102551289Y-115149720D01*
X102884622Y-116149720D01*
X103646527Y-115483054D02*
X103646527Y-116149720D01*
X103408432Y-115102101D02*
X103170337Y-115816387D01*
X103789384Y-115816387D01*
X99722394Y-115866206D02*
X100198584Y-115866206D01*
X99627156Y-116151920D02*
X99960489Y-115151920D01*
X100293822Y-116151920D01*
X101103346Y-115151920D02*
X100627156Y-115151920D01*
X100579537Y-115628111D01*
X100627156Y-115580492D01*
X100722394Y-115532873D01*
X100960489Y-115532873D01*
X101055727Y-115580492D01*
X101103346Y-115628111D01*
X101150965Y-115723349D01*
X101150965Y-115961444D01*
X101103346Y-116056682D01*
X101055727Y-116104301D01*
X100960489Y-116151920D01*
X100722394Y-116151920D01*
X100627156Y-116104301D01*
X100579537Y-116056682D01*
X95764180Y-107605276D02*
X95287990Y-107938609D01*
X95764180Y-108176704D02*
X94764180Y-108176704D01*
X94764180Y-107795752D01*
X94811800Y-107700514D01*
X94859419Y-107652895D01*
X94954657Y-107605276D01*
X95097514Y-107605276D01*
X95192752Y-107652895D01*
X95240371Y-107700514D01*
X95287990Y-107795752D01*
X95287990Y-108176704D01*
X95764180Y-107176704D02*
X94764180Y-107176704D01*
X95764180Y-106605276D01*
X94764180Y-106605276D01*
X95764180Y-105605276D02*
X95764180Y-106176704D01*
X95764180Y-105890990D02*
X94764180Y-105890990D01*
X94907038Y-105986228D01*
X95002276Y-106081466D01*
X95049895Y-106176704D01*
X100742580Y-107535438D02*
X100742580Y-108106866D01*
X100742580Y-107821152D02*
X99742580Y-107821152D01*
X99885438Y-107916390D01*
X99980676Y-108011628D01*
X100028295Y-108106866D01*
X99742580Y-106916390D02*
X99742580Y-106821152D01*
X99790200Y-106725914D01*
X99837819Y-106678295D01*
X99933057Y-106630676D01*
X100123533Y-106583057D01*
X100361628Y-106583057D01*
X100552104Y-106630676D01*
X100647342Y-106678295D01*
X100694961Y-106725914D01*
X100742580Y-106821152D01*
X100742580Y-106916390D01*
X100694961Y-107011628D01*
X100647342Y-107059247D01*
X100552104Y-107106866D01*
X100361628Y-107154485D01*
X100123533Y-107154485D01*
X99933057Y-107106866D01*
X99837819Y-107059247D01*
X99790200Y-107011628D01*
X99742580Y-106916390D01*
X100742580Y-106154485D02*
X99742580Y-106154485D01*
X100361628Y-106059247D02*
X100742580Y-105773533D01*
X100075914Y-105773533D02*
X100456866Y-106154485D01*
X100886580Y-104306666D02*
X100410390Y-104640000D01*
X100886580Y-104878095D02*
X99886580Y-104878095D01*
X99886580Y-104497142D01*
X99934200Y-104401904D01*
X99981819Y-104354285D01*
X100077057Y-104306666D01*
X100219914Y-104306666D01*
X100315152Y-104354285D01*
X100362771Y-104401904D01*
X100410390Y-104497142D01*
X100410390Y-104878095D01*
X99886580Y-103973333D02*
X99886580Y-103354285D01*
X100267533Y-103687619D01*
X100267533Y-103544761D01*
X100315152Y-103449523D01*
X100362771Y-103401904D01*
X100458009Y-103354285D01*
X100696104Y-103354285D01*
X100791342Y-103401904D01*
X100838961Y-103449523D01*
X100886580Y-103544761D01*
X100886580Y-103830476D01*
X100838961Y-103925714D01*
X100791342Y-103973333D01*
X94876419Y-105479695D02*
X94828800Y-105432076D01*
X94781180Y-105336838D01*
X94781180Y-105098742D01*
X94828800Y-105003504D01*
X94876419Y-104955885D01*
X94971657Y-104908266D01*
X95066895Y-104908266D01*
X95209752Y-104955885D01*
X95781180Y-105527314D01*
X95781180Y-104908266D01*
X94876419Y-104527314D02*
X94828800Y-104479695D01*
X94781180Y-104384457D01*
X94781180Y-104146361D01*
X94828800Y-104051123D01*
X94876419Y-104003504D01*
X94971657Y-103955885D01*
X95066895Y-103955885D01*
X95209752Y-104003504D01*
X95781180Y-104574933D01*
X95781180Y-103955885D01*
X94781180Y-103336838D02*
X94781180Y-103241600D01*
X94828800Y-103146361D01*
X94876419Y-103098742D01*
X94971657Y-103051123D01*
X95162133Y-103003504D01*
X95400228Y-103003504D01*
X95590704Y-103051123D01*
X95685942Y-103098742D01*
X95733561Y-103146361D01*
X95781180Y-103241600D01*
X95781180Y-103336838D01*
X95733561Y-103432076D01*
X95685942Y-103479695D01*
X95590704Y-103527314D01*
X95400228Y-103574933D01*
X95162133Y-103574933D01*
X94971657Y-103527314D01*
X94876419Y-103479695D01*
X94828800Y-103432076D01*
X94781180Y-103336838D01*
D16*
X101831548Y-80827528D02*
X101831548Y-80227528D01*
X101974405Y-80227528D01*
X102060120Y-80256100D01*
X102117262Y-80313242D01*
X102145834Y-80370385D01*
X102174405Y-80484671D01*
X102174405Y-80570385D01*
X102145834Y-80684671D01*
X102117262Y-80741814D01*
X102060120Y-80798957D01*
X101974405Y-80827528D01*
X101831548Y-80827528D01*
X102745834Y-80827528D02*
X102402977Y-80827528D01*
X102574405Y-80827528D02*
X102574405Y-80227528D01*
X102517262Y-80313242D01*
X102460120Y-80370385D01*
X102402977Y-80398957D01*
X103317262Y-80827528D02*
X102974405Y-80827528D01*
X103145834Y-80827528D02*
X103145834Y-80227528D01*
X103088691Y-80313242D01*
X103031548Y-80370385D01*
X102974405Y-80398957D01*
D14*
X90456735Y-87089240D02*
X90456735Y-86089240D01*
X90694830Y-86089240D01*
X90837687Y-86136860D01*
X90932925Y-86232098D01*
X90980544Y-86327336D01*
X91028163Y-86517812D01*
X91028163Y-86660669D01*
X90980544Y-86851145D01*
X90932925Y-86946383D01*
X90837687Y-87041621D01*
X90694830Y-87089240D01*
X90456735Y-87089240D01*
X79461075Y-87167980D02*
X79461075Y-86167980D01*
X79699170Y-86167980D01*
X79842027Y-86215600D01*
X79937265Y-86310838D01*
X79984884Y-86406076D01*
X80032503Y-86596552D01*
X80032503Y-86739409D01*
X79984884Y-86929885D01*
X79937265Y-87025123D01*
X79842027Y-87120361D01*
X79699170Y-87167980D01*
X79461075Y-87167980D01*
X79664275Y-97493080D02*
X79664275Y-96493080D01*
X79902370Y-96493080D01*
X80045227Y-96540700D01*
X80140465Y-96635938D01*
X80188084Y-96731176D01*
X80235703Y-96921652D01*
X80235703Y-97064509D01*
X80188084Y-97254985D01*
X80140465Y-97350223D01*
X80045227Y-97445461D01*
X79902370Y-97493080D01*
X79664275Y-97493080D01*
X79608395Y-107993440D02*
X79608395Y-106993440D01*
X79846490Y-106993440D01*
X79989347Y-107041060D01*
X80084585Y-107136298D01*
X80132204Y-107231536D01*
X80179823Y-107422012D01*
X80179823Y-107564869D01*
X80132204Y-107755345D01*
X80084585Y-107850583D01*
X79989347Y-107945821D01*
X79846490Y-107993440D01*
X79608395Y-107993440D01*
X125709395Y-83678020D02*
X125709395Y-82678020D01*
X125947490Y-82678020D01*
X126090347Y-82725640D01*
X126185585Y-82820878D01*
X126233204Y-82916116D01*
X126280823Y-83106592D01*
X126280823Y-83249449D01*
X126233204Y-83439925D01*
X126185585Y-83535163D01*
X126090347Y-83630401D01*
X125947490Y-83678020D01*
X125709395Y-83678020D01*
X132204720Y-72735605D02*
X131204720Y-72735605D01*
X131204720Y-72497510D01*
X131252340Y-72354653D01*
X131347578Y-72259415D01*
X131442816Y-72211796D01*
X131633292Y-72164177D01*
X131776149Y-72164177D01*
X131966625Y-72211796D01*
X132061863Y-72259415D01*
X132157101Y-72354653D01*
X132204720Y-72497510D01*
X132204720Y-72735605D01*
X131204720Y-71830843D02*
X131204720Y-71211796D01*
X131585673Y-71545129D01*
X131585673Y-71402272D01*
X131633292Y-71307034D01*
X131680911Y-71259415D01*
X131776149Y-71211796D01*
X132014244Y-71211796D01*
X132109482Y-71259415D01*
X132157101Y-71307034D01*
X132204720Y-71402272D01*
X132204720Y-71687986D01*
X132157101Y-71783224D01*
X132109482Y-71830843D01*
X131204720Y-70878462D02*
X131204720Y-70259415D01*
X131585673Y-70592748D01*
X131585673Y-70449891D01*
X131633292Y-70354653D01*
X131680911Y-70307034D01*
X131776149Y-70259415D01*
X132014244Y-70259415D01*
X132109482Y-70307034D01*
X132157101Y-70354653D01*
X132204720Y-70449891D01*
X132204720Y-70735605D01*
X132157101Y-70830843D01*
X132109482Y-70878462D01*
X132410460Y-76106185D02*
X131410460Y-76106185D01*
X131410460Y-75868090D01*
X131458080Y-75725233D01*
X131553318Y-75629995D01*
X131648556Y-75582376D01*
X131839032Y-75534757D01*
X131981889Y-75534757D01*
X132172365Y-75582376D01*
X132267603Y-75629995D01*
X132362841Y-75725233D01*
X132410460Y-75868090D01*
X132410460Y-76106185D01*
X131410460Y-75201423D02*
X131410460Y-74582376D01*
X131791413Y-74915709D01*
X131791413Y-74772852D01*
X131839032Y-74677614D01*
X131886651Y-74629995D01*
X131981889Y-74582376D01*
X132219984Y-74582376D01*
X132315222Y-74629995D01*
X132362841Y-74677614D01*
X132410460Y-74772852D01*
X132410460Y-75058566D01*
X132362841Y-75153804D01*
X132315222Y-75201423D01*
X131743794Y-73725233D02*
X132410460Y-73725233D01*
X131362841Y-73963328D02*
X132077127Y-74201423D01*
X132077127Y-73582376D01*
X132288540Y-79410725D02*
X131288540Y-79410725D01*
X131288540Y-79172630D01*
X131336160Y-79029773D01*
X131431398Y-78934535D01*
X131526636Y-78886916D01*
X131717112Y-78839297D01*
X131859969Y-78839297D01*
X132050445Y-78886916D01*
X132145683Y-78934535D01*
X132240921Y-79029773D01*
X132288540Y-79172630D01*
X132288540Y-79410725D01*
X131288540Y-78505963D02*
X131288540Y-77886916D01*
X131669493Y-78220249D01*
X131669493Y-78077392D01*
X131717112Y-77982154D01*
X131764731Y-77934535D01*
X131859969Y-77886916D01*
X132098064Y-77886916D01*
X132193302Y-77934535D01*
X132240921Y-77982154D01*
X132288540Y-78077392D01*
X132288540Y-78363106D01*
X132240921Y-78458344D01*
X132193302Y-78505963D01*
X131288540Y-76982154D02*
X131288540Y-77458344D01*
X131764731Y-77505963D01*
X131717112Y-77458344D01*
X131669493Y-77363106D01*
X131669493Y-77125011D01*
X131717112Y-77029773D01*
X131764731Y-76982154D01*
X131859969Y-76934535D01*
X132098064Y-76934535D01*
X132193302Y-76982154D01*
X132240921Y-77029773D01*
X132288540Y-77125011D01*
X132288540Y-77363106D01*
X132240921Y-77458344D01*
X132193302Y-77505963D01*
X132199640Y-83002285D02*
X131199640Y-83002285D01*
X131199640Y-82764190D01*
X131247260Y-82621333D01*
X131342498Y-82526095D01*
X131437736Y-82478476D01*
X131628212Y-82430857D01*
X131771069Y-82430857D01*
X131961545Y-82478476D01*
X132056783Y-82526095D01*
X132152021Y-82621333D01*
X132199640Y-82764190D01*
X132199640Y-83002285D01*
X131199640Y-82097523D02*
X131199640Y-81478476D01*
X131580593Y-81811809D01*
X131580593Y-81668952D01*
X131628212Y-81573714D01*
X131675831Y-81526095D01*
X131771069Y-81478476D01*
X132009164Y-81478476D01*
X132104402Y-81526095D01*
X132152021Y-81573714D01*
X132199640Y-81668952D01*
X132199640Y-81954666D01*
X132152021Y-82049904D01*
X132104402Y-82097523D01*
X131199640Y-80621333D02*
X131199640Y-80811809D01*
X131247260Y-80907047D01*
X131294879Y-80954666D01*
X131437736Y-81049904D01*
X131628212Y-81097523D01*
X132009164Y-81097523D01*
X132104402Y-81049904D01*
X132152021Y-81002285D01*
X132199640Y-80907047D01*
X132199640Y-80716571D01*
X132152021Y-80621333D01*
X132104402Y-80573714D01*
X132009164Y-80526095D01*
X131771069Y-80526095D01*
X131675831Y-80573714D01*
X131628212Y-80621333D01*
X131580593Y-80716571D01*
X131580593Y-80907047D01*
X131628212Y-81002285D01*
X131675831Y-81049904D01*
X131771069Y-81097523D01*
X132270760Y-86217925D02*
X131270760Y-86217925D01*
X131270760Y-85979830D01*
X131318380Y-85836973D01*
X131413618Y-85741735D01*
X131508856Y-85694116D01*
X131699332Y-85646497D01*
X131842189Y-85646497D01*
X132032665Y-85694116D01*
X132127903Y-85741735D01*
X132223141Y-85836973D01*
X132270760Y-85979830D01*
X132270760Y-86217925D01*
X131270760Y-85313163D02*
X131270760Y-84694116D01*
X131651713Y-85027449D01*
X131651713Y-84884592D01*
X131699332Y-84789354D01*
X131746951Y-84741735D01*
X131842189Y-84694116D01*
X132080284Y-84694116D01*
X132175522Y-84741735D01*
X132223141Y-84789354D01*
X132270760Y-84884592D01*
X132270760Y-85170306D01*
X132223141Y-85265544D01*
X132175522Y-85313163D01*
X131270760Y-84360782D02*
X131270760Y-83694116D01*
X132270760Y-84122687D01*
X132217420Y-89875525D02*
X131217420Y-89875525D01*
X131217420Y-89637430D01*
X131265040Y-89494573D01*
X131360278Y-89399335D01*
X131455516Y-89351716D01*
X131645992Y-89304097D01*
X131788849Y-89304097D01*
X131979325Y-89351716D01*
X132074563Y-89399335D01*
X132169801Y-89494573D01*
X132217420Y-89637430D01*
X132217420Y-89875525D01*
X131217420Y-88970763D02*
X131217420Y-88351716D01*
X131598373Y-88685049D01*
X131598373Y-88542192D01*
X131645992Y-88446954D01*
X131693611Y-88399335D01*
X131788849Y-88351716D01*
X132026944Y-88351716D01*
X132122182Y-88399335D01*
X132169801Y-88446954D01*
X132217420Y-88542192D01*
X132217420Y-88827906D01*
X132169801Y-88923144D01*
X132122182Y-88970763D01*
X131645992Y-87780287D02*
X131598373Y-87875525D01*
X131550754Y-87923144D01*
X131455516Y-87970763D01*
X131407897Y-87970763D01*
X131312659Y-87923144D01*
X131265040Y-87875525D01*
X131217420Y-87780287D01*
X131217420Y-87589811D01*
X131265040Y-87494573D01*
X131312659Y-87446954D01*
X131407897Y-87399335D01*
X131455516Y-87399335D01*
X131550754Y-87446954D01*
X131598373Y-87494573D01*
X131645992Y-87589811D01*
X131645992Y-87780287D01*
X131693611Y-87875525D01*
X131741230Y-87923144D01*
X131836468Y-87970763D01*
X132026944Y-87970763D01*
X132122182Y-87923144D01*
X132169801Y-87875525D01*
X132217420Y-87780287D01*
X132217420Y-87589811D01*
X132169801Y-87494573D01*
X132122182Y-87446954D01*
X132026944Y-87399335D01*
X131836468Y-87399335D01*
X131741230Y-87446954D01*
X131693611Y-87494573D01*
X131645992Y-87589811D01*
X132313940Y-93205465D02*
X131313940Y-93205465D01*
X131313940Y-92967370D01*
X131361560Y-92824513D01*
X131456798Y-92729275D01*
X131552036Y-92681656D01*
X131742512Y-92634037D01*
X131885369Y-92634037D01*
X132075845Y-92681656D01*
X132171083Y-92729275D01*
X132266321Y-92824513D01*
X132313940Y-92967370D01*
X132313940Y-93205465D01*
X131313940Y-92300703D02*
X131313940Y-91681656D01*
X131694893Y-92014989D01*
X131694893Y-91872132D01*
X131742512Y-91776894D01*
X131790131Y-91729275D01*
X131885369Y-91681656D01*
X132123464Y-91681656D01*
X132218702Y-91729275D01*
X132266321Y-91776894D01*
X132313940Y-91872132D01*
X132313940Y-92157846D01*
X132266321Y-92253084D01*
X132218702Y-92300703D01*
X132313940Y-91205465D02*
X132313940Y-91014989D01*
X132266321Y-90919751D01*
X132218702Y-90872132D01*
X132075845Y-90776894D01*
X131885369Y-90729275D01*
X131504417Y-90729275D01*
X131409179Y-90776894D01*
X131361560Y-90824513D01*
X131313940Y-90919751D01*
X131313940Y-91110227D01*
X131361560Y-91205465D01*
X131409179Y-91253084D01*
X131504417Y-91300703D01*
X131742512Y-91300703D01*
X131837750Y-91253084D01*
X131885369Y-91205465D01*
X131932988Y-91110227D01*
X131932988Y-90919751D01*
X131885369Y-90824513D01*
X131837750Y-90776894D01*
X131742512Y-90729275D01*
X132313940Y-96634465D02*
X131313940Y-96634465D01*
X131313940Y-96396370D01*
X131361560Y-96253513D01*
X131456798Y-96158275D01*
X131552036Y-96110656D01*
X131742512Y-96063037D01*
X131885369Y-96063037D01*
X132075845Y-96110656D01*
X132171083Y-96158275D01*
X132266321Y-96253513D01*
X132313940Y-96396370D01*
X132313940Y-96634465D01*
X131647274Y-95205894D02*
X132313940Y-95205894D01*
X131266321Y-95443989D02*
X131980607Y-95682084D01*
X131980607Y-95063037D01*
X131313940Y-94491608D02*
X131313940Y-94396370D01*
X131361560Y-94301132D01*
X131409179Y-94253513D01*
X131504417Y-94205894D01*
X131694893Y-94158275D01*
X131932988Y-94158275D01*
X132123464Y-94205894D01*
X132218702Y-94253513D01*
X132266321Y-94301132D01*
X132313940Y-94396370D01*
X132313940Y-94491608D01*
X132266321Y-94586846D01*
X132218702Y-94634465D01*
X132123464Y-94682084D01*
X131932988Y-94729703D01*
X131694893Y-94729703D01*
X131504417Y-94682084D01*
X131409179Y-94634465D01*
X131361560Y-94586846D01*
X131313940Y-94491608D01*
D16*
X100765940Y-80855468D02*
X100565940Y-80569754D01*
X100423082Y-80855468D02*
X100423082Y-80255468D01*
X100651654Y-80255468D01*
X100708797Y-80284040D01*
X100737368Y-80312611D01*
X100765940Y-80369754D01*
X100765940Y-80455468D01*
X100737368Y-80512611D01*
X100708797Y-80541182D01*
X100651654Y-80569754D01*
X100423082Y-80569754D01*
X101280225Y-80455468D02*
X101280225Y-80855468D01*
X101137368Y-80226897D02*
X100994511Y-80655468D01*
X101365940Y-80655468D01*
D14*
X90957043Y-88631020D02*
X90623710Y-88154830D01*
X90385615Y-88631020D02*
X90385615Y-87631020D01*
X90766567Y-87631020D01*
X90861805Y-87678640D01*
X90909424Y-87726259D01*
X90957043Y-87821497D01*
X90957043Y-87964354D01*
X90909424Y-88059592D01*
X90861805Y-88107211D01*
X90766567Y-88154830D01*
X90385615Y-88154830D01*
X80073143Y-88620860D02*
X79739810Y-88144670D01*
X79501715Y-88620860D02*
X79501715Y-87620860D01*
X79882667Y-87620860D01*
X79977905Y-87668480D01*
X80025524Y-87716099D01*
X80073143Y-87811337D01*
X80073143Y-87954194D01*
X80025524Y-88049432D01*
X79977905Y-88097051D01*
X79882667Y-88144670D01*
X79501715Y-88144670D01*
X80220463Y-99105980D02*
X79887130Y-98629790D01*
X79649035Y-99105980D02*
X79649035Y-98105980D01*
X80029987Y-98105980D01*
X80125225Y-98153600D01*
X80172844Y-98201219D01*
X80220463Y-98296457D01*
X80220463Y-98439314D01*
X80172844Y-98534552D01*
X80125225Y-98582171D01*
X80029987Y-98629790D01*
X79649035Y-98629790D01*
X80179823Y-109519980D02*
X79846490Y-109043790D01*
X79608395Y-109519980D02*
X79608395Y-108519980D01*
X79989347Y-108519980D01*
X80084585Y-108567600D01*
X80132204Y-108615219D01*
X80179823Y-108710457D01*
X80179823Y-108853314D01*
X80132204Y-108948552D01*
X80084585Y-108996171D01*
X79989347Y-109043790D01*
X79608395Y-109043790D01*
X126012200Y-75110577D02*
X125536010Y-75443910D01*
X126012200Y-75682005D02*
X125012200Y-75682005D01*
X125012200Y-75301053D01*
X125059820Y-75205815D01*
X125107439Y-75158196D01*
X125202677Y-75110577D01*
X125345534Y-75110577D01*
X125440772Y-75158196D01*
X125488391Y-75205815D01*
X125536010Y-75301053D01*
X125536010Y-75682005D01*
X125107439Y-74729624D02*
X125059820Y-74682005D01*
X125012200Y-74586767D01*
X125012200Y-74348672D01*
X125059820Y-74253434D01*
X125107439Y-74205815D01*
X125202677Y-74158196D01*
X125297915Y-74158196D01*
X125440772Y-74205815D01*
X126012200Y-74777243D01*
X126012200Y-74158196D01*
X126012200Y-73205815D02*
X126012200Y-73777243D01*
X126012200Y-73491529D02*
X125012200Y-73491529D01*
X125155058Y-73586767D01*
X125250296Y-73682005D01*
X125297915Y-73777243D01*
X124544080Y-75171537D02*
X124067890Y-75504870D01*
X124544080Y-75742965D02*
X123544080Y-75742965D01*
X123544080Y-75362013D01*
X123591700Y-75266775D01*
X123639319Y-75219156D01*
X123734557Y-75171537D01*
X123877414Y-75171537D01*
X123972652Y-75219156D01*
X124020271Y-75266775D01*
X124067890Y-75362013D01*
X124067890Y-75742965D01*
X123639319Y-74790584D02*
X123591700Y-74742965D01*
X123544080Y-74647727D01*
X123544080Y-74409632D01*
X123591700Y-74314394D01*
X123639319Y-74266775D01*
X123734557Y-74219156D01*
X123829795Y-74219156D01*
X123972652Y-74266775D01*
X124544080Y-74838203D01*
X124544080Y-74219156D01*
X123639319Y-73838203D02*
X123591700Y-73790584D01*
X123544080Y-73695346D01*
X123544080Y-73457251D01*
X123591700Y-73362013D01*
X123639319Y-73314394D01*
X123734557Y-73266775D01*
X123829795Y-73266775D01*
X123972652Y-73314394D01*
X124544080Y-73885822D01*
X124544080Y-73266775D01*
X123055640Y-75130897D02*
X122579450Y-75464230D01*
X123055640Y-75702325D02*
X122055640Y-75702325D01*
X122055640Y-75321373D01*
X122103260Y-75226135D01*
X122150879Y-75178516D01*
X122246117Y-75130897D01*
X122388974Y-75130897D01*
X122484212Y-75178516D01*
X122531831Y-75226135D01*
X122579450Y-75321373D01*
X122579450Y-75702325D01*
X122150879Y-74749944D02*
X122103260Y-74702325D01*
X122055640Y-74607087D01*
X122055640Y-74368992D01*
X122103260Y-74273754D01*
X122150879Y-74226135D01*
X122246117Y-74178516D01*
X122341355Y-74178516D01*
X122484212Y-74226135D01*
X123055640Y-74797563D01*
X123055640Y-74178516D01*
X122055640Y-73845182D02*
X122055640Y-73226135D01*
X122436593Y-73559468D01*
X122436593Y-73416611D01*
X122484212Y-73321373D01*
X122531831Y-73273754D01*
X122627069Y-73226135D01*
X122865164Y-73226135D01*
X122960402Y-73273754D01*
X123008021Y-73321373D01*
X123055640Y-73416611D01*
X123055640Y-73702325D01*
X123008021Y-73797563D01*
X122960402Y-73845182D01*
X121569740Y-75130897D02*
X121093550Y-75464230D01*
X121569740Y-75702325D02*
X120569740Y-75702325D01*
X120569740Y-75321373D01*
X120617360Y-75226135D01*
X120664979Y-75178516D01*
X120760217Y-75130897D01*
X120903074Y-75130897D01*
X120998312Y-75178516D01*
X121045931Y-75226135D01*
X121093550Y-75321373D01*
X121093550Y-75702325D01*
X120664979Y-74749944D02*
X120617360Y-74702325D01*
X120569740Y-74607087D01*
X120569740Y-74368992D01*
X120617360Y-74273754D01*
X120664979Y-74226135D01*
X120760217Y-74178516D01*
X120855455Y-74178516D01*
X120998312Y-74226135D01*
X121569740Y-74797563D01*
X121569740Y-74178516D01*
X120903074Y-73321373D02*
X121569740Y-73321373D01*
X120522121Y-73559468D02*
X121236407Y-73797563D01*
X121236407Y-73178516D01*
X120060980Y-75130897D02*
X119584790Y-75464230D01*
X120060980Y-75702325D02*
X119060980Y-75702325D01*
X119060980Y-75321373D01*
X119108600Y-75226135D01*
X119156219Y-75178516D01*
X119251457Y-75130897D01*
X119394314Y-75130897D01*
X119489552Y-75178516D01*
X119537171Y-75226135D01*
X119584790Y-75321373D01*
X119584790Y-75702325D01*
X119156219Y-74749944D02*
X119108600Y-74702325D01*
X119060980Y-74607087D01*
X119060980Y-74368992D01*
X119108600Y-74273754D01*
X119156219Y-74226135D01*
X119251457Y-74178516D01*
X119346695Y-74178516D01*
X119489552Y-74226135D01*
X120060980Y-74797563D01*
X120060980Y-74178516D01*
X119060980Y-73273754D02*
X119060980Y-73749944D01*
X119537171Y-73797563D01*
X119489552Y-73749944D01*
X119441933Y-73654706D01*
X119441933Y-73416611D01*
X119489552Y-73321373D01*
X119537171Y-73273754D01*
X119632409Y-73226135D01*
X119870504Y-73226135D01*
X119965742Y-73273754D01*
X120013361Y-73321373D01*
X120060980Y-73416611D01*
X120060980Y-73654706D01*
X120013361Y-73749944D01*
X119965742Y-73797563D01*
X118592860Y-75171537D02*
X118116670Y-75504870D01*
X118592860Y-75742965D02*
X117592860Y-75742965D01*
X117592860Y-75362013D01*
X117640480Y-75266775D01*
X117688099Y-75219156D01*
X117783337Y-75171537D01*
X117926194Y-75171537D01*
X118021432Y-75219156D01*
X118069051Y-75266775D01*
X118116670Y-75362013D01*
X118116670Y-75742965D01*
X117688099Y-74790584D02*
X117640480Y-74742965D01*
X117592860Y-74647727D01*
X117592860Y-74409632D01*
X117640480Y-74314394D01*
X117688099Y-74266775D01*
X117783337Y-74219156D01*
X117878575Y-74219156D01*
X118021432Y-74266775D01*
X118592860Y-74838203D01*
X118592860Y-74219156D01*
X117592860Y-73362013D02*
X117592860Y-73552489D01*
X117640480Y-73647727D01*
X117688099Y-73695346D01*
X117830956Y-73790584D01*
X118021432Y-73838203D01*
X118402384Y-73838203D01*
X118497622Y-73790584D01*
X118545241Y-73742965D01*
X118592860Y-73647727D01*
X118592860Y-73457251D01*
X118545241Y-73362013D01*
X118497622Y-73314394D01*
X118402384Y-73266775D01*
X118164289Y-73266775D01*
X118069051Y-73314394D01*
X118021432Y-73362013D01*
X117973813Y-73457251D01*
X117973813Y-73647727D01*
X118021432Y-73742965D01*
X118069051Y-73790584D01*
X118164289Y-73838203D01*
X117084100Y-75171537D02*
X116607910Y-75504870D01*
X117084100Y-75742965D02*
X116084100Y-75742965D01*
X116084100Y-75362013D01*
X116131720Y-75266775D01*
X116179339Y-75219156D01*
X116274577Y-75171537D01*
X116417434Y-75171537D01*
X116512672Y-75219156D01*
X116560291Y-75266775D01*
X116607910Y-75362013D01*
X116607910Y-75742965D01*
X116179339Y-74790584D02*
X116131720Y-74742965D01*
X116084100Y-74647727D01*
X116084100Y-74409632D01*
X116131720Y-74314394D01*
X116179339Y-74266775D01*
X116274577Y-74219156D01*
X116369815Y-74219156D01*
X116512672Y-74266775D01*
X117084100Y-74838203D01*
X117084100Y-74219156D01*
X116084100Y-73885822D02*
X116084100Y-73219156D01*
X117084100Y-73647727D01*
X115615980Y-75069937D02*
X115139790Y-75403270D01*
X115615980Y-75641365D02*
X114615980Y-75641365D01*
X114615980Y-75260413D01*
X114663600Y-75165175D01*
X114711219Y-75117556D01*
X114806457Y-75069937D01*
X114949314Y-75069937D01*
X115044552Y-75117556D01*
X115092171Y-75165175D01*
X115139790Y-75260413D01*
X115139790Y-75641365D01*
X114711219Y-74688984D02*
X114663600Y-74641365D01*
X114615980Y-74546127D01*
X114615980Y-74308032D01*
X114663600Y-74212794D01*
X114711219Y-74165175D01*
X114806457Y-74117556D01*
X114901695Y-74117556D01*
X115044552Y-74165175D01*
X115615980Y-74736603D01*
X115615980Y-74117556D01*
X115044552Y-73546127D02*
X114996933Y-73641365D01*
X114949314Y-73688984D01*
X114854076Y-73736603D01*
X114806457Y-73736603D01*
X114711219Y-73688984D01*
X114663600Y-73641365D01*
X114615980Y-73546127D01*
X114615980Y-73355651D01*
X114663600Y-73260413D01*
X114711219Y-73212794D01*
X114806457Y-73165175D01*
X114854076Y-73165175D01*
X114949314Y-73212794D01*
X114996933Y-73260413D01*
X115044552Y-73355651D01*
X115044552Y-73546127D01*
X115092171Y-73641365D01*
X115139790Y-73688984D01*
X115235028Y-73736603D01*
X115425504Y-73736603D01*
X115520742Y-73688984D01*
X115568361Y-73641365D01*
X115615980Y-73546127D01*
X115615980Y-73355651D01*
X115568361Y-73260413D01*
X115520742Y-73212794D01*
X115425504Y-73165175D01*
X115235028Y-73165175D01*
X115139790Y-73212794D01*
X115092171Y-73260413D01*
X115044552Y-73355651D01*
X127716540Y-72085437D02*
X127240350Y-72418770D01*
X127716540Y-72656865D02*
X126716540Y-72656865D01*
X126716540Y-72275913D01*
X126764160Y-72180675D01*
X126811779Y-72133056D01*
X126907017Y-72085437D01*
X127049874Y-72085437D01*
X127145112Y-72133056D01*
X127192731Y-72180675D01*
X127240350Y-72275913D01*
X127240350Y-72656865D01*
X126811779Y-71704484D02*
X126764160Y-71656865D01*
X126716540Y-71561627D01*
X126716540Y-71323532D01*
X126764160Y-71228294D01*
X126811779Y-71180675D01*
X126907017Y-71133056D01*
X127002255Y-71133056D01*
X127145112Y-71180675D01*
X127716540Y-71752103D01*
X127716540Y-71133056D01*
X127716540Y-70656865D02*
X127716540Y-70466389D01*
X127668921Y-70371151D01*
X127621302Y-70323532D01*
X127478445Y-70228294D01*
X127287969Y-70180675D01*
X126907017Y-70180675D01*
X126811779Y-70228294D01*
X126764160Y-70275913D01*
X126716540Y-70371151D01*
X126716540Y-70561627D01*
X126764160Y-70656865D01*
X126811779Y-70704484D01*
X126907017Y-70752103D01*
X127145112Y-70752103D01*
X127240350Y-70704484D01*
X127287969Y-70656865D01*
X127335588Y-70561627D01*
X127335588Y-70371151D01*
X127287969Y-70275913D01*
X127240350Y-70228294D01*
X127145112Y-70180675D01*
X127665760Y-75551288D02*
X127189570Y-75884621D01*
X127665760Y-76122716D02*
X126665760Y-76122716D01*
X126665760Y-75741764D01*
X126713380Y-75646526D01*
X126760999Y-75598907D01*
X126856237Y-75551288D01*
X126999094Y-75551288D01*
X127094332Y-75598907D01*
X127141951Y-75646526D01*
X127189570Y-75741764D01*
X127189570Y-76122716D01*
X126665760Y-75217954D02*
X126665760Y-74598907D01*
X127046713Y-74932240D01*
X127046713Y-74789383D01*
X127094332Y-74694145D01*
X127141951Y-74646526D01*
X127237189Y-74598907D01*
X127475284Y-74598907D01*
X127570522Y-74646526D01*
X127618141Y-74694145D01*
X127665760Y-74789383D01*
X127665760Y-75075097D01*
X127618141Y-75170335D01*
X127570522Y-75217954D01*
X126665760Y-73979859D02*
X126665760Y-73884621D01*
X126713380Y-73789383D01*
X126760999Y-73741764D01*
X126856237Y-73694145D01*
X127046713Y-73646526D01*
X127284808Y-73646526D01*
X127475284Y-73694145D01*
X127570522Y-73741764D01*
X127618141Y-73789383D01*
X127665760Y-73884621D01*
X127665760Y-73979859D01*
X127618141Y-74075097D01*
X127570522Y-74122716D01*
X127475284Y-74170335D01*
X127284808Y-74217954D01*
X127046713Y-74217954D01*
X126856237Y-74170335D01*
X126760999Y-74122716D01*
X126713380Y-74075097D01*
X126665760Y-73979859D01*
X127665760Y-78957419D02*
X127189570Y-79290752D01*
X127665760Y-79528847D02*
X126665760Y-79528847D01*
X126665760Y-79147895D01*
X126713380Y-79052657D01*
X126760999Y-79005038D01*
X126856237Y-78957419D01*
X126999094Y-78957419D01*
X127094332Y-79005038D01*
X127141951Y-79052657D01*
X127189570Y-79147895D01*
X127189570Y-79528847D01*
X126665760Y-78624085D02*
X126665760Y-78005038D01*
X127046713Y-78338371D01*
X127046713Y-78195514D01*
X127094332Y-78100276D01*
X127141951Y-78052657D01*
X127237189Y-78005038D01*
X127475284Y-78005038D01*
X127570522Y-78052657D01*
X127618141Y-78100276D01*
X127665760Y-78195514D01*
X127665760Y-78481228D01*
X127618141Y-78576466D01*
X127570522Y-78624085D01*
X127665760Y-77052657D02*
X127665760Y-77624085D01*
X127665760Y-77338371D02*
X126665760Y-77338371D01*
X126808618Y-77433609D01*
X126903856Y-77528847D01*
X126951475Y-77624085D01*
X127665760Y-82363550D02*
X127189570Y-82696883D01*
X127665760Y-82934978D02*
X126665760Y-82934978D01*
X126665760Y-82554026D01*
X126713380Y-82458788D01*
X126760999Y-82411169D01*
X126856237Y-82363550D01*
X126999094Y-82363550D01*
X127094332Y-82411169D01*
X127141951Y-82458788D01*
X127189570Y-82554026D01*
X127189570Y-82934978D01*
X126665760Y-82030216D02*
X126665760Y-81411169D01*
X127046713Y-81744502D01*
X127046713Y-81601645D01*
X127094332Y-81506407D01*
X127141951Y-81458788D01*
X127237189Y-81411169D01*
X127475284Y-81411169D01*
X127570522Y-81458788D01*
X127618141Y-81506407D01*
X127665760Y-81601645D01*
X127665760Y-81887359D01*
X127618141Y-81982597D01*
X127570522Y-82030216D01*
X126760999Y-81030216D02*
X126713380Y-80982597D01*
X126665760Y-80887359D01*
X126665760Y-80649264D01*
X126713380Y-80554026D01*
X126760999Y-80506407D01*
X126856237Y-80458788D01*
X126951475Y-80458788D01*
X127094332Y-80506407D01*
X127665760Y-81077835D01*
X127665760Y-80458788D01*
X127665760Y-85769681D02*
X127189570Y-86103014D01*
X127665760Y-86341109D02*
X126665760Y-86341109D01*
X126665760Y-85960157D01*
X126713380Y-85864919D01*
X126760999Y-85817300D01*
X126856237Y-85769681D01*
X126999094Y-85769681D01*
X127094332Y-85817300D01*
X127141951Y-85864919D01*
X127189570Y-85960157D01*
X127189570Y-86341109D01*
X126665760Y-85436347D02*
X126665760Y-84817300D01*
X127046713Y-85150633D01*
X127046713Y-85007776D01*
X127094332Y-84912538D01*
X127141951Y-84864919D01*
X127237189Y-84817300D01*
X127475284Y-84817300D01*
X127570522Y-84864919D01*
X127618141Y-84912538D01*
X127665760Y-85007776D01*
X127665760Y-85293490D01*
X127618141Y-85388728D01*
X127570522Y-85436347D01*
X126665760Y-84483966D02*
X126665760Y-83864919D01*
X127046713Y-84198252D01*
X127046713Y-84055395D01*
X127094332Y-83960157D01*
X127141951Y-83912538D01*
X127237189Y-83864919D01*
X127475284Y-83864919D01*
X127570522Y-83912538D01*
X127618141Y-83960157D01*
X127665760Y-84055395D01*
X127665760Y-84341109D01*
X127618141Y-84436347D01*
X127570522Y-84483966D01*
X127665760Y-89175812D02*
X127189570Y-89509145D01*
X127665760Y-89747240D02*
X126665760Y-89747240D01*
X126665760Y-89366288D01*
X126713380Y-89271050D01*
X126760999Y-89223431D01*
X126856237Y-89175812D01*
X126999094Y-89175812D01*
X127094332Y-89223431D01*
X127141951Y-89271050D01*
X127189570Y-89366288D01*
X127189570Y-89747240D01*
X126665760Y-88842478D02*
X126665760Y-88223431D01*
X127046713Y-88556764D01*
X127046713Y-88413907D01*
X127094332Y-88318669D01*
X127141951Y-88271050D01*
X127237189Y-88223431D01*
X127475284Y-88223431D01*
X127570522Y-88271050D01*
X127618141Y-88318669D01*
X127665760Y-88413907D01*
X127665760Y-88699621D01*
X127618141Y-88794859D01*
X127570522Y-88842478D01*
X126999094Y-87366288D02*
X127665760Y-87366288D01*
X126618141Y-87604383D02*
X127332427Y-87842478D01*
X127332427Y-87223431D01*
X127665760Y-92581943D02*
X127189570Y-92915276D01*
X127665760Y-93153371D02*
X126665760Y-93153371D01*
X126665760Y-92772419D01*
X126713380Y-92677181D01*
X126760999Y-92629562D01*
X126856237Y-92581943D01*
X126999094Y-92581943D01*
X127094332Y-92629562D01*
X127141951Y-92677181D01*
X127189570Y-92772419D01*
X127189570Y-93153371D01*
X126665760Y-92248609D02*
X126665760Y-91629562D01*
X127046713Y-91962895D01*
X127046713Y-91820038D01*
X127094332Y-91724800D01*
X127141951Y-91677181D01*
X127237189Y-91629562D01*
X127475284Y-91629562D01*
X127570522Y-91677181D01*
X127618141Y-91724800D01*
X127665760Y-91820038D01*
X127665760Y-92105752D01*
X127618141Y-92200990D01*
X127570522Y-92248609D01*
X126665760Y-90724800D02*
X126665760Y-91200990D01*
X127141951Y-91248609D01*
X127094332Y-91200990D01*
X127046713Y-91105752D01*
X127046713Y-90867657D01*
X127094332Y-90772419D01*
X127141951Y-90724800D01*
X127237189Y-90677181D01*
X127475284Y-90677181D01*
X127570522Y-90724800D01*
X127618141Y-90772419D01*
X127665760Y-90867657D01*
X127665760Y-91105752D01*
X127618141Y-91200990D01*
X127570522Y-91248609D01*
X127665760Y-95988077D02*
X127189570Y-96321410D01*
X127665760Y-96559505D02*
X126665760Y-96559505D01*
X126665760Y-96178553D01*
X126713380Y-96083315D01*
X126760999Y-96035696D01*
X126856237Y-95988077D01*
X126999094Y-95988077D01*
X127094332Y-96035696D01*
X127141951Y-96083315D01*
X127189570Y-96178553D01*
X127189570Y-96559505D01*
X126665760Y-95654743D02*
X126665760Y-95035696D01*
X127046713Y-95369029D01*
X127046713Y-95226172D01*
X127094332Y-95130934D01*
X127141951Y-95083315D01*
X127237189Y-95035696D01*
X127475284Y-95035696D01*
X127570522Y-95083315D01*
X127618141Y-95130934D01*
X127665760Y-95226172D01*
X127665760Y-95511886D01*
X127618141Y-95607124D01*
X127570522Y-95654743D01*
X126665760Y-94178553D02*
X126665760Y-94369029D01*
X126713380Y-94464267D01*
X126760999Y-94511886D01*
X126903856Y-94607124D01*
X127094332Y-94654743D01*
X127475284Y-94654743D01*
X127570522Y-94607124D01*
X127618141Y-94559505D01*
X127665760Y-94464267D01*
X127665760Y-94273791D01*
X127618141Y-94178553D01*
X127570522Y-94130934D01*
X127475284Y-94083315D01*
X127237189Y-94083315D01*
X127141951Y-94130934D01*
X127094332Y-94178553D01*
X127046713Y-94273791D01*
X127046713Y-94464267D01*
X127094332Y-94559505D01*
X127141951Y-94607124D01*
X127237189Y-94654743D01*
X108623836Y-71369940D02*
X108623836Y-72084226D01*
X108576217Y-72227083D01*
X108480979Y-72322321D01*
X108338121Y-72369940D01*
X108242883Y-72369940D01*
X109623836Y-72369940D02*
X109052407Y-72369940D01*
X109338121Y-72369940D02*
X109338121Y-71369940D01*
X109242883Y-71512798D01*
X109147645Y-71608036D01*
X109052407Y-71655655D01*
X110480979Y-71703274D02*
X110480979Y-72369940D01*
X110242883Y-71322321D02*
X110004788Y-72036607D01*
X110623836Y-72036607D01*
X112629700Y-73940063D02*
X112629700Y-73368635D01*
X113629700Y-73654349D02*
X112629700Y-73654349D01*
X113582081Y-72654349D02*
X113629700Y-72749587D01*
X113629700Y-72940063D01*
X113582081Y-73035301D01*
X113486843Y-73082920D01*
X113105891Y-73082920D01*
X113010653Y-73035301D01*
X112963034Y-72940063D01*
X112963034Y-72749587D01*
X113010653Y-72654349D01*
X113105891Y-72606730D01*
X113201129Y-72606730D01*
X113296367Y-73082920D01*
X113629700Y-72178159D02*
X112963034Y-72178159D01*
X113058272Y-72178159D02*
X113010653Y-72130540D01*
X112963034Y-72035301D01*
X112963034Y-71892444D01*
X113010653Y-71797206D01*
X113105891Y-71749587D01*
X113629700Y-71749587D01*
X113105891Y-71749587D02*
X113010653Y-71701968D01*
X112963034Y-71606730D01*
X112963034Y-71463873D01*
X113010653Y-71368635D01*
X113105891Y-71321016D01*
X113629700Y-71321016D01*
X112963034Y-70844825D02*
X113963034Y-70844825D01*
X113010653Y-70844825D02*
X112963034Y-70749587D01*
X112963034Y-70559111D01*
X113010653Y-70463873D01*
X113058272Y-70416254D01*
X113153510Y-70368635D01*
X113439224Y-70368635D01*
X113534462Y-70416254D01*
X113582081Y-70463873D01*
X113629700Y-70559111D01*
X113629700Y-70749587D01*
X113582081Y-70844825D01*
X113629700Y-69416254D02*
X113629700Y-69987682D01*
X113629700Y-69701968D02*
X112629700Y-69701968D01*
X112772558Y-69797206D01*
X112867796Y-69892444D01*
X112915415Y-69987682D01*
X108600976Y-77374500D02*
X108600976Y-78088786D01*
X108553357Y-78231643D01*
X108458119Y-78326881D01*
X108315261Y-78374500D01*
X108220023Y-78374500D01*
X109600976Y-78374500D02*
X109029547Y-78374500D01*
X109315261Y-78374500D02*
X109315261Y-77374500D01*
X109220023Y-77517358D01*
X109124785Y-77612596D01*
X109029547Y-77660215D01*
X110505738Y-77374500D02*
X110029547Y-77374500D01*
X109981928Y-77850691D01*
X110029547Y-77803072D01*
X110124785Y-77755453D01*
X110362880Y-77755453D01*
X110458119Y-77803072D01*
X110505738Y-77850691D01*
X110553357Y-77945929D01*
X110553357Y-78184024D01*
X110505738Y-78279262D01*
X110458119Y-78326881D01*
X110362880Y-78374500D01*
X110124785Y-78374500D01*
X110029547Y-78326881D01*
X109981928Y-78279262D01*
X112611920Y-79970023D02*
X112611920Y-79398595D01*
X113611920Y-79684309D02*
X112611920Y-79684309D01*
X113564301Y-78684309D02*
X113611920Y-78779547D01*
X113611920Y-78970023D01*
X113564301Y-79065261D01*
X113469063Y-79112880D01*
X113088111Y-79112880D01*
X112992873Y-79065261D01*
X112945254Y-78970023D01*
X112945254Y-78779547D01*
X112992873Y-78684309D01*
X113088111Y-78636690D01*
X113183349Y-78636690D01*
X113278587Y-79112880D01*
X113611920Y-78208119D02*
X112945254Y-78208119D01*
X113040492Y-78208119D02*
X112992873Y-78160500D01*
X112945254Y-78065261D01*
X112945254Y-77922404D01*
X112992873Y-77827166D01*
X113088111Y-77779547D01*
X113611920Y-77779547D01*
X113088111Y-77779547D02*
X112992873Y-77731928D01*
X112945254Y-77636690D01*
X112945254Y-77493833D01*
X112992873Y-77398595D01*
X113088111Y-77350976D01*
X113611920Y-77350976D01*
X112945254Y-76874785D02*
X113945254Y-76874785D01*
X112992873Y-76874785D02*
X112945254Y-76779547D01*
X112945254Y-76589071D01*
X112992873Y-76493833D01*
X113040492Y-76446214D01*
X113135730Y-76398595D01*
X113421444Y-76398595D01*
X113516682Y-76446214D01*
X113564301Y-76493833D01*
X113611920Y-76589071D01*
X113611920Y-76779547D01*
X113564301Y-76874785D01*
X112707159Y-76017642D02*
X112659540Y-75970023D01*
X112611920Y-75874785D01*
X112611920Y-75636690D01*
X112659540Y-75541452D01*
X112707159Y-75493833D01*
X112802397Y-75446214D01*
X112897635Y-75446214D01*
X113040492Y-75493833D01*
X113611920Y-76065261D01*
X113611920Y-75446214D01*
X108552716Y-82834380D02*
X108552716Y-83548666D01*
X108505097Y-83691523D01*
X108409859Y-83786761D01*
X108267001Y-83834380D01*
X108171763Y-83834380D01*
X109552716Y-83834380D02*
X108981287Y-83834380D01*
X109267001Y-83834380D02*
X109267001Y-82834380D01*
X109171763Y-82977238D01*
X109076525Y-83072476D01*
X108981287Y-83120095D01*
X110409859Y-82834380D02*
X110219382Y-82834380D01*
X110124144Y-82882000D01*
X110076525Y-82929619D01*
X109981287Y-83072476D01*
X109933668Y-83262952D01*
X109933668Y-83643904D01*
X109981287Y-83739142D01*
X110028906Y-83786761D01*
X110124144Y-83834380D01*
X110314620Y-83834380D01*
X110409859Y-83786761D01*
X110457478Y-83739142D01*
X110505097Y-83643904D01*
X110505097Y-83405809D01*
X110457478Y-83310571D01*
X110409859Y-83262952D01*
X110314620Y-83215333D01*
X110124144Y-83215333D01*
X110028906Y-83262952D01*
X109981287Y-83310571D01*
X109933668Y-83405809D01*
X112629700Y-85311643D02*
X112629700Y-84740215D01*
X113629700Y-85025929D02*
X112629700Y-85025929D01*
X113582081Y-84025929D02*
X113629700Y-84121167D01*
X113629700Y-84311643D01*
X113582081Y-84406881D01*
X113486843Y-84454500D01*
X113105891Y-84454500D01*
X113010653Y-84406881D01*
X112963034Y-84311643D01*
X112963034Y-84121167D01*
X113010653Y-84025929D01*
X113105891Y-83978310D01*
X113201129Y-83978310D01*
X113296367Y-84454500D01*
X113629700Y-83549739D02*
X112963034Y-83549739D01*
X113058272Y-83549739D02*
X113010653Y-83502120D01*
X112963034Y-83406881D01*
X112963034Y-83264024D01*
X113010653Y-83168786D01*
X113105891Y-83121167D01*
X113629700Y-83121167D01*
X113105891Y-83121167D02*
X113010653Y-83073548D01*
X112963034Y-82978310D01*
X112963034Y-82835453D01*
X113010653Y-82740215D01*
X113105891Y-82692596D01*
X113629700Y-82692596D01*
X112963034Y-82216405D02*
X113963034Y-82216405D01*
X113010653Y-82216405D02*
X112963034Y-82121167D01*
X112963034Y-81930691D01*
X113010653Y-81835453D01*
X113058272Y-81787834D01*
X113153510Y-81740215D01*
X113439224Y-81740215D01*
X113534462Y-81787834D01*
X113582081Y-81835453D01*
X113629700Y-81930691D01*
X113629700Y-82121167D01*
X113582081Y-82216405D01*
X112629700Y-81406881D02*
X112629700Y-80787834D01*
X113010653Y-81121167D01*
X113010653Y-80978310D01*
X113058272Y-80883072D01*
X113105891Y-80835453D01*
X113201129Y-80787834D01*
X113439224Y-80787834D01*
X113534462Y-80835453D01*
X113582081Y-80883072D01*
X113629700Y-80978310D01*
X113629700Y-81264024D01*
X113582081Y-81359262D01*
X113534462Y-81406881D01*
X84011236Y-71689980D02*
X84011236Y-72404266D01*
X83963617Y-72547123D01*
X83868379Y-72642361D01*
X83725521Y-72689980D01*
X83630283Y-72689980D01*
X85011236Y-72689980D02*
X84439807Y-72689980D01*
X84725521Y-72689980D02*
X84725521Y-71689980D01*
X84630283Y-71832838D01*
X84535045Y-71928076D01*
X84439807Y-71975695D01*
X85963617Y-72689980D02*
X85392188Y-72689980D01*
X85677902Y-72689980D02*
X85677902Y-71689980D01*
X85582664Y-71832838D01*
X85487426Y-71928076D01*
X85392188Y-71975695D01*
X80673200Y-73503350D02*
X79673200Y-73503350D01*
X79768439Y-73074779D02*
X79720820Y-73027160D01*
X79673200Y-72931921D01*
X79673200Y-72693826D01*
X79720820Y-72598588D01*
X79768439Y-72550969D01*
X79863677Y-72503350D01*
X79958915Y-72503350D01*
X80101772Y-72550969D01*
X80673200Y-73122398D01*
X80673200Y-72503350D01*
X80577962Y-71503350D02*
X80625581Y-71550969D01*
X80673200Y-71693826D01*
X80673200Y-71789064D01*
X80625581Y-71931921D01*
X80530343Y-72027160D01*
X80435105Y-72074779D01*
X80244629Y-72122398D01*
X80101772Y-72122398D01*
X79911296Y-72074779D01*
X79816058Y-72027160D01*
X79720820Y-71931921D01*
X79673200Y-71789064D01*
X79673200Y-71693826D01*
X79720820Y-71550969D01*
X79768439Y-71503350D01*
X84049336Y-77285600D02*
X84049336Y-77999886D01*
X84001717Y-78142743D01*
X83906479Y-78237981D01*
X83763621Y-78285600D01*
X83668383Y-78285600D01*
X85049336Y-78285600D02*
X84477907Y-78285600D01*
X84763621Y-78285600D02*
X84763621Y-77285600D01*
X84668383Y-77428458D01*
X84573145Y-77523696D01*
X84477907Y-77571315D01*
X85430288Y-77380839D02*
X85477907Y-77333220D01*
X85573145Y-77285600D01*
X85811240Y-77285600D01*
X85906479Y-77333220D01*
X85954098Y-77380839D01*
X86001717Y-77476077D01*
X86001717Y-77571315D01*
X85954098Y-77714172D01*
X85382669Y-78285600D01*
X86001717Y-78285600D01*
X80546200Y-78288710D02*
X79546200Y-78288710D01*
X79641439Y-77860139D02*
X79593820Y-77812520D01*
X79546200Y-77717281D01*
X79546200Y-77479186D01*
X79593820Y-77383948D01*
X79641439Y-77336329D01*
X79736677Y-77288710D01*
X79831915Y-77288710D01*
X79974772Y-77336329D01*
X80546200Y-77907758D01*
X80546200Y-77288710D01*
X80450962Y-76288710D02*
X80498581Y-76336329D01*
X80546200Y-76479186D01*
X80546200Y-76574424D01*
X80498581Y-76717281D01*
X80403343Y-76812520D01*
X80308105Y-76860139D01*
X80117629Y-76907758D01*
X79974772Y-76907758D01*
X79784296Y-76860139D01*
X79689058Y-76812520D01*
X79593820Y-76717281D01*
X79546200Y-76574424D01*
X79546200Y-76479186D01*
X79593820Y-76336329D01*
X79641439Y-76288710D01*
X95455146Y-82840580D02*
X95455146Y-83554866D01*
X95407527Y-83697723D01*
X95312289Y-83792961D01*
X95169432Y-83840580D01*
X95074194Y-83840580D01*
X96455146Y-83840580D02*
X95883718Y-83840580D01*
X96169432Y-83840580D02*
X96169432Y-82840580D01*
X96074194Y-82983438D01*
X95978956Y-83078676D01*
X95883718Y-83126295D01*
X91552020Y-84673842D02*
X90552020Y-84673842D01*
X90552020Y-84435747D01*
X90599640Y-84292890D01*
X90694878Y-84197652D01*
X90790116Y-84150033D01*
X90980592Y-84102414D01*
X91123449Y-84102414D01*
X91313925Y-84150033D01*
X91409163Y-84197652D01*
X91504401Y-84292890D01*
X91552020Y-84435747D01*
X91552020Y-84673842D01*
X91552020Y-83530985D02*
X91504401Y-83626223D01*
X91456782Y-83673842D01*
X91361544Y-83721461D01*
X91075830Y-83721461D01*
X90980592Y-83673842D01*
X90932973Y-83626223D01*
X90885354Y-83530985D01*
X90885354Y-83388128D01*
X90932973Y-83292890D01*
X90980592Y-83245271D01*
X91075830Y-83197652D01*
X91361544Y-83197652D01*
X91456782Y-83245271D01*
X91504401Y-83292890D01*
X91552020Y-83388128D01*
X91552020Y-83530985D01*
X91504401Y-82816700D02*
X91552020Y-82721461D01*
X91552020Y-82530985D01*
X91504401Y-82435747D01*
X91409163Y-82388128D01*
X91361544Y-82388128D01*
X91266306Y-82435747D01*
X91218687Y-82530985D01*
X91218687Y-82673842D01*
X91171068Y-82769080D01*
X91075830Y-82816700D01*
X91028211Y-82816700D01*
X90932973Y-82769080D01*
X90885354Y-82673842D01*
X90885354Y-82530985D01*
X90932973Y-82435747D01*
X91504401Y-81578604D02*
X91552020Y-81673842D01*
X91552020Y-81864319D01*
X91504401Y-81959557D01*
X91409163Y-82007176D01*
X91028211Y-82007176D01*
X90932973Y-81959557D01*
X90885354Y-81864319D01*
X90885354Y-81673842D01*
X90932973Y-81578604D01*
X91028211Y-81530985D01*
X91123449Y-81530985D01*
X91218687Y-82007176D01*
X91552020Y-81102414D02*
X90885354Y-81102414D01*
X91075830Y-81102414D02*
X90980592Y-81054795D01*
X90932973Y-81007176D01*
X90885354Y-80911938D01*
X90885354Y-80816700D01*
X84716026Y-103564440D02*
X84716026Y-104278726D01*
X84668407Y-104421583D01*
X84573169Y-104516821D01*
X84430312Y-104564440D01*
X84335074Y-104564440D01*
X85144598Y-103659679D02*
X85192217Y-103612060D01*
X85287455Y-103564440D01*
X85525550Y-103564440D01*
X85620788Y-103612060D01*
X85668407Y-103659679D01*
X85716026Y-103754917D01*
X85716026Y-103850155D01*
X85668407Y-103993012D01*
X85096979Y-104564440D01*
X85716026Y-104564440D01*
X80637640Y-105298358D02*
X80637640Y-105774548D01*
X79637640Y-105774548D01*
X80637640Y-104965024D02*
X79970974Y-104965024D01*
X79637640Y-104965024D02*
X79685260Y-105012643D01*
X79732879Y-104965024D01*
X79685260Y-104917405D01*
X79637640Y-104965024D01*
X79732879Y-104965024D01*
X79970974Y-104060262D02*
X80780498Y-104060262D01*
X80875736Y-104107881D01*
X80923355Y-104155500D01*
X80970974Y-104250739D01*
X80970974Y-104393596D01*
X80923355Y-104488834D01*
X80590021Y-104060262D02*
X80637640Y-104155500D01*
X80637640Y-104345977D01*
X80590021Y-104441215D01*
X80542402Y-104488834D01*
X80447164Y-104536453D01*
X80161450Y-104536453D01*
X80066212Y-104488834D01*
X80018593Y-104441215D01*
X79970974Y-104345977D01*
X79970974Y-104155500D01*
X80018593Y-104060262D01*
X80637640Y-103584072D02*
X79637640Y-103584072D01*
X80637640Y-103155500D02*
X80113831Y-103155500D01*
X80018593Y-103203120D01*
X79970974Y-103298358D01*
X79970974Y-103441215D01*
X80018593Y-103536453D01*
X80066212Y-103584072D01*
X79970974Y-102822167D02*
X79970974Y-102441215D01*
X79637640Y-102679310D02*
X80494783Y-102679310D01*
X80590021Y-102631691D01*
X80637640Y-102536453D01*
X80637640Y-102441215D01*
X80637640Y-101584072D02*
X80637640Y-102155500D01*
X80637640Y-101869786D02*
X79637640Y-101869786D01*
X79780498Y-101965024D01*
X79875736Y-102060262D01*
X79923355Y-102155500D01*
X84622046Y-93109800D02*
X84622046Y-93824086D01*
X84574427Y-93966943D01*
X84479189Y-94062181D01*
X84336332Y-94109800D01*
X84241094Y-94109800D01*
X85526808Y-93443134D02*
X85526808Y-94109800D01*
X85288713Y-93062181D02*
X85050618Y-93776467D01*
X85669665Y-93776467D01*
X80655420Y-95021518D02*
X80655420Y-95497708D01*
X79655420Y-95497708D01*
X80655420Y-94688184D02*
X79988754Y-94688184D01*
X79655420Y-94688184D02*
X79703040Y-94735803D01*
X79750659Y-94688184D01*
X79703040Y-94640565D01*
X79655420Y-94688184D01*
X79750659Y-94688184D01*
X79988754Y-93783422D02*
X80798278Y-93783422D01*
X80893516Y-93831041D01*
X80941135Y-93878660D01*
X80988754Y-93973899D01*
X80988754Y-94116756D01*
X80941135Y-94211994D01*
X80607801Y-93783422D02*
X80655420Y-93878660D01*
X80655420Y-94069137D01*
X80607801Y-94164375D01*
X80560182Y-94211994D01*
X80464944Y-94259613D01*
X80179230Y-94259613D01*
X80083992Y-94211994D01*
X80036373Y-94164375D01*
X79988754Y-94069137D01*
X79988754Y-93878660D01*
X80036373Y-93783422D01*
X80655420Y-93307232D02*
X79655420Y-93307232D01*
X80655420Y-92878660D02*
X80131611Y-92878660D01*
X80036373Y-92926280D01*
X79988754Y-93021518D01*
X79988754Y-93164375D01*
X80036373Y-93259613D01*
X80083992Y-93307232D01*
X79988754Y-92545327D02*
X79988754Y-92164375D01*
X79655420Y-92402470D02*
X80512563Y-92402470D01*
X80607801Y-92354851D01*
X80655420Y-92259613D01*
X80655420Y-92164375D01*
X79750659Y-91878660D02*
X79703040Y-91831041D01*
X79655420Y-91735803D01*
X79655420Y-91497708D01*
X79703040Y-91402470D01*
X79750659Y-91354851D01*
X79845897Y-91307232D01*
X79941135Y-91307232D01*
X80083992Y-91354851D01*
X80655420Y-91926280D01*
X80655420Y-91307232D01*
X95409426Y-77352760D02*
X95409426Y-78067046D01*
X95361807Y-78209903D01*
X95266569Y-78305141D01*
X95123712Y-78352760D01*
X95028474Y-78352760D01*
X96028474Y-77781332D02*
X95933236Y-77733713D01*
X95885617Y-77686094D01*
X95837998Y-77590856D01*
X95837998Y-77543237D01*
X95885617Y-77447999D01*
X95933236Y-77400380D01*
X96028474Y-77352760D01*
X96218950Y-77352760D01*
X96314188Y-77400380D01*
X96361807Y-77447999D01*
X96409426Y-77543237D01*
X96409426Y-77590856D01*
X96361807Y-77686094D01*
X96314188Y-77733713D01*
X96218950Y-77781332D01*
X96028474Y-77781332D01*
X95933236Y-77828951D01*
X95885617Y-77876570D01*
X95837998Y-77971808D01*
X95837998Y-78162284D01*
X95885617Y-78257522D01*
X95933236Y-78305141D01*
X96028474Y-78352760D01*
X96218950Y-78352760D01*
X96314188Y-78305141D01*
X96361807Y-78257522D01*
X96409426Y-78162284D01*
X96409426Y-77971808D01*
X96361807Y-77876570D01*
X96314188Y-77828951D01*
X96218950Y-77781332D01*
X91286626Y-79185567D02*
X91286626Y-78709377D01*
X91572340Y-79280805D02*
X90572340Y-78947472D01*
X91572340Y-78614139D01*
X90572340Y-78423662D02*
X90572340Y-77852234D01*
X91572340Y-78137948D02*
X90572340Y-78137948D01*
X90572340Y-77328424D02*
X90572340Y-77137948D01*
X90619960Y-77042710D01*
X90715198Y-76947472D01*
X90905674Y-76899853D01*
X91239007Y-76899853D01*
X91429483Y-76947472D01*
X91524721Y-77042710D01*
X91572340Y-77137948D01*
X91572340Y-77328424D01*
X91524721Y-77423662D01*
X91429483Y-77518900D01*
X91239007Y-77566520D01*
X90905674Y-77566520D01*
X90715198Y-77518900D01*
X90619960Y-77423662D01*
X90572340Y-77328424D01*
X91572340Y-75947472D02*
X91572340Y-76518900D01*
X91572340Y-76233186D02*
X90572340Y-76233186D01*
X90715198Y-76328424D01*
X90810436Y-76423662D01*
X90858055Y-76518900D01*
X83928626Y-82916780D02*
X83928626Y-83631066D01*
X83881007Y-83773923D01*
X83785769Y-83869161D01*
X83642912Y-83916780D01*
X83547674Y-83916780D01*
X84452436Y-83916780D02*
X84642912Y-83916780D01*
X84738150Y-83869161D01*
X84785769Y-83821542D01*
X84881007Y-83678685D01*
X84928626Y-83488209D01*
X84928626Y-83107257D01*
X84881007Y-83012019D01*
X84833388Y-82964400D01*
X84738150Y-82916780D01*
X84547674Y-82916780D01*
X84452436Y-82964400D01*
X84404817Y-83012019D01*
X84357198Y-83107257D01*
X84357198Y-83345352D01*
X84404817Y-83440590D01*
X84452436Y-83488209D01*
X84547674Y-83535828D01*
X84738150Y-83535828D01*
X84833388Y-83488209D01*
X84881007Y-83440590D01*
X84928626Y-83345352D01*
X80518260Y-84622758D02*
X80518260Y-85098948D01*
X79518260Y-85098948D01*
X80518260Y-84289424D02*
X79851594Y-84289424D01*
X79518260Y-84289424D02*
X79565880Y-84337043D01*
X79613499Y-84289424D01*
X79565880Y-84241805D01*
X79518260Y-84289424D01*
X79613499Y-84289424D01*
X79851594Y-83384662D02*
X80661118Y-83384662D01*
X80756356Y-83432281D01*
X80803975Y-83479900D01*
X80851594Y-83575139D01*
X80851594Y-83717996D01*
X80803975Y-83813234D01*
X80470641Y-83384662D02*
X80518260Y-83479900D01*
X80518260Y-83670377D01*
X80470641Y-83765615D01*
X80423022Y-83813234D01*
X80327784Y-83860853D01*
X80042070Y-83860853D01*
X79946832Y-83813234D01*
X79899213Y-83765615D01*
X79851594Y-83670377D01*
X79851594Y-83479900D01*
X79899213Y-83384662D01*
X80518260Y-82908472D02*
X79518260Y-82908472D01*
X80518260Y-82479900D02*
X79994451Y-82479900D01*
X79899213Y-82527520D01*
X79851594Y-82622758D01*
X79851594Y-82765615D01*
X79899213Y-82860853D01*
X79946832Y-82908472D01*
X79851594Y-82146567D02*
X79851594Y-81765615D01*
X79518260Y-82003710D02*
X80375403Y-82003710D01*
X80470641Y-81956091D01*
X80518260Y-81860853D01*
X80518260Y-81765615D01*
X79518260Y-81527520D02*
X79518260Y-80908472D01*
X79899213Y-81241805D01*
X79899213Y-81098948D01*
X79946832Y-81003710D01*
X79994451Y-80956091D01*
X80089689Y-80908472D01*
X80327784Y-80908472D01*
X80423022Y-80956091D01*
X80470641Y-81003710D01*
X80518260Y-81098948D01*
X80518260Y-81384662D01*
X80470641Y-81479900D01*
X80423022Y-81527520D01*
M02*
