%TF.GenerationSoftware,KiCad,Pcbnew,(5.0.1)-3*%
%TF.CreationDate,2019-02-10T12:01:05-05:00*%
%TF.ProjectId,reef-piHat,726565662D70694861742E6B69636164,rev?*%
%TF.SameCoordinates,Original*%
%TF.FileFunction,Paste,Top*%
%TF.FilePolarity,Positive*%
%FSLAX46Y46*%
G04 Gerber Fmt 4.6, Leading zero omitted, Abs format (unit mm)*
G04 Created by KiCad (PCBNEW (5.0.1)-3) date 2/10/2019 12:01:05 PM*
%MOMM*%
%LPD*%
G01*
G04 APERTURE LIST*
%ADD10C,0.100000*%
%ADD11R,1.100000X0.400000*%
%ADD12R,0.600000X1.725000*%
%ADD13C,1.425000*%
%ADD14R,0.800000X0.500000*%
%ADD15R,0.800000X0.400000*%
%ADD16C,0.950000*%
G04 APERTURE END LIST*
D10*
X78546356Y-63817611D02*
X78546356Y-113817611D01*
X78546356Y-63817611D02*
G75*
G02X81546356Y-60817611I3000000J0D01*
G01*
X140546356Y-60817611D02*
X81546356Y-60817611D01*
X140546356Y-60817611D02*
G75*
G02X143546356Y-63817611I0J-3000000D01*
G01*
X143546356Y-113817611D02*
X143546356Y-63817611D01*
X81546356Y-116817611D02*
G75*
G02X78546356Y-113817611I0J3000000D01*
G01*
X81546356Y-116817611D02*
X140546356Y-116817611D01*
X143546351Y-113822847D02*
G75*
G02X140546356Y-116817611I-2999995J5236D01*
G01*
D11*
X110241200Y-108212600D03*
X110241200Y-107562600D03*
X110241200Y-106912600D03*
X110241200Y-106262600D03*
X110241200Y-105612600D03*
X110241200Y-104962600D03*
X110241200Y-104312600D03*
X110241200Y-103662600D03*
X110241200Y-103012600D03*
X110241200Y-102362600D03*
X110241200Y-101712600D03*
X110241200Y-101062600D03*
X110241200Y-100412600D03*
X110241200Y-99762600D03*
X104541200Y-99762600D03*
X104541200Y-100412600D03*
X104541200Y-101062600D03*
X104541200Y-101712600D03*
X104541200Y-102362600D03*
X104541200Y-103012600D03*
X104541200Y-103662600D03*
X104541200Y-104312600D03*
X104541200Y-104962600D03*
X104541200Y-105612600D03*
X104541200Y-106262600D03*
X104541200Y-106912600D03*
X104541200Y-107562600D03*
X104541200Y-108212600D03*
D12*
X135382000Y-84537500D03*
X134112000Y-84537500D03*
X132842000Y-84537500D03*
X131572000Y-84537500D03*
X130302000Y-84537500D03*
X129032000Y-84537500D03*
X127762000Y-84537500D03*
X126492000Y-84537500D03*
X125222000Y-84537500D03*
X135382000Y-93262500D03*
X134112000Y-93262500D03*
X132842000Y-93262500D03*
X131572000Y-93262500D03*
X130302000Y-93262500D03*
X129032000Y-93262500D03*
X127762000Y-93262500D03*
X126492000Y-93262500D03*
X125222000Y-93262500D03*
D10*
G36*
X100344504Y-110566104D02*
X100368773Y-110569704D01*
X100392571Y-110575665D01*
X100415671Y-110583930D01*
X100437849Y-110594420D01*
X100458893Y-110607033D01*
X100478598Y-110621647D01*
X100496777Y-110638123D01*
X100513253Y-110656302D01*
X100527867Y-110676007D01*
X100540480Y-110697051D01*
X100550970Y-110719229D01*
X100559235Y-110742329D01*
X100565196Y-110766127D01*
X100568796Y-110790396D01*
X100570000Y-110814900D01*
X100570000Y-111739900D01*
X100568796Y-111764404D01*
X100565196Y-111788673D01*
X100559235Y-111812471D01*
X100550970Y-111835571D01*
X100540480Y-111857749D01*
X100527867Y-111878793D01*
X100513253Y-111898498D01*
X100496777Y-111916677D01*
X100478598Y-111933153D01*
X100458893Y-111947767D01*
X100437849Y-111960380D01*
X100415671Y-111970870D01*
X100392571Y-111979135D01*
X100368773Y-111985096D01*
X100344504Y-111988696D01*
X100320000Y-111989900D01*
X99070000Y-111989900D01*
X99045496Y-111988696D01*
X99021227Y-111985096D01*
X98997429Y-111979135D01*
X98974329Y-111970870D01*
X98952151Y-111960380D01*
X98931107Y-111947767D01*
X98911402Y-111933153D01*
X98893223Y-111916677D01*
X98876747Y-111898498D01*
X98862133Y-111878793D01*
X98849520Y-111857749D01*
X98839030Y-111835571D01*
X98830765Y-111812471D01*
X98824804Y-111788673D01*
X98821204Y-111764404D01*
X98820000Y-111739900D01*
X98820000Y-110814900D01*
X98821204Y-110790396D01*
X98824804Y-110766127D01*
X98830765Y-110742329D01*
X98839030Y-110719229D01*
X98849520Y-110697051D01*
X98862133Y-110676007D01*
X98876747Y-110656302D01*
X98893223Y-110638123D01*
X98911402Y-110621647D01*
X98931107Y-110607033D01*
X98952151Y-110594420D01*
X98974329Y-110583930D01*
X98997429Y-110575665D01*
X99021227Y-110569704D01*
X99045496Y-110566104D01*
X99070000Y-110564900D01*
X100320000Y-110564900D01*
X100344504Y-110566104D01*
X100344504Y-110566104D01*
G37*
D13*
X99695000Y-111277400D03*
D10*
G36*
X100344504Y-113541104D02*
X100368773Y-113544704D01*
X100392571Y-113550665D01*
X100415671Y-113558930D01*
X100437849Y-113569420D01*
X100458893Y-113582033D01*
X100478598Y-113596647D01*
X100496777Y-113613123D01*
X100513253Y-113631302D01*
X100527867Y-113651007D01*
X100540480Y-113672051D01*
X100550970Y-113694229D01*
X100559235Y-113717329D01*
X100565196Y-113741127D01*
X100568796Y-113765396D01*
X100570000Y-113789900D01*
X100570000Y-114714900D01*
X100568796Y-114739404D01*
X100565196Y-114763673D01*
X100559235Y-114787471D01*
X100550970Y-114810571D01*
X100540480Y-114832749D01*
X100527867Y-114853793D01*
X100513253Y-114873498D01*
X100496777Y-114891677D01*
X100478598Y-114908153D01*
X100458893Y-114922767D01*
X100437849Y-114935380D01*
X100415671Y-114945870D01*
X100392571Y-114954135D01*
X100368773Y-114960096D01*
X100344504Y-114963696D01*
X100320000Y-114964900D01*
X99070000Y-114964900D01*
X99045496Y-114963696D01*
X99021227Y-114960096D01*
X98997429Y-114954135D01*
X98974329Y-114945870D01*
X98952151Y-114935380D01*
X98931107Y-114922767D01*
X98911402Y-114908153D01*
X98893223Y-114891677D01*
X98876747Y-114873498D01*
X98862133Y-114853793D01*
X98849520Y-114832749D01*
X98839030Y-114810571D01*
X98830765Y-114787471D01*
X98824804Y-114763673D01*
X98821204Y-114739404D01*
X98820000Y-114714900D01*
X98820000Y-113789900D01*
X98821204Y-113765396D01*
X98824804Y-113741127D01*
X98830765Y-113717329D01*
X98839030Y-113694229D01*
X98849520Y-113672051D01*
X98862133Y-113651007D01*
X98876747Y-113631302D01*
X98893223Y-113613123D01*
X98911402Y-113596647D01*
X98931107Y-113582033D01*
X98952151Y-113569420D01*
X98974329Y-113558930D01*
X98997429Y-113550665D01*
X99021227Y-113544704D01*
X99045496Y-113541104D01*
X99070000Y-113539900D01*
X100320000Y-113539900D01*
X100344504Y-113541104D01*
X100344504Y-113541104D01*
G37*
D13*
X99695000Y-114252400D03*
D14*
X120650000Y-108407200D03*
D15*
X120650000Y-106807200D03*
X120650000Y-107607200D03*
D14*
X120650000Y-106007200D03*
D15*
X118850000Y-107607200D03*
D14*
X118850000Y-108407200D03*
D15*
X118850000Y-106807200D03*
D14*
X118850000Y-106007200D03*
X108563000Y-94157800D03*
D15*
X108563000Y-95757800D03*
X108563000Y-94957800D03*
D14*
X108563000Y-96557800D03*
D15*
X110363000Y-94957800D03*
D14*
X110363000Y-94157800D03*
D15*
X110363000Y-95757800D03*
D14*
X110363000Y-96557800D03*
X96901000Y-100089000D03*
D15*
X96901000Y-101689000D03*
X96901000Y-100889000D03*
D14*
X96901000Y-102489000D03*
D15*
X98701000Y-100889000D03*
D14*
X98701000Y-100089000D03*
D15*
X98701000Y-101689000D03*
D14*
X98701000Y-102489000D03*
X98753500Y-98418500D03*
D15*
X98753500Y-97618500D03*
D14*
X98753500Y-96018500D03*
D15*
X98753500Y-96818500D03*
D14*
X96953500Y-98418500D03*
D15*
X96953500Y-96818500D03*
X96953500Y-97618500D03*
D14*
X96953500Y-96018500D03*
X134126400Y-78048000D03*
D15*
X134126400Y-79648000D03*
X134126400Y-78848000D03*
D14*
X134126400Y-80448000D03*
D15*
X135926400Y-78848000D03*
D14*
X135926400Y-78048000D03*
D15*
X135926400Y-79648000D03*
D14*
X135926400Y-80448000D03*
X135926400Y-72650200D03*
D15*
X135926400Y-71850200D03*
D14*
X135926400Y-70250200D03*
D15*
X135926400Y-71050200D03*
D14*
X134126400Y-72650200D03*
D15*
X134126400Y-71050200D03*
X134126400Y-71850200D03*
D14*
X134126400Y-70250200D03*
X96901000Y-105740200D03*
D15*
X96901000Y-107340200D03*
X96901000Y-106540200D03*
D14*
X96901000Y-108140200D03*
D15*
X98701000Y-106540200D03*
D14*
X98701000Y-105740200D03*
D15*
X98701000Y-107340200D03*
D14*
X98701000Y-108140200D03*
D10*
G36*
X99040579Y-103666144D02*
X99063634Y-103669563D01*
X99086243Y-103675227D01*
X99108187Y-103683079D01*
X99129257Y-103693044D01*
X99149248Y-103705026D01*
X99167968Y-103718910D01*
X99185238Y-103734562D01*
X99200890Y-103751832D01*
X99214774Y-103770552D01*
X99226756Y-103790543D01*
X99236721Y-103811613D01*
X99244573Y-103833557D01*
X99250237Y-103856166D01*
X99253656Y-103879221D01*
X99254800Y-103902500D01*
X99254800Y-104377500D01*
X99253656Y-104400779D01*
X99250237Y-104423834D01*
X99244573Y-104446443D01*
X99236721Y-104468387D01*
X99226756Y-104489457D01*
X99214774Y-104509448D01*
X99200890Y-104528168D01*
X99185238Y-104545438D01*
X99167968Y-104561090D01*
X99149248Y-104574974D01*
X99129257Y-104586956D01*
X99108187Y-104596921D01*
X99086243Y-104604773D01*
X99063634Y-104610437D01*
X99040579Y-104613856D01*
X99017300Y-104615000D01*
X98442300Y-104615000D01*
X98419021Y-104613856D01*
X98395966Y-104610437D01*
X98373357Y-104604773D01*
X98351413Y-104596921D01*
X98330343Y-104586956D01*
X98310352Y-104574974D01*
X98291632Y-104561090D01*
X98274362Y-104545438D01*
X98258710Y-104528168D01*
X98244826Y-104509448D01*
X98232844Y-104489457D01*
X98222879Y-104468387D01*
X98215027Y-104446443D01*
X98209363Y-104423834D01*
X98205944Y-104400779D01*
X98204800Y-104377500D01*
X98204800Y-103902500D01*
X98205944Y-103879221D01*
X98209363Y-103856166D01*
X98215027Y-103833557D01*
X98222879Y-103811613D01*
X98232844Y-103790543D01*
X98244826Y-103770552D01*
X98258710Y-103751832D01*
X98274362Y-103734562D01*
X98291632Y-103718910D01*
X98310352Y-103705026D01*
X98330343Y-103693044D01*
X98351413Y-103683079D01*
X98373357Y-103675227D01*
X98395966Y-103669563D01*
X98419021Y-103666144D01*
X98442300Y-103665000D01*
X99017300Y-103665000D01*
X99040579Y-103666144D01*
X99040579Y-103666144D01*
G37*
D16*
X98729800Y-104140000D03*
D10*
G36*
X97290579Y-103666144D02*
X97313634Y-103669563D01*
X97336243Y-103675227D01*
X97358187Y-103683079D01*
X97379257Y-103693044D01*
X97399248Y-103705026D01*
X97417968Y-103718910D01*
X97435238Y-103734562D01*
X97450890Y-103751832D01*
X97464774Y-103770552D01*
X97476756Y-103790543D01*
X97486721Y-103811613D01*
X97494573Y-103833557D01*
X97500237Y-103856166D01*
X97503656Y-103879221D01*
X97504800Y-103902500D01*
X97504800Y-104377500D01*
X97503656Y-104400779D01*
X97500237Y-104423834D01*
X97494573Y-104446443D01*
X97486721Y-104468387D01*
X97476756Y-104489457D01*
X97464774Y-104509448D01*
X97450890Y-104528168D01*
X97435238Y-104545438D01*
X97417968Y-104561090D01*
X97399248Y-104574974D01*
X97379257Y-104586956D01*
X97358187Y-104596921D01*
X97336243Y-104604773D01*
X97313634Y-104610437D01*
X97290579Y-104613856D01*
X97267300Y-104615000D01*
X96692300Y-104615000D01*
X96669021Y-104613856D01*
X96645966Y-104610437D01*
X96623357Y-104604773D01*
X96601413Y-104596921D01*
X96580343Y-104586956D01*
X96560352Y-104574974D01*
X96541632Y-104561090D01*
X96524362Y-104545438D01*
X96508710Y-104528168D01*
X96494826Y-104509448D01*
X96482844Y-104489457D01*
X96472879Y-104468387D01*
X96465027Y-104446443D01*
X96459363Y-104423834D01*
X96455944Y-104400779D01*
X96454800Y-104377500D01*
X96454800Y-103902500D01*
X96455944Y-103879221D01*
X96459363Y-103856166D01*
X96465027Y-103833557D01*
X96472879Y-103811613D01*
X96482844Y-103790543D01*
X96494826Y-103770552D01*
X96508710Y-103751832D01*
X96524362Y-103734562D01*
X96541632Y-103718910D01*
X96560352Y-103705026D01*
X96580343Y-103693044D01*
X96601413Y-103683079D01*
X96623357Y-103675227D01*
X96645966Y-103669563D01*
X96669021Y-103666144D01*
X96692300Y-103665000D01*
X97267300Y-103665000D01*
X97290579Y-103666144D01*
X97290579Y-103666144D01*
G37*
D16*
X96979800Y-104140000D03*
M02*
